<?xml version="1.0" encoding="utf-8" standalone="no"?>
<!DOCTYPE svg PUBLIC "-//W3C//DTD SVG 1.1//EN"
  "http://www.w3.org/Graphics/SVG/1.1/DTD/svg11.dtd">
<!-- Created with matplotlib (https://matplotlib.org/) -->
<svg height="401.88375pt" version="1.1" viewBox="0 0 703.773437 401.88375" width="703.773437pt" xmlns="http://www.w3.org/2000/svg" xmlns:xlink="http://www.w3.org/1999/xlink">
 <defs>
  <style type="text/css">
*{stroke-linecap:butt;stroke-linejoin:round;}
  </style>
 </defs>
 <g id="figure_1">
  <g id="patch_1">
   <path d="M 0 401.88375 
L 703.773437 401.88375 
L 703.773437 0 
L 0 0 
z
" style="fill:#ffffff;"/>
  </g>
  <g id="axes_1">
   <g id="patch_2">
    <path d="M 135.073438 364.3275 
L 693.073437 364.3275 
L 693.073437 38.1675 
L 135.073438 38.1675 
z
" style="fill:#ffffff;"/>
   </g>
   <g id="PolyCollection_1">
    <defs>
     <path d="M 128.725316 -322.914852 
L 128.725316 -322.977648 
L 134.489925 -323.031784 
L 140.254533 -323.111384 
L 146.019142 -323.172604 
L 151.78375 -323.168484 
L 157.548359 -323.109448 
L 163.312967 -323.05451 
L 169.077576 -323.044957 
L 174.842184 -323.075117 
L 180.606793 -323.115302 
L 186.371401 -323.145497 
L 192.13601 -323.173674 
L 197.900618 -323.218656 
L 203.665227 -323.275782 
L 209.429835 -323.317755 
L 215.194444 -323.330833 
L 220.959052 -323.340398 
L 226.723661 -323.390742 
L 232.488269 -323.492221 
L 238.252878 -323.613125 
L 244.017486 -323.733085 
L 249.782095 -323.863278 
L 255.546703 -324.017447 
L 261.311312 -324.207361 
L 267.07592 -324.439723 
L 272.840529 -324.673374 
L 278.605137 -324.821681 
L 284.369746 -324.851268 
L 290.134355 -324.846365 
L 295.898963 -324.930905 
L 301.663572 -325.16667 
L 307.42818 -325.55786 
L 313.192789 -326.085484 
L 318.957397 -326.685547 
L 324.722006 -327.254881 
L 330.486614 -327.753275 
L 336.251223 -328.262892 
L 342.015831 -328.876673 
L 347.78044 -329.592127 
L 353.545048 -330.402861 
L 359.309657 -331.393895 
L 365.074265 -332.627605 
L 370.838874 -334.046716 
L 376.603482 -335.578696 
L 382.368091 -337.184911 
L 388.132699 -338.754586 
L 393.897308 -340.178687 
L 399.661916 -341.634889 
L 405.426525 -343.431678 
L 411.191133 -345.340686 
L 416.955742 -346.693803 
L 422.72035 -347.434372 
L 428.484959 -348.261719 
L 434.249567 -349.536392 
L 440.014176 -350.750518 
L 445.778784 -351.160907 
L 451.543393 -350.604775 
L 457.308001 -349.62563 
L 463.07261 -348.871831 
L 468.837218 -348.514831 
L 474.601827 -348.295585 
L 480.366435 -347.968875 
L 486.131044 -347.545697 
L 491.895652 -347.119113 
L 497.660261 -346.604778 
L 503.424869 -345.791689 
L 509.189478 -344.643621 
L 514.954086 -343.400679 
L 520.718695 -342.35448 
L 526.483303 -341.678529 
L 532.247912 -341.471137 
L 538.01252 -341.718069 
L 543.777129 -342.074973 
L 549.541738 -341.972155 
L 555.306346 -341.196256 
L 561.070955 -340.115505 
L 566.835563 -339.181283 
L 572.600172 -338.485168 
L 578.36478 -337.906528 
L 584.129389 -337.425085 
L 589.893997 -337.149633 
L 595.658606 -337.224218 
L 601.423214 -337.658895 
L 607.187823 -338.103717 
L 612.952431 -338.062625 
L 618.71704 -337.37682 
L 624.481648 -336.177333 
L 630.246257 -334.543457 
L 636.010865 -332.626012 
L 641.775474 -330.863971 
L 647.540082 -329.568235 
L 653.304691 -328.488271 
L 659.069299 -327.227839 
L 664.833908 -325.837716 
L 670.598516 -324.67064 
L 676.363125 -323.910066 
L 682.127733 -323.473476 
L 687.892342 -323.216146 
L 693.65695 -323.063055 
L 699.421559 -322.985533 
L 699.421559 -322.906967 
L 699.421559 -322.906967 
L 693.65695 -322.829445 
L 687.892342 -322.676354 
L 682.127733 -322.419024 
L 676.363125 -321.982434 
L 670.598516 -321.22186 
L 664.833908 -320.054784 
L 659.069299 -318.664661 
L 653.304691 -317.404229 
L 647.540082 -316.324265 
L 641.775474 -315.028529 
L 636.010865 -313.266488 
L 630.246257 -311.349043 
L 624.481648 -309.715167 
L 618.71704 -308.51568 
L 612.952431 -307.829875 
L 607.187823 -307.788783 
L 601.423214 -308.233605 
L 595.658606 -308.668282 
L 589.893997 -308.742867 
L 584.129389 -308.467415 
L 578.36478 -307.985972 
L 572.600172 -307.407332 
L 566.835563 -306.711217 
L 561.070955 -305.776995 
L 555.306346 -304.696244 
L 549.541738 -303.920345 
L 543.777129 -303.817527 
L 538.01252 -304.174431 
L 532.247912 -304.421363 
L 526.483303 -304.213971 
L 520.718695 -303.53802 
L 514.954086 -302.491821 
L 509.189478 -301.248879 
L 503.424869 -300.100811 
L 497.660261 -299.287722 
L 491.895652 -298.773387 
L 486.131044 -298.346803 
L 480.366435 -297.923625 
L 474.601827 -297.596915 
L 468.837218 -297.377669 
L 463.07261 -297.020669 
L 457.308001 -296.26687 
L 451.543393 -295.287725 
L 445.778784 -294.731593 
L 440.014176 -295.141982 
L 434.249567 -296.356108 
L 428.484959 -297.630781 
L 422.72035 -298.458128 
L 416.955742 -299.198697 
L 411.191133 -300.551814 
L 405.426525 -302.460822 
L 399.661916 -304.257611 
L 393.897308 -305.713813 
L 388.132699 -307.137914 
L 382.368091 -308.707589 
L 376.603482 -310.313804 
L 370.838874 -311.845784 
L 365.074265 -313.264895 
L 359.309657 -314.498605 
L 353.545048 -315.489639 
L 347.78044 -316.300373 
L 342.015831 -317.015827 
L 336.251223 -317.629608 
L 330.486614 -318.139225 
L 324.722006 -318.637619 
L 318.957397 -319.206953 
L 313.192789 -319.807016 
L 307.42818 -320.33464 
L 301.663572 -320.72583 
L 295.898963 -320.961595 
L 290.134355 -321.046135 
L 284.369746 -321.041232 
L 278.605137 -321.070819 
L 272.840529 -321.219126 
L 267.07592 -321.452777 
L 261.311312 -321.685139 
L 255.546703 -321.875053 
L 249.782095 -322.029222 
L 244.017486 -322.159415 
L 238.252878 -322.279375 
L 232.488269 -322.400279 
L 226.723661 -322.501758 
L 220.959052 -322.552102 
L 215.194444 -322.561667 
L 209.429835 -322.574745 
L 203.665227 -322.616718 
L 197.900618 -322.673844 
L 192.13601 -322.718826 
L 186.371401 -322.747003 
L 180.606793 -322.777198 
L 174.842184 -322.817383 
L 169.077576 -322.847543 
L 163.312967 -322.83799 
L 157.548359 -322.783052 
L 151.78375 -322.724016 
L 146.019142 -322.719896 
L 140.254533 -322.781116 
L 134.489925 -322.860716 
L 128.725316 -322.914852 
z
" id="m1d725f2da3" style="stroke:#262626;stroke-width:1.5;"/>
    </defs>
    <g clip-path="url(#p0c81957a67)">
     <use style="fill:#107010;stroke:#262626;stroke-width:1.5;" x="0" xlink:href="#m1d725f2da3" y="401.88375"/>
    </g>
   </g>
   <g id="PolyCollection_2">
    <defs>
     <path d="M 135.591649 -241.307817 
L 135.591649 -241.504683 
L 141.217544 -241.795343 
L 146.843439 -242.114619 
L 152.469333 -242.007926 
L 158.095228 -241.688394 
L 163.721123 -241.628254 
L 169.347017 -241.801198 
L 174.972912 -241.999969 
L 180.598807 -242.128523 
L 186.224702 -242.176027 
L 191.850596 -242.219547 
L 197.476491 -242.39816 
L 203.102386 -242.646159 
L 208.72828 -242.828532 
L 214.354175 -242.89252 
L 219.98007 -242.853641 
L 225.605965 -242.944001 
L 231.231859 -243.23764 
L 236.857754 -243.490262 
L 242.483649 -243.724285 
L 248.109543 -244.291903 
L 253.735438 -245.017206 
L 259.361333 -245.463652 
L 264.987228 -245.729637 
L 270.613122 -246.334106 
L 276.239017 -247.27678 
L 281.864912 -247.922476 
L 287.490806 -248.124169 
L 293.116701 -248.591638 
L 298.742596 -249.534319 
L 304.368491 -250.386842 
L 309.994385 -251.093789 
L 315.62028 -252.323592 
L 321.246175 -254.154364 
L 326.872069 -255.784046 
L 332.497964 -256.716535 
L 338.123859 -257.787575 
L 343.749754 -259.49714 
L 349.375648 -260.928212 
L 355.001543 -261.617983 
L 360.627438 -262.761426 
L 366.253332 -264.712907 
L 371.879227 -266.279246 
L 377.505122 -267.303865 
L 383.131017 -268.343966 
L 388.756911 -269.656996 
L 394.382806 -270.336602 
L 400.008701 -269.644691 
L 405.634595 -270.494824 
L 411.26049 -273.795908 
L 416.886385 -273.87355 
L 422.51228 -270.714847 
L 428.138174 -269.498746 
L 433.764069 -269.923751 
L 439.389964 -270.513656 
L 445.015858 -270.564543 
L 450.641753 -269.214579 
L 456.267648 -266.681382 
L 461.893543 -264.252875 
L 467.519437 -262.732225 
L 473.145332 -261.722819 
L 478.771227 -260.721618 
L 484.397121 -259.752478 
L 490.023016 -258.842041 
L 495.648911 -257.967049 
L 501.274806 -257.150465 
L 506.9007 -255.901106 
L 512.526595 -254.53802 
L 518.15249 -253.666062 
L 523.778384 -253.036206 
L 529.404279 -252.422178 
L 535.030174 -251.845817 
L 540.656069 -251.565981 
L 546.281963 -251.353917 
L 551.907858 -250.519072 
L 557.533753 -249.392447 
L 563.159647 -248.736827 
L 568.785542 -248.510532 
L 574.411437 -248.144531 
L 580.037332 -247.459264 
L 585.663226 -246.923162 
L 591.289121 -246.391766 
L 596.915016 -245.722556 
L 602.54091 -245.434803 
L 608.166805 -245.563148 
L 613.7927 -245.755095 
L 619.418595 -245.685872 
L 625.044489 -245.208251 
L 630.670384 -244.481375 
L 636.296279 -243.647502 
L 641.922173 -243.010336 
L 647.548068 -242.825476 
L 653.173963 -242.674683 
L 658.799858 -242.272344 
L 664.425752 -241.887431 
L 670.051647 -241.675967 
L 675.677542 -241.592338 
L 681.303436 -241.545303 
L 686.929331 -241.474505 
L 692.555226 -241.423093 
L 692.555226 -241.389407 
L 692.555226 -241.389407 
L 686.929331 -241.337995 
L 681.303436 -241.267197 
L 675.677542 -241.220162 
L 670.051647 -241.136533 
L 664.425752 -240.925069 
L 658.799858 -240.540156 
L 653.173963 -240.137817 
L 647.548068 -239.987024 
L 641.922173 -239.802164 
L 636.296279 -239.164998 
L 630.670384 -238.331125 
L 625.044489 -237.604249 
L 619.418595 -237.126628 
L 613.7927 -237.057405 
L 608.166805 -237.249352 
L 602.54091 -237.377697 
L 596.915016 -237.089944 
L 591.289121 -236.420734 
L 585.663226 -235.889338 
L 580.037332 -235.353236 
L 574.411437 -234.667969 
L 568.785542 -234.301968 
L 563.159647 -234.075673 
L 557.533753 -233.420053 
L 551.907858 -232.293428 
L 546.281963 -231.458583 
L 540.656069 -231.246519 
L 535.030174 -230.966683 
L 529.404279 -230.390322 
L 523.778384 -229.776294 
L 518.15249 -229.146438 
L 512.526595 -228.27448 
L 506.9007 -226.911394 
L 501.274806 -225.662035 
L 495.648911 -224.845451 
L 490.023016 -223.970459 
L 484.397121 -223.060022 
L 478.771227 -222.090882 
L 473.145332 -221.089681 
L 467.519437 -220.080275 
L 461.893543 -218.559625 
L 456.267648 -216.131118 
L 450.641753 -213.597921 
L 445.015858 -212.247957 
L 439.389964 -212.298844 
L 433.764069 -212.888749 
L 428.138174 -213.313754 
L 422.51228 -212.097653 
L 416.886385 -208.93895 
L 411.26049 -209.016592 
L 405.634595 -212.317676 
L 400.008701 -213.167809 
L 394.382806 -212.475898 
L 388.756911 -213.155504 
L 383.131017 -214.468534 
L 377.505122 -215.508635 
L 371.879227 -216.533254 
L 366.253332 -218.099593 
L 360.627438 -220.051074 
L 355.001543 -221.194517 
L 349.375648 -221.884288 
L 343.749754 -223.31536 
L 338.123859 -225.024925 
L 332.497964 -226.095965 
L 326.872069 -227.028454 
L 321.246175 -228.658136 
L 315.62028 -230.488908 
L 309.994385 -231.718711 
L 304.368491 -232.425658 
L 298.742596 -233.278181 
L 293.116701 -234.220862 
L 287.490806 -234.688331 
L 281.864912 -234.890024 
L 276.239017 -235.53572 
L 270.613122 -236.478394 
L 264.987228 -237.082863 
L 259.361333 -237.348848 
L 253.735438 -237.795294 
L 248.109543 -238.520597 
L 242.483649 -239.088215 
L 236.857754 -239.322238 
L 231.231859 -239.57486 
L 225.605965 -239.868499 
L 219.98007 -239.958859 
L 214.354175 -239.91998 
L 208.72828 -239.983968 
L 203.102386 -240.166341 
L 197.476491 -240.41434 
L 191.850596 -240.592953 
L 186.224702 -240.636473 
L 180.598807 -240.683977 
L 174.972912 -240.812531 
L 169.347017 -241.011302 
L 163.721123 -241.184246 
L 158.095228 -241.124106 
L 152.469333 -240.804574 
L 146.843439 -240.697881 
L 141.217544 -241.017157 
L 135.591649 -241.307817 
z
" id="m7ce0bd4bfb" style="stroke:#262626;stroke-width:1.5;"/>
    </defs>
    <g clip-path="url(#p0c81957a67)">
     <use style="fill:#107010;stroke:#262626;stroke-width:1.5;" x="0" xlink:href="#m7ce0bd4bfb" y="401.88375"/>
    </g>
   </g>
   <g id="PolyCollection_3">
    <defs>
     <path d="M 133.626339 -159.704747 
L 133.626339 -160.027753 
L 139.291937 -160.426132 
L 144.957535 -160.943346 
L 150.623133 -161.030419 
L 156.288731 -160.637118 
L 161.954329 -160.377185 
L 167.619927 -160.531265 
L 173.285525 -160.886296 
L 178.951123 -161.197077 
L 184.61672 -161.394011 
L 190.282318 -161.555679 
L 195.947916 -161.790769 
L 201.613514 -162.107254 
L 207.279112 -162.432846 
L 212.94471 -162.65269 
L 218.610308 -162.720238 
L 224.275906 -162.829632 
L 229.941504 -163.141629 
L 235.607102 -163.572815 
L 241.2727 -164.155229 
L 246.938298 -165.128519 
L 252.603896 -166.369899 
L 258.269494 -167.41651 
L 263.935092 -168.182329 
L 269.60069 -169.067691 
L 275.266288 -170.244236 
L 280.931886 -171.336727 
L 286.597484 -172.100209 
L 292.263082 -172.849496 
L 297.92868 -173.791324 
L 303.594277 -174.7526 
L 309.259875 -175.97897 
L 314.925473 -178.090499 
L 320.591071 -180.932669 
L 326.256669 -183.288767 
L 331.922267 -184.442502 
L 337.587865 -185.401859 
L 343.253463 -186.995618 
L 348.919061 -188.4297 
L 354.584659 -189.225338 
L 360.250257 -190.311681 
L 365.915855 -191.782232 
L 371.581453 -192.48225 
L 377.247051 -192.314747 
L 382.912649 -192.048169 
L 388.578247 -191.797195 
L 394.243845 -190.923434 
L 399.909443 -189.620169 
L 405.575041 -189.756814 
L 411.240639 -191.15944 
L 416.906236 -190.345289 
L 422.571834 -186.938648 
L 428.237432 -184.033714 
L 433.90303 -182.604784 
L 439.568628 -181.839455 
L 445.234226 -181.106839 
L 450.899824 -179.933608 
L 456.565422 -178.02307 
L 462.23102 -175.744853 
L 467.896618 -173.843232 
L 473.562216 -172.52745 
L 479.227814 -171.607114 
L 484.893412 -170.88268 
L 490.55901 -170.181658 
L 496.224608 -169.485747 
L 501.890206 -168.772577 
L 507.555804 -167.979079 
L 513.221402 -167.329009 
L 518.887 -166.973635 
L 524.552598 -166.708216 
L 530.218195 -166.326839 
L 535.883793 -165.788596 
L 541.549391 -165.222981 
L 547.214989 -164.710557 
L 552.880587 -164.161065 
L 558.546185 -163.61794 
L 564.211783 -163.25836 
L 569.877381 -163.06692 
L 575.542979 -162.849193 
L 581.208577 -162.554702 
L 586.874175 -162.290366 
L 592.539773 -162.039723 
L 598.205371 -161.791664 
L 603.870969 -161.653795 
L 609.536567 -161.612399 
L 615.202165 -161.554868 
L 620.867763 -161.418627 
L 626.533361 -161.201611 
L 632.198959 -160.933593 
L 637.864557 -160.66562 
L 643.530155 -160.469389 
L 649.195752 -160.34452 
L 654.86135 -160.210622 
L 660.526948 -160.070787 
L 666.192546 -159.991995 
L 671.858144 -159.97642 
L 677.523742 -159.975561 
L 683.18934 -159.950051 
L 688.854938 -159.906836 
L 694.520536 -159.877668 
L 694.520536 -159.854832 
L 694.520536 -159.854832 
L 688.854938 -159.825664 
L 683.18934 -159.782449 
L 677.523742 -159.756939 
L 671.858144 -159.75608 
L 666.192546 -159.740505 
L 660.526948 -159.661713 
L 654.86135 -159.521878 
L 649.195752 -159.38798 
L 643.530155 -159.263111 
L 637.864557 -159.06688 
L 632.198959 -158.798907 
L 626.533361 -158.530889 
L 620.867763 -158.313873 
L 615.202165 -158.177632 
L 609.536567 -158.120101 
L 603.870969 -158.078705 
L 598.205371 -157.940836 
L 592.539773 -157.692777 
L 586.874175 -157.442134 
L 581.208577 -157.177798 
L 575.542979 -156.883307 
L 569.877381 -156.66558 
L 564.211783 -156.47414 
L 558.546185 -156.11456 
L 552.880587 -155.571435 
L 547.214989 -155.021943 
L 541.549391 -154.509519 
L 535.883793 -153.943904 
L 530.218195 -153.405661 
L 524.552598 -153.024284 
L 518.887 -152.758865 
L 513.221402 -152.403491 
L 507.555804 -151.753421 
L 501.890206 -150.959923 
L 496.224608 -150.246753 
L 490.55901 -149.550842 
L 484.893412 -148.84982 
L 479.227814 -148.125386 
L 473.562216 -147.20505 
L 467.896618 -145.889268 
L 462.23102 -143.987647 
L 456.565422 -141.70943 
L 450.899824 -139.798892 
L 445.234226 -138.625661 
L 439.568628 -137.893045 
L 433.90303 -137.127716 
L 428.237432 -135.698786 
L 422.571834 -132.793852 
L 416.906236 -129.387211 
L 411.240639 -128.57306 
L 405.575041 -129.975686 
L 399.909443 -130.112331 
L 394.243845 -128.809066 
L 388.578247 -127.935305 
L 382.912649 -127.684331 
L 377.247051 -127.417753 
L 371.581453 -127.25025 
L 365.915855 -127.950268 
L 360.250257 -129.420819 
L 354.584659 -130.507162 
L 348.919061 -131.3028 
L 343.253463 -132.736882 
L 337.587865 -134.330641 
L 331.922267 -135.289998 
L 326.256669 -136.443733 
L 320.591071 -138.799831 
L 314.925473 -141.642001 
L 309.259875 -143.75353 
L 303.594277 -144.9799 
L 297.92868 -145.941176 
L 292.263082 -146.883004 
L 286.597484 -147.632291 
L 280.931886 -148.395773 
L 275.266288 -149.488264 
L 269.60069 -150.664809 
L 263.935092 -151.550171 
L 258.269494 -152.31599 
L 252.603896 -153.362601 
L 246.938298 -154.603981 
L 241.2727 -155.577271 
L 235.607102 -156.159685 
L 229.941504 -156.590871 
L 224.275906 -156.902868 
L 218.610308 -157.012262 
L 212.94471 -157.07981 
L 207.279112 -157.299654 
L 201.613514 -157.625246 
L 195.947916 -157.941731 
L 190.282318 -158.176821 
L 184.61672 -158.338489 
L 178.951123 -158.535423 
L 173.285525 -158.846204 
L 167.619927 -159.201235 
L 161.954329 -159.355315 
L 156.288731 -159.095382 
L 150.623133 -158.702081 
L 144.957535 -158.789154 
L 139.291937 -159.306368 
L 133.626339 -159.704747 
z
" id="ma41e0356b2" style="stroke:#262626;stroke-width:1.5;"/>
    </defs>
    <g clip-path="url(#p0c81957a67)">
     <use style="fill:#107010;stroke:#262626;stroke-width:1.5;" x="0" xlink:href="#ma41e0356b2" y="401.88375"/>
    </g>
   </g>
   <g id="PolyCollection_4">
    <defs>
     <path d="M 132.402248 -78.163043 
L 132.402248 -78.489457 
L 138.092575 -78.853437 
L 143.782902 -79.351713 
L 149.473229 -79.535915 
L 155.163556 -79.235765 
L 160.853883 -78.919852 
L 166.54421 -78.989027 
L 172.234537 -79.325114 
L 177.924865 -79.630086 
L 183.615192 -79.786994 
L 189.305519 -79.86093 
L 194.995846 -79.984674 
L 200.686173 -80.250062 
L 206.3765 -80.633914 
L 212.066827 -81.015931 
L 217.757154 -81.2593 
L 223.447481 -81.374063 
L 229.137808 -81.51918 
L 234.828135 -81.806852 
L 240.518462 -82.334053 
L 246.208789 -83.251655 
L 251.899116 -84.494181 
L 257.589443 -85.71742 
L 263.27977 -86.702032 
L 268.970097 -87.547522 
L 274.660425 -88.402951 
L 280.350752 -89.299917 
L 286.041079 -90.26034 
L 291.731406 -91.253215 
L 297.421733 -92.140997 
L 303.11206 -93.010294 
L 308.802387 -94.464679 
L 314.492714 -97.033091 
L 320.183041 -100.204055 
L 325.873368 -102.655238 
L 331.563695 -103.821347 
L 337.254022 -104.642291 
L 342.944349 -105.947706 
L 348.634676 -107.263743 
L 354.325003 -108.137232 
L 360.01533 -108.87322 
L 365.705657 -109.328235 
L 371.395985 -109.148653 
L 377.086312 -108.821288 
L 382.776639 -108.758961 
L 388.466966 -108.684999 
L 394.157293 -108.235575 
L 399.84762 -107.754903 
L 405.537947 -108.331565 
L 411.228274 -109.427817 
L 416.918601 -108.469572 
L 422.608928 -105.160044 
L 428.299255 -101.945647 
L 433.989582 -100.14898 
L 439.679909 -99.33998 
L 445.370236 -98.675242 
L 451.060563 -97.499147 
L 456.75089 -95.631001 
L 462.441218 -93.509233 
L 468.131545 -91.722421 
L 473.821872 -90.402125 
L 479.512199 -89.439615 
L 485.202526 -88.809853 
L 490.892853 -88.435219 
L 496.58318 -88.108114 
L 502.273507 -87.650587 
L 507.963834 -87.046603 
L 513.654161 -86.473892 
L 519.344488 -86.085091 
L 525.034815 -85.747312 
L 530.725142 -85.292339 
L 536.415469 -84.758281 
L 542.105796 -84.217941 
L 547.796123 -83.671313 
L 553.48645 -83.136066 
L 559.176778 -82.711716 
L 564.867105 -82.43603 
L 570.557432 -82.154163 
L 576.247759 -81.711814 
L 581.938086 -81.220927 
L 587.628413 -80.879839 
L 593.31874 -80.663862 
L 599.009067 -80.542408 
L 604.699394 -80.567708 
L 610.389721 -80.597329 
L 616.080048 -80.47169 
L 621.770375 -80.24888 
L 627.460702 -79.992586 
L 633.151029 -79.668847 
L 638.841356 -79.317007 
L 644.531683 -79.050301 
L 650.22201 -78.874458 
L 655.912338 -78.723724 
L 661.602665 -78.614258 
L 667.292992 -78.575958 
L 672.983319 -78.561375 
L 678.673646 -78.519069 
L 684.363973 -78.448215 
L 690.0543 -78.380509 
L 695.744627 -78.342006 
L 695.744627 -78.310494 
L 695.744627 -78.310494 
L 690.0543 -78.271991 
L 684.363973 -78.204285 
L 678.673646 -78.133431 
L 672.983319 -78.091125 
L 667.292992 -78.076542 
L 661.602665 -78.038242 
L 655.912338 -77.928776 
L 650.22201 -77.778042 
L 644.531683 -77.602199 
L 638.841356 -77.335493 
L 633.151029 -76.983653 
L 627.460702 -76.659914 
L 621.770375 -76.40362 
L 616.080048 -76.18081 
L 610.389721 -76.055171 
L 604.699394 -76.084792 
L 599.009067 -76.110092 
L 593.31874 -75.988638 
L 587.628413 -75.772661 
L 581.938086 -75.431573 
L 576.247759 -74.940686 
L 570.557432 -74.498337 
L 564.867105 -74.21647 
L 559.176778 -73.940784 
L 553.48645 -73.516434 
L 547.796123 -72.981187 
L 542.105796 -72.434559 
L 536.415469 -71.894219 
L 530.725142 -71.360161 
L 525.034815 -70.905188 
L 519.344488 -70.567409 
L 513.654161 -70.178608 
L 507.963834 -69.605897 
L 502.273507 -69.001913 
L 496.58318 -68.544386 
L 490.892853 -68.217281 
L 485.202526 -67.842647 
L 479.512199 -67.212885 
L 473.821872 -66.250375 
L 468.131545 -64.930079 
L 462.441218 -63.143267 
L 456.75089 -61.021499 
L 451.060563 -59.153353 
L 445.370236 -57.977258 
L 439.679909 -57.31252 
L 433.989582 -56.50352 
L 428.299255 -54.706853 
L 422.608928 -51.492456 
L 416.918601 -48.182928 
L 411.228274 -47.224683 
L 405.537947 -48.320935 
L 399.84762 -48.897597 
L 394.157293 -48.416925 
L 388.466966 -47.967501 
L 382.776639 -47.893539 
L 377.086312 -47.831212 
L 371.395985 -47.503847 
L 365.705657 -47.324265 
L 360.01533 -47.77928 
L 354.325003 -48.515268 
L 348.634676 -49.388757 
L 342.944349 -50.704794 
L 337.254022 -52.010209 
L 331.563695 -52.831153 
L 325.873368 -53.997262 
L 320.183041 -56.448445 
L 314.492714 -59.619409 
L 308.802387 -62.187821 
L 303.11206 -63.642206 
L 297.421733 -64.511503 
L 291.731406 -65.399285 
L 286.041079 -66.39216 
L 280.350752 -67.352583 
L 274.660425 -68.249549 
L 268.970097 -69.104978 
L 263.27977 -69.950468 
L 257.589443 -70.93508 
L 251.899116 -72.158319 
L 246.208789 -73.400845 
L 240.518462 -74.318447 
L 234.828135 -74.845648 
L 229.137808 -75.13332 
L 223.447481 -75.278437 
L 217.757154 -75.3932 
L 212.066827 -75.636569 
L 206.3765 -76.018586 
L 200.686173 -76.402438 
L 194.995846 -76.667826 
L 189.305519 -76.79157 
L 183.615192 -76.865506 
L 177.924865 -77.022414 
L 172.234537 -77.327386 
L 166.54421 -77.663473 
L 160.853883 -77.732648 
L 155.163556 -77.416735 
L 149.473229 -77.116585 
L 143.782902 -77.300787 
L 138.092575 -77.799063 
L 132.402248 -78.163043 
z
" id="md6194f9771" style="stroke:#262626;stroke-width:1.5;"/>
    </defs>
    <g clip-path="url(#p0c81957a67)">
     <use style="fill:#107010;stroke:#262626;stroke-width:1.5;" x="0" xlink:href="#md6194f9771" y="401.88375"/>
    </g>
   </g>
   <g id="matplotlib.axis_1">
    <g id="xtick_1">
     <g id="line2d_1">
      <defs>
       <path d="M 0 0 
L 0 3.5 
" id="m4731658206" style="stroke:#000000;stroke-width:0.8;"/>
      </defs>
      <g>
       <use style="stroke:#000000;stroke-width:0.8;" x="148.359152" xlink:href="#m4731658206" y="364.3275"/>
      </g>
     </g>
     <g id="text_1">
      <!-- 1.00 -->
      <defs>
       <path d="M 12.40625 8.296875 
L 28.515625 8.296875 
L 28.515625 63.921875 
L 10.984375 60.40625 
L 10.984375 69.390625 
L 28.421875 72.90625 
L 38.28125 72.90625 
L 38.28125 8.296875 
L 54.390625 8.296875 
L 54.390625 0 
L 12.40625 0 
z
" id="DejaVuSans-49"/>
       <path d="M 10.6875 12.40625 
L 21 12.40625 
L 21 0 
L 10.6875 0 
z
" id="DejaVuSans-46"/>
       <path d="M 31.78125 66.40625 
Q 24.171875 66.40625 20.328125 58.90625 
Q 16.5 51.421875 16.5 36.375 
Q 16.5 21.390625 20.328125 13.890625 
Q 24.171875 6.390625 31.78125 6.390625 
Q 39.453125 6.390625 43.28125 13.890625 
Q 47.125 21.390625 47.125 36.375 
Q 47.125 51.421875 43.28125 58.90625 
Q 39.453125 66.40625 31.78125 66.40625 
z
M 31.78125 74.21875 
Q 44.046875 74.21875 50.515625 64.515625 
Q 56.984375 54.828125 56.984375 36.375 
Q 56.984375 17.96875 50.515625 8.265625 
Q 44.046875 -1.421875 31.78125 -1.421875 
Q 19.53125 -1.421875 13.0625 8.265625 
Q 6.59375 17.96875 6.59375 36.375 
Q 6.59375 54.828125 13.0625 64.515625 
Q 19.53125 74.21875 31.78125 74.21875 
z
" id="DejaVuSans-48"/>
      </defs>
      <g transform="translate(137.226339 378.925937)scale(0.1 -0.1)">
       <use xlink:href="#DejaVuSans-49"/>
       <use x="63.623047" xlink:href="#DejaVuSans-46"/>
       <use x="95.410156" xlink:href="#DejaVuSans-48"/>
       <use x="159.033203" xlink:href="#DejaVuSans-48"/>
      </g>
     </g>
    </g>
    <g id="xtick_2">
     <g id="line2d_2">
      <g>
       <use style="stroke:#000000;stroke-width:0.8;" x="214.787723" xlink:href="#m4731658206" y="364.3275"/>
      </g>
     </g>
     <g id="text_2">
      <!-- 1.25 -->
      <defs>
       <path d="M 19.1875 8.296875 
L 53.609375 8.296875 
L 53.609375 0 
L 7.328125 0 
L 7.328125 8.296875 
Q 12.9375 14.109375 22.625 23.890625 
Q 32.328125 33.6875 34.8125 36.53125 
Q 39.546875 41.84375 41.421875 45.53125 
Q 43.3125 49.21875 43.3125 52.78125 
Q 43.3125 58.59375 39.234375 62.25 
Q 35.15625 65.921875 28.609375 65.921875 
Q 23.96875 65.921875 18.8125 64.3125 
Q 13.671875 62.703125 7.8125 59.421875 
L 7.8125 69.390625 
Q 13.765625 71.78125 18.9375 73 
Q 24.125 74.21875 28.421875 74.21875 
Q 39.75 74.21875 46.484375 68.546875 
Q 53.21875 62.890625 53.21875 53.421875 
Q 53.21875 48.921875 51.53125 44.890625 
Q 49.859375 40.875 45.40625 35.40625 
Q 44.1875 33.984375 37.640625 27.21875 
Q 31.109375 20.453125 19.1875 8.296875 
z
" id="DejaVuSans-50"/>
       <path d="M 10.796875 72.90625 
L 49.515625 72.90625 
L 49.515625 64.59375 
L 19.828125 64.59375 
L 19.828125 46.734375 
Q 21.96875 47.46875 24.109375 47.828125 
Q 26.265625 48.1875 28.421875 48.1875 
Q 40.625 48.1875 47.75 41.5 
Q 54.890625 34.8125 54.890625 23.390625 
Q 54.890625 11.625 47.5625 5.09375 
Q 40.234375 -1.421875 26.90625 -1.421875 
Q 22.3125 -1.421875 17.546875 -0.640625 
Q 12.796875 0.140625 7.71875 1.703125 
L 7.71875 11.625 
Q 12.109375 9.234375 16.796875 8.0625 
Q 21.484375 6.890625 26.703125 6.890625 
Q 35.15625 6.890625 40.078125 11.328125 
Q 45.015625 15.765625 45.015625 23.390625 
Q 45.015625 31 40.078125 35.4375 
Q 35.15625 39.890625 26.703125 39.890625 
Q 22.75 39.890625 18.8125 39.015625 
Q 14.890625 38.140625 10.796875 36.28125 
z
" id="DejaVuSans-53"/>
      </defs>
      <g transform="translate(203.654911 378.925937)scale(0.1 -0.1)">
       <use xlink:href="#DejaVuSans-49"/>
       <use x="63.623047" xlink:href="#DejaVuSans-46"/>
       <use x="95.410156" xlink:href="#DejaVuSans-50"/>
       <use x="159.033203" xlink:href="#DejaVuSans-53"/>
      </g>
     </g>
    </g>
    <g id="xtick_3">
     <g id="line2d_3">
      <g>
       <use style="stroke:#000000;stroke-width:0.8;" x="281.216295" xlink:href="#m4731658206" y="364.3275"/>
      </g>
     </g>
     <g id="text_3">
      <!-- 1.50 -->
      <g transform="translate(270.083482 378.925937)scale(0.1 -0.1)">
       <use xlink:href="#DejaVuSans-49"/>
       <use x="63.623047" xlink:href="#DejaVuSans-46"/>
       <use x="95.410156" xlink:href="#DejaVuSans-53"/>
       <use x="159.033203" xlink:href="#DejaVuSans-48"/>
      </g>
     </g>
    </g>
    <g id="xtick_4">
     <g id="line2d_4">
      <g>
       <use style="stroke:#000000;stroke-width:0.8;" x="347.644866" xlink:href="#m4731658206" y="364.3275"/>
      </g>
     </g>
     <g id="text_4">
      <!-- 1.75 -->
      <defs>
       <path d="M 8.203125 72.90625 
L 55.078125 72.90625 
L 55.078125 68.703125 
L 28.609375 0 
L 18.3125 0 
L 43.21875 64.59375 
L 8.203125 64.59375 
z
" id="DejaVuSans-55"/>
      </defs>
      <g transform="translate(336.512054 378.925937)scale(0.1 -0.1)">
       <use xlink:href="#DejaVuSans-49"/>
       <use x="63.623047" xlink:href="#DejaVuSans-46"/>
       <use x="95.410156" xlink:href="#DejaVuSans-55"/>
       <use x="159.033203" xlink:href="#DejaVuSans-53"/>
      </g>
     </g>
    </g>
    <g id="xtick_5">
     <g id="line2d_5">
      <g>
       <use style="stroke:#000000;stroke-width:0.8;" x="414.073438" xlink:href="#m4731658206" y="364.3275"/>
      </g>
     </g>
     <g id="text_5">
      <!-- 2.00 -->
      <g transform="translate(402.940625 378.925937)scale(0.1 -0.1)">
       <use xlink:href="#DejaVuSans-50"/>
       <use x="63.623047" xlink:href="#DejaVuSans-46"/>
       <use x="95.410156" xlink:href="#DejaVuSans-48"/>
       <use x="159.033203" xlink:href="#DejaVuSans-48"/>
      </g>
     </g>
    </g>
    <g id="xtick_6">
     <g id="line2d_6">
      <g>
       <use style="stroke:#000000;stroke-width:0.8;" x="480.502009" xlink:href="#m4731658206" y="364.3275"/>
      </g>
     </g>
     <g id="text_6">
      <!-- 2.25 -->
      <g transform="translate(469.369196 378.925937)scale(0.1 -0.1)">
       <use xlink:href="#DejaVuSans-50"/>
       <use x="63.623047" xlink:href="#DejaVuSans-46"/>
       <use x="95.410156" xlink:href="#DejaVuSans-50"/>
       <use x="159.033203" xlink:href="#DejaVuSans-53"/>
      </g>
     </g>
    </g>
    <g id="xtick_7">
     <g id="line2d_7">
      <g>
       <use style="stroke:#000000;stroke-width:0.8;" x="546.93058" xlink:href="#m4731658206" y="364.3275"/>
      </g>
     </g>
     <g id="text_7">
      <!-- 2.50 -->
      <g transform="translate(535.797768 378.925937)scale(0.1 -0.1)">
       <use xlink:href="#DejaVuSans-50"/>
       <use x="63.623047" xlink:href="#DejaVuSans-46"/>
       <use x="95.410156" xlink:href="#DejaVuSans-53"/>
       <use x="159.033203" xlink:href="#DejaVuSans-48"/>
      </g>
     </g>
    </g>
    <g id="xtick_8">
     <g id="line2d_8">
      <g>
       <use style="stroke:#000000;stroke-width:0.8;" x="613.359152" xlink:href="#m4731658206" y="364.3275"/>
      </g>
     </g>
     <g id="text_8">
      <!-- 2.75 -->
      <g transform="translate(602.226339 378.925937)scale(0.1 -0.1)">
       <use xlink:href="#DejaVuSans-50"/>
       <use x="63.623047" xlink:href="#DejaVuSans-46"/>
       <use x="95.410156" xlink:href="#DejaVuSans-55"/>
       <use x="159.033203" xlink:href="#DejaVuSans-53"/>
      </g>
     </g>
    </g>
    <g id="xtick_9">
     <g id="line2d_9">
      <g>
       <use style="stroke:#000000;stroke-width:0.8;" x="679.787723" xlink:href="#m4731658206" y="364.3275"/>
      </g>
     </g>
     <g id="text_9">
      <!-- 3.00 -->
      <defs>
       <path d="M 40.578125 39.3125 
Q 47.65625 37.796875 51.625 33 
Q 55.609375 28.21875 55.609375 21.1875 
Q 55.609375 10.40625 48.1875 4.484375 
Q 40.765625 -1.421875 27.09375 -1.421875 
Q 22.515625 -1.421875 17.65625 -0.515625 
Q 12.796875 0.390625 7.625 2.203125 
L 7.625 11.71875 
Q 11.71875 9.328125 16.59375 8.109375 
Q 21.484375 6.890625 26.8125 6.890625 
Q 36.078125 6.890625 40.9375 10.546875 
Q 45.796875 14.203125 45.796875 21.1875 
Q 45.796875 27.640625 41.28125 31.265625 
Q 36.765625 34.90625 28.71875 34.90625 
L 20.21875 34.90625 
L 20.21875 43.015625 
L 29.109375 43.015625 
Q 36.375 43.015625 40.234375 45.921875 
Q 44.09375 48.828125 44.09375 54.296875 
Q 44.09375 59.90625 40.109375 62.90625 
Q 36.140625 65.921875 28.71875 65.921875 
Q 24.65625 65.921875 20.015625 65.03125 
Q 15.375 64.15625 9.8125 62.3125 
L 9.8125 71.09375 
Q 15.4375 72.65625 20.34375 73.4375 
Q 25.25 74.21875 29.59375 74.21875 
Q 40.828125 74.21875 47.359375 69.109375 
Q 53.90625 64.015625 53.90625 55.328125 
Q 53.90625 49.265625 50.4375 45.09375 
Q 46.96875 40.921875 40.578125 39.3125 
z
" id="DejaVuSans-51"/>
      </defs>
      <g transform="translate(668.654911 378.925937)scale(0.1 -0.1)">
       <use xlink:href="#DejaVuSans-51"/>
       <use x="63.623047" xlink:href="#DejaVuSans-46"/>
       <use x="95.410156" xlink:href="#DejaVuSans-48"/>
       <use x="159.033203" xlink:href="#DejaVuSans-48"/>
      </g>
     </g>
    </g>
    <g id="text_10">
     <!-- Índice socioeconómico -->
     <defs>
      <path d="M 9.8125 72.90625 
L 19.671875 72.90625 
L 19.671875 0 
L 9.8125 0 
z
M 17.484375 92.734375 
L 26.515625 92.734375 
L 15.375 79.84375 
L 7.90625 79.84375 
z
" id="DejaVuSans-205"/>
      <path d="M 54.890625 33.015625 
L 54.890625 0 
L 45.90625 0 
L 45.90625 32.71875 
Q 45.90625 40.484375 42.875 44.328125 
Q 39.84375 48.1875 33.796875 48.1875 
Q 26.515625 48.1875 22.3125 43.546875 
Q 18.109375 38.921875 18.109375 30.90625 
L 18.109375 0 
L 9.078125 0 
L 9.078125 54.6875 
L 18.109375 54.6875 
L 18.109375 46.1875 
Q 21.34375 51.125 25.703125 53.5625 
Q 30.078125 56 35.796875 56 
Q 45.21875 56 50.046875 50.171875 
Q 54.890625 44.34375 54.890625 33.015625 
z
" id="DejaVuSans-110"/>
      <path d="M 45.40625 46.390625 
L 45.40625 75.984375 
L 54.390625 75.984375 
L 54.390625 0 
L 45.40625 0 
L 45.40625 8.203125 
Q 42.578125 3.328125 38.25 0.953125 
Q 33.9375 -1.421875 27.875 -1.421875 
Q 17.96875 -1.421875 11.734375 6.484375 
Q 5.515625 14.40625 5.515625 27.296875 
Q 5.515625 40.1875 11.734375 48.09375 
Q 17.96875 56 27.875 56 
Q 33.9375 56 38.25 53.625 
Q 42.578125 51.265625 45.40625 46.390625 
z
M 14.796875 27.296875 
Q 14.796875 17.390625 18.875 11.75 
Q 22.953125 6.109375 30.078125 6.109375 
Q 37.203125 6.109375 41.296875 11.75 
Q 45.40625 17.390625 45.40625 27.296875 
Q 45.40625 37.203125 41.296875 42.84375 
Q 37.203125 48.484375 30.078125 48.484375 
Q 22.953125 48.484375 18.875 42.84375 
Q 14.796875 37.203125 14.796875 27.296875 
z
" id="DejaVuSans-100"/>
      <path d="M 9.421875 54.6875 
L 18.40625 54.6875 
L 18.40625 0 
L 9.421875 0 
z
M 9.421875 75.984375 
L 18.40625 75.984375 
L 18.40625 64.59375 
L 9.421875 64.59375 
z
" id="DejaVuSans-105"/>
      <path d="M 48.78125 52.59375 
L 48.78125 44.1875 
Q 44.96875 46.296875 41.140625 47.34375 
Q 37.3125 48.390625 33.40625 48.390625 
Q 24.65625 48.390625 19.8125 42.84375 
Q 14.984375 37.3125 14.984375 27.296875 
Q 14.984375 17.28125 19.8125 11.734375 
Q 24.65625 6.203125 33.40625 6.203125 
Q 37.3125 6.203125 41.140625 7.25 
Q 44.96875 8.296875 48.78125 10.40625 
L 48.78125 2.09375 
Q 45.015625 0.34375 40.984375 -0.53125 
Q 36.96875 -1.421875 32.421875 -1.421875 
Q 20.0625 -1.421875 12.78125 6.34375 
Q 5.515625 14.109375 5.515625 27.296875 
Q 5.515625 40.671875 12.859375 48.328125 
Q 20.21875 56 33.015625 56 
Q 37.15625 56 41.109375 55.140625 
Q 45.0625 54.296875 48.78125 52.59375 
z
" id="DejaVuSans-99"/>
      <path d="M 56.203125 29.59375 
L 56.203125 25.203125 
L 14.890625 25.203125 
Q 15.484375 15.921875 20.484375 11.0625 
Q 25.484375 6.203125 34.421875 6.203125 
Q 39.59375 6.203125 44.453125 7.46875 
Q 49.3125 8.734375 54.109375 11.28125 
L 54.109375 2.78125 
Q 49.265625 0.734375 44.1875 -0.34375 
Q 39.109375 -1.421875 33.890625 -1.421875 
Q 20.796875 -1.421875 13.15625 6.1875 
Q 5.515625 13.8125 5.515625 26.8125 
Q 5.515625 40.234375 12.765625 48.109375 
Q 20.015625 56 32.328125 56 
Q 43.359375 56 49.78125 48.890625 
Q 56.203125 41.796875 56.203125 29.59375 
z
M 47.21875 32.234375 
Q 47.125 39.59375 43.09375 43.984375 
Q 39.0625 48.390625 32.421875 48.390625 
Q 24.90625 48.390625 20.390625 44.140625 
Q 15.875 39.890625 15.1875 32.171875 
z
" id="DejaVuSans-101"/>
      <path id="DejaVuSans-32"/>
      <path d="M 44.28125 53.078125 
L 44.28125 44.578125 
Q 40.484375 46.53125 36.375 47.5 
Q 32.28125 48.484375 27.875 48.484375 
Q 21.1875 48.484375 17.84375 46.4375 
Q 14.5 44.390625 14.5 40.28125 
Q 14.5 37.15625 16.890625 35.375 
Q 19.28125 33.59375 26.515625 31.984375 
L 29.59375 31.296875 
Q 39.15625 29.25 43.1875 25.515625 
Q 47.21875 21.78125 47.21875 15.09375 
Q 47.21875 7.46875 41.1875 3.015625 
Q 35.15625 -1.421875 24.609375 -1.421875 
Q 20.21875 -1.421875 15.453125 -0.5625 
Q 10.6875 0.296875 5.421875 2 
L 5.421875 11.28125 
Q 10.40625 8.6875 15.234375 7.390625 
Q 20.0625 6.109375 24.8125 6.109375 
Q 31.15625 6.109375 34.5625 8.28125 
Q 37.984375 10.453125 37.984375 14.40625 
Q 37.984375 18.0625 35.515625 20.015625 
Q 33.0625 21.96875 24.703125 23.78125 
L 21.578125 24.515625 
Q 13.234375 26.265625 9.515625 29.90625 
Q 5.8125 33.546875 5.8125 39.890625 
Q 5.8125 47.609375 11.28125 51.796875 
Q 16.75 56 26.8125 56 
Q 31.78125 56 36.171875 55.265625 
Q 40.578125 54.546875 44.28125 53.078125 
z
" id="DejaVuSans-115"/>
      <path d="M 30.609375 48.390625 
Q 23.390625 48.390625 19.1875 42.75 
Q 14.984375 37.109375 14.984375 27.296875 
Q 14.984375 17.484375 19.15625 11.84375 
Q 23.34375 6.203125 30.609375 6.203125 
Q 37.796875 6.203125 41.984375 11.859375 
Q 46.1875 17.53125 46.1875 27.296875 
Q 46.1875 37.015625 41.984375 42.703125 
Q 37.796875 48.390625 30.609375 48.390625 
z
M 30.609375 56 
Q 42.328125 56 49.015625 48.375 
Q 55.71875 40.765625 55.71875 27.296875 
Q 55.71875 13.875 49.015625 6.21875 
Q 42.328125 -1.421875 30.609375 -1.421875 
Q 18.84375 -1.421875 12.171875 6.21875 
Q 5.515625 13.875 5.515625 27.296875 
Q 5.515625 40.765625 12.171875 48.375 
Q 18.84375 56 30.609375 56 
z
" id="DejaVuSans-111"/>
      <path d="M 30.609375 48.390625 
Q 23.390625 48.390625 19.1875 42.75 
Q 14.984375 37.109375 14.984375 27.296875 
Q 14.984375 17.484375 19.15625 11.84375 
Q 23.34375 6.203125 30.609375 6.203125 
Q 37.796875 6.203125 41.984375 11.859375 
Q 46.1875 17.53125 46.1875 27.296875 
Q 46.1875 37.015625 41.984375 42.703125 
Q 37.796875 48.390625 30.609375 48.390625 
z
M 30.609375 56 
Q 42.328125 56 49.015625 48.375 
Q 55.71875 40.765625 55.71875 27.296875 
Q 55.71875 13.875 49.015625 6.21875 
Q 42.328125 -1.421875 30.609375 -1.421875 
Q 18.84375 -1.421875 12.171875 6.21875 
Q 5.515625 13.875 5.515625 27.296875 
Q 5.515625 40.765625 12.171875 48.375 
Q 18.84375 56 30.609375 56 
z
M 37.40625 79.984375 
L 47.125 79.984375 
L 31.203125 61.625 
L 23.734375 61.625 
z
" id="DejaVuSans-243"/>
      <path d="M 52 44.1875 
Q 55.375 50.25 60.0625 53.125 
Q 64.75 56 71.09375 56 
Q 79.640625 56 84.28125 50.015625 
Q 88.921875 44.046875 88.921875 33.015625 
L 88.921875 0 
L 79.890625 0 
L 79.890625 32.71875 
Q 79.890625 40.578125 77.09375 44.375 
Q 74.3125 48.1875 68.609375 48.1875 
Q 61.625 48.1875 57.5625 43.546875 
Q 53.515625 38.921875 53.515625 30.90625 
L 53.515625 0 
L 44.484375 0 
L 44.484375 32.71875 
Q 44.484375 40.625 41.703125 44.40625 
Q 38.921875 48.1875 33.109375 48.1875 
Q 26.21875 48.1875 22.15625 43.53125 
Q 18.109375 38.875 18.109375 30.90625 
L 18.109375 0 
L 9.078125 0 
L 9.078125 54.6875 
L 18.109375 54.6875 
L 18.109375 46.1875 
Q 21.1875 51.21875 25.484375 53.609375 
Q 29.78125 56 35.6875 56 
Q 41.65625 56 45.828125 52.96875 
Q 50 49.953125 52 44.1875 
z
" id="DejaVuSans-109"/>
     </defs>
     <g transform="translate(357.408594 392.604062)scale(0.1 -0.1)">
      <use xlink:href="#DejaVuSans-205"/>
      <use x="29.492188" xlink:href="#DejaVuSans-110"/>
      <use x="92.871094" xlink:href="#DejaVuSans-100"/>
      <use x="156.347656" xlink:href="#DejaVuSans-105"/>
      <use x="184.130859" xlink:href="#DejaVuSans-99"/>
      <use x="239.111328" xlink:href="#DejaVuSans-101"/>
      <use x="300.634766" xlink:href="#DejaVuSans-32"/>
      <use x="332.421875" xlink:href="#DejaVuSans-115"/>
      <use x="384.521484" xlink:href="#DejaVuSans-111"/>
      <use x="445.703125" xlink:href="#DejaVuSans-99"/>
      <use x="500.683594" xlink:href="#DejaVuSans-105"/>
      <use x="528.466797" xlink:href="#DejaVuSans-111"/>
      <use x="589.648438" xlink:href="#DejaVuSans-101"/>
      <use x="651.171875" xlink:href="#DejaVuSans-99"/>
      <use x="706.152344" xlink:href="#DejaVuSans-111"/>
      <use x="767.333984" xlink:href="#DejaVuSans-110"/>
      <use x="830.712891" xlink:href="#DejaVuSans-243"/>
      <use x="891.894531" xlink:href="#DejaVuSans-109"/>
      <use x="989.306641" xlink:href="#DejaVuSans-105"/>
      <use x="1017.089844" xlink:href="#DejaVuSans-99"/>
      <use x="1072.070312" xlink:href="#DejaVuSans-111"/>
     </g>
    </g>
   </g>
   <g id="matplotlib.axis_2">
    <g id="ytick_1">
     <g id="line2d_10">
      <defs>
       <path d="M 0 0 
L -3.5 0 
" id="mcd6a0e7cbe" style="stroke:#000000;stroke-width:0.8;"/>
      </defs>
      <g>
       <use style="stroke:#000000;stroke-width:0.8;" x="135.073438" xlink:href="#mcd6a0e7cbe" y="78.9375"/>
      </g>
     </g>
     <g id="text_11">
      <!-- Avanzado -->
      <defs>
       <path d="M 34.1875 63.1875 
L 20.796875 26.90625 
L 47.609375 26.90625 
z
M 28.609375 72.90625 
L 39.796875 72.90625 
L 67.578125 0 
L 57.328125 0 
L 50.6875 18.703125 
L 17.828125 18.703125 
L 11.1875 0 
L 0.78125 0 
z
" id="DejaVuSans-65"/>
       <path d="M 2.984375 54.6875 
L 12.5 54.6875 
L 29.59375 8.796875 
L 46.6875 54.6875 
L 56.203125 54.6875 
L 35.6875 0 
L 23.484375 0 
z
" id="DejaVuSans-118"/>
       <path d="M 34.28125 27.484375 
Q 23.390625 27.484375 19.1875 25 
Q 14.984375 22.515625 14.984375 16.5 
Q 14.984375 11.71875 18.140625 8.90625 
Q 21.296875 6.109375 26.703125 6.109375 
Q 34.1875 6.109375 38.703125 11.40625 
Q 43.21875 16.703125 43.21875 25.484375 
L 43.21875 27.484375 
z
M 52.203125 31.203125 
L 52.203125 0 
L 43.21875 0 
L 43.21875 8.296875 
Q 40.140625 3.328125 35.546875 0.953125 
Q 30.953125 -1.421875 24.3125 -1.421875 
Q 15.921875 -1.421875 10.953125 3.296875 
Q 6 8.015625 6 15.921875 
Q 6 25.140625 12.171875 29.828125 
Q 18.359375 34.515625 30.609375 34.515625 
L 43.21875 34.515625 
L 43.21875 35.40625 
Q 43.21875 41.609375 39.140625 45 
Q 35.0625 48.390625 27.6875 48.390625 
Q 23 48.390625 18.546875 47.265625 
Q 14.109375 46.140625 10.015625 43.890625 
L 10.015625 52.203125 
Q 14.9375 54.109375 19.578125 55.046875 
Q 24.21875 56 28.609375 56 
Q 40.484375 56 46.34375 49.84375 
Q 52.203125 43.703125 52.203125 31.203125 
z
" id="DejaVuSans-97"/>
       <path d="M 5.515625 54.6875 
L 48.1875 54.6875 
L 48.1875 46.484375 
L 14.40625 7.171875 
L 48.1875 7.171875 
L 48.1875 0 
L 4.296875 0 
L 4.296875 8.203125 
L 38.09375 47.515625 
L 5.515625 47.515625 
z
" id="DejaVuSans-122"/>
      </defs>
      <g transform="translate(79.0125 82.736719)scale(0.1 -0.1)">
       <use xlink:href="#DejaVuSans-65"/>
       <use x="68.330078" xlink:href="#DejaVuSans-118"/>
       <use x="127.509766" xlink:href="#DejaVuSans-97"/>
       <use x="188.789062" xlink:href="#DejaVuSans-110"/>
       <use x="252.167969" xlink:href="#DejaVuSans-122"/>
       <use x="304.658203" xlink:href="#DejaVuSans-97"/>
       <use x="365.9375" xlink:href="#DejaVuSans-100"/>
       <use x="429.414062" xlink:href="#DejaVuSans-111"/>
      </g>
     </g>
    </g>
    <g id="ytick_2">
     <g id="line2d_11">
      <g>
       <use style="stroke:#000000;stroke-width:0.8;" x="135.073438" xlink:href="#mcd6a0e7cbe" y="160.4775"/>
      </g>
     </g>
     <g id="text_12">
      <!-- Satisfactorio -->
      <defs>
       <path d="M 53.515625 70.515625 
L 53.515625 60.890625 
Q 47.90625 63.578125 42.921875 64.890625 
Q 37.9375 66.21875 33.296875 66.21875 
Q 25.25 66.21875 20.875 63.09375 
Q 16.5 59.96875 16.5 54.203125 
Q 16.5 49.359375 19.40625 46.890625 
Q 22.3125 44.4375 30.421875 42.921875 
L 36.375 41.703125 
Q 47.40625 39.59375 52.65625 34.296875 
Q 57.90625 29 57.90625 20.125 
Q 57.90625 9.515625 50.796875 4.046875 
Q 43.703125 -1.421875 29.984375 -1.421875 
Q 24.8125 -1.421875 18.96875 -0.25 
Q 13.140625 0.921875 6.890625 3.21875 
L 6.890625 13.375 
Q 12.890625 10.015625 18.65625 8.296875 
Q 24.421875 6.59375 29.984375 6.59375 
Q 38.421875 6.59375 43.015625 9.90625 
Q 47.609375 13.234375 47.609375 19.390625 
Q 47.609375 24.75 44.3125 27.78125 
Q 41.015625 30.8125 33.5 32.328125 
L 27.484375 33.5 
Q 16.453125 35.6875 11.515625 40.375 
Q 6.59375 45.0625 6.59375 53.421875 
Q 6.59375 63.09375 13.40625 68.65625 
Q 20.21875 74.21875 32.171875 74.21875 
Q 37.3125 74.21875 42.625 73.28125 
Q 47.953125 72.359375 53.515625 70.515625 
z
" id="DejaVuSans-83"/>
       <path d="M 18.3125 70.21875 
L 18.3125 54.6875 
L 36.8125 54.6875 
L 36.8125 47.703125 
L 18.3125 47.703125 
L 18.3125 18.015625 
Q 18.3125 11.328125 20.140625 9.421875 
Q 21.96875 7.515625 27.59375 7.515625 
L 36.8125 7.515625 
L 36.8125 0 
L 27.59375 0 
Q 17.1875 0 13.234375 3.875 
Q 9.28125 7.765625 9.28125 18.015625 
L 9.28125 47.703125 
L 2.6875 47.703125 
L 2.6875 54.6875 
L 9.28125 54.6875 
L 9.28125 70.21875 
z
" id="DejaVuSans-116"/>
       <path d="M 37.109375 75.984375 
L 37.109375 68.5 
L 28.515625 68.5 
Q 23.6875 68.5 21.796875 66.546875 
Q 19.921875 64.59375 19.921875 59.515625 
L 19.921875 54.6875 
L 34.71875 54.6875 
L 34.71875 47.703125 
L 19.921875 47.703125 
L 19.921875 0 
L 10.890625 0 
L 10.890625 47.703125 
L 2.296875 47.703125 
L 2.296875 54.6875 
L 10.890625 54.6875 
L 10.890625 58.5 
Q 10.890625 67.625 15.140625 71.796875 
Q 19.390625 75.984375 28.609375 75.984375 
z
" id="DejaVuSans-102"/>
       <path d="M 41.109375 46.296875 
Q 39.59375 47.171875 37.8125 47.578125 
Q 36.03125 48 33.890625 48 
Q 26.265625 48 22.1875 43.046875 
Q 18.109375 38.09375 18.109375 28.8125 
L 18.109375 0 
L 9.078125 0 
L 9.078125 54.6875 
L 18.109375 54.6875 
L 18.109375 46.1875 
Q 20.953125 51.171875 25.484375 53.578125 
Q 30.03125 56 36.53125 56 
Q 37.453125 56 38.578125 55.875 
Q 39.703125 55.765625 41.0625 55.515625 
z
" id="DejaVuSans-114"/>
      </defs>
      <g transform="translate(65.495313 164.276719)scale(0.1 -0.1)">
       <use xlink:href="#DejaVuSans-83"/>
       <use x="63.476562" xlink:href="#DejaVuSans-97"/>
       <use x="124.755859" xlink:href="#DejaVuSans-116"/>
       <use x="163.964844" xlink:href="#DejaVuSans-105"/>
       <use x="191.748047" xlink:href="#DejaVuSans-115"/>
       <use x="243.847656" xlink:href="#DejaVuSans-102"/>
       <use x="279.052734" xlink:href="#DejaVuSans-97"/>
       <use x="340.332031" xlink:href="#DejaVuSans-99"/>
       <use x="395.3125" xlink:href="#DejaVuSans-116"/>
       <use x="434.521484" xlink:href="#DejaVuSans-111"/>
       <use x="495.703125" xlink:href="#DejaVuSans-114"/>
       <use x="536.816406" xlink:href="#DejaVuSans-105"/>
       <use x="564.599609" xlink:href="#DejaVuSans-111"/>
      </g>
     </g>
    </g>
    <g id="ytick_3">
     <g id="line2d_12">
      <g>
       <use style="stroke:#000000;stroke-width:0.8;" x="135.073438" xlink:href="#mcd6a0e7cbe" y="242.0175"/>
      </g>
     </g>
     <g id="text_13">
      <!-- Básico -->
      <defs>
       <path d="M 19.671875 34.8125 
L 19.671875 8.109375 
L 35.5 8.109375 
Q 43.453125 8.109375 47.28125 11.40625 
Q 51.125 14.703125 51.125 21.484375 
Q 51.125 28.328125 47.28125 31.5625 
Q 43.453125 34.8125 35.5 34.8125 
z
M 19.671875 64.796875 
L 19.671875 42.828125 
L 34.28125 42.828125 
Q 41.5 42.828125 45.03125 45.53125 
Q 48.578125 48.25 48.578125 53.8125 
Q 48.578125 59.328125 45.03125 62.0625 
Q 41.5 64.796875 34.28125 64.796875 
z
M 9.8125 72.90625 
L 35.015625 72.90625 
Q 46.296875 72.90625 52.390625 68.21875 
Q 58.5 63.53125 58.5 54.890625 
Q 58.5 48.1875 55.375 44.234375 
Q 52.25 40.28125 46.1875 39.3125 
Q 53.46875 37.75 57.5 32.78125 
Q 61.53125 27.828125 61.53125 20.40625 
Q 61.53125 10.640625 54.890625 5.3125 
Q 48.25 0 35.984375 0 
L 9.8125 0 
z
" id="DejaVuSans-66"/>
       <path d="M 34.28125 27.484375 
Q 23.390625 27.484375 19.1875 25 
Q 14.984375 22.515625 14.984375 16.5 
Q 14.984375 11.71875 18.140625 8.90625 
Q 21.296875 6.109375 26.703125 6.109375 
Q 34.1875 6.109375 38.703125 11.40625 
Q 43.21875 16.703125 43.21875 25.484375 
L 43.21875 27.484375 
z
M 52.203125 31.203125 
L 52.203125 0 
L 43.21875 0 
L 43.21875 8.296875 
Q 40.140625 3.328125 35.546875 0.953125 
Q 30.953125 -1.421875 24.3125 -1.421875 
Q 15.921875 -1.421875 10.953125 3.296875 
Q 6 8.015625 6 15.921875 
Q 6 25.140625 12.171875 29.828125 
Q 18.359375 34.515625 30.609375 34.515625 
L 43.21875 34.515625 
L 43.21875 35.40625 
Q 43.21875 41.609375 39.140625 45 
Q 35.0625 48.390625 27.6875 48.390625 
Q 23 48.390625 18.546875 47.265625 
Q 14.109375 46.140625 10.015625 43.890625 
L 10.015625 52.203125 
Q 14.9375 54.109375 19.578125 55.046875 
Q 24.21875 56 28.609375 56 
Q 40.484375 56 46.34375 49.84375 
Q 52.203125 43.703125 52.203125 31.203125 
z
M 35.796875 79.984375 
L 45.515625 79.984375 
L 29.59375 61.625 
L 22.125 61.625 
z
" id="DejaVuSans-225"/>
      </defs>
      <g transform="translate(95.479688 245.816719)scale(0.1 -0.1)">
       <use xlink:href="#DejaVuSans-66"/>
       <use x="68.603516" xlink:href="#DejaVuSans-225"/>
       <use x="129.882812" xlink:href="#DejaVuSans-115"/>
       <use x="181.982422" xlink:href="#DejaVuSans-105"/>
       <use x="209.765625" xlink:href="#DejaVuSans-99"/>
       <use x="264.746094" xlink:href="#DejaVuSans-111"/>
      </g>
     </g>
    </g>
    <g id="ytick_4">
     <g id="line2d_13">
      <g>
       <use style="stroke:#000000;stroke-width:0.8;" x="135.073438" xlink:href="#mcd6a0e7cbe" y="323.5575"/>
      </g>
     </g>
     <g id="text_14">
      <!-- Por debajo del básico -->
      <defs>
       <path d="M 19.671875 64.796875 
L 19.671875 37.40625 
L 32.078125 37.40625 
Q 38.96875 37.40625 42.71875 40.96875 
Q 46.484375 44.53125 46.484375 51.125 
Q 46.484375 57.671875 42.71875 61.234375 
Q 38.96875 64.796875 32.078125 64.796875 
z
M 9.8125 72.90625 
L 32.078125 72.90625 
Q 44.34375 72.90625 50.609375 67.359375 
Q 56.890625 61.8125 56.890625 51.125 
Q 56.890625 40.328125 50.609375 34.8125 
Q 44.34375 29.296875 32.078125 29.296875 
L 19.671875 29.296875 
L 19.671875 0 
L 9.8125 0 
z
" id="DejaVuSans-80"/>
       <path d="M 48.6875 27.296875 
Q 48.6875 37.203125 44.609375 42.84375 
Q 40.53125 48.484375 33.40625 48.484375 
Q 26.265625 48.484375 22.1875 42.84375 
Q 18.109375 37.203125 18.109375 27.296875 
Q 18.109375 17.390625 22.1875 11.75 
Q 26.265625 6.109375 33.40625 6.109375 
Q 40.53125 6.109375 44.609375 11.75 
Q 48.6875 17.390625 48.6875 27.296875 
z
M 18.109375 46.390625 
Q 20.953125 51.265625 25.265625 53.625 
Q 29.59375 56 35.59375 56 
Q 45.5625 56 51.78125 48.09375 
Q 58.015625 40.1875 58.015625 27.296875 
Q 58.015625 14.40625 51.78125 6.484375 
Q 45.5625 -1.421875 35.59375 -1.421875 
Q 29.59375 -1.421875 25.265625 0.953125 
Q 20.953125 3.328125 18.109375 8.203125 
L 18.109375 0 
L 9.078125 0 
L 9.078125 75.984375 
L 18.109375 75.984375 
z
" id="DejaVuSans-98"/>
       <path d="M 9.421875 54.6875 
L 18.40625 54.6875 
L 18.40625 -0.984375 
Q 18.40625 -11.421875 14.421875 -16.109375 
Q 10.453125 -20.796875 1.609375 -20.796875 
L -1.8125 -20.796875 
L -1.8125 -13.1875 
L 0.59375 -13.1875 
Q 5.71875 -13.1875 7.5625 -10.8125 
Q 9.421875 -8.453125 9.421875 -0.984375 
z
M 9.421875 75.984375 
L 18.40625 75.984375 
L 18.40625 64.59375 
L 9.421875 64.59375 
z
" id="DejaVuSans-106"/>
       <path d="M 9.421875 75.984375 
L 18.40625 75.984375 
L 18.40625 0 
L 9.421875 0 
z
" id="DejaVuSans-108"/>
      </defs>
      <g transform="translate(21.048438 327.556719)scale(0.1 -0.1)">
       <use xlink:href="#DejaVuSans-80"/>
       <use x="60.255859" xlink:href="#DejaVuSans-111"/>
       <use x="121.4375" xlink:href="#DejaVuSans-114"/>
       <use x="162.550781" xlink:href="#DejaVuSans-32"/>
       <use x="194.337891" xlink:href="#DejaVuSans-100"/>
       <use x="257.814453" xlink:href="#DejaVuSans-101"/>
       <use x="319.337891" xlink:href="#DejaVuSans-98"/>
       <use x="382.814453" xlink:href="#DejaVuSans-97"/>
       <use x="444.09375" xlink:href="#DejaVuSans-106"/>
       <use x="471.876953" xlink:href="#DejaVuSans-111"/>
       <use x="533.058594" xlink:href="#DejaVuSans-32"/>
       <use x="564.845703" xlink:href="#DejaVuSans-100"/>
       <use x="628.322266" xlink:href="#DejaVuSans-101"/>
       <use x="689.845703" xlink:href="#DejaVuSans-108"/>
       <use x="717.628906" xlink:href="#DejaVuSans-32"/>
       <use x="749.416016" xlink:href="#DejaVuSans-98"/>
       <use x="812.892578" xlink:href="#DejaVuSans-225"/>
       <use x="874.171875" xlink:href="#DejaVuSans-115"/>
       <use x="926.271484" xlink:href="#DejaVuSans-105"/>
       <use x="954.054688" xlink:href="#DejaVuSans-99"/>
       <use x="1009.035156" xlink:href="#DejaVuSans-111"/>
      </g>
     </g>
    </g>
    <g id="text_15">
     <!-- Nivel de desempeño en naturales -->
     <defs>
      <path d="M 9.8125 72.90625 
L 23.09375 72.90625 
L 55.421875 11.921875 
L 55.421875 72.90625 
L 64.984375 72.90625 
L 64.984375 0 
L 51.703125 0 
L 19.390625 60.984375 
L 19.390625 0 
L 9.8125 0 
z
" id="DejaVuSans-78"/>
      <path d="M 18.109375 8.203125 
L 18.109375 -20.796875 
L 9.078125 -20.796875 
L 9.078125 54.6875 
L 18.109375 54.6875 
L 18.109375 46.390625 
Q 20.953125 51.265625 25.265625 53.625 
Q 29.59375 56 35.59375 56 
Q 45.5625 56 51.78125 48.09375 
Q 58.015625 40.1875 58.015625 27.296875 
Q 58.015625 14.40625 51.78125 6.484375 
Q 45.5625 -1.421875 35.59375 -1.421875 
Q 29.59375 -1.421875 25.265625 0.953125 
Q 20.953125 3.328125 18.109375 8.203125 
z
M 48.6875 27.296875 
Q 48.6875 37.203125 44.609375 42.84375 
Q 40.53125 48.484375 33.40625 48.484375 
Q 26.265625 48.484375 22.1875 42.84375 
Q 18.109375 37.203125 18.109375 27.296875 
Q 18.109375 17.390625 22.1875 11.75 
Q 26.265625 6.109375 33.40625 6.109375 
Q 40.53125 6.109375 44.609375 11.75 
Q 48.6875 17.390625 48.6875 27.296875 
z
" id="DejaVuSans-112"/>
      <path d="M 54.890625 33.015625 
L 54.890625 0 
L 45.90625 0 
L 45.90625 32.71875 
Q 45.90625 40.484375 42.875 44.328125 
Q 39.84375 48.1875 33.796875 48.1875 
Q 26.515625 48.1875 22.3125 43.546875 
Q 18.109375 38.921875 18.109375 30.90625 
L 18.109375 0 
L 9.078125 0 
L 9.078125 54.6875 
L 18.109375 54.6875 
L 18.109375 46.1875 
Q 21.34375 51.125 25.703125 53.5625 
Q 30.078125 56 35.796875 56 
Q 45.21875 56 50.046875 50.171875 
Q 54.890625 44.34375 54.890625 33.015625 
z
M 32.234375 66.890625 
L 29.4375 69.578125 
Q 28.375 70.5625 27.5625 71.015625 
Q 26.765625 71.484375 26.125 71.484375 
Q 24.265625 71.484375 23.390625 69.703125 
Q 22.515625 67.921875 22.40625 63.921875 
L 16.3125 63.921875 
Q 16.40625 70.515625 18.890625 74.09375 
Q 21.390625 77.6875 25.828125 77.6875 
Q 27.6875 77.6875 29.25 77 
Q 30.8125 76.3125 32.625 74.703125 
L 35.40625 72.015625 
Q 36.46875 71.046875 37.28125 70.578125 
Q 38.09375 70.125 38.71875 70.125 
Q 40.578125 70.125 41.453125 71.90625 
Q 42.328125 73.6875 42.4375 77.6875 
L 48.53125 77.6875 
Q 48.4375 71.09375 45.9375 67.5 
Q 43.453125 63.921875 39.015625 63.921875 
Q 37.15625 63.921875 35.59375 64.59375 
Q 34.03125 65.28125 32.234375 66.890625 
z
" id="DejaVuSans-241"/>
      <path d="M 8.5 21.578125 
L 8.5 54.6875 
L 17.484375 54.6875 
L 17.484375 21.921875 
Q 17.484375 14.15625 20.5 10.265625 
Q 23.53125 6.390625 29.59375 6.390625 
Q 36.859375 6.390625 41.078125 11.03125 
Q 45.3125 15.671875 45.3125 23.6875 
L 45.3125 54.6875 
L 54.296875 54.6875 
L 54.296875 0 
L 45.3125 0 
L 45.3125 8.40625 
Q 42.046875 3.421875 37.71875 1 
Q 33.40625 -1.421875 27.6875 -1.421875 
Q 18.265625 -1.421875 13.375 4.4375 
Q 8.5 10.296875 8.5 21.578125 
z
M 31.109375 56 
z
" id="DejaVuSans-117"/>
     </defs>
     <g transform="translate(14.96875 285.487344)rotate(-90)scale(0.1 -0.1)">
      <use xlink:href="#DejaVuSans-78"/>
      <use x="74.804688" xlink:href="#DejaVuSans-105"/>
      <use x="102.587891" xlink:href="#DejaVuSans-118"/>
      <use x="161.767578" xlink:href="#DejaVuSans-101"/>
      <use x="223.291016" xlink:href="#DejaVuSans-108"/>
      <use x="251.074219" xlink:href="#DejaVuSans-32"/>
      <use x="282.861328" xlink:href="#DejaVuSans-100"/>
      <use x="346.337891" xlink:href="#DejaVuSans-101"/>
      <use x="407.861328" xlink:href="#DejaVuSans-32"/>
      <use x="439.648438" xlink:href="#DejaVuSans-100"/>
      <use x="503.125" xlink:href="#DejaVuSans-101"/>
      <use x="564.648438" xlink:href="#DejaVuSans-115"/>
      <use x="616.748047" xlink:href="#DejaVuSans-101"/>
      <use x="678.271484" xlink:href="#DejaVuSans-109"/>
      <use x="775.683594" xlink:href="#DejaVuSans-112"/>
      <use x="839.160156" xlink:href="#DejaVuSans-101"/>
      <use x="900.683594" xlink:href="#DejaVuSans-241"/>
      <use x="964.0625" xlink:href="#DejaVuSans-111"/>
      <use x="1025.244141" xlink:href="#DejaVuSans-32"/>
      <use x="1057.03125" xlink:href="#DejaVuSans-101"/>
      <use x="1118.554688" xlink:href="#DejaVuSans-110"/>
      <use x="1181.933594" xlink:href="#DejaVuSans-32"/>
      <use x="1213.720703" xlink:href="#DejaVuSans-110"/>
      <use x="1277.099609" xlink:href="#DejaVuSans-97"/>
      <use x="1338.378906" xlink:href="#DejaVuSans-116"/>
      <use x="1377.587891" xlink:href="#DejaVuSans-117"/>
      <use x="1440.966797" xlink:href="#DejaVuSans-114"/>
      <use x="1482.080078" xlink:href="#DejaVuSans-97"/>
      <use x="1543.359375" xlink:href="#DejaVuSans-108"/>
      <use x="1571.142578" xlink:href="#DejaVuSans-101"/>
      <use x="1632.666016" xlink:href="#DejaVuSans-115"/>
     </g>
    </g>
   </g>
   <g id="line2d_14">
    <path clip-path="url(#p0c81957a67)" d="M 236.93058 78.9375 
L 679.787723 78.9375 
" style="fill:none;stroke:#262626;stroke-linecap:square;stroke-width:1.5;"/>
   </g>
   <g id="line2d_15">
    <path clip-path="url(#p0c81957a67)" d="M 423.914707 78.9375 
L 549.535622 78.9375 
" style="fill:none;stroke:#262626;stroke-linecap:square;stroke-width:4.5;"/>
   </g>
   <g id="line2d_16">
    <path clip-path="url(#p0c81957a67)" d="M 207.406771 160.4775 
L 639.787723 160.4775 
" style="fill:none;stroke:#262626;stroke-linecap:square;stroke-width:1.5;"/>
   </g>
   <g id="line2d_17">
    <path clip-path="url(#p0c81957a67)" d="M 369.787723 160.4775 
L 478.211369 160.4775 
" style="fill:none;stroke:#262626;stroke-linecap:square;stroke-width:4.5;"/>
   </g>
   <g id="line2d_18">
    <path clip-path="url(#p0c81957a67)" d="M 189.238273 242.0175 
L 586.947792 242.0175 
" style="fill:none;stroke:#262626;stroke-linecap:square;stroke-width:1.5;"/>
   </g>
   <g id="line2d_19">
    <path clip-path="url(#p0c81957a67)" d="M 338.15507 242.0175 
L 437.692485 242.0175 
" style="fill:none;stroke:#262626;stroke-linecap:square;stroke-width:4.5;"/>
   </g>
   <g id="line2d_20">
    <path clip-path="url(#p0c81957a67)" d="M 182.644866 323.5575 
L 594.759152 323.5575 
" style="fill:none;stroke:#262626;stroke-linecap:square;stroke-width:1.5;"/>
   </g>
   <g id="line2d_21">
    <path clip-path="url(#p0c81957a67)" d="M 336.93058 323.5575 
L 440.123858 323.5575 
" style="fill:none;stroke:#262626;stroke-linecap:square;stroke-width:4.5;"/>
   </g>
   <g id="patch_3">
    <path d="M 135.073438 364.3275 
L 135.073438 38.1675 
" style="fill:none;stroke:#000000;stroke-linecap:square;stroke-linejoin:miter;stroke-width:0.8;"/>
   </g>
   <g id="patch_4">
    <path d="M 693.073437 364.3275 
L 693.073437 38.1675 
" style="fill:none;stroke:#000000;stroke-linecap:square;stroke-linejoin:miter;stroke-width:0.8;"/>
   </g>
   <g id="patch_5">
    <path d="M 135.073438 364.3275 
L 693.073438 364.3275 
" style="fill:none;stroke:#000000;stroke-linecap:square;stroke-linejoin:miter;stroke-width:0.8;"/>
   </g>
   <g id="patch_6">
    <path d="M 135.073438 38.1675 
L 693.073438 38.1675 
" style="fill:none;stroke:#000000;stroke-linecap:square;stroke-linejoin:miter;stroke-width:0.8;"/>
   </g>
   <g id="PathCollection_1">
    <defs>
     <path d="M 0 1.5 
C 0.397805 1.5 0.77937 1.341951 1.06066 1.06066 
C 1.341951 0.77937 1.5 0.397805 1.5 0 
C 1.5 -0.397805 1.341951 -0.77937 1.06066 -1.06066 
C 0.77937 -1.341951 0.397805 -1.5 0 -1.5 
C -0.397805 -1.5 -0.77937 -1.341951 -1.06066 -1.06066 
C -1.341951 -0.77937 -1.5 -0.397805 -1.5 0 
C -1.5 0.397805 -1.341951 0.77937 -1.06066 1.06066 
C -0.77937 1.341951 -0.397805 1.5 0 1.5 
z
" id="mc867c67173" style="stroke:#262626;"/>
    </defs>
    <g clip-path="url(#p0c81957a67)">
     <use style="fill:#ffffff;stroke:#262626;" x="479.75562" xlink:href="#mc867c67173" y="78.9375"/>
    </g>
   </g>
   <g id="PathCollection_2">
    <g clip-path="url(#p0c81957a67)">
     <use style="fill:#ffffff;stroke:#262626;" x="420.554274" xlink:href="#mc867c67173" y="160.4775"/>
    </g>
   </g>
   <g id="PathCollection_3">
    <g clip-path="url(#p0c81957a67)">
     <use style="fill:#ffffff;stroke:#262626;" x="385.60405" xlink:href="#mc867c67173" y="242.0175"/>
    </g>
   </g>
   <g id="PathCollection_4">
    <g clip-path="url(#p0c81957a67)">
     <use style="fill:#ffffff;stroke:#262626;" x="385.938984" xlink:href="#mc867c67173" y="323.5575"/>
    </g>
   </g>
   <g id="text_16">
    <!-- Distribución de: Índice socioeconómico según el desempeño en naturales -->
    <defs>
     <path d="M 19.671875 64.796875 
L 19.671875 8.109375 
L 31.59375 8.109375 
Q 46.6875 8.109375 53.6875 14.9375 
Q 60.6875 21.78125 60.6875 36.53125 
Q 60.6875 51.171875 53.6875 57.984375 
Q 46.6875 64.796875 31.59375 64.796875 
z
M 9.8125 72.90625 
L 30.078125 72.90625 
Q 51.265625 72.90625 61.171875 64.09375 
Q 71.09375 55.28125 71.09375 36.53125 
Q 71.09375 17.671875 61.125 8.828125 
Q 51.171875 0 30.078125 0 
L 9.8125 0 
z
" id="DejaVuSans-68"/>
     <path d="M 11.71875 12.40625 
L 22.015625 12.40625 
L 22.015625 0 
L 11.71875 0 
z
M 11.71875 51.703125 
L 22.015625 51.703125 
L 22.015625 39.3125 
L 11.71875 39.3125 
z
" id="DejaVuSans-58"/>
     <path d="M 45.40625 27.984375 
Q 45.40625 37.75 41.375 43.109375 
Q 37.359375 48.484375 30.078125 48.484375 
Q 22.859375 48.484375 18.828125 43.109375 
Q 14.796875 37.75 14.796875 27.984375 
Q 14.796875 18.265625 18.828125 12.890625 
Q 22.859375 7.515625 30.078125 7.515625 
Q 37.359375 7.515625 41.375 12.890625 
Q 45.40625 18.265625 45.40625 27.984375 
z
M 54.390625 6.78125 
Q 54.390625 -7.171875 48.1875 -13.984375 
Q 42 -20.796875 29.203125 -20.796875 
Q 24.46875 -20.796875 20.265625 -20.09375 
Q 16.0625 -19.390625 12.109375 -17.921875 
L 12.109375 -9.1875 
Q 16.0625 -11.328125 19.921875 -12.34375 
Q 23.78125 -13.375 27.78125 -13.375 
Q 36.625 -13.375 41.015625 -8.765625 
Q 45.40625 -4.15625 45.40625 5.171875 
L 45.40625 9.625 
Q 42.625 4.78125 38.28125 2.390625 
Q 33.9375 0 27.875 0 
Q 17.828125 0 11.671875 7.65625 
Q 5.515625 15.328125 5.515625 27.984375 
Q 5.515625 40.671875 11.671875 48.328125 
Q 17.828125 56 27.875 56 
Q 33.9375 56 38.28125 53.609375 
Q 42.625 51.21875 45.40625 46.390625 
L 45.40625 54.6875 
L 54.390625 54.6875 
z
" id="DejaVuSans-103"/>
     <path d="M 8.5 21.578125 
L 8.5 54.6875 
L 17.484375 54.6875 
L 17.484375 21.921875 
Q 17.484375 14.15625 20.5 10.265625 
Q 23.53125 6.390625 29.59375 6.390625 
Q 36.859375 6.390625 41.078125 11.03125 
Q 45.3125 15.671875 45.3125 23.6875 
L 45.3125 54.6875 
L 54.296875 54.6875 
L 54.296875 0 
L 45.3125 0 
L 45.3125 8.40625 
Q 42.046875 3.421875 37.71875 1 
Q 33.40625 -1.421875 27.6875 -1.421875 
Q 18.265625 -1.421875 13.375 4.4375 
Q 8.5 10.296875 8.5 21.578125 
z
M 31.109375 56 
z
M 37.796875 79.984375 
L 47.515625 79.984375 
L 31.59375 61.625 
L 24.125 61.625 
z
" id="DejaVuSans-250"/>
    </defs>
    <g transform="translate(192.771875 18.328125)scale(0.12 -0.12)">
     <use xlink:href="#DejaVuSans-68"/>
     <use x="77.001953" xlink:href="#DejaVuSans-105"/>
     <use x="104.785156" xlink:href="#DejaVuSans-115"/>
     <use x="156.884766" xlink:href="#DejaVuSans-116"/>
     <use x="196.09375" xlink:href="#DejaVuSans-114"/>
     <use x="237.207031" xlink:href="#DejaVuSans-105"/>
     <use x="264.990234" xlink:href="#DejaVuSans-98"/>
     <use x="328.466797" xlink:href="#DejaVuSans-117"/>
     <use x="391.845703" xlink:href="#DejaVuSans-99"/>
     <use x="446.826172" xlink:href="#DejaVuSans-105"/>
     <use x="474.609375" xlink:href="#DejaVuSans-243"/>
     <use x="535.791016" xlink:href="#DejaVuSans-110"/>
     <use x="599.169922" xlink:href="#DejaVuSans-32"/>
     <use x="630.957031" xlink:href="#DejaVuSans-100"/>
     <use x="694.433594" xlink:href="#DejaVuSans-101"/>
     <use x="755.957031" xlink:href="#DejaVuSans-58"/>
     <use x="789.648438" xlink:href="#DejaVuSans-32"/>
     <use x="821.435547" xlink:href="#DejaVuSans-205"/>
     <use x="850.927734" xlink:href="#DejaVuSans-110"/>
     <use x="914.306641" xlink:href="#DejaVuSans-100"/>
     <use x="977.783203" xlink:href="#DejaVuSans-105"/>
     <use x="1005.566406" xlink:href="#DejaVuSans-99"/>
     <use x="1060.546875" xlink:href="#DejaVuSans-101"/>
     <use x="1122.070312" xlink:href="#DejaVuSans-32"/>
     <use x="1153.857422" xlink:href="#DejaVuSans-115"/>
     <use x="1205.957031" xlink:href="#DejaVuSans-111"/>
     <use x="1267.138672" xlink:href="#DejaVuSans-99"/>
     <use x="1322.119141" xlink:href="#DejaVuSans-105"/>
     <use x="1349.902344" xlink:href="#DejaVuSans-111"/>
     <use x="1411.083984" xlink:href="#DejaVuSans-101"/>
     <use x="1472.607422" xlink:href="#DejaVuSans-99"/>
     <use x="1527.587891" xlink:href="#DejaVuSans-111"/>
     <use x="1588.769531" xlink:href="#DejaVuSans-110"/>
     <use x="1652.148438" xlink:href="#DejaVuSans-243"/>
     <use x="1713.330078" xlink:href="#DejaVuSans-109"/>
     <use x="1810.742188" xlink:href="#DejaVuSans-105"/>
     <use x="1838.525391" xlink:href="#DejaVuSans-99"/>
     <use x="1893.505859" xlink:href="#DejaVuSans-111"/>
     <use x="1954.6875" xlink:href="#DejaVuSans-32"/>
     <use x="1986.474609" xlink:href="#DejaVuSans-115"/>
     <use x="2038.574219" xlink:href="#DejaVuSans-101"/>
     <use x="2100.097656" xlink:href="#DejaVuSans-103"/>
     <use x="2163.574219" xlink:href="#DejaVuSans-250"/>
     <use x="2226.953125" xlink:href="#DejaVuSans-110"/>
     <use x="2290.332031" xlink:href="#DejaVuSans-32"/>
     <use x="2322.119141" xlink:href="#DejaVuSans-101"/>
     <use x="2383.642578" xlink:href="#DejaVuSans-108"/>
     <use x="2411.425781" xlink:href="#DejaVuSans-32"/>
     <use x="2443.212891" xlink:href="#DejaVuSans-100"/>
     <use x="2506.689453" xlink:href="#DejaVuSans-101"/>
     <use x="2568.212891" xlink:href="#DejaVuSans-115"/>
     <use x="2620.3125" xlink:href="#DejaVuSans-101"/>
     <use x="2681.835938" xlink:href="#DejaVuSans-109"/>
     <use x="2779.248047" xlink:href="#DejaVuSans-112"/>
     <use x="2842.724609" xlink:href="#DejaVuSans-101"/>
     <use x="2904.248047" xlink:href="#DejaVuSans-241"/>
     <use x="2967.626953" xlink:href="#DejaVuSans-111"/>
     <use x="3028.808594" xlink:href="#DejaVuSans-32"/>
     <use x="3060.595703" xlink:href="#DejaVuSans-101"/>
     <use x="3122.119141" xlink:href="#DejaVuSans-110"/>
     <use x="3185.498047" xlink:href="#DejaVuSans-32"/>
     <use x="3217.285156" xlink:href="#DejaVuSans-110"/>
     <use x="3280.664062" xlink:href="#DejaVuSans-97"/>
     <use x="3341.943359" xlink:href="#DejaVuSans-116"/>
     <use x="3381.152344" xlink:href="#DejaVuSans-117"/>
     <use x="3444.53125" xlink:href="#DejaVuSans-114"/>
     <use x="3485.644531" xlink:href="#DejaVuSans-97"/>
     <use x="3546.923828" xlink:href="#DejaVuSans-108"/>
     <use x="3574.707031" xlink:href="#DejaVuSans-101"/>
     <use x="3636.230469" xlink:href="#DejaVuSans-115"/>
    </g>
    <!--  Nivel: Primaria -->
    <g transform="translate(368.090937 31.7655)scale(0.12 -0.12)">
     <use xlink:href="#DejaVuSans-32"/>
     <use x="31.787109" xlink:href="#DejaVuSans-78"/>
     <use x="106.591797" xlink:href="#DejaVuSans-105"/>
     <use x="134.375" xlink:href="#DejaVuSans-118"/>
     <use x="193.554688" xlink:href="#DejaVuSans-101"/>
     <use x="255.078125" xlink:href="#DejaVuSans-108"/>
     <use x="282.861328" xlink:href="#DejaVuSans-58"/>
     <use x="316.552734" xlink:href="#DejaVuSans-32"/>
     <use x="348.339844" xlink:href="#DejaVuSans-80"/>
     <use x="408.626953" xlink:href="#DejaVuSans-114"/>
     <use x="449.740234" xlink:href="#DejaVuSans-105"/>
     <use x="477.523438" xlink:href="#DejaVuSans-109"/>
     <use x="574.935547" xlink:href="#DejaVuSans-97"/>
     <use x="636.214844" xlink:href="#DejaVuSans-114"/>
     <use x="677.328125" xlink:href="#DejaVuSans-105"/>
     <use x="705.111328" xlink:href="#DejaVuSans-97"/>
    </g>
   </g>
  </g>
 </g>
 <defs>
  <clipPath id="p0c81957a67">
   <rect height="326.16" width="558" x="135.073438" y="38.1675"/>
  </clipPath>
 </defs>
</svg>
