<?xml version="1.0" encoding="utf-8" standalone="no"?>
<!DOCTYPE svg PUBLIC "-//W3C//DTD SVG 1.1//EN"
  "http://www.w3.org/Graphics/SVG/1.1/DTD/svg11.dtd">
<!-- Created with matplotlib (https://matplotlib.org/) -->
<svg height="401.88375pt" version="1.1" viewBox="0 0 703.773437 401.88375" width="703.773437pt" xmlns="http://www.w3.org/2000/svg" xmlns:xlink="http://www.w3.org/1999/xlink">
 <defs>
  <style type="text/css">
*{stroke-linecap:butt;stroke-linejoin:round;}
  </style>
 </defs>
 <g id="figure_1">
  <g id="patch_1">
   <path d="M 0 401.88375 
L 703.773437 401.88375 
L 703.773437 0 
L 0 0 
z
" style="fill:#ffffff;"/>
  </g>
  <g id="axes_1">
   <g id="patch_2">
    <path d="M 135.073438 364.3275 
L 693.073437 364.3275 
L 693.073437 38.1675 
L 135.073438 38.1675 
z
" style="fill:#ffffff;"/>
   </g>
   <g id="PolyCollection_1">
    <defs>
     <path d="M 134.004575 -322.88751 
L 134.004575 -323.00499 
L 139.662532 -323.154592 
L 145.320488 -323.343475 
L 150.978445 -323.355351 
L 156.636402 -323.185191 
L 162.294359 -323.068342 
L 167.952316 -323.093998 
L 173.610273 -323.184855 
L 179.268229 -323.266444 
L 184.926186 -323.319405 
L 190.584143 -323.363756 
L 196.2421 -323.441585 
L 201.900057 -323.550175 
L 207.558013 -323.645175 
L 213.21597 -323.692016 
L 218.873927 -323.681547 
L 224.531884 -323.69103 
L 230.189841 -323.789816 
L 235.847798 -323.924086 
L 241.505754 -324.082399 
L 247.163711 -324.373248 
L 252.821668 -324.75889 
L 258.479625 -325.069398 
L 264.137582 -325.291435 
L 269.795539 -325.603483 
L 275.453495 -326.090404 
L 281.111452 -326.501772 
L 286.769409 -326.668557 
L 292.427366 -326.906404 
L 298.085323 -327.390025 
L 303.743279 -327.859718 
L 309.401236 -328.282039 
L 315.059193 -329.00946 
L 320.71715 -330.118001 
L 326.375107 -331.161752 
L 332.033064 -331.891214 
L 337.69102 -332.703456 
L 343.348977 -333.856519 
L 349.006934 -335.031976 
L 354.664891 -336.044603 
L 360.322848 -337.268132 
L 365.980805 -338.831161 
L 371.638761 -340.287445 
L 377.296718 -341.568562 
L 382.954675 -343.048224 
L 388.612632 -344.769444 
L 394.270589 -345.97552 
L 399.928545 -346.313096 
L 405.586502 -347.43569 
L 411.244459 -349.840239 
L 416.902416 -350.696476 
L 422.560373 -349.673371 
L 428.21833 -349.459205 
L 433.876286 -350.558651 
L 439.534243 -351.950017 
L 445.1922 -352.487797 
L 450.850157 -351.360446 
L 456.508114 -349.132348 
L 462.16607 -347.217788 
L 467.824027 -346.196093 
L 473.481984 -345.621367 
L 479.139941 -345.176342 
L 484.797898 -344.81674 
L 490.455855 -344.384287 
L 496.113811 -343.851344 
L 501.771768 -343.065736 
L 507.429725 -341.724278 
L 513.087682 -340.327728 
L 518.745639 -339.430475 
L 524.403596 -338.825781 
L 530.061552 -338.173321 
L 535.719509 -337.54986 
L 541.377466 -337.334885 
L 547.035423 -337.187043 
L 552.69338 -336.483812 
L 558.351336 -335.585171 
L 564.009293 -334.920986 
L 569.66725 -334.322079 
L 575.325207 -333.503167 
L 580.983164 -332.580207 
L 586.641121 -331.891296 
L 592.299077 -331.247601 
L 597.957034 -330.735797 
L 603.614991 -330.78803 
L 609.272948 -331.086957 
L 614.930905 -331.067056 
L 620.588862 -330.628152 
L 626.246818 -329.861468 
L 631.904775 -328.727479 
L 637.562732 -327.322676 
L 643.220689 -326.294226 
L 648.878646 -325.909211 
L 654.536602 -325.488952 
L 660.194559 -324.703015 
L 665.852516 -323.957271 
L 671.510473 -323.518519 
L 677.16843 -323.31028 
L 682.826387 -323.174504 
L 688.484343 -323.04966 
L 694.1423 -322.974126 
L 694.1423 -322.918374 
L 694.1423 -322.918374 
L 688.484343 -322.84284 
L 682.826387 -322.717996 
L 677.16843 -322.58222 
L 671.510473 -322.373981 
L 665.852516 -321.935229 
L 660.194559 -321.189485 
L 654.536602 -320.403548 
L 648.878646 -319.983289 
L 643.220689 -319.598274 
L 637.562732 -318.569824 
L 631.904775 -317.165021 
L 626.246818 -316.031032 
L 620.588862 -315.264348 
L 614.930905 -314.825444 
L 609.272948 -314.805543 
L 603.614991 -315.10447 
L 597.957034 -315.156703 
L 592.299077 -314.644899 
L 586.641121 -314.001204 
L 580.983164 -313.312293 
L 575.325207 -312.389333 
L 569.66725 -311.570421 
L 564.009293 -310.971514 
L 558.351336 -310.307329 
L 552.69338 -309.408688 
L 547.035423 -308.705457 
L 541.377466 -308.557615 
L 535.719509 -308.34264 
L 530.061552 -307.719179 
L 524.403596 -307.066719 
L 518.745639 -306.462025 
L 513.087682 -305.564772 
L 507.429725 -304.168222 
L 501.771768 -302.826764 
L 496.113811 -302.041156 
L 490.455855 -301.508213 
L 484.797898 -301.07576 
L 479.139941 -300.716158 
L 473.481984 -300.271133 
L 467.824027 -299.696407 
L 462.16607 -298.674712 
L 456.508114 -296.760152 
L 450.850157 -294.532054 
L 445.1922 -293.404703 
L 439.534243 -293.942483 
L 433.876286 -295.333849 
L 428.21833 -296.433295 
L 422.560373 -296.219129 
L 416.902416 -295.196024 
L 411.244459 -296.052261 
L 405.586502 -298.45681 
L 399.928545 -299.579404 
L 394.270589 -299.91698 
L 388.612632 -301.123056 
L 382.954675 -302.844276 
L 377.296718 -304.323938 
L 371.638761 -305.605055 
L 365.980805 -307.061339 
L 360.322848 -308.624368 
L 354.664891 -309.847897 
L 349.006934 -310.860524 
L 343.348977 -312.035981 
L 337.69102 -313.189044 
L 332.033064 -314.001286 
L 326.375107 -314.730748 
L 320.71715 -315.774499 
L 315.059193 -316.88304 
L 309.401236 -317.610461 
L 303.743279 -318.032782 
L 298.085323 -318.502475 
L 292.427366 -318.986096 
L 286.769409 -319.223943 
L 281.111452 -319.390728 
L 275.453495 -319.802096 
L 269.795539 -320.289017 
L 264.137582 -320.601065 
L 258.479625 -320.823102 
L 252.821668 -321.13361 
L 247.163711 -321.519252 
L 241.505754 -321.810101 
L 235.847798 -321.968414 
L 230.189841 -322.102684 
L 224.531884 -322.20147 
L 218.873927 -322.210953 
L 213.21597 -322.200484 
L 207.558013 -322.247325 
L 201.900057 -322.342325 
L 196.2421 -322.450915 
L 190.584143 -322.528744 
L 184.926186 -322.573095 
L 179.268229 -322.626056 
L 173.610273 -322.707645 
L 167.952316 -322.798502 
L 162.294359 -322.824158 
L 156.636402 -322.707309 
L 150.978445 -322.537149 
L 145.320488 -322.549025 
L 139.662532 -322.737908 
L 134.004575 -322.88751 
z
" id="m6786e3d5a0" style="stroke:#4c4c4c;stroke-width:1.5;"/>
    </defs>
    <g clip-path="url(#pcb868a7b52)">
     <use style="fill:#df9c20;stroke:#4c4c4c;stroke-width:1.5;" x="0" xlink:href="#m6786e3d5a0" y="401.88375"/>
    </g>
   </g>
   <g id="PolyCollection_2">
    <defs>
     <path d="M 134.013398 -241.298917 
L 134.013398 -241.513583 
L 139.671177 -241.787304 
L 145.328956 -242.134069 
L 150.986734 -242.16364 
L 156.644513 -241.880143 
L 162.302291 -241.720511 
L 167.96007 -241.824179 
L 173.617848 -242.024298 
L 179.275627 -242.195659 
L 184.933405 -242.310623 
L 190.591184 -242.391896 
L 196.248963 -242.525051 
L 201.906741 -242.777178 
L 207.56452 -243.09579 
L 213.222298 -243.311997 
L 218.880077 -243.349556 
L 224.537855 -243.411163 
L 230.195634 -243.654317 
L 235.853413 -243.95413 
L 241.511191 -244.304262 
L 247.16897 -244.951865 
L 252.826748 -245.80178 
L 258.484527 -246.452012 
L 264.142305 -246.903455 
L 269.800084 -247.548471 
L 275.457863 -248.469772 
L 281.115641 -249.287364 
L 286.77342 -249.803056 
L 292.431198 -250.360675 
L 298.088977 -251.208026 
L 303.746755 -252.115601 
L 309.404534 -253.056424 
L 315.062313 -254.523649 
L 320.720091 -256.641499 
L 326.37787 -258.616281 
L 332.035648 -259.81878 
L 337.693427 -260.932847 
L 343.351205 -262.631504 
L 349.008984 -264.199459 
L 354.666763 -265.098292 
L 360.324541 -266.167609 
L 365.98232 -267.779354 
L 371.640098 -269.180007 
L 377.297877 -270.150892 
L 382.955655 -270.920582 
L 388.613434 -271.412193 
L 394.271213 -271.242027 
L 399.928991 -270.685623 
L 405.58677 -271.669412 
L 411.244548 -274.02225 
L 416.902327 -273.877675 
L 422.560105 -271.065382 
L 428.217884 -269.046991 
L 433.875662 -268.370544 
L 439.533441 -267.995528 
L 445.19122 -267.361882 
L 450.848998 -265.983367 
L 456.506777 -263.753787 
L 462.164555 -261.354507 
L 467.822334 -259.543878 
L 473.480112 -258.275193 
L 479.137891 -257.150623 
L 484.79567 -256.031139 
L 490.453448 -254.941802 
L 496.111227 -254.012068 
L 501.769005 -253.2348 
L 507.426784 -252.318054 
L 513.084562 -251.329983 
L 518.742341 -250.532381 
L 524.40012 -249.853853 
L 530.057898 -249.210291 
L 535.715677 -248.674244 
L 541.373455 -248.313679 
L 547.031234 -247.944827 
L 552.689012 -247.291016 
L 558.346791 -246.51382 
L 564.00457 -245.983684 
L 569.662348 -245.716553 
L 575.320127 -245.424124 
L 580.977905 -245.029194 
L 586.635684 -244.694618 
L 592.293462 -244.375999 
L 597.951241 -244.058322 
L 603.60902 -243.907634 
L 609.266798 -243.897385 
L 614.924577 -243.853248 
L 620.582355 -243.648068 
L 626.240134 -243.281494 
L 631.897912 -242.853854 
L 637.555691 -242.452821 
L 643.21347 -242.180049 
L 648.871248 -242.059878 
L 654.529027 -241.948558 
L 660.186805 -241.780987 
L 665.844584 -241.636232 
L 671.502362 -241.554787 
L 677.160141 -241.514301 
L 682.817919 -241.479243 
L 688.475698 -241.44023 
L 694.133477 -241.415483 
L 694.133477 -241.397017 
L 694.133477 -241.397017 
L 688.475698 -241.37227 
L 682.817919 -241.333257 
L 677.160141 -241.298199 
L 671.502362 -241.257713 
L 665.844584 -241.176268 
L 660.186805 -241.031513 
L 654.529027 -240.863942 
L 648.871248 -240.752622 
L 643.21347 -240.632451 
L 637.555691 -240.359679 
L 631.897912 -239.958646 
L 626.240134 -239.531006 
L 620.582355 -239.164432 
L 614.924577 -238.959252 
L 609.266798 -238.915115 
L 603.60902 -238.904866 
L 597.951241 -238.754178 
L 592.293462 -238.436501 
L 586.635684 -238.117882 
L 580.977905 -237.783306 
L 575.320127 -237.388376 
L 569.662348 -237.095947 
L 564.00457 -236.828816 
L 558.346791 -236.29868 
L 552.689012 -235.521484 
L 547.031234 -234.867673 
L 541.373455 -234.498821 
L 535.715677 -234.138256 
L 530.057898 -233.602209 
L 524.40012 -232.958647 
L 518.742341 -232.280119 
L 513.084562 -231.482517 
L 507.426784 -230.494446 
L 501.769005 -229.5777 
L 496.111227 -228.800432 
L 490.453448 -227.870698 
L 484.79567 -226.781361 
L 479.137891 -225.661877 
L 473.480112 -224.537307 
L 467.822334 -223.268622 
L 462.164555 -221.457993 
L 456.506777 -219.058713 
L 450.848998 -216.829133 
L 445.19122 -215.450618 
L 439.533441 -214.816972 
L 433.875662 -214.441956 
L 428.217884 -213.765509 
L 422.560105 -211.747118 
L 416.902327 -208.934825 
L 411.244548 -208.79025 
L 405.58677 -211.143088 
L 399.928991 -212.126877 
L 394.271213 -211.570473 
L 388.613434 -211.400307 
L 382.955655 -211.891918 
L 377.297877 -212.661608 
L 371.640098 -213.632493 
L 365.98232 -215.033146 
L 360.324541 -216.644891 
L 354.666763 -217.714208 
L 349.008984 -218.613041 
L 343.351205 -220.180996 
L 337.693427 -221.879653 
L 332.035648 -222.99372 
L 326.37787 -224.196219 
L 320.720091 -226.171001 
L 315.062313 -228.288851 
L 309.404534 -229.756076 
L 303.746755 -230.696899 
L 298.088977 -231.604474 
L 292.431198 -232.451825 
L 286.77342 -233.009444 
L 281.115641 -233.525136 
L 275.457863 -234.342728 
L 269.800084 -235.264029 
L 264.142305 -235.909045 
L 258.484527 -236.360488 
L 252.826748 -237.01072 
L 247.16897 -237.860635 
L 241.511191 -238.508238 
L 235.853413 -238.85837 
L 230.195634 -239.158183 
L 224.537855 -239.401337 
L 218.880077 -239.462944 
L 213.222298 -239.500503 
L 207.56452 -239.71671 
L 201.906741 -240.035322 
L 196.248963 -240.287449 
L 190.591184 -240.420604 
L 184.933405 -240.501877 
L 179.275627 -240.616841 
L 173.617848 -240.788202 
L 167.96007 -240.988321 
L 162.302291 -241.091989 
L 156.644513 -240.932357 
L 150.986734 -240.64886 
L 145.328956 -240.678431 
L 139.671177 -241.025196 
L 134.013398 -241.298917 
z
" id="m94bbcd7fb6" style="stroke:#4c4c4c;stroke-width:1.5;"/>
    </defs>
    <g clip-path="url(#pcb868a7b52)">
     <use style="fill:#df9c20;stroke:#4c4c4c;stroke-width:1.5;" x="0" xlink:href="#m94bbcd7fb6" y="401.88375"/>
    </g>
   </g>
   <g id="PolyCollection_3">
    <defs>
     <path d="M 134.075681 -159.694933 
L 134.075681 -160.037567 
L 139.732201 -160.476849 
L 145.388722 -161.030884 
L 151.045242 -161.069271 
L 156.701762 -160.608485 
L 162.358283 -160.365378 
L 168.014803 -160.577368 
L 173.671323 -160.951808 
L 179.327844 -161.229932 
L 184.984364 -161.367476 
L 190.640884 -161.458844 
L 196.297405 -161.67328 
L 201.953925 -162.040849 
L 207.610445 -162.430967 
L 213.266966 -162.671557 
L 218.923486 -162.68192 
L 224.580006 -162.703566 
L 230.236527 -162.982437 
L 235.893047 -163.420018 
L 241.549567 -163.967844 
L 247.206088 -164.829303 
L 252.862608 -165.905778 
L 258.519128 -166.842257 
L 264.175649 -167.580358 
L 269.832169 -168.449027 
L 275.488689 -169.569273 
L 281.14521 -170.581187 
L 286.80173 -171.341665 
L 292.45825 -172.165179 
L 298.114771 -173.126485 
L 303.771291 -174.042277 
L 309.427811 -175.238391 
L 315.084332 -177.311459 
L 320.740852 -180.016697 
L 326.397372 -182.247029 
L 332.053893 -183.405122 
L 337.710413 -184.434765 
L 343.366933 -186.129662 
L 349.023454 -187.607672 
L 354.679974 -188.314412 
L 360.336494 -189.284089 
L 365.993015 -190.630853 
L 371.649535 -191.255284 
L 377.306055 -191.174608 
L 382.962576 -190.99402 
L 388.619096 -190.845832 
L 394.275616 -190.175472 
L 399.932137 -188.94575 
L 405.588657 -189.114057 
L 411.245177 -190.64649 
L 416.901698 -189.765687 
L 422.558218 -186.428312 
L 428.214738 -184.091053 
L 433.871259 -183.105435 
L 439.527779 -182.285466 
L 445.184299 -181.274355 
L 450.84082 -179.848751 
L 456.49734 -177.838545 
L 462.15386 -175.737339 
L 467.810381 -174.158768 
L 473.466901 -172.978831 
L 479.123421 -171.830571 
L 484.779942 -170.658009 
L 490.436462 -169.585159 
L 496.092982 -168.751881 
L 501.749503 -168.146572 
L 507.406023 -167.524084 
L 513.062543 -166.871927 
L 518.719064 -166.352574 
L 524.375584 -165.939878 
L 530.032104 -165.562524 
L 535.688625 -165.192419 
L 541.345145 -164.823147 
L 547.001665 -164.398404 
L 552.658186 -163.849591 
L 558.314706 -163.269564 
L 563.971226 -162.879343 
L 569.627747 -162.725585 
L 575.284267 -162.573347 
L 580.940787 -162.304175 
L 586.597308 -162.04164 
L 592.253828 -161.784441 
L 597.910348 -161.523263 
L 603.566869 -161.400154 
L 609.223389 -161.400167 
L 614.879909 -161.391393 
L 620.53643 -161.287013 
L 626.19295 -161.065221 
L 631.84947 -160.784809 
L 637.505991 -160.525025 
L 643.162511 -160.351433 
L 648.819031 -160.256564 
L 654.475552 -160.159897 
L 660.132072 -160.051542 
L 665.788592 -159.983746 
L 671.445113 -159.965567 
L 677.101633 -159.964642 
L 682.758153 -159.94383 
L 688.414674 -159.904179 
L 694.071194 -159.876654 
L 694.071194 -159.855846 
L 694.071194 -159.855846 
L 688.414674 -159.828321 
L 682.758153 -159.78867 
L 677.101633 -159.767858 
L 671.445113 -159.766933 
L 665.788592 -159.748754 
L 660.132072 -159.680958 
L 654.475552 -159.572603 
L 648.819031 -159.475936 
L 643.162511 -159.381067 
L 637.505991 -159.207475 
L 631.84947 -158.947691 
L 626.19295 -158.667279 
L 620.53643 -158.445487 
L 614.879909 -158.341107 
L 609.223389 -158.332333 
L 603.566869 -158.332346 
L 597.910348 -158.209237 
L 592.253828 -157.948059 
L 586.597308 -157.69086 
L 580.940787 -157.428325 
L 575.284267 -157.159153 
L 569.627747 -157.006915 
L 563.971226 -156.853157 
L 558.314706 -156.462936 
L 552.658186 -155.882909 
L 547.001665 -155.334096 
L 541.345145 -154.909353 
L 535.688625 -154.540081 
L 530.032104 -154.169976 
L 524.375584 -153.792622 
L 518.719064 -153.379926 
L 513.062543 -152.860573 
L 507.406023 -152.208416 
L 501.749503 -151.585928 
L 496.092982 -150.980619 
L 490.436462 -150.147341 
L 484.779942 -149.074491 
L 479.123421 -147.901929 
L 473.466901 -146.753669 
L 467.810381 -145.573732 
L 462.15386 -143.995161 
L 456.49734 -141.893955 
L 450.84082 -139.883749 
L 445.184299 -138.458145 
L 439.527779 -137.447034 
L 433.871259 -136.627065 
L 428.214738 -135.641447 
L 422.558218 -133.304188 
L 416.901698 -129.966813 
L 411.245177 -129.08601 
L 405.588657 -130.618443 
L 399.932137 -130.78675 
L 394.275616 -129.557028 
L 388.619096 -128.886668 
L 382.962576 -128.73848 
L 377.306055 -128.557892 
L 371.649535 -128.477216 
L 365.993015 -129.101647 
L 360.336494 -130.448411 
L 354.679974 -131.418088 
L 349.023454 -132.124828 
L 343.366933 -133.602838 
L 337.710413 -135.297735 
L 332.053893 -136.327378 
L 326.397372 -137.485471 
L 320.740852 -139.715803 
L 315.084332 -142.421041 
L 309.427811 -144.494109 
L 303.771291 -145.690223 
L 298.114771 -146.606015 
L 292.45825 -147.567321 
L 286.80173 -148.390835 
L 281.14521 -149.151313 
L 275.488689 -150.163227 
L 269.832169 -151.283473 
L 264.175649 -152.152142 
L 258.519128 -152.890243 
L 252.862608 -153.826722 
L 247.206088 -154.903197 
L 241.549567 -155.764656 
L 235.893047 -156.312482 
L 230.236527 -156.750063 
L 224.580006 -157.028934 
L 218.923486 -157.05058 
L 213.266966 -157.060943 
L 207.610445 -157.301533 
L 201.953925 -157.691651 
L 196.297405 -158.05922 
L 190.640884 -158.273656 
L 184.984364 -158.365024 
L 179.327844 -158.502568 
L 173.671323 -158.780692 
L 168.014803 -159.155132 
L 162.358283 -159.367122 
L 156.701762 -159.124015 
L 151.045242 -158.663229 
L 145.388722 -158.701616 
L 139.732201 -159.255651 
L 134.075681 -159.694933 
z
" id="ma3a53b730e" style="stroke:#4c4c4c;stroke-width:1.5;"/>
    </defs>
    <g clip-path="url(#pcb868a7b52)">
     <use style="fill:#df9c20;stroke:#4c4c4c;stroke-width:1.5;" x="0" xlink:href="#ma3a53b730e" y="401.88375"/>
    </g>
   </g>
   <g id="PolyCollection_4">
    <defs>
     <path d="M 133.255595 -78.178936 
L 133.255595 -78.473564 
L 138.928683 -78.825658 
L 144.601771 -79.291181 
L 150.274858 -79.399996 
L 155.947946 -79.068176 
L 161.621034 -78.821911 
L 167.294122 -78.958694 
L 172.967209 -79.294529 
L 178.640297 -79.577655 
L 184.313385 -79.729892 
L 189.986472 -79.834737 
L 195.65956 -80.068257 
L 201.332648 -80.475218 
L 207.005736 -80.875113 
L 212.678823 -81.091402 
L 218.351911 -81.145823 
L 224.024999 -81.234677 
L 229.698087 -81.481328 
L 235.371174 -81.851149 
L 241.044262 -82.417555 
L 246.71735 -83.384191 
L 252.390437 -84.649646 
L 258.063525 -85.758883 
L 263.736613 -86.524747 
L 269.409701 -87.319037 
L 275.082788 -88.394705 
L 280.755876 -89.489489 
L 286.428964 -90.372279 
L 292.102051 -91.114367 
L 297.775139 -91.850948 
L 303.448227 -92.761959 
L 309.121315 -94.32262 
L 314.794402 -96.908085 
L 320.46749 -99.899469 
L 326.140578 -101.987821 
L 331.813666 -102.775581 
L 337.486753 -103.364237 
L 343.159841 -104.578135 
L 348.832929 -105.878054 
L 354.506016 -106.841263 
L 360.179104 -107.90603 
L 365.852192 -108.958169 
L 371.52528 -109.466768 
L 377.198367 -109.555983 
L 382.871455 -109.37337 
L 388.544543 -108.9104 
L 394.21763 -108.082578 
L 399.890718 -107.21571 
L 405.563806 -107.61015 
L 411.236894 -108.766959 
L 416.909981 -107.73696 
L 422.583069 -104.405758 
L 428.256157 -101.483582 
L 433.929245 -99.847884 
L 439.602332 -98.824987 
L 445.27542 -97.846899 
L 450.948508 -96.515511 
L 456.621595 -94.666095 
L 462.294683 -92.595654 
L 467.967771 -90.893582 
L 473.640859 -89.823667 
L 479.313946 -89.153677 
L 484.987034 -88.613265 
L 490.660122 -88.140385 
L 496.333209 -87.653784 
L 502.006297 -86.995419 
L 507.679385 -86.168891 
L 513.352473 -85.401838 
L 519.02556 -84.875599 
L 524.698648 -84.523334 
L 530.371736 -84.22736 
L 536.044824 -83.95117 
L 541.717911 -83.66101 
L 547.390999 -83.279759 
L 553.064087 -82.735094 
L 558.737174 -82.141161 
L 564.410262 -81.764562 
L 570.08335 -81.598389 
L 575.756438 -81.343622 
L 581.429525 -80.972603 
L 587.102613 -80.695934 
L 592.775701 -80.471567 
L 598.448788 -80.238589 
L 604.121876 -80.11828 
L 609.794964 -80.092832 
L 615.468052 -80.072047 
L 621.141139 -80.015743 
L 626.814227 -79.842512 
L 632.487315 -79.521283 
L 638.160403 -79.169365 
L 643.83349 -78.932822 
L 649.506578 -78.8011 
L 655.179666 -78.665413 
L 660.852753 -78.53025 
L 666.525841 -78.461407 
L 672.198929 -78.447446 
L 677.872017 -78.438465 
L 683.545104 -78.406864 
L 689.218192 -78.364315 
L 694.89128 -78.337096 
L 694.89128 -78.315404 
L 694.89128 -78.315404 
L 689.218192 -78.288185 
L 683.545104 -78.245636 
L 677.872017 -78.214035 
L 672.198929 -78.205054 
L 666.525841 -78.191093 
L 660.852753 -78.12225 
L 655.179666 -77.987087 
L 649.506578 -77.8514 
L 643.83349 -77.719678 
L 638.160403 -77.483135 
L 632.487315 -77.131217 
L 626.814227 -76.809988 
L 621.141139 -76.636757 
L 615.468052 -76.580453 
L 609.794964 -76.559668 
L 604.121876 -76.53422 
L 598.448788 -76.413911 
L 592.775701 -76.180933 
L 587.102613 -75.956566 
L 581.429525 -75.679897 
L 575.756438 -75.308878 
L 570.08335 -75.054111 
L 564.410262 -74.887938 
L 558.737174 -74.511339 
L 553.064087 -73.917406 
L 547.390999 -73.372741 
L 541.717911 -72.99149 
L 536.044824 -72.70133 
L 530.371736 -72.42514 
L 524.698648 -72.129166 
L 519.02556 -71.776901 
L 513.352473 -71.250662 
L 507.679385 -70.483609 
L 502.006297 -69.657081 
L 496.333209 -68.998716 
L 490.660122 -68.512115 
L 484.987034 -68.039235 
L 479.313946 -67.498823 
L 473.640859 -66.828833 
L 467.967771 -65.758918 
L 462.294683 -64.056846 
L 456.621595 -61.986405 
L 450.948508 -60.136989 
L 445.27542 -58.805601 
L 439.602332 -57.827513 
L 433.929245 -56.804616 
L 428.256157 -55.168918 
L 422.583069 -52.246742 
L 416.909981 -48.91554 
L 411.236894 -47.885541 
L 405.563806 -49.04235 
L 399.890718 -49.43679 
L 394.21763 -48.569922 
L 388.544543 -47.7421 
L 382.871455 -47.27913 
L 377.198367 -47.096517 
L 371.52528 -47.185732 
L 365.852192 -47.694331 
L 360.179104 -48.74647 
L 354.506016 -49.811237 
L 348.832929 -50.774446 
L 343.159841 -52.074365 
L 337.486753 -53.288263 
L 331.813666 -53.876919 
L 326.140578 -54.664679 
L 320.46749 -56.753031 
L 314.794402 -59.744415 
L 309.121315 -62.32988 
L 303.448227 -63.890541 
L 297.775139 -64.801552 
L 292.102051 -65.538133 
L 286.428964 -66.280221 
L 280.755876 -67.163011 
L 275.082788 -68.257795 
L 269.409701 -69.333463 
L 263.736613 -70.127753 
L 258.063525 -70.893617 
L 252.390437 -72.002854 
L 246.71735 -73.268309 
L 241.044262 -74.234945 
L 235.371174 -74.801351 
L 229.698087 -75.171172 
L 224.024999 -75.417823 
L 218.351911 -75.506677 
L 212.678823 -75.561098 
L 207.005736 -75.777387 
L 201.332648 -76.177282 
L 195.65956 -76.584243 
L 189.986472 -76.817763 
L 184.313385 -76.922608 
L 178.640297 -77.074845 
L 172.967209 -77.357971 
L 167.294122 -77.693806 
L 161.621034 -77.830589 
L 155.947946 -77.584324 
L 150.274858 -77.252504 
L 144.601771 -77.361319 
L 138.928683 -77.826842 
L 133.255595 -78.178936 
z
" id="m711d199f81" style="stroke:#4c4c4c;stroke-width:1.5;"/>
    </defs>
    <g clip-path="url(#pcb868a7b52)">
     <use style="fill:#df9c20;stroke:#4c4c4c;stroke-width:1.5;" x="0" xlink:href="#m711d199f81" y="401.88375"/>
    </g>
   </g>
   <g id="matplotlib.axis_1">
    <g id="xtick_1">
     <g id="line2d_1">
      <defs>
       <path d="M 0 0 
L 0 3.5 
" id="m91048d54a0" style="stroke:#000000;stroke-width:0.8;"/>
      </defs>
      <g>
       <use style="stroke:#000000;stroke-width:0.8;" x="148.359152" xlink:href="#m91048d54a0" y="364.3275"/>
      </g>
     </g>
     <g id="text_1">
      <!-- 1.00 -->
      <defs>
       <path d="M 12.40625 8.296875 
L 28.515625 8.296875 
L 28.515625 63.921875 
L 10.984375 60.40625 
L 10.984375 69.390625 
L 28.421875 72.90625 
L 38.28125 72.90625 
L 38.28125 8.296875 
L 54.390625 8.296875 
L 54.390625 0 
L 12.40625 0 
z
" id="DejaVuSans-49"/>
       <path d="M 10.6875 12.40625 
L 21 12.40625 
L 21 0 
L 10.6875 0 
z
" id="DejaVuSans-46"/>
       <path d="M 31.78125 66.40625 
Q 24.171875 66.40625 20.328125 58.90625 
Q 16.5 51.421875 16.5 36.375 
Q 16.5 21.390625 20.328125 13.890625 
Q 24.171875 6.390625 31.78125 6.390625 
Q 39.453125 6.390625 43.28125 13.890625 
Q 47.125 21.390625 47.125 36.375 
Q 47.125 51.421875 43.28125 58.90625 
Q 39.453125 66.40625 31.78125 66.40625 
z
M 31.78125 74.21875 
Q 44.046875 74.21875 50.515625 64.515625 
Q 56.984375 54.828125 56.984375 36.375 
Q 56.984375 17.96875 50.515625 8.265625 
Q 44.046875 -1.421875 31.78125 -1.421875 
Q 19.53125 -1.421875 13.0625 8.265625 
Q 6.59375 17.96875 6.59375 36.375 
Q 6.59375 54.828125 13.0625 64.515625 
Q 19.53125 74.21875 31.78125 74.21875 
z
" id="DejaVuSans-48"/>
      </defs>
      <g transform="translate(137.226339 378.925937)scale(0.1 -0.1)">
       <use xlink:href="#DejaVuSans-49"/>
       <use x="63.623047" xlink:href="#DejaVuSans-46"/>
       <use x="95.410156" xlink:href="#DejaVuSans-48"/>
       <use x="159.033203" xlink:href="#DejaVuSans-48"/>
      </g>
     </g>
    </g>
    <g id="xtick_2">
     <g id="line2d_2">
      <g>
       <use style="stroke:#000000;stroke-width:0.8;" x="214.787723" xlink:href="#m91048d54a0" y="364.3275"/>
      </g>
     </g>
     <g id="text_2">
      <!-- 1.25 -->
      <defs>
       <path d="M 19.1875 8.296875 
L 53.609375 8.296875 
L 53.609375 0 
L 7.328125 0 
L 7.328125 8.296875 
Q 12.9375 14.109375 22.625 23.890625 
Q 32.328125 33.6875 34.8125 36.53125 
Q 39.546875 41.84375 41.421875 45.53125 
Q 43.3125 49.21875 43.3125 52.78125 
Q 43.3125 58.59375 39.234375 62.25 
Q 35.15625 65.921875 28.609375 65.921875 
Q 23.96875 65.921875 18.8125 64.3125 
Q 13.671875 62.703125 7.8125 59.421875 
L 7.8125 69.390625 
Q 13.765625 71.78125 18.9375 73 
Q 24.125 74.21875 28.421875 74.21875 
Q 39.75 74.21875 46.484375 68.546875 
Q 53.21875 62.890625 53.21875 53.421875 
Q 53.21875 48.921875 51.53125 44.890625 
Q 49.859375 40.875 45.40625 35.40625 
Q 44.1875 33.984375 37.640625 27.21875 
Q 31.109375 20.453125 19.1875 8.296875 
z
" id="DejaVuSans-50"/>
       <path d="M 10.796875 72.90625 
L 49.515625 72.90625 
L 49.515625 64.59375 
L 19.828125 64.59375 
L 19.828125 46.734375 
Q 21.96875 47.46875 24.109375 47.828125 
Q 26.265625 48.1875 28.421875 48.1875 
Q 40.625 48.1875 47.75 41.5 
Q 54.890625 34.8125 54.890625 23.390625 
Q 54.890625 11.625 47.5625 5.09375 
Q 40.234375 -1.421875 26.90625 -1.421875 
Q 22.3125 -1.421875 17.546875 -0.640625 
Q 12.796875 0.140625 7.71875 1.703125 
L 7.71875 11.625 
Q 12.109375 9.234375 16.796875 8.0625 
Q 21.484375 6.890625 26.703125 6.890625 
Q 35.15625 6.890625 40.078125 11.328125 
Q 45.015625 15.765625 45.015625 23.390625 
Q 45.015625 31 40.078125 35.4375 
Q 35.15625 39.890625 26.703125 39.890625 
Q 22.75 39.890625 18.8125 39.015625 
Q 14.890625 38.140625 10.796875 36.28125 
z
" id="DejaVuSans-53"/>
      </defs>
      <g transform="translate(203.654911 378.925937)scale(0.1 -0.1)">
       <use xlink:href="#DejaVuSans-49"/>
       <use x="63.623047" xlink:href="#DejaVuSans-46"/>
       <use x="95.410156" xlink:href="#DejaVuSans-50"/>
       <use x="159.033203" xlink:href="#DejaVuSans-53"/>
      </g>
     </g>
    </g>
    <g id="xtick_3">
     <g id="line2d_3">
      <g>
       <use style="stroke:#000000;stroke-width:0.8;" x="281.216295" xlink:href="#m91048d54a0" y="364.3275"/>
      </g>
     </g>
     <g id="text_3">
      <!-- 1.50 -->
      <g transform="translate(270.083482 378.925937)scale(0.1 -0.1)">
       <use xlink:href="#DejaVuSans-49"/>
       <use x="63.623047" xlink:href="#DejaVuSans-46"/>
       <use x="95.410156" xlink:href="#DejaVuSans-53"/>
       <use x="159.033203" xlink:href="#DejaVuSans-48"/>
      </g>
     </g>
    </g>
    <g id="xtick_4">
     <g id="line2d_4">
      <g>
       <use style="stroke:#000000;stroke-width:0.8;" x="347.644866" xlink:href="#m91048d54a0" y="364.3275"/>
      </g>
     </g>
     <g id="text_4">
      <!-- 1.75 -->
      <defs>
       <path d="M 8.203125 72.90625 
L 55.078125 72.90625 
L 55.078125 68.703125 
L 28.609375 0 
L 18.3125 0 
L 43.21875 64.59375 
L 8.203125 64.59375 
z
" id="DejaVuSans-55"/>
      </defs>
      <g transform="translate(336.512054 378.925937)scale(0.1 -0.1)">
       <use xlink:href="#DejaVuSans-49"/>
       <use x="63.623047" xlink:href="#DejaVuSans-46"/>
       <use x="95.410156" xlink:href="#DejaVuSans-55"/>
       <use x="159.033203" xlink:href="#DejaVuSans-53"/>
      </g>
     </g>
    </g>
    <g id="xtick_5">
     <g id="line2d_5">
      <g>
       <use style="stroke:#000000;stroke-width:0.8;" x="414.073438" xlink:href="#m91048d54a0" y="364.3275"/>
      </g>
     </g>
     <g id="text_5">
      <!-- 2.00 -->
      <g transform="translate(402.940625 378.925937)scale(0.1 -0.1)">
       <use xlink:href="#DejaVuSans-50"/>
       <use x="63.623047" xlink:href="#DejaVuSans-46"/>
       <use x="95.410156" xlink:href="#DejaVuSans-48"/>
       <use x="159.033203" xlink:href="#DejaVuSans-48"/>
      </g>
     </g>
    </g>
    <g id="xtick_6">
     <g id="line2d_6">
      <g>
       <use style="stroke:#000000;stroke-width:0.8;" x="480.502009" xlink:href="#m91048d54a0" y="364.3275"/>
      </g>
     </g>
     <g id="text_6">
      <!-- 2.25 -->
      <g transform="translate(469.369196 378.925937)scale(0.1 -0.1)">
       <use xlink:href="#DejaVuSans-50"/>
       <use x="63.623047" xlink:href="#DejaVuSans-46"/>
       <use x="95.410156" xlink:href="#DejaVuSans-50"/>
       <use x="159.033203" xlink:href="#DejaVuSans-53"/>
      </g>
     </g>
    </g>
    <g id="xtick_7">
     <g id="line2d_7">
      <g>
       <use style="stroke:#000000;stroke-width:0.8;" x="546.93058" xlink:href="#m91048d54a0" y="364.3275"/>
      </g>
     </g>
     <g id="text_7">
      <!-- 2.50 -->
      <g transform="translate(535.797768 378.925937)scale(0.1 -0.1)">
       <use xlink:href="#DejaVuSans-50"/>
       <use x="63.623047" xlink:href="#DejaVuSans-46"/>
       <use x="95.410156" xlink:href="#DejaVuSans-53"/>
       <use x="159.033203" xlink:href="#DejaVuSans-48"/>
      </g>
     </g>
    </g>
    <g id="xtick_8">
     <g id="line2d_8">
      <g>
       <use style="stroke:#000000;stroke-width:0.8;" x="613.359152" xlink:href="#m91048d54a0" y="364.3275"/>
      </g>
     </g>
     <g id="text_8">
      <!-- 2.75 -->
      <g transform="translate(602.226339 378.925937)scale(0.1 -0.1)">
       <use xlink:href="#DejaVuSans-50"/>
       <use x="63.623047" xlink:href="#DejaVuSans-46"/>
       <use x="95.410156" xlink:href="#DejaVuSans-55"/>
       <use x="159.033203" xlink:href="#DejaVuSans-53"/>
      </g>
     </g>
    </g>
    <g id="xtick_9">
     <g id="line2d_9">
      <g>
       <use style="stroke:#000000;stroke-width:0.8;" x="679.787723" xlink:href="#m91048d54a0" y="364.3275"/>
      </g>
     </g>
     <g id="text_9">
      <!-- 3.00 -->
      <defs>
       <path d="M 40.578125 39.3125 
Q 47.65625 37.796875 51.625 33 
Q 55.609375 28.21875 55.609375 21.1875 
Q 55.609375 10.40625 48.1875 4.484375 
Q 40.765625 -1.421875 27.09375 -1.421875 
Q 22.515625 -1.421875 17.65625 -0.515625 
Q 12.796875 0.390625 7.625 2.203125 
L 7.625 11.71875 
Q 11.71875 9.328125 16.59375 8.109375 
Q 21.484375 6.890625 26.8125 6.890625 
Q 36.078125 6.890625 40.9375 10.546875 
Q 45.796875 14.203125 45.796875 21.1875 
Q 45.796875 27.640625 41.28125 31.265625 
Q 36.765625 34.90625 28.71875 34.90625 
L 20.21875 34.90625 
L 20.21875 43.015625 
L 29.109375 43.015625 
Q 36.375 43.015625 40.234375 45.921875 
Q 44.09375 48.828125 44.09375 54.296875 
Q 44.09375 59.90625 40.109375 62.90625 
Q 36.140625 65.921875 28.71875 65.921875 
Q 24.65625 65.921875 20.015625 65.03125 
Q 15.375 64.15625 9.8125 62.3125 
L 9.8125 71.09375 
Q 15.4375 72.65625 20.34375 73.4375 
Q 25.25 74.21875 29.59375 74.21875 
Q 40.828125 74.21875 47.359375 69.109375 
Q 53.90625 64.015625 53.90625 55.328125 
Q 53.90625 49.265625 50.4375 45.09375 
Q 46.96875 40.921875 40.578125 39.3125 
z
" id="DejaVuSans-51"/>
      </defs>
      <g transform="translate(668.654911 378.925937)scale(0.1 -0.1)">
       <use xlink:href="#DejaVuSans-51"/>
       <use x="63.623047" xlink:href="#DejaVuSans-46"/>
       <use x="95.410156" xlink:href="#DejaVuSans-48"/>
       <use x="159.033203" xlink:href="#DejaVuSans-48"/>
      </g>
     </g>
    </g>
    <g id="text_10">
     <!-- Índice socioeconómico -->
     <defs>
      <path d="M 9.8125 72.90625 
L 19.671875 72.90625 
L 19.671875 0 
L 9.8125 0 
z
M 17.484375 92.734375 
L 26.515625 92.734375 
L 15.375 79.84375 
L 7.90625 79.84375 
z
" id="DejaVuSans-205"/>
      <path d="M 54.890625 33.015625 
L 54.890625 0 
L 45.90625 0 
L 45.90625 32.71875 
Q 45.90625 40.484375 42.875 44.328125 
Q 39.84375 48.1875 33.796875 48.1875 
Q 26.515625 48.1875 22.3125 43.546875 
Q 18.109375 38.921875 18.109375 30.90625 
L 18.109375 0 
L 9.078125 0 
L 9.078125 54.6875 
L 18.109375 54.6875 
L 18.109375 46.1875 
Q 21.34375 51.125 25.703125 53.5625 
Q 30.078125 56 35.796875 56 
Q 45.21875 56 50.046875 50.171875 
Q 54.890625 44.34375 54.890625 33.015625 
z
" id="DejaVuSans-110"/>
      <path d="M 45.40625 46.390625 
L 45.40625 75.984375 
L 54.390625 75.984375 
L 54.390625 0 
L 45.40625 0 
L 45.40625 8.203125 
Q 42.578125 3.328125 38.25 0.953125 
Q 33.9375 -1.421875 27.875 -1.421875 
Q 17.96875 -1.421875 11.734375 6.484375 
Q 5.515625 14.40625 5.515625 27.296875 
Q 5.515625 40.1875 11.734375 48.09375 
Q 17.96875 56 27.875 56 
Q 33.9375 56 38.25 53.625 
Q 42.578125 51.265625 45.40625 46.390625 
z
M 14.796875 27.296875 
Q 14.796875 17.390625 18.875 11.75 
Q 22.953125 6.109375 30.078125 6.109375 
Q 37.203125 6.109375 41.296875 11.75 
Q 45.40625 17.390625 45.40625 27.296875 
Q 45.40625 37.203125 41.296875 42.84375 
Q 37.203125 48.484375 30.078125 48.484375 
Q 22.953125 48.484375 18.875 42.84375 
Q 14.796875 37.203125 14.796875 27.296875 
z
" id="DejaVuSans-100"/>
      <path d="M 9.421875 54.6875 
L 18.40625 54.6875 
L 18.40625 0 
L 9.421875 0 
z
M 9.421875 75.984375 
L 18.40625 75.984375 
L 18.40625 64.59375 
L 9.421875 64.59375 
z
" id="DejaVuSans-105"/>
      <path d="M 48.78125 52.59375 
L 48.78125 44.1875 
Q 44.96875 46.296875 41.140625 47.34375 
Q 37.3125 48.390625 33.40625 48.390625 
Q 24.65625 48.390625 19.8125 42.84375 
Q 14.984375 37.3125 14.984375 27.296875 
Q 14.984375 17.28125 19.8125 11.734375 
Q 24.65625 6.203125 33.40625 6.203125 
Q 37.3125 6.203125 41.140625 7.25 
Q 44.96875 8.296875 48.78125 10.40625 
L 48.78125 2.09375 
Q 45.015625 0.34375 40.984375 -0.53125 
Q 36.96875 -1.421875 32.421875 -1.421875 
Q 20.0625 -1.421875 12.78125 6.34375 
Q 5.515625 14.109375 5.515625 27.296875 
Q 5.515625 40.671875 12.859375 48.328125 
Q 20.21875 56 33.015625 56 
Q 37.15625 56 41.109375 55.140625 
Q 45.0625 54.296875 48.78125 52.59375 
z
" id="DejaVuSans-99"/>
      <path d="M 56.203125 29.59375 
L 56.203125 25.203125 
L 14.890625 25.203125 
Q 15.484375 15.921875 20.484375 11.0625 
Q 25.484375 6.203125 34.421875 6.203125 
Q 39.59375 6.203125 44.453125 7.46875 
Q 49.3125 8.734375 54.109375 11.28125 
L 54.109375 2.78125 
Q 49.265625 0.734375 44.1875 -0.34375 
Q 39.109375 -1.421875 33.890625 -1.421875 
Q 20.796875 -1.421875 13.15625 6.1875 
Q 5.515625 13.8125 5.515625 26.8125 
Q 5.515625 40.234375 12.765625 48.109375 
Q 20.015625 56 32.328125 56 
Q 43.359375 56 49.78125 48.890625 
Q 56.203125 41.796875 56.203125 29.59375 
z
M 47.21875 32.234375 
Q 47.125 39.59375 43.09375 43.984375 
Q 39.0625 48.390625 32.421875 48.390625 
Q 24.90625 48.390625 20.390625 44.140625 
Q 15.875 39.890625 15.1875 32.171875 
z
" id="DejaVuSans-101"/>
      <path id="DejaVuSans-32"/>
      <path d="M 44.28125 53.078125 
L 44.28125 44.578125 
Q 40.484375 46.53125 36.375 47.5 
Q 32.28125 48.484375 27.875 48.484375 
Q 21.1875 48.484375 17.84375 46.4375 
Q 14.5 44.390625 14.5 40.28125 
Q 14.5 37.15625 16.890625 35.375 
Q 19.28125 33.59375 26.515625 31.984375 
L 29.59375 31.296875 
Q 39.15625 29.25 43.1875 25.515625 
Q 47.21875 21.78125 47.21875 15.09375 
Q 47.21875 7.46875 41.1875 3.015625 
Q 35.15625 -1.421875 24.609375 -1.421875 
Q 20.21875 -1.421875 15.453125 -0.5625 
Q 10.6875 0.296875 5.421875 2 
L 5.421875 11.28125 
Q 10.40625 8.6875 15.234375 7.390625 
Q 20.0625 6.109375 24.8125 6.109375 
Q 31.15625 6.109375 34.5625 8.28125 
Q 37.984375 10.453125 37.984375 14.40625 
Q 37.984375 18.0625 35.515625 20.015625 
Q 33.0625 21.96875 24.703125 23.78125 
L 21.578125 24.515625 
Q 13.234375 26.265625 9.515625 29.90625 
Q 5.8125 33.546875 5.8125 39.890625 
Q 5.8125 47.609375 11.28125 51.796875 
Q 16.75 56 26.8125 56 
Q 31.78125 56 36.171875 55.265625 
Q 40.578125 54.546875 44.28125 53.078125 
z
" id="DejaVuSans-115"/>
      <path d="M 30.609375 48.390625 
Q 23.390625 48.390625 19.1875 42.75 
Q 14.984375 37.109375 14.984375 27.296875 
Q 14.984375 17.484375 19.15625 11.84375 
Q 23.34375 6.203125 30.609375 6.203125 
Q 37.796875 6.203125 41.984375 11.859375 
Q 46.1875 17.53125 46.1875 27.296875 
Q 46.1875 37.015625 41.984375 42.703125 
Q 37.796875 48.390625 30.609375 48.390625 
z
M 30.609375 56 
Q 42.328125 56 49.015625 48.375 
Q 55.71875 40.765625 55.71875 27.296875 
Q 55.71875 13.875 49.015625 6.21875 
Q 42.328125 -1.421875 30.609375 -1.421875 
Q 18.84375 -1.421875 12.171875 6.21875 
Q 5.515625 13.875 5.515625 27.296875 
Q 5.515625 40.765625 12.171875 48.375 
Q 18.84375 56 30.609375 56 
z
" id="DejaVuSans-111"/>
      <path d="M 30.609375 48.390625 
Q 23.390625 48.390625 19.1875 42.75 
Q 14.984375 37.109375 14.984375 27.296875 
Q 14.984375 17.484375 19.15625 11.84375 
Q 23.34375 6.203125 30.609375 6.203125 
Q 37.796875 6.203125 41.984375 11.859375 
Q 46.1875 17.53125 46.1875 27.296875 
Q 46.1875 37.015625 41.984375 42.703125 
Q 37.796875 48.390625 30.609375 48.390625 
z
M 30.609375 56 
Q 42.328125 56 49.015625 48.375 
Q 55.71875 40.765625 55.71875 27.296875 
Q 55.71875 13.875 49.015625 6.21875 
Q 42.328125 -1.421875 30.609375 -1.421875 
Q 18.84375 -1.421875 12.171875 6.21875 
Q 5.515625 13.875 5.515625 27.296875 
Q 5.515625 40.765625 12.171875 48.375 
Q 18.84375 56 30.609375 56 
z
M 37.40625 79.984375 
L 47.125 79.984375 
L 31.203125 61.625 
L 23.734375 61.625 
z
" id="DejaVuSans-243"/>
      <path d="M 52 44.1875 
Q 55.375 50.25 60.0625 53.125 
Q 64.75 56 71.09375 56 
Q 79.640625 56 84.28125 50.015625 
Q 88.921875 44.046875 88.921875 33.015625 
L 88.921875 0 
L 79.890625 0 
L 79.890625 32.71875 
Q 79.890625 40.578125 77.09375 44.375 
Q 74.3125 48.1875 68.609375 48.1875 
Q 61.625 48.1875 57.5625 43.546875 
Q 53.515625 38.921875 53.515625 30.90625 
L 53.515625 0 
L 44.484375 0 
L 44.484375 32.71875 
Q 44.484375 40.625 41.703125 44.40625 
Q 38.921875 48.1875 33.109375 48.1875 
Q 26.21875 48.1875 22.15625 43.53125 
Q 18.109375 38.875 18.109375 30.90625 
L 18.109375 0 
L 9.078125 0 
L 9.078125 54.6875 
L 18.109375 54.6875 
L 18.109375 46.1875 
Q 21.1875 51.21875 25.484375 53.609375 
Q 29.78125 56 35.6875 56 
Q 41.65625 56 45.828125 52.96875 
Q 50 49.953125 52 44.1875 
z
" id="DejaVuSans-109"/>
     </defs>
     <g transform="translate(357.408594 392.604062)scale(0.1 -0.1)">
      <use xlink:href="#DejaVuSans-205"/>
      <use x="29.492188" xlink:href="#DejaVuSans-110"/>
      <use x="92.871094" xlink:href="#DejaVuSans-100"/>
      <use x="156.347656" xlink:href="#DejaVuSans-105"/>
      <use x="184.130859" xlink:href="#DejaVuSans-99"/>
      <use x="239.111328" xlink:href="#DejaVuSans-101"/>
      <use x="300.634766" xlink:href="#DejaVuSans-32"/>
      <use x="332.421875" xlink:href="#DejaVuSans-115"/>
      <use x="384.521484" xlink:href="#DejaVuSans-111"/>
      <use x="445.703125" xlink:href="#DejaVuSans-99"/>
      <use x="500.683594" xlink:href="#DejaVuSans-105"/>
      <use x="528.466797" xlink:href="#DejaVuSans-111"/>
      <use x="589.648438" xlink:href="#DejaVuSans-101"/>
      <use x="651.171875" xlink:href="#DejaVuSans-99"/>
      <use x="706.152344" xlink:href="#DejaVuSans-111"/>
      <use x="767.333984" xlink:href="#DejaVuSans-110"/>
      <use x="830.712891" xlink:href="#DejaVuSans-243"/>
      <use x="891.894531" xlink:href="#DejaVuSans-109"/>
      <use x="989.306641" xlink:href="#DejaVuSans-105"/>
      <use x="1017.089844" xlink:href="#DejaVuSans-99"/>
      <use x="1072.070312" xlink:href="#DejaVuSans-111"/>
     </g>
    </g>
   </g>
   <g id="matplotlib.axis_2">
    <g id="ytick_1">
     <g id="line2d_10">
      <defs>
       <path d="M 0 0 
L -3.5 0 
" id="m095d6959a9" style="stroke:#000000;stroke-width:0.8;"/>
      </defs>
      <g>
       <use style="stroke:#000000;stroke-width:0.8;" x="135.073438" xlink:href="#m095d6959a9" y="78.9375"/>
      </g>
     </g>
     <g id="text_11">
      <!-- Avanzado -->
      <defs>
       <path d="M 34.1875 63.1875 
L 20.796875 26.90625 
L 47.609375 26.90625 
z
M 28.609375 72.90625 
L 39.796875 72.90625 
L 67.578125 0 
L 57.328125 0 
L 50.6875 18.703125 
L 17.828125 18.703125 
L 11.1875 0 
L 0.78125 0 
z
" id="DejaVuSans-65"/>
       <path d="M 2.984375 54.6875 
L 12.5 54.6875 
L 29.59375 8.796875 
L 46.6875 54.6875 
L 56.203125 54.6875 
L 35.6875 0 
L 23.484375 0 
z
" id="DejaVuSans-118"/>
       <path d="M 34.28125 27.484375 
Q 23.390625 27.484375 19.1875 25 
Q 14.984375 22.515625 14.984375 16.5 
Q 14.984375 11.71875 18.140625 8.90625 
Q 21.296875 6.109375 26.703125 6.109375 
Q 34.1875 6.109375 38.703125 11.40625 
Q 43.21875 16.703125 43.21875 25.484375 
L 43.21875 27.484375 
z
M 52.203125 31.203125 
L 52.203125 0 
L 43.21875 0 
L 43.21875 8.296875 
Q 40.140625 3.328125 35.546875 0.953125 
Q 30.953125 -1.421875 24.3125 -1.421875 
Q 15.921875 -1.421875 10.953125 3.296875 
Q 6 8.015625 6 15.921875 
Q 6 25.140625 12.171875 29.828125 
Q 18.359375 34.515625 30.609375 34.515625 
L 43.21875 34.515625 
L 43.21875 35.40625 
Q 43.21875 41.609375 39.140625 45 
Q 35.0625 48.390625 27.6875 48.390625 
Q 23 48.390625 18.546875 47.265625 
Q 14.109375 46.140625 10.015625 43.890625 
L 10.015625 52.203125 
Q 14.9375 54.109375 19.578125 55.046875 
Q 24.21875 56 28.609375 56 
Q 40.484375 56 46.34375 49.84375 
Q 52.203125 43.703125 52.203125 31.203125 
z
" id="DejaVuSans-97"/>
       <path d="M 5.515625 54.6875 
L 48.1875 54.6875 
L 48.1875 46.484375 
L 14.40625 7.171875 
L 48.1875 7.171875 
L 48.1875 0 
L 4.296875 0 
L 4.296875 8.203125 
L 38.09375 47.515625 
L 5.515625 47.515625 
z
" id="DejaVuSans-122"/>
      </defs>
      <g transform="translate(79.0125 82.736719)scale(0.1 -0.1)">
       <use xlink:href="#DejaVuSans-65"/>
       <use x="68.330078" xlink:href="#DejaVuSans-118"/>
       <use x="127.509766" xlink:href="#DejaVuSans-97"/>
       <use x="188.789062" xlink:href="#DejaVuSans-110"/>
       <use x="252.167969" xlink:href="#DejaVuSans-122"/>
       <use x="304.658203" xlink:href="#DejaVuSans-97"/>
       <use x="365.9375" xlink:href="#DejaVuSans-100"/>
       <use x="429.414062" xlink:href="#DejaVuSans-111"/>
      </g>
     </g>
    </g>
    <g id="ytick_2">
     <g id="line2d_11">
      <g>
       <use style="stroke:#000000;stroke-width:0.8;" x="135.073438" xlink:href="#m095d6959a9" y="160.4775"/>
      </g>
     </g>
     <g id="text_12">
      <!-- Satisfactorio -->
      <defs>
       <path d="M 53.515625 70.515625 
L 53.515625 60.890625 
Q 47.90625 63.578125 42.921875 64.890625 
Q 37.9375 66.21875 33.296875 66.21875 
Q 25.25 66.21875 20.875 63.09375 
Q 16.5 59.96875 16.5 54.203125 
Q 16.5 49.359375 19.40625 46.890625 
Q 22.3125 44.4375 30.421875 42.921875 
L 36.375 41.703125 
Q 47.40625 39.59375 52.65625 34.296875 
Q 57.90625 29 57.90625 20.125 
Q 57.90625 9.515625 50.796875 4.046875 
Q 43.703125 -1.421875 29.984375 -1.421875 
Q 24.8125 -1.421875 18.96875 -0.25 
Q 13.140625 0.921875 6.890625 3.21875 
L 6.890625 13.375 
Q 12.890625 10.015625 18.65625 8.296875 
Q 24.421875 6.59375 29.984375 6.59375 
Q 38.421875 6.59375 43.015625 9.90625 
Q 47.609375 13.234375 47.609375 19.390625 
Q 47.609375 24.75 44.3125 27.78125 
Q 41.015625 30.8125 33.5 32.328125 
L 27.484375 33.5 
Q 16.453125 35.6875 11.515625 40.375 
Q 6.59375 45.0625 6.59375 53.421875 
Q 6.59375 63.09375 13.40625 68.65625 
Q 20.21875 74.21875 32.171875 74.21875 
Q 37.3125 74.21875 42.625 73.28125 
Q 47.953125 72.359375 53.515625 70.515625 
z
" id="DejaVuSans-83"/>
       <path d="M 18.3125 70.21875 
L 18.3125 54.6875 
L 36.8125 54.6875 
L 36.8125 47.703125 
L 18.3125 47.703125 
L 18.3125 18.015625 
Q 18.3125 11.328125 20.140625 9.421875 
Q 21.96875 7.515625 27.59375 7.515625 
L 36.8125 7.515625 
L 36.8125 0 
L 27.59375 0 
Q 17.1875 0 13.234375 3.875 
Q 9.28125 7.765625 9.28125 18.015625 
L 9.28125 47.703125 
L 2.6875 47.703125 
L 2.6875 54.6875 
L 9.28125 54.6875 
L 9.28125 70.21875 
z
" id="DejaVuSans-116"/>
       <path d="M 37.109375 75.984375 
L 37.109375 68.5 
L 28.515625 68.5 
Q 23.6875 68.5 21.796875 66.546875 
Q 19.921875 64.59375 19.921875 59.515625 
L 19.921875 54.6875 
L 34.71875 54.6875 
L 34.71875 47.703125 
L 19.921875 47.703125 
L 19.921875 0 
L 10.890625 0 
L 10.890625 47.703125 
L 2.296875 47.703125 
L 2.296875 54.6875 
L 10.890625 54.6875 
L 10.890625 58.5 
Q 10.890625 67.625 15.140625 71.796875 
Q 19.390625 75.984375 28.609375 75.984375 
z
" id="DejaVuSans-102"/>
       <path d="M 41.109375 46.296875 
Q 39.59375 47.171875 37.8125 47.578125 
Q 36.03125 48 33.890625 48 
Q 26.265625 48 22.1875 43.046875 
Q 18.109375 38.09375 18.109375 28.8125 
L 18.109375 0 
L 9.078125 0 
L 9.078125 54.6875 
L 18.109375 54.6875 
L 18.109375 46.1875 
Q 20.953125 51.171875 25.484375 53.578125 
Q 30.03125 56 36.53125 56 
Q 37.453125 56 38.578125 55.875 
Q 39.703125 55.765625 41.0625 55.515625 
z
" id="DejaVuSans-114"/>
      </defs>
      <g transform="translate(65.495313 164.276719)scale(0.1 -0.1)">
       <use xlink:href="#DejaVuSans-83"/>
       <use x="63.476562" xlink:href="#DejaVuSans-97"/>
       <use x="124.755859" xlink:href="#DejaVuSans-116"/>
       <use x="163.964844" xlink:href="#DejaVuSans-105"/>
       <use x="191.748047" xlink:href="#DejaVuSans-115"/>
       <use x="243.847656" xlink:href="#DejaVuSans-102"/>
       <use x="279.052734" xlink:href="#DejaVuSans-97"/>
       <use x="340.332031" xlink:href="#DejaVuSans-99"/>
       <use x="395.3125" xlink:href="#DejaVuSans-116"/>
       <use x="434.521484" xlink:href="#DejaVuSans-111"/>
       <use x="495.703125" xlink:href="#DejaVuSans-114"/>
       <use x="536.816406" xlink:href="#DejaVuSans-105"/>
       <use x="564.599609" xlink:href="#DejaVuSans-111"/>
      </g>
     </g>
    </g>
    <g id="ytick_3">
     <g id="line2d_12">
      <g>
       <use style="stroke:#000000;stroke-width:0.8;" x="135.073438" xlink:href="#m095d6959a9" y="242.0175"/>
      </g>
     </g>
     <g id="text_13">
      <!-- Básico -->
      <defs>
       <path d="M 19.671875 34.8125 
L 19.671875 8.109375 
L 35.5 8.109375 
Q 43.453125 8.109375 47.28125 11.40625 
Q 51.125 14.703125 51.125 21.484375 
Q 51.125 28.328125 47.28125 31.5625 
Q 43.453125 34.8125 35.5 34.8125 
z
M 19.671875 64.796875 
L 19.671875 42.828125 
L 34.28125 42.828125 
Q 41.5 42.828125 45.03125 45.53125 
Q 48.578125 48.25 48.578125 53.8125 
Q 48.578125 59.328125 45.03125 62.0625 
Q 41.5 64.796875 34.28125 64.796875 
z
M 9.8125 72.90625 
L 35.015625 72.90625 
Q 46.296875 72.90625 52.390625 68.21875 
Q 58.5 63.53125 58.5 54.890625 
Q 58.5 48.1875 55.375 44.234375 
Q 52.25 40.28125 46.1875 39.3125 
Q 53.46875 37.75 57.5 32.78125 
Q 61.53125 27.828125 61.53125 20.40625 
Q 61.53125 10.640625 54.890625 5.3125 
Q 48.25 0 35.984375 0 
L 9.8125 0 
z
" id="DejaVuSans-66"/>
       <path d="M 34.28125 27.484375 
Q 23.390625 27.484375 19.1875 25 
Q 14.984375 22.515625 14.984375 16.5 
Q 14.984375 11.71875 18.140625 8.90625 
Q 21.296875 6.109375 26.703125 6.109375 
Q 34.1875 6.109375 38.703125 11.40625 
Q 43.21875 16.703125 43.21875 25.484375 
L 43.21875 27.484375 
z
M 52.203125 31.203125 
L 52.203125 0 
L 43.21875 0 
L 43.21875 8.296875 
Q 40.140625 3.328125 35.546875 0.953125 
Q 30.953125 -1.421875 24.3125 -1.421875 
Q 15.921875 -1.421875 10.953125 3.296875 
Q 6 8.015625 6 15.921875 
Q 6 25.140625 12.171875 29.828125 
Q 18.359375 34.515625 30.609375 34.515625 
L 43.21875 34.515625 
L 43.21875 35.40625 
Q 43.21875 41.609375 39.140625 45 
Q 35.0625 48.390625 27.6875 48.390625 
Q 23 48.390625 18.546875 47.265625 
Q 14.109375 46.140625 10.015625 43.890625 
L 10.015625 52.203125 
Q 14.9375 54.109375 19.578125 55.046875 
Q 24.21875 56 28.609375 56 
Q 40.484375 56 46.34375 49.84375 
Q 52.203125 43.703125 52.203125 31.203125 
z
M 35.796875 79.984375 
L 45.515625 79.984375 
L 29.59375 61.625 
L 22.125 61.625 
z
" id="DejaVuSans-225"/>
      </defs>
      <g transform="translate(95.479688 245.816719)scale(0.1 -0.1)">
       <use xlink:href="#DejaVuSans-66"/>
       <use x="68.603516" xlink:href="#DejaVuSans-225"/>
       <use x="129.882812" xlink:href="#DejaVuSans-115"/>
       <use x="181.982422" xlink:href="#DejaVuSans-105"/>
       <use x="209.765625" xlink:href="#DejaVuSans-99"/>
       <use x="264.746094" xlink:href="#DejaVuSans-111"/>
      </g>
     </g>
    </g>
    <g id="ytick_4">
     <g id="line2d_13">
      <g>
       <use style="stroke:#000000;stroke-width:0.8;" x="135.073438" xlink:href="#m095d6959a9" y="323.5575"/>
      </g>
     </g>
     <g id="text_14">
      <!-- Por debajo del básico -->
      <defs>
       <path d="M 19.671875 64.796875 
L 19.671875 37.40625 
L 32.078125 37.40625 
Q 38.96875 37.40625 42.71875 40.96875 
Q 46.484375 44.53125 46.484375 51.125 
Q 46.484375 57.671875 42.71875 61.234375 
Q 38.96875 64.796875 32.078125 64.796875 
z
M 9.8125 72.90625 
L 32.078125 72.90625 
Q 44.34375 72.90625 50.609375 67.359375 
Q 56.890625 61.8125 56.890625 51.125 
Q 56.890625 40.328125 50.609375 34.8125 
Q 44.34375 29.296875 32.078125 29.296875 
L 19.671875 29.296875 
L 19.671875 0 
L 9.8125 0 
z
" id="DejaVuSans-80"/>
       <path d="M 48.6875 27.296875 
Q 48.6875 37.203125 44.609375 42.84375 
Q 40.53125 48.484375 33.40625 48.484375 
Q 26.265625 48.484375 22.1875 42.84375 
Q 18.109375 37.203125 18.109375 27.296875 
Q 18.109375 17.390625 22.1875 11.75 
Q 26.265625 6.109375 33.40625 6.109375 
Q 40.53125 6.109375 44.609375 11.75 
Q 48.6875 17.390625 48.6875 27.296875 
z
M 18.109375 46.390625 
Q 20.953125 51.265625 25.265625 53.625 
Q 29.59375 56 35.59375 56 
Q 45.5625 56 51.78125 48.09375 
Q 58.015625 40.1875 58.015625 27.296875 
Q 58.015625 14.40625 51.78125 6.484375 
Q 45.5625 -1.421875 35.59375 -1.421875 
Q 29.59375 -1.421875 25.265625 0.953125 
Q 20.953125 3.328125 18.109375 8.203125 
L 18.109375 0 
L 9.078125 0 
L 9.078125 75.984375 
L 18.109375 75.984375 
z
" id="DejaVuSans-98"/>
       <path d="M 9.421875 54.6875 
L 18.40625 54.6875 
L 18.40625 -0.984375 
Q 18.40625 -11.421875 14.421875 -16.109375 
Q 10.453125 -20.796875 1.609375 -20.796875 
L -1.8125 -20.796875 
L -1.8125 -13.1875 
L 0.59375 -13.1875 
Q 5.71875 -13.1875 7.5625 -10.8125 
Q 9.421875 -8.453125 9.421875 -0.984375 
z
M 9.421875 75.984375 
L 18.40625 75.984375 
L 18.40625 64.59375 
L 9.421875 64.59375 
z
" id="DejaVuSans-106"/>
       <path d="M 9.421875 75.984375 
L 18.40625 75.984375 
L 18.40625 0 
L 9.421875 0 
z
" id="DejaVuSans-108"/>
      </defs>
      <g transform="translate(21.048438 327.556719)scale(0.1 -0.1)">
       <use xlink:href="#DejaVuSans-80"/>
       <use x="60.255859" xlink:href="#DejaVuSans-111"/>
       <use x="121.4375" xlink:href="#DejaVuSans-114"/>
       <use x="162.550781" xlink:href="#DejaVuSans-32"/>
       <use x="194.337891" xlink:href="#DejaVuSans-100"/>
       <use x="257.814453" xlink:href="#DejaVuSans-101"/>
       <use x="319.337891" xlink:href="#DejaVuSans-98"/>
       <use x="382.814453" xlink:href="#DejaVuSans-97"/>
       <use x="444.09375" xlink:href="#DejaVuSans-106"/>
       <use x="471.876953" xlink:href="#DejaVuSans-111"/>
       <use x="533.058594" xlink:href="#DejaVuSans-32"/>
       <use x="564.845703" xlink:href="#DejaVuSans-100"/>
       <use x="628.322266" xlink:href="#DejaVuSans-101"/>
       <use x="689.845703" xlink:href="#DejaVuSans-108"/>
       <use x="717.628906" xlink:href="#DejaVuSans-32"/>
       <use x="749.416016" xlink:href="#DejaVuSans-98"/>
       <use x="812.892578" xlink:href="#DejaVuSans-225"/>
       <use x="874.171875" xlink:href="#DejaVuSans-115"/>
       <use x="926.271484" xlink:href="#DejaVuSans-105"/>
       <use x="954.054688" xlink:href="#DejaVuSans-99"/>
       <use x="1009.035156" xlink:href="#DejaVuSans-111"/>
      </g>
     </g>
    </g>
    <g id="text_15">
     <!-- Nivel de desempeño en sociales -->
     <defs>
      <path d="M 9.8125 72.90625 
L 23.09375 72.90625 
L 55.421875 11.921875 
L 55.421875 72.90625 
L 64.984375 72.90625 
L 64.984375 0 
L 51.703125 0 
L 19.390625 60.984375 
L 19.390625 0 
L 9.8125 0 
z
" id="DejaVuSans-78"/>
      <path d="M 18.109375 8.203125 
L 18.109375 -20.796875 
L 9.078125 -20.796875 
L 9.078125 54.6875 
L 18.109375 54.6875 
L 18.109375 46.390625 
Q 20.953125 51.265625 25.265625 53.625 
Q 29.59375 56 35.59375 56 
Q 45.5625 56 51.78125 48.09375 
Q 58.015625 40.1875 58.015625 27.296875 
Q 58.015625 14.40625 51.78125 6.484375 
Q 45.5625 -1.421875 35.59375 -1.421875 
Q 29.59375 -1.421875 25.265625 0.953125 
Q 20.953125 3.328125 18.109375 8.203125 
z
M 48.6875 27.296875 
Q 48.6875 37.203125 44.609375 42.84375 
Q 40.53125 48.484375 33.40625 48.484375 
Q 26.265625 48.484375 22.1875 42.84375 
Q 18.109375 37.203125 18.109375 27.296875 
Q 18.109375 17.390625 22.1875 11.75 
Q 26.265625 6.109375 33.40625 6.109375 
Q 40.53125 6.109375 44.609375 11.75 
Q 48.6875 17.390625 48.6875 27.296875 
z
" id="DejaVuSans-112"/>
      <path d="M 54.890625 33.015625 
L 54.890625 0 
L 45.90625 0 
L 45.90625 32.71875 
Q 45.90625 40.484375 42.875 44.328125 
Q 39.84375 48.1875 33.796875 48.1875 
Q 26.515625 48.1875 22.3125 43.546875 
Q 18.109375 38.921875 18.109375 30.90625 
L 18.109375 0 
L 9.078125 0 
L 9.078125 54.6875 
L 18.109375 54.6875 
L 18.109375 46.1875 
Q 21.34375 51.125 25.703125 53.5625 
Q 30.078125 56 35.796875 56 
Q 45.21875 56 50.046875 50.171875 
Q 54.890625 44.34375 54.890625 33.015625 
z
M 32.234375 66.890625 
L 29.4375 69.578125 
Q 28.375 70.5625 27.5625 71.015625 
Q 26.765625 71.484375 26.125 71.484375 
Q 24.265625 71.484375 23.390625 69.703125 
Q 22.515625 67.921875 22.40625 63.921875 
L 16.3125 63.921875 
Q 16.40625 70.515625 18.890625 74.09375 
Q 21.390625 77.6875 25.828125 77.6875 
Q 27.6875 77.6875 29.25 77 
Q 30.8125 76.3125 32.625 74.703125 
L 35.40625 72.015625 
Q 36.46875 71.046875 37.28125 70.578125 
Q 38.09375 70.125 38.71875 70.125 
Q 40.578125 70.125 41.453125 71.90625 
Q 42.328125 73.6875 42.4375 77.6875 
L 48.53125 77.6875 
Q 48.4375 71.09375 45.9375 67.5 
Q 43.453125 63.921875 39.015625 63.921875 
Q 37.15625 63.921875 35.59375 64.59375 
Q 34.03125 65.28125 32.234375 66.890625 
z
" id="DejaVuSans-241"/>
     </defs>
     <g transform="translate(14.96875 281.8725)rotate(-90)scale(0.1 -0.1)">
      <use xlink:href="#DejaVuSans-78"/>
      <use x="74.804688" xlink:href="#DejaVuSans-105"/>
      <use x="102.587891" xlink:href="#DejaVuSans-118"/>
      <use x="161.767578" xlink:href="#DejaVuSans-101"/>
      <use x="223.291016" xlink:href="#DejaVuSans-108"/>
      <use x="251.074219" xlink:href="#DejaVuSans-32"/>
      <use x="282.861328" xlink:href="#DejaVuSans-100"/>
      <use x="346.337891" xlink:href="#DejaVuSans-101"/>
      <use x="407.861328" xlink:href="#DejaVuSans-32"/>
      <use x="439.648438" xlink:href="#DejaVuSans-100"/>
      <use x="503.125" xlink:href="#DejaVuSans-101"/>
      <use x="564.648438" xlink:href="#DejaVuSans-115"/>
      <use x="616.748047" xlink:href="#DejaVuSans-101"/>
      <use x="678.271484" xlink:href="#DejaVuSans-109"/>
      <use x="775.683594" xlink:href="#DejaVuSans-112"/>
      <use x="839.160156" xlink:href="#DejaVuSans-101"/>
      <use x="900.683594" xlink:href="#DejaVuSans-241"/>
      <use x="964.0625" xlink:href="#DejaVuSans-111"/>
      <use x="1025.244141" xlink:href="#DejaVuSans-32"/>
      <use x="1057.03125" xlink:href="#DejaVuSans-101"/>
      <use x="1118.554688" xlink:href="#DejaVuSans-110"/>
      <use x="1181.933594" xlink:href="#DejaVuSans-32"/>
      <use x="1213.720703" xlink:href="#DejaVuSans-115"/>
      <use x="1265.820312" xlink:href="#DejaVuSans-111"/>
      <use x="1327.001953" xlink:href="#DejaVuSans-99"/>
      <use x="1381.982422" xlink:href="#DejaVuSans-105"/>
      <use x="1409.765625" xlink:href="#DejaVuSans-97"/>
      <use x="1471.044922" xlink:href="#DejaVuSans-108"/>
      <use x="1498.828125" xlink:href="#DejaVuSans-101"/>
      <use x="1560.351562" xlink:href="#DejaVuSans-115"/>
     </g>
    </g>
   </g>
   <g id="line2d_14">
    <path clip-path="url(#pcb868a7b52)" d="M 220.826684 78.9375 
L 679.787723 78.9375 
" style="fill:none;stroke:#4c4c4c;stroke-linecap:square;stroke-width:1.5;"/>
   </g>
   <g id="line2d_15">
    <path clip-path="url(#pcb868a7b52)" d="M 396.188822 78.9375 
L 513.716295 78.9375 
" style="fill:none;stroke:#4c4c4c;stroke-linecap:square;stroke-width:4.5;"/>
   </g>
   <g id="line2d_16">
    <path clip-path="url(#pcb868a7b52)" d="M 203.716295 160.4775 
L 608.565337 160.4775 
" style="fill:none;stroke:#4c4c4c;stroke-linecap:square;stroke-width:1.5;"/>
   </g>
   <g id="line2d_17">
    <path clip-path="url(#pcb868a7b52)" d="M 354.73918 160.4775 
L 456.346165 160.4775 
" style="fill:none;stroke:#4c4c4c;stroke-linecap:square;stroke-width:4.5;"/>
   </g>
   <g id="line2d_18">
    <path clip-path="url(#pcb868a7b52)" d="M 189.238273 242.0175 
L 586.787723 242.0175 
" style="fill:none;stroke:#4c4c4c;stroke-linecap:square;stroke-width:1.5;"/>
   </g>
   <g id="line2d_19">
    <path clip-path="url(#pcb868a7b52)" d="M 338.15507 242.0175 
L 437.617741 242.0175 
" style="fill:none;stroke:#4c4c4c;stroke-linecap:square;stroke-width:4.5;"/>
   </g>
   <g id="line2d_20">
    <path clip-path="url(#pcb868a7b52)" d="M 183.787723 323.5575 
L 587.809701 323.5575 
" style="fill:none;stroke:#4c4c4c;stroke-linecap:square;stroke-width:1.5;"/>
   </g>
   <g id="line2d_21">
    <path clip-path="url(#pcb868a7b52)" d="M 335.129338 323.5575 
L 436.216295 323.5575 
" style="fill:none;stroke:#4c4c4c;stroke-linecap:square;stroke-width:4.5;"/>
   </g>
   <g id="patch_3">
    <path d="M 135.073438 364.3275 
L 135.073438 38.1675 
" style="fill:none;stroke:#000000;stroke-linecap:square;stroke-linejoin:miter;stroke-width:0.8;"/>
   </g>
   <g id="patch_4">
    <path d="M 693.073437 364.3275 
L 693.073437 38.1675 
" style="fill:none;stroke:#000000;stroke-linecap:square;stroke-linejoin:miter;stroke-width:0.8;"/>
   </g>
   <g id="patch_5">
    <path d="M 135.073438 364.3275 
L 693.073438 364.3275 
" style="fill:none;stroke:#000000;stroke-linecap:square;stroke-linejoin:miter;stroke-width:0.8;"/>
   </g>
   <g id="patch_6">
    <path d="M 135.073438 38.1675 
L 693.073438 38.1675 
" style="fill:none;stroke:#000000;stroke-linecap:square;stroke-linejoin:miter;stroke-width:0.8;"/>
   </g>
   <g id="PathCollection_1">
    <defs>
     <path d="M 0 1.5 
C 0.397805 1.5 0.77937 1.341951 1.06066 1.06066 
C 1.341951 0.77937 1.5 0.397805 1.5 0 
C 1.5 -0.397805 1.341951 -0.77937 1.06066 -1.06066 
C 0.77937 -1.341951 0.397805 -1.5 0 -1.5 
C -0.397805 -1.5 -0.77937 -1.341951 -1.06066 -1.06066 
C -1.341951 -0.77937 -1.5 -0.397805 -1.5 0 
C -1.5 0.397805 -1.341951 0.77937 -1.06066 1.06066 
C -0.77937 1.341951 -0.397805 1.5 0 1.5 
z
" id="m05602569ad" style="stroke:#4c4c4c;"/>
    </defs>
    <g clip-path="url(#pcb868a7b52)">
     <use style="fill:#ffffff;stroke:#4c4c4c;" x="449.502009" xlink:href="#m05602569ad" y="78.9375"/>
    </g>
   </g>
   <g id="PathCollection_2">
    <g clip-path="url(#pcb868a7b52)">
     <use style="fill:#ffffff;stroke:#4c4c4c;" x="406.258311" xlink:href="#m05602569ad" y="160.4775"/>
    </g>
   </g>
   <g id="PathCollection_3">
    <g clip-path="url(#pcb868a7b52)">
     <use style="fill:#ffffff;stroke:#4c4c4c;" x="386.585753" xlink:href="#m05602569ad" y="242.0175"/>
    </g>
   </g>
   <g id="PathCollection_4">
    <g clip-path="url(#pcb868a7b52)">
     <use style="fill:#ffffff;stroke:#4c4c4c;" x="384.549628" xlink:href="#m05602569ad" y="323.5575"/>
    </g>
   </g>
   <g id="text_16">
    <!-- Distribución de: Índice socioeconómico según el desempeño en sociales -->
    <defs>
     <path d="M 19.671875 64.796875 
L 19.671875 8.109375 
L 31.59375 8.109375 
Q 46.6875 8.109375 53.6875 14.9375 
Q 60.6875 21.78125 60.6875 36.53125 
Q 60.6875 51.171875 53.6875 57.984375 
Q 46.6875 64.796875 31.59375 64.796875 
z
M 9.8125 72.90625 
L 30.078125 72.90625 
Q 51.265625 72.90625 61.171875 64.09375 
Q 71.09375 55.28125 71.09375 36.53125 
Q 71.09375 17.671875 61.125 8.828125 
Q 51.171875 0 30.078125 0 
L 9.8125 0 
z
" id="DejaVuSans-68"/>
     <path d="M 8.5 21.578125 
L 8.5 54.6875 
L 17.484375 54.6875 
L 17.484375 21.921875 
Q 17.484375 14.15625 20.5 10.265625 
Q 23.53125 6.390625 29.59375 6.390625 
Q 36.859375 6.390625 41.078125 11.03125 
Q 45.3125 15.671875 45.3125 23.6875 
L 45.3125 54.6875 
L 54.296875 54.6875 
L 54.296875 0 
L 45.3125 0 
L 45.3125 8.40625 
Q 42.046875 3.421875 37.71875 1 
Q 33.40625 -1.421875 27.6875 -1.421875 
Q 18.265625 -1.421875 13.375 4.4375 
Q 8.5 10.296875 8.5 21.578125 
z
M 31.109375 56 
z
" id="DejaVuSans-117"/>
     <path d="M 11.71875 12.40625 
L 22.015625 12.40625 
L 22.015625 0 
L 11.71875 0 
z
M 11.71875 51.703125 
L 22.015625 51.703125 
L 22.015625 39.3125 
L 11.71875 39.3125 
z
" id="DejaVuSans-58"/>
     <path d="M 45.40625 27.984375 
Q 45.40625 37.75 41.375 43.109375 
Q 37.359375 48.484375 30.078125 48.484375 
Q 22.859375 48.484375 18.828125 43.109375 
Q 14.796875 37.75 14.796875 27.984375 
Q 14.796875 18.265625 18.828125 12.890625 
Q 22.859375 7.515625 30.078125 7.515625 
Q 37.359375 7.515625 41.375 12.890625 
Q 45.40625 18.265625 45.40625 27.984375 
z
M 54.390625 6.78125 
Q 54.390625 -7.171875 48.1875 -13.984375 
Q 42 -20.796875 29.203125 -20.796875 
Q 24.46875 -20.796875 20.265625 -20.09375 
Q 16.0625 -19.390625 12.109375 -17.921875 
L 12.109375 -9.1875 
Q 16.0625 -11.328125 19.921875 -12.34375 
Q 23.78125 -13.375 27.78125 -13.375 
Q 36.625 -13.375 41.015625 -8.765625 
Q 45.40625 -4.15625 45.40625 5.171875 
L 45.40625 9.625 
Q 42.625 4.78125 38.28125 2.390625 
Q 33.9375 0 27.875 0 
Q 17.828125 0 11.671875 7.65625 
Q 5.515625 15.328125 5.515625 27.984375 
Q 5.515625 40.671875 11.671875 48.328125 
Q 17.828125 56 27.875 56 
Q 33.9375 56 38.28125 53.609375 
Q 42.625 51.21875 45.40625 46.390625 
L 45.40625 54.6875 
L 54.390625 54.6875 
z
" id="DejaVuSans-103"/>
     <path d="M 8.5 21.578125 
L 8.5 54.6875 
L 17.484375 54.6875 
L 17.484375 21.921875 
Q 17.484375 14.15625 20.5 10.265625 
Q 23.53125 6.390625 29.59375 6.390625 
Q 36.859375 6.390625 41.078125 11.03125 
Q 45.3125 15.671875 45.3125 23.6875 
L 45.3125 54.6875 
L 54.296875 54.6875 
L 54.296875 0 
L 45.3125 0 
L 45.3125 8.40625 
Q 42.046875 3.421875 37.71875 1 
Q 33.40625 -1.421875 27.6875 -1.421875 
Q 18.265625 -1.421875 13.375 4.4375 
Q 8.5 10.296875 8.5 21.578125 
z
M 31.109375 56 
z
M 37.796875 79.984375 
L 47.515625 79.984375 
L 31.59375 61.625 
L 24.125 61.625 
z
" id="DejaVuSans-250"/>
    </defs>
    <g transform="translate(197.109688 18.328125)scale(0.12 -0.12)">
     <use xlink:href="#DejaVuSans-68"/>
     <use x="77.001953" xlink:href="#DejaVuSans-105"/>
     <use x="104.785156" xlink:href="#DejaVuSans-115"/>
     <use x="156.884766" xlink:href="#DejaVuSans-116"/>
     <use x="196.09375" xlink:href="#DejaVuSans-114"/>
     <use x="237.207031" xlink:href="#DejaVuSans-105"/>
     <use x="264.990234" xlink:href="#DejaVuSans-98"/>
     <use x="328.466797" xlink:href="#DejaVuSans-117"/>
     <use x="391.845703" xlink:href="#DejaVuSans-99"/>
     <use x="446.826172" xlink:href="#DejaVuSans-105"/>
     <use x="474.609375" xlink:href="#DejaVuSans-243"/>
     <use x="535.791016" xlink:href="#DejaVuSans-110"/>
     <use x="599.169922" xlink:href="#DejaVuSans-32"/>
     <use x="630.957031" xlink:href="#DejaVuSans-100"/>
     <use x="694.433594" xlink:href="#DejaVuSans-101"/>
     <use x="755.957031" xlink:href="#DejaVuSans-58"/>
     <use x="789.648438" xlink:href="#DejaVuSans-32"/>
     <use x="821.435547" xlink:href="#DejaVuSans-205"/>
     <use x="850.927734" xlink:href="#DejaVuSans-110"/>
     <use x="914.306641" xlink:href="#DejaVuSans-100"/>
     <use x="977.783203" xlink:href="#DejaVuSans-105"/>
     <use x="1005.566406" xlink:href="#DejaVuSans-99"/>
     <use x="1060.546875" xlink:href="#DejaVuSans-101"/>
     <use x="1122.070312" xlink:href="#DejaVuSans-32"/>
     <use x="1153.857422" xlink:href="#DejaVuSans-115"/>
     <use x="1205.957031" xlink:href="#DejaVuSans-111"/>
     <use x="1267.138672" xlink:href="#DejaVuSans-99"/>
     <use x="1322.119141" xlink:href="#DejaVuSans-105"/>
     <use x="1349.902344" xlink:href="#DejaVuSans-111"/>
     <use x="1411.083984" xlink:href="#DejaVuSans-101"/>
     <use x="1472.607422" xlink:href="#DejaVuSans-99"/>
     <use x="1527.587891" xlink:href="#DejaVuSans-111"/>
     <use x="1588.769531" xlink:href="#DejaVuSans-110"/>
     <use x="1652.148438" xlink:href="#DejaVuSans-243"/>
     <use x="1713.330078" xlink:href="#DejaVuSans-109"/>
     <use x="1810.742188" xlink:href="#DejaVuSans-105"/>
     <use x="1838.525391" xlink:href="#DejaVuSans-99"/>
     <use x="1893.505859" xlink:href="#DejaVuSans-111"/>
     <use x="1954.6875" xlink:href="#DejaVuSans-32"/>
     <use x="1986.474609" xlink:href="#DejaVuSans-115"/>
     <use x="2038.574219" xlink:href="#DejaVuSans-101"/>
     <use x="2100.097656" xlink:href="#DejaVuSans-103"/>
     <use x="2163.574219" xlink:href="#DejaVuSans-250"/>
     <use x="2226.953125" xlink:href="#DejaVuSans-110"/>
     <use x="2290.332031" xlink:href="#DejaVuSans-32"/>
     <use x="2322.119141" xlink:href="#DejaVuSans-101"/>
     <use x="2383.642578" xlink:href="#DejaVuSans-108"/>
     <use x="2411.425781" xlink:href="#DejaVuSans-32"/>
     <use x="2443.212891" xlink:href="#DejaVuSans-100"/>
     <use x="2506.689453" xlink:href="#DejaVuSans-101"/>
     <use x="2568.212891" xlink:href="#DejaVuSans-115"/>
     <use x="2620.3125" xlink:href="#DejaVuSans-101"/>
     <use x="2681.835938" xlink:href="#DejaVuSans-109"/>
     <use x="2779.248047" xlink:href="#DejaVuSans-112"/>
     <use x="2842.724609" xlink:href="#DejaVuSans-101"/>
     <use x="2904.248047" xlink:href="#DejaVuSans-241"/>
     <use x="2967.626953" xlink:href="#DejaVuSans-111"/>
     <use x="3028.808594" xlink:href="#DejaVuSans-32"/>
     <use x="3060.595703" xlink:href="#DejaVuSans-101"/>
     <use x="3122.119141" xlink:href="#DejaVuSans-110"/>
     <use x="3185.498047" xlink:href="#DejaVuSans-32"/>
     <use x="3217.285156" xlink:href="#DejaVuSans-115"/>
     <use x="3269.384766" xlink:href="#DejaVuSans-111"/>
     <use x="3330.566406" xlink:href="#DejaVuSans-99"/>
     <use x="3385.546875" xlink:href="#DejaVuSans-105"/>
     <use x="3413.330078" xlink:href="#DejaVuSans-97"/>
     <use x="3474.609375" xlink:href="#DejaVuSans-108"/>
     <use x="3502.392578" xlink:href="#DejaVuSans-101"/>
     <use x="3563.916016" xlink:href="#DejaVuSans-115"/>
    </g>
    <!--  Nivel: Primaria -->
    <g transform="translate(368.090937 31.7655)scale(0.12 -0.12)">
     <use xlink:href="#DejaVuSans-32"/>
     <use x="31.787109" xlink:href="#DejaVuSans-78"/>
     <use x="106.591797" xlink:href="#DejaVuSans-105"/>
     <use x="134.375" xlink:href="#DejaVuSans-118"/>
     <use x="193.554688" xlink:href="#DejaVuSans-101"/>
     <use x="255.078125" xlink:href="#DejaVuSans-108"/>
     <use x="282.861328" xlink:href="#DejaVuSans-58"/>
     <use x="316.552734" xlink:href="#DejaVuSans-32"/>
     <use x="348.339844" xlink:href="#DejaVuSans-80"/>
     <use x="408.626953" xlink:href="#DejaVuSans-114"/>
     <use x="449.740234" xlink:href="#DejaVuSans-105"/>
     <use x="477.523438" xlink:href="#DejaVuSans-109"/>
     <use x="574.935547" xlink:href="#DejaVuSans-97"/>
     <use x="636.214844" xlink:href="#DejaVuSans-114"/>
     <use x="677.328125" xlink:href="#DejaVuSans-105"/>
     <use x="705.111328" xlink:href="#DejaVuSans-97"/>
    </g>
   </g>
  </g>
 </g>
 <defs>
  <clipPath id="pcb868a7b52">
   <rect height="326.16" width="558" x="135.073438" y="38.1675"/>
  </clipPath>
 </defs>
</svg>
