<?xml version="1.0" encoding="utf-8" standalone="no"?>
<!DOCTYPE svg PUBLIC "-//W3C//DTD SVG 1.1//EN"
  "http://www.w3.org/Graphics/SVG/1.1/DTD/svg11.dtd">
<!-- Created with matplotlib (https://matplotlib.org/) -->
<svg height="400.04775pt" version="1.1" viewBox="0 0 703.773437 400.04775" width="703.773437pt" xmlns="http://www.w3.org/2000/svg" xmlns:xlink="http://www.w3.org/1999/xlink">
 <defs>
  <style type="text/css">
*{stroke-linecap:butt;stroke-linejoin:round;}
  </style>
 </defs>
 <g id="figure_1">
  <g id="patch_1">
   <path d="M 0 400.04775 
L 703.773437 400.04775 
L 703.773437 0 
L 0 0 
z
" style="fill:#ffffff;"/>
  </g>
  <g id="axes_1">
   <g id="patch_2">
    <path d="M 135.073438 362.4915 
L 693.073437 362.4915 
L 693.073437 36.3315 
L 135.073438 36.3315 
z
" style="fill:#ffffff;"/>
   </g>
   <g id="PolyCollection_1">
    <defs>
     <path d="M 181.781072 -322.364457 
L 181.781072 -323.528043 
L 186.473847 -325.92439 
L 191.166622 -331.575235 
L 195.859397 -337.715633 
L 200.552172 -339.160543 
L 205.244947 -338.295237 
L 209.937722 -342.817149 
L 214.630497 -350.46008 
L 219.323272 -354.358153 
L 224.016047 -355.56225 
L 228.708822 -354.358303 
L 233.401598 -352.315074 
L 238.094373 -353.729824 
L 242.787148 -353.827102 
L 247.479923 -348.460124 
L 252.172698 -340.333049 
L 256.865473 -333.268891 
L 261.558248 -332.327899 
L 266.251023 -337.537266 
L 270.943798 -344.081182 
L 275.636573 -347.555873 
L 280.329348 -345.31607 
L 285.022123 -339.036856 
L 289.714898 -334.436486 
L 294.407673 -334.256389 
L 299.100448 -336.668689 
L 303.793223 -339.59145 
L 308.485999 -341.327255 
L 313.178774 -339.853232 
L 317.871549 -336.758659 
L 322.564324 -334.213117 
L 327.257099 -330.407012 
L 331.949874 -326.57413 
L 336.642649 -325.350925 
L 341.335424 -326.248013 
L 346.028199 -327.399161 
L 350.720974 -327.933198 
L 355.413749 -328.332794 
L 360.106524 -327.866573 
L 364.799299 -326.373581 
L 369.492074 -325.224626 
L 374.184849 -324.356008 
L 378.877625 -323.606033 
L 383.5704 -323.33815 
L 388.263175 -323.387584 
L 392.95595 -323.520926 
L 397.648725 -323.670564 
L 402.3415 -323.676785 
L 407.034275 -323.481788 
L 411.72705 -323.245029 
L 416.419825 -323.13491 
L 421.1126 -323.110603 
L 425.805375 -323.061285 
L 430.49815 -323.032193 
L 435.190925 -323.081873 
L 439.8837 -323.136047 
L 444.576475 -323.122513 
L 449.26925 -323.070671 
L 453.962026 -323.02325 
L 458.654801 -323.004086 
L 463.347576 -323.073996 
L 468.040351 -323.333262 
L 472.733126 -323.679504 
L 477.425901 -323.726059 
L 482.118676 -323.447622 
L 486.811451 -323.202938 
L 491.504226 -323.098025 
L 496.197001 -323.064031 
L 500.889776 -323.032344 
L 505.582551 -322.987933 
L 510.275326 -322.973139 
L 514.968101 -323.031321 
L 519.660876 -323.159734 
L 524.353652 -323.225577 
L 529.046427 -323.140437 
L 533.739202 -323.025326 
L 538.431977 -322.968704 
L 543.124752 -322.951025 
L 547.817527 -322.946907 
L 552.510302 -322.9463 
L 557.203077 -322.946252 
L 561.895852 -322.946264 
L 566.588627 -322.946589 
L 571.281402 -322.950526 
L 575.974177 -322.973568 
L 580.666952 -323.034648 
L 585.359727 -323.091129 
L 590.052502 -323.066511 
L 594.745277 -322.99681 
L 599.438053 -322.957016 
L 604.130828 -322.947411 
L 608.823603 -322.946314 
L 613.516378 -322.946265 
L 618.209153 -322.946468 
L 622.901928 -322.948016 
L 627.594703 -322.953495 
L 632.287478 -322.961306 
L 636.980253 -322.962095 
L 641.673028 -322.954696 
L 646.365803 -322.94853 
L 646.365803 -322.94397 
L 646.365803 -322.94397 
L 641.673028 -322.937804 
L 636.980253 -322.930405 
L 632.287478 -322.931194 
L 627.594703 -322.939005 
L 622.901928 -322.944484 
L 618.209153 -322.946032 
L 613.516378 -322.946235 
L 608.823603 -322.946186 
L 604.130828 -322.945089 
L 599.438053 -322.935484 
L 594.745277 -322.89569 
L 590.052502 -322.825989 
L 585.359727 -322.801371 
L 580.666952 -322.857852 
L 575.974177 -322.918932 
L 571.281402 -322.941974 
L 566.588627 -322.945911 
L 561.895852 -322.946236 
L 557.203077 -322.946248 
L 552.510302 -322.9462 
L 547.817527 -322.945593 
L 543.124752 -322.941475 
L 538.431977 -322.923796 
L 533.739202 -322.867174 
L 529.046427 -322.752063 
L 524.353652 -322.666923 
L 519.660876 -322.732766 
L 514.968101 -322.861179 
L 510.275326 -322.919361 
L 505.582551 -322.904567 
L 500.889776 -322.860156 
L 496.197001 -322.828469 
L 491.504226 -322.794475 
L 486.811451 -322.689562 
L 482.118676 -322.444878 
L 477.425901 -322.166441 
L 472.733126 -322.212996 
L 468.040351 -322.559238 
L 463.347576 -322.818504 
L 458.654801 -322.888414 
L 453.962026 -322.86925 
L 449.26925 -322.821829 
L 444.576475 -322.769987 
L 439.8837 -322.756453 
L 435.190925 -322.810627 
L 430.49815 -322.860307 
L 425.805375 -322.831215 
L 421.1126 -322.781897 
L 416.419825 -322.75759 
L 411.72705 -322.647471 
L 407.034275 -322.410712 
L 402.3415 -322.215715 
L 397.648725 -322.221936 
L 392.95595 -322.371574 
L 388.263175 -322.504916 
L 383.5704 -322.55435 
L 378.877625 -322.286467 
L 374.184849 -321.536492 
L 369.492074 -320.667874 
L 364.799299 -319.518919 
L 360.106524 -318.025927 
L 355.413749 -317.559706 
L 350.720974 -317.959302 
L 346.028199 -318.493339 
L 341.335424 -319.644487 
L 336.642649 -320.541575 
L 331.949874 -319.31837 
L 327.257099 -315.485488 
L 322.564324 -311.679383 
L 317.871549 -309.133841 
L 313.178774 -306.039268 
L 308.485999 -304.565245 
L 303.793223 -306.30105 
L 299.100448 -309.223811 
L 294.407673 -311.636111 
L 289.714898 -311.456014 
L 285.022123 -306.855644 
L 280.329348 -300.57643 
L 275.636573 -298.336627 
L 270.943798 -301.811318 
L 266.251023 -308.355234 
L 261.558248 -313.564601 
L 256.865473 -312.623609 
L 252.172698 -305.559451 
L 247.479923 -297.432376 
L 242.787148 -292.065398 
L 238.094373 -292.162676 
L 233.401598 -293.577426 
L 228.708822 -291.534197 
L 224.016047 -290.33025 
L 219.323272 -291.534347 
L 214.630497 -295.43242 
L 209.937722 -303.075351 
L 205.244947 -307.597263 
L 200.552172 -306.731957 
L 195.859397 -308.176867 
L 191.166622 -314.317265 
L 186.473847 -319.96811 
L 181.781072 -322.364457 
z
" id="mdfa620431f" style="stroke:#262626;stroke-width:1.5;"/>
    </defs>
    <g clip-path="url(#pb17337b10b)">
     <use style="fill:#107010;stroke:#262626;stroke-width:1.5;" x="0" xlink:href="#mdfa620431f" y="400.04775"/>
    </g>
   </g>
   <g id="PolyCollection_2">
    <defs>
     <path d="M 184.166489 -241.061763 
L 184.166489 -241.750737 
L 188.811074 -243.722161 
L 193.455659 -248.165667 
L 198.100243 -250.990704 
L 202.744828 -249.382841 
L 207.389413 -250.545292 
L 212.033998 -259.41386 
L 216.678583 -265.179881 
L 221.323168 -267.245402 
L 225.967752 -270.574348 
L 230.612337 -268.022778 
L 235.256922 -265.713867 
L 239.901507 -270.57752 
L 244.546092 -269.959013 
L 249.190676 -265.300667 
L 253.835261 -255.691602 
L 258.479846 -247.945362 
L 263.124431 -250.582705 
L 267.769016 -257.55887 
L 272.413601 -263.299106 
L 277.058185 -266.705894 
L 281.70277 -264.281119 
L 286.347355 -256.938336 
L 290.99194 -253.461574 
L 295.636525 -254.819677 
L 300.281109 -257.488798 
L 304.925694 -263.063316 
L 309.570279 -268.306039 
L 314.214864 -264.301114 
L 318.859449 -258.3457 
L 323.504034 -255.858742 
L 328.148618 -249.055539 
L 332.793203 -244.470199 
L 337.437788 -244.750253 
L 342.082373 -247.268253 
L 346.726958 -248.890665 
L 351.371542 -247.723913 
L 356.016127 -247.017958 
L 360.660712 -246.564255 
L 365.305297 -246.412478 
L 369.949882 -247.049941 
L 374.594467 -244.911997 
L 379.239051 -242.55171 
L 383.883636 -242.214521 
L 388.528221 -242.43998 
L 393.172806 -242.811967 
L 397.817391 -243.473132 
L 402.461975 -243.467439 
L 407.10656 -242.804274 
L 411.751145 -242.109753 
L 416.39573 -241.886575 
L 421.040315 -241.954859 
L 425.6849 -241.724486 
L 430.329484 -241.582836 
L 434.974069 -241.915909 
L 439.618654 -242.261352 
L 444.263239 -242.146056 
L 448.907824 -241.905378 
L 453.552408 -241.709373 
L 458.196993 -241.572271 
L 462.841578 -241.509074 
L 467.486163 -241.800537 
L 472.130748 -242.634173 
L 476.775333 -242.985648 
L 481.419917 -242.485141 
L 486.064502 -242.208355 
L 490.709087 -241.990937 
L 495.353672 -242.015682 
L 499.998257 -241.988136 
L 504.642841 -241.668224 
L 509.287426 -241.476689 
L 513.932011 -241.539358 
L 518.576596 -242.093089 
L 523.221181 -242.742004 
L 527.865766 -242.391792 
L 532.51035 -241.8157 
L 537.154935 -241.552392 
L 541.79952 -241.434338 
L 546.444105 -241.40827 
L 551.08869 -241.406301 
L 555.733274 -241.40625 
L 560.377859 -241.40625 
L 565.022444 -241.406255 
L 569.667029 -241.406628 
L 574.311614 -241.416639 
L 578.956199 -241.504614 
L 583.600783 -241.726743 
L 588.245368 -241.765607 
L 592.889953 -241.544913 
L 597.534538 -241.424663 
L 602.179123 -241.407091 
L 606.823707 -241.406263 
L 611.468292 -241.40625 
L 616.112877 -241.406268 
L 620.757462 -241.407056 
L 625.402047 -241.418665 
L 630.046632 -241.472063 
L 634.691216 -241.526309 
L 639.335801 -241.481621 
L 643.980386 -241.422533 
L 643.980386 -241.389967 
L 643.980386 -241.389967 
L 639.335801 -241.330879 
L 634.691216 -241.286191 
L 630.046632 -241.340437 
L 625.402047 -241.393835 
L 620.757462 -241.405444 
L 616.112877 -241.406232 
L 611.468292 -241.40625 
L 606.823707 -241.406237 
L 602.179123 -241.405409 
L 597.534538 -241.387837 
L 592.889953 -241.267587 
L 588.245368 -241.046893 
L 583.600783 -241.085757 
L 578.956199 -241.307886 
L 574.311614 -241.395861 
L 569.667029 -241.405872 
L 565.022444 -241.406245 
L 560.377859 -241.40625 
L 555.733274 -241.40625 
L 551.08869 -241.406199 
L 546.444105 -241.40423 
L 541.79952 -241.378162 
L 537.154935 -241.260108 
L 532.51035 -240.9968 
L 527.865766 -240.420708 
L 523.221181 -240.070496 
L 518.576596 -240.719411 
L 513.932011 -241.273142 
L 509.287426 -241.335811 
L 504.642841 -241.144276 
L 499.998257 -240.824364 
L 495.353672 -240.796818 
L 490.709087 -240.821563 
L 486.064502 -240.604145 
L 481.419917 -240.327359 
L 476.775333 -239.826852 
L 472.130748 -240.178327 
L 467.486163 -241.011963 
L 462.841578 -241.303426 
L 458.196993 -241.240229 
L 453.552408 -241.103127 
L 448.907824 -240.907122 
L 444.263239 -240.666444 
L 439.618654 -240.551148 
L 434.974069 -240.896591 
L 430.329484 -241.229664 
L 425.6849 -241.088014 
L 421.040315 -240.857641 
L 416.39573 -240.925925 
L 411.751145 -240.702747 
L 407.10656 -240.008226 
L 402.461975 -239.345061 
L 397.817391 -239.339368 
L 393.172806 -240.000533 
L 388.528221 -240.37252 
L 383.883636 -240.597979 
L 379.239051 -240.26079 
L 374.594467 -237.900503 
L 369.949882 -235.762559 
L 365.305297 -236.400022 
L 360.660712 -236.248245 
L 356.016127 -235.794542 
L 351.371542 -235.088587 
L 346.726958 -233.921835 
L 342.082373 -235.544247 
L 337.437788 -238.062247 
L 332.793203 -238.342301 
L 328.148618 -233.756961 
L 323.504034 -226.953758 
L 318.859449 -224.4668 
L 314.214864 -218.511386 
L 309.570279 -214.506461 
L 304.925694 -219.749184 
L 300.281109 -225.323702 
L 295.636525 -227.992823 
L 290.99194 -229.350926 
L 286.347355 -225.874164 
L 281.70277 -218.531381 
L 277.058185 -216.106606 
L 272.413601 -219.513394 
L 267.769016 -225.25363 
L 263.124431 -232.229795 
L 258.479846 -234.867138 
L 253.835261 -227.120898 
L 249.190676 -217.511833 
L 244.546092 -212.853487 
L 239.901507 -212.23498 
L 235.256922 -217.098633 
L 230.612337 -214.789722 
L 225.967752 -212.238152 
L 221.323168 -215.567098 
L 216.678583 -217.632619 
L 212.033998 -223.39864 
L 207.389413 -232.267208 
L 202.744828 -233.429659 
L 198.100243 -231.821796 
L 193.455659 -234.646833 
L 188.811074 -239.090339 
L 184.166489 -241.061763 
z
" id="mdaee8b3a1c" style="stroke:#262626;stroke-width:1.5;"/>
    </defs>
    <g clip-path="url(#pb17337b10b)">
     <use style="fill:#107010;stroke:#262626;stroke-width:1.5;" x="0" xlink:href="#mdaee8b3a1c" y="400.04775"/>
    </g>
   </g>
   <g id="PolyCollection_3">
    <defs>
     <path d="M 181.033067 -159.613971 
L 181.033067 -160.118529 
L 185.740953 -161.014386 
L 190.448839 -163.001347 
L 195.156726 -165.198857 
L 199.864612 -166.113309 
L 204.572498 -166.776045 
L 209.280384 -169.850851 
L 213.988271 -174.677878 
L 218.696157 -178.651717 
L 223.404043 -181.252848 
L 228.111929 -181.930374 
L 232.819816 -181.478124 
L 237.527702 -182.652319 
L 242.235588 -183.882163 
L 246.943475 -181.690803 
L 251.651361 -176.030896 
L 256.359247 -170.084553 
L 261.067133 -168.519125 
L 265.77502 -171.981591 
L 270.482906 -177.208499 
L 275.190792 -181.383113 
L 279.898679 -182.324664 
L 284.606565 -179.329332 
L 289.314451 -175.764769 
L 294.022337 -175.238345 
L 298.730224 -178.040361 
L 303.43811 -183.530929 
L 308.145996 -188.465651 
L 312.853883 -187.426162 
L 317.561769 -181.31842 
L 322.269655 -175.354718 
L 326.977541 -170.090022 
L 331.685428 -165.896911 
L 336.393314 -164.796355 
L 341.1012 -166.295642 
L 345.809086 -167.961506 
L 350.516973 -168.144616 
L 355.224859 -167.527912 
L 359.932745 -167.316341 
L 364.640632 -167.833785 
L 369.348518 -167.966465 
L 374.056404 -165.94424 
L 378.76429 -163.009167 
L 383.472177 -161.497723 
L 388.180063 -161.422126 
L 392.887949 -161.938313 
L 397.595836 -162.446259 
L 402.303722 -162.399665 
L 407.011608 -161.791253 
L 411.719494 -161.106556 
L 416.427381 -160.732966 
L 421.135267 -160.578575 
L 425.843153 -160.412104 
L 430.551039 -160.444977 
L 435.258926 -160.842481 
L 439.966812 -161.170594 
L 444.674698 -161.051391 
L 449.382585 -160.675334 
L 454.090471 -160.333154 
L 458.798357 -160.138143 
L 463.506243 -160.187261 
L 468.21413 -160.614517 
L 472.922016 -161.229381 
L 477.629902 -161.522973 
L 482.337789 -161.432505 
L 487.045675 -161.225888 
L 491.753561 -161.046895 
L 496.461447 -160.933852 
L 501.169334 -160.67869 
L 505.87722 -160.297181 
L 510.585106 -160.131973 
L 515.292992 -160.422633 
L 520.000879 -161.049213 
L 524.708765 -161.385487 
L 529.416651 -161.090421 
L 534.124538 -160.565971 
L 538.832424 -160.165085 
L 543.54031 -159.952995 
L 548.248196 -159.881462 
L 552.956083 -159.867764 
L 557.663969 -159.866343 
L 562.371855 -159.866523 
L 567.079742 -159.870603 
L 571.787628 -159.904569 
L 576.495514 -160.050866 
L 581.2034 -160.353028 
L 585.911287 -160.56867 
L 590.619173 -160.420961 
L 595.327059 -160.10599 
L 600.034946 -159.922954 
L 604.742832 -159.873591 
L 609.450718 -159.866794 
L 614.158604 -159.866743 
L 618.866491 -159.871286 
L 623.574377 -159.895596 
L 628.282263 -159.959845 
L 632.990149 -160.029616 
L 637.698036 -160.022303 
L 642.405922 -159.947831 
L 647.113808 -159.88959 
L 647.113808 -159.84291 
L 647.113808 -159.84291 
L 642.405922 -159.784669 
L 637.698036 -159.710197 
L 632.990149 -159.702884 
L 628.282263 -159.772655 
L 623.574377 -159.836904 
L 618.866491 -159.861214 
L 614.158604 -159.865757 
L 609.450718 -159.865706 
L 604.742832 -159.858909 
L 600.034946 -159.809546 
L 595.327059 -159.62651 
L 590.619173 -159.311539 
L 585.911287 -159.16383 
L 581.2034 -159.379472 
L 576.495514 -159.681634 
L 571.787628 -159.827931 
L 567.079742 -159.861897 
L 562.371855 -159.865977 
L 557.663969 -159.866157 
L 552.956083 -159.864736 
L 548.248196 -159.851038 
L 543.54031 -159.779505 
L 538.832424 -159.567415 
L 534.124538 -159.166529 
L 529.416651 -158.642079 
L 524.708765 -158.347013 
L 520.000879 -158.683287 
L 515.292992 -159.309867 
L 510.585106 -159.600527 
L 505.87722 -159.435319 
L 501.169334 -159.05381 
L 496.461447 -158.798648 
L 491.753561 -158.685605 
L 487.045675 -158.506612 
L 482.337789 -158.299995 
L 477.629902 -158.209527 
L 472.922016 -158.503119 
L 468.21413 -159.117983 
L 463.506243 -159.545239 
L 458.798357 -159.594357 
L 454.090471 -159.399346 
L 449.382585 -159.057166 
L 444.674698 -158.681109 
L 439.966812 -158.561906 
L 435.258926 -158.890019 
L 430.551039 -159.287523 
L 425.843153 -159.320396 
L 421.135267 -159.153925 
L 416.427381 -158.999534 
L 411.719494 -158.625944 
L 407.011608 -157.941247 
L 402.303722 -157.332835 
L 397.595836 -157.286241 
L 392.887949 -157.794187 
L 388.180063 -158.310374 
L 383.472177 -158.234777 
L 378.76429 -156.723333 
L 374.056404 -153.78826 
L 369.348518 -151.766035 
L 364.640632 -151.898715 
L 359.932745 -152.416159 
L 355.224859 -152.204588 
L 350.516973 -151.587884 
L 345.809086 -151.770994 
L 341.1012 -153.436858 
L 336.393314 -154.936145 
L 331.685428 -153.835589 
L 326.977541 -149.642478 
L 322.269655 -144.377782 
L 317.561769 -138.41408 
L 312.853883 -132.306338 
L 308.145996 -131.266849 
L 303.43811 -136.201571 
L 298.730224 -141.692139 
L 294.022337 -144.494155 
L 289.314451 -143.967731 
L 284.606565 -140.403168 
L 279.898679 -137.407836 
L 275.190792 -138.349387 
L 270.482906 -142.524001 
L 265.77502 -147.750909 
L 261.067133 -151.213375 
L 256.359247 -149.647947 
L 251.651361 -143.701604 
L 246.943475 -138.041697 
L 242.235588 -135.850337 
L 237.527702 -137.080181 
L 232.819816 -138.254376 
L 228.111929 -137.802126 
L 223.404043 -138.479652 
L 218.696157 -141.080783 
L 213.988271 -145.054622 
L 209.280384 -149.881649 
L 204.572498 -152.956455 
L 199.864612 -153.619191 
L 195.156726 -154.533643 
L 190.448839 -156.731153 
L 185.740953 -158.718114 
L 181.033067 -159.613971 
z
" id="m4c22ec3b36" style="stroke:#262626;stroke-width:1.5;"/>
    </defs>
    <g clip-path="url(#pb17337b10b)">
     <use style="fill:#107010;stroke:#262626;stroke-width:1.5;" x="0" xlink:href="#m4c22ec3b36" y="400.04775"/>
    </g>
   </g>
   <g id="PolyCollection_4">
    <defs>
     <path d="M 180.292391 -78.027418 
L 180.292391 -78.625082 
L 185.015241 -79.596591 
L 189.73809 -81.714969 
L 194.460939 -84.168485 
L 199.183789 -85.37345 
L 203.906638 -85.884282 
L 208.629488 -88.167393 
L 213.352337 -92.296646 
L 218.075186 -96.024848 
L 222.798036 -98.388172 
L 227.520885 -99.187901 
L 232.243735 -99.093742 
L 236.966584 -99.909273 
L 241.689434 -100.533045 
L 246.412283 -98.194206 
L 251.135132 -93.08057 
L 255.857982 -88.138557 
L 260.580831 -86.871559 
L 265.303681 -89.928964 
L 270.02653 -94.865807 
L 274.74938 -98.928273 
L 279.472229 -99.964667 
L 284.195078 -97.655468 
L 288.917928 -94.984247 
L 293.640777 -95.082706 
L 298.363627 -98.42009 
L 303.086476 -104.189519 
L 307.809325 -108.982335 
L 312.532175 -107.643927 
L 317.255024 -100.751365 
L 321.977874 -93.710076 
L 326.700723 -88.390782 
L 331.423573 -84.73308 
L 336.146422 -83.731543 
L 340.869271 -84.988142 
L 345.592121 -86.50634 
L 350.31497 -86.875476 
L 355.03782 -86.496438 
L 359.760669 -86.246875 
L 364.483519 -86.292855 
L 369.206368 -85.84307 
L 373.929217 -83.873638 
L 378.652067 -81.33013 
L 383.374916 -79.936299 
L 388.097766 -79.813969 
L 392.820615 -80.242318 
L 397.543465 -80.626775 
L 402.266314 -80.565355 
L 406.989163 -80.080945 
L 411.712013 -79.515835 
L 416.434862 -79.141466 
L 421.157712 -78.942379 
L 425.880561 -78.818847 
L 430.60341 -78.918992 
L 435.32626 -79.324582 
L 440.049109 -79.682883 
L 444.771959 -79.641894 
L 449.494808 -79.269914 
L 454.217658 -78.848379 
L 458.940507 -78.596085 
L 463.663356 -78.629196 
L 468.386206 -78.996828 
L 473.109055 -79.502854 
L 477.831905 -79.770872 
L 482.554754 -79.738907 
L 487.277604 -79.591903 
L 492.000453 -79.460471 
L 496.723302 -79.358732 
L 501.446152 -79.132794 
L 506.169001 -78.801831 
L 510.891851 -78.643625 
L 515.6147 -78.859638 
L 520.33755 -79.336065 
L 525.060399 -79.651416 
L 529.783248 -79.557459 
L 534.506098 -79.184017 
L 539.228947 -78.75843 
L 543.951797 -78.469976 
L 548.674646 -78.355705 
L 553.397495 -78.32985 
L 558.120345 -78.326566 
L 562.843194 -78.32738 
L 567.566044 -78.33884 
L 572.288893 -78.408902 
L 577.011743 -78.64283 
L 581.734592 -79.033721 
L 586.457441 -79.248667 
L 591.180291 -79.027931 
L 595.90314 -78.637669 
L 600.62599 -78.406889 
L 605.348839 -78.338436 
L 610.071689 -78.327402 
L 614.794538 -78.327334 
L 619.517387 -78.334115 
L 624.240237 -78.361332 
L 628.963086 -78.417563 
L 633.685936 -78.464916 
L 638.408785 -78.449109 
L 643.131634 -78.389759 
L 647.854484 -78.345404 
L 647.854484 -78.307096 
L 647.854484 -78.307096 
L 643.131634 -78.262741 
L 638.408785 -78.203391 
L 633.685936 -78.187584 
L 628.963086 -78.234937 
L 624.240237 -78.291168 
L 619.517387 -78.318385 
L 614.794538 -78.325166 
L 610.071689 -78.325098 
L 605.348839 -78.314064 
L 600.62599 -78.245611 
L 595.90314 -78.014831 
L 591.180291 -77.624569 
L 586.457441 -77.403833 
L 581.734592 -77.618779 
L 577.011743 -78.00967 
L 572.288893 -78.243598 
L 567.566044 -78.31366 
L 562.843194 -78.32512 
L 558.120345 -78.325934 
L 553.397495 -78.32265 
L 548.674646 -78.296795 
L 543.951797 -78.182524 
L 539.228947 -77.89407 
L 534.506098 -77.468483 
L 529.783248 -77.095041 
L 525.060399 -77.001084 
L 520.33755 -77.316435 
L 515.6147 -77.792862 
L 510.891851 -78.008875 
L 506.169001 -77.850669 
L 501.446152 -77.519706 
L 496.723302 -77.293768 
L 492.000453 -77.192029 
L 487.277604 -77.060597 
L 482.554754 -76.913593 
L 477.831905 -76.881628 
L 473.109055 -77.149646 
L 468.386206 -77.655672 
L 463.663356 -78.023304 
L 458.940507 -78.056415 
L 454.217658 -77.804121 
L 449.494808 -77.382586 
L 444.771959 -77.010606 
L 440.049109 -76.969617 
L 435.32626 -77.327918 
L 430.60341 -77.733508 
L 425.880561 -77.833653 
L 421.157712 -77.710121 
L 416.434862 -77.511034 
L 411.712013 -77.136665 
L 406.989163 -76.571555 
L 402.266314 -76.087145 
L 397.543465 -76.025725 
L 392.820615 -76.410182 
L 388.097766 -76.838531 
L 383.374916 -76.716201 
L 378.652067 -75.32237 
L 373.929217 -72.778862 
L 369.206368 -70.80943 
L 364.483519 -70.359645 
L 359.760669 -70.405625 
L 355.03782 -70.156062 
L 350.31497 -69.777024 
L 345.592121 -70.14616 
L 340.869271 -71.664358 
L 336.146422 -72.920957 
L 331.423573 -71.91942 
L 326.700723 -68.261718 
L 321.977874 -62.942424 
L 317.255024 -55.901135 
L 312.532175 -49.008573 
L 307.809325 -47.670165 
L 303.086476 -52.462981 
L 298.363627 -58.23241 
L 293.640777 -61.569794 
L 288.917928 -61.668253 
L 284.195078 -58.997032 
L 279.472229 -56.687833 
L 274.74938 -57.724227 
L 270.02653 -61.786693 
L 265.303681 -66.723536 
L 260.580831 -69.780941 
L 255.857982 -68.513943 
L 251.135132 -63.57193 
L 246.412283 -58.458294 
L 241.689434 -56.119455 
L 236.966584 -56.743227 
L 232.243735 -57.558758 
L 227.520885 -57.464599 
L 222.798036 -58.264328 
L 218.075186 -60.627652 
L 213.352337 -64.355854 
L 208.629488 -68.485107 
L 203.906638 -70.768218 
L 199.183789 -71.27905 
L 194.460939 -72.484015 
L 189.73809 -74.937531 
L 185.015241 -77.055909 
L 180.292391 -78.027418 
z
" id="mc1b195ab49" style="stroke:#262626;stroke-width:1.5;"/>
    </defs>
    <g clip-path="url(#pb17337b10b)">
     <use style="fill:#107010;stroke:#262626;stroke-width:1.5;" x="0" xlink:href="#mc1b195ab49" y="400.04775"/>
    </g>
   </g>
   <g id="matplotlib.axis_1">
    <g id="xtick_1">
     <g id="line2d_1">
      <defs>
       <path d="M 0 0 
L 0 3.5 
" id="md0e408ff7a" style="stroke:#000000;stroke-width:0.8;"/>
      </defs>
      <g>
       <use style="stroke:#000000;stroke-width:0.8;" x="173.415274" xlink:href="#md0e408ff7a" y="362.4915"/>
      </g>
     </g>
     <g id="text_1">
      <!-- 0.0 -->
      <defs>
       <path d="M 31.78125 66.40625 
Q 24.171875 66.40625 20.328125 58.90625 
Q 16.5 51.421875 16.5 36.375 
Q 16.5 21.390625 20.328125 13.890625 
Q 24.171875 6.390625 31.78125 6.390625 
Q 39.453125 6.390625 43.28125 13.890625 
Q 47.125 21.390625 47.125 36.375 
Q 47.125 51.421875 43.28125 58.90625 
Q 39.453125 66.40625 31.78125 66.40625 
z
M 31.78125 74.21875 
Q 44.046875 74.21875 50.515625 64.515625 
Q 56.984375 54.828125 56.984375 36.375 
Q 56.984375 17.96875 50.515625 8.265625 
Q 44.046875 -1.421875 31.78125 -1.421875 
Q 19.53125 -1.421875 13.0625 8.265625 
Q 6.59375 17.96875 6.59375 36.375 
Q 6.59375 54.828125 13.0625 64.515625 
Q 19.53125 74.21875 31.78125 74.21875 
z
" id="DejaVuSans-48"/>
       <path d="M 10.6875 12.40625 
L 21 12.40625 
L 21 0 
L 10.6875 0 
z
" id="DejaVuSans-46"/>
      </defs>
      <g transform="translate(165.463711 377.089938)scale(0.1 -0.1)">
       <use xlink:href="#DejaVuSans-48"/>
       <use x="63.623047" xlink:href="#DejaVuSans-46"/>
       <use x="95.410156" xlink:href="#DejaVuSans-48"/>
      </g>
     </g>
    </g>
    <g id="xtick_2">
     <g id="line2d_2">
      <g>
       <use style="stroke:#000000;stroke-width:0.8;" x="289.589256" xlink:href="#md0e408ff7a" y="362.4915"/>
      </g>
     </g>
     <g id="text_2">
      <!-- 0.1 -->
      <defs>
       <path d="M 12.40625 8.296875 
L 28.515625 8.296875 
L 28.515625 63.921875 
L 10.984375 60.40625 
L 10.984375 69.390625 
L 28.421875 72.90625 
L 38.28125 72.90625 
L 38.28125 8.296875 
L 54.390625 8.296875 
L 54.390625 0 
L 12.40625 0 
z
" id="DejaVuSans-49"/>
      </defs>
      <g transform="translate(281.637694 377.089938)scale(0.1 -0.1)">
       <use xlink:href="#DejaVuSans-48"/>
       <use x="63.623047" xlink:href="#DejaVuSans-46"/>
       <use x="95.410156" xlink:href="#DejaVuSans-49"/>
      </g>
     </g>
    </g>
    <g id="xtick_3">
     <g id="line2d_3">
      <g>
       <use style="stroke:#000000;stroke-width:0.8;" x="405.763238" xlink:href="#md0e408ff7a" y="362.4915"/>
      </g>
     </g>
     <g id="text_3">
      <!-- 0.2 -->
      <defs>
       <path d="M 19.1875 8.296875 
L 53.609375 8.296875 
L 53.609375 0 
L 7.328125 0 
L 7.328125 8.296875 
Q 12.9375 14.109375 22.625 23.890625 
Q 32.328125 33.6875 34.8125 36.53125 
Q 39.546875 41.84375 41.421875 45.53125 
Q 43.3125 49.21875 43.3125 52.78125 
Q 43.3125 58.59375 39.234375 62.25 
Q 35.15625 65.921875 28.609375 65.921875 
Q 23.96875 65.921875 18.8125 64.3125 
Q 13.671875 62.703125 7.8125 59.421875 
L 7.8125 69.390625 
Q 13.765625 71.78125 18.9375 73 
Q 24.125 74.21875 28.421875 74.21875 
Q 39.75 74.21875 46.484375 68.546875 
Q 53.21875 62.890625 53.21875 53.421875 
Q 53.21875 48.921875 51.53125 44.890625 
Q 49.859375 40.875 45.40625 35.40625 
Q 44.1875 33.984375 37.640625 27.21875 
Q 31.109375 20.453125 19.1875 8.296875 
z
" id="DejaVuSans-50"/>
      </defs>
      <g transform="translate(397.811676 377.089938)scale(0.1 -0.1)">
       <use xlink:href="#DejaVuSans-48"/>
       <use x="63.623047" xlink:href="#DejaVuSans-46"/>
       <use x="95.410156" xlink:href="#DejaVuSans-50"/>
      </g>
     </g>
    </g>
    <g id="xtick_4">
     <g id="line2d_4">
      <g>
       <use style="stroke:#000000;stroke-width:0.8;" x="521.937221" xlink:href="#md0e408ff7a" y="362.4915"/>
      </g>
     </g>
     <g id="text_4">
      <!-- 0.3 -->
      <defs>
       <path d="M 40.578125 39.3125 
Q 47.65625 37.796875 51.625 33 
Q 55.609375 28.21875 55.609375 21.1875 
Q 55.609375 10.40625 48.1875 4.484375 
Q 40.765625 -1.421875 27.09375 -1.421875 
Q 22.515625 -1.421875 17.65625 -0.515625 
Q 12.796875 0.390625 7.625 2.203125 
L 7.625 11.71875 
Q 11.71875 9.328125 16.59375 8.109375 
Q 21.484375 6.890625 26.8125 6.890625 
Q 36.078125 6.890625 40.9375 10.546875 
Q 45.796875 14.203125 45.796875 21.1875 
Q 45.796875 27.640625 41.28125 31.265625 
Q 36.765625 34.90625 28.71875 34.90625 
L 20.21875 34.90625 
L 20.21875 43.015625 
L 29.109375 43.015625 
Q 36.375 43.015625 40.234375 45.921875 
Q 44.09375 48.828125 44.09375 54.296875 
Q 44.09375 59.90625 40.109375 62.90625 
Q 36.140625 65.921875 28.71875 65.921875 
Q 24.65625 65.921875 20.015625 65.03125 
Q 15.375 64.15625 9.8125 62.3125 
L 9.8125 71.09375 
Q 15.4375 72.65625 20.34375 73.4375 
Q 25.25 74.21875 29.59375 74.21875 
Q 40.828125 74.21875 47.359375 69.109375 
Q 53.90625 64.015625 53.90625 55.328125 
Q 53.90625 49.265625 50.4375 45.09375 
Q 46.96875 40.921875 40.578125 39.3125 
z
" id="DejaVuSans-51"/>
      </defs>
      <g transform="translate(513.985658 377.089938)scale(0.1 -0.1)">
       <use xlink:href="#DejaVuSans-48"/>
       <use x="63.623047" xlink:href="#DejaVuSans-46"/>
       <use x="95.410156" xlink:href="#DejaVuSans-51"/>
      </g>
     </g>
    </g>
    <g id="xtick_5">
     <g id="line2d_5">
      <g>
       <use style="stroke:#000000;stroke-width:0.8;" x="638.111203" xlink:href="#md0e408ff7a" y="362.4915"/>
      </g>
     </g>
     <g id="text_5">
      <!-- 0.4 -->
      <defs>
       <path d="M 37.796875 64.3125 
L 12.890625 25.390625 
L 37.796875 25.390625 
z
M 35.203125 72.90625 
L 47.609375 72.90625 
L 47.609375 25.390625 
L 58.015625 25.390625 
L 58.015625 17.1875 
L 47.609375 17.1875 
L 47.609375 0 
L 37.796875 0 
L 37.796875 17.1875 
L 4.890625 17.1875 
L 4.890625 26.703125 
z
" id="DejaVuSans-52"/>
      </defs>
      <g transform="translate(630.15964 377.089938)scale(0.1 -0.1)">
       <use xlink:href="#DejaVuSans-48"/>
       <use x="63.623047" xlink:href="#DejaVuSans-46"/>
       <use x="95.410156" xlink:href="#DejaVuSans-52"/>
      </g>
     </g>
    </g>
    <g id="text_6">
     <!-- Tasa con NBI -->
     <defs>
      <path d="M -0.296875 72.90625 
L 61.375 72.90625 
L 61.375 64.59375 
L 35.5 64.59375 
L 35.5 0 
L 25.59375 0 
L 25.59375 64.59375 
L -0.296875 64.59375 
z
" id="DejaVuSans-84"/>
      <path d="M 34.28125 27.484375 
Q 23.390625 27.484375 19.1875 25 
Q 14.984375 22.515625 14.984375 16.5 
Q 14.984375 11.71875 18.140625 8.90625 
Q 21.296875 6.109375 26.703125 6.109375 
Q 34.1875 6.109375 38.703125 11.40625 
Q 43.21875 16.703125 43.21875 25.484375 
L 43.21875 27.484375 
z
M 52.203125 31.203125 
L 52.203125 0 
L 43.21875 0 
L 43.21875 8.296875 
Q 40.140625 3.328125 35.546875 0.953125 
Q 30.953125 -1.421875 24.3125 -1.421875 
Q 15.921875 -1.421875 10.953125 3.296875 
Q 6 8.015625 6 15.921875 
Q 6 25.140625 12.171875 29.828125 
Q 18.359375 34.515625 30.609375 34.515625 
L 43.21875 34.515625 
L 43.21875 35.40625 
Q 43.21875 41.609375 39.140625 45 
Q 35.0625 48.390625 27.6875 48.390625 
Q 23 48.390625 18.546875 47.265625 
Q 14.109375 46.140625 10.015625 43.890625 
L 10.015625 52.203125 
Q 14.9375 54.109375 19.578125 55.046875 
Q 24.21875 56 28.609375 56 
Q 40.484375 56 46.34375 49.84375 
Q 52.203125 43.703125 52.203125 31.203125 
z
" id="DejaVuSans-97"/>
      <path d="M 44.28125 53.078125 
L 44.28125 44.578125 
Q 40.484375 46.53125 36.375 47.5 
Q 32.28125 48.484375 27.875 48.484375 
Q 21.1875 48.484375 17.84375 46.4375 
Q 14.5 44.390625 14.5 40.28125 
Q 14.5 37.15625 16.890625 35.375 
Q 19.28125 33.59375 26.515625 31.984375 
L 29.59375 31.296875 
Q 39.15625 29.25 43.1875 25.515625 
Q 47.21875 21.78125 47.21875 15.09375 
Q 47.21875 7.46875 41.1875 3.015625 
Q 35.15625 -1.421875 24.609375 -1.421875 
Q 20.21875 -1.421875 15.453125 -0.5625 
Q 10.6875 0.296875 5.421875 2 
L 5.421875 11.28125 
Q 10.40625 8.6875 15.234375 7.390625 
Q 20.0625 6.109375 24.8125 6.109375 
Q 31.15625 6.109375 34.5625 8.28125 
Q 37.984375 10.453125 37.984375 14.40625 
Q 37.984375 18.0625 35.515625 20.015625 
Q 33.0625 21.96875 24.703125 23.78125 
L 21.578125 24.515625 
Q 13.234375 26.265625 9.515625 29.90625 
Q 5.8125 33.546875 5.8125 39.890625 
Q 5.8125 47.609375 11.28125 51.796875 
Q 16.75 56 26.8125 56 
Q 31.78125 56 36.171875 55.265625 
Q 40.578125 54.546875 44.28125 53.078125 
z
" id="DejaVuSans-115"/>
      <path id="DejaVuSans-32"/>
      <path d="M 48.78125 52.59375 
L 48.78125 44.1875 
Q 44.96875 46.296875 41.140625 47.34375 
Q 37.3125 48.390625 33.40625 48.390625 
Q 24.65625 48.390625 19.8125 42.84375 
Q 14.984375 37.3125 14.984375 27.296875 
Q 14.984375 17.28125 19.8125 11.734375 
Q 24.65625 6.203125 33.40625 6.203125 
Q 37.3125 6.203125 41.140625 7.25 
Q 44.96875 8.296875 48.78125 10.40625 
L 48.78125 2.09375 
Q 45.015625 0.34375 40.984375 -0.53125 
Q 36.96875 -1.421875 32.421875 -1.421875 
Q 20.0625 -1.421875 12.78125 6.34375 
Q 5.515625 14.109375 5.515625 27.296875 
Q 5.515625 40.671875 12.859375 48.328125 
Q 20.21875 56 33.015625 56 
Q 37.15625 56 41.109375 55.140625 
Q 45.0625 54.296875 48.78125 52.59375 
z
" id="DejaVuSans-99"/>
      <path d="M 30.609375 48.390625 
Q 23.390625 48.390625 19.1875 42.75 
Q 14.984375 37.109375 14.984375 27.296875 
Q 14.984375 17.484375 19.15625 11.84375 
Q 23.34375 6.203125 30.609375 6.203125 
Q 37.796875 6.203125 41.984375 11.859375 
Q 46.1875 17.53125 46.1875 27.296875 
Q 46.1875 37.015625 41.984375 42.703125 
Q 37.796875 48.390625 30.609375 48.390625 
z
M 30.609375 56 
Q 42.328125 56 49.015625 48.375 
Q 55.71875 40.765625 55.71875 27.296875 
Q 55.71875 13.875 49.015625 6.21875 
Q 42.328125 -1.421875 30.609375 -1.421875 
Q 18.84375 -1.421875 12.171875 6.21875 
Q 5.515625 13.875 5.515625 27.296875 
Q 5.515625 40.765625 12.171875 48.375 
Q 18.84375 56 30.609375 56 
z
" id="DejaVuSans-111"/>
      <path d="M 54.890625 33.015625 
L 54.890625 0 
L 45.90625 0 
L 45.90625 32.71875 
Q 45.90625 40.484375 42.875 44.328125 
Q 39.84375 48.1875 33.796875 48.1875 
Q 26.515625 48.1875 22.3125 43.546875 
Q 18.109375 38.921875 18.109375 30.90625 
L 18.109375 0 
L 9.078125 0 
L 9.078125 54.6875 
L 18.109375 54.6875 
L 18.109375 46.1875 
Q 21.34375 51.125 25.703125 53.5625 
Q 30.078125 56 35.796875 56 
Q 45.21875 56 50.046875 50.171875 
Q 54.890625 44.34375 54.890625 33.015625 
z
" id="DejaVuSans-110"/>
      <path d="M 9.8125 72.90625 
L 23.09375 72.90625 
L 55.421875 11.921875 
L 55.421875 72.90625 
L 64.984375 72.90625 
L 64.984375 0 
L 51.703125 0 
L 19.390625 60.984375 
L 19.390625 0 
L 9.8125 0 
z
" id="DejaVuSans-78"/>
      <path d="M 19.671875 34.8125 
L 19.671875 8.109375 
L 35.5 8.109375 
Q 43.453125 8.109375 47.28125 11.40625 
Q 51.125 14.703125 51.125 21.484375 
Q 51.125 28.328125 47.28125 31.5625 
Q 43.453125 34.8125 35.5 34.8125 
z
M 19.671875 64.796875 
L 19.671875 42.828125 
L 34.28125 42.828125 
Q 41.5 42.828125 45.03125 45.53125 
Q 48.578125 48.25 48.578125 53.8125 
Q 48.578125 59.328125 45.03125 62.0625 
Q 41.5 64.796875 34.28125 64.796875 
z
M 9.8125 72.90625 
L 35.015625 72.90625 
Q 46.296875 72.90625 52.390625 68.21875 
Q 58.5 63.53125 58.5 54.890625 
Q 58.5 48.1875 55.375 44.234375 
Q 52.25 40.28125 46.1875 39.3125 
Q 53.46875 37.75 57.5 32.78125 
Q 61.53125 27.828125 61.53125 20.40625 
Q 61.53125 10.640625 54.890625 5.3125 
Q 48.25 0 35.984375 0 
L 9.8125 0 
z
" id="DejaVuSans-66"/>
      <path d="M 9.8125 72.90625 
L 19.671875 72.90625 
L 19.671875 0 
L 9.8125 0 
z
" id="DejaVuSans-73"/>
     </defs>
     <g transform="translate(381.497656 390.768062)scale(0.1 -0.1)">
      <use xlink:href="#DejaVuSans-84"/>
      <use x="60.833984" xlink:href="#DejaVuSans-97"/>
      <use x="122.113281" xlink:href="#DejaVuSans-115"/>
      <use x="174.212891" xlink:href="#DejaVuSans-97"/>
      <use x="235.492188" xlink:href="#DejaVuSans-32"/>
      <use x="267.279297" xlink:href="#DejaVuSans-99"/>
      <use x="322.259766" xlink:href="#DejaVuSans-111"/>
      <use x="383.441406" xlink:href="#DejaVuSans-110"/>
      <use x="446.820312" xlink:href="#DejaVuSans-32"/>
      <use x="478.607422" xlink:href="#DejaVuSans-78"/>
      <use x="553.412109" xlink:href="#DejaVuSans-66"/>
      <use x="622.015625" xlink:href="#DejaVuSans-73"/>
     </g>
    </g>
   </g>
   <g id="matplotlib.axis_2">
    <g id="ytick_1">
     <g id="line2d_6">
      <defs>
       <path d="M 0 0 
L -3.5 0 
" id="mbd5681e60e" style="stroke:#000000;stroke-width:0.8;"/>
      </defs>
      <g>
       <use style="stroke:#000000;stroke-width:0.8;" x="135.073438" xlink:href="#mbd5681e60e" y="77.1015"/>
      </g>
     </g>
     <g id="text_7">
      <!-- Avanzado -->
      <defs>
       <path d="M 34.1875 63.1875 
L 20.796875 26.90625 
L 47.609375 26.90625 
z
M 28.609375 72.90625 
L 39.796875 72.90625 
L 67.578125 0 
L 57.328125 0 
L 50.6875 18.703125 
L 17.828125 18.703125 
L 11.1875 0 
L 0.78125 0 
z
" id="DejaVuSans-65"/>
       <path d="M 2.984375 54.6875 
L 12.5 54.6875 
L 29.59375 8.796875 
L 46.6875 54.6875 
L 56.203125 54.6875 
L 35.6875 0 
L 23.484375 0 
z
" id="DejaVuSans-118"/>
       <path d="M 5.515625 54.6875 
L 48.1875 54.6875 
L 48.1875 46.484375 
L 14.40625 7.171875 
L 48.1875 7.171875 
L 48.1875 0 
L 4.296875 0 
L 4.296875 8.203125 
L 38.09375 47.515625 
L 5.515625 47.515625 
z
" id="DejaVuSans-122"/>
       <path d="M 45.40625 46.390625 
L 45.40625 75.984375 
L 54.390625 75.984375 
L 54.390625 0 
L 45.40625 0 
L 45.40625 8.203125 
Q 42.578125 3.328125 38.25 0.953125 
Q 33.9375 -1.421875 27.875 -1.421875 
Q 17.96875 -1.421875 11.734375 6.484375 
Q 5.515625 14.40625 5.515625 27.296875 
Q 5.515625 40.1875 11.734375 48.09375 
Q 17.96875 56 27.875 56 
Q 33.9375 56 38.25 53.625 
Q 42.578125 51.265625 45.40625 46.390625 
z
M 14.796875 27.296875 
Q 14.796875 17.390625 18.875 11.75 
Q 22.953125 6.109375 30.078125 6.109375 
Q 37.203125 6.109375 41.296875 11.75 
Q 45.40625 17.390625 45.40625 27.296875 
Q 45.40625 37.203125 41.296875 42.84375 
Q 37.203125 48.484375 30.078125 48.484375 
Q 22.953125 48.484375 18.875 42.84375 
Q 14.796875 37.203125 14.796875 27.296875 
z
" id="DejaVuSans-100"/>
      </defs>
      <g transform="translate(79.0125 80.900719)scale(0.1 -0.1)">
       <use xlink:href="#DejaVuSans-65"/>
       <use x="68.330078" xlink:href="#DejaVuSans-118"/>
       <use x="127.509766" xlink:href="#DejaVuSans-97"/>
       <use x="188.789062" xlink:href="#DejaVuSans-110"/>
       <use x="252.167969" xlink:href="#DejaVuSans-122"/>
       <use x="304.658203" xlink:href="#DejaVuSans-97"/>
       <use x="365.9375" xlink:href="#DejaVuSans-100"/>
       <use x="429.414062" xlink:href="#DejaVuSans-111"/>
      </g>
     </g>
    </g>
    <g id="ytick_2">
     <g id="line2d_7">
      <g>
       <use style="stroke:#000000;stroke-width:0.8;" x="135.073438" xlink:href="#mbd5681e60e" y="158.6415"/>
      </g>
     </g>
     <g id="text_8">
      <!-- Satisfactorio -->
      <defs>
       <path d="M 53.515625 70.515625 
L 53.515625 60.890625 
Q 47.90625 63.578125 42.921875 64.890625 
Q 37.9375 66.21875 33.296875 66.21875 
Q 25.25 66.21875 20.875 63.09375 
Q 16.5 59.96875 16.5 54.203125 
Q 16.5 49.359375 19.40625 46.890625 
Q 22.3125 44.4375 30.421875 42.921875 
L 36.375 41.703125 
Q 47.40625 39.59375 52.65625 34.296875 
Q 57.90625 29 57.90625 20.125 
Q 57.90625 9.515625 50.796875 4.046875 
Q 43.703125 -1.421875 29.984375 -1.421875 
Q 24.8125 -1.421875 18.96875 -0.25 
Q 13.140625 0.921875 6.890625 3.21875 
L 6.890625 13.375 
Q 12.890625 10.015625 18.65625 8.296875 
Q 24.421875 6.59375 29.984375 6.59375 
Q 38.421875 6.59375 43.015625 9.90625 
Q 47.609375 13.234375 47.609375 19.390625 
Q 47.609375 24.75 44.3125 27.78125 
Q 41.015625 30.8125 33.5 32.328125 
L 27.484375 33.5 
Q 16.453125 35.6875 11.515625 40.375 
Q 6.59375 45.0625 6.59375 53.421875 
Q 6.59375 63.09375 13.40625 68.65625 
Q 20.21875 74.21875 32.171875 74.21875 
Q 37.3125 74.21875 42.625 73.28125 
Q 47.953125 72.359375 53.515625 70.515625 
z
" id="DejaVuSans-83"/>
       <path d="M 18.3125 70.21875 
L 18.3125 54.6875 
L 36.8125 54.6875 
L 36.8125 47.703125 
L 18.3125 47.703125 
L 18.3125 18.015625 
Q 18.3125 11.328125 20.140625 9.421875 
Q 21.96875 7.515625 27.59375 7.515625 
L 36.8125 7.515625 
L 36.8125 0 
L 27.59375 0 
Q 17.1875 0 13.234375 3.875 
Q 9.28125 7.765625 9.28125 18.015625 
L 9.28125 47.703125 
L 2.6875 47.703125 
L 2.6875 54.6875 
L 9.28125 54.6875 
L 9.28125 70.21875 
z
" id="DejaVuSans-116"/>
       <path d="M 9.421875 54.6875 
L 18.40625 54.6875 
L 18.40625 0 
L 9.421875 0 
z
M 9.421875 75.984375 
L 18.40625 75.984375 
L 18.40625 64.59375 
L 9.421875 64.59375 
z
" id="DejaVuSans-105"/>
       <path d="M 37.109375 75.984375 
L 37.109375 68.5 
L 28.515625 68.5 
Q 23.6875 68.5 21.796875 66.546875 
Q 19.921875 64.59375 19.921875 59.515625 
L 19.921875 54.6875 
L 34.71875 54.6875 
L 34.71875 47.703125 
L 19.921875 47.703125 
L 19.921875 0 
L 10.890625 0 
L 10.890625 47.703125 
L 2.296875 47.703125 
L 2.296875 54.6875 
L 10.890625 54.6875 
L 10.890625 58.5 
Q 10.890625 67.625 15.140625 71.796875 
Q 19.390625 75.984375 28.609375 75.984375 
z
" id="DejaVuSans-102"/>
       <path d="M 41.109375 46.296875 
Q 39.59375 47.171875 37.8125 47.578125 
Q 36.03125 48 33.890625 48 
Q 26.265625 48 22.1875 43.046875 
Q 18.109375 38.09375 18.109375 28.8125 
L 18.109375 0 
L 9.078125 0 
L 9.078125 54.6875 
L 18.109375 54.6875 
L 18.109375 46.1875 
Q 20.953125 51.171875 25.484375 53.578125 
Q 30.03125 56 36.53125 56 
Q 37.453125 56 38.578125 55.875 
Q 39.703125 55.765625 41.0625 55.515625 
z
" id="DejaVuSans-114"/>
      </defs>
      <g transform="translate(65.495313 162.440719)scale(0.1 -0.1)">
       <use xlink:href="#DejaVuSans-83"/>
       <use x="63.476562" xlink:href="#DejaVuSans-97"/>
       <use x="124.755859" xlink:href="#DejaVuSans-116"/>
       <use x="163.964844" xlink:href="#DejaVuSans-105"/>
       <use x="191.748047" xlink:href="#DejaVuSans-115"/>
       <use x="243.847656" xlink:href="#DejaVuSans-102"/>
       <use x="279.052734" xlink:href="#DejaVuSans-97"/>
       <use x="340.332031" xlink:href="#DejaVuSans-99"/>
       <use x="395.3125" xlink:href="#DejaVuSans-116"/>
       <use x="434.521484" xlink:href="#DejaVuSans-111"/>
       <use x="495.703125" xlink:href="#DejaVuSans-114"/>
       <use x="536.816406" xlink:href="#DejaVuSans-105"/>
       <use x="564.599609" xlink:href="#DejaVuSans-111"/>
      </g>
     </g>
    </g>
    <g id="ytick_3">
     <g id="line2d_8">
      <g>
       <use style="stroke:#000000;stroke-width:0.8;" x="135.073438" xlink:href="#mbd5681e60e" y="240.1815"/>
      </g>
     </g>
     <g id="text_9">
      <!-- Básico -->
      <defs>
       <path d="M 34.28125 27.484375 
Q 23.390625 27.484375 19.1875 25 
Q 14.984375 22.515625 14.984375 16.5 
Q 14.984375 11.71875 18.140625 8.90625 
Q 21.296875 6.109375 26.703125 6.109375 
Q 34.1875 6.109375 38.703125 11.40625 
Q 43.21875 16.703125 43.21875 25.484375 
L 43.21875 27.484375 
z
M 52.203125 31.203125 
L 52.203125 0 
L 43.21875 0 
L 43.21875 8.296875 
Q 40.140625 3.328125 35.546875 0.953125 
Q 30.953125 -1.421875 24.3125 -1.421875 
Q 15.921875 -1.421875 10.953125 3.296875 
Q 6 8.015625 6 15.921875 
Q 6 25.140625 12.171875 29.828125 
Q 18.359375 34.515625 30.609375 34.515625 
L 43.21875 34.515625 
L 43.21875 35.40625 
Q 43.21875 41.609375 39.140625 45 
Q 35.0625 48.390625 27.6875 48.390625 
Q 23 48.390625 18.546875 47.265625 
Q 14.109375 46.140625 10.015625 43.890625 
L 10.015625 52.203125 
Q 14.9375 54.109375 19.578125 55.046875 
Q 24.21875 56 28.609375 56 
Q 40.484375 56 46.34375 49.84375 
Q 52.203125 43.703125 52.203125 31.203125 
z
M 35.796875 79.984375 
L 45.515625 79.984375 
L 29.59375 61.625 
L 22.125 61.625 
z
" id="DejaVuSans-225"/>
      </defs>
      <g transform="translate(95.479688 243.980719)scale(0.1 -0.1)">
       <use xlink:href="#DejaVuSans-66"/>
       <use x="68.603516" xlink:href="#DejaVuSans-225"/>
       <use x="129.882812" xlink:href="#DejaVuSans-115"/>
       <use x="181.982422" xlink:href="#DejaVuSans-105"/>
       <use x="209.765625" xlink:href="#DejaVuSans-99"/>
       <use x="264.746094" xlink:href="#DejaVuSans-111"/>
      </g>
     </g>
    </g>
    <g id="ytick_4">
     <g id="line2d_9">
      <g>
       <use style="stroke:#000000;stroke-width:0.8;" x="135.073438" xlink:href="#mbd5681e60e" y="321.7215"/>
      </g>
     </g>
     <g id="text_10">
      <!-- Por debajo del básico -->
      <defs>
       <path d="M 19.671875 64.796875 
L 19.671875 37.40625 
L 32.078125 37.40625 
Q 38.96875 37.40625 42.71875 40.96875 
Q 46.484375 44.53125 46.484375 51.125 
Q 46.484375 57.671875 42.71875 61.234375 
Q 38.96875 64.796875 32.078125 64.796875 
z
M 9.8125 72.90625 
L 32.078125 72.90625 
Q 44.34375 72.90625 50.609375 67.359375 
Q 56.890625 61.8125 56.890625 51.125 
Q 56.890625 40.328125 50.609375 34.8125 
Q 44.34375 29.296875 32.078125 29.296875 
L 19.671875 29.296875 
L 19.671875 0 
L 9.8125 0 
z
" id="DejaVuSans-80"/>
       <path d="M 56.203125 29.59375 
L 56.203125 25.203125 
L 14.890625 25.203125 
Q 15.484375 15.921875 20.484375 11.0625 
Q 25.484375 6.203125 34.421875 6.203125 
Q 39.59375 6.203125 44.453125 7.46875 
Q 49.3125 8.734375 54.109375 11.28125 
L 54.109375 2.78125 
Q 49.265625 0.734375 44.1875 -0.34375 
Q 39.109375 -1.421875 33.890625 -1.421875 
Q 20.796875 -1.421875 13.15625 6.1875 
Q 5.515625 13.8125 5.515625 26.8125 
Q 5.515625 40.234375 12.765625 48.109375 
Q 20.015625 56 32.328125 56 
Q 43.359375 56 49.78125 48.890625 
Q 56.203125 41.796875 56.203125 29.59375 
z
M 47.21875 32.234375 
Q 47.125 39.59375 43.09375 43.984375 
Q 39.0625 48.390625 32.421875 48.390625 
Q 24.90625 48.390625 20.390625 44.140625 
Q 15.875 39.890625 15.1875 32.171875 
z
" id="DejaVuSans-101"/>
       <path d="M 48.6875 27.296875 
Q 48.6875 37.203125 44.609375 42.84375 
Q 40.53125 48.484375 33.40625 48.484375 
Q 26.265625 48.484375 22.1875 42.84375 
Q 18.109375 37.203125 18.109375 27.296875 
Q 18.109375 17.390625 22.1875 11.75 
Q 26.265625 6.109375 33.40625 6.109375 
Q 40.53125 6.109375 44.609375 11.75 
Q 48.6875 17.390625 48.6875 27.296875 
z
M 18.109375 46.390625 
Q 20.953125 51.265625 25.265625 53.625 
Q 29.59375 56 35.59375 56 
Q 45.5625 56 51.78125 48.09375 
Q 58.015625 40.1875 58.015625 27.296875 
Q 58.015625 14.40625 51.78125 6.484375 
Q 45.5625 -1.421875 35.59375 -1.421875 
Q 29.59375 -1.421875 25.265625 0.953125 
Q 20.953125 3.328125 18.109375 8.203125 
L 18.109375 0 
L 9.078125 0 
L 9.078125 75.984375 
L 18.109375 75.984375 
z
" id="DejaVuSans-98"/>
       <path d="M 9.421875 54.6875 
L 18.40625 54.6875 
L 18.40625 -0.984375 
Q 18.40625 -11.421875 14.421875 -16.109375 
Q 10.453125 -20.796875 1.609375 -20.796875 
L -1.8125 -20.796875 
L -1.8125 -13.1875 
L 0.59375 -13.1875 
Q 5.71875 -13.1875 7.5625 -10.8125 
Q 9.421875 -8.453125 9.421875 -0.984375 
z
M 9.421875 75.984375 
L 18.40625 75.984375 
L 18.40625 64.59375 
L 9.421875 64.59375 
z
" id="DejaVuSans-106"/>
       <path d="M 9.421875 75.984375 
L 18.40625 75.984375 
L 18.40625 0 
L 9.421875 0 
z
" id="DejaVuSans-108"/>
      </defs>
      <g transform="translate(21.048438 325.720719)scale(0.1 -0.1)">
       <use xlink:href="#DejaVuSans-80"/>
       <use x="60.255859" xlink:href="#DejaVuSans-111"/>
       <use x="121.4375" xlink:href="#DejaVuSans-114"/>
       <use x="162.550781" xlink:href="#DejaVuSans-32"/>
       <use x="194.337891" xlink:href="#DejaVuSans-100"/>
       <use x="257.814453" xlink:href="#DejaVuSans-101"/>
       <use x="319.337891" xlink:href="#DejaVuSans-98"/>
       <use x="382.814453" xlink:href="#DejaVuSans-97"/>
       <use x="444.09375" xlink:href="#DejaVuSans-106"/>
       <use x="471.876953" xlink:href="#DejaVuSans-111"/>
       <use x="533.058594" xlink:href="#DejaVuSans-32"/>
       <use x="564.845703" xlink:href="#DejaVuSans-100"/>
       <use x="628.322266" xlink:href="#DejaVuSans-101"/>
       <use x="689.845703" xlink:href="#DejaVuSans-108"/>
       <use x="717.628906" xlink:href="#DejaVuSans-32"/>
       <use x="749.416016" xlink:href="#DejaVuSans-98"/>
       <use x="812.892578" xlink:href="#DejaVuSans-225"/>
       <use x="874.171875" xlink:href="#DejaVuSans-115"/>
       <use x="926.271484" xlink:href="#DejaVuSans-105"/>
       <use x="954.054688" xlink:href="#DejaVuSans-99"/>
       <use x="1009.035156" xlink:href="#DejaVuSans-111"/>
      </g>
     </g>
    </g>
    <g id="text_11">
     <!-- Nivel de desempeño en naturales -->
     <defs>
      <path d="M 52 44.1875 
Q 55.375 50.25 60.0625 53.125 
Q 64.75 56 71.09375 56 
Q 79.640625 56 84.28125 50.015625 
Q 88.921875 44.046875 88.921875 33.015625 
L 88.921875 0 
L 79.890625 0 
L 79.890625 32.71875 
Q 79.890625 40.578125 77.09375 44.375 
Q 74.3125 48.1875 68.609375 48.1875 
Q 61.625 48.1875 57.5625 43.546875 
Q 53.515625 38.921875 53.515625 30.90625 
L 53.515625 0 
L 44.484375 0 
L 44.484375 32.71875 
Q 44.484375 40.625 41.703125 44.40625 
Q 38.921875 48.1875 33.109375 48.1875 
Q 26.21875 48.1875 22.15625 43.53125 
Q 18.109375 38.875 18.109375 30.90625 
L 18.109375 0 
L 9.078125 0 
L 9.078125 54.6875 
L 18.109375 54.6875 
L 18.109375 46.1875 
Q 21.1875 51.21875 25.484375 53.609375 
Q 29.78125 56 35.6875 56 
Q 41.65625 56 45.828125 52.96875 
Q 50 49.953125 52 44.1875 
z
" id="DejaVuSans-109"/>
      <path d="M 18.109375 8.203125 
L 18.109375 -20.796875 
L 9.078125 -20.796875 
L 9.078125 54.6875 
L 18.109375 54.6875 
L 18.109375 46.390625 
Q 20.953125 51.265625 25.265625 53.625 
Q 29.59375 56 35.59375 56 
Q 45.5625 56 51.78125 48.09375 
Q 58.015625 40.1875 58.015625 27.296875 
Q 58.015625 14.40625 51.78125 6.484375 
Q 45.5625 -1.421875 35.59375 -1.421875 
Q 29.59375 -1.421875 25.265625 0.953125 
Q 20.953125 3.328125 18.109375 8.203125 
z
M 48.6875 27.296875 
Q 48.6875 37.203125 44.609375 42.84375 
Q 40.53125 48.484375 33.40625 48.484375 
Q 26.265625 48.484375 22.1875 42.84375 
Q 18.109375 37.203125 18.109375 27.296875 
Q 18.109375 17.390625 22.1875 11.75 
Q 26.265625 6.109375 33.40625 6.109375 
Q 40.53125 6.109375 44.609375 11.75 
Q 48.6875 17.390625 48.6875 27.296875 
z
" id="DejaVuSans-112"/>
      <path d="M 54.890625 33.015625 
L 54.890625 0 
L 45.90625 0 
L 45.90625 32.71875 
Q 45.90625 40.484375 42.875 44.328125 
Q 39.84375 48.1875 33.796875 48.1875 
Q 26.515625 48.1875 22.3125 43.546875 
Q 18.109375 38.921875 18.109375 30.90625 
L 18.109375 0 
L 9.078125 0 
L 9.078125 54.6875 
L 18.109375 54.6875 
L 18.109375 46.1875 
Q 21.34375 51.125 25.703125 53.5625 
Q 30.078125 56 35.796875 56 
Q 45.21875 56 50.046875 50.171875 
Q 54.890625 44.34375 54.890625 33.015625 
z
M 32.234375 66.890625 
L 29.4375 69.578125 
Q 28.375 70.5625 27.5625 71.015625 
Q 26.765625 71.484375 26.125 71.484375 
Q 24.265625 71.484375 23.390625 69.703125 
Q 22.515625 67.921875 22.40625 63.921875 
L 16.3125 63.921875 
Q 16.40625 70.515625 18.890625 74.09375 
Q 21.390625 77.6875 25.828125 77.6875 
Q 27.6875 77.6875 29.25 77 
Q 30.8125 76.3125 32.625 74.703125 
L 35.40625 72.015625 
Q 36.46875 71.046875 37.28125 70.578125 
Q 38.09375 70.125 38.71875 70.125 
Q 40.578125 70.125 41.453125 71.90625 
Q 42.328125 73.6875 42.4375 77.6875 
L 48.53125 77.6875 
Q 48.4375 71.09375 45.9375 67.5 
Q 43.453125 63.921875 39.015625 63.921875 
Q 37.15625 63.921875 35.59375 64.59375 
Q 34.03125 65.28125 32.234375 66.890625 
z
" id="DejaVuSans-241"/>
      <path d="M 8.5 21.578125 
L 8.5 54.6875 
L 17.484375 54.6875 
L 17.484375 21.921875 
Q 17.484375 14.15625 20.5 10.265625 
Q 23.53125 6.390625 29.59375 6.390625 
Q 36.859375 6.390625 41.078125 11.03125 
Q 45.3125 15.671875 45.3125 23.6875 
L 45.3125 54.6875 
L 54.296875 54.6875 
L 54.296875 0 
L 45.3125 0 
L 45.3125 8.40625 
Q 42.046875 3.421875 37.71875 1 
Q 33.40625 -1.421875 27.6875 -1.421875 
Q 18.265625 -1.421875 13.375 4.4375 
Q 8.5 10.296875 8.5 21.578125 
z
M 31.109375 56 
z
" id="DejaVuSans-117"/>
     </defs>
     <g transform="translate(14.96875 283.651344)rotate(-90)scale(0.1 -0.1)">
      <use xlink:href="#DejaVuSans-78"/>
      <use x="74.804688" xlink:href="#DejaVuSans-105"/>
      <use x="102.587891" xlink:href="#DejaVuSans-118"/>
      <use x="161.767578" xlink:href="#DejaVuSans-101"/>
      <use x="223.291016" xlink:href="#DejaVuSans-108"/>
      <use x="251.074219" xlink:href="#DejaVuSans-32"/>
      <use x="282.861328" xlink:href="#DejaVuSans-100"/>
      <use x="346.337891" xlink:href="#DejaVuSans-101"/>
      <use x="407.861328" xlink:href="#DejaVuSans-32"/>
      <use x="439.648438" xlink:href="#DejaVuSans-100"/>
      <use x="503.125" xlink:href="#DejaVuSans-101"/>
      <use x="564.648438" xlink:href="#DejaVuSans-115"/>
      <use x="616.748047" xlink:href="#DejaVuSans-101"/>
      <use x="678.271484" xlink:href="#DejaVuSans-109"/>
      <use x="775.683594" xlink:href="#DejaVuSans-112"/>
      <use x="839.160156" xlink:href="#DejaVuSans-101"/>
      <use x="900.683594" xlink:href="#DejaVuSans-241"/>
      <use x="964.0625" xlink:href="#DejaVuSans-111"/>
      <use x="1025.244141" xlink:href="#DejaVuSans-32"/>
      <use x="1057.03125" xlink:href="#DejaVuSans-101"/>
      <use x="1118.554688" xlink:href="#DejaVuSans-110"/>
      <use x="1181.933594" xlink:href="#DejaVuSans-32"/>
      <use x="1213.720703" xlink:href="#DejaVuSans-110"/>
      <use x="1277.099609" xlink:href="#DejaVuSans-97"/>
      <use x="1338.378906" xlink:href="#DejaVuSans-116"/>
      <use x="1377.587891" xlink:href="#DejaVuSans-117"/>
      <use x="1440.966797" xlink:href="#DejaVuSans-114"/>
      <use x="1482.080078" xlink:href="#DejaVuSans-97"/>
      <use x="1543.359375" xlink:href="#DejaVuSans-108"/>
      <use x="1571.142578" xlink:href="#DejaVuSans-101"/>
      <use x="1632.666016" xlink:href="#DejaVuSans-115"/>
     </g>
    </g>
   </g>
   <g id="line2d_10">
    <path clip-path="url(#pb17337b10b)" d="M 193.160429 77.1015 
L 396.616271 77.1015 
" style="fill:none;stroke:#262626;stroke-linecap:square;stroke-width:1.5;"/>
   </g>
   <g id="line2d_11">
    <path clip-path="url(#pb17337b10b)" d="M 225.007256 77.1015 
L 294.659492 77.1015 
" style="fill:none;stroke:#262626;stroke-linecap:square;stroke-width:4.5;"/>
   </g>
   <g id="line2d_12">
    <path clip-path="url(#pb17337b10b)" d="M 193.160429 158.6415 
L 421.014253 158.6415 
" style="fill:none;stroke:#262626;stroke-linecap:square;stroke-width:1.5;"/>
   </g>
   <g id="line2d_13">
    <path clip-path="url(#pb17337b10b)" d="M 231.044198 158.6415 
L 310.378713 158.6415 
" style="fill:none;stroke:#262626;stroke-linecap:square;stroke-width:4.5;"/>
   </g>
   <g id="line2d_14">
    <path clip-path="url(#pb17337b10b)" d="M 193.160429 240.1815 
L 421.014253 240.1815 
" style="fill:none;stroke:#262626;stroke-linecap:square;stroke-width:1.5;"/>
   </g>
   <g id="line2d_15">
    <path clip-path="url(#pb17337b10b)" d="M 240.362194 240.1815 
L 312.878477 240.1815 
" style="fill:none;stroke:#262626;stroke-linecap:square;stroke-width:4.5;"/>
   </g>
   <g id="line2d_16">
    <path clip-path="url(#pb17337b10b)" d="M 193.160429 321.7215 
L 410.558741 321.7215 
" style="fill:none;stroke:#262626;stroke-linecap:square;stroke-width:1.5;"/>
   </g>
   <g id="line2d_17">
    <path clip-path="url(#pb17337b10b)" d="M 240.362194 321.7215 
L 312.090749 321.7215 
" style="fill:none;stroke:#262626;stroke-linecap:square;stroke-width:4.5;"/>
   </g>
   <g id="patch_3">
    <path d="M 135.073438 362.4915 
L 135.073438 36.3315 
" style="fill:none;stroke:#000000;stroke-linecap:square;stroke-linejoin:miter;stroke-width:0.8;"/>
   </g>
   <g id="patch_4">
    <path d="M 693.073437 362.4915 
L 693.073437 36.3315 
" style="fill:none;stroke:#000000;stroke-linecap:square;stroke-linejoin:miter;stroke-width:0.8;"/>
   </g>
   <g id="patch_5">
    <path d="M 135.073438 362.4915 
L 693.073437 362.4915 
" style="fill:none;stroke:#000000;stroke-linecap:square;stroke-linejoin:miter;stroke-width:0.8;"/>
   </g>
   <g id="patch_6">
    <path d="M 135.073438 36.3315 
L 693.073437 36.3315 
" style="fill:none;stroke:#000000;stroke-linecap:square;stroke-linejoin:miter;stroke-width:0.8;"/>
   </g>
   <g id="PathCollection_1">
    <defs>
     <path d="M 0 1.5 
C 0.397805 1.5 0.77937 1.341951 1.06066 1.06066 
C 1.341951 0.77937 1.5 0.397805 1.5 0 
C 1.5 -0.397805 1.341951 -0.77937 1.06066 -1.06066 
C 0.77937 -1.341951 0.397805 -1.5 0 -1.5 
C -0.397805 -1.5 -0.77937 -1.341951 -1.06066 -1.06066 
C -1.341951 -0.77937 -1.5 -0.397805 -1.5 0 
C -1.5 0.397805 -1.341951 0.77937 -1.06066 1.06066 
C -0.77937 1.341951 -0.397805 1.5 0 1.5 
z
" id="mcab4c3bd44" style="stroke:#262626;"/>
    </defs>
    <g clip-path="url(#pb17337b10b)">
     <use style="fill:#ffffff;stroke:#262626;" x="248.461598" xlink:href="#mcab4c3bd44" y="77.1015"/>
    </g>
   </g>
   <g id="PathCollection_2">
    <g clip-path="url(#pb17337b10b)">
     <use style="fill:#ffffff;stroke:#262626;" x="271.062878" xlink:href="#mcab4c3bd44" y="158.6415"/>
    </g>
   </g>
   <g id="PathCollection_3">
    <g clip-path="url(#pb17337b10b)">
     <use style="fill:#ffffff;stroke:#262626;" x="280.399501" xlink:href="#mcab4c3bd44" y="240.1815"/>
    </g>
   </g>
   <g id="PathCollection_4">
    <g clip-path="url(#pb17337b10b)">
     <use style="fill:#ffffff;stroke:#262626;" x="282.998076" xlink:href="#mcab4c3bd44" y="321.7215"/>
    </g>
   </g>
   <g id="text_12">
    <!-- Distribución de: Tasa con NBI según el desempeño en naturales -->
    <defs>
     <path d="M 19.671875 64.796875 
L 19.671875 8.109375 
L 31.59375 8.109375 
Q 46.6875 8.109375 53.6875 14.9375 
Q 60.6875 21.78125 60.6875 36.53125 
Q 60.6875 51.171875 53.6875 57.984375 
Q 46.6875 64.796875 31.59375 64.796875 
z
M 9.8125 72.90625 
L 30.078125 72.90625 
Q 51.265625 72.90625 61.171875 64.09375 
Q 71.09375 55.28125 71.09375 36.53125 
Q 71.09375 17.671875 61.125 8.828125 
Q 51.171875 0 30.078125 0 
L 9.8125 0 
z
" id="DejaVuSans-68"/>
     <path d="M 30.609375 48.390625 
Q 23.390625 48.390625 19.1875 42.75 
Q 14.984375 37.109375 14.984375 27.296875 
Q 14.984375 17.484375 19.15625 11.84375 
Q 23.34375 6.203125 30.609375 6.203125 
Q 37.796875 6.203125 41.984375 11.859375 
Q 46.1875 17.53125 46.1875 27.296875 
Q 46.1875 37.015625 41.984375 42.703125 
Q 37.796875 48.390625 30.609375 48.390625 
z
M 30.609375 56 
Q 42.328125 56 49.015625 48.375 
Q 55.71875 40.765625 55.71875 27.296875 
Q 55.71875 13.875 49.015625 6.21875 
Q 42.328125 -1.421875 30.609375 -1.421875 
Q 18.84375 -1.421875 12.171875 6.21875 
Q 5.515625 13.875 5.515625 27.296875 
Q 5.515625 40.765625 12.171875 48.375 
Q 18.84375 56 30.609375 56 
z
M 37.40625 79.984375 
L 47.125 79.984375 
L 31.203125 61.625 
L 23.734375 61.625 
z
" id="DejaVuSans-243"/>
     <path d="M 11.71875 12.40625 
L 22.015625 12.40625 
L 22.015625 0 
L 11.71875 0 
z
M 11.71875 51.703125 
L 22.015625 51.703125 
L 22.015625 39.3125 
L 11.71875 39.3125 
z
" id="DejaVuSans-58"/>
     <path d="M 45.40625 27.984375 
Q 45.40625 37.75 41.375 43.109375 
Q 37.359375 48.484375 30.078125 48.484375 
Q 22.859375 48.484375 18.828125 43.109375 
Q 14.796875 37.75 14.796875 27.984375 
Q 14.796875 18.265625 18.828125 12.890625 
Q 22.859375 7.515625 30.078125 7.515625 
Q 37.359375 7.515625 41.375 12.890625 
Q 45.40625 18.265625 45.40625 27.984375 
z
M 54.390625 6.78125 
Q 54.390625 -7.171875 48.1875 -13.984375 
Q 42 -20.796875 29.203125 -20.796875 
Q 24.46875 -20.796875 20.265625 -20.09375 
Q 16.0625 -19.390625 12.109375 -17.921875 
L 12.109375 -9.1875 
Q 16.0625 -11.328125 19.921875 -12.34375 
Q 23.78125 -13.375 27.78125 -13.375 
Q 36.625 -13.375 41.015625 -8.765625 
Q 45.40625 -4.15625 45.40625 5.171875 
L 45.40625 9.625 
Q 42.625 4.78125 38.28125 2.390625 
Q 33.9375 0 27.875 0 
Q 17.828125 0 11.671875 7.65625 
Q 5.515625 15.328125 5.515625 27.984375 
Q 5.515625 40.671875 11.671875 48.328125 
Q 17.828125 56 27.875 56 
Q 33.9375 56 38.28125 53.609375 
Q 42.625 51.21875 45.40625 46.390625 
L 45.40625 54.6875 
L 54.390625 54.6875 
z
" id="DejaVuSans-103"/>
     <path d="M 8.5 21.578125 
L 8.5 54.6875 
L 17.484375 54.6875 
L 17.484375 21.921875 
Q 17.484375 14.15625 20.5 10.265625 
Q 23.53125 6.390625 29.59375 6.390625 
Q 36.859375 6.390625 41.078125 11.03125 
Q 45.3125 15.671875 45.3125 23.6875 
L 45.3125 54.6875 
L 54.296875 54.6875 
L 54.296875 0 
L 45.3125 0 
L 45.3125 8.40625 
Q 42.046875 3.421875 37.71875 1 
Q 33.40625 -1.421875 27.6875 -1.421875 
Q 18.265625 -1.421875 13.375 4.4375 
Q 8.5 10.296875 8.5 21.578125 
z
M 31.109375 56 
z
M 37.796875 79.984375 
L 47.515625 79.984375 
L 31.59375 61.625 
L 24.125 61.625 
z
" id="DejaVuSans-250"/>
    </defs>
    <g transform="translate(221.67875 16.798125)scale(0.12 -0.12)">
     <use xlink:href="#DejaVuSans-68"/>
     <use x="77.001953" xlink:href="#DejaVuSans-105"/>
     <use x="104.785156" xlink:href="#DejaVuSans-115"/>
     <use x="156.884766" xlink:href="#DejaVuSans-116"/>
     <use x="196.09375" xlink:href="#DejaVuSans-114"/>
     <use x="237.207031" xlink:href="#DejaVuSans-105"/>
     <use x="264.990234" xlink:href="#DejaVuSans-98"/>
     <use x="328.466797" xlink:href="#DejaVuSans-117"/>
     <use x="391.845703" xlink:href="#DejaVuSans-99"/>
     <use x="446.826172" xlink:href="#DejaVuSans-105"/>
     <use x="474.609375" xlink:href="#DejaVuSans-243"/>
     <use x="535.791016" xlink:href="#DejaVuSans-110"/>
     <use x="599.169922" xlink:href="#DejaVuSans-32"/>
     <use x="630.957031" xlink:href="#DejaVuSans-100"/>
     <use x="694.433594" xlink:href="#DejaVuSans-101"/>
     <use x="755.957031" xlink:href="#DejaVuSans-58"/>
     <use x="789.648438" xlink:href="#DejaVuSans-32"/>
     <use x="821.435547" xlink:href="#DejaVuSans-84"/>
     <use x="882.269531" xlink:href="#DejaVuSans-97"/>
     <use x="943.548828" xlink:href="#DejaVuSans-115"/>
     <use x="995.648438" xlink:href="#DejaVuSans-97"/>
     <use x="1056.927734" xlink:href="#DejaVuSans-32"/>
     <use x="1088.714844" xlink:href="#DejaVuSans-99"/>
     <use x="1143.695312" xlink:href="#DejaVuSans-111"/>
     <use x="1204.876953" xlink:href="#DejaVuSans-110"/>
     <use x="1268.255859" xlink:href="#DejaVuSans-32"/>
     <use x="1300.042969" xlink:href="#DejaVuSans-78"/>
     <use x="1374.847656" xlink:href="#DejaVuSans-66"/>
     <use x="1443.451172" xlink:href="#DejaVuSans-73"/>
     <use x="1472.943359" xlink:href="#DejaVuSans-32"/>
     <use x="1504.730469" xlink:href="#DejaVuSans-115"/>
     <use x="1556.830078" xlink:href="#DejaVuSans-101"/>
     <use x="1618.353516" xlink:href="#DejaVuSans-103"/>
     <use x="1681.830078" xlink:href="#DejaVuSans-250"/>
     <use x="1745.208984" xlink:href="#DejaVuSans-110"/>
     <use x="1808.587891" xlink:href="#DejaVuSans-32"/>
     <use x="1840.375" xlink:href="#DejaVuSans-101"/>
     <use x="1901.898438" xlink:href="#DejaVuSans-108"/>
     <use x="1929.681641" xlink:href="#DejaVuSans-32"/>
     <use x="1961.46875" xlink:href="#DejaVuSans-100"/>
     <use x="2024.945312" xlink:href="#DejaVuSans-101"/>
     <use x="2086.46875" xlink:href="#DejaVuSans-115"/>
     <use x="2138.568359" xlink:href="#DejaVuSans-101"/>
     <use x="2200.091797" xlink:href="#DejaVuSans-109"/>
     <use x="2297.503906" xlink:href="#DejaVuSans-112"/>
     <use x="2360.980469" xlink:href="#DejaVuSans-101"/>
     <use x="2422.503906" xlink:href="#DejaVuSans-241"/>
     <use x="2485.882812" xlink:href="#DejaVuSans-111"/>
     <use x="2547.064453" xlink:href="#DejaVuSans-32"/>
     <use x="2578.851562" xlink:href="#DejaVuSans-101"/>
     <use x="2640.375" xlink:href="#DejaVuSans-110"/>
     <use x="2703.753906" xlink:href="#DejaVuSans-32"/>
     <use x="2735.541016" xlink:href="#DejaVuSans-110"/>
     <use x="2798.919922" xlink:href="#DejaVuSans-97"/>
     <use x="2860.199219" xlink:href="#DejaVuSans-116"/>
     <use x="2899.408203" xlink:href="#DejaVuSans-117"/>
     <use x="2962.787109" xlink:href="#DejaVuSans-114"/>
     <use x="3003.900391" xlink:href="#DejaVuSans-97"/>
     <use x="3065.179688" xlink:href="#DejaVuSans-108"/>
     <use x="3092.962891" xlink:href="#DejaVuSans-101"/>
     <use x="3154.486328" xlink:href="#DejaVuSans-115"/>
    </g>
    <!--  Nivel: Primaria -->
    <g transform="translate(368.090937 30.2355)scale(0.12 -0.12)">
     <use xlink:href="#DejaVuSans-32"/>
     <use x="31.787109" xlink:href="#DejaVuSans-78"/>
     <use x="106.591797" xlink:href="#DejaVuSans-105"/>
     <use x="134.375" xlink:href="#DejaVuSans-118"/>
     <use x="193.554688" xlink:href="#DejaVuSans-101"/>
     <use x="255.078125" xlink:href="#DejaVuSans-108"/>
     <use x="282.861328" xlink:href="#DejaVuSans-58"/>
     <use x="316.552734" xlink:href="#DejaVuSans-32"/>
     <use x="348.339844" xlink:href="#DejaVuSans-80"/>
     <use x="408.626953" xlink:href="#DejaVuSans-114"/>
     <use x="449.740234" xlink:href="#DejaVuSans-105"/>
     <use x="477.523438" xlink:href="#DejaVuSans-109"/>
     <use x="574.935547" xlink:href="#DejaVuSans-97"/>
     <use x="636.214844" xlink:href="#DejaVuSans-114"/>
     <use x="677.328125" xlink:href="#DejaVuSans-105"/>
     <use x="705.111328" xlink:href="#DejaVuSans-97"/>
    </g>
   </g>
  </g>
 </g>
 <defs>
  <clipPath id="pb17337b10b">
   <rect height="326.16" width="558" x="135.073438" y="36.3315"/>
  </clipPath>
 </defs>
</svg>
