<?xml version="1.0" encoding="utf-8" standalone="no"?>
<!DOCTYPE svg PUBLIC "-//W3C//DTD SVG 1.1//EN"
  "http://www.w3.org/Graphics/SVG/1.1/DTD/svg11.dtd">
<!-- Created with matplotlib (https://matplotlib.org/) -->
<svg height="400.04775pt" version="1.1" viewBox="0 0 703.773437 400.04775" width="703.773437pt" xmlns="http://www.w3.org/2000/svg" xmlns:xlink="http://www.w3.org/1999/xlink">
 <defs>
  <style type="text/css">
*{stroke-linecap:butt;stroke-linejoin:round;}
  </style>
 </defs>
 <g id="figure_1">
  <g id="patch_1">
   <path d="M 0 400.04775 
L 703.773437 400.04775 
L 703.773437 0 
L 0 0 
z
" style="fill:#ffffff;"/>
  </g>
  <g id="axes_1">
   <g id="patch_2">
    <path d="M 135.073438 362.4915 
L 693.073437 362.4915 
L 693.073437 36.3315 
L 135.073438 36.3315 
z
" style="fill:#ffffff;"/>
   </g>
   <g id="PolyCollection_1">
    <defs>
     <path d="M 147.037416 -322.610958 
L 147.037416 -323.281542 
L 152.337055 -324.11357 
L 157.636694 -326.1001 
L 162.936332 -329.612178 
L 168.235971 -334.121243 
L 173.53561 -338.178495 
L 178.835249 -340.592729 
L 184.134888 -341.602384 
L 189.434527 -342.518161 
L 194.734166 -344.332229 
L 200.033804 -346.980904 
L 205.333443 -349.71585 
L 210.633082 -351.769702 
L 215.932721 -352.755762 
L 221.23236 -352.768318 
L 226.531999 -352.201028 
L 231.831637 -351.444899 
L 237.131276 -350.803544 
L 242.430915 -350.647061 
L 247.730554 -351.345244 
L 253.030193 -352.840935 
L 258.329832 -354.482981 
L 263.62947 -355.499512 
L 268.929109 -355.56225 
L 274.228748 -354.827928 
L 279.528387 -353.611582 
L 284.828026 -352.183993 
L 290.127665 -350.76821 
L 295.427304 -349.453682 
L 300.726942 -348.047108 
L 306.026581 -346.229944 
L 311.32622 -343.970598 
L 316.625859 -341.62574 
L 321.925498 -339.586935 
L 327.225137 -337.97003 
L 332.524775 -336.660115 
L 337.824414 -335.537508 
L 343.124053 -334.62727 
L 348.423692 -334.034247 
L 353.723331 -333.734452 
L 359.02297 -333.512695 
L 364.322608 -333.170533 
L 369.622247 -332.72991 
L 374.921886 -332.339226 
L 380.221525 -332.002576 
L 385.521164 -331.518347 
L 390.820803 -330.734104 
L 396.120442 -329.771784 
L 401.42008 -328.917433 
L 406.719719 -328.335479 
L 412.019358 -327.954961 
L 417.318997 -327.598863 
L 422.618636 -327.15939 
L 427.918275 -326.653131 
L 433.217913 -326.167253 
L 438.517552 -325.786176 
L 443.817191 -325.537661 
L 449.11683 -325.3655 
L 454.416469 -325.165029 
L 459.716108 -324.873862 
L 465.015747 -324.520286 
L 470.315385 -324.186568 
L 475.615024 -323.952726 
L 480.914663 -323.85871 
L 486.214302 -323.877744 
L 491.513941 -323.932123 
L 496.81358 -323.965765 
L 502.113218 -323.993456 
L 507.412857 -324.055886 
L 512.712496 -324.140275 
L 518.012135 -324.177892 
L 523.311774 -324.117695 
L 528.611413 -323.973725 
L 533.911051 -323.802318 
L 539.21069 -323.65604 
L 544.510329 -323.554521 
L 549.809968 -323.484761 
L 555.109607 -323.427742 
L 560.409246 -323.377758 
L 565.708885 -323.33353 
L 571.008523 -323.289209 
L 576.308162 -323.244416 
L 581.607801 -323.209296 
L 586.90744 -323.190964 
L 592.207079 -323.182447 
L 597.506718 -323.168984 
L 602.806356 -323.141149 
L 608.105995 -323.101343 
L 613.405634 -323.060936 
L 618.705273 -323.032075 
L 624.004912 -323.021372 
L 629.304551 -323.02939 
L 634.604189 -323.051571 
L 639.903828 -323.077475 
L 645.203467 -323.092496 
L 650.503106 -323.084889 
L 655.802745 -323.054343 
L 661.102384 -323.013705 
L 666.402023 -322.979229 
L 671.701661 -322.958689 
L 671.701661 -322.933811 
L 671.701661 -322.933811 
L 666.402023 -322.913271 
L 661.102384 -322.878795 
L 655.802745 -322.838157 
L 650.503106 -322.807611 
L 645.203467 -322.800004 
L 639.903828 -322.815025 
L 634.604189 -322.840929 
L 629.304551 -322.86311 
L 624.004912 -322.871128 
L 618.705273 -322.860425 
L 613.405634 -322.831564 
L 608.105995 -322.791157 
L 602.806356 -322.751351 
L 597.506718 -322.723516 
L 592.207079 -322.710053 
L 586.90744 -322.701536 
L 581.607801 -322.683204 
L 576.308162 -322.648084 
L 571.008523 -322.603291 
L 565.708885 -322.55897 
L 560.409246 -322.514742 
L 555.109607 -322.464758 
L 549.809968 -322.407739 
L 544.510329 -322.337979 
L 539.21069 -322.23646 
L 533.911051 -322.090182 
L 528.611413 -321.918775 
L 523.311774 -321.774805 
L 518.012135 -321.714608 
L 512.712496 -321.752225 
L 507.412857 -321.836614 
L 502.113218 -321.899044 
L 496.81358 -321.926735 
L 491.513941 -321.960377 
L 486.214302 -322.014756 
L 480.914663 -322.03379 
L 475.615024 -321.939774 
L 470.315385 -321.705932 
L 465.015747 -321.372214 
L 459.716108 -321.018638 
L 454.416469 -320.727471 
L 449.11683 -320.527 
L 443.817191 -320.354839 
L 438.517552 -320.106324 
L 433.217913 -319.725247 
L 427.918275 -319.239369 
L 422.618636 -318.73311 
L 417.318997 -318.293637 
L 412.019358 -317.937539 
L 406.719719 -317.557021 
L 401.42008 -316.975067 
L 396.120442 -316.120716 
L 390.820803 -315.158396 
L 385.521164 -314.374153 
L 380.221525 -313.889924 
L 374.921886 -313.553274 
L 369.622247 -313.16259 
L 364.322608 -312.721967 
L 359.02297 -312.379805 
L 353.723331 -312.158048 
L 348.423692 -311.858253 
L 343.124053 -311.26523 
L 337.824414 -310.354992 
L 332.524775 -309.232385 
L 327.225137 -307.92247 
L 321.925498 -306.305565 
L 316.625859 -304.26676 
L 311.32622 -301.921902 
L 306.026581 -299.662556 
L 300.726942 -297.845392 
L 295.427304 -296.438818 
L 290.127665 -295.12429 
L 284.828026 -293.708507 
L 279.528387 -292.280918 
L 274.228748 -291.064572 
L 268.929109 -290.33025 
L 263.62947 -290.392988 
L 258.329832 -291.409519 
L 253.030193 -293.051565 
L 247.730554 -294.547256 
L 242.430915 -295.245439 
L 237.131276 -295.088956 
L 231.831637 -294.447601 
L 226.531999 -293.691472 
L 221.23236 -293.124182 
L 215.932721 -293.136738 
L 210.633082 -294.122798 
L 205.333443 -296.17665 
L 200.033804 -298.911596 
L 194.734166 -301.560271 
L 189.434527 -303.374339 
L 184.134888 -304.290116 
L 178.835249 -305.299771 
L 173.53561 -307.714005 
L 168.235971 -311.771257 
L 162.936332 -316.280322 
L 157.636694 -319.7924 
L 152.337055 -321.77893 
L 147.037416 -322.610958 
z
" id="m27c8eb0aaf" style="stroke:#262626;stroke-width:1.5;"/>
    </defs>
    <g clip-path="url(#p52ff410953)">
     <use style="fill:#107010;stroke:#262626;stroke-width:1.5;" x="0" xlink:href="#m27c8eb0aaf" y="400.04775"/>
    </g>
   </g>
   <g id="PolyCollection_2">
    <defs>
     <path d="M 151.12309 -241.348155 
L 151.12309 -241.464345 
L 156.435218 -241.833594 
L 161.747346 -243.352369 
L 167.059474 -246.909548 
L 172.371603 -251.326907 
L 177.683731 -253.645044 
L 182.995859 -253.338594 
L 188.307987 -252.877128 
L 193.620116 -254.049888 
L 198.932244 -256.328484 
L 204.244372 -258.419106 
L 209.5565 -259.726866 
L 214.868629 -260.397517 
L 220.180757 -260.881353 
L 225.492885 -261.357549 
L 230.805013 -262.165489 
L 236.117141 -263.560689 
L 241.42927 -264.885999 
L 246.741398 -265.768579 
L 252.053526 -267.093528 
L 257.365654 -269.267802 
L 262.677783 -271.179283 
L 267.989911 -272.000797 
L 273.302039 -271.940122 
L 278.614167 -271.070644 
L 283.926296 -269.510713 
L 289.238424 -268.091328 
L 294.550552 -267.433652 
L 299.86268 -267.063332 
L 305.174809 -266.015981 
L 310.486937 -264.266935 
L 315.799065 -262.657947 
L 321.111193 -261.421984 
L 326.423322 -260.123606 
L 331.73545 -258.892243 
L 337.047578 -257.959616 
L 342.359706 -257.168168 
L 347.671835 -256.872306 
L 352.983963 -257.589223 
L 358.296091 -258.722302 
L 363.608219 -258.98113 
L 368.920347 -258.268941 
L 374.232476 -257.437083 
L 379.544604 -256.60753 
L 384.856732 -255.581842 
L 390.16886 -254.242047 
L 395.480989 -252.614491 
L 400.793117 -251.257516 
L 406.105245 -250.725437 
L 411.417373 -250.731828 
L 416.729502 -250.57469 
L 422.04163 -250.029218 
L 427.353758 -249.195917 
L 432.665886 -248.065562 
L 437.978015 -246.926192 
L 443.290143 -246.317699 
L 448.602271 -246.175115 
L 453.914399 -246.04028 
L 459.226528 -245.688416 
L 464.538656 -245.186623 
L 469.850784 -244.709993 
L 475.162912 -244.2747 
L 480.47504 -243.968398 
L 485.787169 -243.967611 
L 491.099297 -243.999025 
L 496.411425 -243.784698 
L 501.723553 -243.539063 
L 507.035682 -243.442708 
L 512.34781 -243.355125 
L 517.659938 -243.149905 
L 522.972066 -242.960731 
L 528.284195 -242.87273 
L 533.596323 -242.773524 
L 538.908451 -242.601061 
L 544.220579 -242.3709 
L 549.532708 -242.166202 
L 554.844836 -242.051657 
L 560.156964 -241.975077 
L 565.469092 -241.924869 
L 570.781221 -241.92428 
L 576.093349 -241.937636 
L 581.405477 -241.947465 
L 586.717605 -241.986039 
L 592.029734 -242.01028 
L 597.341862 -241.958715 
L 602.65399 -241.887831 
L 607.966118 -241.840614 
L 613.278246 -241.784053 
L 618.590375 -241.697061 
L 623.902503 -241.611184 
L 629.214631 -241.566814 
L 634.526759 -241.56259 
L 639.838888 -241.564369 
L 645.151016 -241.539815 
L 650.463144 -241.491343 
L 655.775272 -241.447763 
L 661.087401 -241.42361 
L 666.399529 -241.413372 
L 671.711657 -241.408859 
L 677.023785 -241.4069 
L 677.023785 -241.4056 
L 677.023785 -241.4056 
L 671.711657 -241.403641 
L 666.399529 -241.399128 
L 661.087401 -241.38889 
L 655.775272 -241.364737 
L 650.463144 -241.321157 
L 645.151016 -241.272685 
L 639.838888 -241.248131 
L 634.526759 -241.24991 
L 629.214631 -241.245686 
L 623.902503 -241.201316 
L 618.590375 -241.115439 
L 613.278246 -241.028447 
L 607.966118 -240.971886 
L 602.65399 -240.924669 
L 597.341862 -240.853785 
L 592.029734 -240.80222 
L 586.717605 -240.826461 
L 581.405477 -240.865035 
L 576.093349 -240.874864 
L 570.781221 -240.88822 
L 565.469092 -240.887631 
L 560.156964 -240.837423 
L 554.844836 -240.760843 
L 549.532708 -240.646298 
L 544.220579 -240.4416 
L 538.908451 -240.211439 
L 533.596323 -240.038976 
L 528.284195 -239.93977 
L 522.972066 -239.851769 
L 517.659938 -239.662595 
L 512.34781 -239.457375 
L 507.035682 -239.369792 
L 501.723553 -239.273437 
L 496.411425 -239.027802 
L 491.099297 -238.813475 
L 485.787169 -238.844889 
L 480.47504 -238.844102 
L 475.162912 -238.5378 
L 469.850784 -238.102507 
L 464.538656 -237.625877 
L 459.226528 -237.124084 
L 453.914399 -236.77222 
L 448.602271 -236.637385 
L 443.290143 -236.494801 
L 437.978015 -235.886308 
L 432.665886 -234.746938 
L 427.353758 -233.616583 
L 422.04163 -232.783282 
L 416.729502 -232.23781 
L 411.417373 -232.080672 
L 406.105245 -232.087063 
L 400.793117 -231.554984 
L 395.480989 -230.198009 
L 390.16886 -228.570453 
L 384.856732 -227.230658 
L 379.544604 -226.20497 
L 374.232476 -225.375417 
L 368.920347 -224.543559 
L 363.608219 -223.83137 
L 358.296091 -224.090198 
L 352.983963 -225.223277 
L 347.671835 -225.940194 
L 342.359706 -225.644332 
L 337.047578 -224.852884 
L 331.73545 -223.920257 
L 326.423322 -222.688894 
L 321.111193 -221.390516 
L 315.799065 -220.154553 
L 310.486937 -218.545565 
L 305.174809 -216.796519 
L 299.86268 -215.749168 
L 294.550552 -215.378848 
L 289.238424 -214.721172 
L 283.926296 -213.301787 
L 278.614167 -211.741856 
L 273.302039 -210.872378 
L 267.989911 -210.811703 
L 262.677783 -211.633217 
L 257.365654 -213.544698 
L 252.053526 -215.718972 
L 246.741398 -217.043921 
L 241.42927 -217.926501 
L 236.117141 -219.251811 
L 230.805013 -220.647011 
L 225.492885 -221.454951 
L 220.180757 -221.931147 
L 214.868629 -222.414983 
L 209.5565 -223.085634 
L 204.244372 -224.393394 
L 198.932244 -226.484016 
L 193.620116 -228.762612 
L 188.307987 -229.935372 
L 182.995859 -229.473906 
L 177.683731 -229.167456 
L 172.371603 -231.485593 
L 167.059474 -235.902952 
L 161.747346 -239.460131 
L 156.435218 -240.978906 
L 151.12309 -241.348155 
z
" id="m4b85454f0f" style="stroke:#262626;stroke-width:1.5;"/>
    </defs>
    <g clip-path="url(#p52ff410953)">
     <use style="fill:#107010;stroke:#262626;stroke-width:1.5;" x="0" xlink:href="#m4b85454f0f" y="400.04775"/>
    </g>
   </g>
   <g id="PolyCollection_3">
    <defs>
     <path d="M 148.014583 -159.816292 
L 148.014583 -159.916208 
L 153.389509 -160.125691 
L 158.764436 -160.82631 
L 164.139362 -162.413051 
L 169.514288 -164.789282 
L 174.889215 -167.050808 
L 180.264141 -168.346865 
L 185.639067 -168.935563 
L 191.013994 -169.751528 
L 196.38892 -171.175909 
L 201.763846 -172.767619 
L 207.138773 -173.9733 
L 212.513699 -174.68529 
L 217.888626 -175.153471 
L 223.263552 -175.695375 
L 228.638478 -176.602283 
L 234.013405 -177.959789 
L 239.388331 -179.416782 
L 244.763257 -180.55042 
L 250.138184 -181.545516 
L 255.51311 -182.931728 
L 260.888036 -184.623786 
L 266.262963 -185.966568 
L 271.637889 -186.517063 
L 277.012815 -186.118424 
L 282.387742 -184.92198 
L 287.762668 -183.716511 
L 293.137595 -183.31168 
L 298.512521 -183.501119 
L 303.887447 -183.356595 
L 309.262374 -182.456894 
L 314.6373 -181.203875 
L 320.012226 -180.04699 
L 325.387153 -179.07744 
L 330.762079 -178.311338 
L 336.137005 -177.769005 
L 341.511932 -177.47896 
L 346.886858 -177.728427 
L 352.261784 -178.755294 
L 357.636711 -180.020719 
L 363.011637 -180.548245 
L 368.386563 -180.068335 
L 373.76149 -179.110483 
L 379.136416 -178.134621 
L 384.511343 -177.151704 
L 389.886269 -175.960343 
L 395.261195 -174.531403 
L 400.636122 -173.230822 
L 406.011048 -172.491252 
L 411.385974 -172.27141 
L 416.760901 -172.154862 
L 422.135827 -171.815193 
L 427.510753 -171.031711 
L 432.88568 -169.686922 
L 438.260606 -168.131287 
L 443.635532 -166.997908 
L 449.010459 -166.461253 
L 454.385385 -166.143745 
L 459.760312 -165.675731 
L 465.135238 -165.058669 
L 470.510164 -164.493594 
L 475.885091 -164.065768 
L 481.260017 -163.807288 
L 486.634943 -163.736005 
L 492.00987 -163.676677 
L 497.384796 -163.450079 
L 502.759722 -163.118331 
L 508.134649 -162.802655 
L 513.509575 -162.529722 
L 518.884501 -162.312246 
L 524.259428 -162.161018 
L 529.634354 -162.031814 
L 535.00928 -161.861597 
L 540.384207 -161.615783 
L 545.759133 -161.315126 
L 551.13406 -161.044523 
L 556.508986 -160.873622 
L 561.883912 -160.796231 
L 567.258839 -160.773085 
L 572.633765 -160.77038 
L 578.008691 -160.768052 
L 583.383618 -160.774511 
L 588.758544 -160.795983 
L 594.13347 -160.794328 
L 599.508397 -160.738661 
L 604.883323 -160.650364 
L 610.258249 -160.553583 
L 615.633176 -160.445187 
L 621.008102 -160.329708 
L 626.383029 -160.2312 
L 631.757955 -160.15806 
L 637.132881 -160.096552 
L 642.507808 -160.037995 
L 647.882734 -159.983524 
L 653.25766 -159.93682 
L 658.632587 -159.903024 
L 664.007513 -159.883519 
L 669.382439 -159.873843 
L 674.757366 -159.869171 
L 680.132292 -159.867115 
L 680.132292 -159.865385 
L 680.132292 -159.865385 
L 674.757366 -159.863329 
L 669.382439 -159.858657 
L 664.007513 -159.848981 
L 658.632587 -159.829476 
L 653.25766 -159.79568 
L 647.882734 -159.748976 
L 642.507808 -159.694505 
L 637.132881 -159.635948 
L 631.757955 -159.57444 
L 626.383029 -159.5013 
L 621.008102 -159.402792 
L 615.633176 -159.287313 
L 610.258249 -159.178917 
L 604.883323 -159.082136 
L 599.508397 -158.993839 
L 594.13347 -158.938172 
L 588.758544 -158.936517 
L 583.383618 -158.957989 
L 578.008691 -158.964448 
L 572.633765 -158.96212 
L 567.258839 -158.959415 
L 561.883912 -158.936269 
L 556.508986 -158.858878 
L 551.13406 -158.687977 
L 545.759133 -158.417374 
L 540.384207 -158.116717 
L 535.00928 -157.870903 
L 529.634354 -157.700686 
L 524.259428 -157.571482 
L 518.884501 -157.420254 
L 513.509575 -157.202778 
L 508.134649 -156.929845 
L 502.759722 -156.614169 
L 497.384796 -156.282421 
L 492.00987 -156.055823 
L 486.634943 -155.996495 
L 481.260017 -155.925212 
L 475.885091 -155.666732 
L 470.510164 -155.238906 
L 465.135238 -154.673831 
L 459.760312 -154.056769 
L 454.385385 -153.588755 
L 449.010459 -153.271247 
L 443.635532 -152.734592 
L 438.260606 -151.601213 
L 432.88568 -150.045578 
L 427.510753 -148.700789 
L 422.135827 -147.917307 
L 416.760901 -147.577638 
L 411.385974 -147.46109 
L 406.011048 -147.241248 
L 400.636122 -146.501678 
L 395.261195 -145.201097 
L 389.886269 -143.772157 
L 384.511343 -142.580796 
L 379.136416 -141.597879 
L 373.76149 -140.622017 
L 368.386563 -139.664165 
L 363.011637 -139.184255 
L 357.636711 -139.711781 
L 352.261784 -140.977206 
L 346.886858 -142.004073 
L 341.511932 -142.25354 
L 336.137005 -141.963495 
L 330.762079 -141.421162 
L 325.387153 -140.65506 
L 320.012226 -139.68551 
L 314.6373 -138.528625 
L 309.262374 -137.275606 
L 303.887447 -136.375905 
L 298.512521 -136.231381 
L 293.137595 -136.42082 
L 287.762668 -136.015989 
L 282.387742 -134.81052 
L 277.012815 -133.614076 
L 271.637889 -133.215437 
L 266.262963 -133.765932 
L 260.888036 -135.108714 
L 255.51311 -136.800772 
L 250.138184 -138.186984 
L 244.763257 -139.18208 
L 239.388331 -140.315718 
L 234.013405 -141.772711 
L 228.638478 -143.130217 
L 223.263552 -144.037125 
L 217.888626 -144.579029 
L 212.513699 -145.04721 
L 207.138773 -145.7592 
L 201.763846 -146.964881 
L 196.38892 -148.556591 
L 191.013994 -149.980972 
L 185.639067 -150.796937 
L 180.264141 -151.385635 
L 174.889215 -152.681692 
L 169.514288 -154.943218 
L 164.139362 -157.319449 
L 158.764436 -158.90619 
L 153.389509 -159.606809 
L 148.014583 -159.816292 
z
" id="m68f4445ec6" style="stroke:#262626;stroke-width:1.5;"/>
    </defs>
    <g clip-path="url(#p52ff410953)">
     <use style="fill:#107010;stroke:#262626;stroke-width:1.5;" x="0" xlink:href="#m68f4445ec6" y="400.04775"/>
    </g>
   </g>
   <g id="PolyCollection_4">
    <defs>
     <path d="M 147.108733 -78.261648 
L 147.108733 -78.390852 
L 152.501959 -78.635877 
L 157.895186 -79.400553 
L 163.288412 -81.054822 
L 168.681638 -83.497322 
L 174.074865 -85.887429 
L 179.468091 -87.370967 
L 184.861317 -88.036729 
L 190.254544 -88.68573 
L 195.64777 -89.763436 
L 201.040996 -90.958023 
L 206.434223 -91.801888 
L 211.827449 -92.31489 
L 217.220676 -92.884327 
L 222.613902 -93.706916 
L 228.007128 -94.689884 
L 233.400355 -95.773433 
L 238.793581 -96.97904 
L 244.186807 -98.303782 
L 249.580034 -99.831894 
L 254.97326 -101.629004 
L 260.366486 -103.379569 
L 265.759713 -104.569807 
L 271.152939 -104.983241 
L 276.546165 -104.660577 
L 281.939392 -103.769452 
L 287.332618 -102.739886 
L 292.725844 -102.030905 
L 298.119071 -101.636135 
L 303.512297 -101.124862 
L 308.905524 -100.265073 
L 314.29875 -99.3376 
L 319.691976 -98.656061 
L 325.085203 -98.148455 
L 330.478429 -97.605002 
L 335.871655 -96.971061 
L 341.264882 -96.418826 
L 346.658108 -96.381398 
L 352.051334 -97.147853 
L 357.444561 -98.251855 
L 362.837787 -98.786085 
L 368.231013 -98.386577 
L 373.62424 -97.449084 
L 379.017466 -96.468494 
L 384.410693 -95.534803 
L 389.803919 -94.43455 
L 395.197145 -93.09183 
L 400.590372 -91.820051 
L 405.983598 -91.016206 
L 411.376824 -90.687901 
L 416.770051 -90.501127 
L 422.163277 -90.152832 
L 427.556503 -89.446445 
L 432.94973 -88.272774 
L 438.342956 -86.830835 
L 443.736182 -85.583279 
L 449.129409 -84.775587 
L 454.522635 -84.23879 
L 459.915862 -83.714095 
L 465.309088 -83.166584 
L 470.702314 -82.696429 
L 476.095541 -82.330174 
L 481.488767 -82.07301 
L 486.881993 -81.940486 
L 492.27522 -81.842926 
L 497.668446 -81.6637 
L 503.061672 -81.393429 
L 508.454899 -81.082374 
L 513.848125 -80.796676 
L 519.241351 -80.613355 
L 524.634578 -80.54713 
L 530.027804 -80.514526 
L 535.421031 -80.410654 
L 540.814257 -80.19441 
L 546.207483 -79.905434 
L 551.60071 -79.620333 
L 556.993936 -79.396119 
L 562.387162 -79.257636 
L 567.780389 -79.202279 
L 573.173615 -79.194725 
L 578.566841 -79.196152 
L 583.960068 -79.19991 
L 589.353294 -79.210653 
L 594.74652 -79.215508 
L 600.139747 -79.201715 
L 605.532973 -79.171791 
L 610.926199 -79.118041 
L 616.319426 -79.01295 
L 621.712652 -78.858529 
L 627.105879 -78.709937 
L 632.499105 -78.612552 
L 637.892331 -78.554623 
L 643.285558 -78.501696 
L 648.678784 -78.441959 
L 654.07201 -78.388003 
L 659.465237 -78.35291 
L 664.858463 -78.336219 
L 670.251689 -78.329835 
L 675.644916 -78.327494 
L 681.038142 -78.326617 
L 681.038142 -78.325883 
L 681.038142 -78.325883 
L 675.644916 -78.325006 
L 670.251689 -78.322665 
L 664.858463 -78.316281 
L 659.465237 -78.29959 
L 654.07201 -78.264497 
L 648.678784 -78.210541 
L 643.285558 -78.150804 
L 637.892331 -78.097877 
L 632.499105 -78.039948 
L 627.105879 -77.942563 
L 621.712652 -77.793971 
L 616.319426 -77.63955 
L 610.926199 -77.534459 
L 605.532973 -77.480709 
L 600.139747 -77.450785 
L 594.74652 -77.436992 
L 589.353294 -77.441847 
L 583.960068 -77.45259 
L 578.566841 -77.456348 
L 573.173615 -77.457775 
L 567.780389 -77.450221 
L 562.387162 -77.394864 
L 556.993936 -77.256381 
L 551.60071 -77.032167 
L 546.207483 -76.747066 
L 540.814257 -76.45809 
L 535.421031 -76.241846 
L 530.027804 -76.137974 
L 524.634578 -76.10537 
L 519.241351 -76.039145 
L 513.848125 -75.855824 
L 508.454899 -75.570126 
L 503.061672 -75.259071 
L 497.668446 -74.9888 
L 492.27522 -74.809574 
L 486.881993 -74.712014 
L 481.488767 -74.57949 
L 476.095541 -74.322326 
L 470.702314 -73.956071 
L 465.309088 -73.485916 
L 459.915862 -72.938405 
L 454.522635 -72.41371 
L 449.129409 -71.876913 
L 443.736182 -71.069221 
L 438.342956 -69.821665 
L 432.94973 -68.379726 
L 427.556503 -67.206055 
L 422.163277 -66.499668 
L 416.770051 -66.151373 
L 411.376824 -65.964599 
L 405.983598 -65.636294 
L 400.590372 -64.832449 
L 395.197145 -63.56067 
L 389.803919 -62.21795 
L 384.410693 -61.117697 
L 379.017466 -60.184006 
L 373.62424 -59.203416 
L 368.231013 -58.265923 
L 362.837787 -57.866415 
L 357.444561 -58.400645 
L 352.051334 -59.504647 
L 346.658108 -60.271102 
L 341.264882 -60.233674 
L 335.871655 -59.681439 
L 330.478429 -59.047498 
L 325.085203 -58.504045 
L 319.691976 -57.996439 
L 314.29875 -57.3149 
L 308.905524 -56.387427 
L 303.512297 -55.527638 
L 298.119071 -55.016365 
L 292.725844 -54.621595 
L 287.332618 -53.912614 
L 281.939392 -52.883048 
L 276.546165 -51.991923 
L 271.152939 -51.669259 
L 265.759713 -52.082693 
L 260.366486 -53.272931 
L 254.97326 -55.023496 
L 249.580034 -56.820606 
L 244.186807 -58.348718 
L 238.793581 -59.67346 
L 233.400355 -60.879067 
L 228.007128 -61.962616 
L 222.613902 -62.945584 
L 217.220676 -63.768173 
L 211.827449 -64.33761 
L 206.434223 -64.850612 
L 201.040996 -65.694477 
L 195.64777 -66.889064 
L 190.254544 -67.96677 
L 184.861317 -68.615771 
L 179.468091 -69.281533 
L 174.074865 -70.765071 
L 168.681638 -73.155178 
L 163.288412 -75.597678 
L 157.895186 -77.251947 
L 152.501959 -78.016623 
L 147.108733 -78.261648 
z
" id="mae69615833" style="stroke:#262626;stroke-width:1.5;"/>
    </defs>
    <g clip-path="url(#p52ff410953)">
     <use style="fill:#107010;stroke:#262626;stroke-width:1.5;" x="0" xlink:href="#mae69615833" y="400.04775"/>
    </g>
   </g>
   <g id="matplotlib.axis_1">
    <g id="xtick_1">
     <g id="line2d_1">
      <defs>
       <path d="M 0 0 
L 0 3.5 
" id="ma3f36beea4" style="stroke:#000000;stroke-width:0.8;"/>
      </defs>
      <g>
       <use style="stroke:#000000;stroke-width:0.8;" x="145.65721" xlink:href="#ma3f36beea4" y="362.4915"/>
      </g>
     </g>
     <g id="text_1">
      <!-- 0.0 -->
      <defs>
       <path d="M 31.78125 66.40625 
Q 24.171875 66.40625 20.328125 58.90625 
Q 16.5 51.421875 16.5 36.375 
Q 16.5 21.390625 20.328125 13.890625 
Q 24.171875 6.390625 31.78125 6.390625 
Q 39.453125 6.390625 43.28125 13.890625 
Q 47.125 21.390625 47.125 36.375 
Q 47.125 51.421875 43.28125 58.90625 
Q 39.453125 66.40625 31.78125 66.40625 
z
M 31.78125 74.21875 
Q 44.046875 74.21875 50.515625 64.515625 
Q 56.984375 54.828125 56.984375 36.375 
Q 56.984375 17.96875 50.515625 8.265625 
Q 44.046875 -1.421875 31.78125 -1.421875 
Q 19.53125 -1.421875 13.0625 8.265625 
Q 6.59375 17.96875 6.59375 36.375 
Q 6.59375 54.828125 13.0625 64.515625 
Q 19.53125 74.21875 31.78125 74.21875 
z
" id="DejaVuSans-48"/>
       <path d="M 10.6875 12.40625 
L 21 12.40625 
L 21 0 
L 10.6875 0 
z
" id="DejaVuSans-46"/>
      </defs>
      <g transform="translate(137.705647 377.089938)scale(0.1 -0.1)">
       <use xlink:href="#DejaVuSans-48"/>
       <use x="63.623047" xlink:href="#DejaVuSans-46"/>
       <use x="95.410156" xlink:href="#DejaVuSans-48"/>
      </g>
     </g>
    </g>
    <g id="xtick_2">
     <g id="line2d_2">
      <g>
       <use style="stroke:#000000;stroke-width:0.8;" x="263.254681" xlink:href="#ma3f36beea4" y="362.4915"/>
      </g>
     </g>
     <g id="text_2">
      <!-- 0.2 -->
      <defs>
       <path d="M 19.1875 8.296875 
L 53.609375 8.296875 
L 53.609375 0 
L 7.328125 0 
L 7.328125 8.296875 
Q 12.9375 14.109375 22.625 23.890625 
Q 32.328125 33.6875 34.8125 36.53125 
Q 39.546875 41.84375 41.421875 45.53125 
Q 43.3125 49.21875 43.3125 52.78125 
Q 43.3125 58.59375 39.234375 62.25 
Q 35.15625 65.921875 28.609375 65.921875 
Q 23.96875 65.921875 18.8125 64.3125 
Q 13.671875 62.703125 7.8125 59.421875 
L 7.8125 69.390625 
Q 13.765625 71.78125 18.9375 73 
Q 24.125 74.21875 28.421875 74.21875 
Q 39.75 74.21875 46.484375 68.546875 
Q 53.21875 62.890625 53.21875 53.421875 
Q 53.21875 48.921875 51.53125 44.890625 
Q 49.859375 40.875 45.40625 35.40625 
Q 44.1875 33.984375 37.640625 27.21875 
Q 31.109375 20.453125 19.1875 8.296875 
z
" id="DejaVuSans-50"/>
      </defs>
      <g transform="translate(255.303118 377.089938)scale(0.1 -0.1)">
       <use xlink:href="#DejaVuSans-48"/>
       <use x="63.623047" xlink:href="#DejaVuSans-46"/>
       <use x="95.410156" xlink:href="#DejaVuSans-50"/>
      </g>
     </g>
    </g>
    <g id="xtick_3">
     <g id="line2d_3">
      <g>
       <use style="stroke:#000000;stroke-width:0.8;" x="380.852152" xlink:href="#ma3f36beea4" y="362.4915"/>
      </g>
     </g>
     <g id="text_3">
      <!-- 0.4 -->
      <defs>
       <path d="M 37.796875 64.3125 
L 12.890625 25.390625 
L 37.796875 25.390625 
z
M 35.203125 72.90625 
L 47.609375 72.90625 
L 47.609375 25.390625 
L 58.015625 25.390625 
L 58.015625 17.1875 
L 47.609375 17.1875 
L 47.609375 0 
L 37.796875 0 
L 37.796875 17.1875 
L 4.890625 17.1875 
L 4.890625 26.703125 
z
" id="DejaVuSans-52"/>
      </defs>
      <g transform="translate(372.900589 377.089938)scale(0.1 -0.1)">
       <use xlink:href="#DejaVuSans-48"/>
       <use x="63.623047" xlink:href="#DejaVuSans-46"/>
       <use x="95.410156" xlink:href="#DejaVuSans-52"/>
      </g>
     </g>
    </g>
    <g id="xtick_4">
     <g id="line2d_4">
      <g>
       <use style="stroke:#000000;stroke-width:0.8;" x="498.449623" xlink:href="#ma3f36beea4" y="362.4915"/>
      </g>
     </g>
     <g id="text_4">
      <!-- 0.6 -->
      <defs>
       <path d="M 33.015625 40.375 
Q 26.375 40.375 22.484375 35.828125 
Q 18.609375 31.296875 18.609375 23.390625 
Q 18.609375 15.53125 22.484375 10.953125 
Q 26.375 6.390625 33.015625 6.390625 
Q 39.65625 6.390625 43.53125 10.953125 
Q 47.40625 15.53125 47.40625 23.390625 
Q 47.40625 31.296875 43.53125 35.828125 
Q 39.65625 40.375 33.015625 40.375 
z
M 52.59375 71.296875 
L 52.59375 62.3125 
Q 48.875 64.0625 45.09375 64.984375 
Q 41.3125 65.921875 37.59375 65.921875 
Q 27.828125 65.921875 22.671875 59.328125 
Q 17.53125 52.734375 16.796875 39.40625 
Q 19.671875 43.65625 24.015625 45.921875 
Q 28.375 48.1875 33.59375 48.1875 
Q 44.578125 48.1875 50.953125 41.515625 
Q 57.328125 34.859375 57.328125 23.390625 
Q 57.328125 12.15625 50.6875 5.359375 
Q 44.046875 -1.421875 33.015625 -1.421875 
Q 20.359375 -1.421875 13.671875 8.265625 
Q 6.984375 17.96875 6.984375 36.375 
Q 6.984375 53.65625 15.1875 63.9375 
Q 23.390625 74.21875 37.203125 74.21875 
Q 40.921875 74.21875 44.703125 73.484375 
Q 48.484375 72.75 52.59375 71.296875 
z
" id="DejaVuSans-54"/>
      </defs>
      <g transform="translate(490.49806 377.089938)scale(0.1 -0.1)">
       <use xlink:href="#DejaVuSans-48"/>
       <use x="63.623047" xlink:href="#DejaVuSans-46"/>
       <use x="95.410156" xlink:href="#DejaVuSans-54"/>
      </g>
     </g>
    </g>
    <g id="xtick_5">
     <g id="line2d_5">
      <g>
       <use style="stroke:#000000;stroke-width:0.8;" x="616.047094" xlink:href="#ma3f36beea4" y="362.4915"/>
      </g>
     </g>
     <g id="text_5">
      <!-- 0.8 -->
      <defs>
       <path d="M 31.78125 34.625 
Q 24.75 34.625 20.71875 30.859375 
Q 16.703125 27.09375 16.703125 20.515625 
Q 16.703125 13.921875 20.71875 10.15625 
Q 24.75 6.390625 31.78125 6.390625 
Q 38.8125 6.390625 42.859375 10.171875 
Q 46.921875 13.96875 46.921875 20.515625 
Q 46.921875 27.09375 42.890625 30.859375 
Q 38.875 34.625 31.78125 34.625 
z
M 21.921875 38.8125 
Q 15.578125 40.375 12.03125 44.71875 
Q 8.5 49.078125 8.5 55.328125 
Q 8.5 64.0625 14.71875 69.140625 
Q 20.953125 74.21875 31.78125 74.21875 
Q 42.671875 74.21875 48.875 69.140625 
Q 55.078125 64.0625 55.078125 55.328125 
Q 55.078125 49.078125 51.53125 44.71875 
Q 48 40.375 41.703125 38.8125 
Q 48.828125 37.15625 52.796875 32.3125 
Q 56.78125 27.484375 56.78125 20.515625 
Q 56.78125 9.90625 50.3125 4.234375 
Q 43.84375 -1.421875 31.78125 -1.421875 
Q 19.734375 -1.421875 13.25 4.234375 
Q 6.78125 9.90625 6.78125 20.515625 
Q 6.78125 27.484375 10.78125 32.3125 
Q 14.796875 37.15625 21.921875 38.8125 
z
M 18.3125 54.390625 
Q 18.3125 48.734375 21.84375 45.5625 
Q 25.390625 42.390625 31.78125 42.390625 
Q 38.140625 42.390625 41.71875 45.5625 
Q 45.3125 48.734375 45.3125 54.390625 
Q 45.3125 60.0625 41.71875 63.234375 
Q 38.140625 66.40625 31.78125 66.40625 
Q 25.390625 66.40625 21.84375 63.234375 
Q 18.3125 60.0625 18.3125 54.390625 
z
" id="DejaVuSans-56"/>
      </defs>
      <g transform="translate(608.095531 377.089938)scale(0.1 -0.1)">
       <use xlink:href="#DejaVuSans-48"/>
       <use x="63.623047" xlink:href="#DejaVuSans-46"/>
       <use x="95.410156" xlink:href="#DejaVuSans-56"/>
      </g>
     </g>
    </g>
    <g id="text_6">
     <!-- ICSE -->
     <defs>
      <path d="M 9.8125 72.90625 
L 19.671875 72.90625 
L 19.671875 0 
L 9.8125 0 
z
" id="DejaVuSans-73"/>
      <path d="M 64.40625 67.28125 
L 64.40625 56.890625 
Q 59.421875 61.53125 53.78125 63.8125 
Q 48.140625 66.109375 41.796875 66.109375 
Q 29.296875 66.109375 22.65625 58.46875 
Q 16.015625 50.828125 16.015625 36.375 
Q 16.015625 21.96875 22.65625 14.328125 
Q 29.296875 6.6875 41.796875 6.6875 
Q 48.140625 6.6875 53.78125 8.984375 
Q 59.421875 11.28125 64.40625 15.921875 
L 64.40625 5.609375 
Q 59.234375 2.09375 53.4375 0.328125 
Q 47.65625 -1.421875 41.21875 -1.421875 
Q 24.65625 -1.421875 15.125 8.703125 
Q 5.609375 18.84375 5.609375 36.375 
Q 5.609375 53.953125 15.125 64.078125 
Q 24.65625 74.21875 41.21875 74.21875 
Q 47.75 74.21875 53.53125 72.484375 
Q 59.328125 70.75 64.40625 67.28125 
z
" id="DejaVuSans-67"/>
      <path d="M 53.515625 70.515625 
L 53.515625 60.890625 
Q 47.90625 63.578125 42.921875 64.890625 
Q 37.9375 66.21875 33.296875 66.21875 
Q 25.25 66.21875 20.875 63.09375 
Q 16.5 59.96875 16.5 54.203125 
Q 16.5 49.359375 19.40625 46.890625 
Q 22.3125 44.4375 30.421875 42.921875 
L 36.375 41.703125 
Q 47.40625 39.59375 52.65625 34.296875 
Q 57.90625 29 57.90625 20.125 
Q 57.90625 9.515625 50.796875 4.046875 
Q 43.703125 -1.421875 29.984375 -1.421875 
Q 24.8125 -1.421875 18.96875 -0.25 
Q 13.140625 0.921875 6.890625 3.21875 
L 6.890625 13.375 
Q 12.890625 10.015625 18.65625 8.296875 
Q 24.421875 6.59375 29.984375 6.59375 
Q 38.421875 6.59375 43.015625 9.90625 
Q 47.609375 13.234375 47.609375 19.390625 
Q 47.609375 24.75 44.3125 27.78125 
Q 41.015625 30.8125 33.5 32.328125 
L 27.484375 33.5 
Q 16.453125 35.6875 11.515625 40.375 
Q 6.59375 45.0625 6.59375 53.421875 
Q 6.59375 63.09375 13.40625 68.65625 
Q 20.21875 74.21875 32.171875 74.21875 
Q 37.3125 74.21875 42.625 73.28125 
Q 47.953125 72.359375 53.515625 70.515625 
z
" id="DejaVuSans-83"/>
      <path d="M 9.8125 72.90625 
L 55.90625 72.90625 
L 55.90625 64.59375 
L 19.671875 64.59375 
L 19.671875 43.015625 
L 54.390625 43.015625 
L 54.390625 34.71875 
L 19.671875 34.71875 
L 19.671875 8.296875 
L 56.78125 8.296875 
L 56.78125 0 
L 9.8125 0 
z
" id="DejaVuSans-69"/>
     </defs>
     <g transform="translate(402.773438 390.768062)scale(0.1 -0.1)">
      <use xlink:href="#DejaVuSans-73"/>
      <use x="29.492188" xlink:href="#DejaVuSans-67"/>
      <use x="99.316406" xlink:href="#DejaVuSans-83"/>
      <use x="162.792969" xlink:href="#DejaVuSans-69"/>
     </g>
    </g>
   </g>
   <g id="matplotlib.axis_2">
    <g id="ytick_1">
     <g id="line2d_6">
      <defs>
       <path d="M 0 0 
L -3.5 0 
" id="mbcd57af62c" style="stroke:#000000;stroke-width:0.8;"/>
      </defs>
      <g>
       <use style="stroke:#000000;stroke-width:0.8;" x="135.073438" xlink:href="#mbcd57af62c" y="77.1015"/>
      </g>
     </g>
     <g id="text_7">
      <!-- Avanzado -->
      <defs>
       <path d="M 34.1875 63.1875 
L 20.796875 26.90625 
L 47.609375 26.90625 
z
M 28.609375 72.90625 
L 39.796875 72.90625 
L 67.578125 0 
L 57.328125 0 
L 50.6875 18.703125 
L 17.828125 18.703125 
L 11.1875 0 
L 0.78125 0 
z
" id="DejaVuSans-65"/>
       <path d="M 2.984375 54.6875 
L 12.5 54.6875 
L 29.59375 8.796875 
L 46.6875 54.6875 
L 56.203125 54.6875 
L 35.6875 0 
L 23.484375 0 
z
" id="DejaVuSans-118"/>
       <path d="M 34.28125 27.484375 
Q 23.390625 27.484375 19.1875 25 
Q 14.984375 22.515625 14.984375 16.5 
Q 14.984375 11.71875 18.140625 8.90625 
Q 21.296875 6.109375 26.703125 6.109375 
Q 34.1875 6.109375 38.703125 11.40625 
Q 43.21875 16.703125 43.21875 25.484375 
L 43.21875 27.484375 
z
M 52.203125 31.203125 
L 52.203125 0 
L 43.21875 0 
L 43.21875 8.296875 
Q 40.140625 3.328125 35.546875 0.953125 
Q 30.953125 -1.421875 24.3125 -1.421875 
Q 15.921875 -1.421875 10.953125 3.296875 
Q 6 8.015625 6 15.921875 
Q 6 25.140625 12.171875 29.828125 
Q 18.359375 34.515625 30.609375 34.515625 
L 43.21875 34.515625 
L 43.21875 35.40625 
Q 43.21875 41.609375 39.140625 45 
Q 35.0625 48.390625 27.6875 48.390625 
Q 23 48.390625 18.546875 47.265625 
Q 14.109375 46.140625 10.015625 43.890625 
L 10.015625 52.203125 
Q 14.9375 54.109375 19.578125 55.046875 
Q 24.21875 56 28.609375 56 
Q 40.484375 56 46.34375 49.84375 
Q 52.203125 43.703125 52.203125 31.203125 
z
" id="DejaVuSans-97"/>
       <path d="M 54.890625 33.015625 
L 54.890625 0 
L 45.90625 0 
L 45.90625 32.71875 
Q 45.90625 40.484375 42.875 44.328125 
Q 39.84375 48.1875 33.796875 48.1875 
Q 26.515625 48.1875 22.3125 43.546875 
Q 18.109375 38.921875 18.109375 30.90625 
L 18.109375 0 
L 9.078125 0 
L 9.078125 54.6875 
L 18.109375 54.6875 
L 18.109375 46.1875 
Q 21.34375 51.125 25.703125 53.5625 
Q 30.078125 56 35.796875 56 
Q 45.21875 56 50.046875 50.171875 
Q 54.890625 44.34375 54.890625 33.015625 
z
" id="DejaVuSans-110"/>
       <path d="M 5.515625 54.6875 
L 48.1875 54.6875 
L 48.1875 46.484375 
L 14.40625 7.171875 
L 48.1875 7.171875 
L 48.1875 0 
L 4.296875 0 
L 4.296875 8.203125 
L 38.09375 47.515625 
L 5.515625 47.515625 
z
" id="DejaVuSans-122"/>
       <path d="M 45.40625 46.390625 
L 45.40625 75.984375 
L 54.390625 75.984375 
L 54.390625 0 
L 45.40625 0 
L 45.40625 8.203125 
Q 42.578125 3.328125 38.25 0.953125 
Q 33.9375 -1.421875 27.875 -1.421875 
Q 17.96875 -1.421875 11.734375 6.484375 
Q 5.515625 14.40625 5.515625 27.296875 
Q 5.515625 40.1875 11.734375 48.09375 
Q 17.96875 56 27.875 56 
Q 33.9375 56 38.25 53.625 
Q 42.578125 51.265625 45.40625 46.390625 
z
M 14.796875 27.296875 
Q 14.796875 17.390625 18.875 11.75 
Q 22.953125 6.109375 30.078125 6.109375 
Q 37.203125 6.109375 41.296875 11.75 
Q 45.40625 17.390625 45.40625 27.296875 
Q 45.40625 37.203125 41.296875 42.84375 
Q 37.203125 48.484375 30.078125 48.484375 
Q 22.953125 48.484375 18.875 42.84375 
Q 14.796875 37.203125 14.796875 27.296875 
z
" id="DejaVuSans-100"/>
       <path d="M 30.609375 48.390625 
Q 23.390625 48.390625 19.1875 42.75 
Q 14.984375 37.109375 14.984375 27.296875 
Q 14.984375 17.484375 19.15625 11.84375 
Q 23.34375 6.203125 30.609375 6.203125 
Q 37.796875 6.203125 41.984375 11.859375 
Q 46.1875 17.53125 46.1875 27.296875 
Q 46.1875 37.015625 41.984375 42.703125 
Q 37.796875 48.390625 30.609375 48.390625 
z
M 30.609375 56 
Q 42.328125 56 49.015625 48.375 
Q 55.71875 40.765625 55.71875 27.296875 
Q 55.71875 13.875 49.015625 6.21875 
Q 42.328125 -1.421875 30.609375 -1.421875 
Q 18.84375 -1.421875 12.171875 6.21875 
Q 5.515625 13.875 5.515625 27.296875 
Q 5.515625 40.765625 12.171875 48.375 
Q 18.84375 56 30.609375 56 
z
" id="DejaVuSans-111"/>
      </defs>
      <g transform="translate(79.0125 80.900719)scale(0.1 -0.1)">
       <use xlink:href="#DejaVuSans-65"/>
       <use x="68.330078" xlink:href="#DejaVuSans-118"/>
       <use x="127.509766" xlink:href="#DejaVuSans-97"/>
       <use x="188.789062" xlink:href="#DejaVuSans-110"/>
       <use x="252.167969" xlink:href="#DejaVuSans-122"/>
       <use x="304.658203" xlink:href="#DejaVuSans-97"/>
       <use x="365.9375" xlink:href="#DejaVuSans-100"/>
       <use x="429.414062" xlink:href="#DejaVuSans-111"/>
      </g>
     </g>
    </g>
    <g id="ytick_2">
     <g id="line2d_7">
      <g>
       <use style="stroke:#000000;stroke-width:0.8;" x="135.073438" xlink:href="#mbcd57af62c" y="158.6415"/>
      </g>
     </g>
     <g id="text_8">
      <!-- Satisfactorio -->
      <defs>
       <path d="M 18.3125 70.21875 
L 18.3125 54.6875 
L 36.8125 54.6875 
L 36.8125 47.703125 
L 18.3125 47.703125 
L 18.3125 18.015625 
Q 18.3125 11.328125 20.140625 9.421875 
Q 21.96875 7.515625 27.59375 7.515625 
L 36.8125 7.515625 
L 36.8125 0 
L 27.59375 0 
Q 17.1875 0 13.234375 3.875 
Q 9.28125 7.765625 9.28125 18.015625 
L 9.28125 47.703125 
L 2.6875 47.703125 
L 2.6875 54.6875 
L 9.28125 54.6875 
L 9.28125 70.21875 
z
" id="DejaVuSans-116"/>
       <path d="M 9.421875 54.6875 
L 18.40625 54.6875 
L 18.40625 0 
L 9.421875 0 
z
M 9.421875 75.984375 
L 18.40625 75.984375 
L 18.40625 64.59375 
L 9.421875 64.59375 
z
" id="DejaVuSans-105"/>
       <path d="M 44.28125 53.078125 
L 44.28125 44.578125 
Q 40.484375 46.53125 36.375 47.5 
Q 32.28125 48.484375 27.875 48.484375 
Q 21.1875 48.484375 17.84375 46.4375 
Q 14.5 44.390625 14.5 40.28125 
Q 14.5 37.15625 16.890625 35.375 
Q 19.28125 33.59375 26.515625 31.984375 
L 29.59375 31.296875 
Q 39.15625 29.25 43.1875 25.515625 
Q 47.21875 21.78125 47.21875 15.09375 
Q 47.21875 7.46875 41.1875 3.015625 
Q 35.15625 -1.421875 24.609375 -1.421875 
Q 20.21875 -1.421875 15.453125 -0.5625 
Q 10.6875 0.296875 5.421875 2 
L 5.421875 11.28125 
Q 10.40625 8.6875 15.234375 7.390625 
Q 20.0625 6.109375 24.8125 6.109375 
Q 31.15625 6.109375 34.5625 8.28125 
Q 37.984375 10.453125 37.984375 14.40625 
Q 37.984375 18.0625 35.515625 20.015625 
Q 33.0625 21.96875 24.703125 23.78125 
L 21.578125 24.515625 
Q 13.234375 26.265625 9.515625 29.90625 
Q 5.8125 33.546875 5.8125 39.890625 
Q 5.8125 47.609375 11.28125 51.796875 
Q 16.75 56 26.8125 56 
Q 31.78125 56 36.171875 55.265625 
Q 40.578125 54.546875 44.28125 53.078125 
z
" id="DejaVuSans-115"/>
       <path d="M 37.109375 75.984375 
L 37.109375 68.5 
L 28.515625 68.5 
Q 23.6875 68.5 21.796875 66.546875 
Q 19.921875 64.59375 19.921875 59.515625 
L 19.921875 54.6875 
L 34.71875 54.6875 
L 34.71875 47.703125 
L 19.921875 47.703125 
L 19.921875 0 
L 10.890625 0 
L 10.890625 47.703125 
L 2.296875 47.703125 
L 2.296875 54.6875 
L 10.890625 54.6875 
L 10.890625 58.5 
Q 10.890625 67.625 15.140625 71.796875 
Q 19.390625 75.984375 28.609375 75.984375 
z
" id="DejaVuSans-102"/>
       <path d="M 48.78125 52.59375 
L 48.78125 44.1875 
Q 44.96875 46.296875 41.140625 47.34375 
Q 37.3125 48.390625 33.40625 48.390625 
Q 24.65625 48.390625 19.8125 42.84375 
Q 14.984375 37.3125 14.984375 27.296875 
Q 14.984375 17.28125 19.8125 11.734375 
Q 24.65625 6.203125 33.40625 6.203125 
Q 37.3125 6.203125 41.140625 7.25 
Q 44.96875 8.296875 48.78125 10.40625 
L 48.78125 2.09375 
Q 45.015625 0.34375 40.984375 -0.53125 
Q 36.96875 -1.421875 32.421875 -1.421875 
Q 20.0625 -1.421875 12.78125 6.34375 
Q 5.515625 14.109375 5.515625 27.296875 
Q 5.515625 40.671875 12.859375 48.328125 
Q 20.21875 56 33.015625 56 
Q 37.15625 56 41.109375 55.140625 
Q 45.0625 54.296875 48.78125 52.59375 
z
" id="DejaVuSans-99"/>
       <path d="M 41.109375 46.296875 
Q 39.59375 47.171875 37.8125 47.578125 
Q 36.03125 48 33.890625 48 
Q 26.265625 48 22.1875 43.046875 
Q 18.109375 38.09375 18.109375 28.8125 
L 18.109375 0 
L 9.078125 0 
L 9.078125 54.6875 
L 18.109375 54.6875 
L 18.109375 46.1875 
Q 20.953125 51.171875 25.484375 53.578125 
Q 30.03125 56 36.53125 56 
Q 37.453125 56 38.578125 55.875 
Q 39.703125 55.765625 41.0625 55.515625 
z
" id="DejaVuSans-114"/>
      </defs>
      <g transform="translate(65.495313 162.440719)scale(0.1 -0.1)">
       <use xlink:href="#DejaVuSans-83"/>
       <use x="63.476562" xlink:href="#DejaVuSans-97"/>
       <use x="124.755859" xlink:href="#DejaVuSans-116"/>
       <use x="163.964844" xlink:href="#DejaVuSans-105"/>
       <use x="191.748047" xlink:href="#DejaVuSans-115"/>
       <use x="243.847656" xlink:href="#DejaVuSans-102"/>
       <use x="279.052734" xlink:href="#DejaVuSans-97"/>
       <use x="340.332031" xlink:href="#DejaVuSans-99"/>
       <use x="395.3125" xlink:href="#DejaVuSans-116"/>
       <use x="434.521484" xlink:href="#DejaVuSans-111"/>
       <use x="495.703125" xlink:href="#DejaVuSans-114"/>
       <use x="536.816406" xlink:href="#DejaVuSans-105"/>
       <use x="564.599609" xlink:href="#DejaVuSans-111"/>
      </g>
     </g>
    </g>
    <g id="ytick_3">
     <g id="line2d_8">
      <g>
       <use style="stroke:#000000;stroke-width:0.8;" x="135.073438" xlink:href="#mbcd57af62c" y="240.1815"/>
      </g>
     </g>
     <g id="text_9">
      <!-- Básico -->
      <defs>
       <path d="M 19.671875 34.8125 
L 19.671875 8.109375 
L 35.5 8.109375 
Q 43.453125 8.109375 47.28125 11.40625 
Q 51.125 14.703125 51.125 21.484375 
Q 51.125 28.328125 47.28125 31.5625 
Q 43.453125 34.8125 35.5 34.8125 
z
M 19.671875 64.796875 
L 19.671875 42.828125 
L 34.28125 42.828125 
Q 41.5 42.828125 45.03125 45.53125 
Q 48.578125 48.25 48.578125 53.8125 
Q 48.578125 59.328125 45.03125 62.0625 
Q 41.5 64.796875 34.28125 64.796875 
z
M 9.8125 72.90625 
L 35.015625 72.90625 
Q 46.296875 72.90625 52.390625 68.21875 
Q 58.5 63.53125 58.5 54.890625 
Q 58.5 48.1875 55.375 44.234375 
Q 52.25 40.28125 46.1875 39.3125 
Q 53.46875 37.75 57.5 32.78125 
Q 61.53125 27.828125 61.53125 20.40625 
Q 61.53125 10.640625 54.890625 5.3125 
Q 48.25 0 35.984375 0 
L 9.8125 0 
z
" id="DejaVuSans-66"/>
       <path d="M 34.28125 27.484375 
Q 23.390625 27.484375 19.1875 25 
Q 14.984375 22.515625 14.984375 16.5 
Q 14.984375 11.71875 18.140625 8.90625 
Q 21.296875 6.109375 26.703125 6.109375 
Q 34.1875 6.109375 38.703125 11.40625 
Q 43.21875 16.703125 43.21875 25.484375 
L 43.21875 27.484375 
z
M 52.203125 31.203125 
L 52.203125 0 
L 43.21875 0 
L 43.21875 8.296875 
Q 40.140625 3.328125 35.546875 0.953125 
Q 30.953125 -1.421875 24.3125 -1.421875 
Q 15.921875 -1.421875 10.953125 3.296875 
Q 6 8.015625 6 15.921875 
Q 6 25.140625 12.171875 29.828125 
Q 18.359375 34.515625 30.609375 34.515625 
L 43.21875 34.515625 
L 43.21875 35.40625 
Q 43.21875 41.609375 39.140625 45 
Q 35.0625 48.390625 27.6875 48.390625 
Q 23 48.390625 18.546875 47.265625 
Q 14.109375 46.140625 10.015625 43.890625 
L 10.015625 52.203125 
Q 14.9375 54.109375 19.578125 55.046875 
Q 24.21875 56 28.609375 56 
Q 40.484375 56 46.34375 49.84375 
Q 52.203125 43.703125 52.203125 31.203125 
z
M 35.796875 79.984375 
L 45.515625 79.984375 
L 29.59375 61.625 
L 22.125 61.625 
z
" id="DejaVuSans-225"/>
      </defs>
      <g transform="translate(95.479688 243.980719)scale(0.1 -0.1)">
       <use xlink:href="#DejaVuSans-66"/>
       <use x="68.603516" xlink:href="#DejaVuSans-225"/>
       <use x="129.882812" xlink:href="#DejaVuSans-115"/>
       <use x="181.982422" xlink:href="#DejaVuSans-105"/>
       <use x="209.765625" xlink:href="#DejaVuSans-99"/>
       <use x="264.746094" xlink:href="#DejaVuSans-111"/>
      </g>
     </g>
    </g>
    <g id="ytick_4">
     <g id="line2d_9">
      <g>
       <use style="stroke:#000000;stroke-width:0.8;" x="135.073438" xlink:href="#mbcd57af62c" y="321.7215"/>
      </g>
     </g>
     <g id="text_10">
      <!-- Por debajo del básico -->
      <defs>
       <path d="M 19.671875 64.796875 
L 19.671875 37.40625 
L 32.078125 37.40625 
Q 38.96875 37.40625 42.71875 40.96875 
Q 46.484375 44.53125 46.484375 51.125 
Q 46.484375 57.671875 42.71875 61.234375 
Q 38.96875 64.796875 32.078125 64.796875 
z
M 9.8125 72.90625 
L 32.078125 72.90625 
Q 44.34375 72.90625 50.609375 67.359375 
Q 56.890625 61.8125 56.890625 51.125 
Q 56.890625 40.328125 50.609375 34.8125 
Q 44.34375 29.296875 32.078125 29.296875 
L 19.671875 29.296875 
L 19.671875 0 
L 9.8125 0 
z
" id="DejaVuSans-80"/>
       <path id="DejaVuSans-32"/>
       <path d="M 56.203125 29.59375 
L 56.203125 25.203125 
L 14.890625 25.203125 
Q 15.484375 15.921875 20.484375 11.0625 
Q 25.484375 6.203125 34.421875 6.203125 
Q 39.59375 6.203125 44.453125 7.46875 
Q 49.3125 8.734375 54.109375 11.28125 
L 54.109375 2.78125 
Q 49.265625 0.734375 44.1875 -0.34375 
Q 39.109375 -1.421875 33.890625 -1.421875 
Q 20.796875 -1.421875 13.15625 6.1875 
Q 5.515625 13.8125 5.515625 26.8125 
Q 5.515625 40.234375 12.765625 48.109375 
Q 20.015625 56 32.328125 56 
Q 43.359375 56 49.78125 48.890625 
Q 56.203125 41.796875 56.203125 29.59375 
z
M 47.21875 32.234375 
Q 47.125 39.59375 43.09375 43.984375 
Q 39.0625 48.390625 32.421875 48.390625 
Q 24.90625 48.390625 20.390625 44.140625 
Q 15.875 39.890625 15.1875 32.171875 
z
" id="DejaVuSans-101"/>
       <path d="M 48.6875 27.296875 
Q 48.6875 37.203125 44.609375 42.84375 
Q 40.53125 48.484375 33.40625 48.484375 
Q 26.265625 48.484375 22.1875 42.84375 
Q 18.109375 37.203125 18.109375 27.296875 
Q 18.109375 17.390625 22.1875 11.75 
Q 26.265625 6.109375 33.40625 6.109375 
Q 40.53125 6.109375 44.609375 11.75 
Q 48.6875 17.390625 48.6875 27.296875 
z
M 18.109375 46.390625 
Q 20.953125 51.265625 25.265625 53.625 
Q 29.59375 56 35.59375 56 
Q 45.5625 56 51.78125 48.09375 
Q 58.015625 40.1875 58.015625 27.296875 
Q 58.015625 14.40625 51.78125 6.484375 
Q 45.5625 -1.421875 35.59375 -1.421875 
Q 29.59375 -1.421875 25.265625 0.953125 
Q 20.953125 3.328125 18.109375 8.203125 
L 18.109375 0 
L 9.078125 0 
L 9.078125 75.984375 
L 18.109375 75.984375 
z
" id="DejaVuSans-98"/>
       <path d="M 9.421875 54.6875 
L 18.40625 54.6875 
L 18.40625 -0.984375 
Q 18.40625 -11.421875 14.421875 -16.109375 
Q 10.453125 -20.796875 1.609375 -20.796875 
L -1.8125 -20.796875 
L -1.8125 -13.1875 
L 0.59375 -13.1875 
Q 5.71875 -13.1875 7.5625 -10.8125 
Q 9.421875 -8.453125 9.421875 -0.984375 
z
M 9.421875 75.984375 
L 18.40625 75.984375 
L 18.40625 64.59375 
L 9.421875 64.59375 
z
" id="DejaVuSans-106"/>
       <path d="M 9.421875 75.984375 
L 18.40625 75.984375 
L 18.40625 0 
L 9.421875 0 
z
" id="DejaVuSans-108"/>
      </defs>
      <g transform="translate(21.048438 325.720719)scale(0.1 -0.1)">
       <use xlink:href="#DejaVuSans-80"/>
       <use x="60.255859" xlink:href="#DejaVuSans-111"/>
       <use x="121.4375" xlink:href="#DejaVuSans-114"/>
       <use x="162.550781" xlink:href="#DejaVuSans-32"/>
       <use x="194.337891" xlink:href="#DejaVuSans-100"/>
       <use x="257.814453" xlink:href="#DejaVuSans-101"/>
       <use x="319.337891" xlink:href="#DejaVuSans-98"/>
       <use x="382.814453" xlink:href="#DejaVuSans-97"/>
       <use x="444.09375" xlink:href="#DejaVuSans-106"/>
       <use x="471.876953" xlink:href="#DejaVuSans-111"/>
       <use x="533.058594" xlink:href="#DejaVuSans-32"/>
       <use x="564.845703" xlink:href="#DejaVuSans-100"/>
       <use x="628.322266" xlink:href="#DejaVuSans-101"/>
       <use x="689.845703" xlink:href="#DejaVuSans-108"/>
       <use x="717.628906" xlink:href="#DejaVuSans-32"/>
       <use x="749.416016" xlink:href="#DejaVuSans-98"/>
       <use x="812.892578" xlink:href="#DejaVuSans-225"/>
       <use x="874.171875" xlink:href="#DejaVuSans-115"/>
       <use x="926.271484" xlink:href="#DejaVuSans-105"/>
       <use x="954.054688" xlink:href="#DejaVuSans-99"/>
       <use x="1009.035156" xlink:href="#DejaVuSans-111"/>
      </g>
     </g>
    </g>
    <g id="text_11">
     <!-- Nivel de desempeño en naturales -->
     <defs>
      <path d="M 9.8125 72.90625 
L 23.09375 72.90625 
L 55.421875 11.921875 
L 55.421875 72.90625 
L 64.984375 72.90625 
L 64.984375 0 
L 51.703125 0 
L 19.390625 60.984375 
L 19.390625 0 
L 9.8125 0 
z
" id="DejaVuSans-78"/>
      <path d="M 52 44.1875 
Q 55.375 50.25 60.0625 53.125 
Q 64.75 56 71.09375 56 
Q 79.640625 56 84.28125 50.015625 
Q 88.921875 44.046875 88.921875 33.015625 
L 88.921875 0 
L 79.890625 0 
L 79.890625 32.71875 
Q 79.890625 40.578125 77.09375 44.375 
Q 74.3125 48.1875 68.609375 48.1875 
Q 61.625 48.1875 57.5625 43.546875 
Q 53.515625 38.921875 53.515625 30.90625 
L 53.515625 0 
L 44.484375 0 
L 44.484375 32.71875 
Q 44.484375 40.625 41.703125 44.40625 
Q 38.921875 48.1875 33.109375 48.1875 
Q 26.21875 48.1875 22.15625 43.53125 
Q 18.109375 38.875 18.109375 30.90625 
L 18.109375 0 
L 9.078125 0 
L 9.078125 54.6875 
L 18.109375 54.6875 
L 18.109375 46.1875 
Q 21.1875 51.21875 25.484375 53.609375 
Q 29.78125 56 35.6875 56 
Q 41.65625 56 45.828125 52.96875 
Q 50 49.953125 52 44.1875 
z
" id="DejaVuSans-109"/>
      <path d="M 18.109375 8.203125 
L 18.109375 -20.796875 
L 9.078125 -20.796875 
L 9.078125 54.6875 
L 18.109375 54.6875 
L 18.109375 46.390625 
Q 20.953125 51.265625 25.265625 53.625 
Q 29.59375 56 35.59375 56 
Q 45.5625 56 51.78125 48.09375 
Q 58.015625 40.1875 58.015625 27.296875 
Q 58.015625 14.40625 51.78125 6.484375 
Q 45.5625 -1.421875 35.59375 -1.421875 
Q 29.59375 -1.421875 25.265625 0.953125 
Q 20.953125 3.328125 18.109375 8.203125 
z
M 48.6875 27.296875 
Q 48.6875 37.203125 44.609375 42.84375 
Q 40.53125 48.484375 33.40625 48.484375 
Q 26.265625 48.484375 22.1875 42.84375 
Q 18.109375 37.203125 18.109375 27.296875 
Q 18.109375 17.390625 22.1875 11.75 
Q 26.265625 6.109375 33.40625 6.109375 
Q 40.53125 6.109375 44.609375 11.75 
Q 48.6875 17.390625 48.6875 27.296875 
z
" id="DejaVuSans-112"/>
      <path d="M 54.890625 33.015625 
L 54.890625 0 
L 45.90625 0 
L 45.90625 32.71875 
Q 45.90625 40.484375 42.875 44.328125 
Q 39.84375 48.1875 33.796875 48.1875 
Q 26.515625 48.1875 22.3125 43.546875 
Q 18.109375 38.921875 18.109375 30.90625 
L 18.109375 0 
L 9.078125 0 
L 9.078125 54.6875 
L 18.109375 54.6875 
L 18.109375 46.1875 
Q 21.34375 51.125 25.703125 53.5625 
Q 30.078125 56 35.796875 56 
Q 45.21875 56 50.046875 50.171875 
Q 54.890625 44.34375 54.890625 33.015625 
z
M 32.234375 66.890625 
L 29.4375 69.578125 
Q 28.375 70.5625 27.5625 71.015625 
Q 26.765625 71.484375 26.125 71.484375 
Q 24.265625 71.484375 23.390625 69.703125 
Q 22.515625 67.921875 22.40625 63.921875 
L 16.3125 63.921875 
Q 16.40625 70.515625 18.890625 74.09375 
Q 21.390625 77.6875 25.828125 77.6875 
Q 27.6875 77.6875 29.25 77 
Q 30.8125 76.3125 32.625 74.703125 
L 35.40625 72.015625 
Q 36.46875 71.046875 37.28125 70.578125 
Q 38.09375 70.125 38.71875 70.125 
Q 40.578125 70.125 41.453125 71.90625 
Q 42.328125 73.6875 42.4375 77.6875 
L 48.53125 77.6875 
Q 48.4375 71.09375 45.9375 67.5 
Q 43.453125 63.921875 39.015625 63.921875 
Q 37.15625 63.921875 35.59375 64.59375 
Q 34.03125 65.28125 32.234375 66.890625 
z
" id="DejaVuSans-241"/>
      <path d="M 8.5 21.578125 
L 8.5 54.6875 
L 17.484375 54.6875 
L 17.484375 21.921875 
Q 17.484375 14.15625 20.5 10.265625 
Q 23.53125 6.390625 29.59375 6.390625 
Q 36.859375 6.390625 41.078125 11.03125 
Q 45.3125 15.671875 45.3125 23.6875 
L 45.3125 54.6875 
L 54.296875 54.6875 
L 54.296875 0 
L 45.3125 0 
L 45.3125 8.40625 
Q 42.046875 3.421875 37.71875 1 
Q 33.40625 -1.421875 27.6875 -1.421875 
Q 18.265625 -1.421875 13.375 4.4375 
Q 8.5 10.296875 8.5 21.578125 
z
M 31.109375 56 
z
" id="DejaVuSans-117"/>
     </defs>
     <g transform="translate(14.96875 283.651344)rotate(-90)scale(0.1 -0.1)">
      <use xlink:href="#DejaVuSans-78"/>
      <use x="74.804688" xlink:href="#DejaVuSans-105"/>
      <use x="102.587891" xlink:href="#DejaVuSans-118"/>
      <use x="161.767578" xlink:href="#DejaVuSans-101"/>
      <use x="223.291016" xlink:href="#DejaVuSans-108"/>
      <use x="251.074219" xlink:href="#DejaVuSans-32"/>
      <use x="282.861328" xlink:href="#DejaVuSans-100"/>
      <use x="346.337891" xlink:href="#DejaVuSans-101"/>
      <use x="407.861328" xlink:href="#DejaVuSans-32"/>
      <use x="439.648438" xlink:href="#DejaVuSans-100"/>
      <use x="503.125" xlink:href="#DejaVuSans-101"/>
      <use x="564.648438" xlink:href="#DejaVuSans-115"/>
      <use x="616.748047" xlink:href="#DejaVuSans-101"/>
      <use x="678.271484" xlink:href="#DejaVuSans-109"/>
      <use x="775.683594" xlink:href="#DejaVuSans-112"/>
      <use x="839.160156" xlink:href="#DejaVuSans-101"/>
      <use x="900.683594" xlink:href="#DejaVuSans-241"/>
      <use x="964.0625" xlink:href="#DejaVuSans-111"/>
      <use x="1025.244141" xlink:href="#DejaVuSans-32"/>
      <use x="1057.03125" xlink:href="#DejaVuSans-101"/>
      <use x="1118.554688" xlink:href="#DejaVuSans-110"/>
      <use x="1181.933594" xlink:href="#DejaVuSans-32"/>
      <use x="1213.720703" xlink:href="#DejaVuSans-110"/>
      <use x="1277.099609" xlink:href="#DejaVuSans-97"/>
      <use x="1338.378906" xlink:href="#DejaVuSans-116"/>
      <use x="1377.587891" xlink:href="#DejaVuSans-117"/>
      <use x="1440.966797" xlink:href="#DejaVuSans-114"/>
      <use x="1482.080078" xlink:href="#DejaVuSans-97"/>
      <use x="1543.359375" xlink:href="#DejaVuSans-108"/>
      <use x="1571.142578" xlink:href="#DejaVuSans-101"/>
      <use x="1632.666016" xlink:href="#DejaVuSans-115"/>
     </g>
    </g>
   </g>
   <g id="line2d_10">
    <path clip-path="url(#p52ff410953)" d="M 166.824755 77.1015 
L 450.23466 77.1015 
" style="fill:none;stroke:#262626;stroke-linecap:square;stroke-width:1.5;"/>
   </g>
   <g id="line2d_11">
    <path clip-path="url(#p52ff410953)" d="M 221.507579 77.1015 
L 313.233606 77.1015 
" style="fill:none;stroke:#262626;stroke-linecap:square;stroke-width:4.5;"/>
   </g>
   <g id="line2d_12">
    <path clip-path="url(#p52ff410953)" d="M 164.472805 158.6415 
L 524.909054 158.6415 
" style="fill:none;stroke:#262626;stroke-linecap:square;stroke-width:1.5;"/>
   </g>
   <g id="line2d_13">
    <path clip-path="url(#p52ff410953)" d="M 245.61506 158.6415 
L 357.332658 158.6415 
" style="fill:none;stroke:#262626;stroke-linecap:square;stroke-width:4.5;"/>
   </g>
   <g id="line2d_14">
    <path clip-path="url(#p52ff410953)" d="M 164.472805 240.1815 
L 555.484396 240.1815 
" style="fill:none;stroke:#262626;stroke-linecap:square;stroke-width:1.5;"/>
   </g>
   <g id="line2d_15">
    <path clip-path="url(#p52ff410953)" d="M 258.550782 240.1815 
L 377.324228 240.1815 
" style="fill:none;stroke:#262626;stroke-linecap:square;stroke-width:4.5;"/>
   </g>
   <g id="line2d_16">
    <path clip-path="url(#p52ff410953)" d="M 164.472805 321.7215 
L 552.54446 321.7215 
" style="fill:none;stroke:#262626;stroke-linecap:square;stroke-width:1.5;"/>
   </g>
   <g id="line2d_17">
    <path clip-path="url(#p52ff410953)" d="M 258.550782 321.7215 
L 376.148253 321.7215 
" style="fill:none;stroke:#262626;stroke-linecap:square;stroke-width:4.5;"/>
   </g>
   <g id="patch_3">
    <path d="M 135.073438 362.4915 
L 135.073438 36.3315 
" style="fill:none;stroke:#000000;stroke-linecap:square;stroke-linejoin:miter;stroke-width:0.8;"/>
   </g>
   <g id="patch_4">
    <path d="M 693.073437 362.4915 
L 693.073437 36.3315 
" style="fill:none;stroke:#000000;stroke-linecap:square;stroke-linejoin:miter;stroke-width:0.8;"/>
   </g>
   <g id="patch_5">
    <path d="M 135.073438 362.4915 
L 693.073437 362.4915 
" style="fill:none;stroke:#000000;stroke-linecap:square;stroke-linejoin:miter;stroke-width:0.8;"/>
   </g>
   <g id="patch_6">
    <path d="M 135.073438 36.3315 
L 693.073437 36.3315 
" style="fill:none;stroke:#000000;stroke-linecap:square;stroke-linejoin:miter;stroke-width:0.8;"/>
   </g>
   <g id="PathCollection_1">
    <defs>
     <path d="M 0 1.5 
C 0.397805 1.5 0.77937 1.341951 1.06066 1.06066 
C 1.341951 0.77937 1.5 0.397805 1.5 0 
C 1.5 -0.397805 1.341951 -0.77937 1.06066 -1.06066 
C 0.77937 -1.341951 0.397805 -1.5 0 -1.5 
C -0.397805 -1.5 -0.77937 -1.341951 -1.06066 -1.06066 
C -1.341951 -0.77937 -1.5 -0.397805 -1.5 0 
C -1.5 0.397805 -1.341951 0.77937 -1.06066 1.06066 
C -0.77937 1.341951 -0.397805 1.5 0 1.5 
z
" id="mdfa3001ca6" style="stroke:#262626;"/>
    </defs>
    <g clip-path="url(#p52ff410953)">
     <use style="fill:#ffffff;stroke:#262626;" x="266.782605" xlink:href="#mdfa3001ca6" y="77.1015"/>
    </g>
   </g>
   <g id="PathCollection_2">
    <g clip-path="url(#p52ff410953)">
     <use style="fill:#ffffff;stroke:#262626;" x="291.478074" xlink:href="#mdfa3001ca6" y="158.6415"/>
    </g>
   </g>
   <g id="PathCollection_3">
    <g clip-path="url(#p52ff410953)">
     <use style="fill:#ffffff;stroke:#262626;" x="309.705682" xlink:href="#mdfa3001ca6" y="240.1815"/>
    </g>
   </g>
   <g id="PathCollection_4">
    <g clip-path="url(#p52ff410953)">
     <use style="fill:#ffffff;stroke:#262626;" x="309.117695" xlink:href="#mdfa3001ca6" y="321.7215"/>
    </g>
   </g>
   <g id="text_12">
    <!-- Distribución de: ICSE según el desempeño en naturales -->
    <defs>
     <path d="M 19.671875 64.796875 
L 19.671875 8.109375 
L 31.59375 8.109375 
Q 46.6875 8.109375 53.6875 14.9375 
Q 60.6875 21.78125 60.6875 36.53125 
Q 60.6875 51.171875 53.6875 57.984375 
Q 46.6875 64.796875 31.59375 64.796875 
z
M 9.8125 72.90625 
L 30.078125 72.90625 
Q 51.265625 72.90625 61.171875 64.09375 
Q 71.09375 55.28125 71.09375 36.53125 
Q 71.09375 17.671875 61.125 8.828125 
Q 51.171875 0 30.078125 0 
L 9.8125 0 
z
" id="DejaVuSans-68"/>
     <path d="M 30.609375 48.390625 
Q 23.390625 48.390625 19.1875 42.75 
Q 14.984375 37.109375 14.984375 27.296875 
Q 14.984375 17.484375 19.15625 11.84375 
Q 23.34375 6.203125 30.609375 6.203125 
Q 37.796875 6.203125 41.984375 11.859375 
Q 46.1875 17.53125 46.1875 27.296875 
Q 46.1875 37.015625 41.984375 42.703125 
Q 37.796875 48.390625 30.609375 48.390625 
z
M 30.609375 56 
Q 42.328125 56 49.015625 48.375 
Q 55.71875 40.765625 55.71875 27.296875 
Q 55.71875 13.875 49.015625 6.21875 
Q 42.328125 -1.421875 30.609375 -1.421875 
Q 18.84375 -1.421875 12.171875 6.21875 
Q 5.515625 13.875 5.515625 27.296875 
Q 5.515625 40.765625 12.171875 48.375 
Q 18.84375 56 30.609375 56 
z
M 37.40625 79.984375 
L 47.125 79.984375 
L 31.203125 61.625 
L 23.734375 61.625 
z
" id="DejaVuSans-243"/>
     <path d="M 11.71875 12.40625 
L 22.015625 12.40625 
L 22.015625 0 
L 11.71875 0 
z
M 11.71875 51.703125 
L 22.015625 51.703125 
L 22.015625 39.3125 
L 11.71875 39.3125 
z
" id="DejaVuSans-58"/>
     <path d="M 45.40625 27.984375 
Q 45.40625 37.75 41.375 43.109375 
Q 37.359375 48.484375 30.078125 48.484375 
Q 22.859375 48.484375 18.828125 43.109375 
Q 14.796875 37.75 14.796875 27.984375 
Q 14.796875 18.265625 18.828125 12.890625 
Q 22.859375 7.515625 30.078125 7.515625 
Q 37.359375 7.515625 41.375 12.890625 
Q 45.40625 18.265625 45.40625 27.984375 
z
M 54.390625 6.78125 
Q 54.390625 -7.171875 48.1875 -13.984375 
Q 42 -20.796875 29.203125 -20.796875 
Q 24.46875 -20.796875 20.265625 -20.09375 
Q 16.0625 -19.390625 12.109375 -17.921875 
L 12.109375 -9.1875 
Q 16.0625 -11.328125 19.921875 -12.34375 
Q 23.78125 -13.375 27.78125 -13.375 
Q 36.625 -13.375 41.015625 -8.765625 
Q 45.40625 -4.15625 45.40625 5.171875 
L 45.40625 9.625 
Q 42.625 4.78125 38.28125 2.390625 
Q 33.9375 0 27.875 0 
Q 17.828125 0 11.671875 7.65625 
Q 5.515625 15.328125 5.515625 27.984375 
Q 5.515625 40.671875 11.671875 48.328125 
Q 17.828125 56 27.875 56 
Q 33.9375 56 38.28125 53.609375 
Q 42.625 51.21875 45.40625 46.390625 
L 45.40625 54.6875 
L 54.390625 54.6875 
z
" id="DejaVuSans-103"/>
     <path d="M 8.5 21.578125 
L 8.5 54.6875 
L 17.484375 54.6875 
L 17.484375 21.921875 
Q 17.484375 14.15625 20.5 10.265625 
Q 23.53125 6.390625 29.59375 6.390625 
Q 36.859375 6.390625 41.078125 11.03125 
Q 45.3125 15.671875 45.3125 23.6875 
L 45.3125 54.6875 
L 54.296875 54.6875 
L 54.296875 0 
L 45.3125 0 
L 45.3125 8.40625 
Q 42.046875 3.421875 37.71875 1 
Q 33.40625 -1.421875 27.6875 -1.421875 
Q 18.265625 -1.421875 13.375 4.4375 
Q 8.5 10.296875 8.5 21.578125 
z
M 31.109375 56 
z
M 37.796875 79.984375 
L 47.515625 79.984375 
L 31.59375 61.625 
L 24.125 61.625 
z
" id="DejaVuSans-250"/>
    </defs>
    <g transform="translate(247.209688 16.798125)scale(0.12 -0.12)">
     <use xlink:href="#DejaVuSans-68"/>
     <use x="77.001953" xlink:href="#DejaVuSans-105"/>
     <use x="104.785156" xlink:href="#DejaVuSans-115"/>
     <use x="156.884766" xlink:href="#DejaVuSans-116"/>
     <use x="196.09375" xlink:href="#DejaVuSans-114"/>
     <use x="237.207031" xlink:href="#DejaVuSans-105"/>
     <use x="264.990234" xlink:href="#DejaVuSans-98"/>
     <use x="328.466797" xlink:href="#DejaVuSans-117"/>
     <use x="391.845703" xlink:href="#DejaVuSans-99"/>
     <use x="446.826172" xlink:href="#DejaVuSans-105"/>
     <use x="474.609375" xlink:href="#DejaVuSans-243"/>
     <use x="535.791016" xlink:href="#DejaVuSans-110"/>
     <use x="599.169922" xlink:href="#DejaVuSans-32"/>
     <use x="630.957031" xlink:href="#DejaVuSans-100"/>
     <use x="694.433594" xlink:href="#DejaVuSans-101"/>
     <use x="755.957031" xlink:href="#DejaVuSans-58"/>
     <use x="789.648438" xlink:href="#DejaVuSans-32"/>
     <use x="821.435547" xlink:href="#DejaVuSans-73"/>
     <use x="850.927734" xlink:href="#DejaVuSans-67"/>
     <use x="920.751953" xlink:href="#DejaVuSans-83"/>
     <use x="984.228516" xlink:href="#DejaVuSans-69"/>
     <use x="1047.412109" xlink:href="#DejaVuSans-32"/>
     <use x="1079.199219" xlink:href="#DejaVuSans-115"/>
     <use x="1131.298828" xlink:href="#DejaVuSans-101"/>
     <use x="1192.822266" xlink:href="#DejaVuSans-103"/>
     <use x="1256.298828" xlink:href="#DejaVuSans-250"/>
     <use x="1319.677734" xlink:href="#DejaVuSans-110"/>
     <use x="1383.056641" xlink:href="#DejaVuSans-32"/>
     <use x="1414.84375" xlink:href="#DejaVuSans-101"/>
     <use x="1476.367188" xlink:href="#DejaVuSans-108"/>
     <use x="1504.150391" xlink:href="#DejaVuSans-32"/>
     <use x="1535.9375" xlink:href="#DejaVuSans-100"/>
     <use x="1599.414062" xlink:href="#DejaVuSans-101"/>
     <use x="1660.9375" xlink:href="#DejaVuSans-115"/>
     <use x="1713.037109" xlink:href="#DejaVuSans-101"/>
     <use x="1774.560547" xlink:href="#DejaVuSans-109"/>
     <use x="1871.972656" xlink:href="#DejaVuSans-112"/>
     <use x="1935.449219" xlink:href="#DejaVuSans-101"/>
     <use x="1996.972656" xlink:href="#DejaVuSans-241"/>
     <use x="2060.351562" xlink:href="#DejaVuSans-111"/>
     <use x="2121.533203" xlink:href="#DejaVuSans-32"/>
     <use x="2153.320312" xlink:href="#DejaVuSans-101"/>
     <use x="2214.84375" xlink:href="#DejaVuSans-110"/>
     <use x="2278.222656" xlink:href="#DejaVuSans-32"/>
     <use x="2310.009766" xlink:href="#DejaVuSans-110"/>
     <use x="2373.388672" xlink:href="#DejaVuSans-97"/>
     <use x="2434.667969" xlink:href="#DejaVuSans-116"/>
     <use x="2473.876953" xlink:href="#DejaVuSans-117"/>
     <use x="2537.255859" xlink:href="#DejaVuSans-114"/>
     <use x="2578.369141" xlink:href="#DejaVuSans-97"/>
     <use x="2639.648438" xlink:href="#DejaVuSans-108"/>
     <use x="2667.431641" xlink:href="#DejaVuSans-101"/>
     <use x="2728.955078" xlink:href="#DejaVuSans-115"/>
    </g>
    <!--  Nivel: Primaria -->
    <g transform="translate(368.090937 30.2355)scale(0.12 -0.12)">
     <use xlink:href="#DejaVuSans-32"/>
     <use x="31.787109" xlink:href="#DejaVuSans-78"/>
     <use x="106.591797" xlink:href="#DejaVuSans-105"/>
     <use x="134.375" xlink:href="#DejaVuSans-118"/>
     <use x="193.554688" xlink:href="#DejaVuSans-101"/>
     <use x="255.078125" xlink:href="#DejaVuSans-108"/>
     <use x="282.861328" xlink:href="#DejaVuSans-58"/>
     <use x="316.552734" xlink:href="#DejaVuSans-32"/>
     <use x="348.339844" xlink:href="#DejaVuSans-80"/>
     <use x="408.626953" xlink:href="#DejaVuSans-114"/>
     <use x="449.740234" xlink:href="#DejaVuSans-105"/>
     <use x="477.523438" xlink:href="#DejaVuSans-109"/>
     <use x="574.935547" xlink:href="#DejaVuSans-97"/>
     <use x="636.214844" xlink:href="#DejaVuSans-114"/>
     <use x="677.328125" xlink:href="#DejaVuSans-105"/>
     <use x="705.111328" xlink:href="#DejaVuSans-97"/>
    </g>
   </g>
  </g>
 </g>
 <defs>
  <clipPath id="p52ff410953">
   <rect height="326.16" width="558" x="135.073438" y="36.3315"/>
  </clipPath>
 </defs>
</svg>
