<?xml version="1.0" encoding="utf-8" standalone="no"?>
<!DOCTYPE svg PUBLIC "-//W3C//DTD SVG 1.1//EN"
  "http://www.w3.org/Graphics/SVG/1.1/DTD/svg11.dtd">
<!-- Created with matplotlib (https://matplotlib.org/) -->
<svg height="401.88375pt" version="1.1" viewBox="0 0 703.773437 401.88375" width="703.773437pt" xmlns="http://www.w3.org/2000/svg" xmlns:xlink="http://www.w3.org/1999/xlink">
 <defs>
  <style type="text/css">
*{stroke-linecap:butt;stroke-linejoin:round;}
  </style>
 </defs>
 <g id="figure_1">
  <g id="patch_1">
   <path d="M 0 401.88375 
L 703.773437 401.88375 
L 703.773437 0 
L 0 0 
z
" style="fill:#ffffff;"/>
  </g>
  <g id="axes_1">
   <g id="patch_2">
    <path d="M 135.073438 364.3275 
L 693.073437 364.3275 
L 693.073437 38.1675 
L 135.073438 38.1675 
z
" style="fill:#ffffff;"/>
   </g>
   <g id="PolyCollection_1">
    <defs>
     <path d="M 134.498076 -322.420305 
L 134.498076 -323.472195 
L 140.146063 -324.871982 
L 145.79405 -326.576367 
L 151.442037 -326.473646 
L 157.090024 -324.730578 
L 162.738011 -323.464816 
L 168.385998 -323.133856 
L 174.033986 -323.148437 
L 179.681973 -323.215546 
L 185.32996 -323.300073 
L 190.977947 -323.387088 
L 196.625934 -323.450522 
L 202.273921 -323.489128 
L 207.921908 -323.529673 
L 213.569895 -323.580222 
L 219.217882 -323.583571 
L 224.86587 -323.615034 
L 230.513857 -323.804382 
L 236.161844 -323.978207 
L 241.809831 -323.908852 
L 247.457818 -323.832165 
L 253.105805 -323.953021 
L 258.753792 -324.081235 
L 264.401779 -324.144239 
L 270.049766 -324.417276 
L 275.697753 -325.094337 
L 281.345741 -325.630197 
L 286.993728 -325.499929 
L 292.641715 -325.348514 
L 298.289702 -325.752524 
L 303.937689 -326.36327 
L 309.585676 -326.785188 
L 315.233663 -327.205324 
L 320.88165 -327.916048 
L 326.529637 -328.882145 
L 332.177624 -329.986542 
L 337.825612 -331.146076 
L 343.473599 -332.22697 
L 349.121586 -333.231587 
L 354.769573 -334.250072 
L 360.41756 -335.432189 
L 366.065547 -336.692644 
L 371.713534 -337.949732 
L 377.361521 -339.274726 
L 383.009508 -340.51117 
L 388.657496 -341.539896 
L 394.305483 -342.746782 
L 399.95347 -344.470503 
L 405.601457 -346.797605 
L 411.249444 -349.221542 
L 416.897431 -349.48066 
L 422.545418 -347.140753 
L 428.193405 -344.763982 
L 433.841392 -343.980442 
L 439.489379 -344.248661 
L 445.137367 -343.755713 
L 450.785354 -342.29973 
L 456.433341 -341.595172 
L 462.081328 -342.046869 
L 467.729315 -342.027576 
L 473.377302 -340.965238 
L 479.025289 -339.982231 
L 484.673276 -339.176339 
L 490.321263 -338.08749 
L 495.969251 -337.227509 
L 501.617238 -337.154648 
L 507.265225 -337.542815 
L 512.913212 -337.270122 
L 518.561199 -335.684701 
L 524.209186 -333.770192 
L 529.857173 -332.974315 
L 535.50516 -333.341008 
L 541.153147 -333.37448 
L 546.801134 -332.164573 
L 552.449122 -330.505468 
L 558.097109 -329.465151 
L 563.745096 -329.297348 
L 569.393083 -329.962143 
L 575.04107 -331.118042 
L 580.689057 -332.008862 
L 586.337044 -332.314227 
L 591.985031 -331.993428 
L 597.633018 -331.364654 
L 603.281005 -330.751161 
L 608.928993 -329.860468 
L 614.57698 -328.439802 
L 620.224967 -326.957007 
L 625.872954 -326.005041 
L 631.520941 -325.62937 
L 637.168928 -325.519039 
L 642.816915 -325.277585 
L 648.464902 -324.75062 
L 654.112889 -324.069342 
L 659.760877 -323.522368 
L 665.408864 -323.245956 
L 671.056851 -323.171456 
L 676.704838 -323.188711 
L 682.352825 -323.158186 
L 688.000812 -323.053947 
L 693.648799 -322.975302 
L 693.648799 -322.917198 
L 693.648799 -322.917198 
L 688.000812 -322.838553 
L 682.352825 -322.734314 
L 676.704838 -322.703789 
L 671.056851 -322.721044 
L 665.408864 -322.646544 
L 659.760877 -322.370132 
L 654.112889 -321.823158 
L 648.464902 -321.14188 
L 642.816915 -320.614915 
L 637.168928 -320.373461 
L 631.520941 -320.26313 
L 625.872954 -319.887459 
L 620.224967 -318.935493 
L 614.57698 -317.452698 
L 608.928993 -316.032032 
L 603.281005 -315.141339 
L 597.633018 -314.527846 
L 591.985031 -313.899072 
L 586.337044 -313.578273 
L 580.689057 -313.883638 
L 575.04107 -314.774458 
L 569.393083 -315.930357 
L 563.745096 -316.595152 
L 558.097109 -316.427349 
L 552.449122 -315.387032 
L 546.801134 -313.727927 
L 541.153147 -312.51802 
L 535.50516 -312.551492 
L 529.857173 -312.918185 
L 524.209186 -312.122308 
L 518.561199 -310.207799 
L 512.913212 -308.622378 
L 507.265225 -308.349685 
L 501.617238 -308.737852 
L 495.969251 -308.664991 
L 490.321263 -307.80501 
L 484.673276 -306.716161 
L 479.025289 -305.910269 
L 473.377302 -304.927262 
L 467.729315 -303.864924 
L 462.081328 -303.845631 
L 456.433341 -304.297328 
L 450.785354 -303.59277 
L 445.137367 -302.136787 
L 439.489379 -301.643839 
L 433.841392 -301.912058 
L 428.193405 -301.128518 
L 422.545418 -298.751747 
L 416.897431 -296.41184 
L 411.249444 -296.670958 
L 405.601457 -299.094895 
L 399.95347 -301.421997 
L 394.305483 -303.145718 
L 388.657496 -304.352604 
L 383.009508 -305.38133 
L 377.361521 -306.617774 
L 371.713534 -307.942768 
L 366.065547 -309.199856 
L 360.41756 -310.460311 
L 354.769573 -311.642428 
L 349.121586 -312.660913 
L 343.473599 -313.66553 
L 337.825612 -314.746424 
L 332.177624 -315.905958 
L 326.529637 -317.010355 
L 320.88165 -317.976452 
L 315.233663 -318.687176 
L 309.585676 -319.107312 
L 303.937689 -319.52923 
L 298.289702 -320.139976 
L 292.641715 -320.543986 
L 286.993728 -320.392571 
L 281.345741 -320.262303 
L 275.697753 -320.798163 
L 270.049766 -321.475224 
L 264.401779 -321.748261 
L 258.753792 -321.811265 
L 253.105805 -321.939479 
L 247.457818 -322.060335 
L 241.809831 -321.983648 
L 236.161844 -321.914293 
L 230.513857 -322.088118 
L 224.86587 -322.277466 
L 219.217882 -322.308929 
L 213.569895 -322.312278 
L 207.921908 -322.362827 
L 202.273921 -322.403372 
L 196.625934 -322.441978 
L 190.977947 -322.505412 
L 185.32996 -322.592427 
L 179.681973 -322.676954 
L 174.033986 -322.744063 
L 168.385998 -322.758644 
L 162.738011 -322.427684 
L 157.090024 -321.161922 
L 151.442037 -319.418854 
L 145.79405 -319.316133 
L 140.146063 -321.020518 
L 134.498076 -322.420305 
z
" id="m635b441936" style="stroke:#4c4c4c;stroke-width:1.5;"/>
    </defs>
    <g clip-path="url(#pfa81ce3bf0)">
     <use style="fill:#2020df;stroke:#4c4c4c;stroke-width:1.5;" x="0" xlink:href="#m635b441936" y="401.88375"/>
    </g>
   </g>
   <g id="PolyCollection_2">
    <defs>
     <path d="M 137.084972 -241.036321 
L 137.084972 -241.776179 
L 142.680699 -243.052036 
L 148.276425 -244.140572 
L 153.872152 -243.113231 
L 159.467879 -241.854426 
L 165.063605 -241.561831 
L 170.659332 -241.594892 
L 176.255058 -241.688082 
L 181.850785 -241.801624 
L 187.446511 -241.914094 
L 193.042238 -241.966485 
L 198.637965 -241.97279 
L 204.233691 -241.938382 
L 209.829418 -241.981062 
L 215.425144 -242.141317 
L 221.020871 -242.201479 
L 226.616597 -242.270664 
L 232.212324 -242.53033 
L 237.808051 -242.725913 
L 243.403777 -242.703596 
L 248.999504 -243.064175 
L 254.59523 -243.597931 
L 260.190957 -243.738916 
L 265.786683 -243.781962 
L 271.38241 -244.261482 
L 276.978137 -245.656763 
L 282.573863 -246.727653 
L 288.16959 -246.511639 
L 293.765316 -246.688671 
L 299.361043 -247.811919 
L 304.956769 -248.972505 
L 310.552496 -249.42681 
L 316.148223 -250.019977 
L 321.743949 -251.054184 
L 327.339676 -252.290612 
L 332.935402 -253.959058 
L 338.531129 -256.159769 
L 344.126855 -258.586803 
L 349.722582 -260.944507 
L 355.318309 -262.798953 
L 360.914035 -265.219882 
L 366.509762 -267.010275 
L 372.105488 -267.623251 
L 377.701215 -268.844125 
L 383.296941 -270.398977 
L 388.892668 -270.501887 
L 394.488395 -269.776081 
L 400.084121 -269.433851 
L 405.679848 -270.072839 
L 411.275574 -272.640025 
L 416.871301 -271.249961 
L 422.467027 -265.259242 
L 428.062754 -261.815085 
L 433.65848 -261.591589 
L 439.254207 -262.633108 
L 444.849934 -261.909299 
L 450.44566 -258.709861 
L 456.041387 -256.235812 
L 461.637113 -256.065438 
L 467.23284 -255.885499 
L 472.828566 -254.44449 
L 478.424293 -253.594443 
L 484.02002 -252.671582 
L 489.615746 -250.958029 
L 495.211473 -249.875666 
L 500.807199 -249.69614 
L 506.402926 -249.643054 
L 511.998652 -249.504156 
L 517.594379 -248.695032 
L 523.190106 -247.159905 
L 528.785832 -246.204353 
L 534.381559 -246.40127 
L 539.977285 -246.41807 
L 545.573012 -245.422318 
L 551.168738 -244.315242 
L 556.764465 -243.735957 
L 562.360192 -243.607872 
L 567.955918 -243.822158 
L 573.551645 -244.384733 
L 579.147371 -244.748612 
L 584.743098 -244.793121 
L 590.338824 -244.76178 
L 595.934551 -244.777547 
L 601.530278 -244.637814 
L 607.126004 -244.031561 
L 612.721731 -243.185678 
L 618.317457 -242.442346 
L 623.913184 -242.075567 
L 629.50891 -242.041074 
L 635.104637 -242.116576 
L 640.700364 -242.019393 
L 646.29609 -241.846856 
L 651.891817 -241.691051 
L 657.487543 -241.546492 
L 663.08327 -241.471671 
L 668.678996 -241.478728 
L 674.274723 -241.577496 
L 679.87045 -241.652137 
L 685.466176 -241.550833 
L 691.061903 -241.438586 
L 691.061903 -241.373914 
L 691.061903 -241.373914 
L 685.466176 -241.261667 
L 679.87045 -241.160363 
L 674.274723 -241.235004 
L 668.678996 -241.333772 
L 663.08327 -241.340829 
L 657.487543 -241.266008 
L 651.891817 -241.121449 
L 646.29609 -240.965644 
L 640.700364 -240.793107 
L 635.104637 -240.695924 
L 629.50891 -240.771426 
L 623.913184 -240.736933 
L 618.317457 -240.370154 
L 612.721731 -239.626822 
L 607.126004 -238.780939 
L 601.530278 -238.174686 
L 595.934551 -238.034953 
L 590.338824 -238.05072 
L 584.743098 -238.019379 
L 579.147371 -238.063888 
L 573.551645 -238.427767 
L 567.955918 -238.990342 
L 562.360192 -239.204628 
L 556.764465 -239.076543 
L 551.168738 -238.497258 
L 545.573012 -237.390182 
L 539.977285 -236.39443 
L 534.381559 -236.41123 
L 528.785832 -236.608147 
L 523.190106 -235.652595 
L 517.594379 -234.117468 
L 511.998652 -233.308344 
L 506.402926 -233.169446 
L 500.807199 -233.11636 
L 495.211473 -232.936834 
L 489.615746 -231.854471 
L 484.02002 -230.140918 
L 478.424293 -229.218057 
L 472.828566 -228.36801 
L 467.23284 -226.927001 
L 461.637113 -226.747062 
L 456.041387 -226.576688 
L 450.44566 -224.102639 
L 444.849934 -220.903201 
L 439.254207 -220.179392 
L 433.65848 -221.220911 
L 428.062754 -220.997415 
L 422.467027 -217.553258 
L 416.871301 -211.562539 
L 411.275574 -210.172475 
L 405.679848 -212.739661 
L 400.084121 -213.378649 
L 394.488395 -213.036419 
L 388.892668 -212.310613 
L 383.296941 -212.413523 
L 377.701215 -213.968375 
L 372.105488 -215.189249 
L 366.509762 -215.802225 
L 360.914035 -217.592618 
L 355.318309 -220.013547 
L 349.722582 -221.867993 
L 344.126855 -224.225697 
L 338.531129 -226.652731 
L 332.935402 -228.853442 
L 327.339676 -230.521888 
L 321.743949 -231.758316 
L 316.148223 -232.792523 
L 310.552496 -233.38569 
L 304.956769 -233.839995 
L 299.361043 -235.000581 
L 293.765316 -236.123829 
L 288.16959 -236.300861 
L 282.573863 -236.084847 
L 276.978137 -237.155737 
L 271.38241 -238.551018 
L 265.786683 -239.030538 
L 260.190957 -239.073584 
L 254.59523 -239.214569 
L 248.999504 -239.748325 
L 243.403777 -240.108904 
L 237.808051 -240.086587 
L 232.212324 -240.28217 
L 226.616597 -240.541836 
L 221.020871 -240.611021 
L 215.425144 -240.671183 
L 209.829418 -240.831438 
L 204.233691 -240.874118 
L 198.637965 -240.83971 
L 193.042238 -240.846015 
L 187.446511 -240.898406 
L 181.850785 -241.010876 
L 176.255058 -241.124418 
L 170.659332 -241.217608 
L 165.063605 -241.250669 
L 159.467879 -240.958074 
L 153.872152 -239.699269 
L 148.276425 -238.671928 
L 142.680699 -239.760464 
L 137.084972 -241.036321 
z
" id="mb2902c366a" style="stroke:#4c4c4c;stroke-width:1.5;"/>
    </defs>
    <g clip-path="url(#pfa81ce3bf0)">
     <use style="fill:#2020df;stroke:#4c4c4c;stroke-width:1.5;" x="0" xlink:href="#mb2902c366a" y="401.88375"/>
    </g>
   </g>
   <g id="PolyCollection_3">
    <defs>
     <path d="M 136.813808 -159.465479 
L 136.813808 -160.267021 
L 142.415012 -161.609209 
L 148.016217 -162.826112 
L 153.617422 -161.855787 
L 159.218626 -160.501433 
L 164.819831 -160.157438 
L 170.421035 -160.152747 
L 176.02224 -160.200928 
L 181.623445 -160.267677 
L 187.224649 -160.338104 
L 192.825854 -160.496984 
L 198.427059 -160.725183 
L 204.028263 -160.779802 
L 209.629468 -160.829422 
L 215.230673 -161.043669 
L 220.831877 -161.085747 
L 226.433082 -161.177724 
L 232.034287 -161.619015 
L 237.635491 -162.00105 
L 243.236696 -162.033215 
L 248.8379 -162.462705 
L 254.439105 -163.155922 
L 260.04031 -163.457172 
L 265.641514 -163.69165 
L 271.242719 -164.450691 
L 276.843924 -166.204854 
L 282.445128 -167.477984 
L 288.046333 -167.207067 
L 293.647538 -167.828004 
L 299.248742 -170.290579 
L 304.849947 -172.272116 
L 310.451152 -172.011711 
L 316.052356 -172.603066 
L 321.653561 -174.858673 
L 327.254766 -176.906887 
L 332.85597 -178.973627 
L 338.457175 -181.046648 
L 344.058379 -182.536696 
L 349.659584 -184.214986 
L 355.260789 -186.321615 
L 360.861993 -188.999868 
L 366.463198 -190.584334 
L 372.064403 -190.782256 
L 377.665607 -191.240744 
L 383.266812 -191.538358 
L 388.868017 -190.294374 
L 394.469221 -188.834037 
L 400.070426 -187.992337 
L 405.671631 -188.416427 
L 411.272835 -190.510874 
L 416.87404 -188.676207 
L 422.475244 -182.920724 
L 428.076449 -178.77986 
L 433.677654 -176.957615 
L 439.278858 -176.102741 
L 444.880063 -174.490563 
L 450.481268 -172.341556 
L 456.082472 -171.174969 
L 461.683677 -170.721339 
L 467.284882 -169.501442 
L 472.886086 -167.737405 
L 478.487291 -166.868776 
L 484.088496 -166.227689 
L 489.6897 -165.354273 
L 495.290905 -165.161848 
L 500.892109 -165.389432 
L 506.493314 -165.006905 
L 512.094519 -164.480966 
L 517.695723 -163.828214 
L 523.296928 -162.732828 
L 528.898133 -162.065825 
L 534.499337 -162.168764 
L 540.100542 -162.310504 
L 545.701747 -161.818268 
L 551.302951 -161.24327 
L 556.904156 -161.026328 
L 562.505361 -160.970586 
L 568.106565 -161.011997 
L 573.70777 -161.19048 
L 579.308975 -161.313472 
L 584.910179 -161.449577 
L 590.511384 -161.701919 
L 596.112588 -161.840421 
L 601.713793 -161.626974 
L 607.314998 -161.091442 
L 612.916202 -160.629484 
L 618.517407 -160.322928 
L 624.118612 -160.149818 
L 629.719816 -160.106013 
L 635.321021 -160.084481 
L 640.922226 -160.033382 
L 646.52343 -159.986009 
L 652.124635 -159.945232 
L 657.72584 -159.907104 
L 663.327044 -159.886096 
L 668.928249 -159.916044 
L 674.529453 -160.046601 
L 680.130658 -160.138334 
L 685.731863 -160.026651 
L 691.333067 -159.903136 
L 691.333067 -159.829364 
L 691.333067 -159.829364 
L 685.731863 -159.705849 
L 680.130658 -159.594166 
L 674.529453 -159.685899 
L 668.928249 -159.816456 
L 663.327044 -159.846404 
L 657.72584 -159.825396 
L 652.124635 -159.787268 
L 646.52343 -159.746491 
L 640.922226 -159.699118 
L 635.321021 -159.648019 
L 629.719816 -159.626487 
L 624.118612 -159.582682 
L 618.517407 -159.409572 
L 612.916202 -159.103016 
L 607.314998 -158.641058 
L 601.713793 -158.105526 
L 596.112588 -157.892079 
L 590.511384 -158.030581 
L 584.910179 -158.282923 
L 579.308975 -158.419028 
L 573.70777 -158.54202 
L 568.106565 -158.720503 
L 562.505361 -158.761914 
L 556.904156 -158.706172 
L 551.302951 -158.48923 
L 545.701747 -157.914232 
L 540.100542 -157.421996 
L 534.499337 -157.563736 
L 528.898133 -157.666675 
L 523.296928 -156.999672 
L 517.695723 -155.904286 
L 512.094519 -155.251534 
L 506.493314 -154.725595 
L 500.892109 -154.343068 
L 495.290905 -154.570652 
L 489.6897 -154.378227 
L 484.088496 -153.504811 
L 478.487291 -152.863724 
L 472.886086 -151.995095 
L 467.284882 -150.231058 
L 461.683677 -149.011161 
L 456.082472 -148.557531 
L 450.481268 -147.390944 
L 444.880063 -145.241937 
L 439.278858 -143.629759 
L 433.677654 -142.774885 
L 428.076449 -140.95264 
L 422.475244 -136.811776 
L 416.87404 -131.056293 
L 411.272835 -129.221626 
L 405.671631 -131.316073 
L 400.070426 -131.740163 
L 394.469221 -130.898463 
L 388.868017 -129.438126 
L 383.266812 -128.194142 
L 377.665607 -128.491756 
L 372.064403 -128.950244 
L 366.463198 -129.148166 
L 360.861993 -130.732632 
L 355.260789 -133.410885 
L 349.659584 -135.517514 
L 344.058379 -137.195804 
L 338.457175 -138.685852 
L 332.85597 -140.758873 
L 327.254766 -142.825613 
L 321.653561 -144.873827 
L 316.052356 -147.129434 
L 310.451152 -147.720789 
L 304.849947 -147.460384 
L 299.248742 -149.441921 
L 293.647538 -151.904496 
L 288.046333 -152.525433 
L 282.445128 -152.254516 
L 276.843924 -153.527646 
L 271.242719 -155.281809 
L 265.641514 -156.04085 
L 260.04031 -156.275328 
L 254.439105 -156.576578 
L 248.8379 -157.269795 
L 243.236696 -157.699285 
L 237.635491 -157.73145 
L 232.034287 -158.113485 
L 226.433082 -158.554776 
L 220.831877 -158.646753 
L 215.230673 -158.688831 
L 209.629468 -158.903078 
L 204.028263 -158.952698 
L 198.427059 -159.007317 
L 192.825854 -159.235516 
L 187.224649 -159.394396 
L 181.623445 -159.464823 
L 176.02224 -159.531572 
L 170.421035 -159.579753 
L 164.819831 -159.575062 
L 159.218626 -159.231067 
L 153.617422 -157.876713 
L 148.016217 -156.906388 
L 142.415012 -158.123291 
L 136.813808 -159.465479 
z
" id="mf6fa3a1284" style="stroke:#4c4c4c;stroke-width:1.5;"/>
    </defs>
    <g clip-path="url(#pfa81ce3bf0)">
     <use style="fill:#2020df;stroke:#4c4c4c;stroke-width:1.5;" x="0" xlink:href="#mf6fa3a1284" y="401.88375"/>
    </g>
   </g>
   <g id="PolyCollection_4">
    <defs>
     <path d="M 135.784898 -77.827113 
L 135.784898 -78.825387 
L 141.406889 -80.327745 
L 147.02888 -81.938095 
L 152.65087 -81.286075 
L 158.272861 -79.523919 
L 163.894852 -78.753945 
L 169.516842 -78.664097 
L 175.138833 -78.72845 
L 180.760824 -78.864185 
L 186.382814 -79.034081 
L 192.004805 -79.211875 
L 197.626796 -79.334787 
L 203.248787 -79.342447 
L 208.870777 -79.418583 
L 214.492768 -79.65581 
L 220.114759 -79.765296 
L 225.736749 -79.955982 
L 231.35874 -80.531714 
L 236.980731 -81.065514 
L 242.602721 -81.263692 
L 248.224712 -81.864496 
L 253.846703 -82.821351 
L 259.468693 -83.265672 
L 265.090684 -83.485717 
L 270.712675 -84.234045 
L 276.334666 -85.808968 
L 281.956656 -86.993556 
L 287.578647 -86.92031 
L 293.200638 -87.546495 
L 298.822628 -89.612461 
L 304.444619 -91.222937 
L 310.06661 -91.349877 
L 315.6886 -92.272716 
L 321.310591 -94.865682 
L 326.932582 -97.449786 
L 332.554572 -99.485144 
L 338.176563 -101.056972 
L 343.798554 -102.321643 
L 349.420545 -104.38427 
L 355.042535 -106.926691 
L 360.664526 -108.939503 
L 366.286517 -109.943861 
L 371.908507 -110.469768 
L 377.530498 -110.94225 
L 383.152489 -109.915872 
L 388.774479 -107.209685 
L 394.39647 -105.293838 
L 400.018461 -104.732804 
L 405.640451 -105.090028 
L 411.262442 -105.260031 
L 416.884433 -101.693296 
L 422.506424 -96.101677 
L 428.128414 -93.151926 
L 433.750405 -92.913321 
L 439.372396 -92.828984 
L 444.994386 -90.991956 
L 450.616377 -88.625005 
L 456.238368 -87.463793 
L 461.860358 -87.213003 
L 467.482349 -86.841273 
L 473.10434 -85.93167 
L 478.72633 -84.822313 
L 484.348321 -83.814028 
L 489.970312 -83.481403 
L 495.592303 -83.684864 
L 501.214293 -83.770534 
L 506.836284 -83.920635 
L 512.458275 -84.244324 
L 518.080265 -83.36496 
L 523.702256 -81.509881 
L 529.324247 -80.367224 
L 534.946237 -80.112963 
L 540.568228 -80.123854 
L 546.190219 -79.99002 
L 551.812209 -79.783284 
L 557.4342 -79.637064 
L 563.056191 -79.492928 
L 568.678182 -79.431319 
L 574.300172 -79.556994 
L 579.922163 -79.767401 
L 585.544154 -79.989806 
L 591.166144 -80.057949 
L 596.788135 -79.903382 
L 602.410126 -79.659022 
L 608.032116 -79.403581 
L 613.654107 -79.124573 
L 619.276098 -78.836409 
L 624.898088 -78.671649 
L 630.520079 -78.607024 
L 636.14207 -78.54292 
L 641.764061 -78.474041 
L 647.386051 -78.425339 
L 653.008042 -78.400018 
L 658.630033 -78.383821 
L 664.252023 -78.36185 
L 669.874014 -78.357792 
L 675.496005 -78.385256 
L 681.117995 -78.396016 
L 686.739986 -78.364648 
L 692.361977 -78.335806 
L 692.361977 -78.316694 
L 692.361977 -78.316694 
L 686.739986 -78.287852 
L 681.117995 -78.256484 
L 675.496005 -78.267244 
L 669.874014 -78.294708 
L 664.252023 -78.29065 
L 658.630033 -78.268679 
L 653.008042 -78.252482 
L 647.386051 -78.227161 
L 641.764061 -78.178459 
L 636.14207 -78.10958 
L 630.520079 -78.045476 
L 624.898088 -77.980851 
L 619.276098 -77.816091 
L 613.654107 -77.527927 
L 608.032116 -77.248919 
L 602.410126 -76.993478 
L 596.788135 -76.749118 
L 591.166144 -76.594551 
L 585.544154 -76.662694 
L 579.922163 -76.885099 
L 574.300172 -77.095506 
L 568.678182 -77.221181 
L 563.056191 -77.159572 
L 557.4342 -77.015436 
L 551.812209 -76.869216 
L 546.190219 -76.66248 
L 540.568228 -76.528646 
L 534.946237 -76.539537 
L 529.324247 -76.285276 
L 523.702256 -75.142619 
L 518.080265 -73.28754 
L 512.458275 -72.408176 
L 506.836284 -72.731865 
L 501.214293 -72.881966 
L 495.592303 -72.967636 
L 489.970312 -73.171097 
L 484.348321 -72.838472 
L 478.72633 -71.830187 
L 473.10434 -70.72083 
L 467.482349 -69.811227 
L 461.860358 -69.439497 
L 456.238368 -69.188707 
L 450.616377 -68.027495 
L 444.994386 -65.660544 
L 439.372396 -63.823516 
L 433.750405 -63.739179 
L 428.128414 -63.500574 
L 422.506424 -60.550823 
L 416.884433 -54.959204 
L 411.262442 -51.392469 
L 405.640451 -51.562472 
L 400.018461 -51.919696 
L 394.39647 -51.358662 
L 388.774479 -49.442815 
L 383.152489 -46.736628 
L 377.530498 -45.71025 
L 371.908507 -46.182732 
L 366.286517 -46.708639 
L 360.664526 -47.712997 
L 355.042535 -49.725809 
L 349.420545 -52.26823 
L 343.798554 -54.330857 
L 338.176563 -55.595528 
L 332.554572 -57.167356 
L 326.932582 -59.202714 
L 321.310591 -61.786818 
L 315.6886 -64.379784 
L 310.06661 -65.302623 
L 304.444619 -65.429563 
L 298.822628 -67.040039 
L 293.200638 -69.106005 
L 287.578647 -69.73219 
L 281.956656 -69.658944 
L 276.334666 -70.843532 
L 270.712675 -72.418455 
L 265.090684 -73.166783 
L 259.468693 -73.386828 
L 253.846703 -73.831149 
L 248.224712 -74.788004 
L 242.602721 -75.388808 
L 236.980731 -75.586986 
L 231.35874 -76.120786 
L 225.736749 -76.696518 
L 220.114759 -76.887204 
L 214.492768 -76.99669 
L 208.870777 -77.233917 
L 203.248787 -77.310053 
L 197.626796 -77.317713 
L 192.004805 -77.440625 
L 186.382814 -77.618419 
L 180.760824 -77.788315 
L 175.138833 -77.92405 
L 169.516842 -77.988403 
L 163.894852 -77.898555 
L 158.272861 -77.128581 
L 152.65087 -75.366425 
L 147.02888 -74.714405 
L 141.406889 -76.324755 
L 135.784898 -77.827113 
z
" id="me5c1e5d023" style="stroke:#4c4c4c;stroke-width:1.5;"/>
    </defs>
    <g clip-path="url(#pfa81ce3bf0)">
     <use style="fill:#2020df;stroke:#4c4c4c;stroke-width:1.5;" x="0" xlink:href="#me5c1e5d023" y="401.88375"/>
    </g>
   </g>
   <g id="matplotlib.axis_1">
    <g id="xtick_1">
     <g id="line2d_1">
      <defs>
       <path d="M 0 0 
L 0 3.5 
" id="m5d20873da1" style="stroke:#000000;stroke-width:0.8;"/>
      </defs>
      <g>
       <use style="stroke:#000000;stroke-width:0.8;" x="148.359152" xlink:href="#m5d20873da1" y="364.3275"/>
      </g>
     </g>
     <g id="text_1">
      <!-- 1.00 -->
      <defs>
       <path d="M 12.40625 8.296875 
L 28.515625 8.296875 
L 28.515625 63.921875 
L 10.984375 60.40625 
L 10.984375 69.390625 
L 28.421875 72.90625 
L 38.28125 72.90625 
L 38.28125 8.296875 
L 54.390625 8.296875 
L 54.390625 0 
L 12.40625 0 
z
" id="DejaVuSans-49"/>
       <path d="M 10.6875 12.40625 
L 21 12.40625 
L 21 0 
L 10.6875 0 
z
" id="DejaVuSans-46"/>
       <path d="M 31.78125 66.40625 
Q 24.171875 66.40625 20.328125 58.90625 
Q 16.5 51.421875 16.5 36.375 
Q 16.5 21.390625 20.328125 13.890625 
Q 24.171875 6.390625 31.78125 6.390625 
Q 39.453125 6.390625 43.28125 13.890625 
Q 47.125 21.390625 47.125 36.375 
Q 47.125 51.421875 43.28125 58.90625 
Q 39.453125 66.40625 31.78125 66.40625 
z
M 31.78125 74.21875 
Q 44.046875 74.21875 50.515625 64.515625 
Q 56.984375 54.828125 56.984375 36.375 
Q 56.984375 17.96875 50.515625 8.265625 
Q 44.046875 -1.421875 31.78125 -1.421875 
Q 19.53125 -1.421875 13.0625 8.265625 
Q 6.59375 17.96875 6.59375 36.375 
Q 6.59375 54.828125 13.0625 64.515625 
Q 19.53125 74.21875 31.78125 74.21875 
z
" id="DejaVuSans-48"/>
      </defs>
      <g transform="translate(137.226339 378.925937)scale(0.1 -0.1)">
       <use xlink:href="#DejaVuSans-49"/>
       <use x="63.623047" xlink:href="#DejaVuSans-46"/>
       <use x="95.410156" xlink:href="#DejaVuSans-48"/>
       <use x="159.033203" xlink:href="#DejaVuSans-48"/>
      </g>
     </g>
    </g>
    <g id="xtick_2">
     <g id="line2d_2">
      <g>
       <use style="stroke:#000000;stroke-width:0.8;" x="214.787723" xlink:href="#m5d20873da1" y="364.3275"/>
      </g>
     </g>
     <g id="text_2">
      <!-- 1.25 -->
      <defs>
       <path d="M 19.1875 8.296875 
L 53.609375 8.296875 
L 53.609375 0 
L 7.328125 0 
L 7.328125 8.296875 
Q 12.9375 14.109375 22.625 23.890625 
Q 32.328125 33.6875 34.8125 36.53125 
Q 39.546875 41.84375 41.421875 45.53125 
Q 43.3125 49.21875 43.3125 52.78125 
Q 43.3125 58.59375 39.234375 62.25 
Q 35.15625 65.921875 28.609375 65.921875 
Q 23.96875 65.921875 18.8125 64.3125 
Q 13.671875 62.703125 7.8125 59.421875 
L 7.8125 69.390625 
Q 13.765625 71.78125 18.9375 73 
Q 24.125 74.21875 28.421875 74.21875 
Q 39.75 74.21875 46.484375 68.546875 
Q 53.21875 62.890625 53.21875 53.421875 
Q 53.21875 48.921875 51.53125 44.890625 
Q 49.859375 40.875 45.40625 35.40625 
Q 44.1875 33.984375 37.640625 27.21875 
Q 31.109375 20.453125 19.1875 8.296875 
z
" id="DejaVuSans-50"/>
       <path d="M 10.796875 72.90625 
L 49.515625 72.90625 
L 49.515625 64.59375 
L 19.828125 64.59375 
L 19.828125 46.734375 
Q 21.96875 47.46875 24.109375 47.828125 
Q 26.265625 48.1875 28.421875 48.1875 
Q 40.625 48.1875 47.75 41.5 
Q 54.890625 34.8125 54.890625 23.390625 
Q 54.890625 11.625 47.5625 5.09375 
Q 40.234375 -1.421875 26.90625 -1.421875 
Q 22.3125 -1.421875 17.546875 -0.640625 
Q 12.796875 0.140625 7.71875 1.703125 
L 7.71875 11.625 
Q 12.109375 9.234375 16.796875 8.0625 
Q 21.484375 6.890625 26.703125 6.890625 
Q 35.15625 6.890625 40.078125 11.328125 
Q 45.015625 15.765625 45.015625 23.390625 
Q 45.015625 31 40.078125 35.4375 
Q 35.15625 39.890625 26.703125 39.890625 
Q 22.75 39.890625 18.8125 39.015625 
Q 14.890625 38.140625 10.796875 36.28125 
z
" id="DejaVuSans-53"/>
      </defs>
      <g transform="translate(203.654911 378.925937)scale(0.1 -0.1)">
       <use xlink:href="#DejaVuSans-49"/>
       <use x="63.623047" xlink:href="#DejaVuSans-46"/>
       <use x="95.410156" xlink:href="#DejaVuSans-50"/>
       <use x="159.033203" xlink:href="#DejaVuSans-53"/>
      </g>
     </g>
    </g>
    <g id="xtick_3">
     <g id="line2d_3">
      <g>
       <use style="stroke:#000000;stroke-width:0.8;" x="281.216295" xlink:href="#m5d20873da1" y="364.3275"/>
      </g>
     </g>
     <g id="text_3">
      <!-- 1.50 -->
      <g transform="translate(270.083482 378.925937)scale(0.1 -0.1)">
       <use xlink:href="#DejaVuSans-49"/>
       <use x="63.623047" xlink:href="#DejaVuSans-46"/>
       <use x="95.410156" xlink:href="#DejaVuSans-53"/>
       <use x="159.033203" xlink:href="#DejaVuSans-48"/>
      </g>
     </g>
    </g>
    <g id="xtick_4">
     <g id="line2d_4">
      <g>
       <use style="stroke:#000000;stroke-width:0.8;" x="347.644866" xlink:href="#m5d20873da1" y="364.3275"/>
      </g>
     </g>
     <g id="text_4">
      <!-- 1.75 -->
      <defs>
       <path d="M 8.203125 72.90625 
L 55.078125 72.90625 
L 55.078125 68.703125 
L 28.609375 0 
L 18.3125 0 
L 43.21875 64.59375 
L 8.203125 64.59375 
z
" id="DejaVuSans-55"/>
      </defs>
      <g transform="translate(336.512054 378.925937)scale(0.1 -0.1)">
       <use xlink:href="#DejaVuSans-49"/>
       <use x="63.623047" xlink:href="#DejaVuSans-46"/>
       <use x="95.410156" xlink:href="#DejaVuSans-55"/>
       <use x="159.033203" xlink:href="#DejaVuSans-53"/>
      </g>
     </g>
    </g>
    <g id="xtick_5">
     <g id="line2d_5">
      <g>
       <use style="stroke:#000000;stroke-width:0.8;" x="414.073438" xlink:href="#m5d20873da1" y="364.3275"/>
      </g>
     </g>
     <g id="text_5">
      <!-- 2.00 -->
      <g transform="translate(402.940625 378.925937)scale(0.1 -0.1)">
       <use xlink:href="#DejaVuSans-50"/>
       <use x="63.623047" xlink:href="#DejaVuSans-46"/>
       <use x="95.410156" xlink:href="#DejaVuSans-48"/>
       <use x="159.033203" xlink:href="#DejaVuSans-48"/>
      </g>
     </g>
    </g>
    <g id="xtick_6">
     <g id="line2d_6">
      <g>
       <use style="stroke:#000000;stroke-width:0.8;" x="480.502009" xlink:href="#m5d20873da1" y="364.3275"/>
      </g>
     </g>
     <g id="text_6">
      <!-- 2.25 -->
      <g transform="translate(469.369196 378.925937)scale(0.1 -0.1)">
       <use xlink:href="#DejaVuSans-50"/>
       <use x="63.623047" xlink:href="#DejaVuSans-46"/>
       <use x="95.410156" xlink:href="#DejaVuSans-50"/>
       <use x="159.033203" xlink:href="#DejaVuSans-53"/>
      </g>
     </g>
    </g>
    <g id="xtick_7">
     <g id="line2d_7">
      <g>
       <use style="stroke:#000000;stroke-width:0.8;" x="546.93058" xlink:href="#m5d20873da1" y="364.3275"/>
      </g>
     </g>
     <g id="text_7">
      <!-- 2.50 -->
      <g transform="translate(535.797768 378.925937)scale(0.1 -0.1)">
       <use xlink:href="#DejaVuSans-50"/>
       <use x="63.623047" xlink:href="#DejaVuSans-46"/>
       <use x="95.410156" xlink:href="#DejaVuSans-53"/>
       <use x="159.033203" xlink:href="#DejaVuSans-48"/>
      </g>
     </g>
    </g>
    <g id="xtick_8">
     <g id="line2d_8">
      <g>
       <use style="stroke:#000000;stroke-width:0.8;" x="613.359152" xlink:href="#m5d20873da1" y="364.3275"/>
      </g>
     </g>
     <g id="text_8">
      <!-- 2.75 -->
      <g transform="translate(602.226339 378.925937)scale(0.1 -0.1)">
       <use xlink:href="#DejaVuSans-50"/>
       <use x="63.623047" xlink:href="#DejaVuSans-46"/>
       <use x="95.410156" xlink:href="#DejaVuSans-55"/>
       <use x="159.033203" xlink:href="#DejaVuSans-53"/>
      </g>
     </g>
    </g>
    <g id="xtick_9">
     <g id="line2d_9">
      <g>
       <use style="stroke:#000000;stroke-width:0.8;" x="679.787723" xlink:href="#m5d20873da1" y="364.3275"/>
      </g>
     </g>
     <g id="text_9">
      <!-- 3.00 -->
      <defs>
       <path d="M 40.578125 39.3125 
Q 47.65625 37.796875 51.625 33 
Q 55.609375 28.21875 55.609375 21.1875 
Q 55.609375 10.40625 48.1875 4.484375 
Q 40.765625 -1.421875 27.09375 -1.421875 
Q 22.515625 -1.421875 17.65625 -0.515625 
Q 12.796875 0.390625 7.625 2.203125 
L 7.625 11.71875 
Q 11.71875 9.328125 16.59375 8.109375 
Q 21.484375 6.890625 26.8125 6.890625 
Q 36.078125 6.890625 40.9375 10.546875 
Q 45.796875 14.203125 45.796875 21.1875 
Q 45.796875 27.640625 41.28125 31.265625 
Q 36.765625 34.90625 28.71875 34.90625 
L 20.21875 34.90625 
L 20.21875 43.015625 
L 29.109375 43.015625 
Q 36.375 43.015625 40.234375 45.921875 
Q 44.09375 48.828125 44.09375 54.296875 
Q 44.09375 59.90625 40.109375 62.90625 
Q 36.140625 65.921875 28.71875 65.921875 
Q 24.65625 65.921875 20.015625 65.03125 
Q 15.375 64.15625 9.8125 62.3125 
L 9.8125 71.09375 
Q 15.4375 72.65625 20.34375 73.4375 
Q 25.25 74.21875 29.59375 74.21875 
Q 40.828125 74.21875 47.359375 69.109375 
Q 53.90625 64.015625 53.90625 55.328125 
Q 53.90625 49.265625 50.4375 45.09375 
Q 46.96875 40.921875 40.578125 39.3125 
z
" id="DejaVuSans-51"/>
      </defs>
      <g transform="translate(668.654911 378.925937)scale(0.1 -0.1)">
       <use xlink:href="#DejaVuSans-51"/>
       <use x="63.623047" xlink:href="#DejaVuSans-46"/>
       <use x="95.410156" xlink:href="#DejaVuSans-48"/>
       <use x="159.033203" xlink:href="#DejaVuSans-48"/>
      </g>
     </g>
    </g>
    <g id="text_10">
     <!-- Índice socioeconómico -->
     <defs>
      <path d="M 9.8125 72.90625 
L 19.671875 72.90625 
L 19.671875 0 
L 9.8125 0 
z
M 17.484375 92.734375 
L 26.515625 92.734375 
L 15.375 79.84375 
L 7.90625 79.84375 
z
" id="DejaVuSans-205"/>
      <path d="M 54.890625 33.015625 
L 54.890625 0 
L 45.90625 0 
L 45.90625 32.71875 
Q 45.90625 40.484375 42.875 44.328125 
Q 39.84375 48.1875 33.796875 48.1875 
Q 26.515625 48.1875 22.3125 43.546875 
Q 18.109375 38.921875 18.109375 30.90625 
L 18.109375 0 
L 9.078125 0 
L 9.078125 54.6875 
L 18.109375 54.6875 
L 18.109375 46.1875 
Q 21.34375 51.125 25.703125 53.5625 
Q 30.078125 56 35.796875 56 
Q 45.21875 56 50.046875 50.171875 
Q 54.890625 44.34375 54.890625 33.015625 
z
" id="DejaVuSans-110"/>
      <path d="M 45.40625 46.390625 
L 45.40625 75.984375 
L 54.390625 75.984375 
L 54.390625 0 
L 45.40625 0 
L 45.40625 8.203125 
Q 42.578125 3.328125 38.25 0.953125 
Q 33.9375 -1.421875 27.875 -1.421875 
Q 17.96875 -1.421875 11.734375 6.484375 
Q 5.515625 14.40625 5.515625 27.296875 
Q 5.515625 40.1875 11.734375 48.09375 
Q 17.96875 56 27.875 56 
Q 33.9375 56 38.25 53.625 
Q 42.578125 51.265625 45.40625 46.390625 
z
M 14.796875 27.296875 
Q 14.796875 17.390625 18.875 11.75 
Q 22.953125 6.109375 30.078125 6.109375 
Q 37.203125 6.109375 41.296875 11.75 
Q 45.40625 17.390625 45.40625 27.296875 
Q 45.40625 37.203125 41.296875 42.84375 
Q 37.203125 48.484375 30.078125 48.484375 
Q 22.953125 48.484375 18.875 42.84375 
Q 14.796875 37.203125 14.796875 27.296875 
z
" id="DejaVuSans-100"/>
      <path d="M 9.421875 54.6875 
L 18.40625 54.6875 
L 18.40625 0 
L 9.421875 0 
z
M 9.421875 75.984375 
L 18.40625 75.984375 
L 18.40625 64.59375 
L 9.421875 64.59375 
z
" id="DejaVuSans-105"/>
      <path d="M 48.78125 52.59375 
L 48.78125 44.1875 
Q 44.96875 46.296875 41.140625 47.34375 
Q 37.3125 48.390625 33.40625 48.390625 
Q 24.65625 48.390625 19.8125 42.84375 
Q 14.984375 37.3125 14.984375 27.296875 
Q 14.984375 17.28125 19.8125 11.734375 
Q 24.65625 6.203125 33.40625 6.203125 
Q 37.3125 6.203125 41.140625 7.25 
Q 44.96875 8.296875 48.78125 10.40625 
L 48.78125 2.09375 
Q 45.015625 0.34375 40.984375 -0.53125 
Q 36.96875 -1.421875 32.421875 -1.421875 
Q 20.0625 -1.421875 12.78125 6.34375 
Q 5.515625 14.109375 5.515625 27.296875 
Q 5.515625 40.671875 12.859375 48.328125 
Q 20.21875 56 33.015625 56 
Q 37.15625 56 41.109375 55.140625 
Q 45.0625 54.296875 48.78125 52.59375 
z
" id="DejaVuSans-99"/>
      <path d="M 56.203125 29.59375 
L 56.203125 25.203125 
L 14.890625 25.203125 
Q 15.484375 15.921875 20.484375 11.0625 
Q 25.484375 6.203125 34.421875 6.203125 
Q 39.59375 6.203125 44.453125 7.46875 
Q 49.3125 8.734375 54.109375 11.28125 
L 54.109375 2.78125 
Q 49.265625 0.734375 44.1875 -0.34375 
Q 39.109375 -1.421875 33.890625 -1.421875 
Q 20.796875 -1.421875 13.15625 6.1875 
Q 5.515625 13.8125 5.515625 26.8125 
Q 5.515625 40.234375 12.765625 48.109375 
Q 20.015625 56 32.328125 56 
Q 43.359375 56 49.78125 48.890625 
Q 56.203125 41.796875 56.203125 29.59375 
z
M 47.21875 32.234375 
Q 47.125 39.59375 43.09375 43.984375 
Q 39.0625 48.390625 32.421875 48.390625 
Q 24.90625 48.390625 20.390625 44.140625 
Q 15.875 39.890625 15.1875 32.171875 
z
" id="DejaVuSans-101"/>
      <path id="DejaVuSans-32"/>
      <path d="M 44.28125 53.078125 
L 44.28125 44.578125 
Q 40.484375 46.53125 36.375 47.5 
Q 32.28125 48.484375 27.875 48.484375 
Q 21.1875 48.484375 17.84375 46.4375 
Q 14.5 44.390625 14.5 40.28125 
Q 14.5 37.15625 16.890625 35.375 
Q 19.28125 33.59375 26.515625 31.984375 
L 29.59375 31.296875 
Q 39.15625 29.25 43.1875 25.515625 
Q 47.21875 21.78125 47.21875 15.09375 
Q 47.21875 7.46875 41.1875 3.015625 
Q 35.15625 -1.421875 24.609375 -1.421875 
Q 20.21875 -1.421875 15.453125 -0.5625 
Q 10.6875 0.296875 5.421875 2 
L 5.421875 11.28125 
Q 10.40625 8.6875 15.234375 7.390625 
Q 20.0625 6.109375 24.8125 6.109375 
Q 31.15625 6.109375 34.5625 8.28125 
Q 37.984375 10.453125 37.984375 14.40625 
Q 37.984375 18.0625 35.515625 20.015625 
Q 33.0625 21.96875 24.703125 23.78125 
L 21.578125 24.515625 
Q 13.234375 26.265625 9.515625 29.90625 
Q 5.8125 33.546875 5.8125 39.890625 
Q 5.8125 47.609375 11.28125 51.796875 
Q 16.75 56 26.8125 56 
Q 31.78125 56 36.171875 55.265625 
Q 40.578125 54.546875 44.28125 53.078125 
z
" id="DejaVuSans-115"/>
      <path d="M 30.609375 48.390625 
Q 23.390625 48.390625 19.1875 42.75 
Q 14.984375 37.109375 14.984375 27.296875 
Q 14.984375 17.484375 19.15625 11.84375 
Q 23.34375 6.203125 30.609375 6.203125 
Q 37.796875 6.203125 41.984375 11.859375 
Q 46.1875 17.53125 46.1875 27.296875 
Q 46.1875 37.015625 41.984375 42.703125 
Q 37.796875 48.390625 30.609375 48.390625 
z
M 30.609375 56 
Q 42.328125 56 49.015625 48.375 
Q 55.71875 40.765625 55.71875 27.296875 
Q 55.71875 13.875 49.015625 6.21875 
Q 42.328125 -1.421875 30.609375 -1.421875 
Q 18.84375 -1.421875 12.171875 6.21875 
Q 5.515625 13.875 5.515625 27.296875 
Q 5.515625 40.765625 12.171875 48.375 
Q 18.84375 56 30.609375 56 
z
" id="DejaVuSans-111"/>
      <path d="M 30.609375 48.390625 
Q 23.390625 48.390625 19.1875 42.75 
Q 14.984375 37.109375 14.984375 27.296875 
Q 14.984375 17.484375 19.15625 11.84375 
Q 23.34375 6.203125 30.609375 6.203125 
Q 37.796875 6.203125 41.984375 11.859375 
Q 46.1875 17.53125 46.1875 27.296875 
Q 46.1875 37.015625 41.984375 42.703125 
Q 37.796875 48.390625 30.609375 48.390625 
z
M 30.609375 56 
Q 42.328125 56 49.015625 48.375 
Q 55.71875 40.765625 55.71875 27.296875 
Q 55.71875 13.875 49.015625 6.21875 
Q 42.328125 -1.421875 30.609375 -1.421875 
Q 18.84375 -1.421875 12.171875 6.21875 
Q 5.515625 13.875 5.515625 27.296875 
Q 5.515625 40.765625 12.171875 48.375 
Q 18.84375 56 30.609375 56 
z
M 37.40625 79.984375 
L 47.125 79.984375 
L 31.203125 61.625 
L 23.734375 61.625 
z
" id="DejaVuSans-243"/>
      <path d="M 52 44.1875 
Q 55.375 50.25 60.0625 53.125 
Q 64.75 56 71.09375 56 
Q 79.640625 56 84.28125 50.015625 
Q 88.921875 44.046875 88.921875 33.015625 
L 88.921875 0 
L 79.890625 0 
L 79.890625 32.71875 
Q 79.890625 40.578125 77.09375 44.375 
Q 74.3125 48.1875 68.609375 48.1875 
Q 61.625 48.1875 57.5625 43.546875 
Q 53.515625 38.921875 53.515625 30.90625 
L 53.515625 0 
L 44.484375 0 
L 44.484375 32.71875 
Q 44.484375 40.625 41.703125 44.40625 
Q 38.921875 48.1875 33.109375 48.1875 
Q 26.21875 48.1875 22.15625 43.53125 
Q 18.109375 38.875 18.109375 30.90625 
L 18.109375 0 
L 9.078125 0 
L 9.078125 54.6875 
L 18.109375 54.6875 
L 18.109375 46.1875 
Q 21.1875 51.21875 25.484375 53.609375 
Q 29.78125 56 35.6875 56 
Q 41.65625 56 45.828125 52.96875 
Q 50 49.953125 52 44.1875 
z
" id="DejaVuSans-109"/>
     </defs>
     <g transform="translate(357.408594 392.604062)scale(0.1 -0.1)">
      <use xlink:href="#DejaVuSans-205"/>
      <use x="29.492188" xlink:href="#DejaVuSans-110"/>
      <use x="92.871094" xlink:href="#DejaVuSans-100"/>
      <use x="156.347656" xlink:href="#DejaVuSans-105"/>
      <use x="184.130859" xlink:href="#DejaVuSans-99"/>
      <use x="239.111328" xlink:href="#DejaVuSans-101"/>
      <use x="300.634766" xlink:href="#DejaVuSans-32"/>
      <use x="332.421875" xlink:href="#DejaVuSans-115"/>
      <use x="384.521484" xlink:href="#DejaVuSans-111"/>
      <use x="445.703125" xlink:href="#DejaVuSans-99"/>
      <use x="500.683594" xlink:href="#DejaVuSans-105"/>
      <use x="528.466797" xlink:href="#DejaVuSans-111"/>
      <use x="589.648438" xlink:href="#DejaVuSans-101"/>
      <use x="651.171875" xlink:href="#DejaVuSans-99"/>
      <use x="706.152344" xlink:href="#DejaVuSans-111"/>
      <use x="767.333984" xlink:href="#DejaVuSans-110"/>
      <use x="830.712891" xlink:href="#DejaVuSans-243"/>
      <use x="891.894531" xlink:href="#DejaVuSans-109"/>
      <use x="989.306641" xlink:href="#DejaVuSans-105"/>
      <use x="1017.089844" xlink:href="#DejaVuSans-99"/>
      <use x="1072.070312" xlink:href="#DejaVuSans-111"/>
     </g>
    </g>
   </g>
   <g id="matplotlib.axis_2">
    <g id="ytick_1">
     <g id="line2d_10">
      <defs>
       <path d="M 0 0 
L -3.5 0 
" id="m5334250612" style="stroke:#000000;stroke-width:0.8;"/>
      </defs>
      <g>
       <use style="stroke:#000000;stroke-width:0.8;" x="135.073438" xlink:href="#m5334250612" y="78.9375"/>
      </g>
     </g>
     <g id="text_11">
      <!-- Avanzado -->
      <defs>
       <path d="M 34.1875 63.1875 
L 20.796875 26.90625 
L 47.609375 26.90625 
z
M 28.609375 72.90625 
L 39.796875 72.90625 
L 67.578125 0 
L 57.328125 0 
L 50.6875 18.703125 
L 17.828125 18.703125 
L 11.1875 0 
L 0.78125 0 
z
" id="DejaVuSans-65"/>
       <path d="M 2.984375 54.6875 
L 12.5 54.6875 
L 29.59375 8.796875 
L 46.6875 54.6875 
L 56.203125 54.6875 
L 35.6875 0 
L 23.484375 0 
z
" id="DejaVuSans-118"/>
       <path d="M 34.28125 27.484375 
Q 23.390625 27.484375 19.1875 25 
Q 14.984375 22.515625 14.984375 16.5 
Q 14.984375 11.71875 18.140625 8.90625 
Q 21.296875 6.109375 26.703125 6.109375 
Q 34.1875 6.109375 38.703125 11.40625 
Q 43.21875 16.703125 43.21875 25.484375 
L 43.21875 27.484375 
z
M 52.203125 31.203125 
L 52.203125 0 
L 43.21875 0 
L 43.21875 8.296875 
Q 40.140625 3.328125 35.546875 0.953125 
Q 30.953125 -1.421875 24.3125 -1.421875 
Q 15.921875 -1.421875 10.953125 3.296875 
Q 6 8.015625 6 15.921875 
Q 6 25.140625 12.171875 29.828125 
Q 18.359375 34.515625 30.609375 34.515625 
L 43.21875 34.515625 
L 43.21875 35.40625 
Q 43.21875 41.609375 39.140625 45 
Q 35.0625 48.390625 27.6875 48.390625 
Q 23 48.390625 18.546875 47.265625 
Q 14.109375 46.140625 10.015625 43.890625 
L 10.015625 52.203125 
Q 14.9375 54.109375 19.578125 55.046875 
Q 24.21875 56 28.609375 56 
Q 40.484375 56 46.34375 49.84375 
Q 52.203125 43.703125 52.203125 31.203125 
z
" id="DejaVuSans-97"/>
       <path d="M 5.515625 54.6875 
L 48.1875 54.6875 
L 48.1875 46.484375 
L 14.40625 7.171875 
L 48.1875 7.171875 
L 48.1875 0 
L 4.296875 0 
L 4.296875 8.203125 
L 38.09375 47.515625 
L 5.515625 47.515625 
z
" id="DejaVuSans-122"/>
      </defs>
      <g transform="translate(79.0125 82.736719)scale(0.1 -0.1)">
       <use xlink:href="#DejaVuSans-65"/>
       <use x="68.330078" xlink:href="#DejaVuSans-118"/>
       <use x="127.509766" xlink:href="#DejaVuSans-97"/>
       <use x="188.789062" xlink:href="#DejaVuSans-110"/>
       <use x="252.167969" xlink:href="#DejaVuSans-122"/>
       <use x="304.658203" xlink:href="#DejaVuSans-97"/>
       <use x="365.9375" xlink:href="#DejaVuSans-100"/>
       <use x="429.414062" xlink:href="#DejaVuSans-111"/>
      </g>
     </g>
    </g>
    <g id="ytick_2">
     <g id="line2d_11">
      <g>
       <use style="stroke:#000000;stroke-width:0.8;" x="135.073438" xlink:href="#m5334250612" y="160.4775"/>
      </g>
     </g>
     <g id="text_12">
      <!-- Satisfactorio -->
      <defs>
       <path d="M 53.515625 70.515625 
L 53.515625 60.890625 
Q 47.90625 63.578125 42.921875 64.890625 
Q 37.9375 66.21875 33.296875 66.21875 
Q 25.25 66.21875 20.875 63.09375 
Q 16.5 59.96875 16.5 54.203125 
Q 16.5 49.359375 19.40625 46.890625 
Q 22.3125 44.4375 30.421875 42.921875 
L 36.375 41.703125 
Q 47.40625 39.59375 52.65625 34.296875 
Q 57.90625 29 57.90625 20.125 
Q 57.90625 9.515625 50.796875 4.046875 
Q 43.703125 -1.421875 29.984375 -1.421875 
Q 24.8125 -1.421875 18.96875 -0.25 
Q 13.140625 0.921875 6.890625 3.21875 
L 6.890625 13.375 
Q 12.890625 10.015625 18.65625 8.296875 
Q 24.421875 6.59375 29.984375 6.59375 
Q 38.421875 6.59375 43.015625 9.90625 
Q 47.609375 13.234375 47.609375 19.390625 
Q 47.609375 24.75 44.3125 27.78125 
Q 41.015625 30.8125 33.5 32.328125 
L 27.484375 33.5 
Q 16.453125 35.6875 11.515625 40.375 
Q 6.59375 45.0625 6.59375 53.421875 
Q 6.59375 63.09375 13.40625 68.65625 
Q 20.21875 74.21875 32.171875 74.21875 
Q 37.3125 74.21875 42.625 73.28125 
Q 47.953125 72.359375 53.515625 70.515625 
z
" id="DejaVuSans-83"/>
       <path d="M 18.3125 70.21875 
L 18.3125 54.6875 
L 36.8125 54.6875 
L 36.8125 47.703125 
L 18.3125 47.703125 
L 18.3125 18.015625 
Q 18.3125 11.328125 20.140625 9.421875 
Q 21.96875 7.515625 27.59375 7.515625 
L 36.8125 7.515625 
L 36.8125 0 
L 27.59375 0 
Q 17.1875 0 13.234375 3.875 
Q 9.28125 7.765625 9.28125 18.015625 
L 9.28125 47.703125 
L 2.6875 47.703125 
L 2.6875 54.6875 
L 9.28125 54.6875 
L 9.28125 70.21875 
z
" id="DejaVuSans-116"/>
       <path d="M 37.109375 75.984375 
L 37.109375 68.5 
L 28.515625 68.5 
Q 23.6875 68.5 21.796875 66.546875 
Q 19.921875 64.59375 19.921875 59.515625 
L 19.921875 54.6875 
L 34.71875 54.6875 
L 34.71875 47.703125 
L 19.921875 47.703125 
L 19.921875 0 
L 10.890625 0 
L 10.890625 47.703125 
L 2.296875 47.703125 
L 2.296875 54.6875 
L 10.890625 54.6875 
L 10.890625 58.5 
Q 10.890625 67.625 15.140625 71.796875 
Q 19.390625 75.984375 28.609375 75.984375 
z
" id="DejaVuSans-102"/>
       <path d="M 41.109375 46.296875 
Q 39.59375 47.171875 37.8125 47.578125 
Q 36.03125 48 33.890625 48 
Q 26.265625 48 22.1875 43.046875 
Q 18.109375 38.09375 18.109375 28.8125 
L 18.109375 0 
L 9.078125 0 
L 9.078125 54.6875 
L 18.109375 54.6875 
L 18.109375 46.1875 
Q 20.953125 51.171875 25.484375 53.578125 
Q 30.03125 56 36.53125 56 
Q 37.453125 56 38.578125 55.875 
Q 39.703125 55.765625 41.0625 55.515625 
z
" id="DejaVuSans-114"/>
      </defs>
      <g transform="translate(65.495313 164.276719)scale(0.1 -0.1)">
       <use xlink:href="#DejaVuSans-83"/>
       <use x="63.476562" xlink:href="#DejaVuSans-97"/>
       <use x="124.755859" xlink:href="#DejaVuSans-116"/>
       <use x="163.964844" xlink:href="#DejaVuSans-105"/>
       <use x="191.748047" xlink:href="#DejaVuSans-115"/>
       <use x="243.847656" xlink:href="#DejaVuSans-102"/>
       <use x="279.052734" xlink:href="#DejaVuSans-97"/>
       <use x="340.332031" xlink:href="#DejaVuSans-99"/>
       <use x="395.3125" xlink:href="#DejaVuSans-116"/>
       <use x="434.521484" xlink:href="#DejaVuSans-111"/>
       <use x="495.703125" xlink:href="#DejaVuSans-114"/>
       <use x="536.816406" xlink:href="#DejaVuSans-105"/>
       <use x="564.599609" xlink:href="#DejaVuSans-111"/>
      </g>
     </g>
    </g>
    <g id="ytick_3">
     <g id="line2d_12">
      <g>
       <use style="stroke:#000000;stroke-width:0.8;" x="135.073438" xlink:href="#m5334250612" y="242.0175"/>
      </g>
     </g>
     <g id="text_13">
      <!-- Básico -->
      <defs>
       <path d="M 19.671875 34.8125 
L 19.671875 8.109375 
L 35.5 8.109375 
Q 43.453125 8.109375 47.28125 11.40625 
Q 51.125 14.703125 51.125 21.484375 
Q 51.125 28.328125 47.28125 31.5625 
Q 43.453125 34.8125 35.5 34.8125 
z
M 19.671875 64.796875 
L 19.671875 42.828125 
L 34.28125 42.828125 
Q 41.5 42.828125 45.03125 45.53125 
Q 48.578125 48.25 48.578125 53.8125 
Q 48.578125 59.328125 45.03125 62.0625 
Q 41.5 64.796875 34.28125 64.796875 
z
M 9.8125 72.90625 
L 35.015625 72.90625 
Q 46.296875 72.90625 52.390625 68.21875 
Q 58.5 63.53125 58.5 54.890625 
Q 58.5 48.1875 55.375 44.234375 
Q 52.25 40.28125 46.1875 39.3125 
Q 53.46875 37.75 57.5 32.78125 
Q 61.53125 27.828125 61.53125 20.40625 
Q 61.53125 10.640625 54.890625 5.3125 
Q 48.25 0 35.984375 0 
L 9.8125 0 
z
" id="DejaVuSans-66"/>
       <path d="M 34.28125 27.484375 
Q 23.390625 27.484375 19.1875 25 
Q 14.984375 22.515625 14.984375 16.5 
Q 14.984375 11.71875 18.140625 8.90625 
Q 21.296875 6.109375 26.703125 6.109375 
Q 34.1875 6.109375 38.703125 11.40625 
Q 43.21875 16.703125 43.21875 25.484375 
L 43.21875 27.484375 
z
M 52.203125 31.203125 
L 52.203125 0 
L 43.21875 0 
L 43.21875 8.296875 
Q 40.140625 3.328125 35.546875 0.953125 
Q 30.953125 -1.421875 24.3125 -1.421875 
Q 15.921875 -1.421875 10.953125 3.296875 
Q 6 8.015625 6 15.921875 
Q 6 25.140625 12.171875 29.828125 
Q 18.359375 34.515625 30.609375 34.515625 
L 43.21875 34.515625 
L 43.21875 35.40625 
Q 43.21875 41.609375 39.140625 45 
Q 35.0625 48.390625 27.6875 48.390625 
Q 23 48.390625 18.546875 47.265625 
Q 14.109375 46.140625 10.015625 43.890625 
L 10.015625 52.203125 
Q 14.9375 54.109375 19.578125 55.046875 
Q 24.21875 56 28.609375 56 
Q 40.484375 56 46.34375 49.84375 
Q 52.203125 43.703125 52.203125 31.203125 
z
M 35.796875 79.984375 
L 45.515625 79.984375 
L 29.59375 61.625 
L 22.125 61.625 
z
" id="DejaVuSans-225"/>
      </defs>
      <g transform="translate(95.479688 245.816719)scale(0.1 -0.1)">
       <use xlink:href="#DejaVuSans-66"/>
       <use x="68.603516" xlink:href="#DejaVuSans-225"/>
       <use x="129.882812" xlink:href="#DejaVuSans-115"/>
       <use x="181.982422" xlink:href="#DejaVuSans-105"/>
       <use x="209.765625" xlink:href="#DejaVuSans-99"/>
       <use x="264.746094" xlink:href="#DejaVuSans-111"/>
      </g>
     </g>
    </g>
    <g id="ytick_4">
     <g id="line2d_13">
      <g>
       <use style="stroke:#000000;stroke-width:0.8;" x="135.073438" xlink:href="#m5334250612" y="323.5575"/>
      </g>
     </g>
     <g id="text_14">
      <!-- Por debajo del básico -->
      <defs>
       <path d="M 19.671875 64.796875 
L 19.671875 37.40625 
L 32.078125 37.40625 
Q 38.96875 37.40625 42.71875 40.96875 
Q 46.484375 44.53125 46.484375 51.125 
Q 46.484375 57.671875 42.71875 61.234375 
Q 38.96875 64.796875 32.078125 64.796875 
z
M 9.8125 72.90625 
L 32.078125 72.90625 
Q 44.34375 72.90625 50.609375 67.359375 
Q 56.890625 61.8125 56.890625 51.125 
Q 56.890625 40.328125 50.609375 34.8125 
Q 44.34375 29.296875 32.078125 29.296875 
L 19.671875 29.296875 
L 19.671875 0 
L 9.8125 0 
z
" id="DejaVuSans-80"/>
       <path d="M 48.6875 27.296875 
Q 48.6875 37.203125 44.609375 42.84375 
Q 40.53125 48.484375 33.40625 48.484375 
Q 26.265625 48.484375 22.1875 42.84375 
Q 18.109375 37.203125 18.109375 27.296875 
Q 18.109375 17.390625 22.1875 11.75 
Q 26.265625 6.109375 33.40625 6.109375 
Q 40.53125 6.109375 44.609375 11.75 
Q 48.6875 17.390625 48.6875 27.296875 
z
M 18.109375 46.390625 
Q 20.953125 51.265625 25.265625 53.625 
Q 29.59375 56 35.59375 56 
Q 45.5625 56 51.78125 48.09375 
Q 58.015625 40.1875 58.015625 27.296875 
Q 58.015625 14.40625 51.78125 6.484375 
Q 45.5625 -1.421875 35.59375 -1.421875 
Q 29.59375 -1.421875 25.265625 0.953125 
Q 20.953125 3.328125 18.109375 8.203125 
L 18.109375 0 
L 9.078125 0 
L 9.078125 75.984375 
L 18.109375 75.984375 
z
" id="DejaVuSans-98"/>
       <path d="M 9.421875 54.6875 
L 18.40625 54.6875 
L 18.40625 -0.984375 
Q 18.40625 -11.421875 14.421875 -16.109375 
Q 10.453125 -20.796875 1.609375 -20.796875 
L -1.8125 -20.796875 
L -1.8125 -13.1875 
L 0.59375 -13.1875 
Q 5.71875 -13.1875 7.5625 -10.8125 
Q 9.421875 -8.453125 9.421875 -0.984375 
z
M 9.421875 75.984375 
L 18.40625 75.984375 
L 18.40625 64.59375 
L 9.421875 64.59375 
z
" id="DejaVuSans-106"/>
       <path d="M 9.421875 75.984375 
L 18.40625 75.984375 
L 18.40625 0 
L 9.421875 0 
z
" id="DejaVuSans-108"/>
      </defs>
      <g transform="translate(21.048438 327.556719)scale(0.1 -0.1)">
       <use xlink:href="#DejaVuSans-80"/>
       <use x="60.255859" xlink:href="#DejaVuSans-111"/>
       <use x="121.4375" xlink:href="#DejaVuSans-114"/>
       <use x="162.550781" xlink:href="#DejaVuSans-32"/>
       <use x="194.337891" xlink:href="#DejaVuSans-100"/>
       <use x="257.814453" xlink:href="#DejaVuSans-101"/>
       <use x="319.337891" xlink:href="#DejaVuSans-98"/>
       <use x="382.814453" xlink:href="#DejaVuSans-97"/>
       <use x="444.09375" xlink:href="#DejaVuSans-106"/>
       <use x="471.876953" xlink:href="#DejaVuSans-111"/>
       <use x="533.058594" xlink:href="#DejaVuSans-32"/>
       <use x="564.845703" xlink:href="#DejaVuSans-100"/>
       <use x="628.322266" xlink:href="#DejaVuSans-101"/>
       <use x="689.845703" xlink:href="#DejaVuSans-108"/>
       <use x="717.628906" xlink:href="#DejaVuSans-32"/>
       <use x="749.416016" xlink:href="#DejaVuSans-98"/>
       <use x="812.892578" xlink:href="#DejaVuSans-225"/>
       <use x="874.171875" xlink:href="#DejaVuSans-115"/>
       <use x="926.271484" xlink:href="#DejaVuSans-105"/>
       <use x="954.054688" xlink:href="#DejaVuSans-99"/>
       <use x="1009.035156" xlink:href="#DejaVuSans-111"/>
      </g>
     </g>
    </g>
    <g id="text_15">
     <!-- Nivel de desempeño en lengua -->
     <defs>
      <path d="M 9.8125 72.90625 
L 23.09375 72.90625 
L 55.421875 11.921875 
L 55.421875 72.90625 
L 64.984375 72.90625 
L 64.984375 0 
L 51.703125 0 
L 19.390625 60.984375 
L 19.390625 0 
L 9.8125 0 
z
" id="DejaVuSans-78"/>
      <path d="M 18.109375 8.203125 
L 18.109375 -20.796875 
L 9.078125 -20.796875 
L 9.078125 54.6875 
L 18.109375 54.6875 
L 18.109375 46.390625 
Q 20.953125 51.265625 25.265625 53.625 
Q 29.59375 56 35.59375 56 
Q 45.5625 56 51.78125 48.09375 
Q 58.015625 40.1875 58.015625 27.296875 
Q 58.015625 14.40625 51.78125 6.484375 
Q 45.5625 -1.421875 35.59375 -1.421875 
Q 29.59375 -1.421875 25.265625 0.953125 
Q 20.953125 3.328125 18.109375 8.203125 
z
M 48.6875 27.296875 
Q 48.6875 37.203125 44.609375 42.84375 
Q 40.53125 48.484375 33.40625 48.484375 
Q 26.265625 48.484375 22.1875 42.84375 
Q 18.109375 37.203125 18.109375 27.296875 
Q 18.109375 17.390625 22.1875 11.75 
Q 26.265625 6.109375 33.40625 6.109375 
Q 40.53125 6.109375 44.609375 11.75 
Q 48.6875 17.390625 48.6875 27.296875 
z
" id="DejaVuSans-112"/>
      <path d="M 54.890625 33.015625 
L 54.890625 0 
L 45.90625 0 
L 45.90625 32.71875 
Q 45.90625 40.484375 42.875 44.328125 
Q 39.84375 48.1875 33.796875 48.1875 
Q 26.515625 48.1875 22.3125 43.546875 
Q 18.109375 38.921875 18.109375 30.90625 
L 18.109375 0 
L 9.078125 0 
L 9.078125 54.6875 
L 18.109375 54.6875 
L 18.109375 46.1875 
Q 21.34375 51.125 25.703125 53.5625 
Q 30.078125 56 35.796875 56 
Q 45.21875 56 50.046875 50.171875 
Q 54.890625 44.34375 54.890625 33.015625 
z
M 32.234375 66.890625 
L 29.4375 69.578125 
Q 28.375 70.5625 27.5625 71.015625 
Q 26.765625 71.484375 26.125 71.484375 
Q 24.265625 71.484375 23.390625 69.703125 
Q 22.515625 67.921875 22.40625 63.921875 
L 16.3125 63.921875 
Q 16.40625 70.515625 18.890625 74.09375 
Q 21.390625 77.6875 25.828125 77.6875 
Q 27.6875 77.6875 29.25 77 
Q 30.8125 76.3125 32.625 74.703125 
L 35.40625 72.015625 
Q 36.46875 71.046875 37.28125 70.578125 
Q 38.09375 70.125 38.71875 70.125 
Q 40.578125 70.125 41.453125 71.90625 
Q 42.328125 73.6875 42.4375 77.6875 
L 48.53125 77.6875 
Q 48.4375 71.09375 45.9375 67.5 
Q 43.453125 63.921875 39.015625 63.921875 
Q 37.15625 63.921875 35.59375 64.59375 
Q 34.03125 65.28125 32.234375 66.890625 
z
" id="DejaVuSans-241"/>
      <path d="M 45.40625 27.984375 
Q 45.40625 37.75 41.375 43.109375 
Q 37.359375 48.484375 30.078125 48.484375 
Q 22.859375 48.484375 18.828125 43.109375 
Q 14.796875 37.75 14.796875 27.984375 
Q 14.796875 18.265625 18.828125 12.890625 
Q 22.859375 7.515625 30.078125 7.515625 
Q 37.359375 7.515625 41.375 12.890625 
Q 45.40625 18.265625 45.40625 27.984375 
z
M 54.390625 6.78125 
Q 54.390625 -7.171875 48.1875 -13.984375 
Q 42 -20.796875 29.203125 -20.796875 
Q 24.46875 -20.796875 20.265625 -20.09375 
Q 16.0625 -19.390625 12.109375 -17.921875 
L 12.109375 -9.1875 
Q 16.0625 -11.328125 19.921875 -12.34375 
Q 23.78125 -13.375 27.78125 -13.375 
Q 36.625 -13.375 41.015625 -8.765625 
Q 45.40625 -4.15625 45.40625 5.171875 
L 45.40625 9.625 
Q 42.625 4.78125 38.28125 2.390625 
Q 33.9375 0 27.875 0 
Q 17.828125 0 11.671875 7.65625 
Q 5.515625 15.328125 5.515625 27.984375 
Q 5.515625 40.671875 11.671875 48.328125 
Q 17.828125 56 27.875 56 
Q 33.9375 56 38.28125 53.609375 
Q 42.625 51.21875 45.40625 46.390625 
L 45.40625 54.6875 
L 54.390625 54.6875 
z
" id="DejaVuSans-103"/>
      <path d="M 8.5 21.578125 
L 8.5 54.6875 
L 17.484375 54.6875 
L 17.484375 21.921875 
Q 17.484375 14.15625 20.5 10.265625 
Q 23.53125 6.390625 29.59375 6.390625 
Q 36.859375 6.390625 41.078125 11.03125 
Q 45.3125 15.671875 45.3125 23.6875 
L 45.3125 54.6875 
L 54.296875 54.6875 
L 54.296875 0 
L 45.3125 0 
L 45.3125 8.40625 
Q 42.046875 3.421875 37.71875 1 
Q 33.40625 -1.421875 27.6875 -1.421875 
Q 18.265625 -1.421875 13.375 4.4375 
Q 8.5 10.296875 8.5 21.578125 
z
M 31.109375 56 
z
" id="DejaVuSans-117"/>
     </defs>
     <g transform="translate(14.96875 278.977187)rotate(-90)scale(0.1 -0.1)">
      <use xlink:href="#DejaVuSans-78"/>
      <use x="74.804688" xlink:href="#DejaVuSans-105"/>
      <use x="102.587891" xlink:href="#DejaVuSans-118"/>
      <use x="161.767578" xlink:href="#DejaVuSans-101"/>
      <use x="223.291016" xlink:href="#DejaVuSans-108"/>
      <use x="251.074219" xlink:href="#DejaVuSans-32"/>
      <use x="282.861328" xlink:href="#DejaVuSans-100"/>
      <use x="346.337891" xlink:href="#DejaVuSans-101"/>
      <use x="407.861328" xlink:href="#DejaVuSans-32"/>
      <use x="439.648438" xlink:href="#DejaVuSans-100"/>
      <use x="503.125" xlink:href="#DejaVuSans-101"/>
      <use x="564.648438" xlink:href="#DejaVuSans-115"/>
      <use x="616.748047" xlink:href="#DejaVuSans-101"/>
      <use x="678.271484" xlink:href="#DejaVuSans-109"/>
      <use x="775.683594" xlink:href="#DejaVuSans-112"/>
      <use x="839.160156" xlink:href="#DejaVuSans-101"/>
      <use x="900.683594" xlink:href="#DejaVuSans-241"/>
      <use x="964.0625" xlink:href="#DejaVuSans-111"/>
      <use x="1025.244141" xlink:href="#DejaVuSans-32"/>
      <use x="1057.03125" xlink:href="#DejaVuSans-101"/>
      <use x="1118.554688" xlink:href="#DejaVuSans-110"/>
      <use x="1181.933594" xlink:href="#DejaVuSans-32"/>
      <use x="1213.720703" xlink:href="#DejaVuSans-108"/>
      <use x="1241.503906" xlink:href="#DejaVuSans-101"/>
      <use x="1303.027344" xlink:href="#DejaVuSans-110"/>
      <use x="1366.40625" xlink:href="#DejaVuSans-103"/>
      <use x="1429.882812" xlink:href="#DejaVuSans-117"/>
      <use x="1493.261719" xlink:href="#DejaVuSans-97"/>
     </g>
    </g>
   </g>
   <g id="line2d_14">
    <path clip-path="url(#pfa81ce3bf0)" d="M 219.216295 78.9375 
L 671.216295 78.9375 
" style="fill:none;stroke:#4c4c4c;stroke-linecap:square;stroke-width:1.5;"/>
   </g>
   <g id="line2d_15">
    <path clip-path="url(#pfa81ce3bf0)" d="M 391.459456 78.9375 
L 506.495798 78.9375 
" style="fill:none;stroke:#4c4c4c;stroke-linecap:square;stroke-width:4.5;"/>
   </g>
   <g id="line2d_16">
    <path clip-path="url(#pfa81ce3bf0)" d="M 231.394866 160.4775 
L 580.144866 160.4775 
" style="fill:none;stroke:#4c4c4c;stroke-linecap:square;stroke-width:1.5;"/>
   </g>
   <g id="line2d_17">
    <path clip-path="url(#pfa81ce3bf0)" d="M 362.226748 160.4775 
L 449.502009 160.4775 
" style="fill:none;stroke:#4c4c4c;stroke-linecap:square;stroke-width:4.5;"/>
   </g>
   <g id="line2d_18">
    <path clip-path="url(#pfa81ce3bf0)" d="M 228.073438 242.0175 
L 539.115454 242.0175 
" style="fill:none;stroke:#4c4c4c;stroke-linecap:square;stroke-width:1.5;"/>
   </g>
   <g id="line2d_19">
    <path clip-path="url(#pfa81ce3bf0)" d="M 344.481601 242.0175 
L 422.377009 242.0175 
" style="fill:none;stroke:#4c4c4c;stroke-linecap:square;stroke-width:4.5;"/>
   </g>
   <g id="line2d_20">
    <path clip-path="url(#pfa81ce3bf0)" d="M 222.168676 323.5575 
L 529.216295 323.5575 
" style="fill:none;stroke:#4c4c4c;stroke-linecap:square;stroke-width:1.5;"/>
   </g>
   <g id="line2d_21">
    <path clip-path="url(#pfa81ce3bf0)" d="M 337.311533 323.5575 
L 414.073438 323.5575 
" style="fill:none;stroke:#4c4c4c;stroke-linecap:square;stroke-width:4.5;"/>
   </g>
   <g id="patch_3">
    <path d="M 135.073438 364.3275 
L 135.073438 38.1675 
" style="fill:none;stroke:#000000;stroke-linecap:square;stroke-linejoin:miter;stroke-width:0.8;"/>
   </g>
   <g id="patch_4">
    <path d="M 693.073437 364.3275 
L 693.073437 38.1675 
" style="fill:none;stroke:#000000;stroke-linecap:square;stroke-linejoin:miter;stroke-width:0.8;"/>
   </g>
   <g id="patch_5">
    <path d="M 135.073438 364.3275 
L 693.073438 364.3275 
" style="fill:none;stroke:#000000;stroke-linecap:square;stroke-linejoin:miter;stroke-width:0.8;"/>
   </g>
   <g id="patch_6">
    <path d="M 135.073438 38.1675 
L 693.073438 38.1675 
" style="fill:none;stroke:#000000;stroke-linecap:square;stroke-linejoin:miter;stroke-width:0.8;"/>
   </g>
   <g id="PathCollection_1">
    <defs>
     <path d="M 0 1.5 
C 0.397805 1.5 0.77937 1.341951 1.06066 1.06066 
C 1.341951 0.77937 1.5 0.397805 1.5 0 
C 1.5 -0.397805 1.341951 -0.77937 1.06066 -1.06066 
C 0.77937 -1.341951 0.397805 -1.5 0 -1.5 
C -0.397805 -1.5 -0.77937 -1.341951 -1.06066 -1.06066 
C -1.341951 -0.77937 -1.5 -0.397805 -1.5 0 
C -1.5 0.397805 -1.341951 0.77937 -1.06066 1.06066 
C -0.77937 1.341951 -0.397805 1.5 0 1.5 
z
" id="mc0ff99e041" style="stroke:#4c4c4c;"/>
    </defs>
    <g clip-path="url(#pfa81ce3bf0)">
     <use style="fill:#ffffff;stroke:#4c4c4c;" x="441.029959" xlink:href="#mc0ff99e041" y="78.9375"/>
    </g>
   </g>
   <g id="PathCollection_2">
    <g clip-path="url(#pfa81ce3bf0)">
     <use style="fill:#ffffff;stroke:#4c4c4c;" x="403.002009" xlink:href="#mc0ff99e041" y="160.4775"/>
    </g>
   </g>
   <g id="PathCollection_3">
    <g clip-path="url(#pfa81ce3bf0)">
     <use style="fill:#ffffff;stroke:#4c4c4c;" x="383.878632" xlink:href="#mc0ff99e041" y="242.0175"/>
    </g>
   </g>
   <g id="PathCollection_4">
    <g clip-path="url(#pfa81ce3bf0)">
     <use style="fill:#ffffff;stroke:#4c4c4c;" x="376.93058" xlink:href="#mc0ff99e041" y="323.5575"/>
    </g>
   </g>
   <g id="text_16">
    <!-- Distribución de: Índice socioeconómico según el desempeño en lengua -->
    <defs>
     <path d="M 19.671875 64.796875 
L 19.671875 8.109375 
L 31.59375 8.109375 
Q 46.6875 8.109375 53.6875 14.9375 
Q 60.6875 21.78125 60.6875 36.53125 
Q 60.6875 51.171875 53.6875 57.984375 
Q 46.6875 64.796875 31.59375 64.796875 
z
M 9.8125 72.90625 
L 30.078125 72.90625 
Q 51.265625 72.90625 61.171875 64.09375 
Q 71.09375 55.28125 71.09375 36.53125 
Q 71.09375 17.671875 61.125 8.828125 
Q 51.171875 0 30.078125 0 
L 9.8125 0 
z
" id="DejaVuSans-68"/>
     <path d="M 11.71875 12.40625 
L 22.015625 12.40625 
L 22.015625 0 
L 11.71875 0 
z
M 11.71875 51.703125 
L 22.015625 51.703125 
L 22.015625 39.3125 
L 11.71875 39.3125 
z
" id="DejaVuSans-58"/>
     <path d="M 8.5 21.578125 
L 8.5 54.6875 
L 17.484375 54.6875 
L 17.484375 21.921875 
Q 17.484375 14.15625 20.5 10.265625 
Q 23.53125 6.390625 29.59375 6.390625 
Q 36.859375 6.390625 41.078125 11.03125 
Q 45.3125 15.671875 45.3125 23.6875 
L 45.3125 54.6875 
L 54.296875 54.6875 
L 54.296875 0 
L 45.3125 0 
L 45.3125 8.40625 
Q 42.046875 3.421875 37.71875 1 
Q 33.40625 -1.421875 27.6875 -1.421875 
Q 18.265625 -1.421875 13.375 4.4375 
Q 8.5 10.296875 8.5 21.578125 
z
M 31.109375 56 
z
M 37.796875 79.984375 
L 47.515625 79.984375 
L 31.59375 61.625 
L 24.125 61.625 
z
" id="DejaVuSans-250"/>
    </defs>
    <g transform="translate(200.584063 18.328125)scale(0.12 -0.12)">
     <use xlink:href="#DejaVuSans-68"/>
     <use x="77.001953" xlink:href="#DejaVuSans-105"/>
     <use x="104.785156" xlink:href="#DejaVuSans-115"/>
     <use x="156.884766" xlink:href="#DejaVuSans-116"/>
     <use x="196.09375" xlink:href="#DejaVuSans-114"/>
     <use x="237.207031" xlink:href="#DejaVuSans-105"/>
     <use x="264.990234" xlink:href="#DejaVuSans-98"/>
     <use x="328.466797" xlink:href="#DejaVuSans-117"/>
     <use x="391.845703" xlink:href="#DejaVuSans-99"/>
     <use x="446.826172" xlink:href="#DejaVuSans-105"/>
     <use x="474.609375" xlink:href="#DejaVuSans-243"/>
     <use x="535.791016" xlink:href="#DejaVuSans-110"/>
     <use x="599.169922" xlink:href="#DejaVuSans-32"/>
     <use x="630.957031" xlink:href="#DejaVuSans-100"/>
     <use x="694.433594" xlink:href="#DejaVuSans-101"/>
     <use x="755.957031" xlink:href="#DejaVuSans-58"/>
     <use x="789.648438" xlink:href="#DejaVuSans-32"/>
     <use x="821.435547" xlink:href="#DejaVuSans-205"/>
     <use x="850.927734" xlink:href="#DejaVuSans-110"/>
     <use x="914.306641" xlink:href="#DejaVuSans-100"/>
     <use x="977.783203" xlink:href="#DejaVuSans-105"/>
     <use x="1005.566406" xlink:href="#DejaVuSans-99"/>
     <use x="1060.546875" xlink:href="#DejaVuSans-101"/>
     <use x="1122.070312" xlink:href="#DejaVuSans-32"/>
     <use x="1153.857422" xlink:href="#DejaVuSans-115"/>
     <use x="1205.957031" xlink:href="#DejaVuSans-111"/>
     <use x="1267.138672" xlink:href="#DejaVuSans-99"/>
     <use x="1322.119141" xlink:href="#DejaVuSans-105"/>
     <use x="1349.902344" xlink:href="#DejaVuSans-111"/>
     <use x="1411.083984" xlink:href="#DejaVuSans-101"/>
     <use x="1472.607422" xlink:href="#DejaVuSans-99"/>
     <use x="1527.587891" xlink:href="#DejaVuSans-111"/>
     <use x="1588.769531" xlink:href="#DejaVuSans-110"/>
     <use x="1652.148438" xlink:href="#DejaVuSans-243"/>
     <use x="1713.330078" xlink:href="#DejaVuSans-109"/>
     <use x="1810.742188" xlink:href="#DejaVuSans-105"/>
     <use x="1838.525391" xlink:href="#DejaVuSans-99"/>
     <use x="1893.505859" xlink:href="#DejaVuSans-111"/>
     <use x="1954.6875" xlink:href="#DejaVuSans-32"/>
     <use x="1986.474609" xlink:href="#DejaVuSans-115"/>
     <use x="2038.574219" xlink:href="#DejaVuSans-101"/>
     <use x="2100.097656" xlink:href="#DejaVuSans-103"/>
     <use x="2163.574219" xlink:href="#DejaVuSans-250"/>
     <use x="2226.953125" xlink:href="#DejaVuSans-110"/>
     <use x="2290.332031" xlink:href="#DejaVuSans-32"/>
     <use x="2322.119141" xlink:href="#DejaVuSans-101"/>
     <use x="2383.642578" xlink:href="#DejaVuSans-108"/>
     <use x="2411.425781" xlink:href="#DejaVuSans-32"/>
     <use x="2443.212891" xlink:href="#DejaVuSans-100"/>
     <use x="2506.689453" xlink:href="#DejaVuSans-101"/>
     <use x="2568.212891" xlink:href="#DejaVuSans-115"/>
     <use x="2620.3125" xlink:href="#DejaVuSans-101"/>
     <use x="2681.835938" xlink:href="#DejaVuSans-109"/>
     <use x="2779.248047" xlink:href="#DejaVuSans-112"/>
     <use x="2842.724609" xlink:href="#DejaVuSans-101"/>
     <use x="2904.248047" xlink:href="#DejaVuSans-241"/>
     <use x="2967.626953" xlink:href="#DejaVuSans-111"/>
     <use x="3028.808594" xlink:href="#DejaVuSans-32"/>
     <use x="3060.595703" xlink:href="#DejaVuSans-101"/>
     <use x="3122.119141" xlink:href="#DejaVuSans-110"/>
     <use x="3185.498047" xlink:href="#DejaVuSans-32"/>
     <use x="3217.285156" xlink:href="#DejaVuSans-108"/>
     <use x="3245.068359" xlink:href="#DejaVuSans-101"/>
     <use x="3306.591797" xlink:href="#DejaVuSans-110"/>
     <use x="3369.970703" xlink:href="#DejaVuSans-103"/>
     <use x="3433.447266" xlink:href="#DejaVuSans-117"/>
     <use x="3496.826172" xlink:href="#DejaVuSans-97"/>
    </g>
    <!--  Nivel: Primaria -->
    <g transform="translate(368.090937 31.7655)scale(0.12 -0.12)">
     <use xlink:href="#DejaVuSans-32"/>
     <use x="31.787109" xlink:href="#DejaVuSans-78"/>
     <use x="106.591797" xlink:href="#DejaVuSans-105"/>
     <use x="134.375" xlink:href="#DejaVuSans-118"/>
     <use x="193.554688" xlink:href="#DejaVuSans-101"/>
     <use x="255.078125" xlink:href="#DejaVuSans-108"/>
     <use x="282.861328" xlink:href="#DejaVuSans-58"/>
     <use x="316.552734" xlink:href="#DejaVuSans-32"/>
     <use x="348.339844" xlink:href="#DejaVuSans-80"/>
     <use x="408.626953" xlink:href="#DejaVuSans-114"/>
     <use x="449.740234" xlink:href="#DejaVuSans-105"/>
     <use x="477.523438" xlink:href="#DejaVuSans-109"/>
     <use x="574.935547" xlink:href="#DejaVuSans-97"/>
     <use x="636.214844" xlink:href="#DejaVuSans-114"/>
     <use x="677.328125" xlink:href="#DejaVuSans-105"/>
     <use x="705.111328" xlink:href="#DejaVuSans-97"/>
    </g>
   </g>
  </g>
 </g>
 <defs>
  <clipPath id="pfa81ce3bf0">
   <rect height="326.16" width="558" x="135.073438" y="38.1675"/>
  </clipPath>
 </defs>
</svg>
