<?xml version="1.0" encoding="utf-8" standalone="no"?>
<!DOCTYPE svg PUBLIC "-//W3C//DTD SVG 1.1//EN"
  "http://www.w3.org/Graphics/SVG/1.1/DTD/svg11.dtd">
<!-- Created with matplotlib (https://matplotlib.org/) -->
<svg height="400.04775pt" version="1.1" viewBox="0 0 704.003125 400.04775" width="704.003125pt" xmlns="http://www.w3.org/2000/svg" xmlns:xlink="http://www.w3.org/1999/xlink">
 <defs>
  <style type="text/css">
*{stroke-linecap:butt;stroke-linejoin:round;}
  </style>
 </defs>
 <g id="figure_1">
  <g id="patch_1">
   <path d="M 0 400.04775 
L 704.003125 400.04775 
L 704.003125 0 
L 0 0 
z
" style="fill:#ffffff;"/>
  </g>
  <g id="axes_1">
   <g id="patch_2">
    <path d="M 135.303125 362.4915 
L 693.303125 362.4915 
L 693.303125 36.3315 
L 135.303125 36.3315 
z
" style="fill:#ffffff;"/>
   </g>
   <g id="PolyCollection_1">
    <defs>
     <path d="M 182.671052 -321.968948 
L 182.671052 -323.923552 
L 186.859932 -327.609388 
L 191.048812 -336.224141 
L 195.237692 -346.230454 
L 199.426572 -349.105957 
L 203.615452 -343.922176 
L 207.804332 -341.327206 
L 211.993213 -347.447934 
L 216.182093 -354.202763 
L 220.370973 -355.56225 
L 224.559853 -354.659313 
L 228.748733 -351.837613 
L 232.937613 -348.066025 
L 237.126493 -348.372944 
L 241.315373 -350.713315 
L 245.504253 -349.090412 
L 249.693133 -343.639129 
L 253.882013 -336.205135 
L 258.070893 -330.167745 
L 262.259773 -329.470795 
L 266.448654 -333.455378 
L 270.637534 -338.491988 
L 274.826414 -341.550056 
L 279.015294 -341.081506 
L 283.204174 -337.146699 
L 287.393054 -332.451215 
L 291.581934 -330.272741 
L 295.770814 -331.102269 
L 299.959694 -333.257037 
L 304.148574 -335.386854 
L 308.337454 -336.888785 
L 312.526334 -336.632385 
L 316.715214 -335.122217 
L 320.904094 -334.261533 
L 325.092975 -332.25608 
L 329.281855 -328.268398 
L 333.470735 -325.232597 
L 337.659615 -324.405846 
L 341.848495 -324.802251 
L 346.037375 -325.462112 
L 350.226255 -326.336487 
L 354.415135 -327.859662 
L 358.604015 -328.607471 
L 362.792895 -327.122251 
L 366.981775 -325.158264 
L 371.170655 -324.182601 
L 375.359535 -323.648263 
L 379.548416 -323.247632 
L 383.737296 -323.092773 
L 387.926176 -323.092656 
L 392.115056 -323.135853 
L 396.303936 -323.189349 
L 400.492816 -323.20214 
L 404.681696 -323.149658 
L 408.870576 -323.071875 
L 413.059456 -323.023165 
L 417.248336 -323.022271 
L 421.437216 -323.029106 
L 425.626096 -323.007138 
L 429.814976 -322.988719 
L 434.003856 -323.012342 
L 438.192737 -323.05063 
L 442.381617 -323.05035 
L 446.570497 -323.016257 
L 450.759377 -322.984103 
L 454.948257 -322.965237 
L 459.137137 -322.957508 
L 463.326017 -322.972316 
L 467.514897 -323.051123 
L 471.703777 -323.20343 
L 475.892657 -323.305206 
L 480.081537 -323.260867 
L 484.270417 -323.160406 
L 488.459297 -323.074817 
L 492.648178 -323.014662 
L 496.837058 -322.991882 
L 501.025938 -322.983248 
L 505.214818 -322.96895 
L 509.403698 -322.958414 
L 513.592578 -322.967238 
L 517.781458 -323.008031 
L 521.970338 -323.057825 
L 526.159218 -323.05744 
L 530.348098 -323.00831 
L 534.536978 -322.967046 
L 538.725858 -322.951148 
L 542.914738 -322.947183 
L 547.103618 -322.946382 
L 551.292499 -322.946262 
L 555.481379 -322.946251 
L 559.670259 -322.94625 
L 563.859139 -322.946253 
L 568.048019 -322.946308 
L 572.236899 -322.946889 
L 576.425779 -322.950105 
L 580.614659 -322.958869 
L 584.803539 -322.968672 
L 588.992419 -322.967879 
L 593.181299 -322.957577 
L 597.370179 -322.94947 
L 597.370179 -322.94303 
L 597.370179 -322.94303 
L 593.181299 -322.934923 
L 588.992419 -322.924621 
L 584.803539 -322.923828 
L 580.614659 -322.933631 
L 576.425779 -322.942395 
L 572.236899 -322.945611 
L 568.048019 -322.946192 
L 563.859139 -322.946247 
L 559.670259 -322.94625 
L 555.481379 -322.946249 
L 551.292499 -322.946238 
L 547.103618 -322.946118 
L 542.914738 -322.945317 
L 538.725858 -322.941352 
L 534.536978 -322.925454 
L 530.348098 -322.88419 
L 526.159218 -322.83506 
L 521.970338 -322.834675 
L 517.781458 -322.884469 
L 513.592578 -322.925262 
L 509.403698 -322.934086 
L 505.214818 -322.92355 
L 501.025938 -322.909252 
L 496.837058 -322.900618 
L 492.648178 -322.877838 
L 488.459297 -322.817683 
L 484.270417 -322.732094 
L 480.081537 -322.631633 
L 475.892657 -322.587294 
L 471.703777 -322.68907 
L 467.514897 -322.841377 
L 463.326017 -322.920184 
L 459.137137 -322.934992 
L 454.948257 -322.927263 
L 450.759377 -322.908397 
L 446.570497 -322.876243 
L 442.381617 -322.84215 
L 438.192737 -322.84187 
L 434.003856 -322.880158 
L 429.814976 -322.903781 
L 425.626096 -322.885362 
L 421.437216 -322.863394 
L 417.248336 -322.870229 
L 413.059456 -322.869335 
L 408.870576 -322.820625 
L 404.681696 -322.742842 
L 400.492816 -322.69036 
L 396.303936 -322.703151 
L 392.115056 -322.756647 
L 387.926176 -322.799844 
L 383.737296 -322.799727 
L 379.548416 -322.644868 
L 375.359535 -322.244237 
L 371.170655 -321.709899 
L 366.981775 -320.734236 
L 362.792895 -318.770249 
L 358.604015 -317.285029 
L 354.415135 -318.032838 
L 350.226255 -319.556013 
L 346.037375 -320.430388 
L 341.848495 -321.090249 
L 337.659615 -321.486654 
L 333.470735 -320.659903 
L 329.281855 -317.624102 
L 325.092975 -313.63642 
L 320.904094 -311.630967 
L 316.715214 -310.770283 
L 312.526334 -309.260115 
L 308.337454 -309.003715 
L 304.148574 -310.505646 
L 299.959694 -312.635463 
L 295.770814 -314.790231 
L 291.581934 -315.619759 
L 287.393054 -313.441285 
L 283.204174 -308.745801 
L 279.015294 -304.810994 
L 274.826414 -304.342444 
L 270.637534 -307.400512 
L 266.448654 -312.437122 
L 262.259773 -316.421705 
L 258.070893 -315.724755 
L 253.882013 -309.687365 
L 249.693133 -302.253371 
L 245.504253 -296.802088 
L 241.315373 -295.179185 
L 237.126493 -297.519556 
L 232.937613 -297.826475 
L 228.748733 -294.054887 
L 224.559853 -291.233187 
L 220.370973 -290.33025 
L 216.182093 -291.689737 
L 211.993213 -298.444566 
L 207.804332 -304.565294 
L 203.615452 -301.970324 
L 199.426572 -296.786543 
L 195.237692 -299.662046 
L 191.048812 -309.668359 
L 186.859932 -318.283112 
L 182.671052 -321.968948 
z
" id="m8f83ca884c" style="stroke:#4c4c4c;stroke-width:1.5;"/>
    </defs>
    <g clip-path="url(#pb4aed6b2e3)">
     <use style="fill:#df2020;stroke:#4c4c4c;stroke-width:1.5;" x="0" xlink:href="#m8f83ca884c" y="400.04775"/>
    </g>
   </g>
   <g id="PolyCollection_2">
    <defs>
     <path d="M 184.30228 -240.74231 
L 184.30228 -242.07019 
L 188.948762 -245.793405 
L 193.595244 -253.82586 
L 198.241725 -257.952045 
L 202.888207 -253.469523 
L 207.534689 -252.001938 
L 212.18117 -260.89032 
L 216.827652 -267.379718 
L 221.474134 -269.182046 
L 226.120616 -271.033354 
L 230.767097 -267.056695 
L 235.413579 -264.252677 
L 240.060061 -269.041899 
L 244.706542 -268.721131 
L 249.353024 -263.794482 
L 253.999506 -254.694351 
L 258.645988 -247.263473 
L 263.292469 -249.153696 
L 267.938951 -255.671853 
L 272.585433 -261.907718 
L 277.231914 -265.027273 
L 281.878396 -261.183412 
L 286.524878 -253.62351 
L 291.17136 -250.432129 
L 295.817841 -251.783425 
L 300.464323 -254.618446 
L 305.110805 -259.212611 
L 309.757286 -262.944805 
L 314.403768 -259.79779 
L 319.05025 -255.624868 
L 323.696732 -253.511329 
L 328.343213 -247.482192 
L 332.989695 -243.474576 
L 337.636177 -243.343896 
L 342.282658 -244.808794 
L 346.92914 -245.910186 
L 351.575622 -245.678601 
L 356.222104 -246.0038 
L 360.868585 -245.548434 
L 365.515067 -244.544219 
L 370.161549 -244.608269 
L 374.80803 -243.423683 
L 379.454512 -242.041132 
L 384.100994 -241.827834 
L 388.747476 -241.953855 
L 393.393957 -242.120442 
L 398.040439 -242.39992 
L 402.686921 -242.377061 
L 407.333402 -242.050817 
L 411.979884 -241.723879 
L 416.626366 -241.660542 
L 421.272848 -241.722651 
L 425.919329 -241.594014 
L 430.565811 -241.517411 
L 435.212293 -241.724794 
L 439.858774 -241.907695 
L 444.505256 -241.75456 
L 449.151738 -241.57658 
L 453.79822 -241.500601 
L 458.444701 -241.459096 
L 463.091183 -241.450557 
L 467.737665 -241.626481 
L 472.384146 -242.10654 
L 477.030628 -242.288409 
L 481.67711 -241.925226 
L 486.323592 -241.697675 
L 490.970073 -241.603637 
L 495.616555 -241.619978 
L 500.263037 -241.619586 
L 504.909518 -241.517394 
L 509.556 -241.448026 
L 514.202482 -241.474164 
L 518.848964 -241.72462 
L 523.495445 -242.006626 
L 528.141927 -241.827224 
L 532.788409 -241.548173 
L 537.43489 -241.445097 
L 542.081372 -241.413254 
L 546.727854 -241.406768 
L 551.374336 -241.406264 
L 556.020817 -241.40625 
L 560.667299 -241.40625 
L 565.313781 -241.406253 
L 569.960262 -241.406431 
L 574.606744 -241.410834 
L 579.253226 -241.44711 
L 583.899708 -241.534268 
L 588.546189 -241.547217 
L 593.192671 -241.460806 
L 597.839153 -241.413671 
L 602.485634 -241.406605 
L 607.132116 -241.406256 
L 611.778598 -241.40625 
L 616.42508 -241.406258 
L 621.071561 -241.40658 
L 625.718043 -241.410969 
L 630.364525 -241.429967 
L 635.011006 -241.448146 
L 639.657488 -241.432261 
L 644.30397 -241.411926 
L 644.30397 -241.400574 
L 644.30397 -241.400574 
L 639.657488 -241.380239 
L 635.011006 -241.364354 
L 630.364525 -241.382533 
L 625.718043 -241.401531 
L 621.071561 -241.40592 
L 616.42508 -241.406242 
L 611.778598 -241.40625 
L 607.132116 -241.406244 
L 602.485634 -241.405895 
L 597.839153 -241.398829 
L 593.192671 -241.351694 
L 588.546189 -241.265283 
L 583.899708 -241.278232 
L 579.253226 -241.36539 
L 574.606744 -241.401666 
L 569.960262 -241.406069 
L 565.313781 -241.406247 
L 560.667299 -241.40625 
L 556.020817 -241.40625 
L 551.374336 -241.406236 
L 546.727854 -241.405732 
L 542.081372 -241.399246 
L 537.43489 -241.367403 
L 532.788409 -241.264327 
L 528.141927 -240.985276 
L 523.495445 -240.805874 
L 518.848964 -241.08788 
L 514.202482 -241.338336 
L 509.556 -241.364474 
L 504.909518 -241.295106 
L 500.263037 -241.192914 
L 495.616555 -241.192522 
L 490.970073 -241.208863 
L 486.323592 -241.114825 
L 481.67711 -240.887274 
L 477.030628 -240.524091 
L 472.384146 -240.70596 
L 467.737665 -241.186019 
L 463.091183 -241.361943 
L 458.444701 -241.353404 
L 453.79822 -241.311899 
L 449.151738 -241.23592 
L 444.505256 -241.05794 
L 439.858774 -240.904805 
L 435.212293 -241.087706 
L 430.565811 -241.295089 
L 425.919329 -241.218486 
L 421.272848 -241.089849 
L 416.626366 -241.151958 
L 411.979884 -241.088621 
L 407.333402 -240.761683 
L 402.686921 -240.435439 
L 398.040439 -240.41258 
L 393.393957 -240.692058 
L 388.747476 -240.858645 
L 384.100994 -240.984666 
L 379.454512 -240.771368 
L 374.80803 -239.388817 
L 370.161549 -238.204231 
L 365.515067 -238.268281 
L 360.868585 -237.264066 
L 356.222104 -236.8087 
L 351.575622 -237.133899 
L 346.92914 -236.902314 
L 342.282658 -238.003706 
L 337.636177 -239.468604 
L 332.989695 -239.337924 
L 328.343213 -235.330308 
L 323.696732 -229.301171 
L 319.05025 -227.187632 
L 314.403768 -223.01471 
L 309.757286 -219.867695 
L 305.110805 -223.599889 
L 300.464323 -228.194054 
L 295.817841 -231.029075 
L 291.17136 -232.380371 
L 286.524878 -229.18899 
L 281.878396 -221.629088 
L 277.231914 -217.785227 
L 272.585433 -220.904782 
L 267.938951 -227.140647 
L 263.292469 -233.658804 
L 258.645988 -235.549027 
L 253.999506 -228.118149 
L 249.353024 -219.018018 
L 244.706542 -214.091369 
L 240.060061 -213.770601 
L 235.413579 -218.559823 
L 230.767097 -215.755805 
L 226.120616 -211.779146 
L 221.474134 -213.630454 
L 216.827652 -215.432782 
L 212.18117 -221.92218 
L 207.534689 -230.810562 
L 202.888207 -229.342977 
L 198.241725 -224.860455 
L 193.595244 -228.98664 
L 188.948762 -237.019095 
L 184.30228 -240.74231 
z
" id="m2087977852" style="stroke:#4c4c4c;stroke-width:1.5;"/>
    </defs>
    <g clip-path="url(#pb4aed6b2e3)">
     <use style="fill:#df2020;stroke:#4c4c4c;stroke-width:1.5;" x="0" xlink:href="#m2087977852" y="400.04775"/>
    </g>
   </g>
   <g id="PolyCollection_3">
    <defs>
     <path d="M 182.907906 -159.506173 
L 182.907906 -160.226327 
L 187.582557 -161.817805 
L 192.257208 -165.324353 
L 196.931859 -168.162549 
L 201.60651 -167.634838 
L 206.28116 -167.493705 
L 210.955811 -172.214498 
L 215.630462 -177.954489 
L 220.305113 -181.204311 
L 224.979764 -183.360637 
L 229.654415 -182.635362 
L 234.329066 -181.074515 
L 239.003717 -183.243008 
L 243.678368 -184.230794 
L 248.353018 -180.665959 
L 253.027669 -173.776208 
L 257.70232 -167.535805 
L 262.376971 -167.736466 
L 267.051622 -172.806807 
L 271.726273 -178.525307 
L 276.400924 -182.417748 
L 281.075575 -181.380146 
L 285.750226 -175.867416 
L 290.424876 -172.110096 
L 295.099527 -172.650365 
L 299.774178 -175.697192 
L 304.448829 -181.196805 
L 309.12348 -185.664361 
L 313.798131 -183.185433 
L 318.472782 -177.24063 
L 323.147433 -173.041151 
L 327.822084 -167.835753 
L 332.496734 -163.663935 
L 337.171385 -163.269314 
L 341.846036 -165.141439 
L 346.520687 -166.610946 
L 351.195338 -166.326278 
L 355.869989 -165.764167 
L 360.54464 -165.356947 
L 365.219291 -165.131053 
L 369.893942 -165.034612 
L 374.568592 -163.350862 
L 379.243243 -161.333675 
L 383.917894 -160.735062 
L 388.592545 -160.896691 
L 393.267196 -161.232651 
L 397.941847 -161.609343 
L 402.616498 -161.571013 
L 407.291149 -161.10589 
L 411.9658 -160.614235 
L 416.64045 -160.439452 
L 421.315101 -160.433527 
L 425.989752 -160.246444 
L 430.664403 -160.157895 
L 435.339054 -160.453223 
L 440.013705 -160.743847 
L 444.688356 -160.662856 
L 449.363007 -160.406133 
L 454.037658 -160.178988 
L 458.712308 -160.030833 
L 463.386959 -160.015636 
L 468.06161 -160.335596 
L 472.736261 -160.949944 
L 477.410912 -161.16989 
L 482.085563 -160.875404 
L 486.760214 -160.609207 
L 491.434865 -160.459588 
L 496.109516 -160.454834 
L 500.784166 -160.367966 
L 505.458817 -160.118997 
L 510.133468 -159.972821 
L 514.808119 -160.109615 
L 519.48277 -160.60403 
L 524.157421 -160.968802 
L 528.832072 -160.710105 
L 533.506723 -160.285866 
L 538.181374 -160.02686 
L 542.856024 -159.904801 
L 547.530675 -159.870892 
L 552.205326 -159.866509 
L 556.879977 -159.866257 
L 561.554628 -159.866255 
L 566.229279 -159.866465 
L 570.90393 -159.870919 
L 575.578581 -159.911992 
L 580.253232 -160.068512 
L 584.927882 -160.269914 
L 589.602533 -160.229858 
L 594.277184 -160.014078 
L 598.951835 -159.893376 
L 603.626486 -159.868497 
L 608.301137 -159.866334 
L 612.975788 -159.866267 
L 617.650439 -159.866722 
L 622.32509 -159.872555 
L 626.99974 -159.904239 
L 631.674391 -159.969564 
L 636.349042 -159.993066 
L 641.023693 -159.936509 
L 645.698344 -159.883818 
L 645.698344 -159.848682 
L 645.698344 -159.848682 
L 641.023693 -159.795991 
L 636.349042 -159.739434 
L 631.674391 -159.762936 
L 626.99974 -159.828261 
L 622.32509 -159.859945 
L 617.650439 -159.865778 
L 612.975788 -159.866233 
L 608.301137 -159.866166 
L 603.626486 -159.864003 
L 598.951835 -159.839124 
L 594.277184 -159.718422 
L 589.602533 -159.502642 
L 584.927882 -159.462586 
L 580.253232 -159.663988 
L 575.578581 -159.820508 
L 570.90393 -159.861581 
L 566.229279 -159.866035 
L 561.554628 -159.866245 
L 556.879977 -159.866243 
L 552.205326 -159.865991 
L 547.530675 -159.861608 
L 542.856024 -159.827699 
L 538.181374 -159.70564 
L 533.506723 -159.446634 
L 528.832072 -159.022395 
L 524.157421 -158.763698 
L 519.48277 -159.12847 
L 514.808119 -159.622885 
L 510.133468 -159.759679 
L 505.458817 -159.613503 
L 500.784166 -159.364534 
L 496.109516 -159.277666 
L 491.434865 -159.272912 
L 486.760214 -159.123293 
L 482.085563 -158.857096 
L 477.410912 -158.56261 
L 472.736261 -158.782556 
L 468.06161 -159.396904 
L 463.386959 -159.716864 
L 458.712308 -159.701667 
L 454.037658 -159.553512 
L 449.363007 -159.326367 
L 444.688356 -159.069644 
L 440.013705 -158.988653 
L 435.339054 -159.279277 
L 430.664403 -159.574605 
L 425.989752 -159.486056 
L 421.315101 -159.298973 
L 416.64045 -159.293048 
L 411.9658 -159.118265 
L 407.291149 -158.62661 
L 402.616498 -158.161487 
L 397.941847 -158.123157 
L 393.267196 -158.499849 
L 388.592545 -158.835809 
L 383.917894 -158.997438 
L 379.243243 -158.398825 
L 374.568592 -156.381638 
L 369.893942 -154.697888 
L 365.219291 -154.601447 
L 360.54464 -154.375553 
L 355.869989 -153.968333 
L 351.195338 -153.406222 
L 346.520687 -153.121554 
L 341.846036 -154.591061 
L 337.171385 -156.463186 
L 332.496734 -156.068565 
L 327.822084 -151.896747 
L 323.147433 -146.691349 
L 318.472782 -142.49187 
L 313.798131 -136.547067 
L 309.12348 -134.068139 
L 304.448829 -138.535695 
L 299.774178 -144.035308 
L 295.099527 -147.082135 
L 290.424876 -147.622404 
L 285.750226 -143.865084 
L 281.075575 -138.352354 
L 276.400924 -137.314752 
L 271.726273 -141.207193 
L 267.051622 -146.925693 
L 262.376971 -151.996034 
L 257.70232 -152.196695 
L 253.027669 -145.956292 
L 248.353018 -139.066541 
L 243.678368 -135.501706 
L 239.003717 -136.489492 
L 234.329066 -138.657985 
L 229.654415 -137.097138 
L 224.979764 -136.371863 
L 220.305113 -138.528189 
L 215.630462 -141.778011 
L 210.955811 -147.518002 
L 206.28116 -152.238795 
L 201.60651 -152.097662 
L 196.931859 -151.569951 
L 192.257208 -154.408147 
L 187.582557 -157.914695 
L 182.907906 -159.506173 
z
" id="m42b7559bb5" style="stroke:#4c4c4c;stroke-width:1.5;"/>
    </defs>
    <g clip-path="url(#pb4aed6b2e3)">
     <use style="fill:#df2020;stroke:#4c4c4c;stroke-width:1.5;" x="0" xlink:href="#m42b7559bb5" y="400.04775"/>
    </g>
   </g>
   <g id="PolyCollection_4">
    <defs>
     <path d="M 182.702036 -78.094807 
L 182.702036 -78.557693 
L 187.380846 -79.560261 
L 192.059656 -81.784619 
L 196.738466 -83.688536 
L 201.417276 -83.626728 
L 206.096086 -84.014185 
L 210.774896 -87.759301 
L 215.453706 -92.290046 
L 220.132515 -95.122969 
L 224.811325 -97.19651 
L 229.490135 -97.239534 
L 234.168945 -96.557311 
L 238.847755 -98.48643 
L 243.526565 -99.164261 
L 248.205375 -95.810788 
L 252.884184 -90.009643 
L 257.562994 -85.162429 
L 262.241804 -85.682092 
L 266.920614 -90.415218 
L 271.599424 -95.799759 
L 276.278234 -99.573483 
L 280.957044 -99.338126 
L 285.635854 -95.165146 
L 290.314663 -92.116782 
L 294.993473 -92.905127 
L 299.672283 -96.371263 
L 304.351093 -102.856076 
L 309.029903 -108.074544 
L 313.708713 -104.855899 
L 318.387523 -97.018036 
L 323.066333 -91.839903 
L 327.745142 -87.021053 
L 332.423952 -83.202229 
L 337.102762 -83.009915 
L 341.781572 -85.209166 
L 346.460382 -87.016356 
L 351.139192 -86.720984 
L 355.818002 -85.90361 
L 360.496811 -85.53574 
L 365.175621 -85.670266 
L 369.854431 -85.644747 
L 374.533241 -83.304122 
L 379.212051 -80.490124 
L 383.890861 -79.54888 
L 388.569671 -79.720676 
L 393.248481 -80.255181 
L 397.92729 -80.88782 
L 402.6061 -80.905622 
L 407.28491 -80.222261 
L 411.96372 -79.447945 
L 416.64253 -79.109559 
L 421.32134 -79.04327 
L 426.00015 -78.811746 
L 430.67896 -78.726358 
L 435.357769 -79.130551 
L 440.036579 -79.581555 
L 444.715389 -79.603479 
L 449.394199 -79.270214 
L 454.073009 -78.84827 
L 458.751819 -78.5739 
L 463.430629 -78.546657 
L 468.109439 -78.959171 
L 472.788248 -79.712464 
L 477.467058 -80.038905 
L 482.145868 -79.843391 
L 486.824678 -79.616636 
L 491.503488 -79.430946 
L 496.182298 -79.422011 
L 500.861108 -79.231121 
L 505.539917 -78.76604 
L 510.218727 -78.500009 
L 514.897537 -78.69359 
L 519.576347 -79.388404 
L 524.255157 -79.92405 
L 528.933967 -79.691493 
L 533.612777 -79.168436 
L 538.291587 -78.707128 
L 542.970396 -78.42567 
L 547.649206 -78.339101 
L 552.328016 -78.327034 
L 557.006826 -78.326272 
L 561.685636 -78.326265 
L 566.364446 -78.326833 
L 571.043256 -78.337286 
L 575.722066 -78.423271 
L 580.400875 -78.722552 
L 585.079685 -79.078367 
L 589.758495 -78.989448 
L 594.437305 -78.597956 
L 599.116115 -78.37797 
L 603.794925 -78.330824 
L 608.473735 -78.326439 
L 613.152544 -78.32629 
L 617.831354 -78.327163 
L 622.510164 -78.336983 
L 627.188974 -78.384905 
L 631.867784 -78.475184 
L 636.546594 -78.501953 
L 641.225404 -78.422559 
L 645.904214 -78.350777 
L 645.904214 -78.301723 
L 645.904214 -78.301723 
L 641.225404 -78.229941 
L 636.546594 -78.150547 
L 631.867784 -78.177316 
L 627.188974 -78.267595 
L 622.510164 -78.315517 
L 617.831354 -78.325337 
L 613.152544 -78.32621 
L 608.473735 -78.326061 
L 603.794925 -78.321676 
L 599.116115 -78.27453 
L 594.437305 -78.054544 
L 589.758495 -77.663052 
L 585.079685 -77.574133 
L 580.400875 -77.929948 
L 575.722066 -78.229229 
L 571.043256 -78.315214 
L 566.364446 -78.325667 
L 561.685636 -78.326235 
L 557.006826 -78.326228 
L 552.328016 -78.325466 
L 547.649206 -78.313399 
L 542.970396 -78.22683 
L 538.291587 -77.945372 
L 533.612777 -77.484064 
L 528.933967 -76.961007 
L 524.255157 -76.72845 
L 519.576347 -77.264096 
L 514.897537 -77.95891 
L 510.218727 -78.152491 
L 505.539917 -77.88646 
L 500.861108 -77.421379 
L 496.182298 -77.230489 
L 491.503488 -77.221554 
L 486.824678 -77.035864 
L 482.145868 -76.809109 
L 477.467058 -76.613595 
L 472.788248 -76.940036 
L 468.109439 -77.693329 
L 463.430629 -78.105843 
L 458.751819 -78.0786 
L 454.073009 -77.80423 
L 449.394199 -77.382286 
L 444.715389 -77.049021 
L 440.036579 -77.070945 
L 435.357769 -77.521949 
L 430.67896 -77.926142 
L 426.00015 -77.840754 
L 421.32134 -77.60923 
L 416.64253 -77.542941 
L 411.96372 -77.204555 
L 407.28491 -76.430239 
L 402.6061 -75.746878 
L 397.92729 -75.76468 
L 393.248481 -76.397319 
L 388.569671 -76.931824 
L 383.890861 -77.10362 
L 379.212051 -76.162376 
L 374.533241 -73.348378 
L 369.854431 -71.007753 
L 365.175621 -70.982234 
L 360.496811 -71.11676 
L 355.818002 -70.74889 
L 351.139192 -69.931516 
L 346.460382 -69.636144 
L 341.781572 -71.443334 
L 337.102762 -73.642585 
L 332.423952 -73.450271 
L 327.745142 -69.631447 
L 323.066333 -64.812597 
L 318.387523 -59.634464 
L 313.708713 -51.796601 
L 309.029903 -48.577956 
L 304.351093 -53.796424 
L 299.672283 -60.281237 
L 294.993473 -63.747373 
L 290.314663 -64.535718 
L 285.635854 -61.487354 
L 280.957044 -57.314374 
L 276.278234 -57.079017 
L 271.599424 -60.852741 
L 266.920614 -66.237282 
L 262.241804 -70.970408 
L 257.562994 -71.490071 
L 252.884184 -66.642857 
L 248.205375 -60.841712 
L 243.526565 -57.488239 
L 238.847755 -58.16607 
L 234.168945 -60.095189 
L 229.490135 -59.412966 
L 224.811325 -59.45599 
L 220.132515 -61.529531 
L 215.453706 -64.362454 
L 210.774896 -68.893199 
L 206.096086 -72.638315 
L 201.417276 -73.025772 
L 196.738466 -72.963964 
L 192.059656 -74.867881 
L 187.380846 -77.092239 
L 182.702036 -78.094807 
z
" id="m4cfc691104" style="stroke:#4c4c4c;stroke-width:1.5;"/>
    </defs>
    <g clip-path="url(#pb4aed6b2e3)">
     <use style="fill:#df2020;stroke:#4c4c4c;stroke-width:1.5;" x="0" xlink:href="#m4cfc691104" y="400.04775"/>
    </g>
   </g>
   <g id="matplotlib.axis_1">
    <g id="xtick_1">
     <g id="line2d_1">
      <defs>
       <path d="M 0 0 
L 0 3.5 
" id="m52695a9498" style="stroke:#000000;stroke-width:0.8;"/>
      </defs>
      <g>
       <use style="stroke:#000000;stroke-width:0.8;" x="173.644961" xlink:href="#m52695a9498" y="362.4915"/>
      </g>
     </g>
     <g id="text_1">
      <!-- 0.0 -->
      <defs>
       <path d="M 31.78125 66.40625 
Q 24.171875 66.40625 20.328125 58.90625 
Q 16.5 51.421875 16.5 36.375 
Q 16.5 21.390625 20.328125 13.890625 
Q 24.171875 6.390625 31.78125 6.390625 
Q 39.453125 6.390625 43.28125 13.890625 
Q 47.125 21.390625 47.125 36.375 
Q 47.125 51.421875 43.28125 58.90625 
Q 39.453125 66.40625 31.78125 66.40625 
z
M 31.78125 74.21875 
Q 44.046875 74.21875 50.515625 64.515625 
Q 56.984375 54.828125 56.984375 36.375 
Q 56.984375 17.96875 50.515625 8.265625 
Q 44.046875 -1.421875 31.78125 -1.421875 
Q 19.53125 -1.421875 13.0625 8.265625 
Q 6.59375 17.96875 6.59375 36.375 
Q 6.59375 54.828125 13.0625 64.515625 
Q 19.53125 74.21875 31.78125 74.21875 
z
" id="DejaVuSans-48"/>
       <path d="M 10.6875 12.40625 
L 21 12.40625 
L 21 0 
L 10.6875 0 
z
" id="DejaVuSans-46"/>
      </defs>
      <g transform="translate(165.693399 377.089938)scale(0.1 -0.1)">
       <use xlink:href="#DejaVuSans-48"/>
       <use x="63.623047" xlink:href="#DejaVuSans-46"/>
       <use x="95.410156" xlink:href="#DejaVuSans-48"/>
      </g>
     </g>
    </g>
    <g id="xtick_2">
     <g id="line2d_2">
      <g>
       <use style="stroke:#000000;stroke-width:0.8;" x="289.818944" xlink:href="#m52695a9498" y="362.4915"/>
      </g>
     </g>
     <g id="text_2">
      <!-- 0.1 -->
      <defs>
       <path d="M 12.40625 8.296875 
L 28.515625 8.296875 
L 28.515625 63.921875 
L 10.984375 60.40625 
L 10.984375 69.390625 
L 28.421875 72.90625 
L 38.28125 72.90625 
L 38.28125 8.296875 
L 54.390625 8.296875 
L 54.390625 0 
L 12.40625 0 
z
" id="DejaVuSans-49"/>
      </defs>
      <g transform="translate(281.867381 377.089938)scale(0.1 -0.1)">
       <use xlink:href="#DejaVuSans-48"/>
       <use x="63.623047" xlink:href="#DejaVuSans-46"/>
       <use x="95.410156" xlink:href="#DejaVuSans-49"/>
      </g>
     </g>
    </g>
    <g id="xtick_3">
     <g id="line2d_3">
      <g>
       <use style="stroke:#000000;stroke-width:0.8;" x="405.992926" xlink:href="#m52695a9498" y="362.4915"/>
      </g>
     </g>
     <g id="text_3">
      <!-- 0.2 -->
      <defs>
       <path d="M 19.1875 8.296875 
L 53.609375 8.296875 
L 53.609375 0 
L 7.328125 0 
L 7.328125 8.296875 
Q 12.9375 14.109375 22.625 23.890625 
Q 32.328125 33.6875 34.8125 36.53125 
Q 39.546875 41.84375 41.421875 45.53125 
Q 43.3125 49.21875 43.3125 52.78125 
Q 43.3125 58.59375 39.234375 62.25 
Q 35.15625 65.921875 28.609375 65.921875 
Q 23.96875 65.921875 18.8125 64.3125 
Q 13.671875 62.703125 7.8125 59.421875 
L 7.8125 69.390625 
Q 13.765625 71.78125 18.9375 73 
Q 24.125 74.21875 28.421875 74.21875 
Q 39.75 74.21875 46.484375 68.546875 
Q 53.21875 62.890625 53.21875 53.421875 
Q 53.21875 48.921875 51.53125 44.890625 
Q 49.859375 40.875 45.40625 35.40625 
Q 44.1875 33.984375 37.640625 27.21875 
Q 31.109375 20.453125 19.1875 8.296875 
z
" id="DejaVuSans-50"/>
      </defs>
      <g transform="translate(398.041363 377.089938)scale(0.1 -0.1)">
       <use xlink:href="#DejaVuSans-48"/>
       <use x="63.623047" xlink:href="#DejaVuSans-46"/>
       <use x="95.410156" xlink:href="#DejaVuSans-50"/>
      </g>
     </g>
    </g>
    <g id="xtick_4">
     <g id="line2d_4">
      <g>
       <use style="stroke:#000000;stroke-width:0.8;" x="522.166908" xlink:href="#m52695a9498" y="362.4915"/>
      </g>
     </g>
     <g id="text_4">
      <!-- 0.3 -->
      <defs>
       <path d="M 40.578125 39.3125 
Q 47.65625 37.796875 51.625 33 
Q 55.609375 28.21875 55.609375 21.1875 
Q 55.609375 10.40625 48.1875 4.484375 
Q 40.765625 -1.421875 27.09375 -1.421875 
Q 22.515625 -1.421875 17.65625 -0.515625 
Q 12.796875 0.390625 7.625 2.203125 
L 7.625 11.71875 
Q 11.71875 9.328125 16.59375 8.109375 
Q 21.484375 6.890625 26.8125 6.890625 
Q 36.078125 6.890625 40.9375 10.546875 
Q 45.796875 14.203125 45.796875 21.1875 
Q 45.796875 27.640625 41.28125 31.265625 
Q 36.765625 34.90625 28.71875 34.90625 
L 20.21875 34.90625 
L 20.21875 43.015625 
L 29.109375 43.015625 
Q 36.375 43.015625 40.234375 45.921875 
Q 44.09375 48.828125 44.09375 54.296875 
Q 44.09375 59.90625 40.109375 62.90625 
Q 36.140625 65.921875 28.71875 65.921875 
Q 24.65625 65.921875 20.015625 65.03125 
Q 15.375 64.15625 9.8125 62.3125 
L 9.8125 71.09375 
Q 15.4375 72.65625 20.34375 73.4375 
Q 25.25 74.21875 29.59375 74.21875 
Q 40.828125 74.21875 47.359375 69.109375 
Q 53.90625 64.015625 53.90625 55.328125 
Q 53.90625 49.265625 50.4375 45.09375 
Q 46.96875 40.921875 40.578125 39.3125 
z
" id="DejaVuSans-51"/>
      </defs>
      <g transform="translate(514.215346 377.089938)scale(0.1 -0.1)">
       <use xlink:href="#DejaVuSans-48"/>
       <use x="63.623047" xlink:href="#DejaVuSans-46"/>
       <use x="95.410156" xlink:href="#DejaVuSans-51"/>
      </g>
     </g>
    </g>
    <g id="xtick_5">
     <g id="line2d_5">
      <g>
       <use style="stroke:#000000;stroke-width:0.8;" x="638.34089" xlink:href="#m52695a9498" y="362.4915"/>
      </g>
     </g>
     <g id="text_5">
      <!-- 0.4 -->
      <defs>
       <path d="M 37.796875 64.3125 
L 12.890625 25.390625 
L 37.796875 25.390625 
z
M 35.203125 72.90625 
L 47.609375 72.90625 
L 47.609375 25.390625 
L 58.015625 25.390625 
L 58.015625 17.1875 
L 47.609375 17.1875 
L 47.609375 0 
L 37.796875 0 
L 37.796875 17.1875 
L 4.890625 17.1875 
L 4.890625 26.703125 
z
" id="DejaVuSans-52"/>
      </defs>
      <g transform="translate(630.389328 377.089938)scale(0.1 -0.1)">
       <use xlink:href="#DejaVuSans-48"/>
       <use x="63.623047" xlink:href="#DejaVuSans-46"/>
       <use x="95.410156" xlink:href="#DejaVuSans-52"/>
      </g>
     </g>
    </g>
    <g id="text_6">
     <!-- Tasa con NBI -->
     <defs>
      <path d="M -0.296875 72.90625 
L 61.375 72.90625 
L 61.375 64.59375 
L 35.5 64.59375 
L 35.5 0 
L 25.59375 0 
L 25.59375 64.59375 
L -0.296875 64.59375 
z
" id="DejaVuSans-84"/>
      <path d="M 34.28125 27.484375 
Q 23.390625 27.484375 19.1875 25 
Q 14.984375 22.515625 14.984375 16.5 
Q 14.984375 11.71875 18.140625 8.90625 
Q 21.296875 6.109375 26.703125 6.109375 
Q 34.1875 6.109375 38.703125 11.40625 
Q 43.21875 16.703125 43.21875 25.484375 
L 43.21875 27.484375 
z
M 52.203125 31.203125 
L 52.203125 0 
L 43.21875 0 
L 43.21875 8.296875 
Q 40.140625 3.328125 35.546875 0.953125 
Q 30.953125 -1.421875 24.3125 -1.421875 
Q 15.921875 -1.421875 10.953125 3.296875 
Q 6 8.015625 6 15.921875 
Q 6 25.140625 12.171875 29.828125 
Q 18.359375 34.515625 30.609375 34.515625 
L 43.21875 34.515625 
L 43.21875 35.40625 
Q 43.21875 41.609375 39.140625 45 
Q 35.0625 48.390625 27.6875 48.390625 
Q 23 48.390625 18.546875 47.265625 
Q 14.109375 46.140625 10.015625 43.890625 
L 10.015625 52.203125 
Q 14.9375 54.109375 19.578125 55.046875 
Q 24.21875 56 28.609375 56 
Q 40.484375 56 46.34375 49.84375 
Q 52.203125 43.703125 52.203125 31.203125 
z
" id="DejaVuSans-97"/>
      <path d="M 44.28125 53.078125 
L 44.28125 44.578125 
Q 40.484375 46.53125 36.375 47.5 
Q 32.28125 48.484375 27.875 48.484375 
Q 21.1875 48.484375 17.84375 46.4375 
Q 14.5 44.390625 14.5 40.28125 
Q 14.5 37.15625 16.890625 35.375 
Q 19.28125 33.59375 26.515625 31.984375 
L 29.59375 31.296875 
Q 39.15625 29.25 43.1875 25.515625 
Q 47.21875 21.78125 47.21875 15.09375 
Q 47.21875 7.46875 41.1875 3.015625 
Q 35.15625 -1.421875 24.609375 -1.421875 
Q 20.21875 -1.421875 15.453125 -0.5625 
Q 10.6875 0.296875 5.421875 2 
L 5.421875 11.28125 
Q 10.40625 8.6875 15.234375 7.390625 
Q 20.0625 6.109375 24.8125 6.109375 
Q 31.15625 6.109375 34.5625 8.28125 
Q 37.984375 10.453125 37.984375 14.40625 
Q 37.984375 18.0625 35.515625 20.015625 
Q 33.0625 21.96875 24.703125 23.78125 
L 21.578125 24.515625 
Q 13.234375 26.265625 9.515625 29.90625 
Q 5.8125 33.546875 5.8125 39.890625 
Q 5.8125 47.609375 11.28125 51.796875 
Q 16.75 56 26.8125 56 
Q 31.78125 56 36.171875 55.265625 
Q 40.578125 54.546875 44.28125 53.078125 
z
" id="DejaVuSans-115"/>
      <path id="DejaVuSans-32"/>
      <path d="M 48.78125 52.59375 
L 48.78125 44.1875 
Q 44.96875 46.296875 41.140625 47.34375 
Q 37.3125 48.390625 33.40625 48.390625 
Q 24.65625 48.390625 19.8125 42.84375 
Q 14.984375 37.3125 14.984375 27.296875 
Q 14.984375 17.28125 19.8125 11.734375 
Q 24.65625 6.203125 33.40625 6.203125 
Q 37.3125 6.203125 41.140625 7.25 
Q 44.96875 8.296875 48.78125 10.40625 
L 48.78125 2.09375 
Q 45.015625 0.34375 40.984375 -0.53125 
Q 36.96875 -1.421875 32.421875 -1.421875 
Q 20.0625 -1.421875 12.78125 6.34375 
Q 5.515625 14.109375 5.515625 27.296875 
Q 5.515625 40.671875 12.859375 48.328125 
Q 20.21875 56 33.015625 56 
Q 37.15625 56 41.109375 55.140625 
Q 45.0625 54.296875 48.78125 52.59375 
z
" id="DejaVuSans-99"/>
      <path d="M 30.609375 48.390625 
Q 23.390625 48.390625 19.1875 42.75 
Q 14.984375 37.109375 14.984375 27.296875 
Q 14.984375 17.484375 19.15625 11.84375 
Q 23.34375 6.203125 30.609375 6.203125 
Q 37.796875 6.203125 41.984375 11.859375 
Q 46.1875 17.53125 46.1875 27.296875 
Q 46.1875 37.015625 41.984375 42.703125 
Q 37.796875 48.390625 30.609375 48.390625 
z
M 30.609375 56 
Q 42.328125 56 49.015625 48.375 
Q 55.71875 40.765625 55.71875 27.296875 
Q 55.71875 13.875 49.015625 6.21875 
Q 42.328125 -1.421875 30.609375 -1.421875 
Q 18.84375 -1.421875 12.171875 6.21875 
Q 5.515625 13.875 5.515625 27.296875 
Q 5.515625 40.765625 12.171875 48.375 
Q 18.84375 56 30.609375 56 
z
" id="DejaVuSans-111"/>
      <path d="M 54.890625 33.015625 
L 54.890625 0 
L 45.90625 0 
L 45.90625 32.71875 
Q 45.90625 40.484375 42.875 44.328125 
Q 39.84375 48.1875 33.796875 48.1875 
Q 26.515625 48.1875 22.3125 43.546875 
Q 18.109375 38.921875 18.109375 30.90625 
L 18.109375 0 
L 9.078125 0 
L 9.078125 54.6875 
L 18.109375 54.6875 
L 18.109375 46.1875 
Q 21.34375 51.125 25.703125 53.5625 
Q 30.078125 56 35.796875 56 
Q 45.21875 56 50.046875 50.171875 
Q 54.890625 44.34375 54.890625 33.015625 
z
" id="DejaVuSans-110"/>
      <path d="M 9.8125 72.90625 
L 23.09375 72.90625 
L 55.421875 11.921875 
L 55.421875 72.90625 
L 64.984375 72.90625 
L 64.984375 0 
L 51.703125 0 
L 19.390625 60.984375 
L 19.390625 0 
L 9.8125 0 
z
" id="DejaVuSans-78"/>
      <path d="M 19.671875 34.8125 
L 19.671875 8.109375 
L 35.5 8.109375 
Q 43.453125 8.109375 47.28125 11.40625 
Q 51.125 14.703125 51.125 21.484375 
Q 51.125 28.328125 47.28125 31.5625 
Q 43.453125 34.8125 35.5 34.8125 
z
M 19.671875 64.796875 
L 19.671875 42.828125 
L 34.28125 42.828125 
Q 41.5 42.828125 45.03125 45.53125 
Q 48.578125 48.25 48.578125 53.8125 
Q 48.578125 59.328125 45.03125 62.0625 
Q 41.5 64.796875 34.28125 64.796875 
z
M 9.8125 72.90625 
L 35.015625 72.90625 
Q 46.296875 72.90625 52.390625 68.21875 
Q 58.5 63.53125 58.5 54.890625 
Q 58.5 48.1875 55.375 44.234375 
Q 52.25 40.28125 46.1875 39.3125 
Q 53.46875 37.75 57.5 32.78125 
Q 61.53125 27.828125 61.53125 20.40625 
Q 61.53125 10.640625 54.890625 5.3125 
Q 48.25 0 35.984375 0 
L 9.8125 0 
z
" id="DejaVuSans-66"/>
      <path d="M 9.8125 72.90625 
L 19.671875 72.90625 
L 19.671875 0 
L 9.8125 0 
z
" id="DejaVuSans-73"/>
     </defs>
     <g transform="translate(381.727344 390.768062)scale(0.1 -0.1)">
      <use xlink:href="#DejaVuSans-84"/>
      <use x="60.833984" xlink:href="#DejaVuSans-97"/>
      <use x="122.113281" xlink:href="#DejaVuSans-115"/>
      <use x="174.212891" xlink:href="#DejaVuSans-97"/>
      <use x="235.492188" xlink:href="#DejaVuSans-32"/>
      <use x="267.279297" xlink:href="#DejaVuSans-99"/>
      <use x="322.259766" xlink:href="#DejaVuSans-111"/>
      <use x="383.441406" xlink:href="#DejaVuSans-110"/>
      <use x="446.820312" xlink:href="#DejaVuSans-32"/>
      <use x="478.607422" xlink:href="#DejaVuSans-78"/>
      <use x="553.412109" xlink:href="#DejaVuSans-66"/>
      <use x="622.015625" xlink:href="#DejaVuSans-73"/>
     </g>
    </g>
   </g>
   <g id="matplotlib.axis_2">
    <g id="ytick_1">
     <g id="line2d_6">
      <defs>
       <path d="M 0 0 
L -3.5 0 
" id="mf6f0ba6d2a" style="stroke:#000000;stroke-width:0.8;"/>
      </defs>
      <g>
       <use style="stroke:#000000;stroke-width:0.8;" x="135.303125" xlink:href="#mf6f0ba6d2a" y="77.1015"/>
      </g>
     </g>
     <g id="text_7">
      <!-- Avanzado -->
      <defs>
       <path d="M 34.1875 63.1875 
L 20.796875 26.90625 
L 47.609375 26.90625 
z
M 28.609375 72.90625 
L 39.796875 72.90625 
L 67.578125 0 
L 57.328125 0 
L 50.6875 18.703125 
L 17.828125 18.703125 
L 11.1875 0 
L 0.78125 0 
z
" id="DejaVuSans-65"/>
       <path d="M 2.984375 54.6875 
L 12.5 54.6875 
L 29.59375 8.796875 
L 46.6875 54.6875 
L 56.203125 54.6875 
L 35.6875 0 
L 23.484375 0 
z
" id="DejaVuSans-118"/>
       <path d="M 5.515625 54.6875 
L 48.1875 54.6875 
L 48.1875 46.484375 
L 14.40625 7.171875 
L 48.1875 7.171875 
L 48.1875 0 
L 4.296875 0 
L 4.296875 8.203125 
L 38.09375 47.515625 
L 5.515625 47.515625 
z
" id="DejaVuSans-122"/>
       <path d="M 45.40625 46.390625 
L 45.40625 75.984375 
L 54.390625 75.984375 
L 54.390625 0 
L 45.40625 0 
L 45.40625 8.203125 
Q 42.578125 3.328125 38.25 0.953125 
Q 33.9375 -1.421875 27.875 -1.421875 
Q 17.96875 -1.421875 11.734375 6.484375 
Q 5.515625 14.40625 5.515625 27.296875 
Q 5.515625 40.1875 11.734375 48.09375 
Q 17.96875 56 27.875 56 
Q 33.9375 56 38.25 53.625 
Q 42.578125 51.265625 45.40625 46.390625 
z
M 14.796875 27.296875 
Q 14.796875 17.390625 18.875 11.75 
Q 22.953125 6.109375 30.078125 6.109375 
Q 37.203125 6.109375 41.296875 11.75 
Q 45.40625 17.390625 45.40625 27.296875 
Q 45.40625 37.203125 41.296875 42.84375 
Q 37.203125 48.484375 30.078125 48.484375 
Q 22.953125 48.484375 18.875 42.84375 
Q 14.796875 37.203125 14.796875 27.296875 
z
" id="DejaVuSans-100"/>
      </defs>
      <g transform="translate(79.242188 80.900719)scale(0.1 -0.1)">
       <use xlink:href="#DejaVuSans-65"/>
       <use x="68.330078" xlink:href="#DejaVuSans-118"/>
       <use x="127.509766" xlink:href="#DejaVuSans-97"/>
       <use x="188.789062" xlink:href="#DejaVuSans-110"/>
       <use x="252.167969" xlink:href="#DejaVuSans-122"/>
       <use x="304.658203" xlink:href="#DejaVuSans-97"/>
       <use x="365.9375" xlink:href="#DejaVuSans-100"/>
       <use x="429.414062" xlink:href="#DejaVuSans-111"/>
      </g>
     </g>
    </g>
    <g id="ytick_2">
     <g id="line2d_7">
      <g>
       <use style="stroke:#000000;stroke-width:0.8;" x="135.303125" xlink:href="#mf6f0ba6d2a" y="158.6415"/>
      </g>
     </g>
     <g id="text_8">
      <!-- Satisfactorio -->
      <defs>
       <path d="M 53.515625 70.515625 
L 53.515625 60.890625 
Q 47.90625 63.578125 42.921875 64.890625 
Q 37.9375 66.21875 33.296875 66.21875 
Q 25.25 66.21875 20.875 63.09375 
Q 16.5 59.96875 16.5 54.203125 
Q 16.5 49.359375 19.40625 46.890625 
Q 22.3125 44.4375 30.421875 42.921875 
L 36.375 41.703125 
Q 47.40625 39.59375 52.65625 34.296875 
Q 57.90625 29 57.90625 20.125 
Q 57.90625 9.515625 50.796875 4.046875 
Q 43.703125 -1.421875 29.984375 -1.421875 
Q 24.8125 -1.421875 18.96875 -0.25 
Q 13.140625 0.921875 6.890625 3.21875 
L 6.890625 13.375 
Q 12.890625 10.015625 18.65625 8.296875 
Q 24.421875 6.59375 29.984375 6.59375 
Q 38.421875 6.59375 43.015625 9.90625 
Q 47.609375 13.234375 47.609375 19.390625 
Q 47.609375 24.75 44.3125 27.78125 
Q 41.015625 30.8125 33.5 32.328125 
L 27.484375 33.5 
Q 16.453125 35.6875 11.515625 40.375 
Q 6.59375 45.0625 6.59375 53.421875 
Q 6.59375 63.09375 13.40625 68.65625 
Q 20.21875 74.21875 32.171875 74.21875 
Q 37.3125 74.21875 42.625 73.28125 
Q 47.953125 72.359375 53.515625 70.515625 
z
" id="DejaVuSans-83"/>
       <path d="M 18.3125 70.21875 
L 18.3125 54.6875 
L 36.8125 54.6875 
L 36.8125 47.703125 
L 18.3125 47.703125 
L 18.3125 18.015625 
Q 18.3125 11.328125 20.140625 9.421875 
Q 21.96875 7.515625 27.59375 7.515625 
L 36.8125 7.515625 
L 36.8125 0 
L 27.59375 0 
Q 17.1875 0 13.234375 3.875 
Q 9.28125 7.765625 9.28125 18.015625 
L 9.28125 47.703125 
L 2.6875 47.703125 
L 2.6875 54.6875 
L 9.28125 54.6875 
L 9.28125 70.21875 
z
" id="DejaVuSans-116"/>
       <path d="M 9.421875 54.6875 
L 18.40625 54.6875 
L 18.40625 0 
L 9.421875 0 
z
M 9.421875 75.984375 
L 18.40625 75.984375 
L 18.40625 64.59375 
L 9.421875 64.59375 
z
" id="DejaVuSans-105"/>
       <path d="M 37.109375 75.984375 
L 37.109375 68.5 
L 28.515625 68.5 
Q 23.6875 68.5 21.796875 66.546875 
Q 19.921875 64.59375 19.921875 59.515625 
L 19.921875 54.6875 
L 34.71875 54.6875 
L 34.71875 47.703125 
L 19.921875 47.703125 
L 19.921875 0 
L 10.890625 0 
L 10.890625 47.703125 
L 2.296875 47.703125 
L 2.296875 54.6875 
L 10.890625 54.6875 
L 10.890625 58.5 
Q 10.890625 67.625 15.140625 71.796875 
Q 19.390625 75.984375 28.609375 75.984375 
z
" id="DejaVuSans-102"/>
       <path d="M 41.109375 46.296875 
Q 39.59375 47.171875 37.8125 47.578125 
Q 36.03125 48 33.890625 48 
Q 26.265625 48 22.1875 43.046875 
Q 18.109375 38.09375 18.109375 28.8125 
L 18.109375 0 
L 9.078125 0 
L 9.078125 54.6875 
L 18.109375 54.6875 
L 18.109375 46.1875 
Q 20.953125 51.171875 25.484375 53.578125 
Q 30.03125 56 36.53125 56 
Q 37.453125 56 38.578125 55.875 
Q 39.703125 55.765625 41.0625 55.515625 
z
" id="DejaVuSans-114"/>
      </defs>
      <g transform="translate(65.725 162.440719)scale(0.1 -0.1)">
       <use xlink:href="#DejaVuSans-83"/>
       <use x="63.476562" xlink:href="#DejaVuSans-97"/>
       <use x="124.755859" xlink:href="#DejaVuSans-116"/>
       <use x="163.964844" xlink:href="#DejaVuSans-105"/>
       <use x="191.748047" xlink:href="#DejaVuSans-115"/>
       <use x="243.847656" xlink:href="#DejaVuSans-102"/>
       <use x="279.052734" xlink:href="#DejaVuSans-97"/>
       <use x="340.332031" xlink:href="#DejaVuSans-99"/>
       <use x="395.3125" xlink:href="#DejaVuSans-116"/>
       <use x="434.521484" xlink:href="#DejaVuSans-111"/>
       <use x="495.703125" xlink:href="#DejaVuSans-114"/>
       <use x="536.816406" xlink:href="#DejaVuSans-105"/>
       <use x="564.599609" xlink:href="#DejaVuSans-111"/>
      </g>
     </g>
    </g>
    <g id="ytick_3">
     <g id="line2d_8">
      <g>
       <use style="stroke:#000000;stroke-width:0.8;" x="135.303125" xlink:href="#mf6f0ba6d2a" y="240.1815"/>
      </g>
     </g>
     <g id="text_9">
      <!-- B치sico -->
      <defs>
       <path d="M 34.28125 27.484375 
Q 23.390625 27.484375 19.1875 25 
Q 14.984375 22.515625 14.984375 16.5 
Q 14.984375 11.71875 18.140625 8.90625 
Q 21.296875 6.109375 26.703125 6.109375 
Q 34.1875 6.109375 38.703125 11.40625 
Q 43.21875 16.703125 43.21875 25.484375 
L 43.21875 27.484375 
z
M 52.203125 31.203125 
L 52.203125 0 
L 43.21875 0 
L 43.21875 8.296875 
Q 40.140625 3.328125 35.546875 0.953125 
Q 30.953125 -1.421875 24.3125 -1.421875 
Q 15.921875 -1.421875 10.953125 3.296875 
Q 6 8.015625 6 15.921875 
Q 6 25.140625 12.171875 29.828125 
Q 18.359375 34.515625 30.609375 34.515625 
L 43.21875 34.515625 
L 43.21875 35.40625 
Q 43.21875 41.609375 39.140625 45 
Q 35.0625 48.390625 27.6875 48.390625 
Q 23 48.390625 18.546875 47.265625 
Q 14.109375 46.140625 10.015625 43.890625 
L 10.015625 52.203125 
Q 14.9375 54.109375 19.578125 55.046875 
Q 24.21875 56 28.609375 56 
Q 40.484375 56 46.34375 49.84375 
Q 52.203125 43.703125 52.203125 31.203125 
z
M 35.796875 79.984375 
L 45.515625 79.984375 
L 29.59375 61.625 
L 22.125 61.625 
z
" id="DejaVuSans-225"/>
      </defs>
      <g transform="translate(95.709375 243.980719)scale(0.1 -0.1)">
       <use xlink:href="#DejaVuSans-66"/>
       <use x="68.603516" xlink:href="#DejaVuSans-225"/>
       <use x="129.882812" xlink:href="#DejaVuSans-115"/>
       <use x="181.982422" xlink:href="#DejaVuSans-105"/>
       <use x="209.765625" xlink:href="#DejaVuSans-99"/>
       <use x="264.746094" xlink:href="#DejaVuSans-111"/>
      </g>
     </g>
    </g>
    <g id="ytick_4">
     <g id="line2d_9">
      <g>
       <use style="stroke:#000000;stroke-width:0.8;" x="135.303125" xlink:href="#mf6f0ba6d2a" y="321.7215"/>
      </g>
     </g>
     <g id="text_10">
      <!-- Por debajo del b치sico -->
      <defs>
       <path d="M 19.671875 64.796875 
L 19.671875 37.40625 
L 32.078125 37.40625 
Q 38.96875 37.40625 42.71875 40.96875 
Q 46.484375 44.53125 46.484375 51.125 
Q 46.484375 57.671875 42.71875 61.234375 
Q 38.96875 64.796875 32.078125 64.796875 
z
M 9.8125 72.90625 
L 32.078125 72.90625 
Q 44.34375 72.90625 50.609375 67.359375 
Q 56.890625 61.8125 56.890625 51.125 
Q 56.890625 40.328125 50.609375 34.8125 
Q 44.34375 29.296875 32.078125 29.296875 
L 19.671875 29.296875 
L 19.671875 0 
L 9.8125 0 
z
" id="DejaVuSans-80"/>
       <path d="M 56.203125 29.59375 
L 56.203125 25.203125 
L 14.890625 25.203125 
Q 15.484375 15.921875 20.484375 11.0625 
Q 25.484375 6.203125 34.421875 6.203125 
Q 39.59375 6.203125 44.453125 7.46875 
Q 49.3125 8.734375 54.109375 11.28125 
L 54.109375 2.78125 
Q 49.265625 0.734375 44.1875 -0.34375 
Q 39.109375 -1.421875 33.890625 -1.421875 
Q 20.796875 -1.421875 13.15625 6.1875 
Q 5.515625 13.8125 5.515625 26.8125 
Q 5.515625 40.234375 12.765625 48.109375 
Q 20.015625 56 32.328125 56 
Q 43.359375 56 49.78125 48.890625 
Q 56.203125 41.796875 56.203125 29.59375 
z
M 47.21875 32.234375 
Q 47.125 39.59375 43.09375 43.984375 
Q 39.0625 48.390625 32.421875 48.390625 
Q 24.90625 48.390625 20.390625 44.140625 
Q 15.875 39.890625 15.1875 32.171875 
z
" id="DejaVuSans-101"/>
       <path d="M 48.6875 27.296875 
Q 48.6875 37.203125 44.609375 42.84375 
Q 40.53125 48.484375 33.40625 48.484375 
Q 26.265625 48.484375 22.1875 42.84375 
Q 18.109375 37.203125 18.109375 27.296875 
Q 18.109375 17.390625 22.1875 11.75 
Q 26.265625 6.109375 33.40625 6.109375 
Q 40.53125 6.109375 44.609375 11.75 
Q 48.6875 17.390625 48.6875 27.296875 
z
M 18.109375 46.390625 
Q 20.953125 51.265625 25.265625 53.625 
Q 29.59375 56 35.59375 56 
Q 45.5625 56 51.78125 48.09375 
Q 58.015625 40.1875 58.015625 27.296875 
Q 58.015625 14.40625 51.78125 6.484375 
Q 45.5625 -1.421875 35.59375 -1.421875 
Q 29.59375 -1.421875 25.265625 0.953125 
Q 20.953125 3.328125 18.109375 8.203125 
L 18.109375 0 
L 9.078125 0 
L 9.078125 75.984375 
L 18.109375 75.984375 
z
" id="DejaVuSans-98"/>
       <path d="M 9.421875 54.6875 
L 18.40625 54.6875 
L 18.40625 -0.984375 
Q 18.40625 -11.421875 14.421875 -16.109375 
Q 10.453125 -20.796875 1.609375 -20.796875 
L -1.8125 -20.796875 
L -1.8125 -13.1875 
L 0.59375 -13.1875 
Q 5.71875 -13.1875 7.5625 -10.8125 
Q 9.421875 -8.453125 9.421875 -0.984375 
z
M 9.421875 75.984375 
L 18.40625 75.984375 
L 18.40625 64.59375 
L 9.421875 64.59375 
z
" id="DejaVuSans-106"/>
       <path d="M 9.421875 75.984375 
L 18.40625 75.984375 
L 18.40625 0 
L 9.421875 0 
z
" id="DejaVuSans-108"/>
      </defs>
      <g transform="translate(21.278125 325.720719)scale(0.1 -0.1)">
       <use xlink:href="#DejaVuSans-80"/>
       <use x="60.255859" xlink:href="#DejaVuSans-111"/>
       <use x="121.4375" xlink:href="#DejaVuSans-114"/>
       <use x="162.550781" xlink:href="#DejaVuSans-32"/>
       <use x="194.337891" xlink:href="#DejaVuSans-100"/>
       <use x="257.814453" xlink:href="#DejaVuSans-101"/>
       <use x="319.337891" xlink:href="#DejaVuSans-98"/>
       <use x="382.814453" xlink:href="#DejaVuSans-97"/>
       <use x="444.09375" xlink:href="#DejaVuSans-106"/>
       <use x="471.876953" xlink:href="#DejaVuSans-111"/>
       <use x="533.058594" xlink:href="#DejaVuSans-32"/>
       <use x="564.845703" xlink:href="#DejaVuSans-100"/>
       <use x="628.322266" xlink:href="#DejaVuSans-101"/>
       <use x="689.845703" xlink:href="#DejaVuSans-108"/>
       <use x="717.628906" xlink:href="#DejaVuSans-32"/>
       <use x="749.416016" xlink:href="#DejaVuSans-98"/>
       <use x="812.892578" xlink:href="#DejaVuSans-225"/>
       <use x="874.171875" xlink:href="#DejaVuSans-115"/>
       <use x="926.271484" xlink:href="#DejaVuSans-105"/>
       <use x="954.054688" xlink:href="#DejaVuSans-99"/>
       <use x="1009.035156" xlink:href="#DejaVuSans-111"/>
      </g>
     </g>
    </g>
    <g id="text_11">
     <!-- Nivel de desempe침o en matem치tica -->
     <defs>
      <path d="M 52 44.1875 
Q 55.375 50.25 60.0625 53.125 
Q 64.75 56 71.09375 56 
Q 79.640625 56 84.28125 50.015625 
Q 88.921875 44.046875 88.921875 33.015625 
L 88.921875 0 
L 79.890625 0 
L 79.890625 32.71875 
Q 79.890625 40.578125 77.09375 44.375 
Q 74.3125 48.1875 68.609375 48.1875 
Q 61.625 48.1875 57.5625 43.546875 
Q 53.515625 38.921875 53.515625 30.90625 
L 53.515625 0 
L 44.484375 0 
L 44.484375 32.71875 
Q 44.484375 40.625 41.703125 44.40625 
Q 38.921875 48.1875 33.109375 48.1875 
Q 26.21875 48.1875 22.15625 43.53125 
Q 18.109375 38.875 18.109375 30.90625 
L 18.109375 0 
L 9.078125 0 
L 9.078125 54.6875 
L 18.109375 54.6875 
L 18.109375 46.1875 
Q 21.1875 51.21875 25.484375 53.609375 
Q 29.78125 56 35.6875 56 
Q 41.65625 56 45.828125 52.96875 
Q 50 49.953125 52 44.1875 
z
" id="DejaVuSans-109"/>
      <path d="M 18.109375 8.203125 
L 18.109375 -20.796875 
L 9.078125 -20.796875 
L 9.078125 54.6875 
L 18.109375 54.6875 
L 18.109375 46.390625 
Q 20.953125 51.265625 25.265625 53.625 
Q 29.59375 56 35.59375 56 
Q 45.5625 56 51.78125 48.09375 
Q 58.015625 40.1875 58.015625 27.296875 
Q 58.015625 14.40625 51.78125 6.484375 
Q 45.5625 -1.421875 35.59375 -1.421875 
Q 29.59375 -1.421875 25.265625 0.953125 
Q 20.953125 3.328125 18.109375 8.203125 
z
M 48.6875 27.296875 
Q 48.6875 37.203125 44.609375 42.84375 
Q 40.53125 48.484375 33.40625 48.484375 
Q 26.265625 48.484375 22.1875 42.84375 
Q 18.109375 37.203125 18.109375 27.296875 
Q 18.109375 17.390625 22.1875 11.75 
Q 26.265625 6.109375 33.40625 6.109375 
Q 40.53125 6.109375 44.609375 11.75 
Q 48.6875 17.390625 48.6875 27.296875 
z
" id="DejaVuSans-112"/>
      <path d="M 54.890625 33.015625 
L 54.890625 0 
L 45.90625 0 
L 45.90625 32.71875 
Q 45.90625 40.484375 42.875 44.328125 
Q 39.84375 48.1875 33.796875 48.1875 
Q 26.515625 48.1875 22.3125 43.546875 
Q 18.109375 38.921875 18.109375 30.90625 
L 18.109375 0 
L 9.078125 0 
L 9.078125 54.6875 
L 18.109375 54.6875 
L 18.109375 46.1875 
Q 21.34375 51.125 25.703125 53.5625 
Q 30.078125 56 35.796875 56 
Q 45.21875 56 50.046875 50.171875 
Q 54.890625 44.34375 54.890625 33.015625 
z
M 32.234375 66.890625 
L 29.4375 69.578125 
Q 28.375 70.5625 27.5625 71.015625 
Q 26.765625 71.484375 26.125 71.484375 
Q 24.265625 71.484375 23.390625 69.703125 
Q 22.515625 67.921875 22.40625 63.921875 
L 16.3125 63.921875 
Q 16.40625 70.515625 18.890625 74.09375 
Q 21.390625 77.6875 25.828125 77.6875 
Q 27.6875 77.6875 29.25 77 
Q 30.8125 76.3125 32.625 74.703125 
L 35.40625 72.015625 
Q 36.46875 71.046875 37.28125 70.578125 
Q 38.09375 70.125 38.71875 70.125 
Q 40.578125 70.125 41.453125 71.90625 
Q 42.328125 73.6875 42.4375 77.6875 
L 48.53125 77.6875 
Q 48.4375 71.09375 45.9375 67.5 
Q 43.453125 63.921875 39.015625 63.921875 
Q 37.15625 63.921875 35.59375 64.59375 
Q 34.03125 65.28125 32.234375 66.890625 
z
" id="DejaVuSans-241"/>
     </defs>
     <g transform="translate(15.198438 290.16775)rotate(-90)scale(0.1 -0.1)">
      <use xlink:href="#DejaVuSans-78"/>
      <use x="74.804688" xlink:href="#DejaVuSans-105"/>
      <use x="102.587891" xlink:href="#DejaVuSans-118"/>
      <use x="161.767578" xlink:href="#DejaVuSans-101"/>
      <use x="223.291016" xlink:href="#DejaVuSans-108"/>
      <use x="251.074219" xlink:href="#DejaVuSans-32"/>
      <use x="282.861328" xlink:href="#DejaVuSans-100"/>
      <use x="346.337891" xlink:href="#DejaVuSans-101"/>
      <use x="407.861328" xlink:href="#DejaVuSans-32"/>
      <use x="439.648438" xlink:href="#DejaVuSans-100"/>
      <use x="503.125" xlink:href="#DejaVuSans-101"/>
      <use x="564.648438" xlink:href="#DejaVuSans-115"/>
      <use x="616.748047" xlink:href="#DejaVuSans-101"/>
      <use x="678.271484" xlink:href="#DejaVuSans-109"/>
      <use x="775.683594" xlink:href="#DejaVuSans-112"/>
      <use x="839.160156" xlink:href="#DejaVuSans-101"/>
      <use x="900.683594" xlink:href="#DejaVuSans-241"/>
      <use x="964.0625" xlink:href="#DejaVuSans-111"/>
      <use x="1025.244141" xlink:href="#DejaVuSans-32"/>
      <use x="1057.03125" xlink:href="#DejaVuSans-101"/>
      <use x="1118.554688" xlink:href="#DejaVuSans-110"/>
      <use x="1181.933594" xlink:href="#DejaVuSans-32"/>
      <use x="1213.720703" xlink:href="#DejaVuSans-109"/>
      <use x="1311.132812" xlink:href="#DejaVuSans-97"/>
      <use x="1372.412109" xlink:href="#DejaVuSans-116"/>
      <use x="1411.621094" xlink:href="#DejaVuSans-101"/>
      <use x="1473.144531" xlink:href="#DejaVuSans-109"/>
      <use x="1570.556641" xlink:href="#DejaVuSans-225"/>
      <use x="1631.835938" xlink:href="#DejaVuSans-116"/>
      <use x="1671.044922" xlink:href="#DejaVuSans-105"/>
      <use x="1698.828125" xlink:href="#DejaVuSans-99"/>
      <use x="1753.808594" xlink:href="#DejaVuSans-97"/>
     </g>
    </g>
   </g>
   <g id="line2d_10">
    <path clip-path="url(#pb4aed6b2e3)" d="M 193.390116 77.1015 
L 371.387691 77.1015 
" style="fill:none;stroke:#4c4c4c;stroke-linecap:square;stroke-width:1.5;"/>
   </g>
   <g id="line2d_11">
    <path clip-path="url(#pb4aed6b2e3)" d="M 216.128838 77.1015 
L 280.629189 77.1015 
" style="fill:none;stroke:#4c4c4c;stroke-linecap:square;stroke-width:4.5;"/>
   </g>
   <g id="line2d_12">
    <path clip-path="url(#pb4aed6b2e3)" d="M 193.390116 158.6415 
L 410.788429 158.6415 
" style="fill:none;stroke:#4c4c4c;stroke-linecap:square;stroke-width:1.5;"/>
   </g>
   <g id="line2d_13">
    <path clip-path="url(#pb4aed6b2e3)" d="M 226.27503 158.6415 
L 301.871039 158.6415 
" style="fill:none;stroke:#4c4c4c;stroke-linecap:square;stroke-width:4.5;"/>
   </g>
   <g id="line2d_14">
    <path clip-path="url(#pb4aed6b2e3)" d="M 193.390116 240.1815 
L 421.243941 240.1815 
" style="fill:none;stroke:#4c4c4c;stroke-linecap:square;stroke-width:1.5;"/>
   </g>
   <g id="line2d_15">
    <path clip-path="url(#pb4aed6b2e3)" d="M 233.153295 240.1815 
L 311.62944 240.1815 
" style="fill:none;stroke:#4c4c4c;stroke-linecap:square;stroke-width:4.5;"/>
   </g>
   <g id="line2d_16">
    <path clip-path="url(#pb4aed6b2e3)" d="M 193.390116 321.7215 
L 421.243941 321.7215 
" style="fill:none;stroke:#4c4c4c;stroke-linecap:square;stroke-width:1.5;"/>
   </g>
   <g id="line2d_17">
    <path clip-path="url(#pb4aed6b2e3)" d="M 240.591881 321.7215 
L 315.499508 321.7215 
" style="fill:none;stroke:#4c4c4c;stroke-linecap:square;stroke-width:4.5;"/>
   </g>
   <g id="patch_3">
    <path d="M 135.303125 362.4915 
L 135.303125 36.3315 
" style="fill:none;stroke:#000000;stroke-linecap:square;stroke-linejoin:miter;stroke-width:0.8;"/>
   </g>
   <g id="patch_4">
    <path d="M 693.303125 362.4915 
L 693.303125 36.3315 
" style="fill:none;stroke:#000000;stroke-linecap:square;stroke-linejoin:miter;stroke-width:0.8;"/>
   </g>
   <g id="patch_5">
    <path d="M 135.303125 362.4915 
L 693.303125 362.4915 
" style="fill:none;stroke:#000000;stroke-linecap:square;stroke-linejoin:miter;stroke-width:0.8;"/>
   </g>
   <g id="patch_6">
    <path d="M 135.303125 36.3315 
L 693.303125 36.3315 
" style="fill:none;stroke:#000000;stroke-linecap:square;stroke-linejoin:miter;stroke-width:0.8;"/>
   </g>
   <g id="PathCollection_1">
    <defs>
     <path d="M 0 1.5 
C 0.397805 1.5 0.77937 1.341951 1.06066 1.06066 
C 1.341951 0.77937 1.5 0.397805 1.5 0 
C 1.5 -0.397805 1.341951 -0.77937 1.06066 -1.06066 
C 0.77937 -1.341951 0.397805 -1.5 0 -1.5 
C -0.397805 -1.5 -0.77937 -1.341951 -1.06066 -1.06066 
C -1.341951 -0.77937 -1.5 -0.397805 -1.5 0 
C -1.5 0.397805 -1.341951 0.77937 -1.06066 1.06066 
C -0.77937 1.341951 -0.397805 1.5 0 1.5 
z
" id="ma83e801bfc" style="stroke:#4c4c4c;"/>
    </defs>
    <g clip-path="url(#pb4aed6b2e3)">
     <use style="fill:#ffffff;stroke:#4c4c4c;" x="240.591881" xlink:href="#ma83e801bfc" y="77.1015"/>
    </g>
   </g>
   <g id="PathCollection_2">
    <g clip-path="url(#pb4aed6b2e3)">
     <use style="fill:#ffffff;stroke:#4c4c4c;" x="249.878283" xlink:href="#ma83e801bfc" y="158.6415"/>
    </g>
   </g>
   <g id="PathCollection_3">
    <g clip-path="url(#pb4aed6b2e3)">
     <use style="fill:#ffffff;stroke:#4c4c4c;" x="276.616384" xlink:href="#ma83e801bfc" y="240.1815"/>
    </g>
   </g>
   <g id="PathCollection_4">
    <g clip-path="url(#pb4aed6b2e3)">
     <use style="fill:#ffffff;stroke:#4c4c4c;" x="285.716977" xlink:href="#ma83e801bfc" y="321.7215"/>
    </g>
   </g>
   <g id="text_12">
    <!-- Distribuci칩n de: Tasa con NBI seg칰n el desempe침o en matem치tica -->
    <defs>
     <path d="M 19.671875 64.796875 
L 19.671875 8.109375 
L 31.59375 8.109375 
Q 46.6875 8.109375 53.6875 14.9375 
Q 60.6875 21.78125 60.6875 36.53125 
Q 60.6875 51.171875 53.6875 57.984375 
Q 46.6875 64.796875 31.59375 64.796875 
z
M 9.8125 72.90625 
L 30.078125 72.90625 
Q 51.265625 72.90625 61.171875 64.09375 
Q 71.09375 55.28125 71.09375 36.53125 
Q 71.09375 17.671875 61.125 8.828125 
Q 51.171875 0 30.078125 0 
L 9.8125 0 
z
" id="DejaVuSans-68"/>
     <path d="M 8.5 21.578125 
L 8.5 54.6875 
L 17.484375 54.6875 
L 17.484375 21.921875 
Q 17.484375 14.15625 20.5 10.265625 
Q 23.53125 6.390625 29.59375 6.390625 
Q 36.859375 6.390625 41.078125 11.03125 
Q 45.3125 15.671875 45.3125 23.6875 
L 45.3125 54.6875 
L 54.296875 54.6875 
L 54.296875 0 
L 45.3125 0 
L 45.3125 8.40625 
Q 42.046875 3.421875 37.71875 1 
Q 33.40625 -1.421875 27.6875 -1.421875 
Q 18.265625 -1.421875 13.375 4.4375 
Q 8.5 10.296875 8.5 21.578125 
z
M 31.109375 56 
z
" id="DejaVuSans-117"/>
     <path d="M 30.609375 48.390625 
Q 23.390625 48.390625 19.1875 42.75 
Q 14.984375 37.109375 14.984375 27.296875 
Q 14.984375 17.484375 19.15625 11.84375 
Q 23.34375 6.203125 30.609375 6.203125 
Q 37.796875 6.203125 41.984375 11.859375 
Q 46.1875 17.53125 46.1875 27.296875 
Q 46.1875 37.015625 41.984375 42.703125 
Q 37.796875 48.390625 30.609375 48.390625 
z
M 30.609375 56 
Q 42.328125 56 49.015625 48.375 
Q 55.71875 40.765625 55.71875 27.296875 
Q 55.71875 13.875 49.015625 6.21875 
Q 42.328125 -1.421875 30.609375 -1.421875 
Q 18.84375 -1.421875 12.171875 6.21875 
Q 5.515625 13.875 5.515625 27.296875 
Q 5.515625 40.765625 12.171875 48.375 
Q 18.84375 56 30.609375 56 
z
M 37.40625 79.984375 
L 47.125 79.984375 
L 31.203125 61.625 
L 23.734375 61.625 
z
" id="DejaVuSans-243"/>
     <path d="M 11.71875 12.40625 
L 22.015625 12.40625 
L 22.015625 0 
L 11.71875 0 
z
M 11.71875 51.703125 
L 22.015625 51.703125 
L 22.015625 39.3125 
L 11.71875 39.3125 
z
" id="DejaVuSans-58"/>
     <path d="M 45.40625 27.984375 
Q 45.40625 37.75 41.375 43.109375 
Q 37.359375 48.484375 30.078125 48.484375 
Q 22.859375 48.484375 18.828125 43.109375 
Q 14.796875 37.75 14.796875 27.984375 
Q 14.796875 18.265625 18.828125 12.890625 
Q 22.859375 7.515625 30.078125 7.515625 
Q 37.359375 7.515625 41.375 12.890625 
Q 45.40625 18.265625 45.40625 27.984375 
z
M 54.390625 6.78125 
Q 54.390625 -7.171875 48.1875 -13.984375 
Q 42 -20.796875 29.203125 -20.796875 
Q 24.46875 -20.796875 20.265625 -20.09375 
Q 16.0625 -19.390625 12.109375 -17.921875 
L 12.109375 -9.1875 
Q 16.0625 -11.328125 19.921875 -12.34375 
Q 23.78125 -13.375 27.78125 -13.375 
Q 36.625 -13.375 41.015625 -8.765625 
Q 45.40625 -4.15625 45.40625 5.171875 
L 45.40625 9.625 
Q 42.625 4.78125 38.28125 2.390625 
Q 33.9375 0 27.875 0 
Q 17.828125 0 11.671875 7.65625 
Q 5.515625 15.328125 5.515625 27.984375 
Q 5.515625 40.671875 11.671875 48.328125 
Q 17.828125 56 27.875 56 
Q 33.9375 56 38.28125 53.609375 
Q 42.625 51.21875 45.40625 46.390625 
L 45.40625 54.6875 
L 54.390625 54.6875 
z
" id="DejaVuSans-103"/>
     <path d="M 8.5 21.578125 
L 8.5 54.6875 
L 17.484375 54.6875 
L 17.484375 21.921875 
Q 17.484375 14.15625 20.5 10.265625 
Q 23.53125 6.390625 29.59375 6.390625 
Q 36.859375 6.390625 41.078125 11.03125 
Q 45.3125 15.671875 45.3125 23.6875 
L 45.3125 54.6875 
L 54.296875 54.6875 
L 54.296875 0 
L 45.3125 0 
L 45.3125 8.40625 
Q 42.046875 3.421875 37.71875 1 
Q 33.40625 -1.421875 27.6875 -1.421875 
Q 18.265625 -1.421875 13.375 4.4375 
Q 8.5 10.296875 8.5 21.578125 
z
M 31.109375 56 
z
M 37.796875 79.984375 
L 47.515625 79.984375 
L 31.59375 61.625 
L 24.125 61.625 
z
" id="DejaVuSans-250"/>
    </defs>
    <g transform="translate(214.08875 16.798125)scale(0.12 -0.12)">
     <use xlink:href="#DejaVuSans-68"/>
     <use x="77.001953" xlink:href="#DejaVuSans-105"/>
     <use x="104.785156" xlink:href="#DejaVuSans-115"/>
     <use x="156.884766" xlink:href="#DejaVuSans-116"/>
     <use x="196.09375" xlink:href="#DejaVuSans-114"/>
     <use x="237.207031" xlink:href="#DejaVuSans-105"/>
     <use x="264.990234" xlink:href="#DejaVuSans-98"/>
     <use x="328.466797" xlink:href="#DejaVuSans-117"/>
     <use x="391.845703" xlink:href="#DejaVuSans-99"/>
     <use x="446.826172" xlink:href="#DejaVuSans-105"/>
     <use x="474.609375" xlink:href="#DejaVuSans-243"/>
     <use x="535.791016" xlink:href="#DejaVuSans-110"/>
     <use x="599.169922" xlink:href="#DejaVuSans-32"/>
     <use x="630.957031" xlink:href="#DejaVuSans-100"/>
     <use x="694.433594" xlink:href="#DejaVuSans-101"/>
     <use x="755.957031" xlink:href="#DejaVuSans-58"/>
     <use x="789.648438" xlink:href="#DejaVuSans-32"/>
     <use x="821.435547" xlink:href="#DejaVuSans-84"/>
     <use x="882.269531" xlink:href="#DejaVuSans-97"/>
     <use x="943.548828" xlink:href="#DejaVuSans-115"/>
     <use x="995.648438" xlink:href="#DejaVuSans-97"/>
     <use x="1056.927734" xlink:href="#DejaVuSans-32"/>
     <use x="1088.714844" xlink:href="#DejaVuSans-99"/>
     <use x="1143.695312" xlink:href="#DejaVuSans-111"/>
     <use x="1204.876953" xlink:href="#DejaVuSans-110"/>
     <use x="1268.255859" xlink:href="#DejaVuSans-32"/>
     <use x="1300.042969" xlink:href="#DejaVuSans-78"/>
     <use x="1374.847656" xlink:href="#DejaVuSans-66"/>
     <use x="1443.451172" xlink:href="#DejaVuSans-73"/>
     <use x="1472.943359" xlink:href="#DejaVuSans-32"/>
     <use x="1504.730469" xlink:href="#DejaVuSans-115"/>
     <use x="1556.830078" xlink:href="#DejaVuSans-101"/>
     <use x="1618.353516" xlink:href="#DejaVuSans-103"/>
     <use x="1681.830078" xlink:href="#DejaVuSans-250"/>
     <use x="1745.208984" xlink:href="#DejaVuSans-110"/>
     <use x="1808.587891" xlink:href="#DejaVuSans-32"/>
     <use x="1840.375" xlink:href="#DejaVuSans-101"/>
     <use x="1901.898438" xlink:href="#DejaVuSans-108"/>
     <use x="1929.681641" xlink:href="#DejaVuSans-32"/>
     <use x="1961.46875" xlink:href="#DejaVuSans-100"/>
     <use x="2024.945312" xlink:href="#DejaVuSans-101"/>
     <use x="2086.46875" xlink:href="#DejaVuSans-115"/>
     <use x="2138.568359" xlink:href="#DejaVuSans-101"/>
     <use x="2200.091797" xlink:href="#DejaVuSans-109"/>
     <use x="2297.503906" xlink:href="#DejaVuSans-112"/>
     <use x="2360.980469" xlink:href="#DejaVuSans-101"/>
     <use x="2422.503906" xlink:href="#DejaVuSans-241"/>
     <use x="2485.882812" xlink:href="#DejaVuSans-111"/>
     <use x="2547.064453" xlink:href="#DejaVuSans-32"/>
     <use x="2578.851562" xlink:href="#DejaVuSans-101"/>
     <use x="2640.375" xlink:href="#DejaVuSans-110"/>
     <use x="2703.753906" xlink:href="#DejaVuSans-32"/>
     <use x="2735.541016" xlink:href="#DejaVuSans-109"/>
     <use x="2832.953125" xlink:href="#DejaVuSans-97"/>
     <use x="2894.232422" xlink:href="#DejaVuSans-116"/>
     <use x="2933.441406" xlink:href="#DejaVuSans-101"/>
     <use x="2994.964844" xlink:href="#DejaVuSans-109"/>
     <use x="3092.376953" xlink:href="#DejaVuSans-225"/>
     <use x="3153.65625" xlink:href="#DejaVuSans-116"/>
     <use x="3192.865234" xlink:href="#DejaVuSans-105"/>
     <use x="3220.648438" xlink:href="#DejaVuSans-99"/>
     <use x="3275.628906" xlink:href="#DejaVuSans-97"/>
    </g>
    <!--  Nivel: Primaria -->
    <g transform="translate(368.320625 30.2355)scale(0.12 -0.12)">
     <use xlink:href="#DejaVuSans-32"/>
     <use x="31.787109" xlink:href="#DejaVuSans-78"/>
     <use x="106.591797" xlink:href="#DejaVuSans-105"/>
     <use x="134.375" xlink:href="#DejaVuSans-118"/>
     <use x="193.554688" xlink:href="#DejaVuSans-101"/>
     <use x="255.078125" xlink:href="#DejaVuSans-108"/>
     <use x="282.861328" xlink:href="#DejaVuSans-58"/>
     <use x="316.552734" xlink:href="#DejaVuSans-32"/>
     <use x="348.339844" xlink:href="#DejaVuSans-80"/>
     <use x="408.626953" xlink:href="#DejaVuSans-114"/>
     <use x="449.740234" xlink:href="#DejaVuSans-105"/>
     <use x="477.523438" xlink:href="#DejaVuSans-109"/>
     <use x="574.935547" xlink:href="#DejaVuSans-97"/>
     <use x="636.214844" xlink:href="#DejaVuSans-114"/>
     <use x="677.328125" xlink:href="#DejaVuSans-105"/>
     <use x="705.111328" xlink:href="#DejaVuSans-97"/>
    </g>
   </g>
  </g>
 </g>
 <defs>
  <clipPath id="pb4aed6b2e3">
   <rect height="326.16" width="558" x="135.303125" y="36.3315"/>
  </clipPath>
 </defs>
</svg>
