<?xml version="1.0" encoding="utf-8" standalone="no"?>
<!DOCTYPE svg PUBLIC "-//W3C//DTD SVG 1.1//EN"
  "http://www.w3.org/Graphics/SVG/1.1/DTD/svg11.dtd">
<!-- Created with matplotlib (https://matplotlib.org/) -->
<svg height="400.04775pt" version="1.1" viewBox="0 0 703.773437 400.04775" width="703.773437pt" xmlns="http://www.w3.org/2000/svg" xmlns:xlink="http://www.w3.org/1999/xlink">
 <defs>
  <style type="text/css">
*{stroke-linecap:butt;stroke-linejoin:round;}
  </style>
 </defs>
 <g id="figure_1">
  <g id="patch_1">
   <path d="M 0 400.04775 
L 703.773437 400.04775 
L 703.773437 0 
L 0 0 
z
" style="fill:#ffffff;"/>
  </g>
  <g id="axes_1">
   <g id="patch_2">
    <path d="M 135.073438 362.4915 
L 693.073437 362.4915 
L 693.073437 36.3315 
L 135.073438 36.3315 
z
" style="fill:#ffffff;"/>
   </g>
   <g id="PolyCollection_1">
    <defs>
     <path d="M 144.928361 -322.705507 
L 144.928361 -323.186993 
L 150.365635 -323.787402 
L 155.80291 -325.21011 
L 161.240184 -327.795477 
L 166.677458 -331.496874 
L 172.114733 -335.768464 
L 177.552007 -339.885178 
L 182.989281 -343.401218 
L 188.426555 -346.045448 
L 193.86383 -347.4451 
L 199.301104 -347.636962 
L 204.738378 -347.434126 
L 210.175652 -347.691462 
L 215.612927 -348.625845 
L 221.050201 -349.923258 
L 226.487475 -351.084527 
L 231.924749 -351.797864 
L 237.362024 -352.113976 
L 242.799298 -352.115755 
L 248.236572 -351.764549 
L 253.673847 -351.294941 
L 259.111121 -351.254792 
L 264.548395 -351.949947 
L 269.985669 -353.082662 
L 275.422944 -353.875997 
L 280.860218 -353.566981 
L 286.297492 -352.114317 
L 291.734766 -350.387653 
L 297.172041 -349.335286 
L 302.609315 -349.042828 
L 308.046589 -348.838142 
L 313.483864 -348.138939 
L 318.921138 -346.920182 
L 324.358412 -345.483966 
L 329.795686 -344.122621 
L 335.232961 -343.071684 
L 340.670235 -342.505583 
L 346.107509 -342.353411 
L 351.544783 -342.226952 
L 356.982058 -341.736792 
L 362.419332 -340.814914 
L 367.856606 -339.655631 
L 373.29388 -338.523308 
L 378.731155 -337.576057 
L 384.168429 -336.733678 
L 389.605703 -335.855355 
L 395.042978 -335.026027 
L 400.480252 -334.465661 
L 405.917526 -334.217224 
L 411.3548 -334.090482 
L 416.792075 -333.832949 
L 422.229349 -333.279723 
L 427.666623 -332.496373 
L 433.103897 -331.773085 
L 438.541172 -331.305618 
L 443.978446 -330.952506 
L 449.41572 -330.443945 
L 454.852995 -329.75926 
L 460.290269 -329.163313 
L 465.727543 -328.871545 
L 471.164817 -328.807443 
L 476.602092 -328.718448 
L 482.039366 -328.432293 
L 487.47664 -327.978096 
L 492.913914 -327.513176 
L 498.351189 -327.173685 
L 503.788463 -327.003343 
L 509.225737 -326.964202 
L 514.663011 -326.937767 
L 520.100286 -326.7677 
L 525.53756 -326.409033 
L 530.974834 -326.004654 
L 536.412109 -325.723618 
L 541.849383 -325.567293 
L 547.286657 -325.427495 
L 552.723931 -325.265482 
L 558.161206 -325.124979 
L 563.59848 -325.033406 
L 569.035754 -324.970794 
L 574.473028 -324.907447 
L 579.910303 -324.840975 
L 585.347577 -324.779686 
L 590.784851 -324.706457 
L 596.222126 -324.607399 
L 601.6594 -324.513318 
L 607.096674 -324.466253 
L 612.533948 -324.469571 
L 617.971223 -324.487324 
L 623.408497 -324.462306 
L 628.845771 -324.345182 
L 634.283045 -324.130805 
L 639.72032 -323.852362 
L 645.157594 -323.556925 
L 650.594868 -323.299628 
L 656.032142 -323.121783 
L 661.469417 -323.024661 
L 666.906691 -322.980429 
L 672.343965 -322.961211 
L 677.78124 -322.952274 
L 683.218514 -322.948228 
L 683.218514 -322.944272 
L 683.218514 -322.944272 
L 677.78124 -322.940226 
L 672.343965 -322.931289 
L 666.906691 -322.912071 
L 661.469417 -322.867839 
L 656.032142 -322.770717 
L 650.594868 -322.592872 
L 645.157594 -322.335575 
L 639.72032 -322.040138 
L 634.283045 -321.761695 
L 628.845771 -321.547318 
L 623.408497 -321.430194 
L 617.971223 -321.405176 
L 612.533948 -321.422929 
L 607.096674 -321.426247 
L 601.6594 -321.379182 
L 596.222126 -321.285101 
L 590.784851 -321.186043 
L 585.347577 -321.112814 
L 579.910303 -321.051525 
L 574.473028 -320.985053 
L 569.035754 -320.921706 
L 563.59848 -320.859094 
L 558.161206 -320.767521 
L 552.723931 -320.627018 
L 547.286657 -320.465005 
L 541.849383 -320.325207 
L 536.412109 -320.168882 
L 530.974834 -319.887846 
L 525.53756 -319.483467 
L 520.100286 -319.1248 
L 514.663011 -318.954733 
L 509.225737 -318.928298 
L 503.788463 -318.889157 
L 498.351189 -318.718815 
L 492.913914 -318.379324 
L 487.47664 -317.914404 
L 482.039366 -317.460207 
L 476.602092 -317.174052 
L 471.164817 -317.085057 
L 465.727543 -317.020955 
L 460.290269 -316.729187 
L 454.852995 -316.13324 
L 449.41572 -315.448555 
L 443.978446 -314.939994 
L 438.541172 -314.586882 
L 433.103897 -314.119415 
L 427.666623 -313.396127 
L 422.229349 -312.612777 
L 416.792075 -312.059551 
L 411.3548 -311.802018 
L 405.917526 -311.675276 
L 400.480252 -311.426839 
L 395.042978 -310.866473 
L 389.605703 -310.037145 
L 384.168429 -309.158822 
L 378.731155 -308.316443 
L 373.29388 -307.369192 
L 367.856606 -306.236869 
L 362.419332 -305.077586 
L 356.982058 -304.155708 
L 351.544783 -303.665548 
L 346.107509 -303.539089 
L 340.670235 -303.386917 
L 335.232961 -302.820816 
L 329.795686 -301.769879 
L 324.358412 -300.408534 
L 318.921138 -298.972318 
L 313.483864 -297.753561 
L 308.046589 -297.054358 
L 302.609315 -296.849672 
L 297.172041 -296.557214 
L 291.734766 -295.504847 
L 286.297492 -293.778183 
L 280.860218 -292.325519 
L 275.422944 -292.016503 
L 269.985669 -292.809838 
L 264.548395 -293.942553 
L 259.111121 -294.637708 
L 253.673847 -294.597559 
L 248.236572 -294.127951 
L 242.799298 -293.776745 
L 237.362024 -293.778524 
L 231.924749 -294.094636 
L 226.487475 -294.807973 
L 221.050201 -295.969242 
L 215.612927 -297.266655 
L 210.175652 -298.201038 
L 204.738378 -298.458374 
L 199.301104 -298.255538 
L 193.86383 -298.4474 
L 188.426555 -299.847052 
L 182.989281 -302.491282 
L 177.552007 -306.007322 
L 172.114733 -310.124036 
L 166.677458 -314.395626 
L 161.240184 -318.097023 
L 155.80291 -320.68239 
L 150.365635 -322.105098 
L 144.928361 -322.705507 
z
" id="m942eee872a" style="stroke:#4c4c4c;stroke-width:1.5;"/>
    </defs>
    <g clip-path="url(#pac6a930f5d)">
     <use style="fill:#df9c20;stroke:#4c4c4c;stroke-width:1.5;" x="0" xlink:href="#m942eee872a" y="400.04775"/>
    </g>
   </g>
   <g id="PolyCollection_2">
    <defs>
     <path d="M 150.899108 -241.287475 
L 150.899108 -241.525025 
L 156.215762 -242.028073 
L 161.532415 -243.386904 
L 166.849068 -245.964387 
L 172.165721 -249.678312 
L 177.482374 -253.076032 
L 182.799027 -255.016571 
L 188.11568 -256.624273 
L 193.432333 -258.176002 
L 198.748986 -259.252442 
L 204.06564 -260.724085 
L 209.382293 -262.322259 
L 214.698946 -263.247652 
L 220.015599 -264.125163 
L 225.332252 -265.759941 
L 230.648905 -266.943466 
L 235.965558 -267.348066 
L 241.282211 -268.010208 
L 246.598864 -268.488389 
L 251.915518 -268.520299 
L 257.232171 -269.03611 
L 262.548824 -270.313819 
L 267.865477 -271.771976 
L 273.18213 -273.243887 
L 278.498783 -274.02225 
L 283.815436 -273.301942 
L 289.132089 -271.463882 
L 294.448742 -270.080174 
L 299.765396 -270.373263 
L 305.082049 -270.770605 
L 310.398702 -269.715011 
L 315.715355 -267.884025 
L 321.032008 -266.657516 
L 326.348661 -266.376713 
L 331.665314 -266.344533 
L 336.981967 -266.460568 
L 342.29862 -266.679335 
L 347.615274 -266.661532 
L 352.931927 -265.600156 
L 358.24858 -263.39445 
L 363.565233 -261.629381 
L 368.881886 -261.076964 
L 374.198539 -261.404923 
L 379.515192 -262.368045 
L 384.831845 -262.689398 
L 390.148498 -260.969657 
L 395.465152 -258.063815 
L 400.781805 -256.239121 
L 406.098458 -255.894148 
L 411.415111 -256.138861 
L 416.731764 -256.609765 
L 422.048417 -256.258519 
L 427.36507 -254.479799 
L 432.681723 -252.456888 
L 437.998377 -250.877887 
L 443.31503 -249.376518 
L 448.631683 -248.337413 
L 453.948336 -247.889857 
L 459.264989 -247.622303 
L 464.581642 -247.429761 
L 469.898295 -247.165853 
L 475.214948 -246.662769 
L 480.531601 -246.296673 
L 485.848255 -246.619542 
L 491.164908 -246.931908 
L 496.481561 -246.123482 
L 501.798214 -244.738811 
L 507.114867 -243.860753 
L 512.43152 -243.604241 
L 517.748173 -243.517334 
L 523.064826 -243.23493 
L 528.381479 -242.852022 
L 533.698133 -242.647246 
L 539.014786 -242.595256 
L 544.331439 -242.587728 
L 549.648092 -242.59589 
L 554.964745 -242.573874 
L 560.281398 -242.481736 
L 565.598051 -242.433048 
L 570.914704 -242.475296 
L 576.231357 -242.48404 
L 581.548011 -242.438025 
L 586.864664 -242.378337 
L 592.181317 -242.304168 
L 597.49797 -242.20647 
L 602.814623 -242.075867 
L 608.131276 -241.949436 
L 613.447929 -241.877574 
L 618.764582 -241.853409 
L 624.081235 -241.825426 
L 629.397889 -241.750299 
L 634.714542 -241.666799 
L 640.031195 -241.597888 
L 645.347848 -241.536962 
L 650.664501 -241.498322 
L 655.981154 -241.475926 
L 661.297807 -241.460111 
L 666.61446 -241.444233 
L 671.931113 -241.424031 
L 677.247767 -241.410731 
L 677.247767 -241.401769 
L 677.247767 -241.401769 
L 671.931113 -241.388469 
L 666.61446 -241.368267 
L 661.297807 -241.352389 
L 655.981154 -241.336574 
L 650.664501 -241.314178 
L 645.347848 -241.275538 
L 640.031195 -241.214612 
L 634.714542 -241.145701 
L 629.397889 -241.062201 
L 624.081235 -240.987074 
L 618.764582 -240.959091 
L 613.447929 -240.934926 
L 608.131276 -240.863064 
L 602.814623 -240.736633 
L 597.49797 -240.60603 
L 592.181317 -240.508332 
L 586.864664 -240.434163 
L 581.548011 -240.374475 
L 576.231357 -240.32846 
L 570.914704 -240.337204 
L 565.598051 -240.379452 
L 560.281398 -240.330764 
L 554.964745 -240.238626 
L 549.648092 -240.21661 
L 544.331439 -240.224772 
L 539.014786 -240.217244 
L 533.698133 -240.165254 
L 528.381479 -239.960478 
L 523.064826 -239.57757 
L 517.748173 -239.295166 
L 512.43152 -239.208259 
L 507.114867 -238.951747 
L 501.798214 -238.073689 
L 496.481561 -236.689018 
L 491.164908 -235.880592 
L 485.848255 -236.192958 
L 480.531601 -236.515827 
L 475.214948 -236.149731 
L 469.898295 -235.646647 
L 464.581642 -235.382739 
L 459.264989 -235.190197 
L 453.948336 -234.922643 
L 448.631683 -234.475087 
L 443.31503 -233.435982 
L 437.998377 -231.934613 
L 432.681723 -230.355612 
L 427.36507 -228.332701 
L 422.048417 -226.553981 
L 416.731764 -226.202735 
L 411.415111 -226.673639 
L 406.098458 -226.918352 
L 400.781805 -226.573379 
L 395.465152 -224.748685 
L 390.148498 -221.842843 
L 384.831845 -220.123102 
L 379.515192 -220.444455 
L 374.198539 -221.407577 
L 368.881886 -221.735536 
L 363.565233 -221.183119 
L 358.24858 -219.41805 
L 352.931927 -217.212344 
L 347.615274 -216.150968 
L 342.29862 -216.133165 
L 336.981967 -216.351932 
L 331.665314 -216.467967 
L 326.348661 -216.435787 
L 321.032008 -216.154984 
L 315.715355 -214.928475 
L 310.398702 -213.097489 
L 305.082049 -212.041895 
L 299.765396 -212.439237 
L 294.448742 -212.732326 
L 289.132089 -211.348618 
L 283.815436 -209.510558 
L 278.498783 -208.79025 
L 273.18213 -209.568613 
L 267.865477 -211.040524 
L 262.548824 -212.498681 
L 257.232171 -213.77639 
L 251.915518 -214.292201 
L 246.598864 -214.324111 
L 241.282211 -214.802292 
L 235.965558 -215.464434 
L 230.648905 -215.869034 
L 225.332252 -217.052559 
L 220.015599 -218.687337 
L 214.698946 -219.564848 
L 209.382293 -220.490241 
L 204.06564 -222.088415 
L 198.748986 -223.560058 
L 193.432333 -224.636498 
L 188.11568 -226.188227 
L 182.799027 -227.795929 
L 177.482374 -229.736468 
L 172.165721 -233.134188 
L 166.849068 -236.848113 
L 161.532415 -239.425596 
L 156.215762 -240.784427 
L 150.899108 -241.287475 
z
" id="m567e45bde4" style="stroke:#4c4c4c;stroke-width:1.5;"/>
    </defs>
    <g clip-path="url(#pac6a930f5d)">
     <use style="fill:#df9c20;stroke:#4c4c4c;stroke-width:1.5;" x="0" xlink:href="#m567e45bde4" y="400.04775"/>
    </g>
   </g>
   <g id="PolyCollection_3">
    <defs>
     <path d="M 149.749255 -159.775754 
L 149.749255 -159.956746 
L 155.089138 -160.314683 
L 160.42902 -161.325866 
L 165.768903 -163.235026 
L 171.108785 -165.65611 
L 176.448668 -167.596857 
L 181.78855 -168.568385 
L 187.128433 -169.234919 
L 192.468315 -170.28713 
L 197.808198 -171.669055 
L 203.14808 -173.143731 
L 208.487963 -174.263273 
L 213.827845 -174.860375 
L 219.167728 -175.752792 
L 224.50761 -177.546194 
L 229.847492 -179.537052 
L 235.187375 -181.110337 
L 240.527257 -182.240735 
L 245.86714 -182.551865 
L 251.207022 -182.510936 
L 256.546905 -183.756526 
L 261.886787 -186.523533 
L 267.22667 -188.922171 
L 272.566552 -189.916757 
L 277.906435 -190.191065 
L 283.246317 -189.878798 
L 288.5862 -188.715379 
L 293.926082 -187.670384 
L 299.265965 -187.860532 
L 304.605847 -188.392869 
L 309.945729 -187.859376 
L 315.285612 -186.941157 
L 320.625494 -187.051642 
L 325.965377 -187.887501 
L 331.305259 -188.273292 
L 336.645142 -188.342583 
L 341.985024 -188.306847 
L 347.324907 -187.868789 
L 352.664789 -186.841575 
L 358.004672 -185.054022 
L 363.344554 -183.486874 
L 368.684437 -183.265828 
L 374.024319 -184.212493 
L 379.364201 -185.634296 
L 384.704084 -186.180302 
L 390.043966 -184.507321 
L 395.383849 -181.507816 
L 400.723731 -179.202717 
L 406.063614 -178.014929 
L 411.403496 -177.562598 
L 416.743379 -177.544775 
L 422.083261 -176.901079 
L 427.423144 -175.082613 
L 432.763026 -173.063884 
L 438.102909 -171.312725 
L 443.442791 -169.600839 
L 448.782674 -168.442816 
L 454.122556 -168.073206 
L 459.462438 -167.96612 
L 464.802321 -167.651994 
L 470.142203 -166.970102 
L 475.482086 -166.165054 
L 480.821968 -165.858694 
L 486.161851 -166.346988 
L 491.501733 -166.70315 
L 496.841616 -165.800659 
L 502.181498 -164.088751 
L 507.521381 -162.747965 
L 512.861263 -162.167364 
L 518.201146 -162.00963 
L 523.541028 -161.876796 
L 528.88091 -161.673746 
L 534.220793 -161.463242 
L 539.560675 -161.297373 
L 544.900558 -161.218926 
L 550.24044 -161.212653 
L 555.580323 -161.208788 
L 560.920205 -161.175401 
L 566.260088 -161.186518 
L 571.59997 -161.26334 
L 576.939853 -161.307873 
L 582.279735 -161.27944 
L 587.619618 -161.182156 
L 592.9595 -161.002969 
L 598.299383 -160.796987 
L 603.639265 -160.642039 
L 608.979147 -160.553278 
L 614.31903 -160.519922 
L 619.658912 -160.510958 
L 624.998795 -160.433259 
L 630.338677 -160.261411 
L 635.67856 -160.111789 
L 641.018442 -160.047345 
L 646.358325 -160.022285 
L 651.698207 -159.994157 
L 657.03809 -159.961294 
L 662.377972 -159.936414 
L 667.717855 -159.913503 
L 673.057737 -159.888361 
L 678.39762 -159.872348 
L 678.39762 -159.860152 
L 678.39762 -159.860152 
L 673.057737 -159.844139 
L 667.717855 -159.818997 
L 662.377972 -159.796086 
L 657.03809 -159.771206 
L 651.698207 -159.738343 
L 646.358325 -159.710215 
L 641.018442 -159.685155 
L 635.67856 -159.620711 
L 630.338677 -159.471089 
L 624.998795 -159.299241 
L 619.658912 -159.221542 
L 614.31903 -159.212578 
L 608.979147 -159.179222 
L 603.639265 -159.090461 
L 598.299383 -158.935513 
L 592.9595 -158.729531 
L 587.619618 -158.550344 
L 582.279735 -158.45306 
L 576.939853 -158.424627 
L 571.59997 -158.46916 
L 566.260088 -158.545982 
L 560.920205 -158.557099 
L 555.580323 -158.523712 
L 550.24044 -158.519847 
L 544.900558 -158.513574 
L 539.560675 -158.435127 
L 534.220793 -158.269258 
L 528.88091 -158.058754 
L 523.541028 -157.855704 
L 518.201146 -157.72287 
L 512.861263 -157.565136 
L 507.521381 -156.984535 
L 502.181498 -155.643749 
L 496.841616 -153.931841 
L 491.501733 -153.02935 
L 486.161851 -153.385512 
L 480.821968 -153.873806 
L 475.482086 -153.567446 
L 470.142203 -152.762398 
L 464.802321 -152.080506 
L 459.462438 -151.76638 
L 454.122556 -151.659294 
L 448.782674 -151.289684 
L 443.442791 -150.131661 
L 438.102909 -148.419775 
L 432.763026 -146.668616 
L 427.423144 -144.649887 
L 422.083261 -142.831421 
L 416.743379 -142.187725 
L 411.403496 -142.169902 
L 406.063614 -141.717571 
L 400.723731 -140.529783 
L 395.383849 -138.224684 
L 390.043966 -135.225179 
L 384.704084 -133.552198 
L 379.364201 -134.098204 
L 374.024319 -135.520007 
L 368.684437 -136.466672 
L 363.344554 -136.245626 
L 358.004672 -134.678478 
L 352.664789 -132.890925 
L 347.324907 -131.863711 
L 341.985024 -131.425653 
L 336.645142 -131.389917 
L 331.305259 -131.459208 
L 325.965377 -131.844999 
L 320.625494 -132.680858 
L 315.285612 -132.791343 
L 309.945729 -131.873124 
L 304.605847 -131.339631 
L 299.265965 -131.871968 
L 293.926082 -132.062116 
L 288.5862 -131.017121 
L 283.246317 -129.853702 
L 277.906435 -129.541435 
L 272.566552 -129.815743 
L 267.22667 -130.810329 
L 261.886787 -133.208967 
L 256.546905 -135.975974 
L 251.207022 -137.221564 
L 245.86714 -137.180635 
L 240.527257 -137.491765 
L 235.187375 -138.622163 
L 229.847492 -140.195448 
L 224.50761 -142.186306 
L 219.167728 -143.979708 
L 213.827845 -144.872125 
L 208.487963 -145.469227 
L 203.14808 -146.588769 
L 197.808198 -148.063445 
L 192.468315 -149.44537 
L 187.128433 -150.497581 
L 181.78855 -151.164115 
L 176.448668 -152.135643 
L 171.108785 -154.07639 
L 165.768903 -156.497474 
L 160.42902 -158.406634 
L 155.089138 -159.417817 
L 149.749255 -159.775754 
z
" id="m97bc91621c" style="stroke:#4c4c4c;stroke-width:1.5;"/>
    </defs>
    <g clip-path="url(#pac6a930f5d)">
     <use style="fill:#df9c20;stroke:#4c4c4c;stroke-width:1.5;" x="0" xlink:href="#m97bc91621c" y="400.04775"/>
    </g>
   </g>
   <g id="PolyCollection_4">
    <defs>
     <path d="M 148.1833 -78.257207 
L 148.1833 -78.395293 
L 153.554818 -78.677273 
L 158.926336 -79.584014 
L 164.297854 -81.496054 
L 169.669371 -83.946689 
L 175.040889 -85.553347 
L 180.412407 -85.721213 
L 185.783925 -85.492858 
L 191.155443 -85.923611 
L 196.526961 -86.907048 
L 201.898479 -88.043947 
L 207.269997 -89.240042 
L 212.641515 -90.485942 
L 218.013033 -92.235068 
L 223.384551 -94.876714 
L 228.756069 -97.413178 
L 234.127587 -98.635068 
L 239.499105 -98.76884 
L 244.870623 -98.557019 
L 250.24214 -98.668455 
L 255.613658 -99.916763 
L 260.985176 -102.262214 
L 266.356694 -104.514921 
L 271.728212 -105.734854 
L 277.09973 -105.965218 
L 282.471248 -105.499119 
L 287.842766 -104.633363 
L 293.214284 -104.397119 
L 298.585802 -105.535832 
L 303.95732 -106.595594 
L 309.328838 -105.939646 
L 314.700356 -104.724951 
L 320.071874 -105.01736 
L 325.443392 -106.789186 
L 330.81491 -108.386409 
L 336.186427 -108.709659 
L 341.557945 -108.015971 
L 346.929463 -107.081751 
L 352.300981 -105.998409 
L 357.672499 -104.375653 
L 363.044017 -102.79241 
L 368.415535 -102.414443 
L 373.787053 -103.331657 
L 379.158571 -104.452071 
L 384.530089 -104.434593 
L 389.901607 -102.892628 
L 395.273125 -100.809092 
L 400.644643 -99.104511 
L 406.016161 -97.841263 
L 411.387679 -97.094474 
L 416.759196 -96.871758 
L 422.130714 -96.416564 
L 427.502232 -95.148966 
L 432.87375 -93.546133 
L 438.245268 -91.966535 
L 443.616786 -90.2151 
L 448.988304 -88.585659 
L 454.359822 -87.563635 
L 459.73134 -87.077122 
L 465.102858 -86.712043 
L 470.474376 -86.153731 
L 475.845894 -85.471615 
L 481.217412 -85.198993 
L 486.58893 -85.707537 
L 491.960448 -86.25091 
L 497.331965 -85.692823 
L 502.703483 -84.155177 
L 508.075001 -82.644964 
L 513.446519 -81.684158 
L 518.818037 -81.183917 
L 524.189555 -80.906277 
L 529.561073 -80.663103 
L 534.932591 -80.413689 
L 540.304109 -80.237754 
L 545.675627 -80.146868 
L 551.047145 -80.066248 
L 556.418663 -80.008886 
L 561.790181 -80.051823 
L 567.161699 -80.160045 
L 572.533217 -80.202885 
L 577.904735 -80.165164 
L 583.276252 -80.143453 
L 588.64777 -80.089464 
L 594.019288 -79.873938 
L 599.390806 -79.566866 
L 604.762324 -79.342922 
L 610.133842 -79.234902 
L 615.50536 -79.178289 
L 620.876878 -79.126961 
L 626.248396 -79.039293 
L 631.619914 -78.915945 
L 636.991432 -78.801747 
L 642.36295 -78.695299 
L 647.734468 -78.580887 
L 653.105986 -78.495181 
L 658.477504 -78.467979 
L 663.849021 -78.461877 
L 669.220539 -78.427948 
L 674.592057 -78.376365 
L 679.963575 -78.341683 
L 679.963575 -78.310817 
L 679.963575 -78.310817 
L 674.592057 -78.276135 
L 669.220539 -78.224552 
L 663.849021 -78.190623 
L 658.477504 -78.184521 
L 653.105986 -78.157319 
L 647.734468 -78.071613 
L 642.36295 -77.957201 
L 636.991432 -77.850753 
L 631.619914 -77.736555 
L 626.248396 -77.613207 
L 620.876878 -77.525539 
L 615.50536 -77.474211 
L 610.133842 -77.417598 
L 604.762324 -77.309578 
L 599.390806 -77.085634 
L 594.019288 -76.778562 
L 588.64777 -76.563036 
L 583.276252 -76.509047 
L 577.904735 -76.487336 
L 572.533217 -76.449615 
L 567.161699 -76.492455 
L 561.790181 -76.600677 
L 556.418663 -76.643614 
L 551.047145 -76.586252 
L 545.675627 -76.505632 
L 540.304109 -76.414746 
L 534.932591 -76.238811 
L 529.561073 -75.989397 
L 524.189555 -75.746223 
L 518.818037 -75.468583 
L 513.446519 -74.968342 
L 508.075001 -74.007536 
L 502.703483 -72.497323 
L 497.331965 -70.959677 
L 491.960448 -70.40159 
L 486.58893 -70.944963 
L 481.217412 -71.453507 
L 475.845894 -71.180885 
L 470.474376 -70.498769 
L 465.102858 -69.940457 
L 459.73134 -69.575378 
L 454.359822 -69.088865 
L 448.988304 -68.066841 
L 443.616786 -66.4374 
L 438.245268 -64.685965 
L 432.87375 -63.106367 
L 427.502232 -61.503534 
L 422.130714 -60.235936 
L 416.759196 -59.780742 
L 411.387679 -59.558026 
L 406.016161 -58.811237 
L 400.644643 -57.547989 
L 395.273125 -55.843408 
L 389.901607 -53.759872 
L 384.530089 -52.217907 
L 379.158571 -52.200429 
L 373.787053 -53.320843 
L 368.415535 -54.238057 
L 363.044017 -53.86009 
L 357.672499 -52.276847 
L 352.300981 -50.654091 
L 346.929463 -49.570749 
L 341.557945 -48.636529 
L 336.186427 -47.942841 
L 330.81491 -48.266091 
L 325.443392 -49.863314 
L 320.071874 -51.63514 
L 314.700356 -51.927549 
L 309.328838 -50.712854 
L 303.95732 -50.056906 
L 298.585802 -51.116668 
L 293.214284 -52.255381 
L 287.842766 -52.019137 
L 282.471248 -51.153381 
L 277.09973 -50.687282 
L 271.728212 -50.917646 
L 266.356694 -52.137579 
L 260.985176 -54.390286 
L 255.613658 -56.735737 
L 250.24214 -57.984045 
L 244.870623 -58.095481 
L 239.499105 -57.88366 
L 234.127587 -58.017432 
L 228.756069 -59.239322 
L 223.384551 -61.775786 
L 218.013033 -64.417432 
L 212.641515 -66.166558 
L 207.269997 -67.412458 
L 201.898479 -68.608553 
L 196.526961 -69.745452 
L 191.155443 -70.728889 
L 185.783925 -71.159642 
L 180.412407 -70.931287 
L 175.040889 -71.099153 
L 169.669371 -72.705811 
L 164.297854 -75.156446 
L 158.926336 -77.068486 
L 153.554818 -77.975227 
L 148.1833 -78.257207 
z
" id="m7f800da691" style="stroke:#4c4c4c;stroke-width:1.5;"/>
    </defs>
    <g clip-path="url(#pac6a930f5d)">
     <use style="fill:#df9c20;stroke:#4c4c4c;stroke-width:1.5;" x="0" xlink:href="#m7f800da691" y="400.04775"/>
    </g>
   </g>
   <g id="matplotlib.axis_1">
    <g id="xtick_1">
     <g id="line2d_1">
      <defs>
       <path d="M 0 0 
L 0 3.5 
" id="m725a62c97b" style="stroke:#000000;stroke-width:0.8;"/>
      </defs>
      <g>
       <use style="stroke:#000000;stroke-width:0.8;" x="147.561739" xlink:href="#m725a62c97b" y="362.4915"/>
      </g>
     </g>
     <g id="text_1">
      <!-- 0.0 -->
      <defs>
       <path d="M 31.78125 66.40625 
Q 24.171875 66.40625 20.328125 58.90625 
Q 16.5 51.421875 16.5 36.375 
Q 16.5 21.390625 20.328125 13.890625 
Q 24.171875 6.390625 31.78125 6.390625 
Q 39.453125 6.390625 43.28125 13.890625 
Q 47.125 21.390625 47.125 36.375 
Q 47.125 51.421875 43.28125 58.90625 
Q 39.453125 66.40625 31.78125 66.40625 
z
M 31.78125 74.21875 
Q 44.046875 74.21875 50.515625 64.515625 
Q 56.984375 54.828125 56.984375 36.375 
Q 56.984375 17.96875 50.515625 8.265625 
Q 44.046875 -1.421875 31.78125 -1.421875 
Q 19.53125 -1.421875 13.0625 8.265625 
Q 6.59375 17.96875 6.59375 36.375 
Q 6.59375 54.828125 13.0625 64.515625 
Q 19.53125 74.21875 31.78125 74.21875 
z
" id="DejaVuSans-48"/>
       <path d="M 10.6875 12.40625 
L 21 12.40625 
L 21 0 
L 10.6875 0 
z
" id="DejaVuSans-46"/>
      </defs>
      <g transform="translate(139.610176 377.089938)scale(0.1 -0.1)">
       <use xlink:href="#DejaVuSans-48"/>
       <use x="63.623047" xlink:href="#DejaVuSans-46"/>
       <use x="95.410156" xlink:href="#DejaVuSans-48"/>
      </g>
     </g>
    </g>
    <g id="xtick_2">
     <g id="line2d_2">
      <g>
       <use style="stroke:#000000;stroke-width:0.8;" x="261.091749" xlink:href="#m725a62c97b" y="362.4915"/>
      </g>
     </g>
     <g id="text_2">
      <!-- 0.2 -->
      <defs>
       <path d="M 19.1875 8.296875 
L 53.609375 8.296875 
L 53.609375 0 
L 7.328125 0 
L 7.328125 8.296875 
Q 12.9375 14.109375 22.625 23.890625 
Q 32.328125 33.6875 34.8125 36.53125 
Q 39.546875 41.84375 41.421875 45.53125 
Q 43.3125 49.21875 43.3125 52.78125 
Q 43.3125 58.59375 39.234375 62.25 
Q 35.15625 65.921875 28.609375 65.921875 
Q 23.96875 65.921875 18.8125 64.3125 
Q 13.671875 62.703125 7.8125 59.421875 
L 7.8125 69.390625 
Q 13.765625 71.78125 18.9375 73 
Q 24.125 74.21875 28.421875 74.21875 
Q 39.75 74.21875 46.484375 68.546875 
Q 53.21875 62.890625 53.21875 53.421875 
Q 53.21875 48.921875 51.53125 44.890625 
Q 49.859375 40.875 45.40625 35.40625 
Q 44.1875 33.984375 37.640625 27.21875 
Q 31.109375 20.453125 19.1875 8.296875 
z
" id="DejaVuSans-50"/>
      </defs>
      <g transform="translate(253.140186 377.089938)scale(0.1 -0.1)">
       <use xlink:href="#DejaVuSans-48"/>
       <use x="63.623047" xlink:href="#DejaVuSans-46"/>
       <use x="95.410156" xlink:href="#DejaVuSans-50"/>
      </g>
     </g>
    </g>
    <g id="xtick_3">
     <g id="line2d_3">
      <g>
       <use style="stroke:#000000;stroke-width:0.8;" x="374.621759" xlink:href="#m725a62c97b" y="362.4915"/>
      </g>
     </g>
     <g id="text_3">
      <!-- 0.4 -->
      <defs>
       <path d="M 37.796875 64.3125 
L 12.890625 25.390625 
L 37.796875 25.390625 
z
M 35.203125 72.90625 
L 47.609375 72.90625 
L 47.609375 25.390625 
L 58.015625 25.390625 
L 58.015625 17.1875 
L 47.609375 17.1875 
L 47.609375 0 
L 37.796875 0 
L 37.796875 17.1875 
L 4.890625 17.1875 
L 4.890625 26.703125 
z
" id="DejaVuSans-52"/>
      </defs>
      <g transform="translate(366.670196 377.089938)scale(0.1 -0.1)">
       <use xlink:href="#DejaVuSans-48"/>
       <use x="63.623047" xlink:href="#DejaVuSans-46"/>
       <use x="95.410156" xlink:href="#DejaVuSans-52"/>
      </g>
     </g>
    </g>
    <g id="xtick_4">
     <g id="line2d_4">
      <g>
       <use style="stroke:#000000;stroke-width:0.8;" x="488.151769" xlink:href="#m725a62c97b" y="362.4915"/>
      </g>
     </g>
     <g id="text_4">
      <!-- 0.6 -->
      <defs>
       <path d="M 33.015625 40.375 
Q 26.375 40.375 22.484375 35.828125 
Q 18.609375 31.296875 18.609375 23.390625 
Q 18.609375 15.53125 22.484375 10.953125 
Q 26.375 6.390625 33.015625 6.390625 
Q 39.65625 6.390625 43.53125 10.953125 
Q 47.40625 15.53125 47.40625 23.390625 
Q 47.40625 31.296875 43.53125 35.828125 
Q 39.65625 40.375 33.015625 40.375 
z
M 52.59375 71.296875 
L 52.59375 62.3125 
Q 48.875 64.0625 45.09375 64.984375 
Q 41.3125 65.921875 37.59375 65.921875 
Q 27.828125 65.921875 22.671875 59.328125 
Q 17.53125 52.734375 16.796875 39.40625 
Q 19.671875 43.65625 24.015625 45.921875 
Q 28.375 48.1875 33.59375 48.1875 
Q 44.578125 48.1875 50.953125 41.515625 
Q 57.328125 34.859375 57.328125 23.390625 
Q 57.328125 12.15625 50.6875 5.359375 
Q 44.046875 -1.421875 33.015625 -1.421875 
Q 20.359375 -1.421875 13.671875 8.265625 
Q 6.984375 17.96875 6.984375 36.375 
Q 6.984375 53.65625 15.1875 63.9375 
Q 23.390625 74.21875 37.203125 74.21875 
Q 40.921875 74.21875 44.703125 73.484375 
Q 48.484375 72.75 52.59375 71.296875 
z
" id="DejaVuSans-54"/>
      </defs>
      <g transform="translate(480.200207 377.089938)scale(0.1 -0.1)">
       <use xlink:href="#DejaVuSans-48"/>
       <use x="63.623047" xlink:href="#DejaVuSans-46"/>
       <use x="95.410156" xlink:href="#DejaVuSans-54"/>
      </g>
     </g>
    </g>
    <g id="xtick_5">
     <g id="line2d_5">
      <g>
       <use style="stroke:#000000;stroke-width:0.8;" x="601.681779" xlink:href="#m725a62c97b" y="362.4915"/>
      </g>
     </g>
     <g id="text_5">
      <!-- 0.8 -->
      <defs>
       <path d="M 31.78125 34.625 
Q 24.75 34.625 20.71875 30.859375 
Q 16.703125 27.09375 16.703125 20.515625 
Q 16.703125 13.921875 20.71875 10.15625 
Q 24.75 6.390625 31.78125 6.390625 
Q 38.8125 6.390625 42.859375 10.171875 
Q 46.921875 13.96875 46.921875 20.515625 
Q 46.921875 27.09375 42.890625 30.859375 
Q 38.875 34.625 31.78125 34.625 
z
M 21.921875 38.8125 
Q 15.578125 40.375 12.03125 44.71875 
Q 8.5 49.078125 8.5 55.328125 
Q 8.5 64.0625 14.71875 69.140625 
Q 20.953125 74.21875 31.78125 74.21875 
Q 42.671875 74.21875 48.875 69.140625 
Q 55.078125 64.0625 55.078125 55.328125 
Q 55.078125 49.078125 51.53125 44.71875 
Q 48 40.375 41.703125 38.8125 
Q 48.828125 37.15625 52.796875 32.3125 
Q 56.78125 27.484375 56.78125 20.515625 
Q 56.78125 9.90625 50.3125 4.234375 
Q 43.84375 -1.421875 31.78125 -1.421875 
Q 19.734375 -1.421875 13.25 4.234375 
Q 6.78125 9.90625 6.78125 20.515625 
Q 6.78125 27.484375 10.78125 32.3125 
Q 14.796875 37.15625 21.921875 38.8125 
z
M 18.3125 54.390625 
Q 18.3125 48.734375 21.84375 45.5625 
Q 25.390625 42.390625 31.78125 42.390625 
Q 38.140625 42.390625 41.71875 45.5625 
Q 45.3125 48.734375 45.3125 54.390625 
Q 45.3125 60.0625 41.71875 63.234375 
Q 38.140625 66.40625 31.78125 66.40625 
Q 25.390625 66.40625 21.84375 63.234375 
Q 18.3125 60.0625 18.3125 54.390625 
z
" id="DejaVuSans-56"/>
      </defs>
      <g transform="translate(593.730217 377.089938)scale(0.1 -0.1)">
       <use xlink:href="#DejaVuSans-48"/>
       <use x="63.623047" xlink:href="#DejaVuSans-46"/>
       <use x="95.410156" xlink:href="#DejaVuSans-56"/>
      </g>
     </g>
    </g>
    <g id="text_6">
     <!-- ICSE -->
     <defs>
      <path d="M 9.8125 72.90625 
L 19.671875 72.90625 
L 19.671875 0 
L 9.8125 0 
z
" id="DejaVuSans-73"/>
      <path d="M 64.40625 67.28125 
L 64.40625 56.890625 
Q 59.421875 61.53125 53.78125 63.8125 
Q 48.140625 66.109375 41.796875 66.109375 
Q 29.296875 66.109375 22.65625 58.46875 
Q 16.015625 50.828125 16.015625 36.375 
Q 16.015625 21.96875 22.65625 14.328125 
Q 29.296875 6.6875 41.796875 6.6875 
Q 48.140625 6.6875 53.78125 8.984375 
Q 59.421875 11.28125 64.40625 15.921875 
L 64.40625 5.609375 
Q 59.234375 2.09375 53.4375 0.328125 
Q 47.65625 -1.421875 41.21875 -1.421875 
Q 24.65625 -1.421875 15.125 8.703125 
Q 5.609375 18.84375 5.609375 36.375 
Q 5.609375 53.953125 15.125 64.078125 
Q 24.65625 74.21875 41.21875 74.21875 
Q 47.75 74.21875 53.53125 72.484375 
Q 59.328125 70.75 64.40625 67.28125 
z
" id="DejaVuSans-67"/>
      <path d="M 53.515625 70.515625 
L 53.515625 60.890625 
Q 47.90625 63.578125 42.921875 64.890625 
Q 37.9375 66.21875 33.296875 66.21875 
Q 25.25 66.21875 20.875 63.09375 
Q 16.5 59.96875 16.5 54.203125 
Q 16.5 49.359375 19.40625 46.890625 
Q 22.3125 44.4375 30.421875 42.921875 
L 36.375 41.703125 
Q 47.40625 39.59375 52.65625 34.296875 
Q 57.90625 29 57.90625 20.125 
Q 57.90625 9.515625 50.796875 4.046875 
Q 43.703125 -1.421875 29.984375 -1.421875 
Q 24.8125 -1.421875 18.96875 -0.25 
Q 13.140625 0.921875 6.890625 3.21875 
L 6.890625 13.375 
Q 12.890625 10.015625 18.65625 8.296875 
Q 24.421875 6.59375 29.984375 6.59375 
Q 38.421875 6.59375 43.015625 9.90625 
Q 47.609375 13.234375 47.609375 19.390625 
Q 47.609375 24.75 44.3125 27.78125 
Q 41.015625 30.8125 33.5 32.328125 
L 27.484375 33.5 
Q 16.453125 35.6875 11.515625 40.375 
Q 6.59375 45.0625 6.59375 53.421875 
Q 6.59375 63.09375 13.40625 68.65625 
Q 20.21875 74.21875 32.171875 74.21875 
Q 37.3125 74.21875 42.625 73.28125 
Q 47.953125 72.359375 53.515625 70.515625 
z
" id="DejaVuSans-83"/>
      <path d="M 9.8125 72.90625 
L 55.90625 72.90625 
L 55.90625 64.59375 
L 19.671875 64.59375 
L 19.671875 43.015625 
L 54.390625 43.015625 
L 54.390625 34.71875 
L 19.671875 34.71875 
L 19.671875 8.296875 
L 56.78125 8.296875 
L 56.78125 0 
L 9.8125 0 
z
" id="DejaVuSans-69"/>
     </defs>
     <g transform="translate(402.773438 390.768062)scale(0.1 -0.1)">
      <use xlink:href="#DejaVuSans-73"/>
      <use x="29.492188" xlink:href="#DejaVuSans-67"/>
      <use x="99.316406" xlink:href="#DejaVuSans-83"/>
      <use x="162.792969" xlink:href="#DejaVuSans-69"/>
     </g>
    </g>
   </g>
   <g id="matplotlib.axis_2">
    <g id="ytick_1">
     <g id="line2d_6">
      <defs>
       <path d="M 0 0 
L -3.5 0 
" id="mb315d43170" style="stroke:#000000;stroke-width:0.8;"/>
      </defs>
      <g>
       <use style="stroke:#000000;stroke-width:0.8;" x="135.073438" xlink:href="#mb315d43170" y="77.1015"/>
      </g>
     </g>
     <g id="text_7">
      <!-- Avanzado -->
      <defs>
       <path d="M 34.1875 63.1875 
L 20.796875 26.90625 
L 47.609375 26.90625 
z
M 28.609375 72.90625 
L 39.796875 72.90625 
L 67.578125 0 
L 57.328125 0 
L 50.6875 18.703125 
L 17.828125 18.703125 
L 11.1875 0 
L 0.78125 0 
z
" id="DejaVuSans-65"/>
       <path d="M 2.984375 54.6875 
L 12.5 54.6875 
L 29.59375 8.796875 
L 46.6875 54.6875 
L 56.203125 54.6875 
L 35.6875 0 
L 23.484375 0 
z
" id="DejaVuSans-118"/>
       <path d="M 34.28125 27.484375 
Q 23.390625 27.484375 19.1875 25 
Q 14.984375 22.515625 14.984375 16.5 
Q 14.984375 11.71875 18.140625 8.90625 
Q 21.296875 6.109375 26.703125 6.109375 
Q 34.1875 6.109375 38.703125 11.40625 
Q 43.21875 16.703125 43.21875 25.484375 
L 43.21875 27.484375 
z
M 52.203125 31.203125 
L 52.203125 0 
L 43.21875 0 
L 43.21875 8.296875 
Q 40.140625 3.328125 35.546875 0.953125 
Q 30.953125 -1.421875 24.3125 -1.421875 
Q 15.921875 -1.421875 10.953125 3.296875 
Q 6 8.015625 6 15.921875 
Q 6 25.140625 12.171875 29.828125 
Q 18.359375 34.515625 30.609375 34.515625 
L 43.21875 34.515625 
L 43.21875 35.40625 
Q 43.21875 41.609375 39.140625 45 
Q 35.0625 48.390625 27.6875 48.390625 
Q 23 48.390625 18.546875 47.265625 
Q 14.109375 46.140625 10.015625 43.890625 
L 10.015625 52.203125 
Q 14.9375 54.109375 19.578125 55.046875 
Q 24.21875 56 28.609375 56 
Q 40.484375 56 46.34375 49.84375 
Q 52.203125 43.703125 52.203125 31.203125 
z
" id="DejaVuSans-97"/>
       <path d="M 54.890625 33.015625 
L 54.890625 0 
L 45.90625 0 
L 45.90625 32.71875 
Q 45.90625 40.484375 42.875 44.328125 
Q 39.84375 48.1875 33.796875 48.1875 
Q 26.515625 48.1875 22.3125 43.546875 
Q 18.109375 38.921875 18.109375 30.90625 
L 18.109375 0 
L 9.078125 0 
L 9.078125 54.6875 
L 18.109375 54.6875 
L 18.109375 46.1875 
Q 21.34375 51.125 25.703125 53.5625 
Q 30.078125 56 35.796875 56 
Q 45.21875 56 50.046875 50.171875 
Q 54.890625 44.34375 54.890625 33.015625 
z
" id="DejaVuSans-110"/>
       <path d="M 5.515625 54.6875 
L 48.1875 54.6875 
L 48.1875 46.484375 
L 14.40625 7.171875 
L 48.1875 7.171875 
L 48.1875 0 
L 4.296875 0 
L 4.296875 8.203125 
L 38.09375 47.515625 
L 5.515625 47.515625 
z
" id="DejaVuSans-122"/>
       <path d="M 45.40625 46.390625 
L 45.40625 75.984375 
L 54.390625 75.984375 
L 54.390625 0 
L 45.40625 0 
L 45.40625 8.203125 
Q 42.578125 3.328125 38.25 0.953125 
Q 33.9375 -1.421875 27.875 -1.421875 
Q 17.96875 -1.421875 11.734375 6.484375 
Q 5.515625 14.40625 5.515625 27.296875 
Q 5.515625 40.1875 11.734375 48.09375 
Q 17.96875 56 27.875 56 
Q 33.9375 56 38.25 53.625 
Q 42.578125 51.265625 45.40625 46.390625 
z
M 14.796875 27.296875 
Q 14.796875 17.390625 18.875 11.75 
Q 22.953125 6.109375 30.078125 6.109375 
Q 37.203125 6.109375 41.296875 11.75 
Q 45.40625 17.390625 45.40625 27.296875 
Q 45.40625 37.203125 41.296875 42.84375 
Q 37.203125 48.484375 30.078125 48.484375 
Q 22.953125 48.484375 18.875 42.84375 
Q 14.796875 37.203125 14.796875 27.296875 
z
" id="DejaVuSans-100"/>
       <path d="M 30.609375 48.390625 
Q 23.390625 48.390625 19.1875 42.75 
Q 14.984375 37.109375 14.984375 27.296875 
Q 14.984375 17.484375 19.15625 11.84375 
Q 23.34375 6.203125 30.609375 6.203125 
Q 37.796875 6.203125 41.984375 11.859375 
Q 46.1875 17.53125 46.1875 27.296875 
Q 46.1875 37.015625 41.984375 42.703125 
Q 37.796875 48.390625 30.609375 48.390625 
z
M 30.609375 56 
Q 42.328125 56 49.015625 48.375 
Q 55.71875 40.765625 55.71875 27.296875 
Q 55.71875 13.875 49.015625 6.21875 
Q 42.328125 -1.421875 30.609375 -1.421875 
Q 18.84375 -1.421875 12.171875 6.21875 
Q 5.515625 13.875 5.515625 27.296875 
Q 5.515625 40.765625 12.171875 48.375 
Q 18.84375 56 30.609375 56 
z
" id="DejaVuSans-111"/>
      </defs>
      <g transform="translate(79.0125 80.900719)scale(0.1 -0.1)">
       <use xlink:href="#DejaVuSans-65"/>
       <use x="68.330078" xlink:href="#DejaVuSans-118"/>
       <use x="127.509766" xlink:href="#DejaVuSans-97"/>
       <use x="188.789062" xlink:href="#DejaVuSans-110"/>
       <use x="252.167969" xlink:href="#DejaVuSans-122"/>
       <use x="304.658203" xlink:href="#DejaVuSans-97"/>
       <use x="365.9375" xlink:href="#DejaVuSans-100"/>
       <use x="429.414062" xlink:href="#DejaVuSans-111"/>
      </g>
     </g>
    </g>
    <g id="ytick_2">
     <g id="line2d_7">
      <g>
       <use style="stroke:#000000;stroke-width:0.8;" x="135.073438" xlink:href="#mb315d43170" y="158.6415"/>
      </g>
     </g>
     <g id="text_8">
      <!-- Satisfactorio -->
      <defs>
       <path d="M 18.3125 70.21875 
L 18.3125 54.6875 
L 36.8125 54.6875 
L 36.8125 47.703125 
L 18.3125 47.703125 
L 18.3125 18.015625 
Q 18.3125 11.328125 20.140625 9.421875 
Q 21.96875 7.515625 27.59375 7.515625 
L 36.8125 7.515625 
L 36.8125 0 
L 27.59375 0 
Q 17.1875 0 13.234375 3.875 
Q 9.28125 7.765625 9.28125 18.015625 
L 9.28125 47.703125 
L 2.6875 47.703125 
L 2.6875 54.6875 
L 9.28125 54.6875 
L 9.28125 70.21875 
z
" id="DejaVuSans-116"/>
       <path d="M 9.421875 54.6875 
L 18.40625 54.6875 
L 18.40625 0 
L 9.421875 0 
z
M 9.421875 75.984375 
L 18.40625 75.984375 
L 18.40625 64.59375 
L 9.421875 64.59375 
z
" id="DejaVuSans-105"/>
       <path d="M 44.28125 53.078125 
L 44.28125 44.578125 
Q 40.484375 46.53125 36.375 47.5 
Q 32.28125 48.484375 27.875 48.484375 
Q 21.1875 48.484375 17.84375 46.4375 
Q 14.5 44.390625 14.5 40.28125 
Q 14.5 37.15625 16.890625 35.375 
Q 19.28125 33.59375 26.515625 31.984375 
L 29.59375 31.296875 
Q 39.15625 29.25 43.1875 25.515625 
Q 47.21875 21.78125 47.21875 15.09375 
Q 47.21875 7.46875 41.1875 3.015625 
Q 35.15625 -1.421875 24.609375 -1.421875 
Q 20.21875 -1.421875 15.453125 -0.5625 
Q 10.6875 0.296875 5.421875 2 
L 5.421875 11.28125 
Q 10.40625 8.6875 15.234375 7.390625 
Q 20.0625 6.109375 24.8125 6.109375 
Q 31.15625 6.109375 34.5625 8.28125 
Q 37.984375 10.453125 37.984375 14.40625 
Q 37.984375 18.0625 35.515625 20.015625 
Q 33.0625 21.96875 24.703125 23.78125 
L 21.578125 24.515625 
Q 13.234375 26.265625 9.515625 29.90625 
Q 5.8125 33.546875 5.8125 39.890625 
Q 5.8125 47.609375 11.28125 51.796875 
Q 16.75 56 26.8125 56 
Q 31.78125 56 36.171875 55.265625 
Q 40.578125 54.546875 44.28125 53.078125 
z
" id="DejaVuSans-115"/>
       <path d="M 37.109375 75.984375 
L 37.109375 68.5 
L 28.515625 68.5 
Q 23.6875 68.5 21.796875 66.546875 
Q 19.921875 64.59375 19.921875 59.515625 
L 19.921875 54.6875 
L 34.71875 54.6875 
L 34.71875 47.703125 
L 19.921875 47.703125 
L 19.921875 0 
L 10.890625 0 
L 10.890625 47.703125 
L 2.296875 47.703125 
L 2.296875 54.6875 
L 10.890625 54.6875 
L 10.890625 58.5 
Q 10.890625 67.625 15.140625 71.796875 
Q 19.390625 75.984375 28.609375 75.984375 
z
" id="DejaVuSans-102"/>
       <path d="M 48.78125 52.59375 
L 48.78125 44.1875 
Q 44.96875 46.296875 41.140625 47.34375 
Q 37.3125 48.390625 33.40625 48.390625 
Q 24.65625 48.390625 19.8125 42.84375 
Q 14.984375 37.3125 14.984375 27.296875 
Q 14.984375 17.28125 19.8125 11.734375 
Q 24.65625 6.203125 33.40625 6.203125 
Q 37.3125 6.203125 41.140625 7.25 
Q 44.96875 8.296875 48.78125 10.40625 
L 48.78125 2.09375 
Q 45.015625 0.34375 40.984375 -0.53125 
Q 36.96875 -1.421875 32.421875 -1.421875 
Q 20.0625 -1.421875 12.78125 6.34375 
Q 5.515625 14.109375 5.515625 27.296875 
Q 5.515625 40.671875 12.859375 48.328125 
Q 20.21875 56 33.015625 56 
Q 37.15625 56 41.109375 55.140625 
Q 45.0625 54.296875 48.78125 52.59375 
z
" id="DejaVuSans-99"/>
       <path d="M 41.109375 46.296875 
Q 39.59375 47.171875 37.8125 47.578125 
Q 36.03125 48 33.890625 48 
Q 26.265625 48 22.1875 43.046875 
Q 18.109375 38.09375 18.109375 28.8125 
L 18.109375 0 
L 9.078125 0 
L 9.078125 54.6875 
L 18.109375 54.6875 
L 18.109375 46.1875 
Q 20.953125 51.171875 25.484375 53.578125 
Q 30.03125 56 36.53125 56 
Q 37.453125 56 38.578125 55.875 
Q 39.703125 55.765625 41.0625 55.515625 
z
" id="DejaVuSans-114"/>
      </defs>
      <g transform="translate(65.495313 162.440719)scale(0.1 -0.1)">
       <use xlink:href="#DejaVuSans-83"/>
       <use x="63.476562" xlink:href="#DejaVuSans-97"/>
       <use x="124.755859" xlink:href="#DejaVuSans-116"/>
       <use x="163.964844" xlink:href="#DejaVuSans-105"/>
       <use x="191.748047" xlink:href="#DejaVuSans-115"/>
       <use x="243.847656" xlink:href="#DejaVuSans-102"/>
       <use x="279.052734" xlink:href="#DejaVuSans-97"/>
       <use x="340.332031" xlink:href="#DejaVuSans-99"/>
       <use x="395.3125" xlink:href="#DejaVuSans-116"/>
       <use x="434.521484" xlink:href="#DejaVuSans-111"/>
       <use x="495.703125" xlink:href="#DejaVuSans-114"/>
       <use x="536.816406" xlink:href="#DejaVuSans-105"/>
       <use x="564.599609" xlink:href="#DejaVuSans-111"/>
      </g>
     </g>
    </g>
    <g id="ytick_3">
     <g id="line2d_8">
      <g>
       <use style="stroke:#000000;stroke-width:0.8;" x="135.073438" xlink:href="#mb315d43170" y="240.1815"/>
      </g>
     </g>
     <g id="text_9">
      <!-- Básico -->
      <defs>
       <path d="M 19.671875 34.8125 
L 19.671875 8.109375 
L 35.5 8.109375 
Q 43.453125 8.109375 47.28125 11.40625 
Q 51.125 14.703125 51.125 21.484375 
Q 51.125 28.328125 47.28125 31.5625 
Q 43.453125 34.8125 35.5 34.8125 
z
M 19.671875 64.796875 
L 19.671875 42.828125 
L 34.28125 42.828125 
Q 41.5 42.828125 45.03125 45.53125 
Q 48.578125 48.25 48.578125 53.8125 
Q 48.578125 59.328125 45.03125 62.0625 
Q 41.5 64.796875 34.28125 64.796875 
z
M 9.8125 72.90625 
L 35.015625 72.90625 
Q 46.296875 72.90625 52.390625 68.21875 
Q 58.5 63.53125 58.5 54.890625 
Q 58.5 48.1875 55.375 44.234375 
Q 52.25 40.28125 46.1875 39.3125 
Q 53.46875 37.75 57.5 32.78125 
Q 61.53125 27.828125 61.53125 20.40625 
Q 61.53125 10.640625 54.890625 5.3125 
Q 48.25 0 35.984375 0 
L 9.8125 0 
z
" id="DejaVuSans-66"/>
       <path d="M 34.28125 27.484375 
Q 23.390625 27.484375 19.1875 25 
Q 14.984375 22.515625 14.984375 16.5 
Q 14.984375 11.71875 18.140625 8.90625 
Q 21.296875 6.109375 26.703125 6.109375 
Q 34.1875 6.109375 38.703125 11.40625 
Q 43.21875 16.703125 43.21875 25.484375 
L 43.21875 27.484375 
z
M 52.203125 31.203125 
L 52.203125 0 
L 43.21875 0 
L 43.21875 8.296875 
Q 40.140625 3.328125 35.546875 0.953125 
Q 30.953125 -1.421875 24.3125 -1.421875 
Q 15.921875 -1.421875 10.953125 3.296875 
Q 6 8.015625 6 15.921875 
Q 6 25.140625 12.171875 29.828125 
Q 18.359375 34.515625 30.609375 34.515625 
L 43.21875 34.515625 
L 43.21875 35.40625 
Q 43.21875 41.609375 39.140625 45 
Q 35.0625 48.390625 27.6875 48.390625 
Q 23 48.390625 18.546875 47.265625 
Q 14.109375 46.140625 10.015625 43.890625 
L 10.015625 52.203125 
Q 14.9375 54.109375 19.578125 55.046875 
Q 24.21875 56 28.609375 56 
Q 40.484375 56 46.34375 49.84375 
Q 52.203125 43.703125 52.203125 31.203125 
z
M 35.796875 79.984375 
L 45.515625 79.984375 
L 29.59375 61.625 
L 22.125 61.625 
z
" id="DejaVuSans-225"/>
      </defs>
      <g transform="translate(95.479688 243.980719)scale(0.1 -0.1)">
       <use xlink:href="#DejaVuSans-66"/>
       <use x="68.603516" xlink:href="#DejaVuSans-225"/>
       <use x="129.882812" xlink:href="#DejaVuSans-115"/>
       <use x="181.982422" xlink:href="#DejaVuSans-105"/>
       <use x="209.765625" xlink:href="#DejaVuSans-99"/>
       <use x="264.746094" xlink:href="#DejaVuSans-111"/>
      </g>
     </g>
    </g>
    <g id="ytick_4">
     <g id="line2d_9">
      <g>
       <use style="stroke:#000000;stroke-width:0.8;" x="135.073438" xlink:href="#mb315d43170" y="321.7215"/>
      </g>
     </g>
     <g id="text_10">
      <!-- Por debajo del básico -->
      <defs>
       <path d="M 19.671875 64.796875 
L 19.671875 37.40625 
L 32.078125 37.40625 
Q 38.96875 37.40625 42.71875 40.96875 
Q 46.484375 44.53125 46.484375 51.125 
Q 46.484375 57.671875 42.71875 61.234375 
Q 38.96875 64.796875 32.078125 64.796875 
z
M 9.8125 72.90625 
L 32.078125 72.90625 
Q 44.34375 72.90625 50.609375 67.359375 
Q 56.890625 61.8125 56.890625 51.125 
Q 56.890625 40.328125 50.609375 34.8125 
Q 44.34375 29.296875 32.078125 29.296875 
L 19.671875 29.296875 
L 19.671875 0 
L 9.8125 0 
z
" id="DejaVuSans-80"/>
       <path id="DejaVuSans-32"/>
       <path d="M 56.203125 29.59375 
L 56.203125 25.203125 
L 14.890625 25.203125 
Q 15.484375 15.921875 20.484375 11.0625 
Q 25.484375 6.203125 34.421875 6.203125 
Q 39.59375 6.203125 44.453125 7.46875 
Q 49.3125 8.734375 54.109375 11.28125 
L 54.109375 2.78125 
Q 49.265625 0.734375 44.1875 -0.34375 
Q 39.109375 -1.421875 33.890625 -1.421875 
Q 20.796875 -1.421875 13.15625 6.1875 
Q 5.515625 13.8125 5.515625 26.8125 
Q 5.515625 40.234375 12.765625 48.109375 
Q 20.015625 56 32.328125 56 
Q 43.359375 56 49.78125 48.890625 
Q 56.203125 41.796875 56.203125 29.59375 
z
M 47.21875 32.234375 
Q 47.125 39.59375 43.09375 43.984375 
Q 39.0625 48.390625 32.421875 48.390625 
Q 24.90625 48.390625 20.390625 44.140625 
Q 15.875 39.890625 15.1875 32.171875 
z
" id="DejaVuSans-101"/>
       <path d="M 48.6875 27.296875 
Q 48.6875 37.203125 44.609375 42.84375 
Q 40.53125 48.484375 33.40625 48.484375 
Q 26.265625 48.484375 22.1875 42.84375 
Q 18.109375 37.203125 18.109375 27.296875 
Q 18.109375 17.390625 22.1875 11.75 
Q 26.265625 6.109375 33.40625 6.109375 
Q 40.53125 6.109375 44.609375 11.75 
Q 48.6875 17.390625 48.6875 27.296875 
z
M 18.109375 46.390625 
Q 20.953125 51.265625 25.265625 53.625 
Q 29.59375 56 35.59375 56 
Q 45.5625 56 51.78125 48.09375 
Q 58.015625 40.1875 58.015625 27.296875 
Q 58.015625 14.40625 51.78125 6.484375 
Q 45.5625 -1.421875 35.59375 -1.421875 
Q 29.59375 -1.421875 25.265625 0.953125 
Q 20.953125 3.328125 18.109375 8.203125 
L 18.109375 0 
L 9.078125 0 
L 9.078125 75.984375 
L 18.109375 75.984375 
z
" id="DejaVuSans-98"/>
       <path d="M 9.421875 54.6875 
L 18.40625 54.6875 
L 18.40625 -0.984375 
Q 18.40625 -11.421875 14.421875 -16.109375 
Q 10.453125 -20.796875 1.609375 -20.796875 
L -1.8125 -20.796875 
L -1.8125 -13.1875 
L 0.59375 -13.1875 
Q 5.71875 -13.1875 7.5625 -10.8125 
Q 9.421875 -8.453125 9.421875 -0.984375 
z
M 9.421875 75.984375 
L 18.40625 75.984375 
L 18.40625 64.59375 
L 9.421875 64.59375 
z
" id="DejaVuSans-106"/>
       <path d="M 9.421875 75.984375 
L 18.40625 75.984375 
L 18.40625 0 
L 9.421875 0 
z
" id="DejaVuSans-108"/>
      </defs>
      <g transform="translate(21.048438 325.720719)scale(0.1 -0.1)">
       <use xlink:href="#DejaVuSans-80"/>
       <use x="60.255859" xlink:href="#DejaVuSans-111"/>
       <use x="121.4375" xlink:href="#DejaVuSans-114"/>
       <use x="162.550781" xlink:href="#DejaVuSans-32"/>
       <use x="194.337891" xlink:href="#DejaVuSans-100"/>
       <use x="257.814453" xlink:href="#DejaVuSans-101"/>
       <use x="319.337891" xlink:href="#DejaVuSans-98"/>
       <use x="382.814453" xlink:href="#DejaVuSans-97"/>
       <use x="444.09375" xlink:href="#DejaVuSans-106"/>
       <use x="471.876953" xlink:href="#DejaVuSans-111"/>
       <use x="533.058594" xlink:href="#DejaVuSans-32"/>
       <use x="564.845703" xlink:href="#DejaVuSans-100"/>
       <use x="628.322266" xlink:href="#DejaVuSans-101"/>
       <use x="689.845703" xlink:href="#DejaVuSans-108"/>
       <use x="717.628906" xlink:href="#DejaVuSans-32"/>
       <use x="749.416016" xlink:href="#DejaVuSans-98"/>
       <use x="812.892578" xlink:href="#DejaVuSans-225"/>
       <use x="874.171875" xlink:href="#DejaVuSans-115"/>
       <use x="926.271484" xlink:href="#DejaVuSans-105"/>
       <use x="954.054688" xlink:href="#DejaVuSans-99"/>
       <use x="1009.035156" xlink:href="#DejaVuSans-111"/>
      </g>
     </g>
    </g>
    <g id="text_11">
     <!-- Nivel de desempeño en sociales -->
     <defs>
      <path d="M 9.8125 72.90625 
L 23.09375 72.90625 
L 55.421875 11.921875 
L 55.421875 72.90625 
L 64.984375 72.90625 
L 64.984375 0 
L 51.703125 0 
L 19.390625 60.984375 
L 19.390625 0 
L 9.8125 0 
z
" id="DejaVuSans-78"/>
      <path d="M 52 44.1875 
Q 55.375 50.25 60.0625 53.125 
Q 64.75 56 71.09375 56 
Q 79.640625 56 84.28125 50.015625 
Q 88.921875 44.046875 88.921875 33.015625 
L 88.921875 0 
L 79.890625 0 
L 79.890625 32.71875 
Q 79.890625 40.578125 77.09375 44.375 
Q 74.3125 48.1875 68.609375 48.1875 
Q 61.625 48.1875 57.5625 43.546875 
Q 53.515625 38.921875 53.515625 30.90625 
L 53.515625 0 
L 44.484375 0 
L 44.484375 32.71875 
Q 44.484375 40.625 41.703125 44.40625 
Q 38.921875 48.1875 33.109375 48.1875 
Q 26.21875 48.1875 22.15625 43.53125 
Q 18.109375 38.875 18.109375 30.90625 
L 18.109375 0 
L 9.078125 0 
L 9.078125 54.6875 
L 18.109375 54.6875 
L 18.109375 46.1875 
Q 21.1875 51.21875 25.484375 53.609375 
Q 29.78125 56 35.6875 56 
Q 41.65625 56 45.828125 52.96875 
Q 50 49.953125 52 44.1875 
z
" id="DejaVuSans-109"/>
      <path d="M 18.109375 8.203125 
L 18.109375 -20.796875 
L 9.078125 -20.796875 
L 9.078125 54.6875 
L 18.109375 54.6875 
L 18.109375 46.390625 
Q 20.953125 51.265625 25.265625 53.625 
Q 29.59375 56 35.59375 56 
Q 45.5625 56 51.78125 48.09375 
Q 58.015625 40.1875 58.015625 27.296875 
Q 58.015625 14.40625 51.78125 6.484375 
Q 45.5625 -1.421875 35.59375 -1.421875 
Q 29.59375 -1.421875 25.265625 0.953125 
Q 20.953125 3.328125 18.109375 8.203125 
z
M 48.6875 27.296875 
Q 48.6875 37.203125 44.609375 42.84375 
Q 40.53125 48.484375 33.40625 48.484375 
Q 26.265625 48.484375 22.1875 42.84375 
Q 18.109375 37.203125 18.109375 27.296875 
Q 18.109375 17.390625 22.1875 11.75 
Q 26.265625 6.109375 33.40625 6.109375 
Q 40.53125 6.109375 44.609375 11.75 
Q 48.6875 17.390625 48.6875 27.296875 
z
" id="DejaVuSans-112"/>
      <path d="M 54.890625 33.015625 
L 54.890625 0 
L 45.90625 0 
L 45.90625 32.71875 
Q 45.90625 40.484375 42.875 44.328125 
Q 39.84375 48.1875 33.796875 48.1875 
Q 26.515625 48.1875 22.3125 43.546875 
Q 18.109375 38.921875 18.109375 30.90625 
L 18.109375 0 
L 9.078125 0 
L 9.078125 54.6875 
L 18.109375 54.6875 
L 18.109375 46.1875 
Q 21.34375 51.125 25.703125 53.5625 
Q 30.078125 56 35.796875 56 
Q 45.21875 56 50.046875 50.171875 
Q 54.890625 44.34375 54.890625 33.015625 
z
M 32.234375 66.890625 
L 29.4375 69.578125 
Q 28.375 70.5625 27.5625 71.015625 
Q 26.765625 71.484375 26.125 71.484375 
Q 24.265625 71.484375 23.390625 69.703125 
Q 22.515625 67.921875 22.40625 63.921875 
L 16.3125 63.921875 
Q 16.40625 70.515625 18.890625 74.09375 
Q 21.390625 77.6875 25.828125 77.6875 
Q 27.6875 77.6875 29.25 77 
Q 30.8125 76.3125 32.625 74.703125 
L 35.40625 72.015625 
Q 36.46875 71.046875 37.28125 70.578125 
Q 38.09375 70.125 38.71875 70.125 
Q 40.578125 70.125 41.453125 71.90625 
Q 42.328125 73.6875 42.4375 77.6875 
L 48.53125 77.6875 
Q 48.4375 71.09375 45.9375 67.5 
Q 43.453125 63.921875 39.015625 63.921875 
Q 37.15625 63.921875 35.59375 64.59375 
Q 34.03125 65.28125 32.234375 66.890625 
z
" id="DejaVuSans-241"/>
     </defs>
     <g transform="translate(14.96875 280.0365)rotate(-90)scale(0.1 -0.1)">
      <use xlink:href="#DejaVuSans-78"/>
      <use x="74.804688" xlink:href="#DejaVuSans-105"/>
      <use x="102.587891" xlink:href="#DejaVuSans-118"/>
      <use x="161.767578" xlink:href="#DejaVuSans-101"/>
      <use x="223.291016" xlink:href="#DejaVuSans-108"/>
      <use x="251.074219" xlink:href="#DejaVuSans-32"/>
      <use x="282.861328" xlink:href="#DejaVuSans-100"/>
      <use x="346.337891" xlink:href="#DejaVuSans-101"/>
      <use x="407.861328" xlink:href="#DejaVuSans-32"/>
      <use x="439.648438" xlink:href="#DejaVuSans-100"/>
      <use x="503.125" xlink:href="#DejaVuSans-101"/>
      <use x="564.648438" xlink:href="#DejaVuSans-115"/>
      <use x="616.748047" xlink:href="#DejaVuSans-101"/>
      <use x="678.271484" xlink:href="#DejaVuSans-109"/>
      <use x="775.683594" xlink:href="#DejaVuSans-112"/>
      <use x="839.160156" xlink:href="#DejaVuSans-101"/>
      <use x="900.683594" xlink:href="#DejaVuSans-241"/>
      <use x="964.0625" xlink:href="#DejaVuSans-111"/>
      <use x="1025.244141" xlink:href="#DejaVuSans-32"/>
      <use x="1057.03125" xlink:href="#DejaVuSans-101"/>
      <use x="1118.554688" xlink:href="#DejaVuSans-110"/>
      <use x="1181.933594" xlink:href="#DejaVuSans-32"/>
      <use x="1213.720703" xlink:href="#DejaVuSans-115"/>
      <use x="1265.820312" xlink:href="#DejaVuSans-111"/>
      <use x="1327.001953" xlink:href="#DejaVuSans-99"/>
      <use x="1381.982422" xlink:href="#DejaVuSans-105"/>
      <use x="1409.765625" xlink:href="#DejaVuSans-97"/>
      <use x="1471.044922" xlink:href="#DejaVuSans-108"/>
      <use x="1498.828125" xlink:href="#DejaVuSans-101"/>
      <use x="1560.351562" xlink:href="#DejaVuSans-115"/>
     </g>
    </g>
   </g>
   <g id="line2d_10">
    <path clip-path="url(#pac6a930f5d)" d="M 163.45594 77.1015 
L 555.702125 77.1015 
" style="fill:none;stroke:#4c4c4c;stroke-linecap:square;stroke-width:1.5;"/>
   </g>
   <g id="line2d_11">
    <path clip-path="url(#pac6a930f5d)" d="M 234.979846 77.1015 
L 363.268758 77.1015 
" style="fill:none;stroke:#4c4c4c;stroke-linecap:square;stroke-width:4.5;"/>
   </g>
   <g id="line2d_12">
    <path clip-path="url(#pac6a930f5d)" d="M 163.45594 158.6415 
L 551.160925 158.6415 
" style="fill:none;stroke:#4c4c4c;stroke-linecap:square;stroke-width:1.5;"/>
   </g>
   <g id="line2d_13">
    <path clip-path="url(#pac6a930f5d)" d="M 249.171098 158.6415 
L 370.080559 158.6415 
" style="fill:none;stroke:#4c4c4c;stroke-linecap:square;stroke-width:4.5;"/>
   </g>
   <g id="line2d_14">
    <path clip-path="url(#pac6a930f5d)" d="M 163.45594 240.1815 
L 563.081576 240.1815 
" style="fill:none;stroke:#4c4c4c;stroke-linecap:square;stroke-width:1.5;"/>
   </g>
   <g id="line2d_15">
    <path clip-path="url(#pac6a930f5d)" d="M 266.768249 240.1815 
L 385.40711 240.1815 
" style="fill:none;stroke:#4c4c4c;stroke-linecap:square;stroke-width:4.5;"/>
   </g>
   <g id="line2d_16">
    <path clip-path="url(#pac6a930f5d)" d="M 163.45594 321.7215 
L 571.028677 321.7215 
" style="fill:none;stroke:#4c4c4c;stroke-linecap:square;stroke-width:1.5;"/>
   </g>
   <g id="line2d_17">
    <path clip-path="url(#pac6a930f5d)" d="M 273.0124 321.7215 
L 392.218911 321.7215 
" style="fill:none;stroke:#4c4c4c;stroke-linecap:square;stroke-width:4.5;"/>
   </g>
   <g id="patch_3">
    <path d="M 135.073438 362.4915 
L 135.073438 36.3315 
" style="fill:none;stroke:#000000;stroke-linecap:square;stroke-linejoin:miter;stroke-width:0.8;"/>
   </g>
   <g id="patch_4">
    <path d="M 693.073437 362.4915 
L 693.073437 36.3315 
" style="fill:none;stroke:#000000;stroke-linecap:square;stroke-linejoin:miter;stroke-width:0.8;"/>
   </g>
   <g id="patch_5">
    <path d="M 135.073438 362.4915 
L 693.073437 362.4915 
" style="fill:none;stroke:#000000;stroke-linecap:square;stroke-linejoin:miter;stroke-width:0.8;"/>
   </g>
   <g id="patch_6">
    <path d="M 135.073438 36.3315 
L 693.073437 36.3315 
" style="fill:none;stroke:#000000;stroke-linecap:square;stroke-linejoin:miter;stroke-width:0.8;"/>
   </g>
   <g id="PathCollection_1">
    <defs>
     <path d="M 0 1.5 
C 0.397805 1.5 0.77937 1.341951 1.06066 1.06066 
C 1.341951 0.77937 1.5 0.397805 1.5 0 
C 1.5 -0.397805 1.341951 -0.77937 1.06066 -1.06066 
C 0.77937 -1.341951 0.397805 -1.5 0 -1.5 
C -0.397805 -1.5 -0.77937 -1.341951 -1.06066 -1.06066 
C -1.341951 -0.77937 -1.5 -0.397805 -1.5 0 
C -1.5 0.397805 -1.341951 0.77937 -1.06066 1.06066 
C -0.77937 1.341951 -0.397805 1.5 0 1.5 
z
" id="mb0f7fb5301" style="stroke:#4c4c4c;"/>
    </defs>
    <g clip-path="url(#pac6a930f5d)">
     <use style="fill:#ffffff;stroke:#4c4c4c;" x="289.474251" xlink:href="#mb0f7fb5301" y="77.1015"/>
    </g>
   </g>
   <g id="PathCollection_2">
    <g clip-path="url(#pac6a930f5d)">
     <use style="fill:#ffffff;stroke:#4c4c4c;" x="304.233153" xlink:href="#mb0f7fb5301" y="158.6415"/>
    </g>
   </g>
   <g id="PathCollection_3">
    <g clip-path="url(#pac6a930f5d)">
     <use style="fill:#ffffff;stroke:#4c4c4c;" x="324.668554" xlink:href="#mb0f7fb5301" y="240.1815"/>
    </g>
   </g>
   <g id="PathCollection_4">
    <g clip-path="url(#pac6a930f5d)">
     <use style="fill:#ffffff;stroke:#4c4c4c;" x="333.183305" xlink:href="#mb0f7fb5301" y="321.7215"/>
    </g>
   </g>
   <g id="text_12">
    <!-- Distribución de: ICSE según el desempeño en sociales -->
    <defs>
     <path d="M 19.671875 64.796875 
L 19.671875 8.109375 
L 31.59375 8.109375 
Q 46.6875 8.109375 53.6875 14.9375 
Q 60.6875 21.78125 60.6875 36.53125 
Q 60.6875 51.171875 53.6875 57.984375 
Q 46.6875 64.796875 31.59375 64.796875 
z
M 9.8125 72.90625 
L 30.078125 72.90625 
Q 51.265625 72.90625 61.171875 64.09375 
Q 71.09375 55.28125 71.09375 36.53125 
Q 71.09375 17.671875 61.125 8.828125 
Q 51.171875 0 30.078125 0 
L 9.8125 0 
z
" id="DejaVuSans-68"/>
     <path d="M 8.5 21.578125 
L 8.5 54.6875 
L 17.484375 54.6875 
L 17.484375 21.921875 
Q 17.484375 14.15625 20.5 10.265625 
Q 23.53125 6.390625 29.59375 6.390625 
Q 36.859375 6.390625 41.078125 11.03125 
Q 45.3125 15.671875 45.3125 23.6875 
L 45.3125 54.6875 
L 54.296875 54.6875 
L 54.296875 0 
L 45.3125 0 
L 45.3125 8.40625 
Q 42.046875 3.421875 37.71875 1 
Q 33.40625 -1.421875 27.6875 -1.421875 
Q 18.265625 -1.421875 13.375 4.4375 
Q 8.5 10.296875 8.5 21.578125 
z
M 31.109375 56 
z
" id="DejaVuSans-117"/>
     <path d="M 30.609375 48.390625 
Q 23.390625 48.390625 19.1875 42.75 
Q 14.984375 37.109375 14.984375 27.296875 
Q 14.984375 17.484375 19.15625 11.84375 
Q 23.34375 6.203125 30.609375 6.203125 
Q 37.796875 6.203125 41.984375 11.859375 
Q 46.1875 17.53125 46.1875 27.296875 
Q 46.1875 37.015625 41.984375 42.703125 
Q 37.796875 48.390625 30.609375 48.390625 
z
M 30.609375 56 
Q 42.328125 56 49.015625 48.375 
Q 55.71875 40.765625 55.71875 27.296875 
Q 55.71875 13.875 49.015625 6.21875 
Q 42.328125 -1.421875 30.609375 -1.421875 
Q 18.84375 -1.421875 12.171875 6.21875 
Q 5.515625 13.875 5.515625 27.296875 
Q 5.515625 40.765625 12.171875 48.375 
Q 18.84375 56 30.609375 56 
z
M 37.40625 79.984375 
L 47.125 79.984375 
L 31.203125 61.625 
L 23.734375 61.625 
z
" id="DejaVuSans-243"/>
     <path d="M 11.71875 12.40625 
L 22.015625 12.40625 
L 22.015625 0 
L 11.71875 0 
z
M 11.71875 51.703125 
L 22.015625 51.703125 
L 22.015625 39.3125 
L 11.71875 39.3125 
z
" id="DejaVuSans-58"/>
     <path d="M 45.40625 27.984375 
Q 45.40625 37.75 41.375 43.109375 
Q 37.359375 48.484375 30.078125 48.484375 
Q 22.859375 48.484375 18.828125 43.109375 
Q 14.796875 37.75 14.796875 27.984375 
Q 14.796875 18.265625 18.828125 12.890625 
Q 22.859375 7.515625 30.078125 7.515625 
Q 37.359375 7.515625 41.375 12.890625 
Q 45.40625 18.265625 45.40625 27.984375 
z
M 54.390625 6.78125 
Q 54.390625 -7.171875 48.1875 -13.984375 
Q 42 -20.796875 29.203125 -20.796875 
Q 24.46875 -20.796875 20.265625 -20.09375 
Q 16.0625 -19.390625 12.109375 -17.921875 
L 12.109375 -9.1875 
Q 16.0625 -11.328125 19.921875 -12.34375 
Q 23.78125 -13.375 27.78125 -13.375 
Q 36.625 -13.375 41.015625 -8.765625 
Q 45.40625 -4.15625 45.40625 5.171875 
L 45.40625 9.625 
Q 42.625 4.78125 38.28125 2.390625 
Q 33.9375 0 27.875 0 
Q 17.828125 0 11.671875 7.65625 
Q 5.515625 15.328125 5.515625 27.984375 
Q 5.515625 40.671875 11.671875 48.328125 
Q 17.828125 56 27.875 56 
Q 33.9375 56 38.28125 53.609375 
Q 42.625 51.21875 45.40625 46.390625 
L 45.40625 54.6875 
L 54.390625 54.6875 
z
" id="DejaVuSans-103"/>
     <path d="M 8.5 21.578125 
L 8.5 54.6875 
L 17.484375 54.6875 
L 17.484375 21.921875 
Q 17.484375 14.15625 20.5 10.265625 
Q 23.53125 6.390625 29.59375 6.390625 
Q 36.859375 6.390625 41.078125 11.03125 
Q 45.3125 15.671875 45.3125 23.6875 
L 45.3125 54.6875 
L 54.296875 54.6875 
L 54.296875 0 
L 45.3125 0 
L 45.3125 8.40625 
Q 42.046875 3.421875 37.71875 1 
Q 33.40625 -1.421875 27.6875 -1.421875 
Q 18.265625 -1.421875 13.375 4.4375 
Q 8.5 10.296875 8.5 21.578125 
z
M 31.109375 56 
z
M 37.796875 79.984375 
L 47.515625 79.984375 
L 31.59375 61.625 
L 24.125 61.625 
z
" id="DejaVuSans-250"/>
    </defs>
    <g transform="translate(251.5475 16.798125)scale(0.12 -0.12)">
     <use xlink:href="#DejaVuSans-68"/>
     <use x="77.001953" xlink:href="#DejaVuSans-105"/>
     <use x="104.785156" xlink:href="#DejaVuSans-115"/>
     <use x="156.884766" xlink:href="#DejaVuSans-116"/>
     <use x="196.09375" xlink:href="#DejaVuSans-114"/>
     <use x="237.207031" xlink:href="#DejaVuSans-105"/>
     <use x="264.990234" xlink:href="#DejaVuSans-98"/>
     <use x="328.466797" xlink:href="#DejaVuSans-117"/>
     <use x="391.845703" xlink:href="#DejaVuSans-99"/>
     <use x="446.826172" xlink:href="#DejaVuSans-105"/>
     <use x="474.609375" xlink:href="#DejaVuSans-243"/>
     <use x="535.791016" xlink:href="#DejaVuSans-110"/>
     <use x="599.169922" xlink:href="#DejaVuSans-32"/>
     <use x="630.957031" xlink:href="#DejaVuSans-100"/>
     <use x="694.433594" xlink:href="#DejaVuSans-101"/>
     <use x="755.957031" xlink:href="#DejaVuSans-58"/>
     <use x="789.648438" xlink:href="#DejaVuSans-32"/>
     <use x="821.435547" xlink:href="#DejaVuSans-73"/>
     <use x="850.927734" xlink:href="#DejaVuSans-67"/>
     <use x="920.751953" xlink:href="#DejaVuSans-83"/>
     <use x="984.228516" xlink:href="#DejaVuSans-69"/>
     <use x="1047.412109" xlink:href="#DejaVuSans-32"/>
     <use x="1079.199219" xlink:href="#DejaVuSans-115"/>
     <use x="1131.298828" xlink:href="#DejaVuSans-101"/>
     <use x="1192.822266" xlink:href="#DejaVuSans-103"/>
     <use x="1256.298828" xlink:href="#DejaVuSans-250"/>
     <use x="1319.677734" xlink:href="#DejaVuSans-110"/>
     <use x="1383.056641" xlink:href="#DejaVuSans-32"/>
     <use x="1414.84375" xlink:href="#DejaVuSans-101"/>
     <use x="1476.367188" xlink:href="#DejaVuSans-108"/>
     <use x="1504.150391" xlink:href="#DejaVuSans-32"/>
     <use x="1535.9375" xlink:href="#DejaVuSans-100"/>
     <use x="1599.414062" xlink:href="#DejaVuSans-101"/>
     <use x="1660.9375" xlink:href="#DejaVuSans-115"/>
     <use x="1713.037109" xlink:href="#DejaVuSans-101"/>
     <use x="1774.560547" xlink:href="#DejaVuSans-109"/>
     <use x="1871.972656" xlink:href="#DejaVuSans-112"/>
     <use x="1935.449219" xlink:href="#DejaVuSans-101"/>
     <use x="1996.972656" xlink:href="#DejaVuSans-241"/>
     <use x="2060.351562" xlink:href="#DejaVuSans-111"/>
     <use x="2121.533203" xlink:href="#DejaVuSans-32"/>
     <use x="2153.320312" xlink:href="#DejaVuSans-101"/>
     <use x="2214.84375" xlink:href="#DejaVuSans-110"/>
     <use x="2278.222656" xlink:href="#DejaVuSans-32"/>
     <use x="2310.009766" xlink:href="#DejaVuSans-115"/>
     <use x="2362.109375" xlink:href="#DejaVuSans-111"/>
     <use x="2423.291016" xlink:href="#DejaVuSans-99"/>
     <use x="2478.271484" xlink:href="#DejaVuSans-105"/>
     <use x="2506.054688" xlink:href="#DejaVuSans-97"/>
     <use x="2567.333984" xlink:href="#DejaVuSans-108"/>
     <use x="2595.117188" xlink:href="#DejaVuSans-101"/>
     <use x="2656.640625" xlink:href="#DejaVuSans-115"/>
    </g>
    <!--  Nivel: Primaria -->
    <g transform="translate(368.090937 30.2355)scale(0.12 -0.12)">
     <use xlink:href="#DejaVuSans-32"/>
     <use x="31.787109" xlink:href="#DejaVuSans-78"/>
     <use x="106.591797" xlink:href="#DejaVuSans-105"/>
     <use x="134.375" xlink:href="#DejaVuSans-118"/>
     <use x="193.554688" xlink:href="#DejaVuSans-101"/>
     <use x="255.078125" xlink:href="#DejaVuSans-108"/>
     <use x="282.861328" xlink:href="#DejaVuSans-58"/>
     <use x="316.552734" xlink:href="#DejaVuSans-32"/>
     <use x="348.339844" xlink:href="#DejaVuSans-80"/>
     <use x="408.626953" xlink:href="#DejaVuSans-114"/>
     <use x="449.740234" xlink:href="#DejaVuSans-105"/>
     <use x="477.523438" xlink:href="#DejaVuSans-109"/>
     <use x="574.935547" xlink:href="#DejaVuSans-97"/>
     <use x="636.214844" xlink:href="#DejaVuSans-114"/>
     <use x="677.328125" xlink:href="#DejaVuSans-105"/>
     <use x="705.111328" xlink:href="#DejaVuSans-97"/>
    </g>
   </g>
  </g>
 </g>
 <defs>
  <clipPath id="pac6a930f5d">
   <rect height="326.16" width="558" x="135.073438" y="36.3315"/>
  </clipPath>
 </defs>
</svg>
