<?xml version="1.0" encoding="utf-8" standalone="no"?>
<!DOCTYPE svg PUBLIC "-//W3C//DTD SVG 1.1//EN"
  "http://www.w3.org/Graphics/SVG/1.1/DTD/svg11.dtd">
<!-- Created with matplotlib (https://matplotlib.org/) -->
<svg height="400.04775pt" version="1.1" viewBox="0 0 704.003125 400.04775" width="704.003125pt" xmlns="http://www.w3.org/2000/svg" xmlns:xlink="http://www.w3.org/1999/xlink">
 <defs>
  <style type="text/css">
*{stroke-linecap:butt;stroke-linejoin:round;}
  </style>
 </defs>
 <g id="figure_1">
  <g id="patch_1">
   <path d="M 0 400.04775 
L 704.003125 400.04775 
L 704.003125 0 
L 0 0 
z
" style="fill:#ffffff;"/>
  </g>
  <g id="axes_1">
   <g id="patch_2">
    <path d="M 135.303125 362.4915 
L 693.303125 362.4915 
L 693.303125 36.3315 
L 135.303125 36.3315 
z
" style="fill:#ffffff;"/>
   </g>
   <g id="PolyCollection_1">
    <defs>
     <path d="M 182.906482 -322.219273 
L 182.906482 -323.673227 
L 187.581162 -326.78125 
L 192.255841 -333.250967 
L 196.930521 -337.959088 
L 201.605201 -336.453495 
L 206.27988 -335.400214 
L 210.95456 -342.215465 
L 215.62924 -350.242991 
L 220.303919 -353.733407 
L 224.978599 -355.56225 
L 229.653278 -353.270122 
L 234.327958 -350.270826 
L 239.002638 -353.157658 
L 243.677317 -355.383741 
L 248.351997 -352.0688 
L 253.026677 -342.925927 
L 257.701356 -333.262675 
L 262.376036 -332.289412 
L 267.050716 -338.931405 
L 271.725395 -346.559517 
L 276.400075 -349.27027 
L 281.074755 -344.82989 
L 285.749434 -337.491564 
L 290.424114 -333.861959 
L 295.098794 -334.949071 
L 299.773473 -338.604963 
L 304.448153 -344.27819 
L 309.122833 -349.268799 
L 313.797512 -347.562846 
L 318.472192 -342.088316 
L 323.146872 -338.212601 
L 327.821551 -332.566992 
L 332.496231 -327.816097 
L 337.170911 -326.886964 
L 341.84559 -327.955726 
L 346.52027 -328.986269 
L 351.19495 -328.671984 
L 355.869629 -327.952827 
L 360.544309 -327.303169 
L 365.218989 -326.916323 
L 369.893668 -326.828845 
L 374.568348 -325.588971 
L 379.243028 -324.092774 
L 383.917707 -323.636813 
L 388.592387 -323.827212 
L 393.267067 -324.343547 
L 397.941746 -324.908398 
L 402.616426 -324.885376 
L 407.291106 -324.293477 
L 411.965785 -323.655738 
L 416.640465 -323.352161 
L 421.315144 -323.286038 
L 425.989824 -323.178301 
L 430.664504 -323.180121 
L 435.339183 -323.478708 
L 440.013863 -323.813515 
L 444.688543 -323.894872 
L 449.363222 -323.693337 
L 454.037902 -323.360388 
L 458.712582 -323.132829 
L 463.387261 -323.108133 
L 468.061941 -323.461518 
L 472.736621 -324.136993 
L 477.4113 -324.387235 
L 482.08598 -324.065661 
L 486.76066 -323.733441 
L 491.435339 -323.511702 
L 496.110019 -323.494396 
L 500.784699 -323.450076 
L 505.459378 -323.215538 
L 510.134058 -323.046837 
L 514.808738 -323.125008 
L 519.483417 -323.48566 
L 524.158097 -323.788222 
L 528.832777 -323.694753 
L 533.507456 -323.438051 
L 538.182136 -323.177587 
L 542.856816 -323.005899 
L 547.531495 -322.953562 
L 552.206175 -322.946659 
L 556.880855 -322.94626 
L 561.555534 -322.946261 
L 566.230214 -322.946759 
L 570.904894 -322.957279 
L 575.579573 -323.054219 
L 580.254253 -323.423396 
L 584.928933 -323.898169 
L 589.603612 -323.803579 
L 594.278292 -323.294823 
L 598.952972 -323.010229 
L 603.627651 -322.951551 
L 608.302331 -322.946449 
L 612.97701 -322.946269 
L 617.65169 -322.946725 
L 622.32637 -322.952587 
L 627.001049 -322.984404 
L 631.675729 -323.049964 
L 636.350409 -323.073521 
L 641.025088 -323.016755 
L 645.699768 -322.963882 
L 645.699768 -322.928618 
L 645.699768 -322.928618 
L 641.025088 -322.875745 
L 636.350409 -322.818979 
L 631.675729 -322.842536 
L 627.001049 -322.908096 
L 622.32637 -322.939913 
L 617.65169 -322.945775 
L 612.97701 -322.946231 
L 608.302331 -322.946051 
L 603.627651 -322.940949 
L 598.952972 -322.882271 
L 594.278292 -322.597677 
L 589.603612 -322.088921 
L 584.928933 -321.994331 
L 580.254253 -322.469104 
L 575.579573 -322.838281 
L 570.904894 -322.935221 
L 566.230214 -322.945741 
L 561.555534 -322.946239 
L 556.880855 -322.94624 
L 552.206175 -322.945841 
L 547.531495 -322.938938 
L 542.856816 -322.886601 
L 538.182136 -322.714913 
L 533.507456 -322.454449 
L 528.832777 -322.197747 
L 524.158097 -322.104278 
L 519.483417 -322.40684 
L 514.808738 -322.767492 
L 510.134058 -322.845663 
L 505.459378 -322.676962 
L 500.784699 -322.442424 
L 496.110019 -322.398104 
L 491.435339 -322.380798 
L 486.76066 -322.159059 
L 482.08598 -321.826839 
L 477.4113 -321.505265 
L 472.736621 -321.755507 
L 468.061941 -322.430982 
L 463.387261 -322.784367 
L 458.712582 -322.759671 
L 454.037902 -322.532112 
L 449.363222 -322.199163 
L 444.688543 -321.997628 
L 440.013863 -322.078985 
L 435.339183 -322.413792 
L 430.664504 -322.712379 
L 425.989824 -322.714199 
L 421.315144 -322.606462 
L 416.640465 -322.540339 
L 411.965785 -322.236762 
L 407.291106 -321.599023 
L 402.616426 -321.007124 
L 397.941746 -320.984102 
L 393.267067 -321.548953 
L 388.592387 -322.065288 
L 383.917707 -322.255687 
L 379.243028 -321.799726 
L 374.568348 -320.303529 
L 369.893668 -319.063655 
L 365.218989 -318.976177 
L 360.544309 -318.589331 
L 355.869629 -317.939673 
L 351.19495 -317.220516 
L 346.52027 -316.906231 
L 341.84559 -317.936774 
L 337.170911 -319.005536 
L 332.496231 -318.076403 
L 327.821551 -313.325508 
L 323.146872 -307.679899 
L 318.472192 -303.804184 
L 313.797512 -298.329654 
L 309.122833 -296.623701 
L 304.448153 -301.61431 
L 299.773473 -307.287537 
L 295.098794 -310.943429 
L 290.424114 -312.030541 
L 285.749434 -308.400936 
L 281.074755 -301.06261 
L 276.400075 -296.62223 
L 271.725395 -299.332983 
L 267.050716 -306.961095 
L 262.376036 -313.603088 
L 257.701356 -312.629825 
L 253.026677 -302.966573 
L 248.351997 -293.8237 
L 243.677317 -290.508759 
L 239.002638 -292.734842 
L 234.327958 -295.621674 
L 229.653278 -292.622378 
L 224.978599 -290.33025 
L 220.303919 -292.159093 
L 215.62924 -295.649509 
L 210.95456 -303.677035 
L 206.27988 -310.492286 
L 201.605201 -309.439005 
L 196.930521 -307.933412 
L 192.255841 -312.641533 
L 187.581162 -319.11125 
L 182.906482 -322.219273 
z
" id="m5fd1a582e6" style="stroke:#4c4c4c;stroke-width:1.5;"/>
    </defs>
    <g clip-path="url(#p37002f52d4)">
     <use style="fill:#df2020;stroke:#4c4c4c;stroke-width:1.5;" x="0" xlink:href="#m5fd1a582e6" y="400.04775"/>
    </g>
   </g>
   <g id="PolyCollection_2">
    <defs>
     <path d="M 184.234474 -241.043533 
L 184.234474 -241.768967 
L 188.882325 -243.575696 
L 193.530177 -247.071924 
L 198.178029 -248.826234 
L 202.82588 -247.679935 
L 207.473732 -249.813532 
L 212.121583 -258.540039 
L 216.769435 -263.914131 
L 221.417286 -266.023342 
L 226.065138 -269.451503 
L 230.712989 -267.556418 
L 235.360841 -266.249655 
L 240.008692 -272.230613 
L 244.656544 -273.45965 
L 249.304395 -269.031928 
L 253.952247 -257.964417 
L 258.600099 -248.758665 
L 263.24795 -250.284164 
L 267.895802 -256.826289 
L 272.543653 -264.986648 
L 277.191505 -270.997633 
L 281.839356 -267.22439 
L 286.487208 -257.909282 
L 291.135059 -255.152332 
L 295.782911 -258.023904 
L 300.430762 -261.993113 
L 305.078614 -268.231898 
L 309.726465 -272.627146 
L 314.374317 -267.163319 
L 319.022169 -260.524958 
L 323.67002 -258.185859 
L 328.317872 -251.154277 
L 332.965723 -246.557539 
L 337.613575 -247.156508 
L 342.261426 -249.441635 
L 346.909278 -250.549974 
L 351.557129 -248.841522 
L 356.204981 -247.584828 
L 360.852832 -247.025387 
L 365.500684 -247.315342 
L 370.148535 -248.395387 
L 374.796387 -245.824718 
L 379.444238 -242.78394 
L 384.09209 -242.235955 
L 388.739942 -242.574975 
L 393.387793 -243.234555 
L 398.035645 -243.944693 
L 402.683496 -243.85987 
L 407.331348 -243.147528 
L 411.979199 -242.289855 
L 416.627051 -242.025176 
L 421.274902 -242.127588 
L 425.922754 -241.837348 
L 430.570605 -241.675185 
L 435.218457 -242.159784 
L 439.866308 -242.629644 
L 444.51416 -242.432026 
L 449.162012 -242.035857 
L 453.809863 -241.700414 
L 458.457715 -241.53042 
L 463.105566 -241.522588 
L 467.753418 -241.931782 
L 472.401269 -242.95318 
L 477.049121 -243.386655 
L 481.696972 -242.859089 
L 486.344824 -242.517139 
L 490.992675 -242.160434 
L 495.640527 -242.14161 
L 500.288378 -242.14995 
L 504.93623 -241.771477 
L 509.584081 -241.502341 
L 514.231933 -241.575705 
L 518.879785 -242.229435 
L 523.527636 -243.0085 
L 528.175488 -242.872401 
L 532.823339 -242.458952 
L 537.471191 -241.929243 
L 542.119042 -241.517067 
L 546.766894 -241.414865 
L 551.414745 -241.40649 
L 556.062597 -241.406252 
L 560.710448 -241.40625 
L 565.3583 -241.406269 
L 570.006151 -241.407516 
L 574.654003 -241.436574 
L 579.301855 -241.665381 
L 583.949706 -242.196133 
L 588.597558 -242.26511 
L 593.245409 -241.739368 
L 597.893261 -241.452338 
L 602.541112 -241.408525 
L 607.188964 -241.40629 
L 611.836815 -241.406251 
L 616.484667 -241.406322 
L 621.132518 -241.409004 
L 625.78037 -241.443633 
L 630.428221 -241.587253 
L 635.076073 -241.718872 
L 639.723925 -241.598855 
L 644.371776 -241.448579 
L 644.371776 -241.363921 
L 644.371776 -241.363921 
L 639.723925 -241.213645 
L 635.076073 -241.093628 
L 630.428221 -241.225247 
L 625.78037 -241.368867 
L 621.132518 -241.403496 
L 616.484667 -241.406178 
L 611.836815 -241.406249 
L 607.188964 -241.40621 
L 602.541112 -241.403975 
L 597.893261 -241.360162 
L 593.245409 -241.073132 
L 588.597558 -240.54739 
L 583.949706 -240.616367 
L 579.301855 -241.147119 
L 574.654003 -241.375926 
L 570.006151 -241.404984 
L 565.3583 -241.406231 
L 560.710448 -241.40625 
L 556.062597 -241.406248 
L 551.414745 -241.40601 
L 546.766894 -241.397635 
L 542.119042 -241.295433 
L 537.471191 -240.883257 
L 532.823339 -240.353548 
L 528.175488 -239.940099 
L 523.527636 -239.804 
L 518.879785 -240.583065 
L 514.231933 -241.236795 
L 509.584081 -241.310159 
L 504.93623 -241.041023 
L 500.288378 -240.66255 
L 495.640527 -240.67089 
L 490.992675 -240.652066 
L 486.344824 -240.295361 
L 481.696972 -239.953411 
L 477.049121 -239.425845 
L 472.401269 -239.85932 
L 467.753418 -240.880718 
L 463.105566 -241.289912 
L 458.457715 -241.28208 
L 453.809863 -241.112086 
L 449.162012 -240.776643 
L 444.51416 -240.380474 
L 439.866308 -240.182856 
L 435.218457 -240.652716 
L 430.570605 -241.137315 
L 425.922754 -240.975152 
L 421.274902 -240.684912 
L 416.627051 -240.787324 
L 411.979199 -240.522645 
L 407.331348 -239.664972 
L 402.683496 -238.95263 
L 398.035645 -238.867807 
L 393.387793 -239.577945 
L 388.739942 -240.237525 
L 384.09209 -240.576545 
L 379.444238 -240.02856 
L 374.796387 -236.987782 
L 370.148535 -234.417113 
L 365.500684 -235.497158 
L 360.852832 -235.787113 
L 356.204981 -235.227672 
L 351.557129 -233.970978 
L 346.909278 -232.262526 
L 342.261426 -233.370865 
L 337.613575 -235.655992 
L 332.965723 -236.254961 
L 328.317872 -231.658223 
L 323.67002 -224.626641 
L 319.022169 -222.287542 
L 314.374317 -215.649181 
L 309.726465 -210.185354 
L 305.078614 -214.580602 
L 300.430762 -220.819387 
L 295.782911 -224.788596 
L 291.135059 -227.660168 
L 286.487208 -224.903218 
L 281.839356 -215.58811 
L 277.191505 -211.814867 
L 272.543653 -217.825852 
L 267.895802 -225.986211 
L 263.24795 -232.528336 
L 258.600099 -234.053835 
L 253.952247 -224.848083 
L 249.304395 -213.780572 
L 244.656544 -209.35285 
L 240.008692 -210.581887 
L 235.360841 -216.562845 
L 230.712989 -215.256082 
L 226.065138 -213.360997 
L 221.417286 -216.789158 
L 216.769435 -218.898369 
L 212.121583 -224.272461 
L 207.473732 -232.998968 
L 202.82588 -235.132565 
L 198.178029 -233.986266 
L 193.530177 -235.740576 
L 188.882325 -239.236804 
L 184.234474 -241.043533 
z
" id="m9373eb878b" style="stroke:#4c4c4c;stroke-width:1.5;"/>
    </defs>
    <g clip-path="url(#p37002f52d4)">
     <use style="fill:#df2020;stroke:#4c4c4c;stroke-width:1.5;" x="0" xlink:href="#m9373eb878b" y="400.04775"/>
    </g>
   </g>
   <g id="PolyCollection_3">
    <defs>
     <path d="M 182.821357 -159.696152 
L 182.821357 -160.036348 
L 187.497756 -160.694757 
L 192.174156 -161.968776 
L 196.850555 -162.934715 
L 201.526954 -163.354568 
L 206.203354 -165.972983 
L 210.879753 -172.765104 
L 215.556152 -178.802106 
L 220.232552 -181.213525 
L 224.908951 -183.483011 
L 229.58535 -184.128756 
L 234.26175 -184.070656 
L 238.938149 -187.601616 
L 243.614548 -189.457432 
L 248.290948 -185.708936 
L 252.967347 -177.483624 
L 257.643747 -169.871666 
L 262.320146 -169.493272 
L 266.996545 -174.065089 
L 271.672945 -180.384988 
L 276.349344 -186.112603 
L 281.025743 -185.70171 
L 285.702143 -179.52348 
L 290.378542 -175.524872 
L 295.054941 -176.645754 
L 299.731341 -180.689333 
L 304.40774 -186.788991 
L 309.084139 -190.59259 
L 313.760539 -186.718948 
L 318.436938 -180.5128 
L 323.113338 -177.203896 
L 327.789737 -171.889154 
L 332.466136 -166.960687 
L 337.142536 -166.823685 
L 341.818935 -169.328242 
L 346.495334 -170.509645 
L 351.171734 -168.974521 
L 355.848133 -167.385818 
L 360.524532 -166.967575 
L 365.200932 -167.463204 
L 369.877331 -167.776337 
L 374.55373 -165.230792 
L 379.23013 -162.026406 
L 383.906529 -161.036529 
L 388.582929 -161.736072 
L 393.259328 -163.231514 
L 397.935727 -164.097623 
L 402.612127 -163.48352 
L 407.288526 -162.244157 
L 411.964925 -161.143923 
L 416.641325 -160.724025 
L 421.317724 -160.696336 
L 425.994123 -160.435331 
L 430.670523 -160.333721 
L 435.346922 -160.823738 
L 440.023321 -161.348219 
L 444.699721 -161.324663 
L 449.37612 -160.870764 
L 454.05252 -160.330637 
L 458.728919 -160.034248 
L 463.405318 -160.071042 
L 468.081718 -160.659731 
L 472.758117 -161.712575 
L 477.434516 -162.075001 
L 482.110916 -161.546919 
L 486.787315 -161.089769 
L 491.463714 -160.913736 
L 496.140114 -161.005986 
L 500.816513 -160.873028 
L 505.492912 -160.373635 
L 510.169312 -160.071194 
L 514.845711 -160.338553 
L 519.522111 -161.288378 
L 524.19851 -162.037141 
L 528.874909 -161.720671 
L 533.551309 -161.009753 
L 538.227708 -160.38348 
L 542.904107 -159.999382 
L 547.580507 -159.882913 
L 552.256906 -159.867217 
L 556.933305 -159.866276 
L 561.609705 -159.866262 
L 566.286104 -159.866782 
L 570.962503 -159.87714 
L 575.638903 -159.968109 
L 580.315302 -160.301612 
L 584.991702 -160.716591 
L 589.668101 -160.625221 
L 594.3445 -160.175812 
L 599.0209 -159.923948 
L 603.697299 -159.871164 
L 608.373698 -159.866442 
L 613.050098 -159.866303 
L 617.726497 -159.867619 
L 622.402896 -159.883564 
L 627.079296 -159.966307 
L 631.755695 -160.130477 
L 636.432094 -160.185107 
L 641.108494 -160.042085 
L 645.784893 -159.91056 
L 645.784893 -159.82194 
L 645.784893 -159.82194 
L 641.108494 -159.690415 
L 636.432094 -159.547393 
L 631.755695 -159.602023 
L 627.079296 -159.766193 
L 622.402896 -159.848936 
L 617.726497 -159.864881 
L 613.050098 -159.866197 
L 608.373698 -159.866058 
L 603.697299 -159.861336 
L 599.0209 -159.808552 
L 594.3445 -159.556688 
L 589.668101 -159.107279 
L 584.991702 -159.015909 
L 580.315302 -159.430888 
L 575.638903 -159.764391 
L 570.962503 -159.85536 
L 566.286104 -159.865718 
L 561.609705 -159.866238 
L 556.933305 -159.866224 
L 552.256906 -159.865283 
L 547.580507 -159.849587 
L 542.904107 -159.733118 
L 538.227708 -159.34902 
L 533.551309 -158.722747 
L 528.874909 -158.011829 
L 524.19851 -157.695359 
L 519.522111 -158.444122 
L 514.845711 -159.393947 
L 510.169312 -159.661306 
L 505.492912 -159.358865 
L 500.816513 -158.859472 
L 496.140114 -158.726514 
L 491.463714 -158.818764 
L 486.787315 -158.642731 
L 482.110916 -158.185581 
L 477.434516 -157.657499 
L 472.758117 -158.019925 
L 468.081718 -159.072769 
L 463.405318 -159.661458 
L 458.728919 -159.698252 
L 454.05252 -159.401863 
L 449.37612 -158.861736 
L 444.699721 -158.407837 
L 440.023321 -158.384281 
L 435.346922 -158.908762 
L 430.670523 -159.398779 
L 425.994123 -159.297169 
L 421.317724 -159.036164 
L 416.641325 -159.008475 
L 411.964925 -158.588577 
L 407.288526 -157.488343 
L 402.612127 -156.24898 
L 397.935727 -155.634877 
L 393.259328 -156.500986 
L 388.582929 -157.996428 
L 383.906529 -158.695971 
L 379.23013 -157.706094 
L 374.55373 -154.501708 
L 369.877331 -151.956163 
L 365.200932 -152.269296 
L 360.524532 -152.764925 
L 355.848133 -152.346682 
L 351.171734 -150.757979 
L 346.495334 -149.222855 
L 341.818935 -150.404258 
L 337.142536 -152.908815 
L 332.466136 -152.771813 
L 327.789737 -147.843346 
L 323.113338 -142.528604 
L 318.436938 -139.2197 
L 313.760539 -133.013552 
L 309.084139 -129.13991 
L 304.40774 -132.943509 
L 299.731341 -139.043167 
L 295.054941 -143.086746 
L 290.378542 -144.207628 
L 285.702143 -140.20902 
L 281.025743 -134.03079 
L 276.349344 -133.619897 
L 271.672945 -139.347512 
L 266.996545 -145.667411 
L 262.320146 -150.239228 
L 257.643747 -149.860834 
L 252.967347 -142.248876 
L 248.290948 -134.023564 
L 243.614548 -130.275068 
L 238.938149 -132.130884 
L 234.26175 -135.661844 
L 229.58535 -135.603744 
L 224.908951 -136.249489 
L 220.232552 -138.518975 
L 215.556152 -140.930394 
L 210.879753 -146.967396 
L 206.203354 -153.759517 
L 201.526954 -156.377932 
L 196.850555 -156.797785 
L 192.174156 -157.763724 
L 187.497756 -159.037743 
L 182.821357 -159.696152 
z
" id="m6582069f4c" style="stroke:#4c4c4c;stroke-width:1.5;"/>
    </defs>
    <g clip-path="url(#p37002f52d4)">
     <use style="fill:#df2020;stroke:#4c4c4c;stroke-width:1.5;" x="0" xlink:href="#m6582069f4c" y="400.04775"/>
    </g>
   </g>
   <g id="PolyCollection_4">
    <defs>
     <path d="M 182.17223 -78.223636 
L 182.17223 -78.428864 
L 186.861743 -78.80509 
L 191.551256 -79.593691 
L 196.240769 -80.416819 
L 200.930282 -81.151823 
L 205.619795 -83.546072 
L 210.309308 -89.264479 
L 214.998821 -95.339875 
L 219.688334 -98.883245 
L 224.377847 -101.200281 
L 229.067361 -101.694901 
L 233.756874 -101.816447 
L 238.446387 -105.01567 
L 243.1359 -106.747383 
L 247.825413 -102.798515 
L 252.514926 -95.165923 
L 257.204439 -88.30795 
L 261.893952 -87.161848 
L 266.583465 -91.054638 
L 271.272978 -97.585024 
L 275.962491 -103.960543 
L 280.652004 -104.344201 
L 285.341517 -98.221436 
L 290.03103 -93.235736 
L 294.720543 -93.668985 
L 299.410056 -98.101674 
L 304.099569 -105.163373 
L 308.789082 -110.297349 
L 313.478595 -107.412097 
L 318.168108 -100.485675 
L 322.857621 -96.190532 
L 327.547134 -91.62864 
L 332.236647 -87.023297 
L 336.92616 -86.287485 
L 341.615673 -88.232427 
L 346.305186 -89.220727 
L 350.994699 -88.149806 
L 355.684212 -87.06666 
L 360.373725 -86.908038 
L 365.063238 -87.429073 
L 369.752751 -87.485581 
L 374.442264 -84.74359 
L 379.131777 -81.110257 
L 383.82129 -79.586622 
L 388.510803 -79.936571 
L 393.200316 -81.148006 
L 397.889829 -82.124017 
L 402.579342 -81.988947 
L 407.268855 -80.970878 
L 411.958368 -79.894285 
L 416.647882 -79.498253 
L 421.337395 -79.463456 
L 426.026908 -79.146335 
L 430.716421 -79.00708 
L 435.405934 -79.510156 
L 440.095447 -80.013874 
L 444.78496 -79.888108 
L 449.474473 -79.346503 
L 454.163986 -78.806552 
L 458.853499 -78.529208 
L 463.543012 -78.618431 
L 468.232525 -79.25256 
L 472.922038 -80.216847 
L 477.611551 -80.553719 
L 482.301064 -80.14755 
L 486.990577 -79.714894 
L 491.68009 -79.526942 
L 496.369603 -79.575893 
L 501.059116 -79.382543 
L 505.748629 -78.865921 
L 510.438142 -78.567134 
L 515.127655 -78.828438 
L 519.817168 -79.626289 
L 524.506681 -80.245121 
L 529.196194 -80.123966 
L 533.885707 -79.585483 
L 538.57522 -78.944186 
L 543.264733 -78.502214 
L 547.954246 -78.352408 
L 552.643759 -78.328209 
L 557.333272 -78.326324 
L 562.022785 -78.326313 
L 566.712298 -78.327957 
L 571.401811 -78.349758 
L 576.091324 -78.487172 
L 580.780837 -78.873807 
L 585.47035 -79.252355 
L 590.159863 -79.104837 
L 594.849376 -78.651615 
L 599.538889 -78.393835 
L 604.228403 -78.333228 
L 608.917916 -78.326614 
L 613.607429 -78.326459 
L 618.296942 -78.329781 
L 622.986455 -78.357254 
L 627.675968 -78.461562 
L 632.365481 -78.619792 
L 637.054994 -78.642784 
L 641.744507 -78.495913 
L 646.43402 -78.371453 
L 646.43402 -78.281047 
L 646.43402 -78.281047 
L 641.744507 -78.156587 
L 637.054994 -78.009716 
L 632.365481 -78.032708 
L 627.675968 -78.190938 
L 622.986455 -78.295246 
L 618.296942 -78.322719 
L 613.607429 -78.326041 
L 608.917916 -78.325886 
L 604.228403 -78.319272 
L 599.538889 -78.258665 
L 594.849376 -78.000885 
L 590.159863 -77.547663 
L 585.47035 -77.400145 
L 580.780837 -77.778693 
L 576.091324 -78.165328 
L 571.401811 -78.302742 
L 566.712298 -78.324543 
L 562.022785 -78.326187 
L 557.333272 -78.326176 
L 552.643759 -78.324291 
L 547.954246 -78.300092 
L 543.264733 -78.150286 
L 538.57522 -77.708314 
L 533.885707 -77.067017 
L 529.196194 -76.528534 
L 524.506681 -76.407379 
L 519.817168 -77.026211 
L 515.127655 -77.824062 
L 510.438142 -78.085366 
L 505.748629 -77.786579 
L 501.059116 -77.269957 
L 496.369603 -77.076607 
L 491.68009 -77.125558 
L 486.990577 -76.937606 
L 482.301064 -76.50495 
L 477.611551 -76.098781 
L 472.922038 -76.435653 
L 468.232525 -77.39994 
L 463.543012 -78.034069 
L 458.853499 -78.123292 
L 454.163986 -77.845948 
L 449.474473 -77.305997 
L 444.78496 -76.764392 
L 440.095447 -76.638626 
L 435.405934 -77.142344 
L 430.716421 -77.64542 
L 426.026908 -77.506165 
L 421.337395 -77.189044 
L 416.647882 -77.154247 
L 411.958368 -76.758215 
L 407.268855 -75.681622 
L 402.579342 -74.663553 
L 397.889829 -74.528483 
L 393.200316 -75.504494 
L 388.510803 -76.715929 
L 383.82129 -77.065878 
L 379.131777 -75.542243 
L 374.442264 -71.90891 
L 369.752751 -69.166919 
L 365.063238 -69.223427 
L 360.373725 -69.744462 
L 355.684212 -69.58584 
L 350.994699 -68.502694 
L 346.305186 -67.431773 
L 341.615673 -68.420073 
L 336.92616 -70.365015 
L 332.236647 -69.629203 
L 327.547134 -65.02386 
L 322.857621 -60.461968 
L 318.168108 -56.166825 
L 313.478595 -49.240403 
L 308.789082 -46.355151 
L 304.099569 -51.489127 
L 299.410056 -58.550826 
L 294.720543 -62.983515 
L 290.03103 -63.416764 
L 285.341517 -58.431064 
L 280.652004 -52.308299 
L 275.962491 -52.691957 
L 271.272978 -59.067476 
L 266.583465 -65.597862 
L 261.893952 -69.490652 
L 257.204439 -68.34455 
L 252.514926 -61.486577 
L 247.825413 -53.853985 
L 243.1359 -49.905117 
L 238.446387 -51.63683 
L 233.756874 -54.836053 
L 229.067361 -54.957599 
L 224.377847 -55.452219 
L 219.688334 -57.769255 
L 214.998821 -61.312625 
L 210.309308 -67.388021 
L 205.619795 -73.106428 
L 200.930282 -75.500677 
L 196.240769 -76.235681 
L 191.551256 -77.058809 
L 186.861743 -77.84741 
L 182.17223 -78.223636 
z
" id="mb79842176b" style="stroke:#4c4c4c;stroke-width:1.5;"/>
    </defs>
    <g clip-path="url(#p37002f52d4)">
     <use style="fill:#df2020;stroke:#4c4c4c;stroke-width:1.5;" x="0" xlink:href="#mb79842176b" y="400.04775"/>
    </g>
   </g>
   <g id="matplotlib.axis_1">
    <g id="xtick_1">
     <g id="line2d_1">
      <defs>
       <path d="M 0 0 
L 0 3.5 
" id="mf652865d7f" style="stroke:#000000;stroke-width:0.8;"/>
      </defs>
      <g>
       <use style="stroke:#000000;stroke-width:0.8;" x="173.644961" xlink:href="#mf652865d7f" y="362.4915"/>
      </g>
     </g>
     <g id="text_1">
      <!-- 0.0 -->
      <defs>
       <path d="M 31.78125 66.40625 
Q 24.171875 66.40625 20.328125 58.90625 
Q 16.5 51.421875 16.5 36.375 
Q 16.5 21.390625 20.328125 13.890625 
Q 24.171875 6.390625 31.78125 6.390625 
Q 39.453125 6.390625 43.28125 13.890625 
Q 47.125 21.390625 47.125 36.375 
Q 47.125 51.421875 43.28125 58.90625 
Q 39.453125 66.40625 31.78125 66.40625 
z
M 31.78125 74.21875 
Q 44.046875 74.21875 50.515625 64.515625 
Q 56.984375 54.828125 56.984375 36.375 
Q 56.984375 17.96875 50.515625 8.265625 
Q 44.046875 -1.421875 31.78125 -1.421875 
Q 19.53125 -1.421875 13.0625 8.265625 
Q 6.59375 17.96875 6.59375 36.375 
Q 6.59375 54.828125 13.0625 64.515625 
Q 19.53125 74.21875 31.78125 74.21875 
z
" id="DejaVuSans-48"/>
       <path d="M 10.6875 12.40625 
L 21 12.40625 
L 21 0 
L 10.6875 0 
z
" id="DejaVuSans-46"/>
      </defs>
      <g transform="translate(165.693399 377.089938)scale(0.1 -0.1)">
       <use xlink:href="#DejaVuSans-48"/>
       <use x="63.623047" xlink:href="#DejaVuSans-46"/>
       <use x="95.410156" xlink:href="#DejaVuSans-48"/>
      </g>
     </g>
    </g>
    <g id="xtick_2">
     <g id="line2d_2">
      <g>
       <use style="stroke:#000000;stroke-width:0.8;" x="289.818944" xlink:href="#mf652865d7f" y="362.4915"/>
      </g>
     </g>
     <g id="text_2">
      <!-- 0.1 -->
      <defs>
       <path d="M 12.40625 8.296875 
L 28.515625 8.296875 
L 28.515625 63.921875 
L 10.984375 60.40625 
L 10.984375 69.390625 
L 28.421875 72.90625 
L 38.28125 72.90625 
L 38.28125 8.296875 
L 54.390625 8.296875 
L 54.390625 0 
L 12.40625 0 
z
" id="DejaVuSans-49"/>
      </defs>
      <g transform="translate(281.867381 377.089938)scale(0.1 -0.1)">
       <use xlink:href="#DejaVuSans-48"/>
       <use x="63.623047" xlink:href="#DejaVuSans-46"/>
       <use x="95.410156" xlink:href="#DejaVuSans-49"/>
      </g>
     </g>
    </g>
    <g id="xtick_3">
     <g id="line2d_3">
      <g>
       <use style="stroke:#000000;stroke-width:0.8;" x="405.992926" xlink:href="#mf652865d7f" y="362.4915"/>
      </g>
     </g>
     <g id="text_3">
      <!-- 0.2 -->
      <defs>
       <path d="M 19.1875 8.296875 
L 53.609375 8.296875 
L 53.609375 0 
L 7.328125 0 
L 7.328125 8.296875 
Q 12.9375 14.109375 22.625 23.890625 
Q 32.328125 33.6875 34.8125 36.53125 
Q 39.546875 41.84375 41.421875 45.53125 
Q 43.3125 49.21875 43.3125 52.78125 
Q 43.3125 58.59375 39.234375 62.25 
Q 35.15625 65.921875 28.609375 65.921875 
Q 23.96875 65.921875 18.8125 64.3125 
Q 13.671875 62.703125 7.8125 59.421875 
L 7.8125 69.390625 
Q 13.765625 71.78125 18.9375 73 
Q 24.125 74.21875 28.421875 74.21875 
Q 39.75 74.21875 46.484375 68.546875 
Q 53.21875 62.890625 53.21875 53.421875 
Q 53.21875 48.921875 51.53125 44.890625 
Q 49.859375 40.875 45.40625 35.40625 
Q 44.1875 33.984375 37.640625 27.21875 
Q 31.109375 20.453125 19.1875 8.296875 
z
" id="DejaVuSans-50"/>
      </defs>
      <g transform="translate(398.041363 377.089938)scale(0.1 -0.1)">
       <use xlink:href="#DejaVuSans-48"/>
       <use x="63.623047" xlink:href="#DejaVuSans-46"/>
       <use x="95.410156" xlink:href="#DejaVuSans-50"/>
      </g>
     </g>
    </g>
    <g id="xtick_4">
     <g id="line2d_4">
      <g>
       <use style="stroke:#000000;stroke-width:0.8;" x="522.166908" xlink:href="#mf652865d7f" y="362.4915"/>
      </g>
     </g>
     <g id="text_4">
      <!-- 0.3 -->
      <defs>
       <path d="M 40.578125 39.3125 
Q 47.65625 37.796875 51.625 33 
Q 55.609375 28.21875 55.609375 21.1875 
Q 55.609375 10.40625 48.1875 4.484375 
Q 40.765625 -1.421875 27.09375 -1.421875 
Q 22.515625 -1.421875 17.65625 -0.515625 
Q 12.796875 0.390625 7.625 2.203125 
L 7.625 11.71875 
Q 11.71875 9.328125 16.59375 8.109375 
Q 21.484375 6.890625 26.8125 6.890625 
Q 36.078125 6.890625 40.9375 10.546875 
Q 45.796875 14.203125 45.796875 21.1875 
Q 45.796875 27.640625 41.28125 31.265625 
Q 36.765625 34.90625 28.71875 34.90625 
L 20.21875 34.90625 
L 20.21875 43.015625 
L 29.109375 43.015625 
Q 36.375 43.015625 40.234375 45.921875 
Q 44.09375 48.828125 44.09375 54.296875 
Q 44.09375 59.90625 40.109375 62.90625 
Q 36.140625 65.921875 28.71875 65.921875 
Q 24.65625 65.921875 20.015625 65.03125 
Q 15.375 64.15625 9.8125 62.3125 
L 9.8125 71.09375 
Q 15.4375 72.65625 20.34375 73.4375 
Q 25.25 74.21875 29.59375 74.21875 
Q 40.828125 74.21875 47.359375 69.109375 
Q 53.90625 64.015625 53.90625 55.328125 
Q 53.90625 49.265625 50.4375 45.09375 
Q 46.96875 40.921875 40.578125 39.3125 
z
" id="DejaVuSans-51"/>
      </defs>
      <g transform="translate(514.215346 377.089938)scale(0.1 -0.1)">
       <use xlink:href="#DejaVuSans-48"/>
       <use x="63.623047" xlink:href="#DejaVuSans-46"/>
       <use x="95.410156" xlink:href="#DejaVuSans-51"/>
      </g>
     </g>
    </g>
    <g id="xtick_5">
     <g id="line2d_5">
      <g>
       <use style="stroke:#000000;stroke-width:0.8;" x="638.34089" xlink:href="#mf652865d7f" y="362.4915"/>
      </g>
     </g>
     <g id="text_5">
      <!-- 0.4 -->
      <defs>
       <path d="M 37.796875 64.3125 
L 12.890625 25.390625 
L 37.796875 25.390625 
z
M 35.203125 72.90625 
L 47.609375 72.90625 
L 47.609375 25.390625 
L 58.015625 25.390625 
L 58.015625 17.1875 
L 47.609375 17.1875 
L 47.609375 0 
L 37.796875 0 
L 37.796875 17.1875 
L 4.890625 17.1875 
L 4.890625 26.703125 
z
" id="DejaVuSans-52"/>
      </defs>
      <g transform="translate(630.389328 377.089938)scale(0.1 -0.1)">
       <use xlink:href="#DejaVuSans-48"/>
       <use x="63.623047" xlink:href="#DejaVuSans-46"/>
       <use x="95.410156" xlink:href="#DejaVuSans-52"/>
      </g>
     </g>
    </g>
    <g id="text_6">
     <!-- Tasa con NBI -->
     <defs>
      <path d="M -0.296875 72.90625 
L 61.375 72.90625 
L 61.375 64.59375 
L 35.5 64.59375 
L 35.5 0 
L 25.59375 0 
L 25.59375 64.59375 
L -0.296875 64.59375 
z
" id="DejaVuSans-84"/>
      <path d="M 34.28125 27.484375 
Q 23.390625 27.484375 19.1875 25 
Q 14.984375 22.515625 14.984375 16.5 
Q 14.984375 11.71875 18.140625 8.90625 
Q 21.296875 6.109375 26.703125 6.109375 
Q 34.1875 6.109375 38.703125 11.40625 
Q 43.21875 16.703125 43.21875 25.484375 
L 43.21875 27.484375 
z
M 52.203125 31.203125 
L 52.203125 0 
L 43.21875 0 
L 43.21875 8.296875 
Q 40.140625 3.328125 35.546875 0.953125 
Q 30.953125 -1.421875 24.3125 -1.421875 
Q 15.921875 -1.421875 10.953125 3.296875 
Q 6 8.015625 6 15.921875 
Q 6 25.140625 12.171875 29.828125 
Q 18.359375 34.515625 30.609375 34.515625 
L 43.21875 34.515625 
L 43.21875 35.40625 
Q 43.21875 41.609375 39.140625 45 
Q 35.0625 48.390625 27.6875 48.390625 
Q 23 48.390625 18.546875 47.265625 
Q 14.109375 46.140625 10.015625 43.890625 
L 10.015625 52.203125 
Q 14.9375 54.109375 19.578125 55.046875 
Q 24.21875 56 28.609375 56 
Q 40.484375 56 46.34375 49.84375 
Q 52.203125 43.703125 52.203125 31.203125 
z
" id="DejaVuSans-97"/>
      <path d="M 44.28125 53.078125 
L 44.28125 44.578125 
Q 40.484375 46.53125 36.375 47.5 
Q 32.28125 48.484375 27.875 48.484375 
Q 21.1875 48.484375 17.84375 46.4375 
Q 14.5 44.390625 14.5 40.28125 
Q 14.5 37.15625 16.890625 35.375 
Q 19.28125 33.59375 26.515625 31.984375 
L 29.59375 31.296875 
Q 39.15625 29.25 43.1875 25.515625 
Q 47.21875 21.78125 47.21875 15.09375 
Q 47.21875 7.46875 41.1875 3.015625 
Q 35.15625 -1.421875 24.609375 -1.421875 
Q 20.21875 -1.421875 15.453125 -0.5625 
Q 10.6875 0.296875 5.421875 2 
L 5.421875 11.28125 
Q 10.40625 8.6875 15.234375 7.390625 
Q 20.0625 6.109375 24.8125 6.109375 
Q 31.15625 6.109375 34.5625 8.28125 
Q 37.984375 10.453125 37.984375 14.40625 
Q 37.984375 18.0625 35.515625 20.015625 
Q 33.0625 21.96875 24.703125 23.78125 
L 21.578125 24.515625 
Q 13.234375 26.265625 9.515625 29.90625 
Q 5.8125 33.546875 5.8125 39.890625 
Q 5.8125 47.609375 11.28125 51.796875 
Q 16.75 56 26.8125 56 
Q 31.78125 56 36.171875 55.265625 
Q 40.578125 54.546875 44.28125 53.078125 
z
" id="DejaVuSans-115"/>
      <path id="DejaVuSans-32"/>
      <path d="M 48.78125 52.59375 
L 48.78125 44.1875 
Q 44.96875 46.296875 41.140625 47.34375 
Q 37.3125 48.390625 33.40625 48.390625 
Q 24.65625 48.390625 19.8125 42.84375 
Q 14.984375 37.3125 14.984375 27.296875 
Q 14.984375 17.28125 19.8125 11.734375 
Q 24.65625 6.203125 33.40625 6.203125 
Q 37.3125 6.203125 41.140625 7.25 
Q 44.96875 8.296875 48.78125 10.40625 
L 48.78125 2.09375 
Q 45.015625 0.34375 40.984375 -0.53125 
Q 36.96875 -1.421875 32.421875 -1.421875 
Q 20.0625 -1.421875 12.78125 6.34375 
Q 5.515625 14.109375 5.515625 27.296875 
Q 5.515625 40.671875 12.859375 48.328125 
Q 20.21875 56 33.015625 56 
Q 37.15625 56 41.109375 55.140625 
Q 45.0625 54.296875 48.78125 52.59375 
z
" id="DejaVuSans-99"/>
      <path d="M 30.609375 48.390625 
Q 23.390625 48.390625 19.1875 42.75 
Q 14.984375 37.109375 14.984375 27.296875 
Q 14.984375 17.484375 19.15625 11.84375 
Q 23.34375 6.203125 30.609375 6.203125 
Q 37.796875 6.203125 41.984375 11.859375 
Q 46.1875 17.53125 46.1875 27.296875 
Q 46.1875 37.015625 41.984375 42.703125 
Q 37.796875 48.390625 30.609375 48.390625 
z
M 30.609375 56 
Q 42.328125 56 49.015625 48.375 
Q 55.71875 40.765625 55.71875 27.296875 
Q 55.71875 13.875 49.015625 6.21875 
Q 42.328125 -1.421875 30.609375 -1.421875 
Q 18.84375 -1.421875 12.171875 6.21875 
Q 5.515625 13.875 5.515625 27.296875 
Q 5.515625 40.765625 12.171875 48.375 
Q 18.84375 56 30.609375 56 
z
" id="DejaVuSans-111"/>
      <path d="M 54.890625 33.015625 
L 54.890625 0 
L 45.90625 0 
L 45.90625 32.71875 
Q 45.90625 40.484375 42.875 44.328125 
Q 39.84375 48.1875 33.796875 48.1875 
Q 26.515625 48.1875 22.3125 43.546875 
Q 18.109375 38.921875 18.109375 30.90625 
L 18.109375 0 
L 9.078125 0 
L 9.078125 54.6875 
L 18.109375 54.6875 
L 18.109375 46.1875 
Q 21.34375 51.125 25.703125 53.5625 
Q 30.078125 56 35.796875 56 
Q 45.21875 56 50.046875 50.171875 
Q 54.890625 44.34375 54.890625 33.015625 
z
" id="DejaVuSans-110"/>
      <path d="M 9.8125 72.90625 
L 23.09375 72.90625 
L 55.421875 11.921875 
L 55.421875 72.90625 
L 64.984375 72.90625 
L 64.984375 0 
L 51.703125 0 
L 19.390625 60.984375 
L 19.390625 0 
L 9.8125 0 
z
" id="DejaVuSans-78"/>
      <path d="M 19.671875 34.8125 
L 19.671875 8.109375 
L 35.5 8.109375 
Q 43.453125 8.109375 47.28125 11.40625 
Q 51.125 14.703125 51.125 21.484375 
Q 51.125 28.328125 47.28125 31.5625 
Q 43.453125 34.8125 35.5 34.8125 
z
M 19.671875 64.796875 
L 19.671875 42.828125 
L 34.28125 42.828125 
Q 41.5 42.828125 45.03125 45.53125 
Q 48.578125 48.25 48.578125 53.8125 
Q 48.578125 59.328125 45.03125 62.0625 
Q 41.5 64.796875 34.28125 64.796875 
z
M 9.8125 72.90625 
L 35.015625 72.90625 
Q 46.296875 72.90625 52.390625 68.21875 
Q 58.5 63.53125 58.5 54.890625 
Q 58.5 48.1875 55.375 44.234375 
Q 52.25 40.28125 46.1875 39.3125 
Q 53.46875 37.75 57.5 32.78125 
Q 61.53125 27.828125 61.53125 20.40625 
Q 61.53125 10.640625 54.890625 5.3125 
Q 48.25 0 35.984375 0 
L 9.8125 0 
z
" id="DejaVuSans-66"/>
      <path d="M 9.8125 72.90625 
L 19.671875 72.90625 
L 19.671875 0 
L 9.8125 0 
z
" id="DejaVuSans-73"/>
     </defs>
     <g transform="translate(381.727344 390.768062)scale(0.1 -0.1)">
      <use xlink:href="#DejaVuSans-84"/>
      <use x="60.833984" xlink:href="#DejaVuSans-97"/>
      <use x="122.113281" xlink:href="#DejaVuSans-115"/>
      <use x="174.212891" xlink:href="#DejaVuSans-97"/>
      <use x="235.492188" xlink:href="#DejaVuSans-32"/>
      <use x="267.279297" xlink:href="#DejaVuSans-99"/>
      <use x="322.259766" xlink:href="#DejaVuSans-111"/>
      <use x="383.441406" xlink:href="#DejaVuSans-110"/>
      <use x="446.820312" xlink:href="#DejaVuSans-32"/>
      <use x="478.607422" xlink:href="#DejaVuSans-78"/>
      <use x="553.412109" xlink:href="#DejaVuSans-66"/>
      <use x="622.015625" xlink:href="#DejaVuSans-73"/>
     </g>
    </g>
   </g>
   <g id="matplotlib.axis_2">
    <g id="ytick_1">
     <g id="line2d_6">
      <defs>
       <path d="M 0 0 
L -3.5 0 
" id="m36cc52cf75" style="stroke:#000000;stroke-width:0.8;"/>
      </defs>
      <g>
       <use style="stroke:#000000;stroke-width:0.8;" x="135.303125" xlink:href="#m36cc52cf75" y="77.1015"/>
      </g>
     </g>
     <g id="text_7">
      <!-- Avanzado -->
      <defs>
       <path d="M 34.1875 63.1875 
L 20.796875 26.90625 
L 47.609375 26.90625 
z
M 28.609375 72.90625 
L 39.796875 72.90625 
L 67.578125 0 
L 57.328125 0 
L 50.6875 18.703125 
L 17.828125 18.703125 
L 11.1875 0 
L 0.78125 0 
z
" id="DejaVuSans-65"/>
       <path d="M 2.984375 54.6875 
L 12.5 54.6875 
L 29.59375 8.796875 
L 46.6875 54.6875 
L 56.203125 54.6875 
L 35.6875 0 
L 23.484375 0 
z
" id="DejaVuSans-118"/>
       <path d="M 5.515625 54.6875 
L 48.1875 54.6875 
L 48.1875 46.484375 
L 14.40625 7.171875 
L 48.1875 7.171875 
L 48.1875 0 
L 4.296875 0 
L 4.296875 8.203125 
L 38.09375 47.515625 
L 5.515625 47.515625 
z
" id="DejaVuSans-122"/>
       <path d="M 45.40625 46.390625 
L 45.40625 75.984375 
L 54.390625 75.984375 
L 54.390625 0 
L 45.40625 0 
L 45.40625 8.203125 
Q 42.578125 3.328125 38.25 0.953125 
Q 33.9375 -1.421875 27.875 -1.421875 
Q 17.96875 -1.421875 11.734375 6.484375 
Q 5.515625 14.40625 5.515625 27.296875 
Q 5.515625 40.1875 11.734375 48.09375 
Q 17.96875 56 27.875 56 
Q 33.9375 56 38.25 53.625 
Q 42.578125 51.265625 45.40625 46.390625 
z
M 14.796875 27.296875 
Q 14.796875 17.390625 18.875 11.75 
Q 22.953125 6.109375 30.078125 6.109375 
Q 37.203125 6.109375 41.296875 11.75 
Q 45.40625 17.390625 45.40625 27.296875 
Q 45.40625 37.203125 41.296875 42.84375 
Q 37.203125 48.484375 30.078125 48.484375 
Q 22.953125 48.484375 18.875 42.84375 
Q 14.796875 37.203125 14.796875 27.296875 
z
" id="DejaVuSans-100"/>
      </defs>
      <g transform="translate(79.242188 80.900719)scale(0.1 -0.1)">
       <use xlink:href="#DejaVuSans-65"/>
       <use x="68.330078" xlink:href="#DejaVuSans-118"/>
       <use x="127.509766" xlink:href="#DejaVuSans-97"/>
       <use x="188.789062" xlink:href="#DejaVuSans-110"/>
       <use x="252.167969" xlink:href="#DejaVuSans-122"/>
       <use x="304.658203" xlink:href="#DejaVuSans-97"/>
       <use x="365.9375" xlink:href="#DejaVuSans-100"/>
       <use x="429.414062" xlink:href="#DejaVuSans-111"/>
      </g>
     </g>
    </g>
    <g id="ytick_2">
     <g id="line2d_7">
      <g>
       <use style="stroke:#000000;stroke-width:0.8;" x="135.303125" xlink:href="#m36cc52cf75" y="158.6415"/>
      </g>
     </g>
     <g id="text_8">
      <!-- Satisfactorio -->
      <defs>
       <path d="M 53.515625 70.515625 
L 53.515625 60.890625 
Q 47.90625 63.578125 42.921875 64.890625 
Q 37.9375 66.21875 33.296875 66.21875 
Q 25.25 66.21875 20.875 63.09375 
Q 16.5 59.96875 16.5 54.203125 
Q 16.5 49.359375 19.40625 46.890625 
Q 22.3125 44.4375 30.421875 42.921875 
L 36.375 41.703125 
Q 47.40625 39.59375 52.65625 34.296875 
Q 57.90625 29 57.90625 20.125 
Q 57.90625 9.515625 50.796875 4.046875 
Q 43.703125 -1.421875 29.984375 -1.421875 
Q 24.8125 -1.421875 18.96875 -0.25 
Q 13.140625 0.921875 6.890625 3.21875 
L 6.890625 13.375 
Q 12.890625 10.015625 18.65625 8.296875 
Q 24.421875 6.59375 29.984375 6.59375 
Q 38.421875 6.59375 43.015625 9.90625 
Q 47.609375 13.234375 47.609375 19.390625 
Q 47.609375 24.75 44.3125 27.78125 
Q 41.015625 30.8125 33.5 32.328125 
L 27.484375 33.5 
Q 16.453125 35.6875 11.515625 40.375 
Q 6.59375 45.0625 6.59375 53.421875 
Q 6.59375 63.09375 13.40625 68.65625 
Q 20.21875 74.21875 32.171875 74.21875 
Q 37.3125 74.21875 42.625 73.28125 
Q 47.953125 72.359375 53.515625 70.515625 
z
" id="DejaVuSans-83"/>
       <path d="M 18.3125 70.21875 
L 18.3125 54.6875 
L 36.8125 54.6875 
L 36.8125 47.703125 
L 18.3125 47.703125 
L 18.3125 18.015625 
Q 18.3125 11.328125 20.140625 9.421875 
Q 21.96875 7.515625 27.59375 7.515625 
L 36.8125 7.515625 
L 36.8125 0 
L 27.59375 0 
Q 17.1875 0 13.234375 3.875 
Q 9.28125 7.765625 9.28125 18.015625 
L 9.28125 47.703125 
L 2.6875 47.703125 
L 2.6875 54.6875 
L 9.28125 54.6875 
L 9.28125 70.21875 
z
" id="DejaVuSans-116"/>
       <path d="M 9.421875 54.6875 
L 18.40625 54.6875 
L 18.40625 0 
L 9.421875 0 
z
M 9.421875 75.984375 
L 18.40625 75.984375 
L 18.40625 64.59375 
L 9.421875 64.59375 
z
" id="DejaVuSans-105"/>
       <path d="M 37.109375 75.984375 
L 37.109375 68.5 
L 28.515625 68.5 
Q 23.6875 68.5 21.796875 66.546875 
Q 19.921875 64.59375 19.921875 59.515625 
L 19.921875 54.6875 
L 34.71875 54.6875 
L 34.71875 47.703125 
L 19.921875 47.703125 
L 19.921875 0 
L 10.890625 0 
L 10.890625 47.703125 
L 2.296875 47.703125 
L 2.296875 54.6875 
L 10.890625 54.6875 
L 10.890625 58.5 
Q 10.890625 67.625 15.140625 71.796875 
Q 19.390625 75.984375 28.609375 75.984375 
z
" id="DejaVuSans-102"/>
       <path d="M 41.109375 46.296875 
Q 39.59375 47.171875 37.8125 47.578125 
Q 36.03125 48 33.890625 48 
Q 26.265625 48 22.1875 43.046875 
Q 18.109375 38.09375 18.109375 28.8125 
L 18.109375 0 
L 9.078125 0 
L 9.078125 54.6875 
L 18.109375 54.6875 
L 18.109375 46.1875 
Q 20.953125 51.171875 25.484375 53.578125 
Q 30.03125 56 36.53125 56 
Q 37.453125 56 38.578125 55.875 
Q 39.703125 55.765625 41.0625 55.515625 
z
" id="DejaVuSans-114"/>
      </defs>
      <g transform="translate(65.725 162.440719)scale(0.1 -0.1)">
       <use xlink:href="#DejaVuSans-83"/>
       <use x="63.476562" xlink:href="#DejaVuSans-97"/>
       <use x="124.755859" xlink:href="#DejaVuSans-116"/>
       <use x="163.964844" xlink:href="#DejaVuSans-105"/>
       <use x="191.748047" xlink:href="#DejaVuSans-115"/>
       <use x="243.847656" xlink:href="#DejaVuSans-102"/>
       <use x="279.052734" xlink:href="#DejaVuSans-97"/>
       <use x="340.332031" xlink:href="#DejaVuSans-99"/>
       <use x="395.3125" xlink:href="#DejaVuSans-116"/>
       <use x="434.521484" xlink:href="#DejaVuSans-111"/>
       <use x="495.703125" xlink:href="#DejaVuSans-114"/>
       <use x="536.816406" xlink:href="#DejaVuSans-105"/>
       <use x="564.599609" xlink:href="#DejaVuSans-111"/>
      </g>
     </g>
    </g>
    <g id="ytick_3">
     <g id="line2d_8">
      <g>
       <use style="stroke:#000000;stroke-width:0.8;" x="135.303125" xlink:href="#m36cc52cf75" y="240.1815"/>
      </g>
     </g>
     <g id="text_9">
      <!-- B치sico -->
      <defs>
       <path d="M 34.28125 27.484375 
Q 23.390625 27.484375 19.1875 25 
Q 14.984375 22.515625 14.984375 16.5 
Q 14.984375 11.71875 18.140625 8.90625 
Q 21.296875 6.109375 26.703125 6.109375 
Q 34.1875 6.109375 38.703125 11.40625 
Q 43.21875 16.703125 43.21875 25.484375 
L 43.21875 27.484375 
z
M 52.203125 31.203125 
L 52.203125 0 
L 43.21875 0 
L 43.21875 8.296875 
Q 40.140625 3.328125 35.546875 0.953125 
Q 30.953125 -1.421875 24.3125 -1.421875 
Q 15.921875 -1.421875 10.953125 3.296875 
Q 6 8.015625 6 15.921875 
Q 6 25.140625 12.171875 29.828125 
Q 18.359375 34.515625 30.609375 34.515625 
L 43.21875 34.515625 
L 43.21875 35.40625 
Q 43.21875 41.609375 39.140625 45 
Q 35.0625 48.390625 27.6875 48.390625 
Q 23 48.390625 18.546875 47.265625 
Q 14.109375 46.140625 10.015625 43.890625 
L 10.015625 52.203125 
Q 14.9375 54.109375 19.578125 55.046875 
Q 24.21875 56 28.609375 56 
Q 40.484375 56 46.34375 49.84375 
Q 52.203125 43.703125 52.203125 31.203125 
z
M 35.796875 79.984375 
L 45.515625 79.984375 
L 29.59375 61.625 
L 22.125 61.625 
z
" id="DejaVuSans-225"/>
      </defs>
      <g transform="translate(95.709375 243.980719)scale(0.1 -0.1)">
       <use xlink:href="#DejaVuSans-66"/>
       <use x="68.603516" xlink:href="#DejaVuSans-225"/>
       <use x="129.882812" xlink:href="#DejaVuSans-115"/>
       <use x="181.982422" xlink:href="#DejaVuSans-105"/>
       <use x="209.765625" xlink:href="#DejaVuSans-99"/>
       <use x="264.746094" xlink:href="#DejaVuSans-111"/>
      </g>
     </g>
    </g>
    <g id="ytick_4">
     <g id="line2d_9">
      <g>
       <use style="stroke:#000000;stroke-width:0.8;" x="135.303125" xlink:href="#m36cc52cf75" y="321.7215"/>
      </g>
     </g>
     <g id="text_10">
      <!-- Por debajo del b치sico -->
      <defs>
       <path d="M 19.671875 64.796875 
L 19.671875 37.40625 
L 32.078125 37.40625 
Q 38.96875 37.40625 42.71875 40.96875 
Q 46.484375 44.53125 46.484375 51.125 
Q 46.484375 57.671875 42.71875 61.234375 
Q 38.96875 64.796875 32.078125 64.796875 
z
M 9.8125 72.90625 
L 32.078125 72.90625 
Q 44.34375 72.90625 50.609375 67.359375 
Q 56.890625 61.8125 56.890625 51.125 
Q 56.890625 40.328125 50.609375 34.8125 
Q 44.34375 29.296875 32.078125 29.296875 
L 19.671875 29.296875 
L 19.671875 0 
L 9.8125 0 
z
" id="DejaVuSans-80"/>
       <path d="M 56.203125 29.59375 
L 56.203125 25.203125 
L 14.890625 25.203125 
Q 15.484375 15.921875 20.484375 11.0625 
Q 25.484375 6.203125 34.421875 6.203125 
Q 39.59375 6.203125 44.453125 7.46875 
Q 49.3125 8.734375 54.109375 11.28125 
L 54.109375 2.78125 
Q 49.265625 0.734375 44.1875 -0.34375 
Q 39.109375 -1.421875 33.890625 -1.421875 
Q 20.796875 -1.421875 13.15625 6.1875 
Q 5.515625 13.8125 5.515625 26.8125 
Q 5.515625 40.234375 12.765625 48.109375 
Q 20.015625 56 32.328125 56 
Q 43.359375 56 49.78125 48.890625 
Q 56.203125 41.796875 56.203125 29.59375 
z
M 47.21875 32.234375 
Q 47.125 39.59375 43.09375 43.984375 
Q 39.0625 48.390625 32.421875 48.390625 
Q 24.90625 48.390625 20.390625 44.140625 
Q 15.875 39.890625 15.1875 32.171875 
z
" id="DejaVuSans-101"/>
       <path d="M 48.6875 27.296875 
Q 48.6875 37.203125 44.609375 42.84375 
Q 40.53125 48.484375 33.40625 48.484375 
Q 26.265625 48.484375 22.1875 42.84375 
Q 18.109375 37.203125 18.109375 27.296875 
Q 18.109375 17.390625 22.1875 11.75 
Q 26.265625 6.109375 33.40625 6.109375 
Q 40.53125 6.109375 44.609375 11.75 
Q 48.6875 17.390625 48.6875 27.296875 
z
M 18.109375 46.390625 
Q 20.953125 51.265625 25.265625 53.625 
Q 29.59375 56 35.59375 56 
Q 45.5625 56 51.78125 48.09375 
Q 58.015625 40.1875 58.015625 27.296875 
Q 58.015625 14.40625 51.78125 6.484375 
Q 45.5625 -1.421875 35.59375 -1.421875 
Q 29.59375 -1.421875 25.265625 0.953125 
Q 20.953125 3.328125 18.109375 8.203125 
L 18.109375 0 
L 9.078125 0 
L 9.078125 75.984375 
L 18.109375 75.984375 
z
" id="DejaVuSans-98"/>
       <path d="M 9.421875 54.6875 
L 18.40625 54.6875 
L 18.40625 -0.984375 
Q 18.40625 -11.421875 14.421875 -16.109375 
Q 10.453125 -20.796875 1.609375 -20.796875 
L -1.8125 -20.796875 
L -1.8125 -13.1875 
L 0.59375 -13.1875 
Q 5.71875 -13.1875 7.5625 -10.8125 
Q 9.421875 -8.453125 9.421875 -0.984375 
z
M 9.421875 75.984375 
L 18.40625 75.984375 
L 18.40625 64.59375 
L 9.421875 64.59375 
z
" id="DejaVuSans-106"/>
       <path d="M 9.421875 75.984375 
L 18.40625 75.984375 
L 18.40625 0 
L 9.421875 0 
z
" id="DejaVuSans-108"/>
      </defs>
      <g transform="translate(21.278125 325.720719)scale(0.1 -0.1)">
       <use xlink:href="#DejaVuSans-80"/>
       <use x="60.255859" xlink:href="#DejaVuSans-111"/>
       <use x="121.4375" xlink:href="#DejaVuSans-114"/>
       <use x="162.550781" xlink:href="#DejaVuSans-32"/>
       <use x="194.337891" xlink:href="#DejaVuSans-100"/>
       <use x="257.814453" xlink:href="#DejaVuSans-101"/>
       <use x="319.337891" xlink:href="#DejaVuSans-98"/>
       <use x="382.814453" xlink:href="#DejaVuSans-97"/>
       <use x="444.09375" xlink:href="#DejaVuSans-106"/>
       <use x="471.876953" xlink:href="#DejaVuSans-111"/>
       <use x="533.058594" xlink:href="#DejaVuSans-32"/>
       <use x="564.845703" xlink:href="#DejaVuSans-100"/>
       <use x="628.322266" xlink:href="#DejaVuSans-101"/>
       <use x="689.845703" xlink:href="#DejaVuSans-108"/>
       <use x="717.628906" xlink:href="#DejaVuSans-32"/>
       <use x="749.416016" xlink:href="#DejaVuSans-98"/>
       <use x="812.892578" xlink:href="#DejaVuSans-225"/>
       <use x="874.171875" xlink:href="#DejaVuSans-115"/>
       <use x="926.271484" xlink:href="#DejaVuSans-105"/>
       <use x="954.054688" xlink:href="#DejaVuSans-99"/>
       <use x="1009.035156" xlink:href="#DejaVuSans-111"/>
      </g>
     </g>
    </g>
    <g id="text_11">
     <!-- Nivel de desempe침o en matem치tica -->
     <defs>
      <path d="M 52 44.1875 
Q 55.375 50.25 60.0625 53.125 
Q 64.75 56 71.09375 56 
Q 79.640625 56 84.28125 50.015625 
Q 88.921875 44.046875 88.921875 33.015625 
L 88.921875 0 
L 79.890625 0 
L 79.890625 32.71875 
Q 79.890625 40.578125 77.09375 44.375 
Q 74.3125 48.1875 68.609375 48.1875 
Q 61.625 48.1875 57.5625 43.546875 
Q 53.515625 38.921875 53.515625 30.90625 
L 53.515625 0 
L 44.484375 0 
L 44.484375 32.71875 
Q 44.484375 40.625 41.703125 44.40625 
Q 38.921875 48.1875 33.109375 48.1875 
Q 26.21875 48.1875 22.15625 43.53125 
Q 18.109375 38.875 18.109375 30.90625 
L 18.109375 0 
L 9.078125 0 
L 9.078125 54.6875 
L 18.109375 54.6875 
L 18.109375 46.1875 
Q 21.1875 51.21875 25.484375 53.609375 
Q 29.78125 56 35.6875 56 
Q 41.65625 56 45.828125 52.96875 
Q 50 49.953125 52 44.1875 
z
" id="DejaVuSans-109"/>
      <path d="M 18.109375 8.203125 
L 18.109375 -20.796875 
L 9.078125 -20.796875 
L 9.078125 54.6875 
L 18.109375 54.6875 
L 18.109375 46.390625 
Q 20.953125 51.265625 25.265625 53.625 
Q 29.59375 56 35.59375 56 
Q 45.5625 56 51.78125 48.09375 
Q 58.015625 40.1875 58.015625 27.296875 
Q 58.015625 14.40625 51.78125 6.484375 
Q 45.5625 -1.421875 35.59375 -1.421875 
Q 29.59375 -1.421875 25.265625 0.953125 
Q 20.953125 3.328125 18.109375 8.203125 
z
M 48.6875 27.296875 
Q 48.6875 37.203125 44.609375 42.84375 
Q 40.53125 48.484375 33.40625 48.484375 
Q 26.265625 48.484375 22.1875 42.84375 
Q 18.109375 37.203125 18.109375 27.296875 
Q 18.109375 17.390625 22.1875 11.75 
Q 26.265625 6.109375 33.40625 6.109375 
Q 40.53125 6.109375 44.609375 11.75 
Q 48.6875 17.390625 48.6875 27.296875 
z
" id="DejaVuSans-112"/>
      <path d="M 54.890625 33.015625 
L 54.890625 0 
L 45.90625 0 
L 45.90625 32.71875 
Q 45.90625 40.484375 42.875 44.328125 
Q 39.84375 48.1875 33.796875 48.1875 
Q 26.515625 48.1875 22.3125 43.546875 
Q 18.109375 38.921875 18.109375 30.90625 
L 18.109375 0 
L 9.078125 0 
L 9.078125 54.6875 
L 18.109375 54.6875 
L 18.109375 46.1875 
Q 21.34375 51.125 25.703125 53.5625 
Q 30.078125 56 35.796875 56 
Q 45.21875 56 50.046875 50.171875 
Q 54.890625 44.34375 54.890625 33.015625 
z
M 32.234375 66.890625 
L 29.4375 69.578125 
Q 28.375 70.5625 27.5625 71.015625 
Q 26.765625 71.484375 26.125 71.484375 
Q 24.265625 71.484375 23.390625 69.703125 
Q 22.515625 67.921875 22.40625 63.921875 
L 16.3125 63.921875 
Q 16.40625 70.515625 18.890625 74.09375 
Q 21.390625 77.6875 25.828125 77.6875 
Q 27.6875 77.6875 29.25 77 
Q 30.8125 76.3125 32.625 74.703125 
L 35.40625 72.015625 
Q 36.46875 71.046875 37.28125 70.578125 
Q 38.09375 70.125 38.71875 70.125 
Q 40.578125 70.125 41.453125 71.90625 
Q 42.328125 73.6875 42.4375 77.6875 
L 48.53125 77.6875 
Q 48.4375 71.09375 45.9375 67.5 
Q 43.453125 63.921875 39.015625 63.921875 
Q 37.15625 63.921875 35.59375 64.59375 
Q 34.03125 65.28125 32.234375 66.890625 
z
" id="DejaVuSans-241"/>
     </defs>
     <g transform="translate(15.198438 290.16775)rotate(-90)scale(0.1 -0.1)">
      <use xlink:href="#DejaVuSans-78"/>
      <use x="74.804688" xlink:href="#DejaVuSans-105"/>
      <use x="102.587891" xlink:href="#DejaVuSans-118"/>
      <use x="161.767578" xlink:href="#DejaVuSans-101"/>
      <use x="223.291016" xlink:href="#DejaVuSans-108"/>
      <use x="251.074219" xlink:href="#DejaVuSans-32"/>
      <use x="282.861328" xlink:href="#DejaVuSans-100"/>
      <use x="346.337891" xlink:href="#DejaVuSans-101"/>
      <use x="407.861328" xlink:href="#DejaVuSans-32"/>
      <use x="439.648438" xlink:href="#DejaVuSans-100"/>
      <use x="503.125" xlink:href="#DejaVuSans-101"/>
      <use x="564.648438" xlink:href="#DejaVuSans-115"/>
      <use x="616.748047" xlink:href="#DejaVuSans-101"/>
      <use x="678.271484" xlink:href="#DejaVuSans-109"/>
      <use x="775.683594" xlink:href="#DejaVuSans-112"/>
      <use x="839.160156" xlink:href="#DejaVuSans-101"/>
      <use x="900.683594" xlink:href="#DejaVuSans-241"/>
      <use x="964.0625" xlink:href="#DejaVuSans-111"/>
      <use x="1025.244141" xlink:href="#DejaVuSans-32"/>
      <use x="1057.03125" xlink:href="#DejaVuSans-101"/>
      <use x="1118.554688" xlink:href="#DejaVuSans-110"/>
      <use x="1181.933594" xlink:href="#DejaVuSans-32"/>
      <use x="1213.720703" xlink:href="#DejaVuSans-109"/>
      <use x="1311.132812" xlink:href="#DejaVuSans-97"/>
      <use x="1372.412109" xlink:href="#DejaVuSans-116"/>
      <use x="1411.621094" xlink:href="#DejaVuSans-101"/>
      <use x="1473.144531" xlink:href="#DejaVuSans-109"/>
      <use x="1570.556641" xlink:href="#DejaVuSans-225"/>
      <use x="1631.835938" xlink:href="#DejaVuSans-116"/>
      <use x="1671.044922" xlink:href="#DejaVuSans-105"/>
      <use x="1698.828125" xlink:href="#DejaVuSans-99"/>
      <use x="1753.808594" xlink:href="#DejaVuSans-97"/>
     </g>
    </g>
   </g>
   <g id="line2d_10">
    <path clip-path="url(#p37002f52d4)" d="M 193.390116 77.1015 
L 421.243941 77.1015 
" style="fill:none;stroke:#4c4c4c;stroke-linecap:square;stroke-width:1.5;"/>
   </g>
   <g id="line2d_11">
    <path clip-path="url(#p37002f52d4)" d="M 227.885033 77.1015 
L 307.100803 77.1015 
" style="fill:none;stroke:#4c4c4c;stroke-linecap:square;stroke-width:4.5;"/>
   </g>
   <g id="line2d_12">
    <path clip-path="url(#p37002f52d4)" d="M 193.390116 158.6415 
L 410.788429 158.6415 
" style="fill:none;stroke:#4c4c4c;stroke-linecap:square;stroke-width:1.5;"/>
   </g>
   <g id="line2d_13">
    <path clip-path="url(#p37002f52d4)" d="M 240.570597 158.6415 
L 312.320437 158.6415 
" style="fill:none;stroke:#4c4c4c;stroke-linecap:square;stroke-width:4.5;"/>
   </g>
   <g id="line2d_14">
    <path clip-path="url(#p37002f52d4)" d="M 193.390116 240.1815 
L 421.243941 240.1815 
" style="fill:none;stroke:#4c4c4c;stroke-linecap:square;stroke-width:1.5;"/>
   </g>
   <g id="line2d_15">
    <path clip-path="url(#p37002f52d4)" d="M 240.591881 240.1815 
L 317.90252 240.1815 
" style="fill:none;stroke:#4c4c4c;stroke-linecap:square;stroke-width:4.5;"/>
   </g>
   <g id="line2d_16">
    <path clip-path="url(#p37002f52d4)" d="M 193.390116 321.7215 
L 439.374766 321.7215 
" style="fill:none;stroke:#4c4c4c;stroke-linecap:square;stroke-width:1.5;"/>
   </g>
   <g id="line2d_17">
    <path clip-path="url(#p37002f52d4)" d="M 241.023448 321.7215 
L 321.864307 321.7215 
" style="fill:none;stroke:#4c4c4c;stroke-linecap:square;stroke-width:4.5;"/>
   </g>
   <g id="patch_3">
    <path d="M 135.303125 362.4915 
L 135.303125 36.3315 
" style="fill:none;stroke:#000000;stroke-linecap:square;stroke-linejoin:miter;stroke-width:0.8;"/>
   </g>
   <g id="patch_4">
    <path d="M 693.303125 362.4915 
L 693.303125 36.3315 
" style="fill:none;stroke:#000000;stroke-linecap:square;stroke-linejoin:miter;stroke-width:0.8;"/>
   </g>
   <g id="patch_5">
    <path d="M 135.303125 362.4915 
L 693.303125 362.4915 
" style="fill:none;stroke:#000000;stroke-linecap:square;stroke-linejoin:miter;stroke-width:0.8;"/>
   </g>
   <g id="patch_6">
    <path d="M 135.303125 36.3315 
L 693.303125 36.3315 
" style="fill:none;stroke:#000000;stroke-linecap:square;stroke-linejoin:miter;stroke-width:0.8;"/>
   </g>
   <g id="PathCollection_1">
    <defs>
     <path d="M 0 1.5 
C 0.397805 1.5 0.77937 1.341951 1.06066 1.06066 
C 1.341951 0.77937 1.5 0.397805 1.5 0 
C 1.5 -0.397805 1.341951 -0.77937 1.06066 -1.06066 
C 0.77937 -1.341951 0.397805 -1.5 0 -1.5 
C -0.397805 -1.5 -0.77937 -1.341951 -1.06066 -1.06066 
C -1.341951 -0.77937 -1.5 -0.397805 -1.5 0 
C -1.5 0.397805 -1.341951 0.77937 -1.06066 1.06066 
C -0.77937 1.341951 -0.397805 1.5 0 1.5 
z
" id="m83df1975cd" style="stroke:#4c4c4c;"/>
    </defs>
    <g clip-path="url(#p37002f52d4)">
     <use style="fill:#ffffff;stroke:#4c4c4c;" x="253.45589" xlink:href="#m83df1975cd" y="77.1015"/>
    </g>
   </g>
   <g id="PathCollection_2">
    <g clip-path="url(#p37002f52d4)">
     <use style="fill:#ffffff;stroke:#4c4c4c;" x="277.205192" xlink:href="#m83df1975cd" y="158.6415"/>
    </g>
   </g>
   <g id="PathCollection_3">
    <g clip-path="url(#p37002f52d4)">
     <use style="fill:#ffffff;stroke:#4c4c4c;" x="280.629189" xlink:href="#m83df1975cd" y="240.1815"/>
    </g>
   </g>
   <g id="PathCollection_4">
    <g clip-path="url(#p37002f52d4)">
     <use style="fill:#ffffff;stroke:#4c4c4c;" x="283.227764" xlink:href="#m83df1975cd" y="321.7215"/>
    </g>
   </g>
   <g id="text_12">
    <!-- Distribuci칩n de: Tasa con NBI seg칰n el desempe침o en matem치tica -->
    <defs>
     <path d="M 19.671875 64.796875 
L 19.671875 8.109375 
L 31.59375 8.109375 
Q 46.6875 8.109375 53.6875 14.9375 
Q 60.6875 21.78125 60.6875 36.53125 
Q 60.6875 51.171875 53.6875 57.984375 
Q 46.6875 64.796875 31.59375 64.796875 
z
M 9.8125 72.90625 
L 30.078125 72.90625 
Q 51.265625 72.90625 61.171875 64.09375 
Q 71.09375 55.28125 71.09375 36.53125 
Q 71.09375 17.671875 61.125 8.828125 
Q 51.171875 0 30.078125 0 
L 9.8125 0 
z
" id="DejaVuSans-68"/>
     <path d="M 8.5 21.578125 
L 8.5 54.6875 
L 17.484375 54.6875 
L 17.484375 21.921875 
Q 17.484375 14.15625 20.5 10.265625 
Q 23.53125 6.390625 29.59375 6.390625 
Q 36.859375 6.390625 41.078125 11.03125 
Q 45.3125 15.671875 45.3125 23.6875 
L 45.3125 54.6875 
L 54.296875 54.6875 
L 54.296875 0 
L 45.3125 0 
L 45.3125 8.40625 
Q 42.046875 3.421875 37.71875 1 
Q 33.40625 -1.421875 27.6875 -1.421875 
Q 18.265625 -1.421875 13.375 4.4375 
Q 8.5 10.296875 8.5 21.578125 
z
M 31.109375 56 
z
" id="DejaVuSans-117"/>
     <path d="M 30.609375 48.390625 
Q 23.390625 48.390625 19.1875 42.75 
Q 14.984375 37.109375 14.984375 27.296875 
Q 14.984375 17.484375 19.15625 11.84375 
Q 23.34375 6.203125 30.609375 6.203125 
Q 37.796875 6.203125 41.984375 11.859375 
Q 46.1875 17.53125 46.1875 27.296875 
Q 46.1875 37.015625 41.984375 42.703125 
Q 37.796875 48.390625 30.609375 48.390625 
z
M 30.609375 56 
Q 42.328125 56 49.015625 48.375 
Q 55.71875 40.765625 55.71875 27.296875 
Q 55.71875 13.875 49.015625 6.21875 
Q 42.328125 -1.421875 30.609375 -1.421875 
Q 18.84375 -1.421875 12.171875 6.21875 
Q 5.515625 13.875 5.515625 27.296875 
Q 5.515625 40.765625 12.171875 48.375 
Q 18.84375 56 30.609375 56 
z
M 37.40625 79.984375 
L 47.125 79.984375 
L 31.203125 61.625 
L 23.734375 61.625 
z
" id="DejaVuSans-243"/>
     <path d="M 11.71875 12.40625 
L 22.015625 12.40625 
L 22.015625 0 
L 11.71875 0 
z
M 11.71875 51.703125 
L 22.015625 51.703125 
L 22.015625 39.3125 
L 11.71875 39.3125 
z
" id="DejaVuSans-58"/>
     <path d="M 45.40625 27.984375 
Q 45.40625 37.75 41.375 43.109375 
Q 37.359375 48.484375 30.078125 48.484375 
Q 22.859375 48.484375 18.828125 43.109375 
Q 14.796875 37.75 14.796875 27.984375 
Q 14.796875 18.265625 18.828125 12.890625 
Q 22.859375 7.515625 30.078125 7.515625 
Q 37.359375 7.515625 41.375 12.890625 
Q 45.40625 18.265625 45.40625 27.984375 
z
M 54.390625 6.78125 
Q 54.390625 -7.171875 48.1875 -13.984375 
Q 42 -20.796875 29.203125 -20.796875 
Q 24.46875 -20.796875 20.265625 -20.09375 
Q 16.0625 -19.390625 12.109375 -17.921875 
L 12.109375 -9.1875 
Q 16.0625 -11.328125 19.921875 -12.34375 
Q 23.78125 -13.375 27.78125 -13.375 
Q 36.625 -13.375 41.015625 -8.765625 
Q 45.40625 -4.15625 45.40625 5.171875 
L 45.40625 9.625 
Q 42.625 4.78125 38.28125 2.390625 
Q 33.9375 0 27.875 0 
Q 17.828125 0 11.671875 7.65625 
Q 5.515625 15.328125 5.515625 27.984375 
Q 5.515625 40.671875 11.671875 48.328125 
Q 17.828125 56 27.875 56 
Q 33.9375 56 38.28125 53.609375 
Q 42.625 51.21875 45.40625 46.390625 
L 45.40625 54.6875 
L 54.390625 54.6875 
z
" id="DejaVuSans-103"/>
     <path d="M 8.5 21.578125 
L 8.5 54.6875 
L 17.484375 54.6875 
L 17.484375 21.921875 
Q 17.484375 14.15625 20.5 10.265625 
Q 23.53125 6.390625 29.59375 6.390625 
Q 36.859375 6.390625 41.078125 11.03125 
Q 45.3125 15.671875 45.3125 23.6875 
L 45.3125 54.6875 
L 54.296875 54.6875 
L 54.296875 0 
L 45.3125 0 
L 45.3125 8.40625 
Q 42.046875 3.421875 37.71875 1 
Q 33.40625 -1.421875 27.6875 -1.421875 
Q 18.265625 -1.421875 13.375 4.4375 
Q 8.5 10.296875 8.5 21.578125 
z
M 31.109375 56 
z
M 37.796875 79.984375 
L 47.515625 79.984375 
L 31.59375 61.625 
L 24.125 61.625 
z
" id="DejaVuSans-250"/>
    </defs>
    <g transform="translate(214.08875 16.798125)scale(0.12 -0.12)">
     <use xlink:href="#DejaVuSans-68"/>
     <use x="77.001953" xlink:href="#DejaVuSans-105"/>
     <use x="104.785156" xlink:href="#DejaVuSans-115"/>
     <use x="156.884766" xlink:href="#DejaVuSans-116"/>
     <use x="196.09375" xlink:href="#DejaVuSans-114"/>
     <use x="237.207031" xlink:href="#DejaVuSans-105"/>
     <use x="264.990234" xlink:href="#DejaVuSans-98"/>
     <use x="328.466797" xlink:href="#DejaVuSans-117"/>
     <use x="391.845703" xlink:href="#DejaVuSans-99"/>
     <use x="446.826172" xlink:href="#DejaVuSans-105"/>
     <use x="474.609375" xlink:href="#DejaVuSans-243"/>
     <use x="535.791016" xlink:href="#DejaVuSans-110"/>
     <use x="599.169922" xlink:href="#DejaVuSans-32"/>
     <use x="630.957031" xlink:href="#DejaVuSans-100"/>
     <use x="694.433594" xlink:href="#DejaVuSans-101"/>
     <use x="755.957031" xlink:href="#DejaVuSans-58"/>
     <use x="789.648438" xlink:href="#DejaVuSans-32"/>
     <use x="821.435547" xlink:href="#DejaVuSans-84"/>
     <use x="882.269531" xlink:href="#DejaVuSans-97"/>
     <use x="943.548828" xlink:href="#DejaVuSans-115"/>
     <use x="995.648438" xlink:href="#DejaVuSans-97"/>
     <use x="1056.927734" xlink:href="#DejaVuSans-32"/>
     <use x="1088.714844" xlink:href="#DejaVuSans-99"/>
     <use x="1143.695312" xlink:href="#DejaVuSans-111"/>
     <use x="1204.876953" xlink:href="#DejaVuSans-110"/>
     <use x="1268.255859" xlink:href="#DejaVuSans-32"/>
     <use x="1300.042969" xlink:href="#DejaVuSans-78"/>
     <use x="1374.847656" xlink:href="#DejaVuSans-66"/>
     <use x="1443.451172" xlink:href="#DejaVuSans-73"/>
     <use x="1472.943359" xlink:href="#DejaVuSans-32"/>
     <use x="1504.730469" xlink:href="#DejaVuSans-115"/>
     <use x="1556.830078" xlink:href="#DejaVuSans-101"/>
     <use x="1618.353516" xlink:href="#DejaVuSans-103"/>
     <use x="1681.830078" xlink:href="#DejaVuSans-250"/>
     <use x="1745.208984" xlink:href="#DejaVuSans-110"/>
     <use x="1808.587891" xlink:href="#DejaVuSans-32"/>
     <use x="1840.375" xlink:href="#DejaVuSans-101"/>
     <use x="1901.898438" xlink:href="#DejaVuSans-108"/>
     <use x="1929.681641" xlink:href="#DejaVuSans-32"/>
     <use x="1961.46875" xlink:href="#DejaVuSans-100"/>
     <use x="2024.945312" xlink:href="#DejaVuSans-101"/>
     <use x="2086.46875" xlink:href="#DejaVuSans-115"/>
     <use x="2138.568359" xlink:href="#DejaVuSans-101"/>
     <use x="2200.091797" xlink:href="#DejaVuSans-109"/>
     <use x="2297.503906" xlink:href="#DejaVuSans-112"/>
     <use x="2360.980469" xlink:href="#DejaVuSans-101"/>
     <use x="2422.503906" xlink:href="#DejaVuSans-241"/>
     <use x="2485.882812" xlink:href="#DejaVuSans-111"/>
     <use x="2547.064453" xlink:href="#DejaVuSans-32"/>
     <use x="2578.851562" xlink:href="#DejaVuSans-101"/>
     <use x="2640.375" xlink:href="#DejaVuSans-110"/>
     <use x="2703.753906" xlink:href="#DejaVuSans-32"/>
     <use x="2735.541016" xlink:href="#DejaVuSans-109"/>
     <use x="2832.953125" xlink:href="#DejaVuSans-97"/>
     <use x="2894.232422" xlink:href="#DejaVuSans-116"/>
     <use x="2933.441406" xlink:href="#DejaVuSans-101"/>
     <use x="2994.964844" xlink:href="#DejaVuSans-109"/>
     <use x="3092.376953" xlink:href="#DejaVuSans-225"/>
     <use x="3153.65625" xlink:href="#DejaVuSans-116"/>
     <use x="3192.865234" xlink:href="#DejaVuSans-105"/>
     <use x="3220.648438" xlink:href="#DejaVuSans-99"/>
     <use x="3275.628906" xlink:href="#DejaVuSans-97"/>
    </g>
    <!--  Nivel: Primaria -->
    <g transform="translate(368.320625 30.2355)scale(0.12 -0.12)">
     <use xlink:href="#DejaVuSans-32"/>
     <use x="31.787109" xlink:href="#DejaVuSans-78"/>
     <use x="106.591797" xlink:href="#DejaVuSans-105"/>
     <use x="134.375" xlink:href="#DejaVuSans-118"/>
     <use x="193.554688" xlink:href="#DejaVuSans-101"/>
     <use x="255.078125" xlink:href="#DejaVuSans-108"/>
     <use x="282.861328" xlink:href="#DejaVuSans-58"/>
     <use x="316.552734" xlink:href="#DejaVuSans-32"/>
     <use x="348.339844" xlink:href="#DejaVuSans-80"/>
     <use x="408.626953" xlink:href="#DejaVuSans-114"/>
     <use x="449.740234" xlink:href="#DejaVuSans-105"/>
     <use x="477.523438" xlink:href="#DejaVuSans-109"/>
     <use x="574.935547" xlink:href="#DejaVuSans-97"/>
     <use x="636.214844" xlink:href="#DejaVuSans-114"/>
     <use x="677.328125" xlink:href="#DejaVuSans-105"/>
     <use x="705.111328" xlink:href="#DejaVuSans-97"/>
    </g>
   </g>
  </g>
 </g>
 <defs>
  <clipPath id="p37002f52d4">
   <rect height="326.16" width="558" x="135.303125" y="36.3315"/>
  </clipPath>
 </defs>
</svg>
