<?xml version="1.0" encoding="utf-8" standalone="no"?>
<!DOCTYPE svg PUBLIC "-//W3C//DTD SVG 1.1//EN"
  "http://www.w3.org/Graphics/SVG/1.1/DTD/svg11.dtd">
<!-- Created with matplotlib (https://matplotlib.org/) -->
<svg height="400.04775pt" version="1.1" viewBox="0 0 703.773437 400.04775" width="703.773437pt" xmlns="http://www.w3.org/2000/svg" xmlns:xlink="http://www.w3.org/1999/xlink">
 <defs>
  <style type="text/css">
*{stroke-linecap:butt;stroke-linejoin:round;}
  </style>
 </defs>
 <g id="figure_1">
  <g id="patch_1">
   <path d="M 0 400.04775 
L 703.773437 400.04775 
L 703.773437 0 
L 0 0 
z
" style="fill:#ffffff;"/>
  </g>
  <g id="axes_1">
   <g id="patch_2">
    <path d="M 135.073438 362.4915 
L 693.073437 362.4915 
L 693.073437 36.3315 
L 135.073438 36.3315 
z
" style="fill:#ffffff;"/>
   </g>
   <g id="PolyCollection_1">
    <defs>
     <path d="M 146.621473 -322.706607 
L 146.621473 -323.185893 
L 151.905758 -324.043193 
L 157.190043 -326.627803 
L 162.474327 -332.07548 
L 167.758612 -339.895426 
L 173.042897 -347.077364 
L 178.327181 -350.49126 
L 183.611466 -350.215881 
L 188.895751 -349.05101 
L 194.180035 -349.144037 
L 199.46432 -350.443018 
L 204.748605 -351.881492 
L 210.032889 -352.733534 
L 215.317174 -352.895228 
L 220.601459 -352.606403 
L 225.885743 -352.129474 
L 231.170028 -351.640941 
L 236.454313 -351.290366 
L 241.738597 -351.281398 
L 247.022882 -351.862768 
L 252.307167 -353.050936 
L 257.591451 -354.344213 
L 262.875736 -355.041763 
L 268.160021 -354.953444 
L 273.444305 -354.475366 
L 278.72859 -353.901906 
L 284.012874 -353.0421 
L 289.297159 -351.657354 
L 294.581444 -349.933714 
L 299.865728 -348.240633 
L 305.150013 -346.621349 
L 310.434298 -344.854507 
L 315.718582 -342.897164 
L 321.002867 -340.94071 
L 326.287152 -339.14209 
L 331.571436 -337.526866 
L 336.855721 -336.076613 
L 342.140006 -334.848715 
L 347.42429 -333.998526 
L 352.708575 -333.605465 
L 357.99286 -333.511155 
L 363.277144 -333.419869 
L 368.561429 -333.168797 
L 373.845714 -332.831528 
L 379.129998 -332.491654 
L 384.414283 -331.99393 
L 389.698568 -331.100713 
L 394.982852 -329.909505 
L 400.267137 -328.87014 
L 405.551422 -328.285596 
L 410.835706 -328.010264 
L 416.119991 -327.722536 
L 421.404276 -327.296296 
L 426.68856 -326.815215 
L 431.972845 -326.382423 
L 437.25713 -326.038686 
L 442.541414 -325.792731 
L 447.825699 -325.619639 
L 453.109984 -325.44474 
L 458.394268 -325.200938 
L 463.678553 -324.886233 
L 468.962838 -324.548963 
L 474.247122 -324.262111 
L 479.531407 -324.087535 
L 484.815691 -324.011247 
L 490.099976 -323.952772 
L 495.384261 -323.86864 
L 500.668545 -323.785557 
L 505.95283 -323.723534 
L 511.237115 -323.665037 
L 516.521399 -323.601626 
L 521.805684 -323.543188 
L 527.089969 -323.48364 
L 532.374253 -323.407455 
L 537.658538 -323.32355 
L 542.942823 -323.260994 
L 548.227107 -323.23707 
L 553.511392 -323.241236 
L 558.795677 -323.249678 
L 564.079961 -323.248303 
L 569.364246 -323.23311 
L 574.648531 -323.201105 
L 579.932815 -323.156444 
L 585.2171 -323.114608 
L 590.501385 -323.08893 
L 595.785669 -323.077865 
L 601.069954 -323.06853 
L 606.354239 -323.050455 
L 611.638523 -323.026033 
L 616.922808 -323.00677 
L 622.207093 -323.00225 
L 627.491377 -323.015719 
L 632.775662 -323.041814 
L 638.059947 -323.065048 
L 643.344231 -323.069329 
L 648.628516 -323.050836 
L 653.912801 -323.018708 
L 659.197085 -322.986441 
L 664.48137 -322.963582 
L 669.765655 -322.951887 
L 669.765655 -322.940613 
L 669.765655 -322.940613 
L 664.48137 -322.928918 
L 659.197085 -322.906059 
L 653.912801 -322.873792 
L 648.628516 -322.841664 
L 643.344231 -322.823171 
L 638.059947 -322.827452 
L 632.775662 -322.850686 
L 627.491377 -322.876781 
L 622.207093 -322.89025 
L 616.922808 -322.88573 
L 611.638523 -322.866467 
L 606.354239 -322.842045 
L 601.069954 -322.82397 
L 595.785669 -322.814635 
L 590.501385 -322.80357 
L 585.2171 -322.777892 
L 579.932815 -322.736056 
L 574.648531 -322.691395 
L 569.364246 -322.65939 
L 564.079961 -322.644197 
L 558.795677 -322.642822 
L 553.511392 -322.651264 
L 548.227107 -322.65543 
L 542.942823 -322.631506 
L 537.658538 -322.56895 
L 532.374253 -322.485045 
L 527.089969 -322.40886 
L 521.805684 -322.349312 
L 516.521399 -322.290874 
L 511.237115 -322.227463 
L 505.95283 -322.168966 
L 500.668545 -322.106943 
L 495.384261 -322.02386 
L 490.099976 -321.939728 
L 484.815691 -321.881253 
L 479.531407 -321.804965 
L 474.247122 -321.630389 
L 468.962838 -321.343537 
L 463.678553 -321.006267 
L 458.394268 -320.691562 
L 453.109984 -320.44776 
L 447.825699 -320.272861 
L 442.541414 -320.099769 
L 437.25713 -319.853814 
L 431.972845 -319.510077 
L 426.68856 -319.077285 
L 421.404276 -318.596204 
L 416.119991 -318.169964 
L 410.835706 -317.882236 
L 405.551422 -317.606904 
L 400.267137 -317.02236 
L 394.982852 -315.982995 
L 389.698568 -314.791787 
L 384.414283 -313.89857 
L 379.129998 -313.400846 
L 373.845714 -313.060972 
L 368.561429 -312.723703 
L 363.277144 -312.472631 
L 357.99286 -312.381345 
L 352.708575 -312.287035 
L 347.42429 -311.893974 
L 342.140006 -311.043785 
L 336.855721 -309.815887 
L 331.571436 -308.365634 
L 326.287152 -306.75041 
L 321.002867 -304.95179 
L 315.718582 -302.995336 
L 310.434298 -301.037993 
L 305.150013 -299.271151 
L 299.865728 -297.651867 
L 294.581444 -295.958786 
L 289.297159 -294.235146 
L 284.012874 -292.8504 
L 278.72859 -291.990594 
L 273.444305 -291.417134 
L 268.160021 -290.939056 
L 262.875736 -290.850737 
L 257.591451 -291.548287 
L 252.307167 -292.841564 
L 247.022882 -294.029732 
L 241.738597 -294.611102 
L 236.454313 -294.602134 
L 231.170028 -294.251559 
L 225.885743 -293.763026 
L 220.601459 -293.286097 
L 215.317174 -292.997272 
L 210.032889 -293.158966 
L 204.748605 -294.011008 
L 199.46432 -295.449482 
L 194.180035 -296.748463 
L 188.895751 -296.84149 
L 183.611466 -295.676619 
L 178.327181 -295.40124 
L 173.042897 -298.815136 
L 167.758612 -305.997074 
L 162.474327 -313.81702 
L 157.190043 -319.264697 
L 151.905758 -321.849307 
L 146.621473 -322.706607 
z
" id="m1adb9f7af5" style="stroke:#4c4c4c;stroke-width:1.5;"/>
    </defs>
    <g clip-path="url(#p0e8f45a230)">
     <use style="fill:#2020df;stroke:#4c4c4c;stroke-width:1.5;" x="0" xlink:href="#m1adb9f7af5" y="400.04775"/>
    </g>
   </g>
   <g id="PolyCollection_2">
    <defs>
     <path d="M 150.729431 -241.330848 
L 150.729431 -241.481652 
L 156.049512 -241.944856 
L 161.369593 -243.810765 
L 166.689674 -248.162315 
L 172.009755 -253.683254 
L 177.329836 -256.824763 
L 182.649917 -256.733467 
L 187.969998 -256.33175 
L 193.290079 -257.817928 
L 198.61016 -260.379929 
L 203.93024 -262.303254 
L 209.250321 -263.138566 
L 214.570402 -263.451015 
L 219.890483 -263.668292 
L 225.210564 -263.793918 
L 230.530645 -264.337836 
L 235.850726 -265.678069 
L 241.170807 -267.068112 
L 246.490888 -268.050547 
L 251.810969 -269.39964 
L 257.13105 -271.535887 
L 262.451131 -273.400118 
L 267.771212 -274.02225 
L 273.091293 -273.600183 
L 278.411374 -272.479199 
L 283.731455 -270.898446 
L 289.051535 -269.532718 
L 294.371616 -268.951613 
L 299.691697 -268.683051 
L 305.011778 -267.533122 
L 310.331859 -265.3131 
L 315.65194 -263.170807 
L 320.972021 -261.73968 
L 326.292102 -260.520739 
L 331.612183 -259.248997 
L 336.932264 -258.105172 
L 342.252345 -257.211106 
L 347.572426 -257.007639 
L 352.892507 -257.860344 
L 358.212588 -259.03571 
L 363.532669 -259.23107 
L 368.85275 -258.32592 
L 374.17283 -257.214961 
L 379.492911 -256.228559 
L 384.812992 -255.223309 
L 390.133073 -253.951188 
L 395.453154 -252.368529 
L 400.773235 -251.072003 
L 406.093316 -250.588322 
L 411.413397 -250.530078 
L 416.733478 -250.232025 
L 422.053559 -249.635245 
L 427.37364 -248.890939 
L 432.693721 -247.898362 
L 438.013802 -246.819042 
L 443.333883 -246.169776 
L 448.653964 -245.955992 
L 453.974045 -245.748717 
L 459.294125 -245.373993 
L 464.614206 -244.917762 
L 469.934287 -244.475637 
L 475.254368 -244.041217 
L 480.574449 -243.70492 
L 485.89453 -243.63879 
L 491.214611 -243.650945 
L 496.534692 -243.482417 
L 501.854773 -243.270552 
L 507.174854 -243.172281 
L 512.494935 -243.07121 
L 517.815016 -242.864188 
L 523.135097 -242.669109 
L 528.455178 -242.570811 
L 533.775259 -242.498536 
L 539.09534 -242.383985 
L 544.41542 -242.217522 
L 549.735501 -242.058529 
L 555.055582 -241.961722 
L 560.375663 -241.907694 
L 565.695744 -241.881392 
L 571.015825 -241.878875 
L 576.335906 -241.873054 
L 581.655987 -241.866065 
L 586.976068 -241.896608 
L 592.296149 -241.927047 
L 597.61623 -241.884601 
L 602.936311 -241.80031 
L 608.256392 -241.724395 
L 613.576473 -241.656071 
L 618.896554 -241.592157 
L 624.216635 -241.543975 
L 629.536715 -241.521607 
L 634.856796 -241.52326 
L 640.176877 -241.533071 
L 645.496958 -241.528045 
L 650.817039 -241.499445 
L 656.13712 -241.460686 
L 661.457201 -241.43051 
L 666.777282 -241.415157 
L 672.097363 -241.409072 
L 677.417444 -241.406918 
L 677.417444 -241.405582 
L 677.417444 -241.405582 
L 672.097363 -241.403428 
L 666.777282 -241.397343 
L 661.457201 -241.38199 
L 656.13712 -241.351814 
L 650.817039 -241.313055 
L 645.496958 -241.284455 
L 640.176877 -241.279429 
L 634.856796 -241.28924 
L 629.536715 -241.290893 
L 624.216635 -241.268525 
L 618.896554 -241.220343 
L 613.576473 -241.156429 
L 608.256392 -241.088105 
L 602.936311 -241.01219 
L 597.61623 -240.927899 
L 592.296149 -240.885453 
L 586.976068 -240.915892 
L 581.655987 -240.946435 
L 576.335906 -240.939446 
L 571.015825 -240.933625 
L 565.695744 -240.931108 
L 560.375663 -240.904806 
L 555.055582 -240.850778 
L 549.735501 -240.753971 
L 544.41542 -240.594978 
L 539.09534 -240.428515 
L 533.775259 -240.313964 
L 528.455178 -240.241689 
L 523.135097 -240.143391 
L 517.815016 -239.948312 
L 512.494935 -239.74129 
L 507.174854 -239.640219 
L 501.854773 -239.541948 
L 496.534692 -239.330083 
L 491.214611 -239.161555 
L 485.89453 -239.17371 
L 480.574449 -239.10758 
L 475.254368 -238.771283 
L 469.934287 -238.336863 
L 464.614206 -237.894738 
L 459.294125 -237.438507 
L 453.974045 -237.063783 
L 448.653964 -236.856508 
L 443.333883 -236.642724 
L 438.013802 -235.993458 
L 432.693721 -234.914138 
L 427.37364 -233.921561 
L 422.053559 -233.177255 
L 416.733478 -232.580475 
L 411.413397 -232.282422 
L 406.093316 -232.224178 
L 400.773235 -231.740497 
L 395.453154 -230.443971 
L 390.133073 -228.861312 
L 384.812992 -227.589191 
L 379.492911 -226.583941 
L 374.17283 -225.597539 
L 368.85275 -224.48658 
L 363.532669 -223.58143 
L 358.212588 -223.77679 
L 352.892507 -224.952156 
L 347.572426 -225.804861 
L 342.252345 -225.601394 
L 336.932264 -224.707328 
L 331.612183 -223.563503 
L 326.292102 -222.291761 
L 320.972021 -221.07282 
L 315.65194 -219.641693 
L 310.331859 -217.4994 
L 305.011778 -215.279378 
L 299.691697 -214.129449 
L 294.371616 -213.860887 
L 289.051535 -213.279782 
L 283.731455 -211.914054 
L 278.411374 -210.333301 
L 273.091293 -209.212317 
L 267.771212 -208.79025 
L 262.451131 -209.412382 
L 257.13105 -211.276613 
L 251.810969 -213.41286 
L 246.490888 -214.761953 
L 241.170807 -215.744388 
L 235.850726 -217.134431 
L 230.530645 -218.474664 
L 225.210564 -219.018582 
L 219.890483 -219.144208 
L 214.570402 -219.361485 
L 209.250321 -219.673934 
L 203.93024 -220.509246 
L 198.61016 -222.432571 
L 193.290079 -224.994572 
L 187.969998 -226.48075 
L 182.649917 -226.079033 
L 177.329836 -225.987737 
L 172.009755 -229.129246 
L 166.689674 -234.650185 
L 161.369593 -239.001735 
L 156.049512 -240.867644 
L 150.729431 -241.330848 
z
" id="m8fca5f6c58" style="stroke:#4c4c4c;stroke-width:1.5;"/>
    </defs>
    <g clip-path="url(#p0e8f45a230)">
     <use style="fill:#2020df;stroke:#4c4c4c;stroke-width:1.5;" x="0" xlink:href="#m8fca5f6c58" y="400.04775"/>
    </g>
   </g>
   <g id="PolyCollection_3">
    <defs>
     <path d="M 148.412517 -159.806378 
L 148.412517 -159.926122 
L 153.779404 -160.195142 
L 159.146292 -161.124567 
L 164.513179 -163.247306 
L 169.880066 -166.378554 
L 175.246953 -169.230953 
L 180.613841 -170.694387 
L 185.980728 -171.195866 
L 191.347615 -171.998108 
L 196.714503 -173.594041 
L 202.08139 -175.378653 
L 207.448277 -176.609366 
L 212.815164 -177.191185 
L 218.182052 -177.474101 
L 223.548939 -177.792616 
L 228.915826 -178.474653 
L 234.282714 -179.705046 
L 239.649601 -181.140067 
L 245.016488 -182.33712 
L 250.383375 -183.59317 
L 255.750263 -185.418571 
L 261.11715 -187.388137 
L 266.484037 -188.604464 
L 271.850925 -188.746597 
L 277.217812 -187.941964 
L 282.584699 -186.617191 
L 287.951586 -185.63127 
L 293.318474 -185.502228 
L 298.685361 -185.640032 
L 304.052248 -185.08804 
L 309.419136 -183.830355 
L 314.786023 -182.624383 
L 320.15291 -181.741076 
L 325.519797 -180.836264 
L 330.886685 -179.825477 
L 336.253572 -178.94433 
L 341.620459 -178.375781 
L 346.987346 -178.447023 
L 352.354234 -179.403868 
L 357.721121 -180.606808 
L 363.088008 -180.948532 
L 368.454896 -180.239125 
L 373.821783 -179.180521 
L 379.18867 -178.1989 
L 384.555557 -177.166809 
L 389.922445 -175.842557 
L 395.289332 -174.248374 
L 400.656219 -172.854564 
L 406.023107 -172.148976 
L 411.389994 -172.011605 
L 416.756881 -171.914142 
L 422.123768 -171.509747 
L 427.490656 -170.626837 
L 432.857543 -169.182685 
L 438.22443 -167.568643 
L 443.591318 -166.488576 
L 448.958205 -166.112008 
L 454.325092 -165.954591 
L 459.691979 -165.553649 
L 465.058867 -164.912406 
L 470.425754 -164.296606 
L 475.792641 -163.842529 
L 481.159529 -163.587462 
L 486.526416 -163.526675 
L 491.893303 -163.47805 
L 497.26019 -163.282729 
L 502.627078 -163.006047 
L 507.993965 -162.734562 
L 513.360852 -162.454435 
L 518.727739 -162.182896 
L 524.094627 -162.003365 
L 529.461514 -161.929533 
L 534.828401 -161.852431 
L 540.195289 -161.649932 
L 545.562176 -161.319601 
L 550.929063 -160.989617 
L 556.29595 -160.767099 
L 561.662838 -160.653409 
L 567.029725 -160.617405 
L 572.396612 -160.63058 
L 577.7635 -160.663935 
L 583.130387 -160.707255 
L 588.497274 -160.740318 
L 593.864161 -160.720678 
L 599.231049 -160.653435 
L 604.597936 -160.587032 
L 609.964823 -160.525805 
L 615.331711 -160.43106 
L 620.698598 -160.297846 
L 626.065485 -160.174142 
L 631.432372 -160.102077 
L 636.79926 -160.074213 
L 642.166147 -160.052958 
L 647.533034 -160.012495 
L 652.899922 -159.958573 
L 658.266809 -159.912969 
L 663.633696 -159.886541 
L 669.000583 -159.874515 
L 674.367471 -159.869294 
L 679.734358 -159.867125 
L 679.734358 -159.865375 
L 679.734358 -159.865375 
L 674.367471 -159.863206 
L 669.000583 -159.857985 
L 663.633696 -159.845959 
L 658.266809 -159.819531 
L 652.899922 -159.773927 
L 647.533034 -159.720005 
L 642.166147 -159.679542 
L 636.79926 -159.658287 
L 631.432372 -159.630423 
L 626.065485 -159.558358 
L 620.698598 -159.434654 
L 615.331711 -159.30144 
L 609.964823 -159.206695 
L 604.597936 -159.145468 
L 599.231049 -159.079065 
L 593.864161 -159.011822 
L 588.497274 -158.992182 
L 583.130387 -159.025245 
L 577.7635 -159.068565 
L 572.396612 -159.10192 
L 567.029725 -159.115095 
L 561.662838 -159.079091 
L 556.29595 -158.965401 
L 550.929063 -158.742883 
L 545.562176 -158.412899 
L 540.195289 -158.082568 
L 534.828401 -157.880069 
L 529.461514 -157.802967 
L 524.094627 -157.729135 
L 518.727739 -157.549604 
L 513.360852 -157.278065 
L 507.993965 -156.997938 
L 502.627078 -156.726453 
L 497.26019 -156.449771 
L 491.893303 -156.25445 
L 486.526416 -156.205825 
L 481.159529 -156.145038 
L 475.792641 -155.889971 
L 470.425754 -155.435894 
L 465.058867 -154.820094 
L 459.691979 -154.178851 
L 454.325092 -153.777909 
L 448.958205 -153.620492 
L 443.591318 -153.243924 
L 438.22443 -152.163857 
L 432.857543 -150.549815 
L 427.490656 -149.105663 
L 422.123768 -148.222753 
L 416.756881 -147.818358 
L 411.389994 -147.720895 
L 406.023107 -147.583524 
L 400.656219 -146.877936 
L 395.289332 -145.484126 
L 389.922445 -143.889943 
L 384.555557 -142.565691 
L 379.18867 -141.5336 
L 373.821783 -140.551979 
L 368.454896 -139.493375 
L 363.088008 -138.783968 
L 357.721121 -139.125692 
L 352.354234 -140.328632 
L 346.987346 -141.285477 
L 341.620459 -141.356719 
L 336.253572 -140.78817 
L 330.886685 -139.907023 
L 325.519797 -138.896236 
L 320.15291 -137.991424 
L 314.786023 -137.108117 
L 309.419136 -135.902145 
L 304.052248 -134.64446 
L 298.685361 -134.092468 
L 293.318474 -134.230272 
L 287.951586 -134.10123 
L 282.584699 -133.115309 
L 277.217812 -131.790536 
L 271.850925 -130.985903 
L 266.484037 -131.128036 
L 261.11715 -132.344363 
L 255.750263 -134.313929 
L 250.383375 -136.13933 
L 245.016488 -137.39538 
L 239.649601 -138.592433 
L 234.282714 -140.027454 
L 228.915826 -141.257847 
L 223.548939 -141.939884 
L 218.182052 -142.258399 
L 212.815164 -142.541315 
L 207.448277 -143.123134 
L 202.08139 -144.353847 
L 196.714503 -146.138459 
L 191.347615 -147.734392 
L 185.980728 -148.536634 
L 180.613841 -149.038113 
L 175.246953 -150.501547 
L 169.880066 -153.353946 
L 164.513179 -156.485194 
L 159.146292 -158.607933 
L 153.779404 -159.537358 
L 148.412517 -159.806378 
z
" id="m7b277bc01f" style="stroke:#4c4c4c;stroke-width:1.5;"/>
    </defs>
    <g clip-path="url(#p0e8f45a230)">
     <use style="fill:#2020df;stroke:#4c4c4c;stroke-width:1.5;" x="0" xlink:href="#m7b277bc01f" y="400.04775"/>
    </g>
   </g>
   <g id="PolyCollection_4">
    <defs>
     <path d="M 148.517381 -78.26842 
L 148.517381 -78.38408 
L 153.88215 -78.642504 
L 159.246919 -79.5309 
L 164.611687 -81.553445 
L 169.976456 -84.536995 
L 175.341225 -87.276273 
L 180.705994 -88.747736 
L 186.070763 -89.381359 
L 191.435531 -90.336523 
L 196.8003 -91.935474 
L 202.165069 -93.41667 
L 207.529838 -94.073143 
L 212.894607 -94.202237 
L 218.259376 -94.542658 
L 223.624144 -95.245306 
L 228.988913 -96.096817 
L 234.353682 -97.090705 
L 239.718451 -98.16103 
L 245.08322 -99.126817 
L 250.447989 -100.261926 
L 255.812757 -101.9985 
L 261.177526 -104.013626 
L 266.542295 -105.538755 
L 271.907064 -106.181494 
L 277.271833 -105.848337 
L 282.636601 -104.736815 
L 288.00137 -103.602093 
L 293.366139 -103.188698 
L 298.730908 -103.343381 
L 304.095677 -103.177334 
L 309.460446 -102.213085 
L 314.825214 -100.904109 
L 320.189983 -99.805378 
L 325.554752 -98.938863 
L 330.919521 -98.208315 
L 336.28429 -97.592327 
L 341.649058 -97.068672 
L 347.013827 -97.012684 
L 352.378596 -97.902101 
L 357.743365 -99.253754 
L 363.108134 -99.892739 
L 368.472903 -99.409794 
L 373.837671 -98.443083 
L 379.20244 -97.601072 
L 384.567209 -96.827742 
L 389.931978 -95.725924 
L 395.296747 -94.170402 
L 400.661515 -92.59913 
L 406.026284 -91.594107 
L 411.391053 -91.218874 
L 416.755822 -91.054376 
L 422.120591 -90.697861 
L 427.48536 -89.878871 
L 432.850128 -88.4744 
L 438.214897 -86.820989 
L 443.579666 -85.541133 
L 448.944435 -84.851554 
L 454.309204 -84.44275 
L 459.673972 -83.964844 
L 465.038741 -83.423657 
L 470.40351 -83.012535 
L 475.768279 -82.732204 
L 481.133048 -82.542223 
L 486.497817 -82.480871 
L 491.862585 -82.416528 
L 497.227354 -82.187766 
L 502.592123 -81.848896 
L 507.956892 -81.522376 
L 513.321661 -81.267856 
L 518.686429 -81.10518 
L 524.051198 -81.00924 
L 529.415967 -80.902115 
L 534.780736 -80.707576 
L 540.145505 -80.405003 
L 545.510274 -80.043147 
L 550.875042 -79.716785 
L 556.239811 -79.487345 
L 561.60458 -79.353415 
L 566.969349 -79.296054 
L 572.334118 -79.293771 
L 577.698886 -79.319608 
L 583.063655 -79.358044 
L 588.428424 -79.398251 
L 593.793193 -79.405164 
L 599.157962 -79.355131 
L 604.522731 -79.27634 
L 609.887499 -79.194664 
L 615.252268 -79.084069 
L 620.617037 -78.930423 
L 625.981806 -78.783971 
L 631.346575 -78.683758 
L 636.711344 -78.608385 
L 642.076112 -78.531129 
L 647.440881 -78.453816 
L 652.80565 -78.391275 
L 658.170419 -78.353386 
L 663.535188 -78.336624 
L 668.899956 -78.330448 
L 674.264725 -78.327878 
L 679.629494 -78.326734 
L 679.629494 -78.325766 
L 679.629494 -78.325766 
L 674.264725 -78.324622 
L 668.899956 -78.322052 
L 663.535188 -78.315876 
L 658.170419 -78.299114 
L 652.80565 -78.261225 
L 647.440881 -78.198684 
L 642.076112 -78.121371 
L 636.711344 -78.044115 
L 631.346575 -77.968742 
L 625.981806 -77.868529 
L 620.617037 -77.722077 
L 615.252268 -77.568431 
L 609.887499 -77.457836 
L 604.522731 -77.37616 
L 599.157962 -77.297369 
L 593.793193 -77.247336 
L 588.428424 -77.254249 
L 583.063655 -77.294456 
L 577.698886 -77.332892 
L 572.334118 -77.358729 
L 566.969349 -77.356446 
L 561.60458 -77.299085 
L 556.239811 -77.165155 
L 550.875042 -76.935715 
L 545.510274 -76.609353 
L 540.145505 -76.247497 
L 534.780736 -75.944924 
L 529.415967 -75.750385 
L 524.051198 -75.64326 
L 518.686429 -75.54732 
L 513.321661 -75.384644 
L 507.956892 -75.130124 
L 502.592123 -74.803604 
L 497.227354 -74.464734 
L 491.862585 -74.235972 
L 486.497817 -74.171629 
L 481.133048 -74.110277 
L 475.768279 -73.920296 
L 470.40351 -73.639965 
L 465.038741 -73.228843 
L 459.673972 -72.687656 
L 454.309204 -72.20975 
L 448.944435 -71.800946 
L 443.579666 -71.111367 
L 438.214897 -69.831511 
L 432.850128 -68.1781 
L 427.48536 -66.773629 
L 422.120591 -65.954639 
L 416.755822 -65.598124 
L 411.391053 -65.433626 
L 406.026284 -65.058393 
L 400.661515 -64.05337 
L 395.296747 -62.482098 
L 389.931978 -60.926576 
L 384.567209 -59.824758 
L 379.20244 -59.051428 
L 373.837671 -58.209417 
L 368.472903 -57.242706 
L 363.108134 -56.759761 
L 357.743365 -57.398746 
L 352.378596 -58.750399 
L 347.013827 -59.639816 
L 341.649058 -59.583828 
L 336.28429 -59.060173 
L 330.919521 -58.444185 
L 325.554752 -57.713637 
L 320.189983 -56.847122 
L 314.825214 -55.748391 
L 309.460446 -54.439415 
L 304.095677 -53.475166 
L 298.730908 -53.309119 
L 293.366139 -53.463802 
L 288.00137 -53.050407 
L 282.636601 -51.915685 
L 277.271833 -50.804163 
L 271.907064 -50.471006 
L 266.542295 -51.113745 
L 261.177526 -52.638874 
L 255.812757 -54.654 
L 250.447989 -56.390574 
L 245.08322 -57.525683 
L 239.718451 -58.49147 
L 234.353682 -59.561795 
L 228.988913 -60.555683 
L 223.624144 -61.407194 
L 218.259376 -62.109842 
L 212.894607 -62.450263 
L 207.529838 -62.579357 
L 202.165069 -63.23583 
L 196.8003 -64.717026 
L 191.435531 -66.315977 
L 186.070763 -67.271141 
L 180.705994 -67.904764 
L 175.341225 -69.376227 
L 169.976456 -72.115505 
L 164.611687 -75.099055 
L 159.246919 -77.1216 
L 153.88215 -78.009996 
L 148.517381 -78.26842 
z
" id="md284cffbd1" style="stroke:#4c4c4c;stroke-width:1.5;"/>
    </defs>
    <g clip-path="url(#p0e8f45a230)">
     <use style="fill:#2020df;stroke:#4c4c4c;stroke-width:1.5;" x="0" xlink:href="#md284cffbd1" y="400.04775"/>
    </g>
   </g>
   <g id="matplotlib.axis_1">
    <g id="xtick_1">
     <g id="line2d_1">
      <defs>
       <path d="M 0 0 
L 0 3.5 
" id="m8a9b33cee4" style="stroke:#000000;stroke-width:0.8;"/>
      </defs>
      <g>
       <use style="stroke:#000000;stroke-width:0.8;" x="145.65721" xlink:href="#m8a9b33cee4" y="362.4915"/>
      </g>
     </g>
     <g id="text_1">
      <!-- 0.0 -->
      <defs>
       <path d="M 31.78125 66.40625 
Q 24.171875 66.40625 20.328125 58.90625 
Q 16.5 51.421875 16.5 36.375 
Q 16.5 21.390625 20.328125 13.890625 
Q 24.171875 6.390625 31.78125 6.390625 
Q 39.453125 6.390625 43.28125 13.890625 
Q 47.125 21.390625 47.125 36.375 
Q 47.125 51.421875 43.28125 58.90625 
Q 39.453125 66.40625 31.78125 66.40625 
z
M 31.78125 74.21875 
Q 44.046875 74.21875 50.515625 64.515625 
Q 56.984375 54.828125 56.984375 36.375 
Q 56.984375 17.96875 50.515625 8.265625 
Q 44.046875 -1.421875 31.78125 -1.421875 
Q 19.53125 -1.421875 13.0625 8.265625 
Q 6.59375 17.96875 6.59375 36.375 
Q 6.59375 54.828125 13.0625 64.515625 
Q 19.53125 74.21875 31.78125 74.21875 
z
" id="DejaVuSans-48"/>
       <path d="M 10.6875 12.40625 
L 21 12.40625 
L 21 0 
L 10.6875 0 
z
" id="DejaVuSans-46"/>
      </defs>
      <g transform="translate(137.705647 377.089938)scale(0.1 -0.1)">
       <use xlink:href="#DejaVuSans-48"/>
       <use x="63.623047" xlink:href="#DejaVuSans-46"/>
       <use x="95.410156" xlink:href="#DejaVuSans-48"/>
      </g>
     </g>
    </g>
    <g id="xtick_2">
     <g id="line2d_2">
      <g>
       <use style="stroke:#000000;stroke-width:0.8;" x="263.254681" xlink:href="#m8a9b33cee4" y="362.4915"/>
      </g>
     </g>
     <g id="text_2">
      <!-- 0.2 -->
      <defs>
       <path d="M 19.1875 8.296875 
L 53.609375 8.296875 
L 53.609375 0 
L 7.328125 0 
L 7.328125 8.296875 
Q 12.9375 14.109375 22.625 23.890625 
Q 32.328125 33.6875 34.8125 36.53125 
Q 39.546875 41.84375 41.421875 45.53125 
Q 43.3125 49.21875 43.3125 52.78125 
Q 43.3125 58.59375 39.234375 62.25 
Q 35.15625 65.921875 28.609375 65.921875 
Q 23.96875 65.921875 18.8125 64.3125 
Q 13.671875 62.703125 7.8125 59.421875 
L 7.8125 69.390625 
Q 13.765625 71.78125 18.9375 73 
Q 24.125 74.21875 28.421875 74.21875 
Q 39.75 74.21875 46.484375 68.546875 
Q 53.21875 62.890625 53.21875 53.421875 
Q 53.21875 48.921875 51.53125 44.890625 
Q 49.859375 40.875 45.40625 35.40625 
Q 44.1875 33.984375 37.640625 27.21875 
Q 31.109375 20.453125 19.1875 8.296875 
z
" id="DejaVuSans-50"/>
      </defs>
      <g transform="translate(255.303118 377.089938)scale(0.1 -0.1)">
       <use xlink:href="#DejaVuSans-48"/>
       <use x="63.623047" xlink:href="#DejaVuSans-46"/>
       <use x="95.410156" xlink:href="#DejaVuSans-50"/>
      </g>
     </g>
    </g>
    <g id="xtick_3">
     <g id="line2d_3">
      <g>
       <use style="stroke:#000000;stroke-width:0.8;" x="380.852152" xlink:href="#m8a9b33cee4" y="362.4915"/>
      </g>
     </g>
     <g id="text_3">
      <!-- 0.4 -->
      <defs>
       <path d="M 37.796875 64.3125 
L 12.890625 25.390625 
L 37.796875 25.390625 
z
M 35.203125 72.90625 
L 47.609375 72.90625 
L 47.609375 25.390625 
L 58.015625 25.390625 
L 58.015625 17.1875 
L 47.609375 17.1875 
L 47.609375 0 
L 37.796875 0 
L 37.796875 17.1875 
L 4.890625 17.1875 
L 4.890625 26.703125 
z
" id="DejaVuSans-52"/>
      </defs>
      <g transform="translate(372.900589 377.089938)scale(0.1 -0.1)">
       <use xlink:href="#DejaVuSans-48"/>
       <use x="63.623047" xlink:href="#DejaVuSans-46"/>
       <use x="95.410156" xlink:href="#DejaVuSans-52"/>
      </g>
     </g>
    </g>
    <g id="xtick_4">
     <g id="line2d_4">
      <g>
       <use style="stroke:#000000;stroke-width:0.8;" x="498.449623" xlink:href="#m8a9b33cee4" y="362.4915"/>
      </g>
     </g>
     <g id="text_4">
      <!-- 0.6 -->
      <defs>
       <path d="M 33.015625 40.375 
Q 26.375 40.375 22.484375 35.828125 
Q 18.609375 31.296875 18.609375 23.390625 
Q 18.609375 15.53125 22.484375 10.953125 
Q 26.375 6.390625 33.015625 6.390625 
Q 39.65625 6.390625 43.53125 10.953125 
Q 47.40625 15.53125 47.40625 23.390625 
Q 47.40625 31.296875 43.53125 35.828125 
Q 39.65625 40.375 33.015625 40.375 
z
M 52.59375 71.296875 
L 52.59375 62.3125 
Q 48.875 64.0625 45.09375 64.984375 
Q 41.3125 65.921875 37.59375 65.921875 
Q 27.828125 65.921875 22.671875 59.328125 
Q 17.53125 52.734375 16.796875 39.40625 
Q 19.671875 43.65625 24.015625 45.921875 
Q 28.375 48.1875 33.59375 48.1875 
Q 44.578125 48.1875 50.953125 41.515625 
Q 57.328125 34.859375 57.328125 23.390625 
Q 57.328125 12.15625 50.6875 5.359375 
Q 44.046875 -1.421875 33.015625 -1.421875 
Q 20.359375 -1.421875 13.671875 8.265625 
Q 6.984375 17.96875 6.984375 36.375 
Q 6.984375 53.65625 15.1875 63.9375 
Q 23.390625 74.21875 37.203125 74.21875 
Q 40.921875 74.21875 44.703125 73.484375 
Q 48.484375 72.75 52.59375 71.296875 
z
" id="DejaVuSans-54"/>
      </defs>
      <g transform="translate(490.49806 377.089938)scale(0.1 -0.1)">
       <use xlink:href="#DejaVuSans-48"/>
       <use x="63.623047" xlink:href="#DejaVuSans-46"/>
       <use x="95.410156" xlink:href="#DejaVuSans-54"/>
      </g>
     </g>
    </g>
    <g id="xtick_5">
     <g id="line2d_5">
      <g>
       <use style="stroke:#000000;stroke-width:0.8;" x="616.047094" xlink:href="#m8a9b33cee4" y="362.4915"/>
      </g>
     </g>
     <g id="text_5">
      <!-- 0.8 -->
      <defs>
       <path d="M 31.78125 34.625 
Q 24.75 34.625 20.71875 30.859375 
Q 16.703125 27.09375 16.703125 20.515625 
Q 16.703125 13.921875 20.71875 10.15625 
Q 24.75 6.390625 31.78125 6.390625 
Q 38.8125 6.390625 42.859375 10.171875 
Q 46.921875 13.96875 46.921875 20.515625 
Q 46.921875 27.09375 42.890625 30.859375 
Q 38.875 34.625 31.78125 34.625 
z
M 21.921875 38.8125 
Q 15.578125 40.375 12.03125 44.71875 
Q 8.5 49.078125 8.5 55.328125 
Q 8.5 64.0625 14.71875 69.140625 
Q 20.953125 74.21875 31.78125 74.21875 
Q 42.671875 74.21875 48.875 69.140625 
Q 55.078125 64.0625 55.078125 55.328125 
Q 55.078125 49.078125 51.53125 44.71875 
Q 48 40.375 41.703125 38.8125 
Q 48.828125 37.15625 52.796875 32.3125 
Q 56.78125 27.484375 56.78125 20.515625 
Q 56.78125 9.90625 50.3125 4.234375 
Q 43.84375 -1.421875 31.78125 -1.421875 
Q 19.734375 -1.421875 13.25 4.234375 
Q 6.78125 9.90625 6.78125 20.515625 
Q 6.78125 27.484375 10.78125 32.3125 
Q 14.796875 37.15625 21.921875 38.8125 
z
M 18.3125 54.390625 
Q 18.3125 48.734375 21.84375 45.5625 
Q 25.390625 42.390625 31.78125 42.390625 
Q 38.140625 42.390625 41.71875 45.5625 
Q 45.3125 48.734375 45.3125 54.390625 
Q 45.3125 60.0625 41.71875 63.234375 
Q 38.140625 66.40625 31.78125 66.40625 
Q 25.390625 66.40625 21.84375 63.234375 
Q 18.3125 60.0625 18.3125 54.390625 
z
" id="DejaVuSans-56"/>
      </defs>
      <g transform="translate(608.095531 377.089938)scale(0.1 -0.1)">
       <use xlink:href="#DejaVuSans-48"/>
       <use x="63.623047" xlink:href="#DejaVuSans-46"/>
       <use x="95.410156" xlink:href="#DejaVuSans-56"/>
      </g>
     </g>
    </g>
    <g id="text_6">
     <!-- ICSE -->
     <defs>
      <path d="M 9.8125 72.90625 
L 19.671875 72.90625 
L 19.671875 0 
L 9.8125 0 
z
" id="DejaVuSans-73"/>
      <path d="M 64.40625 67.28125 
L 64.40625 56.890625 
Q 59.421875 61.53125 53.78125 63.8125 
Q 48.140625 66.109375 41.796875 66.109375 
Q 29.296875 66.109375 22.65625 58.46875 
Q 16.015625 50.828125 16.015625 36.375 
Q 16.015625 21.96875 22.65625 14.328125 
Q 29.296875 6.6875 41.796875 6.6875 
Q 48.140625 6.6875 53.78125 8.984375 
Q 59.421875 11.28125 64.40625 15.921875 
L 64.40625 5.609375 
Q 59.234375 2.09375 53.4375 0.328125 
Q 47.65625 -1.421875 41.21875 -1.421875 
Q 24.65625 -1.421875 15.125 8.703125 
Q 5.609375 18.84375 5.609375 36.375 
Q 5.609375 53.953125 15.125 64.078125 
Q 24.65625 74.21875 41.21875 74.21875 
Q 47.75 74.21875 53.53125 72.484375 
Q 59.328125 70.75 64.40625 67.28125 
z
" id="DejaVuSans-67"/>
      <path d="M 53.515625 70.515625 
L 53.515625 60.890625 
Q 47.90625 63.578125 42.921875 64.890625 
Q 37.9375 66.21875 33.296875 66.21875 
Q 25.25 66.21875 20.875 63.09375 
Q 16.5 59.96875 16.5 54.203125 
Q 16.5 49.359375 19.40625 46.890625 
Q 22.3125 44.4375 30.421875 42.921875 
L 36.375 41.703125 
Q 47.40625 39.59375 52.65625 34.296875 
Q 57.90625 29 57.90625 20.125 
Q 57.90625 9.515625 50.796875 4.046875 
Q 43.703125 -1.421875 29.984375 -1.421875 
Q 24.8125 -1.421875 18.96875 -0.25 
Q 13.140625 0.921875 6.890625 3.21875 
L 6.890625 13.375 
Q 12.890625 10.015625 18.65625 8.296875 
Q 24.421875 6.59375 29.984375 6.59375 
Q 38.421875 6.59375 43.015625 9.90625 
Q 47.609375 13.234375 47.609375 19.390625 
Q 47.609375 24.75 44.3125 27.78125 
Q 41.015625 30.8125 33.5 32.328125 
L 27.484375 33.5 
Q 16.453125 35.6875 11.515625 40.375 
Q 6.59375 45.0625 6.59375 53.421875 
Q 6.59375 63.09375 13.40625 68.65625 
Q 20.21875 74.21875 32.171875 74.21875 
Q 37.3125 74.21875 42.625 73.28125 
Q 47.953125 72.359375 53.515625 70.515625 
z
" id="DejaVuSans-83"/>
      <path d="M 9.8125 72.90625 
L 55.90625 72.90625 
L 55.90625 64.59375 
L 19.671875 64.59375 
L 19.671875 43.015625 
L 54.390625 43.015625 
L 54.390625 34.71875 
L 19.671875 34.71875 
L 19.671875 8.296875 
L 56.78125 8.296875 
L 56.78125 0 
L 9.8125 0 
z
" id="DejaVuSans-69"/>
     </defs>
     <g transform="translate(402.773438 390.768062)scale(0.1 -0.1)">
      <use xlink:href="#DejaVuSans-73"/>
      <use x="29.492188" xlink:href="#DejaVuSans-67"/>
      <use x="99.316406" xlink:href="#DejaVuSans-83"/>
      <use x="162.792969" xlink:href="#DejaVuSans-69"/>
     </g>
    </g>
   </g>
   <g id="matplotlib.axis_2">
    <g id="ytick_1">
     <g id="line2d_6">
      <defs>
       <path d="M 0 0 
L -3.5 0 
" id="m5d01c3063e" style="stroke:#000000;stroke-width:0.8;"/>
      </defs>
      <g>
       <use style="stroke:#000000;stroke-width:0.8;" x="135.073438" xlink:href="#m5d01c3063e" y="77.1015"/>
      </g>
     </g>
     <g id="text_7">
      <!-- Avanzado -->
      <defs>
       <path d="M 34.1875 63.1875 
L 20.796875 26.90625 
L 47.609375 26.90625 
z
M 28.609375 72.90625 
L 39.796875 72.90625 
L 67.578125 0 
L 57.328125 0 
L 50.6875 18.703125 
L 17.828125 18.703125 
L 11.1875 0 
L 0.78125 0 
z
" id="DejaVuSans-65"/>
       <path d="M 2.984375 54.6875 
L 12.5 54.6875 
L 29.59375 8.796875 
L 46.6875 54.6875 
L 56.203125 54.6875 
L 35.6875 0 
L 23.484375 0 
z
" id="DejaVuSans-118"/>
       <path d="M 34.28125 27.484375 
Q 23.390625 27.484375 19.1875 25 
Q 14.984375 22.515625 14.984375 16.5 
Q 14.984375 11.71875 18.140625 8.90625 
Q 21.296875 6.109375 26.703125 6.109375 
Q 34.1875 6.109375 38.703125 11.40625 
Q 43.21875 16.703125 43.21875 25.484375 
L 43.21875 27.484375 
z
M 52.203125 31.203125 
L 52.203125 0 
L 43.21875 0 
L 43.21875 8.296875 
Q 40.140625 3.328125 35.546875 0.953125 
Q 30.953125 -1.421875 24.3125 -1.421875 
Q 15.921875 -1.421875 10.953125 3.296875 
Q 6 8.015625 6 15.921875 
Q 6 25.140625 12.171875 29.828125 
Q 18.359375 34.515625 30.609375 34.515625 
L 43.21875 34.515625 
L 43.21875 35.40625 
Q 43.21875 41.609375 39.140625 45 
Q 35.0625 48.390625 27.6875 48.390625 
Q 23 48.390625 18.546875 47.265625 
Q 14.109375 46.140625 10.015625 43.890625 
L 10.015625 52.203125 
Q 14.9375 54.109375 19.578125 55.046875 
Q 24.21875 56 28.609375 56 
Q 40.484375 56 46.34375 49.84375 
Q 52.203125 43.703125 52.203125 31.203125 
z
" id="DejaVuSans-97"/>
       <path d="M 54.890625 33.015625 
L 54.890625 0 
L 45.90625 0 
L 45.90625 32.71875 
Q 45.90625 40.484375 42.875 44.328125 
Q 39.84375 48.1875 33.796875 48.1875 
Q 26.515625 48.1875 22.3125 43.546875 
Q 18.109375 38.921875 18.109375 30.90625 
L 18.109375 0 
L 9.078125 0 
L 9.078125 54.6875 
L 18.109375 54.6875 
L 18.109375 46.1875 
Q 21.34375 51.125 25.703125 53.5625 
Q 30.078125 56 35.796875 56 
Q 45.21875 56 50.046875 50.171875 
Q 54.890625 44.34375 54.890625 33.015625 
z
" id="DejaVuSans-110"/>
       <path d="M 5.515625 54.6875 
L 48.1875 54.6875 
L 48.1875 46.484375 
L 14.40625 7.171875 
L 48.1875 7.171875 
L 48.1875 0 
L 4.296875 0 
L 4.296875 8.203125 
L 38.09375 47.515625 
L 5.515625 47.515625 
z
" id="DejaVuSans-122"/>
       <path d="M 45.40625 46.390625 
L 45.40625 75.984375 
L 54.390625 75.984375 
L 54.390625 0 
L 45.40625 0 
L 45.40625 8.203125 
Q 42.578125 3.328125 38.25 0.953125 
Q 33.9375 -1.421875 27.875 -1.421875 
Q 17.96875 -1.421875 11.734375 6.484375 
Q 5.515625 14.40625 5.515625 27.296875 
Q 5.515625 40.1875 11.734375 48.09375 
Q 17.96875 56 27.875 56 
Q 33.9375 56 38.25 53.625 
Q 42.578125 51.265625 45.40625 46.390625 
z
M 14.796875 27.296875 
Q 14.796875 17.390625 18.875 11.75 
Q 22.953125 6.109375 30.078125 6.109375 
Q 37.203125 6.109375 41.296875 11.75 
Q 45.40625 17.390625 45.40625 27.296875 
Q 45.40625 37.203125 41.296875 42.84375 
Q 37.203125 48.484375 30.078125 48.484375 
Q 22.953125 48.484375 18.875 42.84375 
Q 14.796875 37.203125 14.796875 27.296875 
z
" id="DejaVuSans-100"/>
       <path d="M 30.609375 48.390625 
Q 23.390625 48.390625 19.1875 42.75 
Q 14.984375 37.109375 14.984375 27.296875 
Q 14.984375 17.484375 19.15625 11.84375 
Q 23.34375 6.203125 30.609375 6.203125 
Q 37.796875 6.203125 41.984375 11.859375 
Q 46.1875 17.53125 46.1875 27.296875 
Q 46.1875 37.015625 41.984375 42.703125 
Q 37.796875 48.390625 30.609375 48.390625 
z
M 30.609375 56 
Q 42.328125 56 49.015625 48.375 
Q 55.71875 40.765625 55.71875 27.296875 
Q 55.71875 13.875 49.015625 6.21875 
Q 42.328125 -1.421875 30.609375 -1.421875 
Q 18.84375 -1.421875 12.171875 6.21875 
Q 5.515625 13.875 5.515625 27.296875 
Q 5.515625 40.765625 12.171875 48.375 
Q 18.84375 56 30.609375 56 
z
" id="DejaVuSans-111"/>
      </defs>
      <g transform="translate(79.0125 80.900719)scale(0.1 -0.1)">
       <use xlink:href="#DejaVuSans-65"/>
       <use x="68.330078" xlink:href="#DejaVuSans-118"/>
       <use x="127.509766" xlink:href="#DejaVuSans-97"/>
       <use x="188.789062" xlink:href="#DejaVuSans-110"/>
       <use x="252.167969" xlink:href="#DejaVuSans-122"/>
       <use x="304.658203" xlink:href="#DejaVuSans-97"/>
       <use x="365.9375" xlink:href="#DejaVuSans-100"/>
       <use x="429.414062" xlink:href="#DejaVuSans-111"/>
      </g>
     </g>
    </g>
    <g id="ytick_2">
     <g id="line2d_7">
      <g>
       <use style="stroke:#000000;stroke-width:0.8;" x="135.073438" xlink:href="#m5d01c3063e" y="158.6415"/>
      </g>
     </g>
     <g id="text_8">
      <!-- Satisfactorio -->
      <defs>
       <path d="M 18.3125 70.21875 
L 18.3125 54.6875 
L 36.8125 54.6875 
L 36.8125 47.703125 
L 18.3125 47.703125 
L 18.3125 18.015625 
Q 18.3125 11.328125 20.140625 9.421875 
Q 21.96875 7.515625 27.59375 7.515625 
L 36.8125 7.515625 
L 36.8125 0 
L 27.59375 0 
Q 17.1875 0 13.234375 3.875 
Q 9.28125 7.765625 9.28125 18.015625 
L 9.28125 47.703125 
L 2.6875 47.703125 
L 2.6875 54.6875 
L 9.28125 54.6875 
L 9.28125 70.21875 
z
" id="DejaVuSans-116"/>
       <path d="M 9.421875 54.6875 
L 18.40625 54.6875 
L 18.40625 0 
L 9.421875 0 
z
M 9.421875 75.984375 
L 18.40625 75.984375 
L 18.40625 64.59375 
L 9.421875 64.59375 
z
" id="DejaVuSans-105"/>
       <path d="M 44.28125 53.078125 
L 44.28125 44.578125 
Q 40.484375 46.53125 36.375 47.5 
Q 32.28125 48.484375 27.875 48.484375 
Q 21.1875 48.484375 17.84375 46.4375 
Q 14.5 44.390625 14.5 40.28125 
Q 14.5 37.15625 16.890625 35.375 
Q 19.28125 33.59375 26.515625 31.984375 
L 29.59375 31.296875 
Q 39.15625 29.25 43.1875 25.515625 
Q 47.21875 21.78125 47.21875 15.09375 
Q 47.21875 7.46875 41.1875 3.015625 
Q 35.15625 -1.421875 24.609375 -1.421875 
Q 20.21875 -1.421875 15.453125 -0.5625 
Q 10.6875 0.296875 5.421875 2 
L 5.421875 11.28125 
Q 10.40625 8.6875 15.234375 7.390625 
Q 20.0625 6.109375 24.8125 6.109375 
Q 31.15625 6.109375 34.5625 8.28125 
Q 37.984375 10.453125 37.984375 14.40625 
Q 37.984375 18.0625 35.515625 20.015625 
Q 33.0625 21.96875 24.703125 23.78125 
L 21.578125 24.515625 
Q 13.234375 26.265625 9.515625 29.90625 
Q 5.8125 33.546875 5.8125 39.890625 
Q 5.8125 47.609375 11.28125 51.796875 
Q 16.75 56 26.8125 56 
Q 31.78125 56 36.171875 55.265625 
Q 40.578125 54.546875 44.28125 53.078125 
z
" id="DejaVuSans-115"/>
       <path d="M 37.109375 75.984375 
L 37.109375 68.5 
L 28.515625 68.5 
Q 23.6875 68.5 21.796875 66.546875 
Q 19.921875 64.59375 19.921875 59.515625 
L 19.921875 54.6875 
L 34.71875 54.6875 
L 34.71875 47.703125 
L 19.921875 47.703125 
L 19.921875 0 
L 10.890625 0 
L 10.890625 47.703125 
L 2.296875 47.703125 
L 2.296875 54.6875 
L 10.890625 54.6875 
L 10.890625 58.5 
Q 10.890625 67.625 15.140625 71.796875 
Q 19.390625 75.984375 28.609375 75.984375 
z
" id="DejaVuSans-102"/>
       <path d="M 48.78125 52.59375 
L 48.78125 44.1875 
Q 44.96875 46.296875 41.140625 47.34375 
Q 37.3125 48.390625 33.40625 48.390625 
Q 24.65625 48.390625 19.8125 42.84375 
Q 14.984375 37.3125 14.984375 27.296875 
Q 14.984375 17.28125 19.8125 11.734375 
Q 24.65625 6.203125 33.40625 6.203125 
Q 37.3125 6.203125 41.140625 7.25 
Q 44.96875 8.296875 48.78125 10.40625 
L 48.78125 2.09375 
Q 45.015625 0.34375 40.984375 -0.53125 
Q 36.96875 -1.421875 32.421875 -1.421875 
Q 20.0625 -1.421875 12.78125 6.34375 
Q 5.515625 14.109375 5.515625 27.296875 
Q 5.515625 40.671875 12.859375 48.328125 
Q 20.21875 56 33.015625 56 
Q 37.15625 56 41.109375 55.140625 
Q 45.0625 54.296875 48.78125 52.59375 
z
" id="DejaVuSans-99"/>
       <path d="M 41.109375 46.296875 
Q 39.59375 47.171875 37.8125 47.578125 
Q 36.03125 48 33.890625 48 
Q 26.265625 48 22.1875 43.046875 
Q 18.109375 38.09375 18.109375 28.8125 
L 18.109375 0 
L 9.078125 0 
L 9.078125 54.6875 
L 18.109375 54.6875 
L 18.109375 46.1875 
Q 20.953125 51.171875 25.484375 53.578125 
Q 30.03125 56 36.53125 56 
Q 37.453125 56 38.578125 55.875 
Q 39.703125 55.765625 41.0625 55.515625 
z
" id="DejaVuSans-114"/>
      </defs>
      <g transform="translate(65.495313 162.440719)scale(0.1 -0.1)">
       <use xlink:href="#DejaVuSans-83"/>
       <use x="63.476562" xlink:href="#DejaVuSans-97"/>
       <use x="124.755859" xlink:href="#DejaVuSans-116"/>
       <use x="163.964844" xlink:href="#DejaVuSans-105"/>
       <use x="191.748047" xlink:href="#DejaVuSans-115"/>
       <use x="243.847656" xlink:href="#DejaVuSans-102"/>
       <use x="279.052734" xlink:href="#DejaVuSans-97"/>
       <use x="340.332031" xlink:href="#DejaVuSans-99"/>
       <use x="395.3125" xlink:href="#DejaVuSans-116"/>
       <use x="434.521484" xlink:href="#DejaVuSans-111"/>
       <use x="495.703125" xlink:href="#DejaVuSans-114"/>
       <use x="536.816406" xlink:href="#DejaVuSans-105"/>
       <use x="564.599609" xlink:href="#DejaVuSans-111"/>
      </g>
     </g>
    </g>
    <g id="ytick_3">
     <g id="line2d_8">
      <g>
       <use style="stroke:#000000;stroke-width:0.8;" x="135.073438" xlink:href="#m5d01c3063e" y="240.1815"/>
      </g>
     </g>
     <g id="text_9">
      <!-- Básico -->
      <defs>
       <path d="M 19.671875 34.8125 
L 19.671875 8.109375 
L 35.5 8.109375 
Q 43.453125 8.109375 47.28125 11.40625 
Q 51.125 14.703125 51.125 21.484375 
Q 51.125 28.328125 47.28125 31.5625 
Q 43.453125 34.8125 35.5 34.8125 
z
M 19.671875 64.796875 
L 19.671875 42.828125 
L 34.28125 42.828125 
Q 41.5 42.828125 45.03125 45.53125 
Q 48.578125 48.25 48.578125 53.8125 
Q 48.578125 59.328125 45.03125 62.0625 
Q 41.5 64.796875 34.28125 64.796875 
z
M 9.8125 72.90625 
L 35.015625 72.90625 
Q 46.296875 72.90625 52.390625 68.21875 
Q 58.5 63.53125 58.5 54.890625 
Q 58.5 48.1875 55.375 44.234375 
Q 52.25 40.28125 46.1875 39.3125 
Q 53.46875 37.75 57.5 32.78125 
Q 61.53125 27.828125 61.53125 20.40625 
Q 61.53125 10.640625 54.890625 5.3125 
Q 48.25 0 35.984375 0 
L 9.8125 0 
z
" id="DejaVuSans-66"/>
       <path d="M 34.28125 27.484375 
Q 23.390625 27.484375 19.1875 25 
Q 14.984375 22.515625 14.984375 16.5 
Q 14.984375 11.71875 18.140625 8.90625 
Q 21.296875 6.109375 26.703125 6.109375 
Q 34.1875 6.109375 38.703125 11.40625 
Q 43.21875 16.703125 43.21875 25.484375 
L 43.21875 27.484375 
z
M 52.203125 31.203125 
L 52.203125 0 
L 43.21875 0 
L 43.21875 8.296875 
Q 40.140625 3.328125 35.546875 0.953125 
Q 30.953125 -1.421875 24.3125 -1.421875 
Q 15.921875 -1.421875 10.953125 3.296875 
Q 6 8.015625 6 15.921875 
Q 6 25.140625 12.171875 29.828125 
Q 18.359375 34.515625 30.609375 34.515625 
L 43.21875 34.515625 
L 43.21875 35.40625 
Q 43.21875 41.609375 39.140625 45 
Q 35.0625 48.390625 27.6875 48.390625 
Q 23 48.390625 18.546875 47.265625 
Q 14.109375 46.140625 10.015625 43.890625 
L 10.015625 52.203125 
Q 14.9375 54.109375 19.578125 55.046875 
Q 24.21875 56 28.609375 56 
Q 40.484375 56 46.34375 49.84375 
Q 52.203125 43.703125 52.203125 31.203125 
z
M 35.796875 79.984375 
L 45.515625 79.984375 
L 29.59375 61.625 
L 22.125 61.625 
z
" id="DejaVuSans-225"/>
      </defs>
      <g transform="translate(95.479688 243.980719)scale(0.1 -0.1)">
       <use xlink:href="#DejaVuSans-66"/>
       <use x="68.603516" xlink:href="#DejaVuSans-225"/>
       <use x="129.882812" xlink:href="#DejaVuSans-115"/>
       <use x="181.982422" xlink:href="#DejaVuSans-105"/>
       <use x="209.765625" xlink:href="#DejaVuSans-99"/>
       <use x="264.746094" xlink:href="#DejaVuSans-111"/>
      </g>
     </g>
    </g>
    <g id="ytick_4">
     <g id="line2d_9">
      <g>
       <use style="stroke:#000000;stroke-width:0.8;" x="135.073438" xlink:href="#m5d01c3063e" y="321.7215"/>
      </g>
     </g>
     <g id="text_10">
      <!-- Por debajo del básico -->
      <defs>
       <path d="M 19.671875 64.796875 
L 19.671875 37.40625 
L 32.078125 37.40625 
Q 38.96875 37.40625 42.71875 40.96875 
Q 46.484375 44.53125 46.484375 51.125 
Q 46.484375 57.671875 42.71875 61.234375 
Q 38.96875 64.796875 32.078125 64.796875 
z
M 9.8125 72.90625 
L 32.078125 72.90625 
Q 44.34375 72.90625 50.609375 67.359375 
Q 56.890625 61.8125 56.890625 51.125 
Q 56.890625 40.328125 50.609375 34.8125 
Q 44.34375 29.296875 32.078125 29.296875 
L 19.671875 29.296875 
L 19.671875 0 
L 9.8125 0 
z
" id="DejaVuSans-80"/>
       <path id="DejaVuSans-32"/>
       <path d="M 56.203125 29.59375 
L 56.203125 25.203125 
L 14.890625 25.203125 
Q 15.484375 15.921875 20.484375 11.0625 
Q 25.484375 6.203125 34.421875 6.203125 
Q 39.59375 6.203125 44.453125 7.46875 
Q 49.3125 8.734375 54.109375 11.28125 
L 54.109375 2.78125 
Q 49.265625 0.734375 44.1875 -0.34375 
Q 39.109375 -1.421875 33.890625 -1.421875 
Q 20.796875 -1.421875 13.15625 6.1875 
Q 5.515625 13.8125 5.515625 26.8125 
Q 5.515625 40.234375 12.765625 48.109375 
Q 20.015625 56 32.328125 56 
Q 43.359375 56 49.78125 48.890625 
Q 56.203125 41.796875 56.203125 29.59375 
z
M 47.21875 32.234375 
Q 47.125 39.59375 43.09375 43.984375 
Q 39.0625 48.390625 32.421875 48.390625 
Q 24.90625 48.390625 20.390625 44.140625 
Q 15.875 39.890625 15.1875 32.171875 
z
" id="DejaVuSans-101"/>
       <path d="M 48.6875 27.296875 
Q 48.6875 37.203125 44.609375 42.84375 
Q 40.53125 48.484375 33.40625 48.484375 
Q 26.265625 48.484375 22.1875 42.84375 
Q 18.109375 37.203125 18.109375 27.296875 
Q 18.109375 17.390625 22.1875 11.75 
Q 26.265625 6.109375 33.40625 6.109375 
Q 40.53125 6.109375 44.609375 11.75 
Q 48.6875 17.390625 48.6875 27.296875 
z
M 18.109375 46.390625 
Q 20.953125 51.265625 25.265625 53.625 
Q 29.59375 56 35.59375 56 
Q 45.5625 56 51.78125 48.09375 
Q 58.015625 40.1875 58.015625 27.296875 
Q 58.015625 14.40625 51.78125 6.484375 
Q 45.5625 -1.421875 35.59375 -1.421875 
Q 29.59375 -1.421875 25.265625 0.953125 
Q 20.953125 3.328125 18.109375 8.203125 
L 18.109375 0 
L 9.078125 0 
L 9.078125 75.984375 
L 18.109375 75.984375 
z
" id="DejaVuSans-98"/>
       <path d="M 9.421875 54.6875 
L 18.40625 54.6875 
L 18.40625 -0.984375 
Q 18.40625 -11.421875 14.421875 -16.109375 
Q 10.453125 -20.796875 1.609375 -20.796875 
L -1.8125 -20.796875 
L -1.8125 -13.1875 
L 0.59375 -13.1875 
Q 5.71875 -13.1875 7.5625 -10.8125 
Q 9.421875 -8.453125 9.421875 -0.984375 
z
M 9.421875 75.984375 
L 18.40625 75.984375 
L 18.40625 64.59375 
L 9.421875 64.59375 
z
" id="DejaVuSans-106"/>
       <path d="M 9.421875 75.984375 
L 18.40625 75.984375 
L 18.40625 0 
L 9.421875 0 
z
" id="DejaVuSans-108"/>
      </defs>
      <g transform="translate(21.048438 325.720719)scale(0.1 -0.1)">
       <use xlink:href="#DejaVuSans-80"/>
       <use x="60.255859" xlink:href="#DejaVuSans-111"/>
       <use x="121.4375" xlink:href="#DejaVuSans-114"/>
       <use x="162.550781" xlink:href="#DejaVuSans-32"/>
       <use x="194.337891" xlink:href="#DejaVuSans-100"/>
       <use x="257.814453" xlink:href="#DejaVuSans-101"/>
       <use x="319.337891" xlink:href="#DejaVuSans-98"/>
       <use x="382.814453" xlink:href="#DejaVuSans-97"/>
       <use x="444.09375" xlink:href="#DejaVuSans-106"/>
       <use x="471.876953" xlink:href="#DejaVuSans-111"/>
       <use x="533.058594" xlink:href="#DejaVuSans-32"/>
       <use x="564.845703" xlink:href="#DejaVuSans-100"/>
       <use x="628.322266" xlink:href="#DejaVuSans-101"/>
       <use x="689.845703" xlink:href="#DejaVuSans-108"/>
       <use x="717.628906" xlink:href="#DejaVuSans-32"/>
       <use x="749.416016" xlink:href="#DejaVuSans-98"/>
       <use x="812.892578" xlink:href="#DejaVuSans-225"/>
       <use x="874.171875" xlink:href="#DejaVuSans-115"/>
       <use x="926.271484" xlink:href="#DejaVuSans-105"/>
       <use x="954.054688" xlink:href="#DejaVuSans-99"/>
       <use x="1009.035156" xlink:href="#DejaVuSans-111"/>
      </g>
     </g>
    </g>
    <g id="text_11">
     <!-- Nivel de desempeño en lengua -->
     <defs>
      <path d="M 9.8125 72.90625 
L 23.09375 72.90625 
L 55.421875 11.921875 
L 55.421875 72.90625 
L 64.984375 72.90625 
L 64.984375 0 
L 51.703125 0 
L 19.390625 60.984375 
L 19.390625 0 
L 9.8125 0 
z
" id="DejaVuSans-78"/>
      <path d="M 52 44.1875 
Q 55.375 50.25 60.0625 53.125 
Q 64.75 56 71.09375 56 
Q 79.640625 56 84.28125 50.015625 
Q 88.921875 44.046875 88.921875 33.015625 
L 88.921875 0 
L 79.890625 0 
L 79.890625 32.71875 
Q 79.890625 40.578125 77.09375 44.375 
Q 74.3125 48.1875 68.609375 48.1875 
Q 61.625 48.1875 57.5625 43.546875 
Q 53.515625 38.921875 53.515625 30.90625 
L 53.515625 0 
L 44.484375 0 
L 44.484375 32.71875 
Q 44.484375 40.625 41.703125 44.40625 
Q 38.921875 48.1875 33.109375 48.1875 
Q 26.21875 48.1875 22.15625 43.53125 
Q 18.109375 38.875 18.109375 30.90625 
L 18.109375 0 
L 9.078125 0 
L 9.078125 54.6875 
L 18.109375 54.6875 
L 18.109375 46.1875 
Q 21.1875 51.21875 25.484375 53.609375 
Q 29.78125 56 35.6875 56 
Q 41.65625 56 45.828125 52.96875 
Q 50 49.953125 52 44.1875 
z
" id="DejaVuSans-109"/>
      <path d="M 18.109375 8.203125 
L 18.109375 -20.796875 
L 9.078125 -20.796875 
L 9.078125 54.6875 
L 18.109375 54.6875 
L 18.109375 46.390625 
Q 20.953125 51.265625 25.265625 53.625 
Q 29.59375 56 35.59375 56 
Q 45.5625 56 51.78125 48.09375 
Q 58.015625 40.1875 58.015625 27.296875 
Q 58.015625 14.40625 51.78125 6.484375 
Q 45.5625 -1.421875 35.59375 -1.421875 
Q 29.59375 -1.421875 25.265625 0.953125 
Q 20.953125 3.328125 18.109375 8.203125 
z
M 48.6875 27.296875 
Q 48.6875 37.203125 44.609375 42.84375 
Q 40.53125 48.484375 33.40625 48.484375 
Q 26.265625 48.484375 22.1875 42.84375 
Q 18.109375 37.203125 18.109375 27.296875 
Q 18.109375 17.390625 22.1875 11.75 
Q 26.265625 6.109375 33.40625 6.109375 
Q 40.53125 6.109375 44.609375 11.75 
Q 48.6875 17.390625 48.6875 27.296875 
z
" id="DejaVuSans-112"/>
      <path d="M 54.890625 33.015625 
L 54.890625 0 
L 45.90625 0 
L 45.90625 32.71875 
Q 45.90625 40.484375 42.875 44.328125 
Q 39.84375 48.1875 33.796875 48.1875 
Q 26.515625 48.1875 22.3125 43.546875 
Q 18.109375 38.921875 18.109375 30.90625 
L 18.109375 0 
L 9.078125 0 
L 9.078125 54.6875 
L 18.109375 54.6875 
L 18.109375 46.1875 
Q 21.34375 51.125 25.703125 53.5625 
Q 30.078125 56 35.796875 56 
Q 45.21875 56 50.046875 50.171875 
Q 54.890625 44.34375 54.890625 33.015625 
z
M 32.234375 66.890625 
L 29.4375 69.578125 
Q 28.375 70.5625 27.5625 71.015625 
Q 26.765625 71.484375 26.125 71.484375 
Q 24.265625 71.484375 23.390625 69.703125 
Q 22.515625 67.921875 22.40625 63.921875 
L 16.3125 63.921875 
Q 16.40625 70.515625 18.890625 74.09375 
Q 21.390625 77.6875 25.828125 77.6875 
Q 27.6875 77.6875 29.25 77 
Q 30.8125 76.3125 32.625 74.703125 
L 35.40625 72.015625 
Q 36.46875 71.046875 37.28125 70.578125 
Q 38.09375 70.125 38.71875 70.125 
Q 40.578125 70.125 41.453125 71.90625 
Q 42.328125 73.6875 42.4375 77.6875 
L 48.53125 77.6875 
Q 48.4375 71.09375 45.9375 67.5 
Q 43.453125 63.921875 39.015625 63.921875 
Q 37.15625 63.921875 35.59375 64.59375 
Q 34.03125 65.28125 32.234375 66.890625 
z
" id="DejaVuSans-241"/>
      <path d="M 45.40625 27.984375 
Q 45.40625 37.75 41.375 43.109375 
Q 37.359375 48.484375 30.078125 48.484375 
Q 22.859375 48.484375 18.828125 43.109375 
Q 14.796875 37.75 14.796875 27.984375 
Q 14.796875 18.265625 18.828125 12.890625 
Q 22.859375 7.515625 30.078125 7.515625 
Q 37.359375 7.515625 41.375 12.890625 
Q 45.40625 18.265625 45.40625 27.984375 
z
M 54.390625 6.78125 
Q 54.390625 -7.171875 48.1875 -13.984375 
Q 42 -20.796875 29.203125 -20.796875 
Q 24.46875 -20.796875 20.265625 -20.09375 
Q 16.0625 -19.390625 12.109375 -17.921875 
L 12.109375 -9.1875 
Q 16.0625 -11.328125 19.921875 -12.34375 
Q 23.78125 -13.375 27.78125 -13.375 
Q 36.625 -13.375 41.015625 -8.765625 
Q 45.40625 -4.15625 45.40625 5.171875 
L 45.40625 9.625 
Q 42.625 4.78125 38.28125 2.390625 
Q 33.9375 0 27.875 0 
Q 17.828125 0 11.671875 7.65625 
Q 5.515625 15.328125 5.515625 27.984375 
Q 5.515625 40.671875 11.671875 48.328125 
Q 17.828125 56 27.875 56 
Q 33.9375 56 38.28125 53.609375 
Q 42.625 51.21875 45.40625 46.390625 
L 45.40625 54.6875 
L 54.390625 54.6875 
z
" id="DejaVuSans-103"/>
      <path d="M 8.5 21.578125 
L 8.5 54.6875 
L 17.484375 54.6875 
L 17.484375 21.921875 
Q 17.484375 14.15625 20.5 10.265625 
Q 23.53125 6.390625 29.59375 6.390625 
Q 36.859375 6.390625 41.078125 11.03125 
Q 45.3125 15.671875 45.3125 23.6875 
L 45.3125 54.6875 
L 54.296875 54.6875 
L 54.296875 0 
L 45.3125 0 
L 45.3125 8.40625 
Q 42.046875 3.421875 37.71875 1 
Q 33.40625 -1.421875 27.6875 -1.421875 
Q 18.265625 -1.421875 13.375 4.4375 
Q 8.5 10.296875 8.5 21.578125 
z
M 31.109375 56 
z
" id="DejaVuSans-117"/>
     </defs>
     <g transform="translate(14.96875 277.141188)rotate(-90)scale(0.1 -0.1)">
      <use xlink:href="#DejaVuSans-78"/>
      <use x="74.804688" xlink:href="#DejaVuSans-105"/>
      <use x="102.587891" xlink:href="#DejaVuSans-118"/>
      <use x="161.767578" xlink:href="#DejaVuSans-101"/>
      <use x="223.291016" xlink:href="#DejaVuSans-108"/>
      <use x="251.074219" xlink:href="#DejaVuSans-32"/>
      <use x="282.861328" xlink:href="#DejaVuSans-100"/>
      <use x="346.337891" xlink:href="#DejaVuSans-101"/>
      <use x="407.861328" xlink:href="#DejaVuSans-32"/>
      <use x="439.648438" xlink:href="#DejaVuSans-100"/>
      <use x="503.125" xlink:href="#DejaVuSans-101"/>
      <use x="564.648438" xlink:href="#DejaVuSans-115"/>
      <use x="616.748047" xlink:href="#DejaVuSans-101"/>
      <use x="678.271484" xlink:href="#DejaVuSans-109"/>
      <use x="775.683594" xlink:href="#DejaVuSans-112"/>
      <use x="839.160156" xlink:href="#DejaVuSans-101"/>
      <use x="900.683594" xlink:href="#DejaVuSans-241"/>
      <use x="964.0625" xlink:href="#DejaVuSans-111"/>
      <use x="1025.244141" xlink:href="#DejaVuSans-32"/>
      <use x="1057.03125" xlink:href="#DejaVuSans-101"/>
      <use x="1118.554688" xlink:href="#DejaVuSans-110"/>
      <use x="1181.933594" xlink:href="#DejaVuSans-32"/>
      <use x="1213.720703" xlink:href="#DejaVuSans-108"/>
      <use x="1241.503906" xlink:href="#DejaVuSans-101"/>
      <use x="1303.027344" xlink:href="#DejaVuSans-110"/>
      <use x="1366.40625" xlink:href="#DejaVuSans-103"/>
      <use x="1429.882812" xlink:href="#DejaVuSans-117"/>
      <use x="1493.261719" xlink:href="#DejaVuSans-97"/>
     </g>
    </g>
   </g>
   <g id="line2d_10">
    <path clip-path="url(#p0e8f45a230)" d="M 164.472805 77.1015 
L 453.174597 77.1015 
" style="fill:none;stroke:#4c4c4c;stroke-linecap:square;stroke-width:1.5;"/>
   </g>
   <g id="line2d_11">
    <path clip-path="url(#p0e8f45a230)" d="M 215.039718 77.1015 
L 310.293669 77.1015 
" style="fill:none;stroke:#4c4c4c;stroke-linecap:square;stroke-width:4.5;"/>
   </g>
   <g id="line2d_12">
    <path clip-path="url(#p0e8f45a230)" d="M 164.472805 158.6415 
L 513.737294 158.6415 
" style="fill:none;stroke:#4c4c4c;stroke-linecap:square;stroke-width:1.5;"/>
   </g>
   <g id="line2d_13">
    <path clip-path="url(#p0e8f45a230)" d="M 239.147199 158.6415 
L 349.100835 158.6415 
" style="fill:none;stroke:#4c4c4c;stroke-linecap:square;stroke-width:4.5;"/>
   </g>
   <g id="line2d_14">
    <path clip-path="url(#p0e8f45a230)" d="M 164.472805 240.1815 
L 547.252573 240.1815 
" style="fill:none;stroke:#4c4c4c;stroke-linecap:square;stroke-width:1.5;"/>
   </g>
   <g id="line2d_15">
    <path clip-path="url(#p0e8f45a230)" d="M 253.258896 240.1815 
L 370.856367 240.1815 
" style="fill:none;stroke:#4c4c4c;stroke-linecap:square;stroke-width:4.5;"/>
   </g>
   <g id="line2d_16">
    <path clip-path="url(#p0e8f45a230)" d="M 164.472805 321.7215 
L 556.660371 321.7215 
" style="fill:none;stroke:#4c4c4c;stroke-linecap:square;stroke-width:1.5;"/>
   </g>
   <g id="line2d_17">
    <path clip-path="url(#p0e8f45a230)" d="M 256.78682 321.7215 
L 376.73624 321.7215 
" style="fill:none;stroke:#4c4c4c;stroke-linecap:square;stroke-width:4.5;"/>
   </g>
   <g id="patch_3">
    <path d="M 135.073438 362.4915 
L 135.073438 36.3315 
" style="fill:none;stroke:#000000;stroke-linecap:square;stroke-linejoin:miter;stroke-width:0.8;"/>
   </g>
   <g id="patch_4">
    <path d="M 693.073437 362.4915 
L 693.073437 36.3315 
" style="fill:none;stroke:#000000;stroke-linecap:square;stroke-linejoin:miter;stroke-width:0.8;"/>
   </g>
   <g id="patch_5">
    <path d="M 135.073438 362.4915 
L 693.073437 362.4915 
" style="fill:none;stroke:#000000;stroke-linecap:square;stroke-linejoin:miter;stroke-width:0.8;"/>
   </g>
   <g id="patch_6">
    <path d="M 135.073438 36.3315 
L 693.073437 36.3315 
" style="fill:none;stroke:#000000;stroke-linecap:square;stroke-linejoin:miter;stroke-width:0.8;"/>
   </g>
   <g id="PathCollection_1">
    <defs>
     <path d="M 0 1.5 
C 0.397805 1.5 0.77937 1.341951 1.06066 1.06066 
C 1.341951 0.77937 1.5 0.397805 1.5 0 
C 1.5 -0.397805 1.341951 -0.77937 1.06066 -1.06066 
C 0.77937 -1.341951 0.397805 -1.5 0 -1.5 
C -0.397805 -1.5 -0.77937 -1.341951 -1.06066 -1.06066 
C -1.341951 -0.77937 -1.5 -0.397805 -1.5 0 
C -1.5 0.397805 -1.341951 0.77937 -1.06066 1.06066 
C -0.77937 1.341951 -0.397805 1.5 0 1.5 
z
" id="md5a4724bbc" style="stroke:#4c4c4c;"/>
    </defs>
    <g clip-path="url(#p0e8f45a230)">
     <use style="fill:#ffffff;stroke:#4c4c4c;" x="262.078706" xlink:href="#md5a4724bbc" y="77.1015"/>
    </g>
   </g>
   <g id="PathCollection_2">
    <g clip-path="url(#p0e8f45a230)">
     <use style="fill:#ffffff;stroke:#4c4c4c;" x="285.010213" xlink:href="#md5a4724bbc" y="158.6415"/>
    </g>
   </g>
   <g id="PathCollection_3">
    <g clip-path="url(#p0e8f45a230)">
     <use style="fill:#ffffff;stroke:#4c4c4c;" x="303.825808" xlink:href="#md5a4724bbc" y="240.1815"/>
    </g>
   </g>
   <g id="PathCollection_4">
    <g clip-path="url(#p0e8f45a230)">
     <use style="fill:#ffffff;stroke:#4c4c4c;" x="309.117695" xlink:href="#md5a4724bbc" y="321.7215"/>
    </g>
   </g>
   <g id="text_12">
    <!-- Distribución de: ICSE según el desempeño en lengua -->
    <defs>
     <path d="M 19.671875 64.796875 
L 19.671875 8.109375 
L 31.59375 8.109375 
Q 46.6875 8.109375 53.6875 14.9375 
Q 60.6875 21.78125 60.6875 36.53125 
Q 60.6875 51.171875 53.6875 57.984375 
Q 46.6875 64.796875 31.59375 64.796875 
z
M 9.8125 72.90625 
L 30.078125 72.90625 
Q 51.265625 72.90625 61.171875 64.09375 
Q 71.09375 55.28125 71.09375 36.53125 
Q 71.09375 17.671875 61.125 8.828125 
Q 51.171875 0 30.078125 0 
L 9.8125 0 
z
" id="DejaVuSans-68"/>
     <path d="M 30.609375 48.390625 
Q 23.390625 48.390625 19.1875 42.75 
Q 14.984375 37.109375 14.984375 27.296875 
Q 14.984375 17.484375 19.15625 11.84375 
Q 23.34375 6.203125 30.609375 6.203125 
Q 37.796875 6.203125 41.984375 11.859375 
Q 46.1875 17.53125 46.1875 27.296875 
Q 46.1875 37.015625 41.984375 42.703125 
Q 37.796875 48.390625 30.609375 48.390625 
z
M 30.609375 56 
Q 42.328125 56 49.015625 48.375 
Q 55.71875 40.765625 55.71875 27.296875 
Q 55.71875 13.875 49.015625 6.21875 
Q 42.328125 -1.421875 30.609375 -1.421875 
Q 18.84375 -1.421875 12.171875 6.21875 
Q 5.515625 13.875 5.515625 27.296875 
Q 5.515625 40.765625 12.171875 48.375 
Q 18.84375 56 30.609375 56 
z
M 37.40625 79.984375 
L 47.125 79.984375 
L 31.203125 61.625 
L 23.734375 61.625 
z
" id="DejaVuSans-243"/>
     <path d="M 11.71875 12.40625 
L 22.015625 12.40625 
L 22.015625 0 
L 11.71875 0 
z
M 11.71875 51.703125 
L 22.015625 51.703125 
L 22.015625 39.3125 
L 11.71875 39.3125 
z
" id="DejaVuSans-58"/>
     <path d="M 8.5 21.578125 
L 8.5 54.6875 
L 17.484375 54.6875 
L 17.484375 21.921875 
Q 17.484375 14.15625 20.5 10.265625 
Q 23.53125 6.390625 29.59375 6.390625 
Q 36.859375 6.390625 41.078125 11.03125 
Q 45.3125 15.671875 45.3125 23.6875 
L 45.3125 54.6875 
L 54.296875 54.6875 
L 54.296875 0 
L 45.3125 0 
L 45.3125 8.40625 
Q 42.046875 3.421875 37.71875 1 
Q 33.40625 -1.421875 27.6875 -1.421875 
Q 18.265625 -1.421875 13.375 4.4375 
Q 8.5 10.296875 8.5 21.578125 
z
M 31.109375 56 
z
M 37.796875 79.984375 
L 47.515625 79.984375 
L 31.59375 61.625 
L 24.125 61.625 
z
" id="DejaVuSans-250"/>
    </defs>
    <g transform="translate(255.021875 16.798125)scale(0.12 -0.12)">
     <use xlink:href="#DejaVuSans-68"/>
     <use x="77.001953" xlink:href="#DejaVuSans-105"/>
     <use x="104.785156" xlink:href="#DejaVuSans-115"/>
     <use x="156.884766" xlink:href="#DejaVuSans-116"/>
     <use x="196.09375" xlink:href="#DejaVuSans-114"/>
     <use x="237.207031" xlink:href="#DejaVuSans-105"/>
     <use x="264.990234" xlink:href="#DejaVuSans-98"/>
     <use x="328.466797" xlink:href="#DejaVuSans-117"/>
     <use x="391.845703" xlink:href="#DejaVuSans-99"/>
     <use x="446.826172" xlink:href="#DejaVuSans-105"/>
     <use x="474.609375" xlink:href="#DejaVuSans-243"/>
     <use x="535.791016" xlink:href="#DejaVuSans-110"/>
     <use x="599.169922" xlink:href="#DejaVuSans-32"/>
     <use x="630.957031" xlink:href="#DejaVuSans-100"/>
     <use x="694.433594" xlink:href="#DejaVuSans-101"/>
     <use x="755.957031" xlink:href="#DejaVuSans-58"/>
     <use x="789.648438" xlink:href="#DejaVuSans-32"/>
     <use x="821.435547" xlink:href="#DejaVuSans-73"/>
     <use x="850.927734" xlink:href="#DejaVuSans-67"/>
     <use x="920.751953" xlink:href="#DejaVuSans-83"/>
     <use x="984.228516" xlink:href="#DejaVuSans-69"/>
     <use x="1047.412109" xlink:href="#DejaVuSans-32"/>
     <use x="1079.199219" xlink:href="#DejaVuSans-115"/>
     <use x="1131.298828" xlink:href="#DejaVuSans-101"/>
     <use x="1192.822266" xlink:href="#DejaVuSans-103"/>
     <use x="1256.298828" xlink:href="#DejaVuSans-250"/>
     <use x="1319.677734" xlink:href="#DejaVuSans-110"/>
     <use x="1383.056641" xlink:href="#DejaVuSans-32"/>
     <use x="1414.84375" xlink:href="#DejaVuSans-101"/>
     <use x="1476.367188" xlink:href="#DejaVuSans-108"/>
     <use x="1504.150391" xlink:href="#DejaVuSans-32"/>
     <use x="1535.9375" xlink:href="#DejaVuSans-100"/>
     <use x="1599.414062" xlink:href="#DejaVuSans-101"/>
     <use x="1660.9375" xlink:href="#DejaVuSans-115"/>
     <use x="1713.037109" xlink:href="#DejaVuSans-101"/>
     <use x="1774.560547" xlink:href="#DejaVuSans-109"/>
     <use x="1871.972656" xlink:href="#DejaVuSans-112"/>
     <use x="1935.449219" xlink:href="#DejaVuSans-101"/>
     <use x="1996.972656" xlink:href="#DejaVuSans-241"/>
     <use x="2060.351562" xlink:href="#DejaVuSans-111"/>
     <use x="2121.533203" xlink:href="#DejaVuSans-32"/>
     <use x="2153.320312" xlink:href="#DejaVuSans-101"/>
     <use x="2214.84375" xlink:href="#DejaVuSans-110"/>
     <use x="2278.222656" xlink:href="#DejaVuSans-32"/>
     <use x="2310.009766" xlink:href="#DejaVuSans-108"/>
     <use x="2337.792969" xlink:href="#DejaVuSans-101"/>
     <use x="2399.316406" xlink:href="#DejaVuSans-110"/>
     <use x="2462.695312" xlink:href="#DejaVuSans-103"/>
     <use x="2526.171875" xlink:href="#DejaVuSans-117"/>
     <use x="2589.550781" xlink:href="#DejaVuSans-97"/>
    </g>
    <!--  Nivel: Primaria -->
    <g transform="translate(368.090937 30.2355)scale(0.12 -0.12)">
     <use xlink:href="#DejaVuSans-32"/>
     <use x="31.787109" xlink:href="#DejaVuSans-78"/>
     <use x="106.591797" xlink:href="#DejaVuSans-105"/>
     <use x="134.375" xlink:href="#DejaVuSans-118"/>
     <use x="193.554688" xlink:href="#DejaVuSans-101"/>
     <use x="255.078125" xlink:href="#DejaVuSans-108"/>
     <use x="282.861328" xlink:href="#DejaVuSans-58"/>
     <use x="316.552734" xlink:href="#DejaVuSans-32"/>
     <use x="348.339844" xlink:href="#DejaVuSans-80"/>
     <use x="408.626953" xlink:href="#DejaVuSans-114"/>
     <use x="449.740234" xlink:href="#DejaVuSans-105"/>
     <use x="477.523438" xlink:href="#DejaVuSans-109"/>
     <use x="574.935547" xlink:href="#DejaVuSans-97"/>
     <use x="636.214844" xlink:href="#DejaVuSans-114"/>
     <use x="677.328125" xlink:href="#DejaVuSans-105"/>
     <use x="705.111328" xlink:href="#DejaVuSans-97"/>
    </g>
   </g>
  </g>
 </g>
 <defs>
  <clipPath id="p0e8f45a230">
   <rect height="326.16" width="558" x="135.073438" y="36.3315"/>
  </clipPath>
 </defs>
</svg>
