<?xml version="1.0" encoding="utf-8" standalone="no"?>
<!DOCTYPE svg PUBLIC "-//W3C//DTD SVG 1.1//EN"
  "http://www.w3.org/Graphics/SVG/1.1/DTD/svg11.dtd">
<!-- Created with matplotlib (https://matplotlib.org/) -->
<svg height="400.04775pt" version="1.1" viewBox="0 0 703.773437 400.04775" width="703.773437pt" xmlns="http://www.w3.org/2000/svg" xmlns:xlink="http://www.w3.org/1999/xlink">
 <defs>
  <style type="text/css">
*{stroke-linecap:butt;stroke-linejoin:round;}
  </style>
 </defs>
 <g id="figure_1">
  <g id="patch_1">
   <path d="M 0 400.04775 
L 703.773437 400.04775 
L 703.773437 0 
L 0 0 
z
" style="fill:#ffffff;"/>
  </g>
  <g id="axes_1">
   <g id="patch_2">
    <path d="M 135.073438 362.4915 
L 693.073437 362.4915 
L 693.073437 36.3315 
L 135.073438 36.3315 
z
" style="fill:#ffffff;"/>
   </g>
   <g id="PolyCollection_1">
    <defs>
     <path d="M 147.947255 -322.692193 
L 147.947255 -323.200307 
L 153.323541 -323.979187 
L 158.699828 -325.86082 
L 164.076114 -329.068998 
L 169.452401 -333.197027 
L 174.828687 -337.206158 
L 180.204974 -340.078267 
L 185.58126 -341.9781 
L 190.957547 -343.580384 
L 196.333833 -344.802669 
L 201.71012 -345.650979 
L 207.086406 -346.578903 
L 212.462693 -347.622199 
L 217.838979 -348.51369 
L 223.215266 -349.253579 
L 228.591552 -349.811121 
L 233.967839 -350.128949 
L 239.344125 -350.545417 
L 244.720412 -351.124285 
L 250.096698 -351.667658 
L 255.472985 -352.417786 
L 260.849272 -353.410702 
L 266.225558 -354.267354 
L 271.601845 -355.016959 
L 276.978131 -355.56225 
L 282.354418 -354.958799 
L 287.730704 -352.794387 
L 293.106991 -350.313486 
L 298.483277 -348.942671 
L 303.859564 -348.600667 
L 309.23585 -348.365976 
L 314.612137 -347.852872 
L 319.988423 -347.219378 
L 325.36471 -346.49228 
L 330.740996 -345.589788 
L 336.117283 -344.743439 
L 341.493569 -344.200058 
L 346.869856 -343.674028 
L 352.246142 -342.533885 
L 357.622429 -340.705214 
L 362.998716 -338.983863 
L 368.375002 -338.079325 
L 373.751289 -337.979576 
L 379.127575 -338.28632 
L 384.503862 -338.397901 
L 389.880148 -337.67175 
L 395.256435 -336.249955 
L 400.632721 -335.064661 
L 406.009008 -334.533087 
L 411.385294 -334.300025 
L 416.761581 -333.907636 
L 422.137867 -333.031266 
L 427.514154 -331.807622 
L 432.89044 -330.755172 
L 438.266727 -330.014019 
L 443.643013 -329.320502 
L 449.0193 -328.588196 
L 454.395586 -327.972737 
L 459.771873 -327.600268 
L 465.148159 -327.41391 
L 470.524446 -327.224679 
L 475.900733 -326.936689 
L 481.277019 -326.631243 
L 486.653306 -326.368127 
L 492.029592 -326.088904 
L 497.405879 -325.78027 
L 502.782165 -325.524457 
L 508.158452 -325.38769 
L 513.534738 -325.346638 
L 518.911025 -325.296797 
L 524.287311 -325.166315 
L 529.663598 -324.996406 
L 535.039884 -324.874159 
L 540.416171 -324.829656 
L 545.792457 -324.823908 
L 551.168744 -324.82977 
L 556.54503 -324.859713 
L 561.921317 -324.919686 
L 567.297603 -324.99215 
L 572.67389 -325.033498 
L 578.050177 -325.013241 
L 583.426463 -324.946094 
L 588.80275 -324.866974 
L 594.179036 -324.801348 
L 599.555323 -324.733613 
L 604.931609 -324.623985 
L 610.307896 -324.462312 
L 615.684182 -324.291745 
L 621.060469 -324.151278 
L 626.436755 -324.010111 
L 631.813042 -323.832073 
L 637.189328 -323.635854 
L 642.565615 -323.439395 
L 647.941901 -323.253269 
L 653.318188 -323.11376 
L 658.694474 -323.040926 
L 664.070761 -323.009321 
L 669.447047 -322.986082 
L 674.823334 -322.964696 
L 680.19962 -322.951854 
L 680.19962 -322.940646 
L 680.19962 -322.940646 
L 674.823334 -322.927804 
L 669.447047 -322.906418 
L 664.070761 -322.883179 
L 658.694474 -322.851574 
L 653.318188 -322.77874 
L 647.941901 -322.639231 
L 642.565615 -322.453105 
L 637.189328 -322.256646 
L 631.813042 -322.060427 
L 626.436755 -321.882389 
L 621.060469 -321.741222 
L 615.684182 -321.600755 
L 610.307896 -321.430188 
L 604.931609 -321.268515 
L 599.555323 -321.158887 
L 594.179036 -321.091152 
L 588.80275 -321.025526 
L 583.426463 -320.946406 
L 578.050177 -320.879259 
L 572.67389 -320.859002 
L 567.297603 -320.90035 
L 561.921317 -320.972814 
L 556.54503 -321.032787 
L 551.168744 -321.06273 
L 545.792457 -321.068592 
L 540.416171 -321.062844 
L 535.039884 -321.018341 
L 529.663598 -320.896094 
L 524.287311 -320.726185 
L 518.911025 -320.595703 
L 513.534738 -320.545862 
L 508.158452 -320.50481 
L 502.782165 -320.368043 
L 497.405879 -320.11223 
L 492.029592 -319.803596 
L 486.653306 -319.524373 
L 481.277019 -319.261257 
L 475.900733 -318.955811 
L 470.524446 -318.667821 
L 465.148159 -318.47859 
L 459.771873 -318.292232 
L 454.395586 -317.919763 
L 449.0193 -317.304304 
L 443.643013 -316.571998 
L 438.266727 -315.878481 
L 432.89044 -315.137328 
L 427.514154 -314.084878 
L 422.137867 -312.861234 
L 416.761581 -311.984864 
L 411.385294 -311.592475 
L 406.009008 -311.359413 
L 400.632721 -310.827839 
L 395.256435 -309.642545 
L 389.880148 -308.22075 
L 384.503862 -307.494599 
L 379.127575 -307.60618 
L 373.751289 -307.912924 
L 368.375002 -307.813175 
L 362.998716 -306.908637 
L 357.622429 -305.187286 
L 352.246142 -303.358615 
L 346.869856 -302.218472 
L 341.493569 -301.692442 
L 336.117283 -301.149061 
L 330.740996 -300.302712 
L 325.36471 -299.40022 
L 319.988423 -298.673122 
L 314.612137 -298.039628 
L 309.23585 -297.526524 
L 303.859564 -297.291833 
L 298.483277 -296.949829 
L 293.106991 -295.579014 
L 287.730704 -293.098113 
L 282.354418 -290.933701 
L 276.978131 -290.33025 
L 271.601845 -290.875541 
L 266.225558 -291.625146 
L 260.849272 -292.481798 
L 255.472985 -293.474714 
L 250.096698 -294.224842 
L 244.720412 -294.768215 
L 239.344125 -295.347083 
L 233.967839 -295.763551 
L 228.591552 -296.081379 
L 223.215266 -296.638921 
L 217.838979 -297.37881 
L 212.462693 -298.270301 
L 207.086406 -299.313597 
L 201.71012 -300.241521 
L 196.333833 -301.089831 
L 190.957547 -302.312116 
L 185.58126 -303.9144 
L 180.204974 -305.814233 
L 174.828687 -308.686342 
L 169.452401 -312.695473 
L 164.076114 -316.823502 
L 158.699828 -320.03168 
L 153.323541 -321.913313 
L 147.947255 -322.692193 
z
" id="m5859fe09b4" style="stroke:#4c4c4c;stroke-width:1.5;"/>
    </defs>
    <g clip-path="url(#p886217a3d6)">
     <use style="fill:#2020df;stroke:#4c4c4c;stroke-width:1.5;" x="0" xlink:href="#m5859fe09b4" y="400.04775"/>
    </g>
   </g>
   <g id="PolyCollection_2">
    <defs>
     <path d="M 150.367119 -241.306674 
L 150.367119 -241.505826 
L 155.69452 -241.92152 
L 161.02192 -243.103409 
L 166.349321 -245.368518 
L 171.676721 -248.310419 
L 177.004121 -250.606475 
L 182.331522 -251.77646 
L 187.658922 -252.997913 
L 192.986322 -254.643716 
L 198.313723 -256.200912 
L 203.641123 -257.738204 
L 208.968523 -258.810042 
L 214.295924 -259.132676 
L 219.623324 -259.754088 
L 224.950725 -261.359427 
L 230.278125 -262.868824 
L 235.605525 -263.902099 
L 240.932926 -265.116105 
L 246.260326 -266.020001 
L 251.587726 -266.464996 
L 256.915127 -267.676768 
L 262.242527 -269.883891 
L 267.569927 -271.580288 
L 272.897328 -272.02916 
L 278.224728 -271.651252 
L 283.552129 -270.693515 
L 288.879529 -269.430377 
L 294.206929 -268.879786 
L 299.53433 -269.873931 
L 304.86173 -271.080392 
L 310.18913 -270.546145 
L 315.516531 -268.681821 
L 320.843931 -267.551767 
L 326.171331 -267.543125 
L 331.498732 -267.452957 
L 336.826132 -267.213834 
L 342.153533 -267.30426 
L 347.480933 -267.568141 
L 352.808333 -267.035424 
L 358.135734 -265.186615 
L 363.463134 -263.258899 
L 368.790534 -262.289595 
L 374.117935 -262.194336 
L 379.445335 -262.52675 
L 384.772735 -262.505218 
L 390.100136 -261.354272 
L 395.427536 -259.356287 
L 400.754937 -257.729151 
L 406.082337 -256.66467 
L 411.409737 -255.95634 
L 416.737138 -255.938991 
L 422.064538 -255.850344 
L 427.391938 -254.475977 
L 432.719339 -252.398138 
L 438.046739 -250.73726 
L 443.37414 -249.563749 
L 448.70154 -248.799713 
L 454.02894 -248.322613 
L 459.356341 -247.954524 
L 464.683741 -247.687554 
L 470.011141 -247.364118 
L 475.338542 -246.839283 
L 480.665942 -246.337318 
L 485.993342 -246.139199 
L 491.320743 -245.920223 
L 496.648143 -245.273982 
L 501.975544 -244.486076 
L 507.302944 -243.981455 
L 512.630344 -243.786925 
L 517.957745 -243.710282 
L 523.285145 -243.593081 
L 528.612545 -243.391043 
L 533.939946 -243.179302 
L 539.267346 -243.050122 
L 544.594746 -242.956688 
L 549.922147 -242.868155 
L 555.249547 -242.812431 
L 560.576948 -242.761277 
L 565.904348 -242.762149 
L 571.231748 -242.831838 
L 576.559149 -242.868971 
L 581.886549 -242.851658 
L 587.213949 -242.801864 
L 592.54135 -242.707251 
L 597.86875 -242.585791 
L 603.19615 -242.444922 
L 608.523551 -242.287291 
L 613.850951 -242.1487 
L 619.178352 -242.047059 
L 624.505752 -241.950362 
L 629.833152 -241.842097 
L 635.160553 -241.756813 
L 640.487953 -241.685063 
L 645.815353 -241.601565 
L 651.142754 -241.521115 
L 656.470154 -241.464329 
L 661.797554 -241.436848 
L 667.124955 -241.424533 
L 672.452355 -241.414598 
L 677.779756 -241.408441 
L 677.779756 -241.404059 
L 677.779756 -241.404059 
L 672.452355 -241.397902 
L 667.124955 -241.387967 
L 661.797554 -241.375652 
L 656.470154 -241.348171 
L 651.142754 -241.291385 
L 645.815353 -241.210935 
L 640.487953 -241.127437 
L 635.160553 -241.055687 
L 629.833152 -240.970403 
L 624.505752 -240.862138 
L 619.178352 -240.765441 
L 613.850951 -240.6638 
L 608.523551 -240.525209 
L 603.19615 -240.367578 
L 597.86875 -240.226709 
L 592.54135 -240.105249 
L 587.213949 -240.010636 
L 581.886549 -239.960842 
L 576.559149 -239.943529 
L 571.231748 -239.980662 
L 565.904348 -240.050351 
L 560.576948 -240.051223 
L 555.249547 -240.000069 
L 549.922147 -239.944345 
L 544.594746 -239.855812 
L 539.267346 -239.762378 
L 533.939946 -239.633198 
L 528.612545 -239.421457 
L 523.285145 -239.219419 
L 517.957745 -239.102218 
L 512.630344 -239.025575 
L 507.302944 -238.831045 
L 501.975544 -238.326424 
L 496.648143 -237.538518 
L 491.320743 -236.892277 
L 485.993342 -236.673301 
L 480.665942 -236.475182 
L 475.338542 -235.973217 
L 470.011141 -235.448382 
L 464.683741 -235.124946 
L 459.356341 -234.857976 
L 454.02894 -234.489887 
L 448.70154 -234.012787 
L 443.37414 -233.248751 
L 438.046739 -232.07524 
L 432.719339 -230.414362 
L 427.391938 -228.336523 
L 422.064538 -226.962156 
L 416.737138 -226.873509 
L 411.409737 -226.85616 
L 406.082337 -226.14783 
L 400.754937 -225.083349 
L 395.427536 -223.456213 
L 390.100136 -221.458228 
L 384.772735 -220.307282 
L 379.445335 -220.28575 
L 374.117935 -220.618164 
L 368.790534 -220.522905 
L 363.463134 -219.553601 
L 358.135734 -217.625885 
L 352.808333 -215.777076 
L 347.480933 -215.244359 
L 342.153533 -215.50824 
L 336.826132 -215.598666 
L 331.498732 -215.359543 
L 326.171331 -215.269375 
L 320.843931 -215.260733 
L 315.516531 -214.130679 
L 310.18913 -212.266355 
L 304.86173 -211.732108 
L 299.53433 -212.938569 
L 294.206929 -213.932714 
L 288.879529 -213.382123 
L 283.552129 -212.118985 
L 278.224728 -211.161248 
L 272.897328 -210.78334 
L 267.569927 -211.232212 
L 262.242527 -212.928609 
L 256.915127 -215.135732 
L 251.587726 -216.347504 
L 246.260326 -216.792499 
L 240.932926 -217.696395 
L 235.605525 -218.910401 
L 230.278125 -219.943676 
L 224.950725 -221.453073 
L 219.623324 -223.058412 
L 214.295924 -223.679824 
L 208.968523 -224.002458 
L 203.641123 -225.074296 
L 198.313723 -226.611588 
L 192.986322 -228.168784 
L 187.658922 -229.814587 
L 182.331522 -231.03604 
L 177.004121 -232.206025 
L 171.676721 -234.502081 
L 166.349321 -237.443982 
L 161.02192 -239.709091 
L 155.69452 -240.89098 
L 150.367119 -241.306674 
z
" id="m866c3a076b" style="stroke:#4c4c4c;stroke-width:1.5;"/>
    </defs>
    <g clip-path="url(#p886217a3d6)">
     <use style="fill:#2020df;stroke:#4c4c4c;stroke-width:1.5;" x="0" xlink:href="#m866c3a076b" y="400.04775"/>
    </g>
   </g>
   <g id="PolyCollection_3">
    <defs>
     <path d="M 149.07424 -159.813826 
L 149.07424 -159.918674 
L 154.427759 -160.137758 
L 159.781278 -160.854629 
L 165.134798 -162.441499 
L 170.488317 -164.669268 
L 175.841836 -166.495916 
L 181.195355 -167.436571 
L 186.548874 -168.267242 
L 191.902393 -169.423636 
L 197.255912 -170.415564 
L 202.609432 -171.168895 
L 207.962951 -171.928892 
L 213.31647 -172.679841 
L 218.669989 -173.919615 
L 224.023508 -176.189681 
L 229.377027 -178.623956 
L 234.730546 -180.18907 
L 240.084065 -180.923871 
L 245.437585 -180.974499 
L 250.791104 -180.93024 
L 256.144623 -181.915115 
L 261.498142 -183.996687 
L 266.851661 -186.190844 
L 272.20518 -187.717077 
L 277.558699 -188.192011 
L 282.912219 -187.683819 
L 288.265738 -186.916725 
L 293.619257 -186.642082 
L 298.972776 -186.9572 
L 304.326295 -187.201646 
L 309.679814 -186.552619 
L 315.033333 -185.221702 
L 320.386853 -184.473881 
L 325.740372 -184.998253 
L 331.093891 -186.250429 
L 336.44741 -187.635284 
L 341.800929 -188.73722 
L 347.154448 -188.791032 
L 352.507967 -187.172742 
L 357.861487 -184.449026 
L 363.215006 -182.403154 
L 368.568525 -182.146658 
L 373.922044 -183.311567 
L 379.275563 -184.841333 
L 384.629082 -185.211269 
L 389.982601 -183.607178 
L 395.336121 -181.205233 
L 400.68964 -179.515725 
L 406.043159 -178.519731 
L 411.396678 -177.745259 
L 416.750197 -177.135243 
L 422.103716 -176.259281 
L 427.457235 -174.79086 
L 432.810754 -173.234788 
L 438.164274 -171.837717 
L 443.517793 -170.418918 
L 448.871312 -169.310973 
L 454.224831 -168.699931 
L 459.57835 -168.321787 
L 464.931869 -168.050108 
L 470.285388 -167.732571 
L 475.638908 -167.185688 
L 480.992427 -166.755443 
L 486.345946 -166.895399 
L 491.699465 -166.966785 
L 497.052984 -166.085158 
L 502.406503 -164.669641 
L 507.760022 -163.624314 
L 513.113542 -163.100428 
L 518.467061 -162.738435 
L 523.82058 -162.353108 
L 529.174099 -162.05021 
L 534.527618 -161.893963 
L 539.881137 -161.814822 
L 545.234656 -161.77516 
L 550.588176 -161.734407 
L 555.941695 -161.608571 
L 561.295214 -161.450471 
L 566.648733 -161.428702 
L 572.002252 -161.499082 
L 577.355771 -161.502639 
L 582.70929 -161.473198 
L 588.06281 -161.454421 
L 593.416329 -161.337342 
L 598.769848 -161.10816 
L 604.123367 -160.924392 
L 609.476886 -160.829828 
L 614.830405 -160.746376 
L 620.183924 -160.66759 
L 625.537443 -160.580354 
L 630.890963 -160.449913 
L 636.244482 -160.305042 
L 641.598001 -160.179506 
L 646.95152 -160.087591 
L 652.305039 -160.030296 
L 657.658558 -159.991758 
L 663.012077 -159.961301 
L 668.365597 -159.928751 
L 673.719116 -159.895241 
L 679.072635 -159.874575 
L 679.072635 -159.857925 
L 679.072635 -159.857925 
L 673.719116 -159.837259 
L 668.365597 -159.803749 
L 663.012077 -159.771199 
L 657.658558 -159.740742 
L 652.305039 -159.702204 
L 646.95152 -159.644909 
L 641.598001 -159.552994 
L 636.244482 -159.427458 
L 630.890963 -159.282587 
L 625.537443 -159.152146 
L 620.183924 -159.06491 
L 614.830405 -158.986124 
L 609.476886 -158.902672 
L 604.123367 -158.808108 
L 598.769848 -158.62434 
L 593.416329 -158.395158 
L 588.06281 -158.278079 
L 582.70929 -158.259302 
L 577.355771 -158.229861 
L 572.002252 -158.233418 
L 566.648733 -158.303798 
L 561.295214 -158.282029 
L 555.941695 -158.123929 
L 550.588176 -157.998093 
L 545.234656 -157.95734 
L 539.881137 -157.917678 
L 534.527618 -157.838537 
L 529.174099 -157.68229 
L 523.82058 -157.379392 
L 518.467061 -156.994065 
L 513.113542 -156.632072 
L 507.760022 -156.108186 
L 502.406503 -155.062859 
L 497.052984 -153.647342 
L 491.699465 -152.765715 
L 486.345946 -152.837101 
L 480.992427 -152.977057 
L 475.638908 -152.546812 
L 470.285388 -151.999929 
L 464.931869 -151.682392 
L 459.57835 -151.410713 
L 454.224831 -151.032569 
L 448.871312 -150.421527 
L 443.517793 -149.313582 
L 438.164274 -147.894783 
L 432.810754 -146.497712 
L 427.457235 -144.94164 
L 422.103716 -143.473219 
L 416.750197 -142.597257 
L 411.396678 -141.987241 
L 406.043159 -141.212769 
L 400.68964 -140.216775 
L 395.336121 -138.527267 
L 389.982601 -136.125322 
L 384.629082 -134.521231 
L 379.275563 -134.891167 
L 373.922044 -136.420933 
L 368.568525 -137.585842 
L 363.215006 -137.329346 
L 357.861487 -135.283474 
L 352.507967 -132.559758 
L 347.154448 -130.941468 
L 341.800929 -130.99528 
L 336.44741 -132.097216 
L 331.093891 -133.482071 
L 325.740372 -134.734247 
L 320.386853 -135.258619 
L 315.033333 -134.510798 
L 309.679814 -133.179881 
L 304.326295 -132.530854 
L 298.972776 -132.7753 
L 293.619257 -133.090418 
L 288.265738 -132.815775 
L 282.912219 -132.048681 
L 277.558699 -131.540489 
L 272.20518 -132.015423 
L 266.851661 -133.541656 
L 261.498142 -135.735813 
L 256.144623 -137.817385 
L 250.791104 -138.80226 
L 245.437585 -138.758001 
L 240.084065 -138.808629 
L 234.730546 -139.54343 
L 229.377027 -141.108544 
L 224.023508 -143.542819 
L 218.669989 -145.812885 
L 213.31647 -147.052659 
L 207.962951 -147.803608 
L 202.609432 -148.563605 
L 197.255912 -149.316936 
L 191.902393 -150.308864 
L 186.548874 -151.465258 
L 181.195355 -152.295929 
L 175.841836 -153.236584 
L 170.488317 -155.063232 
L 165.134798 -157.291001 
L 159.781278 -158.877871 
L 154.427759 -159.594742 
L 149.07424 -159.813826 
z
" id="ma87335245f" style="stroke:#4c4c4c;stroke-width:1.5;"/>
    </defs>
    <g clip-path="url(#p886217a3d6)">
     <use style="fill:#2020df;stroke:#4c4c4c;stroke-width:1.5;" x="0" xlink:href="#ma87335245f" y="400.04775"/>
    </g>
   </g>
   <g id="PolyCollection_4">
    <defs>
     <path d="M 147.984476 -78.28602 
L 147.984476 -78.36648 
L 153.36001 -78.573126 
L 158.735545 -79.347303 
L 164.111079 -81.133781 
L 169.486614 -83.508882 
L 174.862149 -85.070637 
L 180.237683 -85.340033 
L 185.613218 -85.487732 
L 190.988752 -86.289449 
L 196.364287 -87.257519 
L 201.739821 -88.054907 
L 207.115356 -88.91219 
L 212.490891 -89.926785 
L 217.866425 -91.248835 
L 223.24196 -93.217157 
L 228.617494 -95.383976 
L 233.993029 -96.72036 
L 239.368564 -97.083027 
L 244.744098 -97.054389 
L 250.119633 -97.25373 
L 255.495167 -98.282731 
L 260.870702 -100.148457 
L 266.246236 -102.075311 
L 271.621771 -103.439594 
L 276.997306 -104.283051 
L 282.37284 -104.895063 
L 287.748375 -105.369173 
L 293.123909 -105.675251 
L 298.499444 -105.74693 
L 303.874979 -105.114891 
L 309.250513 -103.562299 
L 314.626048 -102.128429 
L 320.001582 -102.060076 
L 325.377117 -103.399781 
L 330.752651 -105.213377 
L 336.128186 -106.491159 
L 341.503721 -106.773537 
L 346.879255 -106.366778 
L 352.25479 -105.59722 
L 357.630324 -104.414813 
L 363.005859 -103.311256 
L 368.381394 -102.99969 
L 373.756928 -103.236435 
L 379.132463 -103.291032 
L 384.507997 -102.636234 
L 389.883532 -101.195887 
L 395.259066 -99.66132 
L 400.634601 -98.672655 
L 406.010136 -97.975432 
L 411.38567 -97.309881 
L 416.761205 -96.845146 
L 422.136739 -96.22924 
L 427.512274 -94.866198 
L 432.887809 -92.956596 
L 438.263343 -91.044345 
L 443.638878 -89.519975 
L 449.014412 -88.678028 
L 454.389947 -88.303411 
L 459.765481 -87.92133 
L 465.141016 -87.4089 
L 470.516551 -86.846688 
L 475.892085 -86.315796 
L 481.26762 -86.010441 
L 486.643154 -85.985532 
L 492.018689 -85.785774 
L 497.394224 -84.978584 
L 502.769758 -83.804778 
L 508.145293 -82.791183 
L 513.520827 -82.119637 
L 518.896362 -81.673992 
L 524.271896 -81.328774 
L 529.647431 -81.037464 
L 535.022966 -80.81135 
L 540.3985 -80.664133 
L 545.774035 -80.595062 
L 551.149569 -80.582518 
L 556.525104 -80.557129 
L 561.900639 -80.469433 
L 567.276173 -80.355346 
L 572.651708 -80.263037 
L 578.027242 -80.223276 
L 583.402777 -80.235531 
L 588.778311 -80.209242 
L 594.153846 -80.061185 
L 599.529381 -79.863332 
L 604.904915 -79.74356 
L 610.28045 -79.70915 
L 615.655984 -79.678411 
L 621.031519 -79.565685 
L 626.407054 -79.33121 
L 631.782588 -79.05698 
L 637.158123 -78.850101 
L 642.533657 -78.704437 
L 647.909192 -78.587884 
L 653.284726 -78.513454 
L 658.660261 -78.482229 
L 664.035796 -78.459907 
L 669.41133 -78.418119 
L 674.786865 -78.369706 
L 680.162399 -78.339511 
L 680.162399 -78.312989 
L 680.162399 -78.312989 
L 674.786865 -78.282794 
L 669.41133 -78.234381 
L 664.035796 -78.192593 
L 658.660261 -78.170271 
L 653.284726 -78.139046 
L 647.909192 -78.064616 
L 642.533657 -77.948063 
L 637.158123 -77.802399 
L 631.782588 -77.59552 
L 626.407054 -77.32129 
L 621.031519 -77.086815 
L 615.655984 -76.974089 
L 610.28045 -76.94335 
L 604.904915 -76.90894 
L 599.529381 -76.789168 
L 594.153846 -76.591315 
L 588.778311 -76.443258 
L 583.402777 -76.416969 
L 578.027242 -76.429224 
L 572.651708 -76.389463 
L 567.276173 -76.297154 
L 561.900639 -76.183067 
L 556.525104 -76.095371 
L 551.149569 -76.069982 
L 545.774035 -76.057438 
L 540.3985 -75.988367 
L 535.022966 -75.84115 
L 529.647431 -75.615036 
L 524.271896 -75.323726 
L 518.896362 -74.978508 
L 513.520827 -74.532863 
L 508.145293 -73.861317 
L 502.769758 -72.847722 
L 497.394224 -71.673916 
L 492.018689 -70.866726 
L 486.643154 -70.666968 
L 481.26762 -70.642059 
L 475.892085 -70.336704 
L 470.516551 -69.805812 
L 465.141016 -69.2436 
L 459.765481 -68.73117 
L 454.389947 -68.349089 
L 449.014412 -67.974472 
L 443.638878 -67.132525 
L 438.263343 -65.608155 
L 432.887809 -63.695904 
L 427.512274 -61.786302 
L 422.136739 -60.42326 
L 416.761205 -59.807354 
L 411.38567 -59.342619 
L 406.010136 -58.677068 
L 400.634601 -57.979845 
L 395.259066 -56.99118 
L 389.883532 -55.456613 
L 384.507997 -54.016266 
L 379.132463 -53.361468 
L 373.756928 -53.416065 
L 368.381394 -53.65281 
L 363.005859 -53.341244 
L 357.630324 -52.237687 
L 352.25479 -51.05528 
L 346.879255 -50.285722 
L 341.503721 -49.878963 
L 336.128186 -50.161341 
L 330.752651 -51.439123 
L 325.377117 -53.252719 
L 320.001582 -54.592424 
L 314.626048 -54.524071 
L 309.250513 -53.090201 
L 303.874979 -51.537609 
L 298.499444 -50.90557 
L 293.123909 -50.977249 
L 287.748375 -51.283327 
L 282.37284 -51.757437 
L 276.997306 -52.369449 
L 271.621771 -53.212906 
L 266.246236 -54.577189 
L 260.870702 -56.504043 
L 255.495167 -58.369769 
L 250.119633 -59.39877 
L 244.744098 -59.598111 
L 239.368564 -59.569473 
L 233.993029 -59.93214 
L 228.617494 -61.268524 
L 223.24196 -63.435343 
L 217.866425 -65.403665 
L 212.490891 -66.725715 
L 207.115356 -67.74031 
L 201.739821 -68.597593 
L 196.364287 -69.394981 
L 190.988752 -70.363051 
L 185.613218 -71.164768 
L 180.237683 -71.312467 
L 174.862149 -71.581863 
L 169.486614 -73.143618 
L 164.111079 -75.518719 
L 158.735545 -77.305197 
L 153.36001 -78.079374 
L 147.984476 -78.28602 
z
" id="mad02671a8b" style="stroke:#4c4c4c;stroke-width:1.5;"/>
    </defs>
    <g clip-path="url(#p886217a3d6)">
     <use style="fill:#2020df;stroke:#4c4c4c;stroke-width:1.5;" x="0" xlink:href="#mad02671a8b" y="400.04775"/>
    </g>
   </g>
   <g id="matplotlib.axis_1">
    <g id="xtick_1">
     <g id="line2d_1">
      <defs>
       <path d="M 0 0 
L 0 3.5 
" id="m1e05babe46" style="stroke:#000000;stroke-width:0.8;"/>
      </defs>
      <g>
       <use style="stroke:#000000;stroke-width:0.8;" x="147.561739" xlink:href="#m1e05babe46" y="362.4915"/>
      </g>
     </g>
     <g id="text_1">
      <!-- 0.0 -->
      <defs>
       <path d="M 31.78125 66.40625 
Q 24.171875 66.40625 20.328125 58.90625 
Q 16.5 51.421875 16.5 36.375 
Q 16.5 21.390625 20.328125 13.890625 
Q 24.171875 6.390625 31.78125 6.390625 
Q 39.453125 6.390625 43.28125 13.890625 
Q 47.125 21.390625 47.125 36.375 
Q 47.125 51.421875 43.28125 58.90625 
Q 39.453125 66.40625 31.78125 66.40625 
z
M 31.78125 74.21875 
Q 44.046875 74.21875 50.515625 64.515625 
Q 56.984375 54.828125 56.984375 36.375 
Q 56.984375 17.96875 50.515625 8.265625 
Q 44.046875 -1.421875 31.78125 -1.421875 
Q 19.53125 -1.421875 13.0625 8.265625 
Q 6.59375 17.96875 6.59375 36.375 
Q 6.59375 54.828125 13.0625 64.515625 
Q 19.53125 74.21875 31.78125 74.21875 
z
" id="DejaVuSans-48"/>
       <path d="M 10.6875 12.40625 
L 21 12.40625 
L 21 0 
L 10.6875 0 
z
" id="DejaVuSans-46"/>
      </defs>
      <g transform="translate(139.610176 377.089938)scale(0.1 -0.1)">
       <use xlink:href="#DejaVuSans-48"/>
       <use x="63.623047" xlink:href="#DejaVuSans-46"/>
       <use x="95.410156" xlink:href="#DejaVuSans-48"/>
      </g>
     </g>
    </g>
    <g id="xtick_2">
     <g id="line2d_2">
      <g>
       <use style="stroke:#000000;stroke-width:0.8;" x="261.091749" xlink:href="#m1e05babe46" y="362.4915"/>
      </g>
     </g>
     <g id="text_2">
      <!-- 0.2 -->
      <defs>
       <path d="M 19.1875 8.296875 
L 53.609375 8.296875 
L 53.609375 0 
L 7.328125 0 
L 7.328125 8.296875 
Q 12.9375 14.109375 22.625 23.890625 
Q 32.328125 33.6875 34.8125 36.53125 
Q 39.546875 41.84375 41.421875 45.53125 
Q 43.3125 49.21875 43.3125 52.78125 
Q 43.3125 58.59375 39.234375 62.25 
Q 35.15625 65.921875 28.609375 65.921875 
Q 23.96875 65.921875 18.8125 64.3125 
Q 13.671875 62.703125 7.8125 59.421875 
L 7.8125 69.390625 
Q 13.765625 71.78125 18.9375 73 
Q 24.125 74.21875 28.421875 74.21875 
Q 39.75 74.21875 46.484375 68.546875 
Q 53.21875 62.890625 53.21875 53.421875 
Q 53.21875 48.921875 51.53125 44.890625 
Q 49.859375 40.875 45.40625 35.40625 
Q 44.1875 33.984375 37.640625 27.21875 
Q 31.109375 20.453125 19.1875 8.296875 
z
" id="DejaVuSans-50"/>
      </defs>
      <g transform="translate(253.140186 377.089938)scale(0.1 -0.1)">
       <use xlink:href="#DejaVuSans-48"/>
       <use x="63.623047" xlink:href="#DejaVuSans-46"/>
       <use x="95.410156" xlink:href="#DejaVuSans-50"/>
      </g>
     </g>
    </g>
    <g id="xtick_3">
     <g id="line2d_3">
      <g>
       <use style="stroke:#000000;stroke-width:0.8;" x="374.621759" xlink:href="#m1e05babe46" y="362.4915"/>
      </g>
     </g>
     <g id="text_3">
      <!-- 0.4 -->
      <defs>
       <path d="M 37.796875 64.3125 
L 12.890625 25.390625 
L 37.796875 25.390625 
z
M 35.203125 72.90625 
L 47.609375 72.90625 
L 47.609375 25.390625 
L 58.015625 25.390625 
L 58.015625 17.1875 
L 47.609375 17.1875 
L 47.609375 0 
L 37.796875 0 
L 37.796875 17.1875 
L 4.890625 17.1875 
L 4.890625 26.703125 
z
" id="DejaVuSans-52"/>
      </defs>
      <g transform="translate(366.670196 377.089938)scale(0.1 -0.1)">
       <use xlink:href="#DejaVuSans-48"/>
       <use x="63.623047" xlink:href="#DejaVuSans-46"/>
       <use x="95.410156" xlink:href="#DejaVuSans-52"/>
      </g>
     </g>
    </g>
    <g id="xtick_4">
     <g id="line2d_4">
      <g>
       <use style="stroke:#000000;stroke-width:0.8;" x="488.151769" xlink:href="#m1e05babe46" y="362.4915"/>
      </g>
     </g>
     <g id="text_4">
      <!-- 0.6 -->
      <defs>
       <path d="M 33.015625 40.375 
Q 26.375 40.375 22.484375 35.828125 
Q 18.609375 31.296875 18.609375 23.390625 
Q 18.609375 15.53125 22.484375 10.953125 
Q 26.375 6.390625 33.015625 6.390625 
Q 39.65625 6.390625 43.53125 10.953125 
Q 47.40625 15.53125 47.40625 23.390625 
Q 47.40625 31.296875 43.53125 35.828125 
Q 39.65625 40.375 33.015625 40.375 
z
M 52.59375 71.296875 
L 52.59375 62.3125 
Q 48.875 64.0625 45.09375 64.984375 
Q 41.3125 65.921875 37.59375 65.921875 
Q 27.828125 65.921875 22.671875 59.328125 
Q 17.53125 52.734375 16.796875 39.40625 
Q 19.671875 43.65625 24.015625 45.921875 
Q 28.375 48.1875 33.59375 48.1875 
Q 44.578125 48.1875 50.953125 41.515625 
Q 57.328125 34.859375 57.328125 23.390625 
Q 57.328125 12.15625 50.6875 5.359375 
Q 44.046875 -1.421875 33.015625 -1.421875 
Q 20.359375 -1.421875 13.671875 8.265625 
Q 6.984375 17.96875 6.984375 36.375 
Q 6.984375 53.65625 15.1875 63.9375 
Q 23.390625 74.21875 37.203125 74.21875 
Q 40.921875 74.21875 44.703125 73.484375 
Q 48.484375 72.75 52.59375 71.296875 
z
" id="DejaVuSans-54"/>
      </defs>
      <g transform="translate(480.200207 377.089938)scale(0.1 -0.1)">
       <use xlink:href="#DejaVuSans-48"/>
       <use x="63.623047" xlink:href="#DejaVuSans-46"/>
       <use x="95.410156" xlink:href="#DejaVuSans-54"/>
      </g>
     </g>
    </g>
    <g id="xtick_5">
     <g id="line2d_5">
      <g>
       <use style="stroke:#000000;stroke-width:0.8;" x="601.681779" xlink:href="#m1e05babe46" y="362.4915"/>
      </g>
     </g>
     <g id="text_5">
      <!-- 0.8 -->
      <defs>
       <path d="M 31.78125 34.625 
Q 24.75 34.625 20.71875 30.859375 
Q 16.703125 27.09375 16.703125 20.515625 
Q 16.703125 13.921875 20.71875 10.15625 
Q 24.75 6.390625 31.78125 6.390625 
Q 38.8125 6.390625 42.859375 10.171875 
Q 46.921875 13.96875 46.921875 20.515625 
Q 46.921875 27.09375 42.890625 30.859375 
Q 38.875 34.625 31.78125 34.625 
z
M 21.921875 38.8125 
Q 15.578125 40.375 12.03125 44.71875 
Q 8.5 49.078125 8.5 55.328125 
Q 8.5 64.0625 14.71875 69.140625 
Q 20.953125 74.21875 31.78125 74.21875 
Q 42.671875 74.21875 48.875 69.140625 
Q 55.078125 64.0625 55.078125 55.328125 
Q 55.078125 49.078125 51.53125 44.71875 
Q 48 40.375 41.703125 38.8125 
Q 48.828125 37.15625 52.796875 32.3125 
Q 56.78125 27.484375 56.78125 20.515625 
Q 56.78125 9.90625 50.3125 4.234375 
Q 43.84375 -1.421875 31.78125 -1.421875 
Q 19.734375 -1.421875 13.25 4.234375 
Q 6.78125 9.90625 6.78125 20.515625 
Q 6.78125 27.484375 10.78125 32.3125 
Q 14.796875 37.15625 21.921875 38.8125 
z
M 18.3125 54.390625 
Q 18.3125 48.734375 21.84375 45.5625 
Q 25.390625 42.390625 31.78125 42.390625 
Q 38.140625 42.390625 41.71875 45.5625 
Q 45.3125 48.734375 45.3125 54.390625 
Q 45.3125 60.0625 41.71875 63.234375 
Q 38.140625 66.40625 31.78125 66.40625 
Q 25.390625 66.40625 21.84375 63.234375 
Q 18.3125 60.0625 18.3125 54.390625 
z
" id="DejaVuSans-56"/>
      </defs>
      <g transform="translate(593.730217 377.089938)scale(0.1 -0.1)">
       <use xlink:href="#DejaVuSans-48"/>
       <use x="63.623047" xlink:href="#DejaVuSans-46"/>
       <use x="95.410156" xlink:href="#DejaVuSans-56"/>
      </g>
     </g>
    </g>
    <g id="text_6">
     <!-- ICSE -->
     <defs>
      <path d="M 9.8125 72.90625 
L 19.671875 72.90625 
L 19.671875 0 
L 9.8125 0 
z
" id="DejaVuSans-73"/>
      <path d="M 64.40625 67.28125 
L 64.40625 56.890625 
Q 59.421875 61.53125 53.78125 63.8125 
Q 48.140625 66.109375 41.796875 66.109375 
Q 29.296875 66.109375 22.65625 58.46875 
Q 16.015625 50.828125 16.015625 36.375 
Q 16.015625 21.96875 22.65625 14.328125 
Q 29.296875 6.6875 41.796875 6.6875 
Q 48.140625 6.6875 53.78125 8.984375 
Q 59.421875 11.28125 64.40625 15.921875 
L 64.40625 5.609375 
Q 59.234375 2.09375 53.4375 0.328125 
Q 47.65625 -1.421875 41.21875 -1.421875 
Q 24.65625 -1.421875 15.125 8.703125 
Q 5.609375 18.84375 5.609375 36.375 
Q 5.609375 53.953125 15.125 64.078125 
Q 24.65625 74.21875 41.21875 74.21875 
Q 47.75 74.21875 53.53125 72.484375 
Q 59.328125 70.75 64.40625 67.28125 
z
" id="DejaVuSans-67"/>
      <path d="M 53.515625 70.515625 
L 53.515625 60.890625 
Q 47.90625 63.578125 42.921875 64.890625 
Q 37.9375 66.21875 33.296875 66.21875 
Q 25.25 66.21875 20.875 63.09375 
Q 16.5 59.96875 16.5 54.203125 
Q 16.5 49.359375 19.40625 46.890625 
Q 22.3125 44.4375 30.421875 42.921875 
L 36.375 41.703125 
Q 47.40625 39.59375 52.65625 34.296875 
Q 57.90625 29 57.90625 20.125 
Q 57.90625 9.515625 50.796875 4.046875 
Q 43.703125 -1.421875 29.984375 -1.421875 
Q 24.8125 -1.421875 18.96875 -0.25 
Q 13.140625 0.921875 6.890625 3.21875 
L 6.890625 13.375 
Q 12.890625 10.015625 18.65625 8.296875 
Q 24.421875 6.59375 29.984375 6.59375 
Q 38.421875 6.59375 43.015625 9.90625 
Q 47.609375 13.234375 47.609375 19.390625 
Q 47.609375 24.75 44.3125 27.78125 
Q 41.015625 30.8125 33.5 32.328125 
L 27.484375 33.5 
Q 16.453125 35.6875 11.515625 40.375 
Q 6.59375 45.0625 6.59375 53.421875 
Q 6.59375 63.09375 13.40625 68.65625 
Q 20.21875 74.21875 32.171875 74.21875 
Q 37.3125 74.21875 42.625 73.28125 
Q 47.953125 72.359375 53.515625 70.515625 
z
" id="DejaVuSans-83"/>
      <path d="M 9.8125 72.90625 
L 55.90625 72.90625 
L 55.90625 64.59375 
L 19.671875 64.59375 
L 19.671875 43.015625 
L 54.390625 43.015625 
L 54.390625 34.71875 
L 19.671875 34.71875 
L 19.671875 8.296875 
L 56.78125 8.296875 
L 56.78125 0 
L 9.8125 0 
z
" id="DejaVuSans-69"/>
     </defs>
     <g transform="translate(402.773438 390.768062)scale(0.1 -0.1)">
      <use xlink:href="#DejaVuSans-73"/>
      <use x="29.492188" xlink:href="#DejaVuSans-67"/>
      <use x="99.316406" xlink:href="#DejaVuSans-83"/>
      <use x="162.792969" xlink:href="#DejaVuSans-69"/>
     </g>
    </g>
   </g>
   <g id="matplotlib.axis_2">
    <g id="ytick_1">
     <g id="line2d_6">
      <defs>
       <path d="M 0 0 
L -3.5 0 
" id="m54ae295408" style="stroke:#000000;stroke-width:0.8;"/>
      </defs>
      <g>
       <use style="stroke:#000000;stroke-width:0.8;" x="135.073438" xlink:href="#m54ae295408" y="77.1015"/>
      </g>
     </g>
     <g id="text_7">
      <!-- Avanzado -->
      <defs>
       <path d="M 34.1875 63.1875 
L 20.796875 26.90625 
L 47.609375 26.90625 
z
M 28.609375 72.90625 
L 39.796875 72.90625 
L 67.578125 0 
L 57.328125 0 
L 50.6875 18.703125 
L 17.828125 18.703125 
L 11.1875 0 
L 0.78125 0 
z
" id="DejaVuSans-65"/>
       <path d="M 2.984375 54.6875 
L 12.5 54.6875 
L 29.59375 8.796875 
L 46.6875 54.6875 
L 56.203125 54.6875 
L 35.6875 0 
L 23.484375 0 
z
" id="DejaVuSans-118"/>
       <path d="M 34.28125 27.484375 
Q 23.390625 27.484375 19.1875 25 
Q 14.984375 22.515625 14.984375 16.5 
Q 14.984375 11.71875 18.140625 8.90625 
Q 21.296875 6.109375 26.703125 6.109375 
Q 34.1875 6.109375 38.703125 11.40625 
Q 43.21875 16.703125 43.21875 25.484375 
L 43.21875 27.484375 
z
M 52.203125 31.203125 
L 52.203125 0 
L 43.21875 0 
L 43.21875 8.296875 
Q 40.140625 3.328125 35.546875 0.953125 
Q 30.953125 -1.421875 24.3125 -1.421875 
Q 15.921875 -1.421875 10.953125 3.296875 
Q 6 8.015625 6 15.921875 
Q 6 25.140625 12.171875 29.828125 
Q 18.359375 34.515625 30.609375 34.515625 
L 43.21875 34.515625 
L 43.21875 35.40625 
Q 43.21875 41.609375 39.140625 45 
Q 35.0625 48.390625 27.6875 48.390625 
Q 23 48.390625 18.546875 47.265625 
Q 14.109375 46.140625 10.015625 43.890625 
L 10.015625 52.203125 
Q 14.9375 54.109375 19.578125 55.046875 
Q 24.21875 56 28.609375 56 
Q 40.484375 56 46.34375 49.84375 
Q 52.203125 43.703125 52.203125 31.203125 
z
" id="DejaVuSans-97"/>
       <path d="M 54.890625 33.015625 
L 54.890625 0 
L 45.90625 0 
L 45.90625 32.71875 
Q 45.90625 40.484375 42.875 44.328125 
Q 39.84375 48.1875 33.796875 48.1875 
Q 26.515625 48.1875 22.3125 43.546875 
Q 18.109375 38.921875 18.109375 30.90625 
L 18.109375 0 
L 9.078125 0 
L 9.078125 54.6875 
L 18.109375 54.6875 
L 18.109375 46.1875 
Q 21.34375 51.125 25.703125 53.5625 
Q 30.078125 56 35.796875 56 
Q 45.21875 56 50.046875 50.171875 
Q 54.890625 44.34375 54.890625 33.015625 
z
" id="DejaVuSans-110"/>
       <path d="M 5.515625 54.6875 
L 48.1875 54.6875 
L 48.1875 46.484375 
L 14.40625 7.171875 
L 48.1875 7.171875 
L 48.1875 0 
L 4.296875 0 
L 4.296875 8.203125 
L 38.09375 47.515625 
L 5.515625 47.515625 
z
" id="DejaVuSans-122"/>
       <path d="M 45.40625 46.390625 
L 45.40625 75.984375 
L 54.390625 75.984375 
L 54.390625 0 
L 45.40625 0 
L 45.40625 8.203125 
Q 42.578125 3.328125 38.25 0.953125 
Q 33.9375 -1.421875 27.875 -1.421875 
Q 17.96875 -1.421875 11.734375 6.484375 
Q 5.515625 14.40625 5.515625 27.296875 
Q 5.515625 40.1875 11.734375 48.09375 
Q 17.96875 56 27.875 56 
Q 33.9375 56 38.25 53.625 
Q 42.578125 51.265625 45.40625 46.390625 
z
M 14.796875 27.296875 
Q 14.796875 17.390625 18.875 11.75 
Q 22.953125 6.109375 30.078125 6.109375 
Q 37.203125 6.109375 41.296875 11.75 
Q 45.40625 17.390625 45.40625 27.296875 
Q 45.40625 37.203125 41.296875 42.84375 
Q 37.203125 48.484375 30.078125 48.484375 
Q 22.953125 48.484375 18.875 42.84375 
Q 14.796875 37.203125 14.796875 27.296875 
z
" id="DejaVuSans-100"/>
       <path d="M 30.609375 48.390625 
Q 23.390625 48.390625 19.1875 42.75 
Q 14.984375 37.109375 14.984375 27.296875 
Q 14.984375 17.484375 19.15625 11.84375 
Q 23.34375 6.203125 30.609375 6.203125 
Q 37.796875 6.203125 41.984375 11.859375 
Q 46.1875 17.53125 46.1875 27.296875 
Q 46.1875 37.015625 41.984375 42.703125 
Q 37.796875 48.390625 30.609375 48.390625 
z
M 30.609375 56 
Q 42.328125 56 49.015625 48.375 
Q 55.71875 40.765625 55.71875 27.296875 
Q 55.71875 13.875 49.015625 6.21875 
Q 42.328125 -1.421875 30.609375 -1.421875 
Q 18.84375 -1.421875 12.171875 6.21875 
Q 5.515625 13.875 5.515625 27.296875 
Q 5.515625 40.765625 12.171875 48.375 
Q 18.84375 56 30.609375 56 
z
" id="DejaVuSans-111"/>
      </defs>
      <g transform="translate(79.0125 80.900719)scale(0.1 -0.1)">
       <use xlink:href="#DejaVuSans-65"/>
       <use x="68.330078" xlink:href="#DejaVuSans-118"/>
       <use x="127.509766" xlink:href="#DejaVuSans-97"/>
       <use x="188.789062" xlink:href="#DejaVuSans-110"/>
       <use x="252.167969" xlink:href="#DejaVuSans-122"/>
       <use x="304.658203" xlink:href="#DejaVuSans-97"/>
       <use x="365.9375" xlink:href="#DejaVuSans-100"/>
       <use x="429.414062" xlink:href="#DejaVuSans-111"/>
      </g>
     </g>
    </g>
    <g id="ytick_2">
     <g id="line2d_7">
      <g>
       <use style="stroke:#000000;stroke-width:0.8;" x="135.073438" xlink:href="#m54ae295408" y="158.6415"/>
      </g>
     </g>
     <g id="text_8">
      <!-- Satisfactorio -->
      <defs>
       <path d="M 18.3125 70.21875 
L 18.3125 54.6875 
L 36.8125 54.6875 
L 36.8125 47.703125 
L 18.3125 47.703125 
L 18.3125 18.015625 
Q 18.3125 11.328125 20.140625 9.421875 
Q 21.96875 7.515625 27.59375 7.515625 
L 36.8125 7.515625 
L 36.8125 0 
L 27.59375 0 
Q 17.1875 0 13.234375 3.875 
Q 9.28125 7.765625 9.28125 18.015625 
L 9.28125 47.703125 
L 2.6875 47.703125 
L 2.6875 54.6875 
L 9.28125 54.6875 
L 9.28125 70.21875 
z
" id="DejaVuSans-116"/>
       <path d="M 9.421875 54.6875 
L 18.40625 54.6875 
L 18.40625 0 
L 9.421875 0 
z
M 9.421875 75.984375 
L 18.40625 75.984375 
L 18.40625 64.59375 
L 9.421875 64.59375 
z
" id="DejaVuSans-105"/>
       <path d="M 44.28125 53.078125 
L 44.28125 44.578125 
Q 40.484375 46.53125 36.375 47.5 
Q 32.28125 48.484375 27.875 48.484375 
Q 21.1875 48.484375 17.84375 46.4375 
Q 14.5 44.390625 14.5 40.28125 
Q 14.5 37.15625 16.890625 35.375 
Q 19.28125 33.59375 26.515625 31.984375 
L 29.59375 31.296875 
Q 39.15625 29.25 43.1875 25.515625 
Q 47.21875 21.78125 47.21875 15.09375 
Q 47.21875 7.46875 41.1875 3.015625 
Q 35.15625 -1.421875 24.609375 -1.421875 
Q 20.21875 -1.421875 15.453125 -0.5625 
Q 10.6875 0.296875 5.421875 2 
L 5.421875 11.28125 
Q 10.40625 8.6875 15.234375 7.390625 
Q 20.0625 6.109375 24.8125 6.109375 
Q 31.15625 6.109375 34.5625 8.28125 
Q 37.984375 10.453125 37.984375 14.40625 
Q 37.984375 18.0625 35.515625 20.015625 
Q 33.0625 21.96875 24.703125 23.78125 
L 21.578125 24.515625 
Q 13.234375 26.265625 9.515625 29.90625 
Q 5.8125 33.546875 5.8125 39.890625 
Q 5.8125 47.609375 11.28125 51.796875 
Q 16.75 56 26.8125 56 
Q 31.78125 56 36.171875 55.265625 
Q 40.578125 54.546875 44.28125 53.078125 
z
" id="DejaVuSans-115"/>
       <path d="M 37.109375 75.984375 
L 37.109375 68.5 
L 28.515625 68.5 
Q 23.6875 68.5 21.796875 66.546875 
Q 19.921875 64.59375 19.921875 59.515625 
L 19.921875 54.6875 
L 34.71875 54.6875 
L 34.71875 47.703125 
L 19.921875 47.703125 
L 19.921875 0 
L 10.890625 0 
L 10.890625 47.703125 
L 2.296875 47.703125 
L 2.296875 54.6875 
L 10.890625 54.6875 
L 10.890625 58.5 
Q 10.890625 67.625 15.140625 71.796875 
Q 19.390625 75.984375 28.609375 75.984375 
z
" id="DejaVuSans-102"/>
       <path d="M 48.78125 52.59375 
L 48.78125 44.1875 
Q 44.96875 46.296875 41.140625 47.34375 
Q 37.3125 48.390625 33.40625 48.390625 
Q 24.65625 48.390625 19.8125 42.84375 
Q 14.984375 37.3125 14.984375 27.296875 
Q 14.984375 17.28125 19.8125 11.734375 
Q 24.65625 6.203125 33.40625 6.203125 
Q 37.3125 6.203125 41.140625 7.25 
Q 44.96875 8.296875 48.78125 10.40625 
L 48.78125 2.09375 
Q 45.015625 0.34375 40.984375 -0.53125 
Q 36.96875 -1.421875 32.421875 -1.421875 
Q 20.0625 -1.421875 12.78125 6.34375 
Q 5.515625 14.109375 5.515625 27.296875 
Q 5.515625 40.671875 12.859375 48.328125 
Q 20.21875 56 33.015625 56 
Q 37.15625 56 41.109375 55.140625 
Q 45.0625 54.296875 48.78125 52.59375 
z
" id="DejaVuSans-99"/>
       <path d="M 41.109375 46.296875 
Q 39.59375 47.171875 37.8125 47.578125 
Q 36.03125 48 33.890625 48 
Q 26.265625 48 22.1875 43.046875 
Q 18.109375 38.09375 18.109375 28.8125 
L 18.109375 0 
L 9.078125 0 
L 9.078125 54.6875 
L 18.109375 54.6875 
L 18.109375 46.1875 
Q 20.953125 51.171875 25.484375 53.578125 
Q 30.03125 56 36.53125 56 
Q 37.453125 56 38.578125 55.875 
Q 39.703125 55.765625 41.0625 55.515625 
z
" id="DejaVuSans-114"/>
      </defs>
      <g transform="translate(65.495313 162.440719)scale(0.1 -0.1)">
       <use xlink:href="#DejaVuSans-83"/>
       <use x="63.476562" xlink:href="#DejaVuSans-97"/>
       <use x="124.755859" xlink:href="#DejaVuSans-116"/>
       <use x="163.964844" xlink:href="#DejaVuSans-105"/>
       <use x="191.748047" xlink:href="#DejaVuSans-115"/>
       <use x="243.847656" xlink:href="#DejaVuSans-102"/>
       <use x="279.052734" xlink:href="#DejaVuSans-97"/>
       <use x="340.332031" xlink:href="#DejaVuSans-99"/>
       <use x="395.3125" xlink:href="#DejaVuSans-116"/>
       <use x="434.521484" xlink:href="#DejaVuSans-111"/>
       <use x="495.703125" xlink:href="#DejaVuSans-114"/>
       <use x="536.816406" xlink:href="#DejaVuSans-105"/>
       <use x="564.599609" xlink:href="#DejaVuSans-111"/>
      </g>
     </g>
    </g>
    <g id="ytick_3">
     <g id="line2d_8">
      <g>
       <use style="stroke:#000000;stroke-width:0.8;" x="135.073438" xlink:href="#m54ae295408" y="240.1815"/>
      </g>
     </g>
     <g id="text_9">
      <!-- Básico -->
      <defs>
       <path d="M 19.671875 34.8125 
L 19.671875 8.109375 
L 35.5 8.109375 
Q 43.453125 8.109375 47.28125 11.40625 
Q 51.125 14.703125 51.125 21.484375 
Q 51.125 28.328125 47.28125 31.5625 
Q 43.453125 34.8125 35.5 34.8125 
z
M 19.671875 64.796875 
L 19.671875 42.828125 
L 34.28125 42.828125 
Q 41.5 42.828125 45.03125 45.53125 
Q 48.578125 48.25 48.578125 53.8125 
Q 48.578125 59.328125 45.03125 62.0625 
Q 41.5 64.796875 34.28125 64.796875 
z
M 9.8125 72.90625 
L 35.015625 72.90625 
Q 46.296875 72.90625 52.390625 68.21875 
Q 58.5 63.53125 58.5 54.890625 
Q 58.5 48.1875 55.375 44.234375 
Q 52.25 40.28125 46.1875 39.3125 
Q 53.46875 37.75 57.5 32.78125 
Q 61.53125 27.828125 61.53125 20.40625 
Q 61.53125 10.640625 54.890625 5.3125 
Q 48.25 0 35.984375 0 
L 9.8125 0 
z
" id="DejaVuSans-66"/>
       <path d="M 34.28125 27.484375 
Q 23.390625 27.484375 19.1875 25 
Q 14.984375 22.515625 14.984375 16.5 
Q 14.984375 11.71875 18.140625 8.90625 
Q 21.296875 6.109375 26.703125 6.109375 
Q 34.1875 6.109375 38.703125 11.40625 
Q 43.21875 16.703125 43.21875 25.484375 
L 43.21875 27.484375 
z
M 52.203125 31.203125 
L 52.203125 0 
L 43.21875 0 
L 43.21875 8.296875 
Q 40.140625 3.328125 35.546875 0.953125 
Q 30.953125 -1.421875 24.3125 -1.421875 
Q 15.921875 -1.421875 10.953125 3.296875 
Q 6 8.015625 6 15.921875 
Q 6 25.140625 12.171875 29.828125 
Q 18.359375 34.515625 30.609375 34.515625 
L 43.21875 34.515625 
L 43.21875 35.40625 
Q 43.21875 41.609375 39.140625 45 
Q 35.0625 48.390625 27.6875 48.390625 
Q 23 48.390625 18.546875 47.265625 
Q 14.109375 46.140625 10.015625 43.890625 
L 10.015625 52.203125 
Q 14.9375 54.109375 19.578125 55.046875 
Q 24.21875 56 28.609375 56 
Q 40.484375 56 46.34375 49.84375 
Q 52.203125 43.703125 52.203125 31.203125 
z
M 35.796875 79.984375 
L 45.515625 79.984375 
L 29.59375 61.625 
L 22.125 61.625 
z
" id="DejaVuSans-225"/>
      </defs>
      <g transform="translate(95.479688 243.980719)scale(0.1 -0.1)">
       <use xlink:href="#DejaVuSans-66"/>
       <use x="68.603516" xlink:href="#DejaVuSans-225"/>
       <use x="129.882812" xlink:href="#DejaVuSans-115"/>
       <use x="181.982422" xlink:href="#DejaVuSans-105"/>
       <use x="209.765625" xlink:href="#DejaVuSans-99"/>
       <use x="264.746094" xlink:href="#DejaVuSans-111"/>
      </g>
     </g>
    </g>
    <g id="ytick_4">
     <g id="line2d_9">
      <g>
       <use style="stroke:#000000;stroke-width:0.8;" x="135.073438" xlink:href="#m54ae295408" y="321.7215"/>
      </g>
     </g>
     <g id="text_10">
      <!-- Por debajo del básico -->
      <defs>
       <path d="M 19.671875 64.796875 
L 19.671875 37.40625 
L 32.078125 37.40625 
Q 38.96875 37.40625 42.71875 40.96875 
Q 46.484375 44.53125 46.484375 51.125 
Q 46.484375 57.671875 42.71875 61.234375 
Q 38.96875 64.796875 32.078125 64.796875 
z
M 9.8125 72.90625 
L 32.078125 72.90625 
Q 44.34375 72.90625 50.609375 67.359375 
Q 56.890625 61.8125 56.890625 51.125 
Q 56.890625 40.328125 50.609375 34.8125 
Q 44.34375 29.296875 32.078125 29.296875 
L 19.671875 29.296875 
L 19.671875 0 
L 9.8125 0 
z
" id="DejaVuSans-80"/>
       <path id="DejaVuSans-32"/>
       <path d="M 56.203125 29.59375 
L 56.203125 25.203125 
L 14.890625 25.203125 
Q 15.484375 15.921875 20.484375 11.0625 
Q 25.484375 6.203125 34.421875 6.203125 
Q 39.59375 6.203125 44.453125 7.46875 
Q 49.3125 8.734375 54.109375 11.28125 
L 54.109375 2.78125 
Q 49.265625 0.734375 44.1875 -0.34375 
Q 39.109375 -1.421875 33.890625 -1.421875 
Q 20.796875 -1.421875 13.15625 6.1875 
Q 5.515625 13.8125 5.515625 26.8125 
Q 5.515625 40.234375 12.765625 48.109375 
Q 20.015625 56 32.328125 56 
Q 43.359375 56 49.78125 48.890625 
Q 56.203125 41.796875 56.203125 29.59375 
z
M 47.21875 32.234375 
Q 47.125 39.59375 43.09375 43.984375 
Q 39.0625 48.390625 32.421875 48.390625 
Q 24.90625 48.390625 20.390625 44.140625 
Q 15.875 39.890625 15.1875 32.171875 
z
" id="DejaVuSans-101"/>
       <path d="M 48.6875 27.296875 
Q 48.6875 37.203125 44.609375 42.84375 
Q 40.53125 48.484375 33.40625 48.484375 
Q 26.265625 48.484375 22.1875 42.84375 
Q 18.109375 37.203125 18.109375 27.296875 
Q 18.109375 17.390625 22.1875 11.75 
Q 26.265625 6.109375 33.40625 6.109375 
Q 40.53125 6.109375 44.609375 11.75 
Q 48.6875 17.390625 48.6875 27.296875 
z
M 18.109375 46.390625 
Q 20.953125 51.265625 25.265625 53.625 
Q 29.59375 56 35.59375 56 
Q 45.5625 56 51.78125 48.09375 
Q 58.015625 40.1875 58.015625 27.296875 
Q 58.015625 14.40625 51.78125 6.484375 
Q 45.5625 -1.421875 35.59375 -1.421875 
Q 29.59375 -1.421875 25.265625 0.953125 
Q 20.953125 3.328125 18.109375 8.203125 
L 18.109375 0 
L 9.078125 0 
L 9.078125 75.984375 
L 18.109375 75.984375 
z
" id="DejaVuSans-98"/>
       <path d="M 9.421875 54.6875 
L 18.40625 54.6875 
L 18.40625 -0.984375 
Q 18.40625 -11.421875 14.421875 -16.109375 
Q 10.453125 -20.796875 1.609375 -20.796875 
L -1.8125 -20.796875 
L -1.8125 -13.1875 
L 0.59375 -13.1875 
Q 5.71875 -13.1875 7.5625 -10.8125 
Q 9.421875 -8.453125 9.421875 -0.984375 
z
M 9.421875 75.984375 
L 18.40625 75.984375 
L 18.40625 64.59375 
L 9.421875 64.59375 
z
" id="DejaVuSans-106"/>
       <path d="M 9.421875 75.984375 
L 18.40625 75.984375 
L 18.40625 0 
L 9.421875 0 
z
" id="DejaVuSans-108"/>
      </defs>
      <g transform="translate(21.048438 325.720719)scale(0.1 -0.1)">
       <use xlink:href="#DejaVuSans-80"/>
       <use x="60.255859" xlink:href="#DejaVuSans-111"/>
       <use x="121.4375" xlink:href="#DejaVuSans-114"/>
       <use x="162.550781" xlink:href="#DejaVuSans-32"/>
       <use x="194.337891" xlink:href="#DejaVuSans-100"/>
       <use x="257.814453" xlink:href="#DejaVuSans-101"/>
       <use x="319.337891" xlink:href="#DejaVuSans-98"/>
       <use x="382.814453" xlink:href="#DejaVuSans-97"/>
       <use x="444.09375" xlink:href="#DejaVuSans-106"/>
       <use x="471.876953" xlink:href="#DejaVuSans-111"/>
       <use x="533.058594" xlink:href="#DejaVuSans-32"/>
       <use x="564.845703" xlink:href="#DejaVuSans-100"/>
       <use x="628.322266" xlink:href="#DejaVuSans-101"/>
       <use x="689.845703" xlink:href="#DejaVuSans-108"/>
       <use x="717.628906" xlink:href="#DejaVuSans-32"/>
       <use x="749.416016" xlink:href="#DejaVuSans-98"/>
       <use x="812.892578" xlink:href="#DejaVuSans-225"/>
       <use x="874.171875" xlink:href="#DejaVuSans-115"/>
       <use x="926.271484" xlink:href="#DejaVuSans-105"/>
       <use x="954.054688" xlink:href="#DejaVuSans-99"/>
       <use x="1009.035156" xlink:href="#DejaVuSans-111"/>
      </g>
     </g>
    </g>
    <g id="text_11">
     <!-- Nivel de desempeño en lengua -->
     <defs>
      <path d="M 9.8125 72.90625 
L 23.09375 72.90625 
L 55.421875 11.921875 
L 55.421875 72.90625 
L 64.984375 72.90625 
L 64.984375 0 
L 51.703125 0 
L 19.390625 60.984375 
L 19.390625 0 
L 9.8125 0 
z
" id="DejaVuSans-78"/>
      <path d="M 52 44.1875 
Q 55.375 50.25 60.0625 53.125 
Q 64.75 56 71.09375 56 
Q 79.640625 56 84.28125 50.015625 
Q 88.921875 44.046875 88.921875 33.015625 
L 88.921875 0 
L 79.890625 0 
L 79.890625 32.71875 
Q 79.890625 40.578125 77.09375 44.375 
Q 74.3125 48.1875 68.609375 48.1875 
Q 61.625 48.1875 57.5625 43.546875 
Q 53.515625 38.921875 53.515625 30.90625 
L 53.515625 0 
L 44.484375 0 
L 44.484375 32.71875 
Q 44.484375 40.625 41.703125 44.40625 
Q 38.921875 48.1875 33.109375 48.1875 
Q 26.21875 48.1875 22.15625 43.53125 
Q 18.109375 38.875 18.109375 30.90625 
L 18.109375 0 
L 9.078125 0 
L 9.078125 54.6875 
L 18.109375 54.6875 
L 18.109375 46.1875 
Q 21.1875 51.21875 25.484375 53.609375 
Q 29.78125 56 35.6875 56 
Q 41.65625 56 45.828125 52.96875 
Q 50 49.953125 52 44.1875 
z
" id="DejaVuSans-109"/>
      <path d="M 18.109375 8.203125 
L 18.109375 -20.796875 
L 9.078125 -20.796875 
L 9.078125 54.6875 
L 18.109375 54.6875 
L 18.109375 46.390625 
Q 20.953125 51.265625 25.265625 53.625 
Q 29.59375 56 35.59375 56 
Q 45.5625 56 51.78125 48.09375 
Q 58.015625 40.1875 58.015625 27.296875 
Q 58.015625 14.40625 51.78125 6.484375 
Q 45.5625 -1.421875 35.59375 -1.421875 
Q 29.59375 -1.421875 25.265625 0.953125 
Q 20.953125 3.328125 18.109375 8.203125 
z
M 48.6875 27.296875 
Q 48.6875 37.203125 44.609375 42.84375 
Q 40.53125 48.484375 33.40625 48.484375 
Q 26.265625 48.484375 22.1875 42.84375 
Q 18.109375 37.203125 18.109375 27.296875 
Q 18.109375 17.390625 22.1875 11.75 
Q 26.265625 6.109375 33.40625 6.109375 
Q 40.53125 6.109375 44.609375 11.75 
Q 48.6875 17.390625 48.6875 27.296875 
z
" id="DejaVuSans-112"/>
      <path d="M 54.890625 33.015625 
L 54.890625 0 
L 45.90625 0 
L 45.90625 32.71875 
Q 45.90625 40.484375 42.875 44.328125 
Q 39.84375 48.1875 33.796875 48.1875 
Q 26.515625 48.1875 22.3125 43.546875 
Q 18.109375 38.921875 18.109375 30.90625 
L 18.109375 0 
L 9.078125 0 
L 9.078125 54.6875 
L 18.109375 54.6875 
L 18.109375 46.1875 
Q 21.34375 51.125 25.703125 53.5625 
Q 30.078125 56 35.796875 56 
Q 45.21875 56 50.046875 50.171875 
Q 54.890625 44.34375 54.890625 33.015625 
z
M 32.234375 66.890625 
L 29.4375 69.578125 
Q 28.375 70.5625 27.5625 71.015625 
Q 26.765625 71.484375 26.125 71.484375 
Q 24.265625 71.484375 23.390625 69.703125 
Q 22.515625 67.921875 22.40625 63.921875 
L 16.3125 63.921875 
Q 16.40625 70.515625 18.890625 74.09375 
Q 21.390625 77.6875 25.828125 77.6875 
Q 27.6875 77.6875 29.25 77 
Q 30.8125 76.3125 32.625 74.703125 
L 35.40625 72.015625 
Q 36.46875 71.046875 37.28125 70.578125 
Q 38.09375 70.125 38.71875 70.125 
Q 40.578125 70.125 41.453125 71.90625 
Q 42.328125 73.6875 42.4375 77.6875 
L 48.53125 77.6875 
Q 48.4375 71.09375 45.9375 67.5 
Q 43.453125 63.921875 39.015625 63.921875 
Q 37.15625 63.921875 35.59375 64.59375 
Q 34.03125 65.28125 32.234375 66.890625 
z
" id="DejaVuSans-241"/>
      <path d="M 45.40625 27.984375 
Q 45.40625 37.75 41.375 43.109375 
Q 37.359375 48.484375 30.078125 48.484375 
Q 22.859375 48.484375 18.828125 43.109375 
Q 14.796875 37.75 14.796875 27.984375 
Q 14.796875 18.265625 18.828125 12.890625 
Q 22.859375 7.515625 30.078125 7.515625 
Q 37.359375 7.515625 41.375 12.890625 
Q 45.40625 18.265625 45.40625 27.984375 
z
M 54.390625 6.78125 
Q 54.390625 -7.171875 48.1875 -13.984375 
Q 42 -20.796875 29.203125 -20.796875 
Q 24.46875 -20.796875 20.265625 -20.09375 
Q 16.0625 -19.390625 12.109375 -17.921875 
L 12.109375 -9.1875 
Q 16.0625 -11.328125 19.921875 -12.34375 
Q 23.78125 -13.375 27.78125 -13.375 
Q 36.625 -13.375 41.015625 -8.765625 
Q 45.40625 -4.15625 45.40625 5.171875 
L 45.40625 9.625 
Q 42.625 4.78125 38.28125 2.390625 
Q 33.9375 0 27.875 0 
Q 17.828125 0 11.671875 7.65625 
Q 5.515625 15.328125 5.515625 27.984375 
Q 5.515625 40.671875 11.671875 48.328125 
Q 17.828125 56 27.875 56 
Q 33.9375 56 38.28125 53.609375 
Q 42.625 51.21875 45.40625 46.390625 
L 45.40625 54.6875 
L 54.390625 54.6875 
z
" id="DejaVuSans-103"/>
      <path d="M 8.5 21.578125 
L 8.5 54.6875 
L 17.484375 54.6875 
L 17.484375 21.921875 
Q 17.484375 14.15625 20.5 10.265625 
Q 23.53125 6.390625 29.59375 6.390625 
Q 36.859375 6.390625 41.078125 11.03125 
Q 45.3125 15.671875 45.3125 23.6875 
L 45.3125 54.6875 
L 54.296875 54.6875 
L 54.296875 0 
L 45.3125 0 
L 45.3125 8.40625 
Q 42.046875 3.421875 37.71875 1 
Q 33.40625 -1.421875 27.6875 -1.421875 
Q 18.265625 -1.421875 13.375 4.4375 
Q 8.5 10.296875 8.5 21.578125 
z
M 31.109375 56 
z
" id="DejaVuSans-117"/>
     </defs>
     <g transform="translate(14.96875 277.141188)rotate(-90)scale(0.1 -0.1)">
      <use xlink:href="#DejaVuSans-78"/>
      <use x="74.804688" xlink:href="#DejaVuSans-105"/>
      <use x="102.587891" xlink:href="#DejaVuSans-118"/>
      <use x="161.767578" xlink:href="#DejaVuSans-101"/>
      <use x="223.291016" xlink:href="#DejaVuSans-108"/>
      <use x="251.074219" xlink:href="#DejaVuSans-32"/>
      <use x="282.861328" xlink:href="#DejaVuSans-100"/>
      <use x="346.337891" xlink:href="#DejaVuSans-101"/>
      <use x="407.861328" xlink:href="#DejaVuSans-32"/>
      <use x="439.648438" xlink:href="#DejaVuSans-100"/>
      <use x="503.125" xlink:href="#DejaVuSans-101"/>
      <use x="564.648438" xlink:href="#DejaVuSans-115"/>
      <use x="616.748047" xlink:href="#DejaVuSans-101"/>
      <use x="678.271484" xlink:href="#DejaVuSans-109"/>
      <use x="775.683594" xlink:href="#DejaVuSans-112"/>
      <use x="839.160156" xlink:href="#DejaVuSans-101"/>
      <use x="900.683594" xlink:href="#DejaVuSans-241"/>
      <use x="964.0625" xlink:href="#DejaVuSans-111"/>
      <use x="1025.244141" xlink:href="#DejaVuSans-32"/>
      <use x="1057.03125" xlink:href="#DejaVuSans-101"/>
      <use x="1118.554688" xlink:href="#DejaVuSans-110"/>
      <use x="1181.933594" xlink:href="#DejaVuSans-32"/>
      <use x="1213.720703" xlink:href="#DejaVuSans-108"/>
      <use x="1241.503906" xlink:href="#DejaVuSans-101"/>
      <use x="1303.027344" xlink:href="#DejaVuSans-110"/>
      <use x="1366.40625" xlink:href="#DejaVuSans-103"/>
      <use x="1429.882812" xlink:href="#DejaVuSans-117"/>
      <use x="1493.261719" xlink:href="#DejaVuSans-97"/>
     </g>
    </g>
   </g>
   <g id="line2d_10">
    <path clip-path="url(#p886217a3d6)" d="M 163.45594 77.1015 
L 532.428473 77.1015 
" style="fill:none;stroke:#4c4c4c;stroke-linecap:square;stroke-width:1.5;"/>
   </g>
   <g id="line2d_11">
    <path clip-path="url(#p886217a3d6)" d="M 237.250447 77.1015 
L 355.321657 77.1015 
" style="fill:none;stroke:#4c4c4c;stroke-linecap:square;stroke-width:4.5;"/>
   </g>
   <g id="line2d_12">
    <path clip-path="url(#p886217a3d6)" d="M 163.45594 158.6415 
L 552.863875 158.6415 
" style="fill:none;stroke:#4c4c4c;stroke-linecap:square;stroke-width:1.5;"/>
   </g>
   <g id="line2d_13">
    <path clip-path="url(#p886217a3d6)" d="M 257.685848 158.6415 
L 375.757059 158.6415 
" style="fill:none;stroke:#4c4c4c;stroke-linecap:square;stroke-width:4.5;"/>
   </g>
   <g id="line2d_14">
    <path clip-path="url(#p886217a3d6)" d="M 163.45594 240.1815 
L 568.758076 240.1815 
" style="fill:none;stroke:#4c4c4c;stroke-linecap:square;stroke-width:1.5;"/>
   </g>
   <g id="line2d_15">
    <path clip-path="url(#p886217a3d6)" d="M 270.7418 240.1815 
L 389.94831 240.1815 
" style="fill:none;stroke:#4c4c4c;stroke-linecap:square;stroke-width:4.5;"/>
   </g>
   <g id="line2d_16">
    <path clip-path="url(#p886217a3d6)" d="M 163.45594 321.7215 
L 580.678727 321.7215 
" style="fill:none;stroke:#4c4c4c;stroke-linecap:square;stroke-width:1.5;"/>
   </g>
   <g id="line2d_17">
    <path clip-path="url(#p886217a3d6)" d="M 275.85065 321.7215 
L 397.895411 321.7215 
" style="fill:none;stroke:#4c4c4c;stroke-linecap:square;stroke-width:4.5;"/>
   </g>
   <g id="patch_3">
    <path d="M 135.073438 362.4915 
L 135.073438 36.3315 
" style="fill:none;stroke:#000000;stroke-linecap:square;stroke-linejoin:miter;stroke-width:0.8;"/>
   </g>
   <g id="patch_4">
    <path d="M 693.073437 362.4915 
L 693.073437 36.3315 
" style="fill:none;stroke:#000000;stroke-linecap:square;stroke-linejoin:miter;stroke-width:0.8;"/>
   </g>
   <g id="patch_5">
    <path d="M 135.073438 362.4915 
L 693.073437 362.4915 
" style="fill:none;stroke:#000000;stroke-linecap:square;stroke-linejoin:miter;stroke-width:0.8;"/>
   </g>
   <g id="patch_6">
    <path d="M 135.073438 36.3315 
L 693.073437 36.3315 
" style="fill:none;stroke:#000000;stroke-linecap:square;stroke-linejoin:miter;stroke-width:0.8;"/>
   </g>
   <g id="PathCollection_1">
    <defs>
     <path d="M 0 1.5 
C 0.397805 1.5 0.77937 1.341951 1.06066 1.06066 
C 1.341951 0.77937 1.5 0.397805 1.5 0 
C 1.5 -0.397805 1.341951 -0.77937 1.06066 -1.06066 
C 0.77937 -1.341951 0.397805 -1.5 0 -1.5 
C -0.397805 -1.5 -0.77937 -1.341951 -1.06066 -1.06066 
C -1.341951 -0.77937 -1.5 -0.397805 -1.5 0 
C -1.5 0.397805 -1.341951 0.77937 -1.06066 1.06066 
C -0.77937 1.341951 -0.397805 1.5 0 1.5 
z
" id="mac46acaff3" style="stroke:#4c4c4c;"/>
    </defs>
    <g clip-path="url(#p886217a3d6)">
     <use style="fill:#ffffff;stroke:#4c4c4c;" x="288.338951" xlink:href="#mac46acaff3" y="77.1015"/>
    </g>
   </g>
   <g id="PathCollection_2">
    <g clip-path="url(#p886217a3d6)">
     <use style="fill:#ffffff;stroke:#4c4c4c;" x="311.612603" xlink:href="#mac46acaff3" y="158.6415"/>
    </g>
   </g>
   <g id="PathCollection_3">
    <g clip-path="url(#p886217a3d6)">
     <use style="fill:#ffffff;stroke:#4c4c4c;" x="328.642105" xlink:href="#mac46acaff3" y="240.1815"/>
    </g>
   </g>
   <g id="PathCollection_4">
    <g clip-path="url(#p886217a3d6)">
     <use style="fill:#ffffff;stroke:#4c4c4c;" x="336.021556" xlink:href="#mac46acaff3" y="321.7215"/>
    </g>
   </g>
   <g id="text_12">
    <!-- Distribución de: ICSE según el desempeño en lengua -->
    <defs>
     <path d="M 19.671875 64.796875 
L 19.671875 8.109375 
L 31.59375 8.109375 
Q 46.6875 8.109375 53.6875 14.9375 
Q 60.6875 21.78125 60.6875 36.53125 
Q 60.6875 51.171875 53.6875 57.984375 
Q 46.6875 64.796875 31.59375 64.796875 
z
M 9.8125 72.90625 
L 30.078125 72.90625 
Q 51.265625 72.90625 61.171875 64.09375 
Q 71.09375 55.28125 71.09375 36.53125 
Q 71.09375 17.671875 61.125 8.828125 
Q 51.171875 0 30.078125 0 
L 9.8125 0 
z
" id="DejaVuSans-68"/>
     <path d="M 30.609375 48.390625 
Q 23.390625 48.390625 19.1875 42.75 
Q 14.984375 37.109375 14.984375 27.296875 
Q 14.984375 17.484375 19.15625 11.84375 
Q 23.34375 6.203125 30.609375 6.203125 
Q 37.796875 6.203125 41.984375 11.859375 
Q 46.1875 17.53125 46.1875 27.296875 
Q 46.1875 37.015625 41.984375 42.703125 
Q 37.796875 48.390625 30.609375 48.390625 
z
M 30.609375 56 
Q 42.328125 56 49.015625 48.375 
Q 55.71875 40.765625 55.71875 27.296875 
Q 55.71875 13.875 49.015625 6.21875 
Q 42.328125 -1.421875 30.609375 -1.421875 
Q 18.84375 -1.421875 12.171875 6.21875 
Q 5.515625 13.875 5.515625 27.296875 
Q 5.515625 40.765625 12.171875 48.375 
Q 18.84375 56 30.609375 56 
z
M 37.40625 79.984375 
L 47.125 79.984375 
L 31.203125 61.625 
L 23.734375 61.625 
z
" id="DejaVuSans-243"/>
     <path d="M 11.71875 12.40625 
L 22.015625 12.40625 
L 22.015625 0 
L 11.71875 0 
z
M 11.71875 51.703125 
L 22.015625 51.703125 
L 22.015625 39.3125 
L 11.71875 39.3125 
z
" id="DejaVuSans-58"/>
     <path d="M 8.5 21.578125 
L 8.5 54.6875 
L 17.484375 54.6875 
L 17.484375 21.921875 
Q 17.484375 14.15625 20.5 10.265625 
Q 23.53125 6.390625 29.59375 6.390625 
Q 36.859375 6.390625 41.078125 11.03125 
Q 45.3125 15.671875 45.3125 23.6875 
L 45.3125 54.6875 
L 54.296875 54.6875 
L 54.296875 0 
L 45.3125 0 
L 45.3125 8.40625 
Q 42.046875 3.421875 37.71875 1 
Q 33.40625 -1.421875 27.6875 -1.421875 
Q 18.265625 -1.421875 13.375 4.4375 
Q 8.5 10.296875 8.5 21.578125 
z
M 31.109375 56 
z
M 37.796875 79.984375 
L 47.515625 79.984375 
L 31.59375 61.625 
L 24.125 61.625 
z
" id="DejaVuSans-250"/>
    </defs>
    <g transform="translate(255.021875 16.798125)scale(0.12 -0.12)">
     <use xlink:href="#DejaVuSans-68"/>
     <use x="77.001953" xlink:href="#DejaVuSans-105"/>
     <use x="104.785156" xlink:href="#DejaVuSans-115"/>
     <use x="156.884766" xlink:href="#DejaVuSans-116"/>
     <use x="196.09375" xlink:href="#DejaVuSans-114"/>
     <use x="237.207031" xlink:href="#DejaVuSans-105"/>
     <use x="264.990234" xlink:href="#DejaVuSans-98"/>
     <use x="328.466797" xlink:href="#DejaVuSans-117"/>
     <use x="391.845703" xlink:href="#DejaVuSans-99"/>
     <use x="446.826172" xlink:href="#DejaVuSans-105"/>
     <use x="474.609375" xlink:href="#DejaVuSans-243"/>
     <use x="535.791016" xlink:href="#DejaVuSans-110"/>
     <use x="599.169922" xlink:href="#DejaVuSans-32"/>
     <use x="630.957031" xlink:href="#DejaVuSans-100"/>
     <use x="694.433594" xlink:href="#DejaVuSans-101"/>
     <use x="755.957031" xlink:href="#DejaVuSans-58"/>
     <use x="789.648438" xlink:href="#DejaVuSans-32"/>
     <use x="821.435547" xlink:href="#DejaVuSans-73"/>
     <use x="850.927734" xlink:href="#DejaVuSans-67"/>
     <use x="920.751953" xlink:href="#DejaVuSans-83"/>
     <use x="984.228516" xlink:href="#DejaVuSans-69"/>
     <use x="1047.412109" xlink:href="#DejaVuSans-32"/>
     <use x="1079.199219" xlink:href="#DejaVuSans-115"/>
     <use x="1131.298828" xlink:href="#DejaVuSans-101"/>
     <use x="1192.822266" xlink:href="#DejaVuSans-103"/>
     <use x="1256.298828" xlink:href="#DejaVuSans-250"/>
     <use x="1319.677734" xlink:href="#DejaVuSans-110"/>
     <use x="1383.056641" xlink:href="#DejaVuSans-32"/>
     <use x="1414.84375" xlink:href="#DejaVuSans-101"/>
     <use x="1476.367188" xlink:href="#DejaVuSans-108"/>
     <use x="1504.150391" xlink:href="#DejaVuSans-32"/>
     <use x="1535.9375" xlink:href="#DejaVuSans-100"/>
     <use x="1599.414062" xlink:href="#DejaVuSans-101"/>
     <use x="1660.9375" xlink:href="#DejaVuSans-115"/>
     <use x="1713.037109" xlink:href="#DejaVuSans-101"/>
     <use x="1774.560547" xlink:href="#DejaVuSans-109"/>
     <use x="1871.972656" xlink:href="#DejaVuSans-112"/>
     <use x="1935.449219" xlink:href="#DejaVuSans-101"/>
     <use x="1996.972656" xlink:href="#DejaVuSans-241"/>
     <use x="2060.351562" xlink:href="#DejaVuSans-111"/>
     <use x="2121.533203" xlink:href="#DejaVuSans-32"/>
     <use x="2153.320312" xlink:href="#DejaVuSans-101"/>
     <use x="2214.84375" xlink:href="#DejaVuSans-110"/>
     <use x="2278.222656" xlink:href="#DejaVuSans-32"/>
     <use x="2310.009766" xlink:href="#DejaVuSans-108"/>
     <use x="2337.792969" xlink:href="#DejaVuSans-101"/>
     <use x="2399.316406" xlink:href="#DejaVuSans-110"/>
     <use x="2462.695312" xlink:href="#DejaVuSans-103"/>
     <use x="2526.171875" xlink:href="#DejaVuSans-117"/>
     <use x="2589.550781" xlink:href="#DejaVuSans-97"/>
    </g>
    <!--  Nivel: Primaria -->
    <g transform="translate(368.090937 30.2355)scale(0.12 -0.12)">
     <use xlink:href="#DejaVuSans-32"/>
     <use x="31.787109" xlink:href="#DejaVuSans-78"/>
     <use x="106.591797" xlink:href="#DejaVuSans-105"/>
     <use x="134.375" xlink:href="#DejaVuSans-118"/>
     <use x="193.554688" xlink:href="#DejaVuSans-101"/>
     <use x="255.078125" xlink:href="#DejaVuSans-108"/>
     <use x="282.861328" xlink:href="#DejaVuSans-58"/>
     <use x="316.552734" xlink:href="#DejaVuSans-32"/>
     <use x="348.339844" xlink:href="#DejaVuSans-80"/>
     <use x="408.626953" xlink:href="#DejaVuSans-114"/>
     <use x="449.740234" xlink:href="#DejaVuSans-105"/>
     <use x="477.523438" xlink:href="#DejaVuSans-109"/>
     <use x="574.935547" xlink:href="#DejaVuSans-97"/>
     <use x="636.214844" xlink:href="#DejaVuSans-114"/>
     <use x="677.328125" xlink:href="#DejaVuSans-105"/>
     <use x="705.111328" xlink:href="#DejaVuSans-97"/>
    </g>
   </g>
  </g>
 </g>
 <defs>
  <clipPath id="p886217a3d6">
   <rect height="326.16" width="558" x="135.073438" y="36.3315"/>
  </clipPath>
 </defs>
</svg>
