<?xml version="1.0" encoding="utf-8" standalone="no"?>
<!DOCTYPE svg PUBLIC "-//W3C//DTD SVG 1.1//EN"
  "http://www.w3.org/Graphics/SVG/1.1/DTD/svg11.dtd">
<!-- Created with matplotlib (https://matplotlib.org/) -->
<svg height="400.04775pt" version="1.1" viewBox="0 0 703.773437 400.04775" width="703.773437pt" xmlns="http://www.w3.org/2000/svg" xmlns:xlink="http://www.w3.org/1999/xlink">
 <defs>
  <style type="text/css">
*{stroke-linecap:butt;stroke-linejoin:round;}
  </style>
 </defs>
 <g id="figure_1">
  <g id="patch_1">
   <path d="M 0 400.04775 
L 703.773437 400.04775 
L 703.773437 0 
L 0 0 
z
" style="fill:#ffffff;"/>
  </g>
  <g id="axes_1">
   <g id="patch_2">
    <path d="M 135.073438 362.4915 
L 693.073437 362.4915 
L 693.073437 36.3315 
L 135.073438 36.3315 
z
" style="fill:#ffffff;"/>
   </g>
   <g id="PolyCollection_1">
    <defs>
     <path d="M 184.211545 -322.326662 
L 184.211545 -323.565838 
L 188.85522 -326.881553 
L 193.498894 -333.471435 
L 198.142569 -336.57968 
L 202.786243 -333.424502 
L 207.429918 -334.307745 
L 212.073593 -344.973435 
L 216.717267 -350.926467 
L 221.360942 -352.587038 
L 226.004616 -355.336588 
L 230.648291 -350.645187 
L 235.291966 -348.189278 
L 239.93564 -355.024558 
L 244.579315 -355.56225 
L 249.222989 -350.769307 
L 253.866664 -339.183361 
L 258.510339 -329.631494 
L 263.154013 -331.740899 
L 267.797688 -339.915249 
L 272.441362 -347.997207 
L 277.085037 -351.683258 
L 281.728712 -346.741096 
L 286.372386 -337.808878 
L 291.016061 -335.10733 
L 295.659735 -337.456663 
L 300.30341 -341.397869 
L 304.947084 -348.068709 
L 309.590759 -353.880136 
L 314.234434 -348.929625 
L 318.878108 -341.037704 
L 323.521783 -337.821599 
L 328.165457 -331.05981 
L 332.809132 -327.26377 
L 337.452807 -327.561365 
L 342.096481 -329.194293 
L 346.740156 -330.524128 
L 351.38383 -329.389844 
L 356.027505 -328.555096 
L 360.67118 -327.898886 
L 365.314854 -327.664603 
L 369.958529 -328.321469 
L 374.602203 -326.194299 
L 379.245878 -323.922162 
L 383.889553 -323.519714 
L 388.533227 -323.679053 
L 393.176902 -324.055767 
L 397.820576 -324.62188 
L 402.464251 -324.604716 
L 407.107926 -324.02733 
L 411.7516 -323.430804 
L 416.395275 -323.244671 
L 421.038949 -323.290769 
L 425.682624 -323.149576 
L 430.326299 -323.093087 
L 434.969973 -323.409532 
L 439.613648 -323.722104 
L 444.257322 -323.648198 
L 448.900997 -323.424052 
L 453.544672 -323.181565 
L 458.188346 -323.046791 
L 462.832021 -323.017425 
L 467.475695 -323.28618 
L 472.11937 -324.053315 
L 476.763045 -324.390072 
L 481.406719 -323.934516 
L 486.050394 -323.679412 
L 490.694068 -323.466493 
L 495.337743 -323.481931 
L 499.981418 -323.484092 
L 504.625092 -323.187925 
L 509.268767 -322.994823 
L 513.912441 -323.026172 
L 518.556116 -323.382471 
L 523.199791 -323.824119 
L 527.843465 -323.695922 
L 532.48714 -323.4215 
L 537.130814 -323.17134 
L 541.774489 -322.991673 
L 546.418163 -322.949477 
L 551.061838 -322.946328 
L 555.705513 -322.946251 
L 560.349187 -322.94625 
L 564.992862 -322.946257 
L 569.636536 -322.946879 
L 574.280211 -322.964252 
L 578.923886 -323.12182 
L 583.56756 -323.529441 
L 588.211235 -323.606036 
L 592.854909 -323.200481 
L 597.498584 -322.979615 
L 602.142259 -322.947741 
L 606.785933 -322.946273 
L 611.429608 -322.94625 
L 616.073282 -322.946271 
L 620.716957 -322.947238 
L 625.360632 -322.962036 
L 630.004306 -323.032155 
L 634.647981 -323.10547 
L 639.291655 -323.04676 
L 643.93533 -322.96786 
L 643.93533 -322.92464 
L 643.93533 -322.92464 
L 639.291655 -322.84574 
L 634.647981 -322.78703 
L 630.004306 -322.860345 
L 625.360632 -322.930464 
L 620.716957 -322.945262 
L 616.073282 -322.946229 
L 611.429608 -322.94625 
L 606.785933 -322.946227 
L 602.142259 -322.944759 
L 597.498584 -322.912885 
L 592.854909 -322.692019 
L 588.211235 -322.286464 
L 583.56756 -322.363059 
L 578.923886 -322.77068 
L 574.280211 -322.928248 
L 569.636536 -322.945621 
L 564.992862 -322.946243 
L 560.349187 -322.94625 
L 555.705513 -322.946249 
L 551.061838 -322.946172 
L 546.418163 -322.943023 
L 541.774489 -322.900827 
L 537.130814 -322.72116 
L 532.48714 -322.471 
L 527.843465 -322.196578 
L 523.199791 -322.068381 
L 518.556116 -322.510029 
L 513.912441 -322.866328 
L 509.268767 -322.897677 
L 504.625092 -322.704575 
L 499.981418 -322.408408 
L 495.337743 -322.410569 
L 490.694068 -322.426007 
L 486.050394 -322.213088 
L 481.406719 -321.957984 
L 476.763045 -321.502428 
L 472.11937 -321.839185 
L 467.475695 -322.60632 
L 462.832021 -322.875075 
L 458.188346 -322.845709 
L 453.544672 -322.710935 
L 448.900997 -322.468448 
L 444.257322 -322.244302 
L 439.613648 -322.170396 
L 434.969973 -322.482968 
L 430.326299 -322.799413 
L 425.682624 -322.742924 
L 421.038949 -322.601731 
L 416.395275 -322.647829 
L 411.7516 -322.461696 
L 407.107926 -321.86517 
L 402.464251 -321.287784 
L 397.820576 -321.27062 
L 393.176902 -321.836733 
L 388.533227 -322.213447 
L 383.889553 -322.372786 
L 379.245878 -321.970338 
L 374.602203 -319.698201 
L 369.958529 -317.571031 
L 365.314854 -318.227897 
L 360.67118 -317.993614 
L 356.027505 -317.337404 
L 351.38383 -316.502656 
L 346.740156 -315.368372 
L 342.096481 -316.698207 
L 337.452807 -318.331135 
L 332.809132 -318.62873 
L 328.165457 -314.83269 
L 323.521783 -308.070901 
L 318.878108 -304.854796 
L 314.234434 -296.962875 
L 309.590759 -292.012364 
L 304.947084 -297.823791 
L 300.30341 -304.494631 
L 295.659735 -308.435837 
L 291.016061 -310.78517 
L 286.372386 -308.083622 
L 281.728712 -299.151404 
L 277.085037 -294.209242 
L 272.441362 -297.895293 
L 267.797688 -305.977251 
L 263.154013 -314.151601 
L 258.510339 -316.261006 
L 253.866664 -306.709139 
L 249.222989 -295.123193 
L 244.579315 -290.33025 
L 239.93564 -290.867942 
L 235.291966 -297.703222 
L 230.648291 -295.247313 
L 226.004616 -290.555912 
L 221.360942 -293.305462 
L 216.717267 -294.966033 
L 212.073593 -300.919065 
L 207.429918 -311.584755 
L 202.786243 -312.467998 
L 198.142569 -309.31282 
L 193.498894 -312.421065 
L 188.85522 -319.010947 
L 184.211545 -322.326662 
z
" id="m8b81d2dba3" style="stroke:#4c4c4c;stroke-width:1.5;"/>
    </defs>
    <g clip-path="url(#p932688f4bd)">
     <use style="fill:#2020df;stroke:#4c4c4c;stroke-width:1.5;" x="0" xlink:href="#m8b81d2dba3" y="400.04775"/>
    </g>
   </g>
   <g id="PolyCollection_2">
    <defs>
     <path d="M 183.79085 -241.124377 
L 183.79085 -241.688123 
L 188.443024 -243.054354 
L 193.095197 -245.731727 
L 197.747371 -247.179875 
L 202.399544 -246.566079 
L 207.051717 -248.827992 
L 211.703891 -256.516139 
L 216.356064 -261.458947 
L 221.008238 -263.479611 
L 225.660411 -267.157627 
L 230.312585 -266.797245 
L 234.964758 -266.762233 
L 239.616932 -272.91854 
L 244.269105 -273.47198 
L 248.921279 -267.923465 
L 253.573452 -257.549118 
L 258.225626 -249.45815 
L 262.877799 -251.438436 
L 267.529973 -258.044948 
L 272.182146 -266.379323 
L 276.83432 -272.307071 
L 281.486493 -268.213532 
L 286.138667 -258.924153 
L 290.79084 -255.895212 
L 295.443014 -258.464723 
L 300.095187 -262.252271 
L 304.747361 -268.392084 
L 309.399534 -273.161292 
L 314.051708 -268.308192 
L 318.703881 -261.104946 
L 323.356055 -258.027169 
L 328.008228 -251.341138 
L 332.660402 -246.730824 
L 337.312575 -247.204088 
L 341.964749 -249.551688 
L 346.616922 -250.854594 
L 351.269095 -249.300967 
L 355.921269 -247.828448 
L 360.573442 -247.27837 
L 365.225616 -248.086025 
L 369.877789 -249.563003 
L 374.529963 -246.745041 
L 379.182136 -243.132976 
L 383.83431 -242.275467 
L 388.486483 -242.603804 
L 393.138657 -243.434426 
L 397.79083 -244.301828 
L 402.443004 -244.285595 
L 407.095177 -243.488203 
L 411.747351 -242.419692 
L 416.399524 -241.933151 
L 421.051698 -241.906833 
L 425.703871 -241.715047 
L 430.356045 -241.693499 
L 435.008218 -242.283562 
L 439.660392 -242.829436 
L 444.312565 -242.643544 
L 448.964739 -242.184691 
L 453.616912 -241.767416 
L 458.269086 -241.554647 
L 462.921259 -241.55084 
L 467.573433 -242.025277 
L 472.225606 -243.134932 
L 476.87778 -243.569671 
L 481.529953 -242.951425 
L 486.182126 -242.525902 
L 490.8343 -242.187116 
L 495.486473 -242.149144 
L 500.138647 -242.092366 
L 504.79082 -241.729064 
L 509.442994 -241.501244 
L 514.095167 -241.630056 
L 518.747341 -242.411621 
L 523.399514 -243.248518 
L 528.051688 -242.952076 
L 532.703861 -242.338869 
L 537.356035 -241.830895 
L 542.008208 -241.498264 
L 546.660382 -241.414027 
L 551.312555 -241.406497 
L 555.964729 -241.406253 
L 560.616902 -241.40625 
L 565.269076 -241.40628 
L 569.921249 -241.407871 
L 574.573423 -241.438962 
L 579.225596 -241.652442 
L 583.87777 -242.0974 
L 588.529943 -242.130021 
L 593.182117 -241.688974 
L 597.83429 -241.447446 
L 602.486464 -241.408489 
L 607.138637 -241.406295 
L 611.790811 -241.406252 
L 616.442984 -241.40638 
L 621.095158 -241.410302 
L 625.747331 -241.453279 
L 630.399504 -241.609845 
L 635.051678 -241.735023 
L 639.703851 -241.604292 
L 644.356025 -241.450749 
L 644.356025 -241.361751 
L 644.356025 -241.361751 
L 639.703851 -241.208208 
L 635.051678 -241.077477 
L 630.399504 -241.202655 
L 625.747331 -241.359221 
L 621.095158 -241.402198 
L 616.442984 -241.40612 
L 611.790811 -241.406248 
L 607.138637 -241.406205 
L 602.486464 -241.404011 
L 597.83429 -241.365054 
L 593.182117 -241.123526 
L 588.529943 -240.682479 
L 583.87777 -240.7151 
L 579.225596 -241.160058 
L 574.573423 -241.373538 
L 569.921249 -241.404629 
L 565.269076 -241.40622 
L 560.616902 -241.40625 
L 555.964729 -241.406247 
L 551.312555 -241.406003 
L 546.660382 -241.398473 
L 542.008208 -241.314236 
L 537.356035 -240.981605 
L 532.703861 -240.473631 
L 528.051688 -239.860424 
L 523.399514 -239.563982 
L 518.747341 -240.400879 
L 514.095167 -241.182444 
L 509.442994 -241.311256 
L 504.79082 -241.083436 
L 500.138647 -240.720134 
L 495.486473 -240.663356 
L 490.8343 -240.625384 
L 486.182126 -240.286598 
L 481.529953 -239.861075 
L 476.87778 -239.242829 
L 472.225606 -239.677568 
L 467.573433 -240.787223 
L 462.921259 -241.26166 
L 458.269086 -241.257853 
L 453.616912 -241.045084 
L 448.964739 -240.627809 
L 444.312565 -240.168956 
L 439.660392 -239.983064 
L 435.008218 -240.528938 
L 430.356045 -241.119001 
L 425.703871 -241.097453 
L 421.051698 -240.905667 
L 416.399524 -240.879349 
L 411.747351 -240.392808 
L 407.095177 -239.324297 
L 402.443004 -238.526905 
L 397.79083 -238.510672 
L 393.138657 -239.378074 
L 388.486483 -240.208696 
L 383.83431 -240.537033 
L 379.182136 -239.679524 
L 374.529963 -236.067459 
L 369.877789 -233.249497 
L 365.225616 -234.726475 
L 360.573442 -235.53413 
L 355.921269 -234.984052 
L 351.269095 -233.511533 
L 346.616922 -231.957906 
L 341.964749 -233.260812 
L 337.312575 -235.608412 
L 332.660402 -236.081676 
L 328.008228 -231.471362 
L 323.356055 -224.785331 
L 318.703881 -221.707554 
L 314.051708 -214.504308 
L 309.399534 -209.651208 
L 304.747361 -214.420416 
L 300.095187 -220.560229 
L 295.443014 -224.347777 
L 290.79084 -226.917288 
L 286.138667 -223.888347 
L 281.486493 -214.598968 
L 276.83432 -210.505429 
L 272.182146 -216.433177 
L 267.529973 -224.767552 
L 262.877799 -231.374064 
L 258.225626 -233.35435 
L 253.573452 -225.263382 
L 248.921279 -214.889035 
L 244.269105 -209.34052 
L 239.616932 -209.89396 
L 234.964758 -216.050267 
L 230.312585 -216.015255 
L 225.660411 -215.654873 
L 221.008238 -219.332889 
L 216.356064 -221.353553 
L 211.703891 -226.296361 
L 207.051717 -233.984508 
L 202.399544 -236.246421 
L 197.747371 -235.632625 
L 193.095197 -237.080773 
L 188.443024 -239.758146 
L 183.79085 -241.124377 
z
" id="m570f27b91d" style="stroke:#4c4c4c;stroke-width:1.5;"/>
    </defs>
    <g clip-path="url(#p932688f4bd)">
     <use style="fill:#2020df;stroke:#4c4c4c;stroke-width:1.5;" x="0" xlink:href="#m570f27b91d" y="400.04775"/>
    </g>
   </g>
   <g id="PolyCollection_3">
    <defs>
     <path d="M 181.969524 -159.753083 
L 181.969524 -159.979417 
L 186.658492 -160.413049 
L 191.34746 -161.346924 
L 196.036428 -162.289295 
L 200.725396 -162.964448 
L 205.414364 -165.277884 
L 210.103332 -171.106999 
L 214.7923 -177.434793 
L 219.481267 -181.254869 
L 224.170235 -184.014134 
L 228.859203 -184.79933 
L 233.548171 -184.61307 
L 238.237139 -187.591304 
L 242.926107 -189.980187 
L 247.615075 -186.989984 
L 252.304043 -179.106189 
L 256.993011 -171.134245 
L 261.681979 -169.614187 
L 266.370947 -174.063966 
L 271.059915 -181.201691 
L 275.748883 -187.287987 
L 280.437851 -186.51372 
L 285.126819 -179.538772 
L 289.815787 -174.308172 
L 294.504755 -174.836827 
L 299.193723 -179.800132 
L 303.882691 -186.857712 
L 308.571659 -190.631712 
L 313.260627 -186.581888 
L 317.949594 -179.648741 
L 322.638562 -175.222335 
L 327.32753 -170.695367 
L 332.016498 -166.920229 
L 336.705466 -166.918687 
L 341.394434 -169.200977 
L 346.083402 -170.395272 
L 350.77237 -169.289606 
L 355.461338 -167.912614 
L 360.150306 -167.62415 
L 364.839274 -168.502314 
L 369.528242 -169.087971 
L 374.21721 -166.527275 
L 378.906178 -162.788215 
L 383.595146 -161.139426 
L 388.284114 -161.208749 
L 392.973082 -161.955269 
L 397.66205 -162.768851 
L 402.351018 -162.941208 
L 407.039986 -162.286845 
L 411.728954 -161.362567 
L 416.417921 -160.922951 
L 421.106889 -160.827171 
L 425.795857 -160.555293 
L 430.484825 -160.481314 
L 435.173793 -160.969763 
L 439.862761 -161.378624 
L 444.551729 -161.159314 
L 449.240697 -160.655713 
L 453.929665 -160.252318 
L 458.618633 -160.054848 
L 463.307601 -160.164675 
L 467.996569 -160.891743 
L 472.685537 -162.050655 
L 477.374505 -162.462117 
L 482.063473 -161.943697 
L 486.752441 -161.384366 
L 491.441409 -161.088925 
L 496.130377 -161.062101 
L 500.819345 -160.873049 
L 505.508313 -160.394149 
L 510.197281 -160.124926 
L 514.886248 -160.463265 
L 519.575216 -161.419889 
L 524.264184 -162.111157 
L 528.953152 -161.849712 
L 533.64212 -161.153121 
L 538.331088 -160.468643 
L 543.020056 -160.034417 
L 547.709024 -159.89097 
L 552.397992 -159.868081 
L 557.08696 -159.866318 
L 561.775928 -159.866306 
L 566.464896 -159.867795 
L 571.153864 -159.887855 
L 575.842832 -160.015902 
L 580.5318 -160.37987 
L 585.220768 -160.739672 
L 589.909736 -160.602166 
L 594.598704 -160.173473 
L 599.287672 -159.929798 
L 603.97664 -159.872763 
L 608.665608 -159.866587 
L 613.354575 -159.866487 
L 618.043543 -159.870353 
L 622.732511 -159.902775 
L 627.421479 -160.027357 
L 632.110447 -160.218347 
L 636.799415 -160.24752 
L 641.488383 -160.070812 
L 646.177351 -159.92063 
L 646.177351 -159.81187 
L 646.177351 -159.81187 
L 641.488383 -159.661688 
L 636.799415 -159.48498 
L 632.110447 -159.514153 
L 627.421479 -159.705143 
L 622.732511 -159.829725 
L 618.043543 -159.862147 
L 613.354575 -159.866013 
L 608.665608 -159.865913 
L 603.97664 -159.859737 
L 599.287672 -159.802702 
L 594.598704 -159.559027 
L 589.909736 -159.130334 
L 585.220768 -158.992828 
L 580.5318 -159.35263 
L 575.842832 -159.716598 
L 571.153864 -159.844645 
L 566.464896 -159.864705 
L 561.775928 -159.866194 
L 557.08696 -159.866182 
L 552.397992 -159.864419 
L 547.709024 -159.84153 
L 543.020056 -159.698083 
L 538.331088 -159.263857 
L 533.64212 -158.579379 
L 528.953152 -157.882788 
L 524.264184 -157.621343 
L 519.575216 -158.312611 
L 514.886248 -159.269235 
L 510.197281 -159.607574 
L 505.508313 -159.338351 
L 500.819345 -158.859451 
L 496.130377 -158.670399 
L 491.441409 -158.643575 
L 486.752441 -158.348134 
L 482.063473 -157.788803 
L 477.374505 -157.270383 
L 472.685537 -157.681845 
L 467.996569 -158.840757 
L 463.307601 -159.567825 
L 458.618633 -159.677652 
L 453.929665 -159.480182 
L 449.240697 -159.076787 
L 444.551729 -158.573186 
L 439.862761 -158.353876 
L 435.173793 -158.762737 
L 430.484825 -159.251186 
L 425.795857 -159.177207 
L 421.106889 -158.905329 
L 416.417921 -158.809549 
L 411.728954 -158.369933 
L 407.039986 -157.445655 
L 402.351018 -156.791292 
L 397.66205 -156.963649 
L 392.973082 -157.777231 
L 388.284114 -158.523751 
L 383.595146 -158.593074 
L 378.906178 -156.944285 
L 374.21721 -153.205225 
L 369.528242 -150.644529 
L 364.839274 -151.230186 
L 360.150306 -152.10835 
L 355.461338 -151.819886 
L 350.77237 -150.442894 
L 346.083402 -149.337228 
L 341.394434 -150.531523 
L 336.705466 -152.813813 
L 332.016498 -152.812271 
L 327.32753 -149.037133 
L 322.638562 -144.510165 
L 317.949594 -140.083759 
L 313.260627 -133.150612 
L 308.571659 -129.100788 
L 303.882691 -132.874788 
L 299.193723 -139.932368 
L 294.504755 -144.895673 
L 289.815787 -145.424328 
L 285.126819 -140.193728 
L 280.437851 -133.21878 
L 275.748883 -132.444513 
L 271.059915 -138.530809 
L 266.370947 -145.668534 
L 261.681979 -150.118313 
L 256.993011 -148.598255 
L 252.304043 -140.626311 
L 247.615075 -132.742516 
L 242.926107 -129.752313 
L 238.237139 -132.141196 
L 233.548171 -135.11943 
L 228.859203 -134.93317 
L 224.170235 -135.718366 
L 219.481267 -138.477631 
L 214.7923 -142.297707 
L 210.103332 -148.625501 
L 205.414364 -154.454616 
L 200.725396 -156.768052 
L 196.036428 -157.443205 
L 191.34746 -158.385576 
L 186.658492 -159.319451 
L 181.969524 -159.753083 
z
" id="m813bfbf44e" style="stroke:#4c4c4c;stroke-width:1.5;"/>
    </defs>
    <g clip-path="url(#p932688f4bd)">
     <use style="fill:#2020df;stroke:#4c4c4c;stroke-width:1.5;" x="0" xlink:href="#m813bfbf44e" y="400.04775"/>
    </g>
   </g>
   <g id="PolyCollection_4">
    <defs>
     <path d="M 180.771886 -78.205677 
L 180.771886 -78.446823 
L 185.485049 -78.830733 
L 190.198212 -79.622061 
L 194.911374 -80.50449 
L 199.624537 -81.24494 
L 204.3377 -83.081763 
L 209.050862 -87.805178 
L 213.764025 -94.118811 
L 218.477188 -98.801787 
L 223.19035 -101.361611 
L 227.903513 -102.42707 
L 232.616676 -103.160857 
L 237.329838 -105.576263 
L 242.043001 -107.398049 
L 246.756163 -104.720761 
L 251.469326 -97.908047 
L 256.182489 -90.884769 
L 260.895651 -88.500846 
L 265.608814 -91.719063 
L 270.321977 -98.098174 
L 275.035139 -103.779283 
L 279.748302 -103.996033 
L 284.461465 -98.812024 
L 289.174627 -94.224386 
L 293.88779 -94.175271 
L 298.600953 -97.803131 
L 303.314115 -102.851321 
L 308.027278 -105.660484 
L 312.740441 -103.230678 
L 317.453603 -98.278519 
L 322.166766 -94.472218 
L 326.879929 -90.610385 
L 331.593091 -86.951566 
L 336.306254 -86.175574 
L 341.019416 -87.736332 
L 345.732579 -88.755766 
L 350.445742 -88.102031 
L 355.158904 -87.19574 
L 359.872067 -87.101505 
L 364.58523 -87.53767 
L 369.298392 -87.266232 
L 374.011555 -84.839002 
L 378.724718 -81.583664 
L 383.43788 -79.862267 
L 388.151043 -79.811995 
L 392.864206 -80.55241 
L 397.577368 -81.346067 
L 402.290531 -81.566805 
L 407.003694 -81.034184 
L 411.716856 -80.232839 
L 416.430019 -79.822116 
L 421.143181 -79.672888 
L 425.856344 -79.35735 
L 430.569507 -79.234675 
L 435.282669 -79.652791 
L 439.995832 -80.09069 
L 444.708995 -79.99281 
L 449.422157 -79.461827 
L 454.13532 -78.894441 
L 458.848483 -78.593438 
L 463.561645 -78.716758 
L 468.274808 -79.368876 
L 472.987971 -80.229684 
L 477.701133 -80.550904 
L 482.414296 -80.243222 
L 487.127459 -79.841461 
L 491.840621 -79.682908 
L 496.553784 -79.714528 
L 501.266946 -79.516772 
L 505.980109 -79.041693 
L 510.693272 -78.77786 
L 515.406434 -79.114578 
L 520.119597 -79.913332 
L 524.83276 -80.42534 
L 529.545922 -80.20969 
L 534.259085 -79.581553 
L 538.972248 -78.934028 
L 543.68541 -78.517696 
L 548.398573 -78.362239 
L 553.111736 -78.33013 
L 557.824898 -78.326523 
L 562.538061 -78.327176 
L 567.251224 -78.339169 
L 571.964386 -78.428158 
L 576.677549 -78.776798 
L 581.390712 -79.442695 
L 586.103874 -79.876838 
L 590.817037 -79.533282 
L 595.530199 -78.852879 
L 600.243362 -78.455032 
L 604.956525 -78.343904 
L 609.669687 -78.3277 
L 614.38285 -78.327881 
L 619.096013 -78.341044 
L 623.809175 -78.404239 
L 628.522338 -78.556711 
L 633.235501 -78.707952 
L 637.948663 -78.680586 
L 642.661826 -78.510611 
L 647.374989 -78.380013 
L 647.374989 -78.272487 
L 647.374989 -78.272487 
L 642.661826 -78.141889 
L 637.948663 -77.971914 
L 633.235501 -77.944548 
L 628.522338 -78.095789 
L 623.809175 -78.248261 
L 619.096013 -78.311456 
L 614.38285 -78.324619 
L 609.669687 -78.3248 
L 604.956525 -78.308596 
L 600.243362 -78.197468 
L 595.530199 -77.799621 
L 590.817037 -77.119218 
L 586.103874 -76.775662 
L 581.390712 -77.209805 
L 576.677549 -77.875702 
L 571.964386 -78.224342 
L 567.251224 -78.313331 
L 562.538061 -78.325324 
L 557.824898 -78.325977 
L 553.111736 -78.32237 
L 548.398573 -78.290261 
L 543.68541 -78.134804 
L 538.972248 -77.718472 
L 534.259085 -77.070947 
L 529.545922 -76.44281 
L 524.83276 -76.22716 
L 520.119597 -76.739168 
L 515.406434 -77.537922 
L 510.693272 -77.87464 
L 505.980109 -77.610807 
L 501.266946 -77.135728 
L 496.553784 -76.937972 
L 491.840621 -76.969592 
L 487.127459 -76.811039 
L 482.414296 -76.409278 
L 477.701133 -76.101596 
L 472.987971 -76.422816 
L 468.274808 -77.283624 
L 463.561645 -77.935742 
L 458.848483 -78.059062 
L 454.13532 -77.758059 
L 449.422157 -77.190673 
L 444.708995 -76.65969 
L 439.995832 -76.56181 
L 435.282669 -76.999709 
L 430.569507 -77.417825 
L 425.856344 -77.29515 
L 421.143181 -76.979612 
L 416.430019 -76.830384 
L 411.716856 -76.419661 
L 407.003694 -75.618316 
L 402.290531 -75.085695 
L 397.577368 -75.306433 
L 392.864206 -76.10009 
L 388.151043 -76.840505 
L 383.43788 -76.790233 
L 378.724718 -75.068836 
L 374.011555 -71.813498 
L 369.298392 -69.386268 
L 364.58523 -69.11483 
L 359.872067 -69.550995 
L 355.158904 -69.45676 
L 350.445742 -68.550469 
L 345.732579 -67.896734 
L 341.019416 -68.916168 
L 336.306254 -70.476926 
L 331.593091 -69.700934 
L 326.879929 -66.042115 
L 322.166766 -62.180282 
L 317.453603 -58.373981 
L 312.740441 -53.421822 
L 308.027278 -50.992016 
L 303.314115 -53.801179 
L 298.600953 -58.849369 
L 293.88779 -62.477229 
L 289.174627 -62.428114 
L 284.461465 -57.840476 
L 279.748302 -52.656467 
L 275.035139 -52.873217 
L 270.321977 -58.554326 
L 265.608814 -64.933437 
L 260.895651 -68.151654 
L 256.182489 -65.767731 
L 251.469326 -58.744453 
L 246.756163 -51.931739 
L 242.043001 -49.254451 
L 237.329838 -51.076237 
L 232.616676 -53.491643 
L 227.903513 -54.22543 
L 223.19035 -55.290889 
L 218.477188 -57.850713 
L 213.764025 -62.533689 
L 209.050862 -68.847322 
L 204.3377 -73.570737 
L 199.624537 -75.40756 
L 194.911374 -76.14801 
L 190.198212 -77.030439 
L 185.485049 -77.821767 
L 180.771886 -78.205677 
z
" id="m36bfab2cfe" style="stroke:#4c4c4c;stroke-width:1.5;"/>
    </defs>
    <g clip-path="url(#p932688f4bd)">
     <use style="fill:#2020df;stroke:#4c4c4c;stroke-width:1.5;" x="0" xlink:href="#m36bfab2cfe" y="400.04775"/>
    </g>
   </g>
   <g id="matplotlib.axis_1">
    <g id="xtick_1">
     <g id="line2d_1">
      <defs>
       <path d="M 0 0 
L 0 3.5 
" id="m37e0837a0e" style="stroke:#000000;stroke-width:0.8;"/>
      </defs>
      <g>
       <use style="stroke:#000000;stroke-width:0.8;" x="173.415274" xlink:href="#m37e0837a0e" y="362.4915"/>
      </g>
     </g>
     <g id="text_1">
      <!-- 0.0 -->
      <defs>
       <path d="M 31.78125 66.40625 
Q 24.171875 66.40625 20.328125 58.90625 
Q 16.5 51.421875 16.5 36.375 
Q 16.5 21.390625 20.328125 13.890625 
Q 24.171875 6.390625 31.78125 6.390625 
Q 39.453125 6.390625 43.28125 13.890625 
Q 47.125 21.390625 47.125 36.375 
Q 47.125 51.421875 43.28125 58.90625 
Q 39.453125 66.40625 31.78125 66.40625 
z
M 31.78125 74.21875 
Q 44.046875 74.21875 50.515625 64.515625 
Q 56.984375 54.828125 56.984375 36.375 
Q 56.984375 17.96875 50.515625 8.265625 
Q 44.046875 -1.421875 31.78125 -1.421875 
Q 19.53125 -1.421875 13.0625 8.265625 
Q 6.59375 17.96875 6.59375 36.375 
Q 6.59375 54.828125 13.0625 64.515625 
Q 19.53125 74.21875 31.78125 74.21875 
z
" id="DejaVuSans-48"/>
       <path d="M 10.6875 12.40625 
L 21 12.40625 
L 21 0 
L 10.6875 0 
z
" id="DejaVuSans-46"/>
      </defs>
      <g transform="translate(165.463711 377.089938)scale(0.1 -0.1)">
       <use xlink:href="#DejaVuSans-48"/>
       <use x="63.623047" xlink:href="#DejaVuSans-46"/>
       <use x="95.410156" xlink:href="#DejaVuSans-48"/>
      </g>
     </g>
    </g>
    <g id="xtick_2">
     <g id="line2d_2">
      <g>
       <use style="stroke:#000000;stroke-width:0.8;" x="289.589256" xlink:href="#m37e0837a0e" y="362.4915"/>
      </g>
     </g>
     <g id="text_2">
      <!-- 0.1 -->
      <defs>
       <path d="M 12.40625 8.296875 
L 28.515625 8.296875 
L 28.515625 63.921875 
L 10.984375 60.40625 
L 10.984375 69.390625 
L 28.421875 72.90625 
L 38.28125 72.90625 
L 38.28125 8.296875 
L 54.390625 8.296875 
L 54.390625 0 
L 12.40625 0 
z
" id="DejaVuSans-49"/>
      </defs>
      <g transform="translate(281.637694 377.089938)scale(0.1 -0.1)">
       <use xlink:href="#DejaVuSans-48"/>
       <use x="63.623047" xlink:href="#DejaVuSans-46"/>
       <use x="95.410156" xlink:href="#DejaVuSans-49"/>
      </g>
     </g>
    </g>
    <g id="xtick_3">
     <g id="line2d_3">
      <g>
       <use style="stroke:#000000;stroke-width:0.8;" x="405.763238" xlink:href="#m37e0837a0e" y="362.4915"/>
      </g>
     </g>
     <g id="text_3">
      <!-- 0.2 -->
      <defs>
       <path d="M 19.1875 8.296875 
L 53.609375 8.296875 
L 53.609375 0 
L 7.328125 0 
L 7.328125 8.296875 
Q 12.9375 14.109375 22.625 23.890625 
Q 32.328125 33.6875 34.8125 36.53125 
Q 39.546875 41.84375 41.421875 45.53125 
Q 43.3125 49.21875 43.3125 52.78125 
Q 43.3125 58.59375 39.234375 62.25 
Q 35.15625 65.921875 28.609375 65.921875 
Q 23.96875 65.921875 18.8125 64.3125 
Q 13.671875 62.703125 7.8125 59.421875 
L 7.8125 69.390625 
Q 13.765625 71.78125 18.9375 73 
Q 24.125 74.21875 28.421875 74.21875 
Q 39.75 74.21875 46.484375 68.546875 
Q 53.21875 62.890625 53.21875 53.421875 
Q 53.21875 48.921875 51.53125 44.890625 
Q 49.859375 40.875 45.40625 35.40625 
Q 44.1875 33.984375 37.640625 27.21875 
Q 31.109375 20.453125 19.1875 8.296875 
z
" id="DejaVuSans-50"/>
      </defs>
      <g transform="translate(397.811676 377.089938)scale(0.1 -0.1)">
       <use xlink:href="#DejaVuSans-48"/>
       <use x="63.623047" xlink:href="#DejaVuSans-46"/>
       <use x="95.410156" xlink:href="#DejaVuSans-50"/>
      </g>
     </g>
    </g>
    <g id="xtick_4">
     <g id="line2d_4">
      <g>
       <use style="stroke:#000000;stroke-width:0.8;" x="521.937221" xlink:href="#m37e0837a0e" y="362.4915"/>
      </g>
     </g>
     <g id="text_4">
      <!-- 0.3 -->
      <defs>
       <path d="M 40.578125 39.3125 
Q 47.65625 37.796875 51.625 33 
Q 55.609375 28.21875 55.609375 21.1875 
Q 55.609375 10.40625 48.1875 4.484375 
Q 40.765625 -1.421875 27.09375 -1.421875 
Q 22.515625 -1.421875 17.65625 -0.515625 
Q 12.796875 0.390625 7.625 2.203125 
L 7.625 11.71875 
Q 11.71875 9.328125 16.59375 8.109375 
Q 21.484375 6.890625 26.8125 6.890625 
Q 36.078125 6.890625 40.9375 10.546875 
Q 45.796875 14.203125 45.796875 21.1875 
Q 45.796875 27.640625 41.28125 31.265625 
Q 36.765625 34.90625 28.71875 34.90625 
L 20.21875 34.90625 
L 20.21875 43.015625 
L 29.109375 43.015625 
Q 36.375 43.015625 40.234375 45.921875 
Q 44.09375 48.828125 44.09375 54.296875 
Q 44.09375 59.90625 40.109375 62.90625 
Q 36.140625 65.921875 28.71875 65.921875 
Q 24.65625 65.921875 20.015625 65.03125 
Q 15.375 64.15625 9.8125 62.3125 
L 9.8125 71.09375 
Q 15.4375 72.65625 20.34375 73.4375 
Q 25.25 74.21875 29.59375 74.21875 
Q 40.828125 74.21875 47.359375 69.109375 
Q 53.90625 64.015625 53.90625 55.328125 
Q 53.90625 49.265625 50.4375 45.09375 
Q 46.96875 40.921875 40.578125 39.3125 
z
" id="DejaVuSans-51"/>
      </defs>
      <g transform="translate(513.985658 377.089938)scale(0.1 -0.1)">
       <use xlink:href="#DejaVuSans-48"/>
       <use x="63.623047" xlink:href="#DejaVuSans-46"/>
       <use x="95.410156" xlink:href="#DejaVuSans-51"/>
      </g>
     </g>
    </g>
    <g id="xtick_5">
     <g id="line2d_5">
      <g>
       <use style="stroke:#000000;stroke-width:0.8;" x="638.111203" xlink:href="#m37e0837a0e" y="362.4915"/>
      </g>
     </g>
     <g id="text_5">
      <!-- 0.4 -->
      <defs>
       <path d="M 37.796875 64.3125 
L 12.890625 25.390625 
L 37.796875 25.390625 
z
M 35.203125 72.90625 
L 47.609375 72.90625 
L 47.609375 25.390625 
L 58.015625 25.390625 
L 58.015625 17.1875 
L 47.609375 17.1875 
L 47.609375 0 
L 37.796875 0 
L 37.796875 17.1875 
L 4.890625 17.1875 
L 4.890625 26.703125 
z
" id="DejaVuSans-52"/>
      </defs>
      <g transform="translate(630.15964 377.089938)scale(0.1 -0.1)">
       <use xlink:href="#DejaVuSans-48"/>
       <use x="63.623047" xlink:href="#DejaVuSans-46"/>
       <use x="95.410156" xlink:href="#DejaVuSans-52"/>
      </g>
     </g>
    </g>
    <g id="text_6">
     <!-- Tasa con NBI -->
     <defs>
      <path d="M -0.296875 72.90625 
L 61.375 72.90625 
L 61.375 64.59375 
L 35.5 64.59375 
L 35.5 0 
L 25.59375 0 
L 25.59375 64.59375 
L -0.296875 64.59375 
z
" id="DejaVuSans-84"/>
      <path d="M 34.28125 27.484375 
Q 23.390625 27.484375 19.1875 25 
Q 14.984375 22.515625 14.984375 16.5 
Q 14.984375 11.71875 18.140625 8.90625 
Q 21.296875 6.109375 26.703125 6.109375 
Q 34.1875 6.109375 38.703125 11.40625 
Q 43.21875 16.703125 43.21875 25.484375 
L 43.21875 27.484375 
z
M 52.203125 31.203125 
L 52.203125 0 
L 43.21875 0 
L 43.21875 8.296875 
Q 40.140625 3.328125 35.546875 0.953125 
Q 30.953125 -1.421875 24.3125 -1.421875 
Q 15.921875 -1.421875 10.953125 3.296875 
Q 6 8.015625 6 15.921875 
Q 6 25.140625 12.171875 29.828125 
Q 18.359375 34.515625 30.609375 34.515625 
L 43.21875 34.515625 
L 43.21875 35.40625 
Q 43.21875 41.609375 39.140625 45 
Q 35.0625 48.390625 27.6875 48.390625 
Q 23 48.390625 18.546875 47.265625 
Q 14.109375 46.140625 10.015625 43.890625 
L 10.015625 52.203125 
Q 14.9375 54.109375 19.578125 55.046875 
Q 24.21875 56 28.609375 56 
Q 40.484375 56 46.34375 49.84375 
Q 52.203125 43.703125 52.203125 31.203125 
z
" id="DejaVuSans-97"/>
      <path d="M 44.28125 53.078125 
L 44.28125 44.578125 
Q 40.484375 46.53125 36.375 47.5 
Q 32.28125 48.484375 27.875 48.484375 
Q 21.1875 48.484375 17.84375 46.4375 
Q 14.5 44.390625 14.5 40.28125 
Q 14.5 37.15625 16.890625 35.375 
Q 19.28125 33.59375 26.515625 31.984375 
L 29.59375 31.296875 
Q 39.15625 29.25 43.1875 25.515625 
Q 47.21875 21.78125 47.21875 15.09375 
Q 47.21875 7.46875 41.1875 3.015625 
Q 35.15625 -1.421875 24.609375 -1.421875 
Q 20.21875 -1.421875 15.453125 -0.5625 
Q 10.6875 0.296875 5.421875 2 
L 5.421875 11.28125 
Q 10.40625 8.6875 15.234375 7.390625 
Q 20.0625 6.109375 24.8125 6.109375 
Q 31.15625 6.109375 34.5625 8.28125 
Q 37.984375 10.453125 37.984375 14.40625 
Q 37.984375 18.0625 35.515625 20.015625 
Q 33.0625 21.96875 24.703125 23.78125 
L 21.578125 24.515625 
Q 13.234375 26.265625 9.515625 29.90625 
Q 5.8125 33.546875 5.8125 39.890625 
Q 5.8125 47.609375 11.28125 51.796875 
Q 16.75 56 26.8125 56 
Q 31.78125 56 36.171875 55.265625 
Q 40.578125 54.546875 44.28125 53.078125 
z
" id="DejaVuSans-115"/>
      <path id="DejaVuSans-32"/>
      <path d="M 48.78125 52.59375 
L 48.78125 44.1875 
Q 44.96875 46.296875 41.140625 47.34375 
Q 37.3125 48.390625 33.40625 48.390625 
Q 24.65625 48.390625 19.8125 42.84375 
Q 14.984375 37.3125 14.984375 27.296875 
Q 14.984375 17.28125 19.8125 11.734375 
Q 24.65625 6.203125 33.40625 6.203125 
Q 37.3125 6.203125 41.140625 7.25 
Q 44.96875 8.296875 48.78125 10.40625 
L 48.78125 2.09375 
Q 45.015625 0.34375 40.984375 -0.53125 
Q 36.96875 -1.421875 32.421875 -1.421875 
Q 20.0625 -1.421875 12.78125 6.34375 
Q 5.515625 14.109375 5.515625 27.296875 
Q 5.515625 40.671875 12.859375 48.328125 
Q 20.21875 56 33.015625 56 
Q 37.15625 56 41.109375 55.140625 
Q 45.0625 54.296875 48.78125 52.59375 
z
" id="DejaVuSans-99"/>
      <path d="M 30.609375 48.390625 
Q 23.390625 48.390625 19.1875 42.75 
Q 14.984375 37.109375 14.984375 27.296875 
Q 14.984375 17.484375 19.15625 11.84375 
Q 23.34375 6.203125 30.609375 6.203125 
Q 37.796875 6.203125 41.984375 11.859375 
Q 46.1875 17.53125 46.1875 27.296875 
Q 46.1875 37.015625 41.984375 42.703125 
Q 37.796875 48.390625 30.609375 48.390625 
z
M 30.609375 56 
Q 42.328125 56 49.015625 48.375 
Q 55.71875 40.765625 55.71875 27.296875 
Q 55.71875 13.875 49.015625 6.21875 
Q 42.328125 -1.421875 30.609375 -1.421875 
Q 18.84375 -1.421875 12.171875 6.21875 
Q 5.515625 13.875 5.515625 27.296875 
Q 5.515625 40.765625 12.171875 48.375 
Q 18.84375 56 30.609375 56 
z
" id="DejaVuSans-111"/>
      <path d="M 54.890625 33.015625 
L 54.890625 0 
L 45.90625 0 
L 45.90625 32.71875 
Q 45.90625 40.484375 42.875 44.328125 
Q 39.84375 48.1875 33.796875 48.1875 
Q 26.515625 48.1875 22.3125 43.546875 
Q 18.109375 38.921875 18.109375 30.90625 
L 18.109375 0 
L 9.078125 0 
L 9.078125 54.6875 
L 18.109375 54.6875 
L 18.109375 46.1875 
Q 21.34375 51.125 25.703125 53.5625 
Q 30.078125 56 35.796875 56 
Q 45.21875 56 50.046875 50.171875 
Q 54.890625 44.34375 54.890625 33.015625 
z
" id="DejaVuSans-110"/>
      <path d="M 9.8125 72.90625 
L 23.09375 72.90625 
L 55.421875 11.921875 
L 55.421875 72.90625 
L 64.984375 72.90625 
L 64.984375 0 
L 51.703125 0 
L 19.390625 60.984375 
L 19.390625 0 
L 9.8125 0 
z
" id="DejaVuSans-78"/>
      <path d="M 19.671875 34.8125 
L 19.671875 8.109375 
L 35.5 8.109375 
Q 43.453125 8.109375 47.28125 11.40625 
Q 51.125 14.703125 51.125 21.484375 
Q 51.125 28.328125 47.28125 31.5625 
Q 43.453125 34.8125 35.5 34.8125 
z
M 19.671875 64.796875 
L 19.671875 42.828125 
L 34.28125 42.828125 
Q 41.5 42.828125 45.03125 45.53125 
Q 48.578125 48.25 48.578125 53.8125 
Q 48.578125 59.328125 45.03125 62.0625 
Q 41.5 64.796875 34.28125 64.796875 
z
M 9.8125 72.90625 
L 35.015625 72.90625 
Q 46.296875 72.90625 52.390625 68.21875 
Q 58.5 63.53125 58.5 54.890625 
Q 58.5 48.1875 55.375 44.234375 
Q 52.25 40.28125 46.1875 39.3125 
Q 53.46875 37.75 57.5 32.78125 
Q 61.53125 27.828125 61.53125 20.40625 
Q 61.53125 10.640625 54.890625 5.3125 
Q 48.25 0 35.984375 0 
L 9.8125 0 
z
" id="DejaVuSans-66"/>
      <path d="M 9.8125 72.90625 
L 19.671875 72.90625 
L 19.671875 0 
L 9.8125 0 
z
" id="DejaVuSans-73"/>
     </defs>
     <g transform="translate(381.497656 390.768062)scale(0.1 -0.1)">
      <use xlink:href="#DejaVuSans-84"/>
      <use x="60.833984" xlink:href="#DejaVuSans-97"/>
      <use x="122.113281" xlink:href="#DejaVuSans-115"/>
      <use x="174.212891" xlink:href="#DejaVuSans-97"/>
      <use x="235.492188" xlink:href="#DejaVuSans-32"/>
      <use x="267.279297" xlink:href="#DejaVuSans-99"/>
      <use x="322.259766" xlink:href="#DejaVuSans-111"/>
      <use x="383.441406" xlink:href="#DejaVuSans-110"/>
      <use x="446.820312" xlink:href="#DejaVuSans-32"/>
      <use x="478.607422" xlink:href="#DejaVuSans-78"/>
      <use x="553.412109" xlink:href="#DejaVuSans-66"/>
      <use x="622.015625" xlink:href="#DejaVuSans-73"/>
     </g>
    </g>
   </g>
   <g id="matplotlib.axis_2">
    <g id="ytick_1">
     <g id="line2d_6">
      <defs>
       <path d="M 0 0 
L -3.5 0 
" id="m64152c32c8" style="stroke:#000000;stroke-width:0.8;"/>
      </defs>
      <g>
       <use style="stroke:#000000;stroke-width:0.8;" x="135.073438" xlink:href="#m64152c32c8" y="77.1015"/>
      </g>
     </g>
     <g id="text_7">
      <!-- Avanzado -->
      <defs>
       <path d="M 34.1875 63.1875 
L 20.796875 26.90625 
L 47.609375 26.90625 
z
M 28.609375 72.90625 
L 39.796875 72.90625 
L 67.578125 0 
L 57.328125 0 
L 50.6875 18.703125 
L 17.828125 18.703125 
L 11.1875 0 
L 0.78125 0 
z
" id="DejaVuSans-65"/>
       <path d="M 2.984375 54.6875 
L 12.5 54.6875 
L 29.59375 8.796875 
L 46.6875 54.6875 
L 56.203125 54.6875 
L 35.6875 0 
L 23.484375 0 
z
" id="DejaVuSans-118"/>
       <path d="M 5.515625 54.6875 
L 48.1875 54.6875 
L 48.1875 46.484375 
L 14.40625 7.171875 
L 48.1875 7.171875 
L 48.1875 0 
L 4.296875 0 
L 4.296875 8.203125 
L 38.09375 47.515625 
L 5.515625 47.515625 
z
" id="DejaVuSans-122"/>
       <path d="M 45.40625 46.390625 
L 45.40625 75.984375 
L 54.390625 75.984375 
L 54.390625 0 
L 45.40625 0 
L 45.40625 8.203125 
Q 42.578125 3.328125 38.25 0.953125 
Q 33.9375 -1.421875 27.875 -1.421875 
Q 17.96875 -1.421875 11.734375 6.484375 
Q 5.515625 14.40625 5.515625 27.296875 
Q 5.515625 40.1875 11.734375 48.09375 
Q 17.96875 56 27.875 56 
Q 33.9375 56 38.25 53.625 
Q 42.578125 51.265625 45.40625 46.390625 
z
M 14.796875 27.296875 
Q 14.796875 17.390625 18.875 11.75 
Q 22.953125 6.109375 30.078125 6.109375 
Q 37.203125 6.109375 41.296875 11.75 
Q 45.40625 17.390625 45.40625 27.296875 
Q 45.40625 37.203125 41.296875 42.84375 
Q 37.203125 48.484375 30.078125 48.484375 
Q 22.953125 48.484375 18.875 42.84375 
Q 14.796875 37.203125 14.796875 27.296875 
z
" id="DejaVuSans-100"/>
      </defs>
      <g transform="translate(79.0125 80.900719)scale(0.1 -0.1)">
       <use xlink:href="#DejaVuSans-65"/>
       <use x="68.330078" xlink:href="#DejaVuSans-118"/>
       <use x="127.509766" xlink:href="#DejaVuSans-97"/>
       <use x="188.789062" xlink:href="#DejaVuSans-110"/>
       <use x="252.167969" xlink:href="#DejaVuSans-122"/>
       <use x="304.658203" xlink:href="#DejaVuSans-97"/>
       <use x="365.9375" xlink:href="#DejaVuSans-100"/>
       <use x="429.414062" xlink:href="#DejaVuSans-111"/>
      </g>
     </g>
    </g>
    <g id="ytick_2">
     <g id="line2d_7">
      <g>
       <use style="stroke:#000000;stroke-width:0.8;" x="135.073438" xlink:href="#m64152c32c8" y="158.6415"/>
      </g>
     </g>
     <g id="text_8">
      <!-- Satisfactorio -->
      <defs>
       <path d="M 53.515625 70.515625 
L 53.515625 60.890625 
Q 47.90625 63.578125 42.921875 64.890625 
Q 37.9375 66.21875 33.296875 66.21875 
Q 25.25 66.21875 20.875 63.09375 
Q 16.5 59.96875 16.5 54.203125 
Q 16.5 49.359375 19.40625 46.890625 
Q 22.3125 44.4375 30.421875 42.921875 
L 36.375 41.703125 
Q 47.40625 39.59375 52.65625 34.296875 
Q 57.90625 29 57.90625 20.125 
Q 57.90625 9.515625 50.796875 4.046875 
Q 43.703125 -1.421875 29.984375 -1.421875 
Q 24.8125 -1.421875 18.96875 -0.25 
Q 13.140625 0.921875 6.890625 3.21875 
L 6.890625 13.375 
Q 12.890625 10.015625 18.65625 8.296875 
Q 24.421875 6.59375 29.984375 6.59375 
Q 38.421875 6.59375 43.015625 9.90625 
Q 47.609375 13.234375 47.609375 19.390625 
Q 47.609375 24.75 44.3125 27.78125 
Q 41.015625 30.8125 33.5 32.328125 
L 27.484375 33.5 
Q 16.453125 35.6875 11.515625 40.375 
Q 6.59375 45.0625 6.59375 53.421875 
Q 6.59375 63.09375 13.40625 68.65625 
Q 20.21875 74.21875 32.171875 74.21875 
Q 37.3125 74.21875 42.625 73.28125 
Q 47.953125 72.359375 53.515625 70.515625 
z
" id="DejaVuSans-83"/>
       <path d="M 18.3125 70.21875 
L 18.3125 54.6875 
L 36.8125 54.6875 
L 36.8125 47.703125 
L 18.3125 47.703125 
L 18.3125 18.015625 
Q 18.3125 11.328125 20.140625 9.421875 
Q 21.96875 7.515625 27.59375 7.515625 
L 36.8125 7.515625 
L 36.8125 0 
L 27.59375 0 
Q 17.1875 0 13.234375 3.875 
Q 9.28125 7.765625 9.28125 18.015625 
L 9.28125 47.703125 
L 2.6875 47.703125 
L 2.6875 54.6875 
L 9.28125 54.6875 
L 9.28125 70.21875 
z
" id="DejaVuSans-116"/>
       <path d="M 9.421875 54.6875 
L 18.40625 54.6875 
L 18.40625 0 
L 9.421875 0 
z
M 9.421875 75.984375 
L 18.40625 75.984375 
L 18.40625 64.59375 
L 9.421875 64.59375 
z
" id="DejaVuSans-105"/>
       <path d="M 37.109375 75.984375 
L 37.109375 68.5 
L 28.515625 68.5 
Q 23.6875 68.5 21.796875 66.546875 
Q 19.921875 64.59375 19.921875 59.515625 
L 19.921875 54.6875 
L 34.71875 54.6875 
L 34.71875 47.703125 
L 19.921875 47.703125 
L 19.921875 0 
L 10.890625 0 
L 10.890625 47.703125 
L 2.296875 47.703125 
L 2.296875 54.6875 
L 10.890625 54.6875 
L 10.890625 58.5 
Q 10.890625 67.625 15.140625 71.796875 
Q 19.390625 75.984375 28.609375 75.984375 
z
" id="DejaVuSans-102"/>
       <path d="M 41.109375 46.296875 
Q 39.59375 47.171875 37.8125 47.578125 
Q 36.03125 48 33.890625 48 
Q 26.265625 48 22.1875 43.046875 
Q 18.109375 38.09375 18.109375 28.8125 
L 18.109375 0 
L 9.078125 0 
L 9.078125 54.6875 
L 18.109375 54.6875 
L 18.109375 46.1875 
Q 20.953125 51.171875 25.484375 53.578125 
Q 30.03125 56 36.53125 56 
Q 37.453125 56 38.578125 55.875 
Q 39.703125 55.765625 41.0625 55.515625 
z
" id="DejaVuSans-114"/>
      </defs>
      <g transform="translate(65.495313 162.440719)scale(0.1 -0.1)">
       <use xlink:href="#DejaVuSans-83"/>
       <use x="63.476562" xlink:href="#DejaVuSans-97"/>
       <use x="124.755859" xlink:href="#DejaVuSans-116"/>
       <use x="163.964844" xlink:href="#DejaVuSans-105"/>
       <use x="191.748047" xlink:href="#DejaVuSans-115"/>
       <use x="243.847656" xlink:href="#DejaVuSans-102"/>
       <use x="279.052734" xlink:href="#DejaVuSans-97"/>
       <use x="340.332031" xlink:href="#DejaVuSans-99"/>
       <use x="395.3125" xlink:href="#DejaVuSans-116"/>
       <use x="434.521484" xlink:href="#DejaVuSans-111"/>
       <use x="495.703125" xlink:href="#DejaVuSans-114"/>
       <use x="536.816406" xlink:href="#DejaVuSans-105"/>
       <use x="564.599609" xlink:href="#DejaVuSans-111"/>
      </g>
     </g>
    </g>
    <g id="ytick_3">
     <g id="line2d_8">
      <g>
       <use style="stroke:#000000;stroke-width:0.8;" x="135.073438" xlink:href="#m64152c32c8" y="240.1815"/>
      </g>
     </g>
     <g id="text_9">
      <!-- Básico -->
      <defs>
       <path d="M 34.28125 27.484375 
Q 23.390625 27.484375 19.1875 25 
Q 14.984375 22.515625 14.984375 16.5 
Q 14.984375 11.71875 18.140625 8.90625 
Q 21.296875 6.109375 26.703125 6.109375 
Q 34.1875 6.109375 38.703125 11.40625 
Q 43.21875 16.703125 43.21875 25.484375 
L 43.21875 27.484375 
z
M 52.203125 31.203125 
L 52.203125 0 
L 43.21875 0 
L 43.21875 8.296875 
Q 40.140625 3.328125 35.546875 0.953125 
Q 30.953125 -1.421875 24.3125 -1.421875 
Q 15.921875 -1.421875 10.953125 3.296875 
Q 6 8.015625 6 15.921875 
Q 6 25.140625 12.171875 29.828125 
Q 18.359375 34.515625 30.609375 34.515625 
L 43.21875 34.515625 
L 43.21875 35.40625 
Q 43.21875 41.609375 39.140625 45 
Q 35.0625 48.390625 27.6875 48.390625 
Q 23 48.390625 18.546875 47.265625 
Q 14.109375 46.140625 10.015625 43.890625 
L 10.015625 52.203125 
Q 14.9375 54.109375 19.578125 55.046875 
Q 24.21875 56 28.609375 56 
Q 40.484375 56 46.34375 49.84375 
Q 52.203125 43.703125 52.203125 31.203125 
z
M 35.796875 79.984375 
L 45.515625 79.984375 
L 29.59375 61.625 
L 22.125 61.625 
z
" id="DejaVuSans-225"/>
      </defs>
      <g transform="translate(95.479688 243.980719)scale(0.1 -0.1)">
       <use xlink:href="#DejaVuSans-66"/>
       <use x="68.603516" xlink:href="#DejaVuSans-225"/>
       <use x="129.882812" xlink:href="#DejaVuSans-115"/>
       <use x="181.982422" xlink:href="#DejaVuSans-105"/>
       <use x="209.765625" xlink:href="#DejaVuSans-99"/>
       <use x="264.746094" xlink:href="#DejaVuSans-111"/>
      </g>
     </g>
    </g>
    <g id="ytick_4">
     <g id="line2d_9">
      <g>
       <use style="stroke:#000000;stroke-width:0.8;" x="135.073438" xlink:href="#m64152c32c8" y="321.7215"/>
      </g>
     </g>
     <g id="text_10">
      <!-- Por debajo del básico -->
      <defs>
       <path d="M 19.671875 64.796875 
L 19.671875 37.40625 
L 32.078125 37.40625 
Q 38.96875 37.40625 42.71875 40.96875 
Q 46.484375 44.53125 46.484375 51.125 
Q 46.484375 57.671875 42.71875 61.234375 
Q 38.96875 64.796875 32.078125 64.796875 
z
M 9.8125 72.90625 
L 32.078125 72.90625 
Q 44.34375 72.90625 50.609375 67.359375 
Q 56.890625 61.8125 56.890625 51.125 
Q 56.890625 40.328125 50.609375 34.8125 
Q 44.34375 29.296875 32.078125 29.296875 
L 19.671875 29.296875 
L 19.671875 0 
L 9.8125 0 
z
" id="DejaVuSans-80"/>
       <path d="M 56.203125 29.59375 
L 56.203125 25.203125 
L 14.890625 25.203125 
Q 15.484375 15.921875 20.484375 11.0625 
Q 25.484375 6.203125 34.421875 6.203125 
Q 39.59375 6.203125 44.453125 7.46875 
Q 49.3125 8.734375 54.109375 11.28125 
L 54.109375 2.78125 
Q 49.265625 0.734375 44.1875 -0.34375 
Q 39.109375 -1.421875 33.890625 -1.421875 
Q 20.796875 -1.421875 13.15625 6.1875 
Q 5.515625 13.8125 5.515625 26.8125 
Q 5.515625 40.234375 12.765625 48.109375 
Q 20.015625 56 32.328125 56 
Q 43.359375 56 49.78125 48.890625 
Q 56.203125 41.796875 56.203125 29.59375 
z
M 47.21875 32.234375 
Q 47.125 39.59375 43.09375 43.984375 
Q 39.0625 48.390625 32.421875 48.390625 
Q 24.90625 48.390625 20.390625 44.140625 
Q 15.875 39.890625 15.1875 32.171875 
z
" id="DejaVuSans-101"/>
       <path d="M 48.6875 27.296875 
Q 48.6875 37.203125 44.609375 42.84375 
Q 40.53125 48.484375 33.40625 48.484375 
Q 26.265625 48.484375 22.1875 42.84375 
Q 18.109375 37.203125 18.109375 27.296875 
Q 18.109375 17.390625 22.1875 11.75 
Q 26.265625 6.109375 33.40625 6.109375 
Q 40.53125 6.109375 44.609375 11.75 
Q 48.6875 17.390625 48.6875 27.296875 
z
M 18.109375 46.390625 
Q 20.953125 51.265625 25.265625 53.625 
Q 29.59375 56 35.59375 56 
Q 45.5625 56 51.78125 48.09375 
Q 58.015625 40.1875 58.015625 27.296875 
Q 58.015625 14.40625 51.78125 6.484375 
Q 45.5625 -1.421875 35.59375 -1.421875 
Q 29.59375 -1.421875 25.265625 0.953125 
Q 20.953125 3.328125 18.109375 8.203125 
L 18.109375 0 
L 9.078125 0 
L 9.078125 75.984375 
L 18.109375 75.984375 
z
" id="DejaVuSans-98"/>
       <path d="M 9.421875 54.6875 
L 18.40625 54.6875 
L 18.40625 -0.984375 
Q 18.40625 -11.421875 14.421875 -16.109375 
Q 10.453125 -20.796875 1.609375 -20.796875 
L -1.8125 -20.796875 
L -1.8125 -13.1875 
L 0.59375 -13.1875 
Q 5.71875 -13.1875 7.5625 -10.8125 
Q 9.421875 -8.453125 9.421875 -0.984375 
z
M 9.421875 75.984375 
L 18.40625 75.984375 
L 18.40625 64.59375 
L 9.421875 64.59375 
z
" id="DejaVuSans-106"/>
       <path d="M 9.421875 75.984375 
L 18.40625 75.984375 
L 18.40625 0 
L 9.421875 0 
z
" id="DejaVuSans-108"/>
      </defs>
      <g transform="translate(21.048438 325.720719)scale(0.1 -0.1)">
       <use xlink:href="#DejaVuSans-80"/>
       <use x="60.255859" xlink:href="#DejaVuSans-111"/>
       <use x="121.4375" xlink:href="#DejaVuSans-114"/>
       <use x="162.550781" xlink:href="#DejaVuSans-32"/>
       <use x="194.337891" xlink:href="#DejaVuSans-100"/>
       <use x="257.814453" xlink:href="#DejaVuSans-101"/>
       <use x="319.337891" xlink:href="#DejaVuSans-98"/>
       <use x="382.814453" xlink:href="#DejaVuSans-97"/>
       <use x="444.09375" xlink:href="#DejaVuSans-106"/>
       <use x="471.876953" xlink:href="#DejaVuSans-111"/>
       <use x="533.058594" xlink:href="#DejaVuSans-32"/>
       <use x="564.845703" xlink:href="#DejaVuSans-100"/>
       <use x="628.322266" xlink:href="#DejaVuSans-101"/>
       <use x="689.845703" xlink:href="#DejaVuSans-108"/>
       <use x="717.628906" xlink:href="#DejaVuSans-32"/>
       <use x="749.416016" xlink:href="#DejaVuSans-98"/>
       <use x="812.892578" xlink:href="#DejaVuSans-225"/>
       <use x="874.171875" xlink:href="#DejaVuSans-115"/>
       <use x="926.271484" xlink:href="#DejaVuSans-105"/>
       <use x="954.054688" xlink:href="#DejaVuSans-99"/>
       <use x="1009.035156" xlink:href="#DejaVuSans-111"/>
      </g>
     </g>
    </g>
    <g id="text_11">
     <!-- Nivel de desempeño en lengua -->
     <defs>
      <path d="M 52 44.1875 
Q 55.375 50.25 60.0625 53.125 
Q 64.75 56 71.09375 56 
Q 79.640625 56 84.28125 50.015625 
Q 88.921875 44.046875 88.921875 33.015625 
L 88.921875 0 
L 79.890625 0 
L 79.890625 32.71875 
Q 79.890625 40.578125 77.09375 44.375 
Q 74.3125 48.1875 68.609375 48.1875 
Q 61.625 48.1875 57.5625 43.546875 
Q 53.515625 38.921875 53.515625 30.90625 
L 53.515625 0 
L 44.484375 0 
L 44.484375 32.71875 
Q 44.484375 40.625 41.703125 44.40625 
Q 38.921875 48.1875 33.109375 48.1875 
Q 26.21875 48.1875 22.15625 43.53125 
Q 18.109375 38.875 18.109375 30.90625 
L 18.109375 0 
L 9.078125 0 
L 9.078125 54.6875 
L 18.109375 54.6875 
L 18.109375 46.1875 
Q 21.1875 51.21875 25.484375 53.609375 
Q 29.78125 56 35.6875 56 
Q 41.65625 56 45.828125 52.96875 
Q 50 49.953125 52 44.1875 
z
" id="DejaVuSans-109"/>
      <path d="M 18.109375 8.203125 
L 18.109375 -20.796875 
L 9.078125 -20.796875 
L 9.078125 54.6875 
L 18.109375 54.6875 
L 18.109375 46.390625 
Q 20.953125 51.265625 25.265625 53.625 
Q 29.59375 56 35.59375 56 
Q 45.5625 56 51.78125 48.09375 
Q 58.015625 40.1875 58.015625 27.296875 
Q 58.015625 14.40625 51.78125 6.484375 
Q 45.5625 -1.421875 35.59375 -1.421875 
Q 29.59375 -1.421875 25.265625 0.953125 
Q 20.953125 3.328125 18.109375 8.203125 
z
M 48.6875 27.296875 
Q 48.6875 37.203125 44.609375 42.84375 
Q 40.53125 48.484375 33.40625 48.484375 
Q 26.265625 48.484375 22.1875 42.84375 
Q 18.109375 37.203125 18.109375 27.296875 
Q 18.109375 17.390625 22.1875 11.75 
Q 26.265625 6.109375 33.40625 6.109375 
Q 40.53125 6.109375 44.609375 11.75 
Q 48.6875 17.390625 48.6875 27.296875 
z
" id="DejaVuSans-112"/>
      <path d="M 54.890625 33.015625 
L 54.890625 0 
L 45.90625 0 
L 45.90625 32.71875 
Q 45.90625 40.484375 42.875 44.328125 
Q 39.84375 48.1875 33.796875 48.1875 
Q 26.515625 48.1875 22.3125 43.546875 
Q 18.109375 38.921875 18.109375 30.90625 
L 18.109375 0 
L 9.078125 0 
L 9.078125 54.6875 
L 18.109375 54.6875 
L 18.109375 46.1875 
Q 21.34375 51.125 25.703125 53.5625 
Q 30.078125 56 35.796875 56 
Q 45.21875 56 50.046875 50.171875 
Q 54.890625 44.34375 54.890625 33.015625 
z
M 32.234375 66.890625 
L 29.4375 69.578125 
Q 28.375 70.5625 27.5625 71.015625 
Q 26.765625 71.484375 26.125 71.484375 
Q 24.265625 71.484375 23.390625 69.703125 
Q 22.515625 67.921875 22.40625 63.921875 
L 16.3125 63.921875 
Q 16.40625 70.515625 18.890625 74.09375 
Q 21.390625 77.6875 25.828125 77.6875 
Q 27.6875 77.6875 29.25 77 
Q 30.8125 76.3125 32.625 74.703125 
L 35.40625 72.015625 
Q 36.46875 71.046875 37.28125 70.578125 
Q 38.09375 70.125 38.71875 70.125 
Q 40.578125 70.125 41.453125 71.90625 
Q 42.328125 73.6875 42.4375 77.6875 
L 48.53125 77.6875 
Q 48.4375 71.09375 45.9375 67.5 
Q 43.453125 63.921875 39.015625 63.921875 
Q 37.15625 63.921875 35.59375 64.59375 
Q 34.03125 65.28125 32.234375 66.890625 
z
" id="DejaVuSans-241"/>
      <path d="M 45.40625 27.984375 
Q 45.40625 37.75 41.375 43.109375 
Q 37.359375 48.484375 30.078125 48.484375 
Q 22.859375 48.484375 18.828125 43.109375 
Q 14.796875 37.75 14.796875 27.984375 
Q 14.796875 18.265625 18.828125 12.890625 
Q 22.859375 7.515625 30.078125 7.515625 
Q 37.359375 7.515625 41.375 12.890625 
Q 45.40625 18.265625 45.40625 27.984375 
z
M 54.390625 6.78125 
Q 54.390625 -7.171875 48.1875 -13.984375 
Q 42 -20.796875 29.203125 -20.796875 
Q 24.46875 -20.796875 20.265625 -20.09375 
Q 16.0625 -19.390625 12.109375 -17.921875 
L 12.109375 -9.1875 
Q 16.0625 -11.328125 19.921875 -12.34375 
Q 23.78125 -13.375 27.78125 -13.375 
Q 36.625 -13.375 41.015625 -8.765625 
Q 45.40625 -4.15625 45.40625 5.171875 
L 45.40625 9.625 
Q 42.625 4.78125 38.28125 2.390625 
Q 33.9375 0 27.875 0 
Q 17.828125 0 11.671875 7.65625 
Q 5.515625 15.328125 5.515625 27.984375 
Q 5.515625 40.671875 11.671875 48.328125 
Q 17.828125 56 27.875 56 
Q 33.9375 56 38.28125 53.609375 
Q 42.625 51.21875 45.40625 46.390625 
L 45.40625 54.6875 
L 54.390625 54.6875 
z
" id="DejaVuSans-103"/>
      <path d="M 8.5 21.578125 
L 8.5 54.6875 
L 17.484375 54.6875 
L 17.484375 21.921875 
Q 17.484375 14.15625 20.5 10.265625 
Q 23.53125 6.390625 29.59375 6.390625 
Q 36.859375 6.390625 41.078125 11.03125 
Q 45.3125 15.671875 45.3125 23.6875 
L 45.3125 54.6875 
L 54.296875 54.6875 
L 54.296875 0 
L 45.3125 0 
L 45.3125 8.40625 
Q 42.046875 3.421875 37.71875 1 
Q 33.40625 -1.421875 27.6875 -1.421875 
Q 18.265625 -1.421875 13.375 4.4375 
Q 8.5 10.296875 8.5 21.578125 
z
M 31.109375 56 
z
" id="DejaVuSans-117"/>
     </defs>
     <g transform="translate(14.96875 277.141188)rotate(-90)scale(0.1 -0.1)">
      <use xlink:href="#DejaVuSans-78"/>
      <use x="74.804688" xlink:href="#DejaVuSans-105"/>
      <use x="102.587891" xlink:href="#DejaVuSans-118"/>
      <use x="161.767578" xlink:href="#DejaVuSans-101"/>
      <use x="223.291016" xlink:href="#DejaVuSans-108"/>
      <use x="251.074219" xlink:href="#DejaVuSans-32"/>
      <use x="282.861328" xlink:href="#DejaVuSans-100"/>
      <use x="346.337891" xlink:href="#DejaVuSans-101"/>
      <use x="407.861328" xlink:href="#DejaVuSans-32"/>
      <use x="439.648438" xlink:href="#DejaVuSans-100"/>
      <use x="503.125" xlink:href="#DejaVuSans-101"/>
      <use x="564.648438" xlink:href="#DejaVuSans-115"/>
      <use x="616.748047" xlink:href="#DejaVuSans-101"/>
      <use x="678.271484" xlink:href="#DejaVuSans-109"/>
      <use x="775.683594" xlink:href="#DejaVuSans-112"/>
      <use x="839.160156" xlink:href="#DejaVuSans-101"/>
      <use x="900.683594" xlink:href="#DejaVuSans-241"/>
      <use x="964.0625" xlink:href="#DejaVuSans-111"/>
      <use x="1025.244141" xlink:href="#DejaVuSans-32"/>
      <use x="1057.03125" xlink:href="#DejaVuSans-101"/>
      <use x="1118.554688" xlink:href="#DejaVuSans-110"/>
      <use x="1181.933594" xlink:href="#DejaVuSans-32"/>
      <use x="1213.720703" xlink:href="#DejaVuSans-108"/>
      <use x="1241.503906" xlink:href="#DejaVuSans-101"/>
      <use x="1303.027344" xlink:href="#DejaVuSans-110"/>
      <use x="1366.40625" xlink:href="#DejaVuSans-103"/>
      <use x="1429.882812" xlink:href="#DejaVuSans-117"/>
      <use x="1493.261719" xlink:href="#DejaVuSans-97"/>
     </g>
    </g>
   </g>
   <g id="line2d_10">
    <path clip-path="url(#p932688f4bd)" d="M 193.160429 77.1015 
L 421.014253 77.1015 
" style="fill:none;stroke:#4c4c4c;stroke-linecap:square;stroke-width:1.5;"/>
   </g>
   <g id="line2d_11">
    <path clip-path="url(#p932688f4bd)" d="M 228.023197 77.1015 
L 308.258518 77.1015 
" style="fill:none;stroke:#4c4c4c;stroke-linecap:square;stroke-width:4.5;"/>
   </g>
   <g id="line2d_12">
    <path clip-path="url(#p932688f4bd)" d="M 193.160429 158.6415 
L 410.558741 158.6415 
" style="fill:none;stroke:#4c4c4c;stroke-linecap:square;stroke-width:1.5;"/>
   </g>
   <g id="line2d_13">
    <path clip-path="url(#p932688f4bd)" d="M 240.362194 158.6415 
L 312.090749 158.6415 
" style="fill:none;stroke:#4c4c4c;stroke-linecap:square;stroke-width:4.5;"/>
   </g>
   <g id="line2d_14">
    <path clip-path="url(#p932688f4bd)" d="M 193.160429 240.1815 
L 421.014253 240.1815 
" style="fill:none;stroke:#4c4c4c;stroke-linecap:square;stroke-width:1.5;"/>
   </g>
   <g id="line2d_15">
    <path clip-path="url(#p932688f4bd)" d="M 240.362194 240.1815 
L 316.698322 240.1815 
" style="fill:none;stroke:#4c4c4c;stroke-linecap:square;stroke-width:4.5;"/>
   </g>
   <g id="line2d_16">
    <path clip-path="url(#p932688f4bd)" d="M 193.160429 321.7215 
L 439.145078 321.7215 
" style="fill:none;stroke:#4c4c4c;stroke-linecap:square;stroke-width:1.5;"/>
   </g>
   <g id="line2d_17">
    <path clip-path="url(#p932688f4bd)" d="M 240.79376 321.7215 
L 321.63462 321.7215 
" style="fill:none;stroke:#4c4c4c;stroke-linecap:square;stroke-width:4.5;"/>
   </g>
   <g id="patch_3">
    <path d="M 135.073438 362.4915 
L 135.073438 36.3315 
" style="fill:none;stroke:#000000;stroke-linecap:square;stroke-linejoin:miter;stroke-width:0.8;"/>
   </g>
   <g id="patch_4">
    <path d="M 693.073437 362.4915 
L 693.073437 36.3315 
" style="fill:none;stroke:#000000;stroke-linecap:square;stroke-linejoin:miter;stroke-width:0.8;"/>
   </g>
   <g id="patch_5">
    <path d="M 135.073438 362.4915 
L 693.073437 362.4915 
" style="fill:none;stroke:#000000;stroke-linecap:square;stroke-linejoin:miter;stroke-width:0.8;"/>
   </g>
   <g id="patch_6">
    <path d="M 135.073438 36.3315 
L 693.073437 36.3315 
" style="fill:none;stroke:#000000;stroke-linecap:square;stroke-linejoin:miter;stroke-width:0.8;"/>
   </g>
   <g id="PathCollection_1">
    <defs>
     <path d="M 0 1.5 
C 0.397805 1.5 0.77937 1.341951 1.06066 1.06066 
C 1.341951 0.77937 1.5 0.397805 1.5 0 
C 1.5 -0.397805 1.341951 -0.77937 1.06066 -1.06066 
C 0.77937 -1.341951 0.397805 -1.5 0 -1.5 
C -0.397805 -1.5 -0.77937 -1.341951 -1.06066 -1.06066 
C -1.341951 -0.77937 -1.5 -0.397805 -1.5 0 
C -1.5 0.397805 -1.341951 0.77937 -1.06066 1.06066 
C -0.77937 1.341951 -0.397805 1.5 0 1.5 
z
" id="m8adc07d4dd" style="stroke:#4c4c4c;"/>
    </defs>
    <g clip-path="url(#p932688f4bd)">
     <use style="fill:#ffffff;stroke:#4c4c4c;" x="270.185197" xlink:href="#m8adc07d4dd" y="77.1015"/>
    </g>
   </g>
   <g id="PathCollection_2">
    <g clip-path="url(#p932688f4bd)">
     <use style="fill:#ffffff;stroke:#4c4c4c;" x="277.5968" xlink:href="#m8adc07d4dd" y="158.6415"/>
    </g>
   </g>
   <g id="PathCollection_3">
    <g clip-path="url(#p932688f4bd)">
     <use style="fill:#ffffff;stroke:#4c4c4c;" x="280.289658" xlink:href="#m8adc07d4dd" y="240.1815"/>
    </g>
   </g>
   <g id="PathCollection_4">
    <g clip-path="url(#p932688f4bd)">
     <use style="fill:#ffffff;stroke:#4c4c4c;" x="280.399501" xlink:href="#m8adc07d4dd" y="321.7215"/>
    </g>
   </g>
   <g id="text_12">
    <!-- Distribución de: Tasa con NBI según el desempeño en lengua -->
    <defs>
     <path d="M 19.671875 64.796875 
L 19.671875 8.109375 
L 31.59375 8.109375 
Q 46.6875 8.109375 53.6875 14.9375 
Q 60.6875 21.78125 60.6875 36.53125 
Q 60.6875 51.171875 53.6875 57.984375 
Q 46.6875 64.796875 31.59375 64.796875 
z
M 9.8125 72.90625 
L 30.078125 72.90625 
Q 51.265625 72.90625 61.171875 64.09375 
Q 71.09375 55.28125 71.09375 36.53125 
Q 71.09375 17.671875 61.125 8.828125 
Q 51.171875 0 30.078125 0 
L 9.8125 0 
z
" id="DejaVuSans-68"/>
     <path d="M 30.609375 48.390625 
Q 23.390625 48.390625 19.1875 42.75 
Q 14.984375 37.109375 14.984375 27.296875 
Q 14.984375 17.484375 19.15625 11.84375 
Q 23.34375 6.203125 30.609375 6.203125 
Q 37.796875 6.203125 41.984375 11.859375 
Q 46.1875 17.53125 46.1875 27.296875 
Q 46.1875 37.015625 41.984375 42.703125 
Q 37.796875 48.390625 30.609375 48.390625 
z
M 30.609375 56 
Q 42.328125 56 49.015625 48.375 
Q 55.71875 40.765625 55.71875 27.296875 
Q 55.71875 13.875 49.015625 6.21875 
Q 42.328125 -1.421875 30.609375 -1.421875 
Q 18.84375 -1.421875 12.171875 6.21875 
Q 5.515625 13.875 5.515625 27.296875 
Q 5.515625 40.765625 12.171875 48.375 
Q 18.84375 56 30.609375 56 
z
M 37.40625 79.984375 
L 47.125 79.984375 
L 31.203125 61.625 
L 23.734375 61.625 
z
" id="DejaVuSans-243"/>
     <path d="M 11.71875 12.40625 
L 22.015625 12.40625 
L 22.015625 0 
L 11.71875 0 
z
M 11.71875 51.703125 
L 22.015625 51.703125 
L 22.015625 39.3125 
L 11.71875 39.3125 
z
" id="DejaVuSans-58"/>
     <path d="M 8.5 21.578125 
L 8.5 54.6875 
L 17.484375 54.6875 
L 17.484375 21.921875 
Q 17.484375 14.15625 20.5 10.265625 
Q 23.53125 6.390625 29.59375 6.390625 
Q 36.859375 6.390625 41.078125 11.03125 
Q 45.3125 15.671875 45.3125 23.6875 
L 45.3125 54.6875 
L 54.296875 54.6875 
L 54.296875 0 
L 45.3125 0 
L 45.3125 8.40625 
Q 42.046875 3.421875 37.71875 1 
Q 33.40625 -1.421875 27.6875 -1.421875 
Q 18.265625 -1.421875 13.375 4.4375 
Q 8.5 10.296875 8.5 21.578125 
z
M 31.109375 56 
z
M 37.796875 79.984375 
L 47.515625 79.984375 
L 31.59375 61.625 
L 24.125 61.625 
z
" id="DejaVuSans-250"/>
    </defs>
    <g transform="translate(229.490938 16.798125)scale(0.12 -0.12)">
     <use xlink:href="#DejaVuSans-68"/>
     <use x="77.001953" xlink:href="#DejaVuSans-105"/>
     <use x="104.785156" xlink:href="#DejaVuSans-115"/>
     <use x="156.884766" xlink:href="#DejaVuSans-116"/>
     <use x="196.09375" xlink:href="#DejaVuSans-114"/>
     <use x="237.207031" xlink:href="#DejaVuSans-105"/>
     <use x="264.990234" xlink:href="#DejaVuSans-98"/>
     <use x="328.466797" xlink:href="#DejaVuSans-117"/>
     <use x="391.845703" xlink:href="#DejaVuSans-99"/>
     <use x="446.826172" xlink:href="#DejaVuSans-105"/>
     <use x="474.609375" xlink:href="#DejaVuSans-243"/>
     <use x="535.791016" xlink:href="#DejaVuSans-110"/>
     <use x="599.169922" xlink:href="#DejaVuSans-32"/>
     <use x="630.957031" xlink:href="#DejaVuSans-100"/>
     <use x="694.433594" xlink:href="#DejaVuSans-101"/>
     <use x="755.957031" xlink:href="#DejaVuSans-58"/>
     <use x="789.648438" xlink:href="#DejaVuSans-32"/>
     <use x="821.435547" xlink:href="#DejaVuSans-84"/>
     <use x="882.269531" xlink:href="#DejaVuSans-97"/>
     <use x="943.548828" xlink:href="#DejaVuSans-115"/>
     <use x="995.648438" xlink:href="#DejaVuSans-97"/>
     <use x="1056.927734" xlink:href="#DejaVuSans-32"/>
     <use x="1088.714844" xlink:href="#DejaVuSans-99"/>
     <use x="1143.695312" xlink:href="#DejaVuSans-111"/>
     <use x="1204.876953" xlink:href="#DejaVuSans-110"/>
     <use x="1268.255859" xlink:href="#DejaVuSans-32"/>
     <use x="1300.042969" xlink:href="#DejaVuSans-78"/>
     <use x="1374.847656" xlink:href="#DejaVuSans-66"/>
     <use x="1443.451172" xlink:href="#DejaVuSans-73"/>
     <use x="1472.943359" xlink:href="#DejaVuSans-32"/>
     <use x="1504.730469" xlink:href="#DejaVuSans-115"/>
     <use x="1556.830078" xlink:href="#DejaVuSans-101"/>
     <use x="1618.353516" xlink:href="#DejaVuSans-103"/>
     <use x="1681.830078" xlink:href="#DejaVuSans-250"/>
     <use x="1745.208984" xlink:href="#DejaVuSans-110"/>
     <use x="1808.587891" xlink:href="#DejaVuSans-32"/>
     <use x="1840.375" xlink:href="#DejaVuSans-101"/>
     <use x="1901.898438" xlink:href="#DejaVuSans-108"/>
     <use x="1929.681641" xlink:href="#DejaVuSans-32"/>
     <use x="1961.46875" xlink:href="#DejaVuSans-100"/>
     <use x="2024.945312" xlink:href="#DejaVuSans-101"/>
     <use x="2086.46875" xlink:href="#DejaVuSans-115"/>
     <use x="2138.568359" xlink:href="#DejaVuSans-101"/>
     <use x="2200.091797" xlink:href="#DejaVuSans-109"/>
     <use x="2297.503906" xlink:href="#DejaVuSans-112"/>
     <use x="2360.980469" xlink:href="#DejaVuSans-101"/>
     <use x="2422.503906" xlink:href="#DejaVuSans-241"/>
     <use x="2485.882812" xlink:href="#DejaVuSans-111"/>
     <use x="2547.064453" xlink:href="#DejaVuSans-32"/>
     <use x="2578.851562" xlink:href="#DejaVuSans-101"/>
     <use x="2640.375" xlink:href="#DejaVuSans-110"/>
     <use x="2703.753906" xlink:href="#DejaVuSans-32"/>
     <use x="2735.541016" xlink:href="#DejaVuSans-108"/>
     <use x="2763.324219" xlink:href="#DejaVuSans-101"/>
     <use x="2824.847656" xlink:href="#DejaVuSans-110"/>
     <use x="2888.226562" xlink:href="#DejaVuSans-103"/>
     <use x="2951.703125" xlink:href="#DejaVuSans-117"/>
     <use x="3015.082031" xlink:href="#DejaVuSans-97"/>
    </g>
    <!--  Nivel: Primaria -->
    <g transform="translate(368.090937 30.2355)scale(0.12 -0.12)">
     <use xlink:href="#DejaVuSans-32"/>
     <use x="31.787109" xlink:href="#DejaVuSans-78"/>
     <use x="106.591797" xlink:href="#DejaVuSans-105"/>
     <use x="134.375" xlink:href="#DejaVuSans-118"/>
     <use x="193.554688" xlink:href="#DejaVuSans-101"/>
     <use x="255.078125" xlink:href="#DejaVuSans-108"/>
     <use x="282.861328" xlink:href="#DejaVuSans-58"/>
     <use x="316.552734" xlink:href="#DejaVuSans-32"/>
     <use x="348.339844" xlink:href="#DejaVuSans-80"/>
     <use x="408.626953" xlink:href="#DejaVuSans-114"/>
     <use x="449.740234" xlink:href="#DejaVuSans-105"/>
     <use x="477.523438" xlink:href="#DejaVuSans-109"/>
     <use x="574.935547" xlink:href="#DejaVuSans-97"/>
     <use x="636.214844" xlink:href="#DejaVuSans-114"/>
     <use x="677.328125" xlink:href="#DejaVuSans-105"/>
     <use x="705.111328" xlink:href="#DejaVuSans-97"/>
    </g>
   </g>
  </g>
 </g>
 <defs>
  <clipPath id="p932688f4bd">
   <rect height="326.16" width="558" x="135.073438" y="36.3315"/>
  </clipPath>
 </defs>
</svg>
