<?xml version="1.0" encoding="utf-8" standalone="no"?>
<!DOCTYPE svg PUBLIC "-//W3C//DTD SVG 1.1//EN"
  "http://www.w3.org/Graphics/SVG/1.1/DTD/svg11.dtd">
<!-- Created with matplotlib (https://matplotlib.org/) -->
<svg height="400.04775pt" version="1.1" viewBox="0 0 703.773437 400.04775" width="703.773437pt" xmlns="http://www.w3.org/2000/svg" xmlns:xlink="http://www.w3.org/1999/xlink">
 <defs>
  <style type="text/css">
*{stroke-linecap:butt;stroke-linejoin:round;}
  </style>
 </defs>
 <g id="figure_1">
  <g id="patch_1">
   <path d="M 0 400.04775 
L 703.773437 400.04775 
L 703.773437 0 
L 0 0 
z
" style="fill:#ffffff;"/>
  </g>
  <g id="axes_1">
   <g id="patch_2">
    <path d="M 135.073438 362.4915 
L 693.073437 362.4915 
L 693.073437 36.3315 
L 135.073438 36.3315 
z
" style="fill:#ffffff;"/>
   </g>
   <g id="PolyCollection_1">
    <defs>
     <path d="M 182.398962 -322.373813 
L 182.398962 -323.518687 
L 187.079255 -325.923801 
L 191.759547 -331.136492 
L 196.43984 -335.557433 
L 201.120132 -335.221221 
L 205.800424 -334.936396 
L 210.480717 -341.294779 
L 215.161009 -348.653918 
L 219.841302 -350.993817 
L 224.521594 -351.880897 
L 229.201887 -351.158401 
L 233.882179 -350.224929 
L 238.562471 -353.174736 
L 243.242764 -354.660327 
L 247.923056 -350.607111 
L 252.603349 -341.796883 
L 257.283641 -332.879635 
L 261.963934 -331.650485 
L 266.644226 -337.707473 
L 271.324518 -345.19643 
L 276.004811 -348.55282 
L 280.685103 -345.042037 
L 285.365396 -337.98719 
L 290.045688 -334.267728 
L 294.725981 -335.191785 
L 299.406273 -338.340026 
L 304.086565 -344.002167 
L 308.766858 -349.407147 
L 313.44715 -347.886666 
L 318.127443 -342.004075 
L 322.807735 -337.537386 
L 327.488028 -332.365091 
L 332.16832 -328.427409 
L 336.848612 -327.891321 
L 341.528905 -328.98189 
L 346.209197 -329.862507 
L 350.88949 -329.328631 
L 355.569782 -328.391046 
L 360.250075 -327.737873 
L 364.930367 -327.369956 
L 369.610659 -327.11107 
L 374.290952 -325.73503 
L 378.971244 -324.129295 
L 383.651537 -323.562119 
L 388.331829 -323.670825 
L 393.012122 -324.067263 
L 397.692414 -324.614877 
L 402.372706 -324.931593 
L 407.052999 -324.6546 
L 411.733291 -323.949364 
L 416.413584 -323.456529 
L 421.093876 -323.295543 
L 425.774169 -323.172248 
L 430.454461 -323.157922 
L 435.134753 -323.410205 
L 439.815046 -323.716372 
L 444.495338 -323.797776 
L 449.175631 -323.600253 
L 453.855923 -323.281914 
L 458.536216 -323.088206 
L 463.216508 -323.125658 
L 467.8968 -323.556851 
L 472.577093 -324.278038 
L 477.257385 -324.509527 
L 481.937678 -324.132802 
L 486.61797 -323.767718 
L 491.298263 -323.552657 
L 495.978555 -323.504633 
L 500.658847 -323.410655 
L 505.33914 -323.172135 
L 510.019432 -323.027967 
L 514.699725 -323.123814 
L 519.380017 -323.470985 
L 524.06031 -323.789652 
L 528.740602 -323.819656 
L 533.420894 -323.636324 
L 538.101187 -323.304009 
L 542.781479 -323.04457 
L 547.461772 -322.959349 
L 552.142064 -322.947075 
L 556.822357 -322.946275 
L 561.502649 -322.946273 
L 566.182941 -322.947117 
L 570.863234 -322.961911 
L 575.543526 -323.078933 
L 580.223819 -323.473742 
L 584.904111 -323.930336 
L 589.584404 -323.80777 
L 594.264696 -323.300177 
L 598.944988 -323.01448 
L 603.625281 -322.952422 
L 608.305573 -322.946513 
L 612.985866 -322.946294 
L 617.666158 -322.947188 
L 622.346451 -322.956815 
L 627.026743 -323.002093 
L 631.707035 -323.084763 
L 636.387328 -323.107476 
L 641.06762 -323.034313 
L 645.747913 -322.968822 
L 645.747913 -322.923678 
L 645.747913 -322.923678 
L 641.06762 -322.858187 
L 636.387328 -322.785024 
L 631.707035 -322.807737 
L 627.026743 -322.890407 
L 622.346451 -322.935685 
L 617.666158 -322.945312 
L 612.985866 -322.946206 
L 608.305573 -322.945987 
L 603.625281 -322.940078 
L 598.944988 -322.87802 
L 594.264696 -322.592323 
L 589.584404 -322.08473 
L 584.904111 -321.962164 
L 580.223819 -322.418758 
L 575.543526 -322.813567 
L 570.863234 -322.930589 
L 566.182941 -322.945383 
L 561.502649 -322.946227 
L 556.822357 -322.946225 
L 552.142064 -322.945425 
L 547.461772 -322.933151 
L 542.781479 -322.84793 
L 538.101187 -322.588491 
L 533.420894 -322.256176 
L 528.740602 -322.072844 
L 524.06031 -322.102848 
L 519.380017 -322.421515 
L 514.699725 -322.768686 
L 510.019432 -322.864533 
L 505.33914 -322.720365 
L 500.658847 -322.481845 
L 495.978555 -322.387867 
L 491.298263 -322.339843 
L 486.61797 -322.124782 
L 481.937678 -321.759698 
L 477.257385 -321.382973 
L 472.577093 -321.614462 
L 467.8968 -322.335649 
L 463.216508 -322.766842 
L 458.536216 -322.804294 
L 453.855923 -322.610586 
L 449.175631 -322.292247 
L 444.495338 -322.094724 
L 439.815046 -322.176128 
L 435.134753 -322.482295 
L 430.454461 -322.734578 
L 425.774169 -322.720252 
L 421.093876 -322.596957 
L 416.413584 -322.435971 
L 411.733291 -321.943136 
L 407.052999 -321.2379 
L 402.372706 -320.960907 
L 397.692414 -321.277623 
L 393.012122 -321.825237 
L 388.331829 -322.221675 
L 383.651537 -322.330381 
L 378.971244 -321.763205 
L 374.290952 -320.15747 
L 369.610659 -318.78143 
L 364.930367 -318.522544 
L 360.250075 -318.154627 
L 355.569782 -317.501454 
L 350.88949 -316.563869 
L 346.209197 -316.029993 
L 341.528905 -316.91061 
L 336.848612 -318.001179 
L 332.16832 -317.465091 
L 327.488028 -313.527409 
L 322.807735 -308.355114 
L 318.127443 -303.888425 
L 313.44715 -298.005834 
L 308.766858 -296.485353 
L 304.086565 -301.890333 
L 299.406273 -307.552474 
L 294.725981 -310.700715 
L 290.045688 -311.624772 
L 285.365396 -307.90531 
L 280.685103 -300.850463 
L 276.004811 -297.33968 
L 271.324518 -300.69607 
L 266.644226 -308.185027 
L 261.963934 -314.242015 
L 257.283641 -313.012865 
L 252.603349 -304.095617 
L 247.923056 -295.285389 
L 243.242764 -291.232173 
L 238.562471 -292.717764 
L 233.882179 -295.667571 
L 229.201887 -294.734099 
L 224.521594 -294.011603 
L 219.841302 -294.898683 
L 215.161009 -297.238582 
L 210.480717 -304.597721 
L 205.800424 -310.956104 
L 201.120132 -310.671279 
L 196.43984 -310.335067 
L 191.759547 -314.756008 
L 187.079255 -319.968699 
L 182.398962 -322.373813 
z
" id="m101c97506f" style="stroke:#4c4c4c;stroke-width:1.5;"/>
    </defs>
    <g clip-path="url(#p2ed20ce70a)">
     <use style="fill:#df9c20;stroke:#4c4c4c;stroke-width:1.5;" x="0" xlink:href="#m101c97506f" y="400.04775"/>
    </g>
   </g>
   <g id="PolyCollection_2">
    <defs>
     <path d="M 184.376796 -241.039431 
L 184.376796 -241.773069 
L 189.017132 -243.746534 
L 193.657468 -247.484742 
L 198.297804 -248.881601 
L 202.93814 -247.237987 
L 207.578477 -249.676716 
L 212.218813 -258.993783 
L 216.859149 -263.546329 
L 221.499485 -264.34106 
L 226.139821 -266.910081 
L 230.780158 -264.677352 
L 235.420494 -265.057103 
L 240.06083 -273.224284 
L 244.701166 -273.304035 
L 249.341502 -267.975651 
L 253.981839 -256.50477 
L 258.622175 -248.004444 
L 263.262511 -250.454938 
L 267.902847 -257.111966 
L 272.543183 -265.398922 
L 277.18352 -271.113612 
L 281.823856 -266.333065 
L 286.464192 -256.670955 
L 291.104528 -254.000217 
L 295.744864 -256.684331 
L 300.385201 -260.982125 
L 305.025537 -268.488891 
L 309.665873 -274.02225 
L 314.306209 -267.554511 
L 318.946545 -260.227188 
L 323.586882 -258.228622 
L 328.227218 -250.636186 
L 332.867554 -246.039554 
L 337.50789 -246.815328 
L 342.148226 -249.275788 
L 346.788563 -250.54612 
L 351.428899 -248.583259 
L 356.069235 -247.259946 
L 360.709571 -246.797316 
L 365.349907 -247.467943 
L 369.990244 -249.119909 
L 374.63058 -246.14538 
L 379.270916 -242.70433 
L 383.911252 -242.135429 
L 388.551588 -242.487301 
L 393.191925 -243.246912 
L 397.832261 -244.007188 
L 402.472597 -243.903071 
L 407.112933 -243.183781 
L 411.753269 -242.22922 
L 416.393606 -241.861282 
L 421.033942 -241.915269 
L 425.674278 -241.696721 
L 430.314614 -241.604412 
L 434.95495 -242.117839 
L 439.595287 -242.622683 
L 444.235623 -242.384454 
L 448.875959 -241.982029 
L 453.516295 -241.66612 
L 458.156631 -241.514024 
L 462.796968 -241.489474 
L 467.437304 -241.862522 
L 472.07764 -242.992467 
L 476.717976 -243.4961 
L 481.358312 -242.725941 
L 485.998649 -242.278771 
L 490.638985 -242.022075 
L 495.279321 -242.159049 
L 499.919657 -242.177699 
L 504.559993 -241.72611 
L 509.20033 -241.461852 
L 513.840666 -241.535249 
L 518.481002 -242.19015 
L 523.121338 -243.040389 
L 527.761674 -242.757561 
L 532.402011 -242.203785 
L 537.042347 -241.774055 
L 541.682683 -241.477688 
L 546.323019 -241.410956 
L 550.963355 -241.406352 
L 555.603692 -241.406251 
L 560.244028 -241.40625 
L 564.884364 -241.406255 
L 569.5247 -241.40672 
L 574.165036 -241.421907 
L 578.805373 -241.577204 
L 583.445709 -242.017486 
L 588.086045 -242.121903 
L 592.726381 -241.680635 
L 597.366717 -241.440699 
L 602.007054 -241.407666 
L 606.64739 -241.406269 
L 611.287726 -241.40625 
L 615.928062 -241.406275 
L 620.568398 -241.407647 
L 625.208735 -241.431915 
L 629.849071 -241.560604 
L 634.489407 -241.710247 
L 639.129743 -241.602307 
L 643.770079 -241.447656 
L 643.770079 -241.364844 
L 643.770079 -241.364844 
L 639.129743 -241.210193 
L 634.489407 -241.102253 
L 629.849071 -241.251896 
L 625.208735 -241.380585 
L 620.568398 -241.404853 
L 615.928062 -241.406225 
L 611.287726 -241.40625 
L 606.64739 -241.406231 
L 602.007054 -241.404834 
L 597.366717 -241.371801 
L 592.726381 -241.131865 
L 588.086045 -240.690597 
L 583.445709 -240.795014 
L 578.805373 -241.235296 
L 574.165036 -241.390593 
L 569.5247 -241.40578 
L 564.884364 -241.406245 
L 560.244028 -241.40625 
L 555.603692 -241.406249 
L 550.963355 -241.406148 
L 546.323019 -241.401544 
L 541.682683 -241.334812 
L 537.042347 -241.038445 
L 532.402011 -240.608715 
L 527.761674 -240.054939 
L 523.121338 -239.772111 
L 518.481002 -240.62235 
L 513.840666 -241.277251 
L 509.20033 -241.350648 
L 504.559993 -241.08639 
L 499.919657 -240.634801 
L 495.279321 -240.653451 
L 490.638985 -240.790425 
L 485.998649 -240.533729 
L 481.358312 -240.086559 
L 476.717976 -239.3164 
L 472.07764 -239.820033 
L 467.437304 -240.949978 
L 462.796968 -241.323026 
L 458.156631 -241.298476 
L 453.516295 -241.14638 
L 448.875959 -240.830471 
L 444.235623 -240.428046 
L 439.595287 -240.189817 
L 434.95495 -240.694661 
L 430.314614 -241.208088 
L 425.674278 -241.115779 
L 421.033942 -240.897231 
L 416.393606 -240.951218 
L 411.753269 -240.58328 
L 407.112933 -239.628719 
L 402.472597 -238.909429 
L 397.832261 -238.805312 
L 393.191925 -239.565588 
L 388.551588 -240.325199 
L 383.911252 -240.677071 
L 379.270916 -240.10817 
L 374.63058 -236.66712 
L 369.990244 -233.692591 
L 365.349907 -235.344557 
L 360.709571 -236.015184 
L 356.069235 -235.552554 
L 351.428899 -234.229241 
L 346.788563 -232.26638 
L 342.148226 -233.536712 
L 337.50789 -235.997172 
L 332.867554 -236.772946 
L 328.227218 -232.176314 
L 323.586882 -224.583878 
L 318.946545 -222.585312 
L 314.306209 -215.257989 
L 309.665873 -208.79025 
L 305.025537 -214.323609 
L 300.385201 -221.830375 
L 295.744864 -226.128169 
L 291.104528 -228.812283 
L 286.464192 -226.141545 
L 281.823856 -216.479435 
L 277.18352 -211.698888 
L 272.543183 -217.413578 
L 267.902847 -225.700534 
L 263.262511 -232.357562 
L 258.622175 -234.808056 
L 253.981839 -226.30773 
L 249.341502 -214.836849 
L 244.701166 -209.508465 
L 240.06083 -209.588216 
L 235.420494 -217.755397 
L 230.780158 -218.135148 
L 226.139821 -215.902419 
L 221.499485 -218.47144 
L 216.859149 -219.266171 
L 212.218813 -223.818717 
L 207.578477 -233.135784 
L 202.93814 -235.574513 
L 198.297804 -233.930899 
L 193.657468 -235.327758 
L 189.017132 -239.065966 
L 184.376796 -241.039431 
z
" id="meb9697d859" style="stroke:#4c4c4c;stroke-width:1.5;"/>
    </defs>
    <g clip-path="url(#p2ed20ce70a)">
     <use style="fill:#df9c20;stroke:#4c4c4c;stroke-width:1.5;" x="0" xlink:href="#meb9697d859" y="400.04775"/>
    </g>
   </g>
   <g id="PolyCollection_3">
    <defs>
     <path d="M 182.572881 -159.638708 
L 182.572881 -160.093792 
L 187.24966 -160.979605 
L 191.926439 -162.658206 
L 196.603218 -163.747976 
L 201.279997 -163.769961 
L 205.956776 -165.761384 
L 210.633555 -171.80337 
L 215.310334 -177.488983 
L 219.987113 -180.548284 
L 224.663892 -183.492284 
L 229.34067 -183.838086 
L 234.017449 -183.368046 
L 238.694228 -187.15038 
L 243.371007 -189.282408 
L 248.047786 -185.590407 
L 252.724565 -177.490832 
L 257.401344 -169.904946 
L 262.078123 -169.415754 
L 266.754902 -174.034089 
L 271.431681 -180.544045 
L 276.10846 -186.249491 
L 280.785239 -185.615744 
L 285.462017 -179.020959 
L 290.138796 -174.490032 
L 294.815575 -175.532083 
L 299.492354 -180.01587 
L 304.169133 -186.05853 
L 308.845912 -189.26607 
L 313.522691 -185.305881 
L 318.19947 -179.584091 
L 322.876249 -176.751715 
L 327.553028 -171.687197 
L 332.229807 -166.744261 
L 336.906585 -166.261852 
L 341.583364 -168.273189 
L 346.260143 -169.384015 
L 350.936922 -168.199473 
L 355.613701 -166.793041 
L 360.29048 -166.56135 
L 364.967259 -167.77475 
L 369.644038 -168.894727 
L 374.320817 -166.301028 
L 378.997596 -162.440858 
L 383.674375 -160.974236 
L 388.351153 -161.328269 
L 393.027932 -162.422662 
L 397.704711 -163.137059 
L 402.38149 -162.710946 
L 407.058269 -161.74576 
L 411.735048 -160.918335 
L 416.411827 -160.65651 
L 421.088606 -160.671328 
L 425.765385 -160.425877 
L 430.442164 -160.348346 
L 435.118943 -160.870183 
L 439.795722 -161.368688 
L 444.4725 -161.240005 
L 449.149279 -160.751256 
L 453.826058 -160.277036 
L 458.502837 -160.029255 
L 463.179616 -160.072335 
L 467.856395 -160.635078 
L 472.533174 -161.625787 
L 477.209953 -161.928654 
L 481.886732 -161.343936 
L 486.563511 -160.862859 
L 491.24029 -160.784078 
L 495.917068 -161.017855 
L 500.593847 -160.944273 
L 505.270626 -160.409791 
L 509.947405 -160.068157 
L 514.624184 -160.320699 
L 519.300963 -161.232363 
L 523.977742 -161.902232 
L 528.654521 -161.480592 
L 533.3313 -160.734973 
L 538.008079 -160.221767 
L 542.684858 -159.954804 
L 547.361636 -159.877292 
L 552.038415 -159.866895 
L 556.715194 -159.866267 
L 561.391973 -159.866263 
L 566.068752 -159.8668 
L 570.745531 -159.877368 
L 575.42231 -159.969215 
L 580.099089 -160.303163 
L 584.775868 -160.715704 
L 589.452647 -160.622953 
L 594.129426 -160.175103 
L 598.806205 -159.924009 
L 603.482983 -159.871199 
L 608.159762 -159.866445 
L 612.836541 -159.866309 
L 617.51332 -159.86776 
L 622.190099 -159.885125 
L 626.866878 -159.974356 
L 631.543657 -160.149945 
L 636.220436 -160.20736 
L 640.897215 -160.054173 
L 645.573994 -159.913686 
L 645.573994 -159.818814 
L 645.573994 -159.818814 
L 640.897215 -159.678327 
L 636.220436 -159.52514 
L 631.543657 -159.582555 
L 626.866878 -159.758144 
L 622.190099 -159.847375 
L 617.51332 -159.86474 
L 612.836541 -159.866191 
L 608.159762 -159.866055 
L 603.482983 -159.861301 
L 598.806205 -159.808491 
L 594.129426 -159.557397 
L 589.452647 -159.109547 
L 584.775868 -159.016796 
L 580.099089 -159.429337 
L 575.42231 -159.763285 
L 570.745531 -159.855132 
L 566.068752 -159.8657 
L 561.391973 -159.866237 
L 556.715194 -159.866233 
L 552.038415 -159.865605 
L 547.361636 -159.855208 
L 542.684858 -159.777696 
L 538.008079 -159.510733 
L 533.3313 -158.997527 
L 528.654521 -158.251908 
L 523.977742 -157.830268 
L 519.300963 -158.500137 
L 514.624184 -159.411801 
L 509.947405 -159.664343 
L 505.270626 -159.322709 
L 500.593847 -158.788227 
L 495.917068 -158.714645 
L 491.24029 -158.948422 
L 486.563511 -158.869641 
L 481.886732 -158.388564 
L 477.209953 -157.803846 
L 472.533174 -158.106713 
L 467.856395 -159.097422 
L 463.179616 -159.660165 
L 458.502837 -159.703245 
L 453.826058 -159.455464 
L 449.149279 -158.981244 
L 444.4725 -158.492495 
L 439.795722 -158.363812 
L 435.118943 -158.862317 
L 430.442164 -159.384154 
L 425.765385 -159.306623 
L 421.088606 -159.061172 
L 416.411827 -159.07599 
L 411.735048 -158.814165 
L 407.058269 -157.98674 
L 402.38149 -157.021554 
L 397.704711 -156.595441 
L 393.027932 -157.309838 
L 388.351153 -158.404231 
L 383.674375 -158.758264 
L 378.997596 -157.291642 
L 374.320817 -153.431472 
L 369.644038 -150.837773 
L 364.967259 -151.95775 
L 360.29048 -153.17115 
L 355.613701 -152.939459 
L 350.936922 -151.533027 
L 346.260143 -150.348485 
L 341.583364 -151.459311 
L 336.906585 -153.470648 
L 332.229807 -152.988239 
L 327.553028 -148.045303 
L 322.876249 -142.980785 
L 318.19947 -140.148409 
L 313.522691 -134.426619 
L 308.845912 -130.46643 
L 304.169133 -133.67397 
L 299.492354 -139.71663 
L 294.815575 -144.200417 
L 290.138796 -145.242468 
L 285.462017 -140.711541 
L 280.785239 -134.116756 
L 276.10846 -133.483009 
L 271.431681 -139.188455 
L 266.754902 -145.698411 
L 262.078123 -150.316746 
L 257.401344 -149.827554 
L 252.724565 -142.241668 
L 248.047786 -134.142093 
L 243.371007 -130.450092 
L 238.694228 -132.58212 
L 234.017449 -136.364454 
L 229.34067 -135.894414 
L 224.663892 -136.240216 
L 219.987113 -139.184216 
L 215.310334 -142.243517 
L 210.633555 -147.92913 
L 205.956776 -153.971116 
L 201.279997 -155.962539 
L 196.603218 -155.984524 
L 191.926439 -157.074294 
L 187.24966 -158.752895 
L 182.572881 -159.638708 
z
" id="m91897420f5" style="stroke:#4c4c4c;stroke-width:1.5;"/>
    </defs>
    <g clip-path="url(#p2ed20ce70a)">
     <use style="fill:#df9c20;stroke:#4c4c4c;stroke-width:1.5;" x="0" xlink:href="#m91897420f5" y="400.04775"/>
    </g>
   </g>
   <g id="PolyCollection_4">
    <defs>
     <path d="M 181.211218 -78.219271 
L 181.211218 -78.433229 
L 185.915505 -78.77884 
L 190.619793 -79.449882 
L 195.32408 -80.103278 
L 200.028367 -80.70671 
L 204.732654 -82.77761 
L 209.436942 -87.853615 
L 214.141229 -93.905519 
L 218.845516 -97.949986 
L 223.549803 -100.308485 
L 228.254091 -101.015888 
L 232.958378 -100.796197 
L 237.662665 -102.389693 
L 242.366953 -104.018627 
L 247.07124 -101.918629 
L 251.775527 -95.980543 
L 256.479814 -89.656595 
L 261.184102 -87.954455 
L 265.888389 -91.460552 
L 270.592676 -97.369303 
L 275.296963 -102.320311 
L 280.001251 -102.483918 
L 284.705538 -98.185515 
L 289.409825 -95.0212 
L 294.114112 -96.487547 
L 298.8184 -101.203337 
L 303.522687 -106.473831 
L 308.226974 -108.265628 
L 312.931261 -103.960623 
L 317.635549 -97.818811 
L 322.339836 -94.135503 
L 327.044123 -90.404512 
L 331.74841 -86.462615 
L 336.452698 -85.475278 
L 341.156985 -87.035984 
L 345.861272 -88.30856 
L 350.565559 -87.891769 
L 355.269847 -87.017873 
L 359.974134 -86.994026 
L 364.678421 -87.938126 
L 369.382709 -88.261118 
L 374.086996 -85.644688 
L 378.791283 -81.788587 
L 383.49557 -79.806313 
L 388.199858 -79.810467 
L 392.904145 -80.658741 
L 397.608432 -81.331193 
L 402.312719 -81.216798 
L 407.017007 -80.521178 
L 411.721294 -79.887571 
L 416.425581 -79.805613 
L 421.129868 -79.858864 
L 425.834156 -79.474393 
L 430.538443 -79.195135 
L 435.24273 -79.543436 
L 439.947017 -79.954897 
L 444.651305 -79.825282 
L 449.355592 -79.303809 
L 454.059879 -78.788809 
L 458.764166 -78.528448 
L 463.468454 -78.620242 
L 468.172741 -79.149215 
L 472.877028 -79.863471 
L 477.581316 -80.085631 
L 482.285603 -79.743763 
L 486.98989 -79.386113 
L 491.694177 -79.349042 
L 496.398465 -79.527299 
L 501.102752 -79.403908 
L 505.807039 -78.931758 
L 510.511326 -78.656848 
L 515.215614 -78.959431 
L 519.919901 -79.717557 
L 524.624188 -80.183933 
L 529.328475 -79.913039 
L 534.032763 -79.313159 
L 538.73705 -78.777753 
L 543.441337 -78.460073 
L 548.145624 -78.34926 
L 552.849912 -78.328434 
L 557.554199 -78.326373 
L 562.258486 -78.32662 
L 566.962773 -78.332749 
L 571.667061 -78.388183 
L 576.371348 -78.643764 
L 581.075635 -79.201943 
L 585.779922 -79.6255 
L 590.48421 -79.363264 
L 595.188497 -78.771525 
L 599.892784 -78.429104 
L 604.597072 -78.339032 
L 609.301359 -78.327134 
L 614.005646 -78.326914 
L 618.709933 -78.333626 
L 623.414221 -78.372459 
L 628.118508 -78.482003 
L 632.822795 -78.60867 
L 637.527082 -78.601741 
L 642.23137 -78.470818 
L 646.935657 -78.367062 
L 646.935657 -78.285438 
L 646.935657 -78.285438 
L 642.23137 -78.181682 
L 637.527082 -78.050759 
L 632.822795 -78.04383 
L 628.118508 -78.170497 
L 623.414221 -78.280041 
L 618.709933 -78.318874 
L 614.005646 -78.325586 
L 609.301359 -78.325366 
L 604.597072 -78.313468 
L 599.892784 -78.223396 
L 595.188497 -77.880975 
L 590.48421 -77.289236 
L 585.779922 -77.027 
L 581.075635 -77.450557 
L 576.371348 -78.008736 
L 571.667061 -78.264317 
L 566.962773 -78.319751 
L 562.258486 -78.32588 
L 557.554199 -78.326127 
L 552.849912 -78.324066 
L 548.145624 -78.30324 
L 543.441337 -78.192427 
L 538.73705 -77.874747 
L 534.032763 -77.339341 
L 529.328475 -76.739461 
L 524.624188 -76.468567 
L 519.919901 -76.934943 
L 515.215614 -77.693069 
L 510.511326 -77.995652 
L 505.807039 -77.720742 
L 501.102752 -77.248592 
L 496.398465 -77.125201 
L 491.694177 -77.303458 
L 486.98989 -77.266387 
L 482.285603 -76.908737 
L 477.581316 -76.566869 
L 472.877028 -76.789029 
L 468.172741 -77.503285 
L 463.468454 -78.032258 
L 458.764166 -78.124052 
L 454.059879 -77.863691 
L 449.355592 -77.348691 
L 444.651305 -76.827218 
L 439.947017 -76.697603 
L 435.24273 -77.109064 
L 430.538443 -77.457365 
L 425.834156 -77.178107 
L 421.129868 -76.793636 
L 416.425581 -76.846887 
L 411.721294 -76.764929 
L 407.017007 -76.131322 
L 402.312719 -75.435702 
L 397.608432 -75.321307 
L 392.904145 -75.993759 
L 388.199858 -76.842033 
L 383.49557 -76.846187 
L 378.791283 -74.863913 
L 374.086996 -71.007812 
L 369.382709 -68.391382 
L 364.678421 -68.714374 
L 359.974134 -69.658474 
L 355.269847 -69.634627 
L 350.565559 -68.760731 
L 345.861272 -68.34394 
L 341.156985 -69.616516 
L 336.452698 -71.177222 
L 331.74841 -70.189885 
L 327.044123 -66.247988 
L 322.339836 -62.516997 
L 317.635549 -58.833689 
L 312.931261 -52.691877 
L 308.226974 -48.386872 
L 303.522687 -50.178669 
L 298.8184 -55.449163 
L 294.114112 -60.164953 
L 289.409825 -61.6313 
L 284.705538 -58.466985 
L 280.001251 -54.168582 
L 275.296963 -54.332189 
L 270.592676 -59.283197 
L 265.888389 -65.191948 
L 261.184102 -68.698045 
L 256.479814 -66.995905 
L 251.775527 -60.671957 
L 247.07124 -54.733871 
L 242.366953 -52.633873 
L 237.662665 -54.262807 
L 232.958378 -55.856303 
L 228.254091 -55.636612 
L 223.549803 -56.344015 
L 218.845516 -58.702514 
L 214.141229 -62.746981 
L 209.436942 -68.798885 
L 204.732654 -73.87489 
L 200.028367 -75.94579 
L 195.32408 -76.549222 
L 190.619793 -77.202618 
L 185.915505 -77.87366 
L 181.211218 -78.219271 
z
" id="mc70f1923cf" style="stroke:#4c4c4c;stroke-width:1.5;"/>
    </defs>
    <g clip-path="url(#p2ed20ce70a)">
     <use style="fill:#df9c20;stroke:#4c4c4c;stroke-width:1.5;" x="0" xlink:href="#mc70f1923cf" y="400.04775"/>
    </g>
   </g>
   <g id="matplotlib.axis_1">
    <g id="xtick_1">
     <g id="line2d_1">
      <defs>
       <path d="M 0 0 
L 0 3.5 
" id="m0bd79ca7ba" style="stroke:#000000;stroke-width:0.8;"/>
      </defs>
      <g>
       <use style="stroke:#000000;stroke-width:0.8;" x="173.415274" xlink:href="#m0bd79ca7ba" y="362.4915"/>
      </g>
     </g>
     <g id="text_1">
      <!-- 0.0 -->
      <defs>
       <path d="M 31.78125 66.40625 
Q 24.171875 66.40625 20.328125 58.90625 
Q 16.5 51.421875 16.5 36.375 
Q 16.5 21.390625 20.328125 13.890625 
Q 24.171875 6.390625 31.78125 6.390625 
Q 39.453125 6.390625 43.28125 13.890625 
Q 47.125 21.390625 47.125 36.375 
Q 47.125 51.421875 43.28125 58.90625 
Q 39.453125 66.40625 31.78125 66.40625 
z
M 31.78125 74.21875 
Q 44.046875 74.21875 50.515625 64.515625 
Q 56.984375 54.828125 56.984375 36.375 
Q 56.984375 17.96875 50.515625 8.265625 
Q 44.046875 -1.421875 31.78125 -1.421875 
Q 19.53125 -1.421875 13.0625 8.265625 
Q 6.59375 17.96875 6.59375 36.375 
Q 6.59375 54.828125 13.0625 64.515625 
Q 19.53125 74.21875 31.78125 74.21875 
z
" id="DejaVuSans-48"/>
       <path d="M 10.6875 12.40625 
L 21 12.40625 
L 21 0 
L 10.6875 0 
z
" id="DejaVuSans-46"/>
      </defs>
      <g transform="translate(165.463711 377.089938)scale(0.1 -0.1)">
       <use xlink:href="#DejaVuSans-48"/>
       <use x="63.623047" xlink:href="#DejaVuSans-46"/>
       <use x="95.410156" xlink:href="#DejaVuSans-48"/>
      </g>
     </g>
    </g>
    <g id="xtick_2">
     <g id="line2d_2">
      <g>
       <use style="stroke:#000000;stroke-width:0.8;" x="289.589256" xlink:href="#m0bd79ca7ba" y="362.4915"/>
      </g>
     </g>
     <g id="text_2">
      <!-- 0.1 -->
      <defs>
       <path d="M 12.40625 8.296875 
L 28.515625 8.296875 
L 28.515625 63.921875 
L 10.984375 60.40625 
L 10.984375 69.390625 
L 28.421875 72.90625 
L 38.28125 72.90625 
L 38.28125 8.296875 
L 54.390625 8.296875 
L 54.390625 0 
L 12.40625 0 
z
" id="DejaVuSans-49"/>
      </defs>
      <g transform="translate(281.637694 377.089938)scale(0.1 -0.1)">
       <use xlink:href="#DejaVuSans-48"/>
       <use x="63.623047" xlink:href="#DejaVuSans-46"/>
       <use x="95.410156" xlink:href="#DejaVuSans-49"/>
      </g>
     </g>
    </g>
    <g id="xtick_3">
     <g id="line2d_3">
      <g>
       <use style="stroke:#000000;stroke-width:0.8;" x="405.763238" xlink:href="#m0bd79ca7ba" y="362.4915"/>
      </g>
     </g>
     <g id="text_3">
      <!-- 0.2 -->
      <defs>
       <path d="M 19.1875 8.296875 
L 53.609375 8.296875 
L 53.609375 0 
L 7.328125 0 
L 7.328125 8.296875 
Q 12.9375 14.109375 22.625 23.890625 
Q 32.328125 33.6875 34.8125 36.53125 
Q 39.546875 41.84375 41.421875 45.53125 
Q 43.3125 49.21875 43.3125 52.78125 
Q 43.3125 58.59375 39.234375 62.25 
Q 35.15625 65.921875 28.609375 65.921875 
Q 23.96875 65.921875 18.8125 64.3125 
Q 13.671875 62.703125 7.8125 59.421875 
L 7.8125 69.390625 
Q 13.765625 71.78125 18.9375 73 
Q 24.125 74.21875 28.421875 74.21875 
Q 39.75 74.21875 46.484375 68.546875 
Q 53.21875 62.890625 53.21875 53.421875 
Q 53.21875 48.921875 51.53125 44.890625 
Q 49.859375 40.875 45.40625 35.40625 
Q 44.1875 33.984375 37.640625 27.21875 
Q 31.109375 20.453125 19.1875 8.296875 
z
" id="DejaVuSans-50"/>
      </defs>
      <g transform="translate(397.811676 377.089938)scale(0.1 -0.1)">
       <use xlink:href="#DejaVuSans-48"/>
       <use x="63.623047" xlink:href="#DejaVuSans-46"/>
       <use x="95.410156" xlink:href="#DejaVuSans-50"/>
      </g>
     </g>
    </g>
    <g id="xtick_4">
     <g id="line2d_4">
      <g>
       <use style="stroke:#000000;stroke-width:0.8;" x="521.937221" xlink:href="#m0bd79ca7ba" y="362.4915"/>
      </g>
     </g>
     <g id="text_4">
      <!-- 0.3 -->
      <defs>
       <path d="M 40.578125 39.3125 
Q 47.65625 37.796875 51.625 33 
Q 55.609375 28.21875 55.609375 21.1875 
Q 55.609375 10.40625 48.1875 4.484375 
Q 40.765625 -1.421875 27.09375 -1.421875 
Q 22.515625 -1.421875 17.65625 -0.515625 
Q 12.796875 0.390625 7.625 2.203125 
L 7.625 11.71875 
Q 11.71875 9.328125 16.59375 8.109375 
Q 21.484375 6.890625 26.8125 6.890625 
Q 36.078125 6.890625 40.9375 10.546875 
Q 45.796875 14.203125 45.796875 21.1875 
Q 45.796875 27.640625 41.28125 31.265625 
Q 36.765625 34.90625 28.71875 34.90625 
L 20.21875 34.90625 
L 20.21875 43.015625 
L 29.109375 43.015625 
Q 36.375 43.015625 40.234375 45.921875 
Q 44.09375 48.828125 44.09375 54.296875 
Q 44.09375 59.90625 40.109375 62.90625 
Q 36.140625 65.921875 28.71875 65.921875 
Q 24.65625 65.921875 20.015625 65.03125 
Q 15.375 64.15625 9.8125 62.3125 
L 9.8125 71.09375 
Q 15.4375 72.65625 20.34375 73.4375 
Q 25.25 74.21875 29.59375 74.21875 
Q 40.828125 74.21875 47.359375 69.109375 
Q 53.90625 64.015625 53.90625 55.328125 
Q 53.90625 49.265625 50.4375 45.09375 
Q 46.96875 40.921875 40.578125 39.3125 
z
" id="DejaVuSans-51"/>
      </defs>
      <g transform="translate(513.985658 377.089938)scale(0.1 -0.1)">
       <use xlink:href="#DejaVuSans-48"/>
       <use x="63.623047" xlink:href="#DejaVuSans-46"/>
       <use x="95.410156" xlink:href="#DejaVuSans-51"/>
      </g>
     </g>
    </g>
    <g id="xtick_5">
     <g id="line2d_5">
      <g>
       <use style="stroke:#000000;stroke-width:0.8;" x="638.111203" xlink:href="#m0bd79ca7ba" y="362.4915"/>
      </g>
     </g>
     <g id="text_5">
      <!-- 0.4 -->
      <defs>
       <path d="M 37.796875 64.3125 
L 12.890625 25.390625 
L 37.796875 25.390625 
z
M 35.203125 72.90625 
L 47.609375 72.90625 
L 47.609375 25.390625 
L 58.015625 25.390625 
L 58.015625 17.1875 
L 47.609375 17.1875 
L 47.609375 0 
L 37.796875 0 
L 37.796875 17.1875 
L 4.890625 17.1875 
L 4.890625 26.703125 
z
" id="DejaVuSans-52"/>
      </defs>
      <g transform="translate(630.15964 377.089938)scale(0.1 -0.1)">
       <use xlink:href="#DejaVuSans-48"/>
       <use x="63.623047" xlink:href="#DejaVuSans-46"/>
       <use x="95.410156" xlink:href="#DejaVuSans-52"/>
      </g>
     </g>
    </g>
    <g id="text_6">
     <!-- Tasa con NBI -->
     <defs>
      <path d="M -0.296875 72.90625 
L 61.375 72.90625 
L 61.375 64.59375 
L 35.5 64.59375 
L 35.5 0 
L 25.59375 0 
L 25.59375 64.59375 
L -0.296875 64.59375 
z
" id="DejaVuSans-84"/>
      <path d="M 34.28125 27.484375 
Q 23.390625 27.484375 19.1875 25 
Q 14.984375 22.515625 14.984375 16.5 
Q 14.984375 11.71875 18.140625 8.90625 
Q 21.296875 6.109375 26.703125 6.109375 
Q 34.1875 6.109375 38.703125 11.40625 
Q 43.21875 16.703125 43.21875 25.484375 
L 43.21875 27.484375 
z
M 52.203125 31.203125 
L 52.203125 0 
L 43.21875 0 
L 43.21875 8.296875 
Q 40.140625 3.328125 35.546875 0.953125 
Q 30.953125 -1.421875 24.3125 -1.421875 
Q 15.921875 -1.421875 10.953125 3.296875 
Q 6 8.015625 6 15.921875 
Q 6 25.140625 12.171875 29.828125 
Q 18.359375 34.515625 30.609375 34.515625 
L 43.21875 34.515625 
L 43.21875 35.40625 
Q 43.21875 41.609375 39.140625 45 
Q 35.0625 48.390625 27.6875 48.390625 
Q 23 48.390625 18.546875 47.265625 
Q 14.109375 46.140625 10.015625 43.890625 
L 10.015625 52.203125 
Q 14.9375 54.109375 19.578125 55.046875 
Q 24.21875 56 28.609375 56 
Q 40.484375 56 46.34375 49.84375 
Q 52.203125 43.703125 52.203125 31.203125 
z
" id="DejaVuSans-97"/>
      <path d="M 44.28125 53.078125 
L 44.28125 44.578125 
Q 40.484375 46.53125 36.375 47.5 
Q 32.28125 48.484375 27.875 48.484375 
Q 21.1875 48.484375 17.84375 46.4375 
Q 14.5 44.390625 14.5 40.28125 
Q 14.5 37.15625 16.890625 35.375 
Q 19.28125 33.59375 26.515625 31.984375 
L 29.59375 31.296875 
Q 39.15625 29.25 43.1875 25.515625 
Q 47.21875 21.78125 47.21875 15.09375 
Q 47.21875 7.46875 41.1875 3.015625 
Q 35.15625 -1.421875 24.609375 -1.421875 
Q 20.21875 -1.421875 15.453125 -0.5625 
Q 10.6875 0.296875 5.421875 2 
L 5.421875 11.28125 
Q 10.40625 8.6875 15.234375 7.390625 
Q 20.0625 6.109375 24.8125 6.109375 
Q 31.15625 6.109375 34.5625 8.28125 
Q 37.984375 10.453125 37.984375 14.40625 
Q 37.984375 18.0625 35.515625 20.015625 
Q 33.0625 21.96875 24.703125 23.78125 
L 21.578125 24.515625 
Q 13.234375 26.265625 9.515625 29.90625 
Q 5.8125 33.546875 5.8125 39.890625 
Q 5.8125 47.609375 11.28125 51.796875 
Q 16.75 56 26.8125 56 
Q 31.78125 56 36.171875 55.265625 
Q 40.578125 54.546875 44.28125 53.078125 
z
" id="DejaVuSans-115"/>
      <path id="DejaVuSans-32"/>
      <path d="M 48.78125 52.59375 
L 48.78125 44.1875 
Q 44.96875 46.296875 41.140625 47.34375 
Q 37.3125 48.390625 33.40625 48.390625 
Q 24.65625 48.390625 19.8125 42.84375 
Q 14.984375 37.3125 14.984375 27.296875 
Q 14.984375 17.28125 19.8125 11.734375 
Q 24.65625 6.203125 33.40625 6.203125 
Q 37.3125 6.203125 41.140625 7.25 
Q 44.96875 8.296875 48.78125 10.40625 
L 48.78125 2.09375 
Q 45.015625 0.34375 40.984375 -0.53125 
Q 36.96875 -1.421875 32.421875 -1.421875 
Q 20.0625 -1.421875 12.78125 6.34375 
Q 5.515625 14.109375 5.515625 27.296875 
Q 5.515625 40.671875 12.859375 48.328125 
Q 20.21875 56 33.015625 56 
Q 37.15625 56 41.109375 55.140625 
Q 45.0625 54.296875 48.78125 52.59375 
z
" id="DejaVuSans-99"/>
      <path d="M 30.609375 48.390625 
Q 23.390625 48.390625 19.1875 42.75 
Q 14.984375 37.109375 14.984375 27.296875 
Q 14.984375 17.484375 19.15625 11.84375 
Q 23.34375 6.203125 30.609375 6.203125 
Q 37.796875 6.203125 41.984375 11.859375 
Q 46.1875 17.53125 46.1875 27.296875 
Q 46.1875 37.015625 41.984375 42.703125 
Q 37.796875 48.390625 30.609375 48.390625 
z
M 30.609375 56 
Q 42.328125 56 49.015625 48.375 
Q 55.71875 40.765625 55.71875 27.296875 
Q 55.71875 13.875 49.015625 6.21875 
Q 42.328125 -1.421875 30.609375 -1.421875 
Q 18.84375 -1.421875 12.171875 6.21875 
Q 5.515625 13.875 5.515625 27.296875 
Q 5.515625 40.765625 12.171875 48.375 
Q 18.84375 56 30.609375 56 
z
" id="DejaVuSans-111"/>
      <path d="M 54.890625 33.015625 
L 54.890625 0 
L 45.90625 0 
L 45.90625 32.71875 
Q 45.90625 40.484375 42.875 44.328125 
Q 39.84375 48.1875 33.796875 48.1875 
Q 26.515625 48.1875 22.3125 43.546875 
Q 18.109375 38.921875 18.109375 30.90625 
L 18.109375 0 
L 9.078125 0 
L 9.078125 54.6875 
L 18.109375 54.6875 
L 18.109375 46.1875 
Q 21.34375 51.125 25.703125 53.5625 
Q 30.078125 56 35.796875 56 
Q 45.21875 56 50.046875 50.171875 
Q 54.890625 44.34375 54.890625 33.015625 
z
" id="DejaVuSans-110"/>
      <path d="M 9.8125 72.90625 
L 23.09375 72.90625 
L 55.421875 11.921875 
L 55.421875 72.90625 
L 64.984375 72.90625 
L 64.984375 0 
L 51.703125 0 
L 19.390625 60.984375 
L 19.390625 0 
L 9.8125 0 
z
" id="DejaVuSans-78"/>
      <path d="M 19.671875 34.8125 
L 19.671875 8.109375 
L 35.5 8.109375 
Q 43.453125 8.109375 47.28125 11.40625 
Q 51.125 14.703125 51.125 21.484375 
Q 51.125 28.328125 47.28125 31.5625 
Q 43.453125 34.8125 35.5 34.8125 
z
M 19.671875 64.796875 
L 19.671875 42.828125 
L 34.28125 42.828125 
Q 41.5 42.828125 45.03125 45.53125 
Q 48.578125 48.25 48.578125 53.8125 
Q 48.578125 59.328125 45.03125 62.0625 
Q 41.5 64.796875 34.28125 64.796875 
z
M 9.8125 72.90625 
L 35.015625 72.90625 
Q 46.296875 72.90625 52.390625 68.21875 
Q 58.5 63.53125 58.5 54.890625 
Q 58.5 48.1875 55.375 44.234375 
Q 52.25 40.28125 46.1875 39.3125 
Q 53.46875 37.75 57.5 32.78125 
Q 61.53125 27.828125 61.53125 20.40625 
Q 61.53125 10.640625 54.890625 5.3125 
Q 48.25 0 35.984375 0 
L 9.8125 0 
z
" id="DejaVuSans-66"/>
      <path d="M 9.8125 72.90625 
L 19.671875 72.90625 
L 19.671875 0 
L 9.8125 0 
z
" id="DejaVuSans-73"/>
     </defs>
     <g transform="translate(381.497656 390.768062)scale(0.1 -0.1)">
      <use xlink:href="#DejaVuSans-84"/>
      <use x="60.833984" xlink:href="#DejaVuSans-97"/>
      <use x="122.113281" xlink:href="#DejaVuSans-115"/>
      <use x="174.212891" xlink:href="#DejaVuSans-97"/>
      <use x="235.492188" xlink:href="#DejaVuSans-32"/>
      <use x="267.279297" xlink:href="#DejaVuSans-99"/>
      <use x="322.259766" xlink:href="#DejaVuSans-111"/>
      <use x="383.441406" xlink:href="#DejaVuSans-110"/>
      <use x="446.820312" xlink:href="#DejaVuSans-32"/>
      <use x="478.607422" xlink:href="#DejaVuSans-78"/>
      <use x="553.412109" xlink:href="#DejaVuSans-66"/>
      <use x="622.015625" xlink:href="#DejaVuSans-73"/>
     </g>
    </g>
   </g>
   <g id="matplotlib.axis_2">
    <g id="ytick_1">
     <g id="line2d_6">
      <defs>
       <path d="M 0 0 
L -3.5 0 
" id="mc852683024" style="stroke:#000000;stroke-width:0.8;"/>
      </defs>
      <g>
       <use style="stroke:#000000;stroke-width:0.8;" x="135.073438" xlink:href="#mc852683024" y="77.1015"/>
      </g>
     </g>
     <g id="text_7">
      <!-- Avanzado -->
      <defs>
       <path d="M 34.1875 63.1875 
L 20.796875 26.90625 
L 47.609375 26.90625 
z
M 28.609375 72.90625 
L 39.796875 72.90625 
L 67.578125 0 
L 57.328125 0 
L 50.6875 18.703125 
L 17.828125 18.703125 
L 11.1875 0 
L 0.78125 0 
z
" id="DejaVuSans-65"/>
       <path d="M 2.984375 54.6875 
L 12.5 54.6875 
L 29.59375 8.796875 
L 46.6875 54.6875 
L 56.203125 54.6875 
L 35.6875 0 
L 23.484375 0 
z
" id="DejaVuSans-118"/>
       <path d="M 5.515625 54.6875 
L 48.1875 54.6875 
L 48.1875 46.484375 
L 14.40625 7.171875 
L 48.1875 7.171875 
L 48.1875 0 
L 4.296875 0 
L 4.296875 8.203125 
L 38.09375 47.515625 
L 5.515625 47.515625 
z
" id="DejaVuSans-122"/>
       <path d="M 45.40625 46.390625 
L 45.40625 75.984375 
L 54.390625 75.984375 
L 54.390625 0 
L 45.40625 0 
L 45.40625 8.203125 
Q 42.578125 3.328125 38.25 0.953125 
Q 33.9375 -1.421875 27.875 -1.421875 
Q 17.96875 -1.421875 11.734375 6.484375 
Q 5.515625 14.40625 5.515625 27.296875 
Q 5.515625 40.1875 11.734375 48.09375 
Q 17.96875 56 27.875 56 
Q 33.9375 56 38.25 53.625 
Q 42.578125 51.265625 45.40625 46.390625 
z
M 14.796875 27.296875 
Q 14.796875 17.390625 18.875 11.75 
Q 22.953125 6.109375 30.078125 6.109375 
Q 37.203125 6.109375 41.296875 11.75 
Q 45.40625 17.390625 45.40625 27.296875 
Q 45.40625 37.203125 41.296875 42.84375 
Q 37.203125 48.484375 30.078125 48.484375 
Q 22.953125 48.484375 18.875 42.84375 
Q 14.796875 37.203125 14.796875 27.296875 
z
" id="DejaVuSans-100"/>
      </defs>
      <g transform="translate(79.0125 80.900719)scale(0.1 -0.1)">
       <use xlink:href="#DejaVuSans-65"/>
       <use x="68.330078" xlink:href="#DejaVuSans-118"/>
       <use x="127.509766" xlink:href="#DejaVuSans-97"/>
       <use x="188.789062" xlink:href="#DejaVuSans-110"/>
       <use x="252.167969" xlink:href="#DejaVuSans-122"/>
       <use x="304.658203" xlink:href="#DejaVuSans-97"/>
       <use x="365.9375" xlink:href="#DejaVuSans-100"/>
       <use x="429.414062" xlink:href="#DejaVuSans-111"/>
      </g>
     </g>
    </g>
    <g id="ytick_2">
     <g id="line2d_7">
      <g>
       <use style="stroke:#000000;stroke-width:0.8;" x="135.073438" xlink:href="#mc852683024" y="158.6415"/>
      </g>
     </g>
     <g id="text_8">
      <!-- Satisfactorio -->
      <defs>
       <path d="M 53.515625 70.515625 
L 53.515625 60.890625 
Q 47.90625 63.578125 42.921875 64.890625 
Q 37.9375 66.21875 33.296875 66.21875 
Q 25.25 66.21875 20.875 63.09375 
Q 16.5 59.96875 16.5 54.203125 
Q 16.5 49.359375 19.40625 46.890625 
Q 22.3125 44.4375 30.421875 42.921875 
L 36.375 41.703125 
Q 47.40625 39.59375 52.65625 34.296875 
Q 57.90625 29 57.90625 20.125 
Q 57.90625 9.515625 50.796875 4.046875 
Q 43.703125 -1.421875 29.984375 -1.421875 
Q 24.8125 -1.421875 18.96875 -0.25 
Q 13.140625 0.921875 6.890625 3.21875 
L 6.890625 13.375 
Q 12.890625 10.015625 18.65625 8.296875 
Q 24.421875 6.59375 29.984375 6.59375 
Q 38.421875 6.59375 43.015625 9.90625 
Q 47.609375 13.234375 47.609375 19.390625 
Q 47.609375 24.75 44.3125 27.78125 
Q 41.015625 30.8125 33.5 32.328125 
L 27.484375 33.5 
Q 16.453125 35.6875 11.515625 40.375 
Q 6.59375 45.0625 6.59375 53.421875 
Q 6.59375 63.09375 13.40625 68.65625 
Q 20.21875 74.21875 32.171875 74.21875 
Q 37.3125 74.21875 42.625 73.28125 
Q 47.953125 72.359375 53.515625 70.515625 
z
" id="DejaVuSans-83"/>
       <path d="M 18.3125 70.21875 
L 18.3125 54.6875 
L 36.8125 54.6875 
L 36.8125 47.703125 
L 18.3125 47.703125 
L 18.3125 18.015625 
Q 18.3125 11.328125 20.140625 9.421875 
Q 21.96875 7.515625 27.59375 7.515625 
L 36.8125 7.515625 
L 36.8125 0 
L 27.59375 0 
Q 17.1875 0 13.234375 3.875 
Q 9.28125 7.765625 9.28125 18.015625 
L 9.28125 47.703125 
L 2.6875 47.703125 
L 2.6875 54.6875 
L 9.28125 54.6875 
L 9.28125 70.21875 
z
" id="DejaVuSans-116"/>
       <path d="M 9.421875 54.6875 
L 18.40625 54.6875 
L 18.40625 0 
L 9.421875 0 
z
M 9.421875 75.984375 
L 18.40625 75.984375 
L 18.40625 64.59375 
L 9.421875 64.59375 
z
" id="DejaVuSans-105"/>
       <path d="M 37.109375 75.984375 
L 37.109375 68.5 
L 28.515625 68.5 
Q 23.6875 68.5 21.796875 66.546875 
Q 19.921875 64.59375 19.921875 59.515625 
L 19.921875 54.6875 
L 34.71875 54.6875 
L 34.71875 47.703125 
L 19.921875 47.703125 
L 19.921875 0 
L 10.890625 0 
L 10.890625 47.703125 
L 2.296875 47.703125 
L 2.296875 54.6875 
L 10.890625 54.6875 
L 10.890625 58.5 
Q 10.890625 67.625 15.140625 71.796875 
Q 19.390625 75.984375 28.609375 75.984375 
z
" id="DejaVuSans-102"/>
       <path d="M 41.109375 46.296875 
Q 39.59375 47.171875 37.8125 47.578125 
Q 36.03125 48 33.890625 48 
Q 26.265625 48 22.1875 43.046875 
Q 18.109375 38.09375 18.109375 28.8125 
L 18.109375 0 
L 9.078125 0 
L 9.078125 54.6875 
L 18.109375 54.6875 
L 18.109375 46.1875 
Q 20.953125 51.171875 25.484375 53.578125 
Q 30.03125 56 36.53125 56 
Q 37.453125 56 38.578125 55.875 
Q 39.703125 55.765625 41.0625 55.515625 
z
" id="DejaVuSans-114"/>
      </defs>
      <g transform="translate(65.495313 162.440719)scale(0.1 -0.1)">
       <use xlink:href="#DejaVuSans-83"/>
       <use x="63.476562" xlink:href="#DejaVuSans-97"/>
       <use x="124.755859" xlink:href="#DejaVuSans-116"/>
       <use x="163.964844" xlink:href="#DejaVuSans-105"/>
       <use x="191.748047" xlink:href="#DejaVuSans-115"/>
       <use x="243.847656" xlink:href="#DejaVuSans-102"/>
       <use x="279.052734" xlink:href="#DejaVuSans-97"/>
       <use x="340.332031" xlink:href="#DejaVuSans-99"/>
       <use x="395.3125" xlink:href="#DejaVuSans-116"/>
       <use x="434.521484" xlink:href="#DejaVuSans-111"/>
       <use x="495.703125" xlink:href="#DejaVuSans-114"/>
       <use x="536.816406" xlink:href="#DejaVuSans-105"/>
       <use x="564.599609" xlink:href="#DejaVuSans-111"/>
      </g>
     </g>
    </g>
    <g id="ytick_3">
     <g id="line2d_8">
      <g>
       <use style="stroke:#000000;stroke-width:0.8;" x="135.073438" xlink:href="#mc852683024" y="240.1815"/>
      </g>
     </g>
     <g id="text_9">
      <!-- Básico -->
      <defs>
       <path d="M 34.28125 27.484375 
Q 23.390625 27.484375 19.1875 25 
Q 14.984375 22.515625 14.984375 16.5 
Q 14.984375 11.71875 18.140625 8.90625 
Q 21.296875 6.109375 26.703125 6.109375 
Q 34.1875 6.109375 38.703125 11.40625 
Q 43.21875 16.703125 43.21875 25.484375 
L 43.21875 27.484375 
z
M 52.203125 31.203125 
L 52.203125 0 
L 43.21875 0 
L 43.21875 8.296875 
Q 40.140625 3.328125 35.546875 0.953125 
Q 30.953125 -1.421875 24.3125 -1.421875 
Q 15.921875 -1.421875 10.953125 3.296875 
Q 6 8.015625 6 15.921875 
Q 6 25.140625 12.171875 29.828125 
Q 18.359375 34.515625 30.609375 34.515625 
L 43.21875 34.515625 
L 43.21875 35.40625 
Q 43.21875 41.609375 39.140625 45 
Q 35.0625 48.390625 27.6875 48.390625 
Q 23 48.390625 18.546875 47.265625 
Q 14.109375 46.140625 10.015625 43.890625 
L 10.015625 52.203125 
Q 14.9375 54.109375 19.578125 55.046875 
Q 24.21875 56 28.609375 56 
Q 40.484375 56 46.34375 49.84375 
Q 52.203125 43.703125 52.203125 31.203125 
z
M 35.796875 79.984375 
L 45.515625 79.984375 
L 29.59375 61.625 
L 22.125 61.625 
z
" id="DejaVuSans-225"/>
      </defs>
      <g transform="translate(95.479688 243.980719)scale(0.1 -0.1)">
       <use xlink:href="#DejaVuSans-66"/>
       <use x="68.603516" xlink:href="#DejaVuSans-225"/>
       <use x="129.882812" xlink:href="#DejaVuSans-115"/>
       <use x="181.982422" xlink:href="#DejaVuSans-105"/>
       <use x="209.765625" xlink:href="#DejaVuSans-99"/>
       <use x="264.746094" xlink:href="#DejaVuSans-111"/>
      </g>
     </g>
    </g>
    <g id="ytick_4">
     <g id="line2d_9">
      <g>
       <use style="stroke:#000000;stroke-width:0.8;" x="135.073438" xlink:href="#mc852683024" y="321.7215"/>
      </g>
     </g>
     <g id="text_10">
      <!-- Por debajo del básico -->
      <defs>
       <path d="M 19.671875 64.796875 
L 19.671875 37.40625 
L 32.078125 37.40625 
Q 38.96875 37.40625 42.71875 40.96875 
Q 46.484375 44.53125 46.484375 51.125 
Q 46.484375 57.671875 42.71875 61.234375 
Q 38.96875 64.796875 32.078125 64.796875 
z
M 9.8125 72.90625 
L 32.078125 72.90625 
Q 44.34375 72.90625 50.609375 67.359375 
Q 56.890625 61.8125 56.890625 51.125 
Q 56.890625 40.328125 50.609375 34.8125 
Q 44.34375 29.296875 32.078125 29.296875 
L 19.671875 29.296875 
L 19.671875 0 
L 9.8125 0 
z
" id="DejaVuSans-80"/>
       <path d="M 56.203125 29.59375 
L 56.203125 25.203125 
L 14.890625 25.203125 
Q 15.484375 15.921875 20.484375 11.0625 
Q 25.484375 6.203125 34.421875 6.203125 
Q 39.59375 6.203125 44.453125 7.46875 
Q 49.3125 8.734375 54.109375 11.28125 
L 54.109375 2.78125 
Q 49.265625 0.734375 44.1875 -0.34375 
Q 39.109375 -1.421875 33.890625 -1.421875 
Q 20.796875 -1.421875 13.15625 6.1875 
Q 5.515625 13.8125 5.515625 26.8125 
Q 5.515625 40.234375 12.765625 48.109375 
Q 20.015625 56 32.328125 56 
Q 43.359375 56 49.78125 48.890625 
Q 56.203125 41.796875 56.203125 29.59375 
z
M 47.21875 32.234375 
Q 47.125 39.59375 43.09375 43.984375 
Q 39.0625 48.390625 32.421875 48.390625 
Q 24.90625 48.390625 20.390625 44.140625 
Q 15.875 39.890625 15.1875 32.171875 
z
" id="DejaVuSans-101"/>
       <path d="M 48.6875 27.296875 
Q 48.6875 37.203125 44.609375 42.84375 
Q 40.53125 48.484375 33.40625 48.484375 
Q 26.265625 48.484375 22.1875 42.84375 
Q 18.109375 37.203125 18.109375 27.296875 
Q 18.109375 17.390625 22.1875 11.75 
Q 26.265625 6.109375 33.40625 6.109375 
Q 40.53125 6.109375 44.609375 11.75 
Q 48.6875 17.390625 48.6875 27.296875 
z
M 18.109375 46.390625 
Q 20.953125 51.265625 25.265625 53.625 
Q 29.59375 56 35.59375 56 
Q 45.5625 56 51.78125 48.09375 
Q 58.015625 40.1875 58.015625 27.296875 
Q 58.015625 14.40625 51.78125 6.484375 
Q 45.5625 -1.421875 35.59375 -1.421875 
Q 29.59375 -1.421875 25.265625 0.953125 
Q 20.953125 3.328125 18.109375 8.203125 
L 18.109375 0 
L 9.078125 0 
L 9.078125 75.984375 
L 18.109375 75.984375 
z
" id="DejaVuSans-98"/>
       <path d="M 9.421875 54.6875 
L 18.40625 54.6875 
L 18.40625 -0.984375 
Q 18.40625 -11.421875 14.421875 -16.109375 
Q 10.453125 -20.796875 1.609375 -20.796875 
L -1.8125 -20.796875 
L -1.8125 -13.1875 
L 0.59375 -13.1875 
Q 5.71875 -13.1875 7.5625 -10.8125 
Q 9.421875 -8.453125 9.421875 -0.984375 
z
M 9.421875 75.984375 
L 18.40625 75.984375 
L 18.40625 64.59375 
L 9.421875 64.59375 
z
" id="DejaVuSans-106"/>
       <path d="M 9.421875 75.984375 
L 18.40625 75.984375 
L 18.40625 0 
L 9.421875 0 
z
" id="DejaVuSans-108"/>
      </defs>
      <g transform="translate(21.048438 325.720719)scale(0.1 -0.1)">
       <use xlink:href="#DejaVuSans-80"/>
       <use x="60.255859" xlink:href="#DejaVuSans-111"/>
       <use x="121.4375" xlink:href="#DejaVuSans-114"/>
       <use x="162.550781" xlink:href="#DejaVuSans-32"/>
       <use x="194.337891" xlink:href="#DejaVuSans-100"/>
       <use x="257.814453" xlink:href="#DejaVuSans-101"/>
       <use x="319.337891" xlink:href="#DejaVuSans-98"/>
       <use x="382.814453" xlink:href="#DejaVuSans-97"/>
       <use x="444.09375" xlink:href="#DejaVuSans-106"/>
       <use x="471.876953" xlink:href="#DejaVuSans-111"/>
       <use x="533.058594" xlink:href="#DejaVuSans-32"/>
       <use x="564.845703" xlink:href="#DejaVuSans-100"/>
       <use x="628.322266" xlink:href="#DejaVuSans-101"/>
       <use x="689.845703" xlink:href="#DejaVuSans-108"/>
       <use x="717.628906" xlink:href="#DejaVuSans-32"/>
       <use x="749.416016" xlink:href="#DejaVuSans-98"/>
       <use x="812.892578" xlink:href="#DejaVuSans-225"/>
       <use x="874.171875" xlink:href="#DejaVuSans-115"/>
       <use x="926.271484" xlink:href="#DejaVuSans-105"/>
       <use x="954.054688" xlink:href="#DejaVuSans-99"/>
       <use x="1009.035156" xlink:href="#DejaVuSans-111"/>
      </g>
     </g>
    </g>
    <g id="text_11">
     <!-- Nivel de desempeño en sociales -->
     <defs>
      <path d="M 52 44.1875 
Q 55.375 50.25 60.0625 53.125 
Q 64.75 56 71.09375 56 
Q 79.640625 56 84.28125 50.015625 
Q 88.921875 44.046875 88.921875 33.015625 
L 88.921875 0 
L 79.890625 0 
L 79.890625 32.71875 
Q 79.890625 40.578125 77.09375 44.375 
Q 74.3125 48.1875 68.609375 48.1875 
Q 61.625 48.1875 57.5625 43.546875 
Q 53.515625 38.921875 53.515625 30.90625 
L 53.515625 0 
L 44.484375 0 
L 44.484375 32.71875 
Q 44.484375 40.625 41.703125 44.40625 
Q 38.921875 48.1875 33.109375 48.1875 
Q 26.21875 48.1875 22.15625 43.53125 
Q 18.109375 38.875 18.109375 30.90625 
L 18.109375 0 
L 9.078125 0 
L 9.078125 54.6875 
L 18.109375 54.6875 
L 18.109375 46.1875 
Q 21.1875 51.21875 25.484375 53.609375 
Q 29.78125 56 35.6875 56 
Q 41.65625 56 45.828125 52.96875 
Q 50 49.953125 52 44.1875 
z
" id="DejaVuSans-109"/>
      <path d="M 18.109375 8.203125 
L 18.109375 -20.796875 
L 9.078125 -20.796875 
L 9.078125 54.6875 
L 18.109375 54.6875 
L 18.109375 46.390625 
Q 20.953125 51.265625 25.265625 53.625 
Q 29.59375 56 35.59375 56 
Q 45.5625 56 51.78125 48.09375 
Q 58.015625 40.1875 58.015625 27.296875 
Q 58.015625 14.40625 51.78125 6.484375 
Q 45.5625 -1.421875 35.59375 -1.421875 
Q 29.59375 -1.421875 25.265625 0.953125 
Q 20.953125 3.328125 18.109375 8.203125 
z
M 48.6875 27.296875 
Q 48.6875 37.203125 44.609375 42.84375 
Q 40.53125 48.484375 33.40625 48.484375 
Q 26.265625 48.484375 22.1875 42.84375 
Q 18.109375 37.203125 18.109375 27.296875 
Q 18.109375 17.390625 22.1875 11.75 
Q 26.265625 6.109375 33.40625 6.109375 
Q 40.53125 6.109375 44.609375 11.75 
Q 48.6875 17.390625 48.6875 27.296875 
z
" id="DejaVuSans-112"/>
      <path d="M 54.890625 33.015625 
L 54.890625 0 
L 45.90625 0 
L 45.90625 32.71875 
Q 45.90625 40.484375 42.875 44.328125 
Q 39.84375 48.1875 33.796875 48.1875 
Q 26.515625 48.1875 22.3125 43.546875 
Q 18.109375 38.921875 18.109375 30.90625 
L 18.109375 0 
L 9.078125 0 
L 9.078125 54.6875 
L 18.109375 54.6875 
L 18.109375 46.1875 
Q 21.34375 51.125 25.703125 53.5625 
Q 30.078125 56 35.796875 56 
Q 45.21875 56 50.046875 50.171875 
Q 54.890625 44.34375 54.890625 33.015625 
z
M 32.234375 66.890625 
L 29.4375 69.578125 
Q 28.375 70.5625 27.5625 71.015625 
Q 26.765625 71.484375 26.125 71.484375 
Q 24.265625 71.484375 23.390625 69.703125 
Q 22.515625 67.921875 22.40625 63.921875 
L 16.3125 63.921875 
Q 16.40625 70.515625 18.890625 74.09375 
Q 21.390625 77.6875 25.828125 77.6875 
Q 27.6875 77.6875 29.25 77 
Q 30.8125 76.3125 32.625 74.703125 
L 35.40625 72.015625 
Q 36.46875 71.046875 37.28125 70.578125 
Q 38.09375 70.125 38.71875 70.125 
Q 40.578125 70.125 41.453125 71.90625 
Q 42.328125 73.6875 42.4375 77.6875 
L 48.53125 77.6875 
Q 48.4375 71.09375 45.9375 67.5 
Q 43.453125 63.921875 39.015625 63.921875 
Q 37.15625 63.921875 35.59375 64.59375 
Q 34.03125 65.28125 32.234375 66.890625 
z
" id="DejaVuSans-241"/>
     </defs>
     <g transform="translate(14.96875 280.0365)rotate(-90)scale(0.1 -0.1)">
      <use xlink:href="#DejaVuSans-78"/>
      <use x="74.804688" xlink:href="#DejaVuSans-105"/>
      <use x="102.587891" xlink:href="#DejaVuSans-118"/>
      <use x="161.767578" xlink:href="#DejaVuSans-101"/>
      <use x="223.291016" xlink:href="#DejaVuSans-108"/>
      <use x="251.074219" xlink:href="#DejaVuSans-32"/>
      <use x="282.861328" xlink:href="#DejaVuSans-100"/>
      <use x="346.337891" xlink:href="#DejaVuSans-101"/>
      <use x="407.861328" xlink:href="#DejaVuSans-32"/>
      <use x="439.648438" xlink:href="#DejaVuSans-100"/>
      <use x="503.125" xlink:href="#DejaVuSans-101"/>
      <use x="564.648438" xlink:href="#DejaVuSans-115"/>
      <use x="616.748047" xlink:href="#DejaVuSans-101"/>
      <use x="678.271484" xlink:href="#DejaVuSans-109"/>
      <use x="775.683594" xlink:href="#DejaVuSans-112"/>
      <use x="839.160156" xlink:href="#DejaVuSans-101"/>
      <use x="900.683594" xlink:href="#DejaVuSans-241"/>
      <use x="964.0625" xlink:href="#DejaVuSans-111"/>
      <use x="1025.244141" xlink:href="#DejaVuSans-32"/>
      <use x="1057.03125" xlink:href="#DejaVuSans-101"/>
      <use x="1118.554688" xlink:href="#DejaVuSans-110"/>
      <use x="1181.933594" xlink:href="#DejaVuSans-32"/>
      <use x="1213.720703" xlink:href="#DejaVuSans-115"/>
      <use x="1265.820312" xlink:href="#DejaVuSans-111"/>
      <use x="1327.001953" xlink:href="#DejaVuSans-99"/>
      <use x="1381.982422" xlink:href="#DejaVuSans-105"/>
      <use x="1409.765625" xlink:href="#DejaVuSans-97"/>
      <use x="1471.044922" xlink:href="#DejaVuSans-108"/>
      <use x="1498.828125" xlink:href="#DejaVuSans-101"/>
      <use x="1560.351562" xlink:href="#DejaVuSans-115"/>
     </g>
    </g>
   </g>
   <g id="line2d_10">
    <path clip-path="url(#p2ed20ce70a)" d="M 193.160429 77.1015 
L 421.014253 77.1015 
" style="fill:none;stroke:#4c4c4c;stroke-linecap:square;stroke-width:1.5;"/>
   </g>
   <g id="line2d_11">
    <path clip-path="url(#p2ed20ce70a)" d="M 228.023197 77.1015 
L 310.213631 77.1015 
" style="fill:none;stroke:#4c4c4c;stroke-linecap:square;stroke-width:4.5;"/>
   </g>
   <g id="line2d_12">
    <path clip-path="url(#p2ed20ce70a)" d="M 193.160429 158.6415 
L 410.558741 158.6415 
" style="fill:none;stroke:#4c4c4c;stroke-linecap:square;stroke-width:1.5;"/>
   </g>
   <g id="line2d_13">
    <path clip-path="url(#p2ed20ce70a)" d="M 240.362194 158.6415 
L 312.090749 158.6415 
" style="fill:none;stroke:#4c4c4c;stroke-linecap:square;stroke-width:4.5;"/>
   </g>
   <g id="line2d_14">
    <path clip-path="url(#p2ed20ce70a)" d="M 193.160429 240.1815 
L 421.014253 240.1815 
" style="fill:none;stroke:#4c4c4c;stroke-linecap:square;stroke-width:1.5;"/>
   </g>
   <g id="line2d_15">
    <path clip-path="url(#p2ed20ce70a)" d="M 240.362194 240.1815 
L 312.878477 240.1815 
" style="fill:none;stroke:#4c4c4c;stroke-linecap:square;stroke-width:4.5;"/>
   </g>
   <g id="line2d_16">
    <path clip-path="url(#p2ed20ce70a)" d="M 193.160429 321.7215 
L 439.145078 321.7215 
" style="fill:none;stroke:#4c4c4c;stroke-linecap:square;stroke-width:1.5;"/>
   </g>
   <g id="line2d_17">
    <path clip-path="url(#p2ed20ce70a)" d="M 241.249503 321.7215 
L 321.63462 321.7215 
" style="fill:none;stroke:#4c4c4c;stroke-linecap:square;stroke-width:4.5;"/>
   </g>
   <g id="patch_3">
    <path d="M 135.073438 362.4915 
L 135.073438 36.3315 
" style="fill:none;stroke:#000000;stroke-linecap:square;stroke-linejoin:miter;stroke-width:0.8;"/>
   </g>
   <g id="patch_4">
    <path d="M 693.073437 362.4915 
L 693.073437 36.3315 
" style="fill:none;stroke:#000000;stroke-linecap:square;stroke-linejoin:miter;stroke-width:0.8;"/>
   </g>
   <g id="patch_5">
    <path d="M 135.073438 362.4915 
L 693.073437 362.4915 
" style="fill:none;stroke:#000000;stroke-linecap:square;stroke-linejoin:miter;stroke-width:0.8;"/>
   </g>
   <g id="patch_6">
    <path d="M 135.073438 36.3315 
L 693.073437 36.3315 
" style="fill:none;stroke:#000000;stroke-linecap:square;stroke-linejoin:miter;stroke-width:0.8;"/>
   </g>
   <g id="PathCollection_1">
    <defs>
     <path d="M 0 1.5 
C 0.397805 1.5 0.77937 1.341951 1.06066 1.06066 
C 1.341951 0.77937 1.5 0.397805 1.5 0 
C 1.5 -0.397805 1.341951 -0.77937 1.06066 -1.06066 
C 0.77937 -1.341951 0.397805 -1.5 0 -1.5 
C -0.397805 -1.5 -0.77937 -1.341951 -1.06066 -1.06066 
C -1.341951 -0.77937 -1.5 -0.397805 -1.5 0 
C -1.5 0.397805 -1.341951 0.77937 -1.06066 1.06066 
C -0.77937 1.341951 -0.397805 1.5 0 1.5 
z
" id="m4f7b3aa5a9" style="stroke:#4c4c4c;"/>
    </defs>
    <g clip-path="url(#p2ed20ce70a)">
     <use style="fill:#ffffff;stroke:#4c4c4c;" x="266.288291" xlink:href="#m4f7b3aa5a9" y="77.1015"/>
    </g>
   </g>
   <g id="PathCollection_2">
    <g clip-path="url(#p2ed20ce70a)">
     <use style="fill:#ffffff;stroke:#4c4c4c;" x="276.975504" xlink:href="#m4f7b3aa5a9" y="158.6415"/>
    </g>
   </g>
   <g id="PathCollection_3">
    <g clip-path="url(#p2ed20ce70a)">
     <use style="fill:#ffffff;stroke:#4c4c4c;" x="280.289658" xlink:href="#m4f7b3aa5a9" y="240.1815"/>
    </g>
   </g>
   <g id="PathCollection_4">
    <g clip-path="url(#p2ed20ce70a)">
     <use style="fill:#ffffff;stroke:#4c4c4c;" x="285.487289" xlink:href="#m4f7b3aa5a9" y="321.7215"/>
    </g>
   </g>
   <g id="text_12">
    <!-- Distribución de: Tasa con NBI según el desempeño en sociales -->
    <defs>
     <path d="M 19.671875 64.796875 
L 19.671875 8.109375 
L 31.59375 8.109375 
Q 46.6875 8.109375 53.6875 14.9375 
Q 60.6875 21.78125 60.6875 36.53125 
Q 60.6875 51.171875 53.6875 57.984375 
Q 46.6875 64.796875 31.59375 64.796875 
z
M 9.8125 72.90625 
L 30.078125 72.90625 
Q 51.265625 72.90625 61.171875 64.09375 
Q 71.09375 55.28125 71.09375 36.53125 
Q 71.09375 17.671875 61.125 8.828125 
Q 51.171875 0 30.078125 0 
L 9.8125 0 
z
" id="DejaVuSans-68"/>
     <path d="M 8.5 21.578125 
L 8.5 54.6875 
L 17.484375 54.6875 
L 17.484375 21.921875 
Q 17.484375 14.15625 20.5 10.265625 
Q 23.53125 6.390625 29.59375 6.390625 
Q 36.859375 6.390625 41.078125 11.03125 
Q 45.3125 15.671875 45.3125 23.6875 
L 45.3125 54.6875 
L 54.296875 54.6875 
L 54.296875 0 
L 45.3125 0 
L 45.3125 8.40625 
Q 42.046875 3.421875 37.71875 1 
Q 33.40625 -1.421875 27.6875 -1.421875 
Q 18.265625 -1.421875 13.375 4.4375 
Q 8.5 10.296875 8.5 21.578125 
z
M 31.109375 56 
z
" id="DejaVuSans-117"/>
     <path d="M 30.609375 48.390625 
Q 23.390625 48.390625 19.1875 42.75 
Q 14.984375 37.109375 14.984375 27.296875 
Q 14.984375 17.484375 19.15625 11.84375 
Q 23.34375 6.203125 30.609375 6.203125 
Q 37.796875 6.203125 41.984375 11.859375 
Q 46.1875 17.53125 46.1875 27.296875 
Q 46.1875 37.015625 41.984375 42.703125 
Q 37.796875 48.390625 30.609375 48.390625 
z
M 30.609375 56 
Q 42.328125 56 49.015625 48.375 
Q 55.71875 40.765625 55.71875 27.296875 
Q 55.71875 13.875 49.015625 6.21875 
Q 42.328125 -1.421875 30.609375 -1.421875 
Q 18.84375 -1.421875 12.171875 6.21875 
Q 5.515625 13.875 5.515625 27.296875 
Q 5.515625 40.765625 12.171875 48.375 
Q 18.84375 56 30.609375 56 
z
M 37.40625 79.984375 
L 47.125 79.984375 
L 31.203125 61.625 
L 23.734375 61.625 
z
" id="DejaVuSans-243"/>
     <path d="M 11.71875 12.40625 
L 22.015625 12.40625 
L 22.015625 0 
L 11.71875 0 
z
M 11.71875 51.703125 
L 22.015625 51.703125 
L 22.015625 39.3125 
L 11.71875 39.3125 
z
" id="DejaVuSans-58"/>
     <path d="M 45.40625 27.984375 
Q 45.40625 37.75 41.375 43.109375 
Q 37.359375 48.484375 30.078125 48.484375 
Q 22.859375 48.484375 18.828125 43.109375 
Q 14.796875 37.75 14.796875 27.984375 
Q 14.796875 18.265625 18.828125 12.890625 
Q 22.859375 7.515625 30.078125 7.515625 
Q 37.359375 7.515625 41.375 12.890625 
Q 45.40625 18.265625 45.40625 27.984375 
z
M 54.390625 6.78125 
Q 54.390625 -7.171875 48.1875 -13.984375 
Q 42 -20.796875 29.203125 -20.796875 
Q 24.46875 -20.796875 20.265625 -20.09375 
Q 16.0625 -19.390625 12.109375 -17.921875 
L 12.109375 -9.1875 
Q 16.0625 -11.328125 19.921875 -12.34375 
Q 23.78125 -13.375 27.78125 -13.375 
Q 36.625 -13.375 41.015625 -8.765625 
Q 45.40625 -4.15625 45.40625 5.171875 
L 45.40625 9.625 
Q 42.625 4.78125 38.28125 2.390625 
Q 33.9375 0 27.875 0 
Q 17.828125 0 11.671875 7.65625 
Q 5.515625 15.328125 5.515625 27.984375 
Q 5.515625 40.671875 11.671875 48.328125 
Q 17.828125 56 27.875 56 
Q 33.9375 56 38.28125 53.609375 
Q 42.625 51.21875 45.40625 46.390625 
L 45.40625 54.6875 
L 54.390625 54.6875 
z
" id="DejaVuSans-103"/>
     <path d="M 8.5 21.578125 
L 8.5 54.6875 
L 17.484375 54.6875 
L 17.484375 21.921875 
Q 17.484375 14.15625 20.5 10.265625 
Q 23.53125 6.390625 29.59375 6.390625 
Q 36.859375 6.390625 41.078125 11.03125 
Q 45.3125 15.671875 45.3125 23.6875 
L 45.3125 54.6875 
L 54.296875 54.6875 
L 54.296875 0 
L 45.3125 0 
L 45.3125 8.40625 
Q 42.046875 3.421875 37.71875 1 
Q 33.40625 -1.421875 27.6875 -1.421875 
Q 18.265625 -1.421875 13.375 4.4375 
Q 8.5 10.296875 8.5 21.578125 
z
M 31.109375 56 
z
M 37.796875 79.984375 
L 47.515625 79.984375 
L 31.59375 61.625 
L 24.125 61.625 
z
" id="DejaVuSans-250"/>
    </defs>
    <g transform="translate(226.016563 16.798125)scale(0.12 -0.12)">
     <use xlink:href="#DejaVuSans-68"/>
     <use x="77.001953" xlink:href="#DejaVuSans-105"/>
     <use x="104.785156" xlink:href="#DejaVuSans-115"/>
     <use x="156.884766" xlink:href="#DejaVuSans-116"/>
     <use x="196.09375" xlink:href="#DejaVuSans-114"/>
     <use x="237.207031" xlink:href="#DejaVuSans-105"/>
     <use x="264.990234" xlink:href="#DejaVuSans-98"/>
     <use x="328.466797" xlink:href="#DejaVuSans-117"/>
     <use x="391.845703" xlink:href="#DejaVuSans-99"/>
     <use x="446.826172" xlink:href="#DejaVuSans-105"/>
     <use x="474.609375" xlink:href="#DejaVuSans-243"/>
     <use x="535.791016" xlink:href="#DejaVuSans-110"/>
     <use x="599.169922" xlink:href="#DejaVuSans-32"/>
     <use x="630.957031" xlink:href="#DejaVuSans-100"/>
     <use x="694.433594" xlink:href="#DejaVuSans-101"/>
     <use x="755.957031" xlink:href="#DejaVuSans-58"/>
     <use x="789.648438" xlink:href="#DejaVuSans-32"/>
     <use x="821.435547" xlink:href="#DejaVuSans-84"/>
     <use x="882.269531" xlink:href="#DejaVuSans-97"/>
     <use x="943.548828" xlink:href="#DejaVuSans-115"/>
     <use x="995.648438" xlink:href="#DejaVuSans-97"/>
     <use x="1056.927734" xlink:href="#DejaVuSans-32"/>
     <use x="1088.714844" xlink:href="#DejaVuSans-99"/>
     <use x="1143.695312" xlink:href="#DejaVuSans-111"/>
     <use x="1204.876953" xlink:href="#DejaVuSans-110"/>
     <use x="1268.255859" xlink:href="#DejaVuSans-32"/>
     <use x="1300.042969" xlink:href="#DejaVuSans-78"/>
     <use x="1374.847656" xlink:href="#DejaVuSans-66"/>
     <use x="1443.451172" xlink:href="#DejaVuSans-73"/>
     <use x="1472.943359" xlink:href="#DejaVuSans-32"/>
     <use x="1504.730469" xlink:href="#DejaVuSans-115"/>
     <use x="1556.830078" xlink:href="#DejaVuSans-101"/>
     <use x="1618.353516" xlink:href="#DejaVuSans-103"/>
     <use x="1681.830078" xlink:href="#DejaVuSans-250"/>
     <use x="1745.208984" xlink:href="#DejaVuSans-110"/>
     <use x="1808.587891" xlink:href="#DejaVuSans-32"/>
     <use x="1840.375" xlink:href="#DejaVuSans-101"/>
     <use x="1901.898438" xlink:href="#DejaVuSans-108"/>
     <use x="1929.681641" xlink:href="#DejaVuSans-32"/>
     <use x="1961.46875" xlink:href="#DejaVuSans-100"/>
     <use x="2024.945312" xlink:href="#DejaVuSans-101"/>
     <use x="2086.46875" xlink:href="#DejaVuSans-115"/>
     <use x="2138.568359" xlink:href="#DejaVuSans-101"/>
     <use x="2200.091797" xlink:href="#DejaVuSans-109"/>
     <use x="2297.503906" xlink:href="#DejaVuSans-112"/>
     <use x="2360.980469" xlink:href="#DejaVuSans-101"/>
     <use x="2422.503906" xlink:href="#DejaVuSans-241"/>
     <use x="2485.882812" xlink:href="#DejaVuSans-111"/>
     <use x="2547.064453" xlink:href="#DejaVuSans-32"/>
     <use x="2578.851562" xlink:href="#DejaVuSans-101"/>
     <use x="2640.375" xlink:href="#DejaVuSans-110"/>
     <use x="2703.753906" xlink:href="#DejaVuSans-32"/>
     <use x="2735.541016" xlink:href="#DejaVuSans-115"/>
     <use x="2787.640625" xlink:href="#DejaVuSans-111"/>
     <use x="2848.822266" xlink:href="#DejaVuSans-99"/>
     <use x="2903.802734" xlink:href="#DejaVuSans-105"/>
     <use x="2931.585938" xlink:href="#DejaVuSans-97"/>
     <use x="2992.865234" xlink:href="#DejaVuSans-108"/>
     <use x="3020.648438" xlink:href="#DejaVuSans-101"/>
     <use x="3082.171875" xlink:href="#DejaVuSans-115"/>
    </g>
    <!--  Nivel: Primaria -->
    <g transform="translate(368.090937 30.2355)scale(0.12 -0.12)">
     <use xlink:href="#DejaVuSans-32"/>
     <use x="31.787109" xlink:href="#DejaVuSans-78"/>
     <use x="106.591797" xlink:href="#DejaVuSans-105"/>
     <use x="134.375" xlink:href="#DejaVuSans-118"/>
     <use x="193.554688" xlink:href="#DejaVuSans-101"/>
     <use x="255.078125" xlink:href="#DejaVuSans-108"/>
     <use x="282.861328" xlink:href="#DejaVuSans-58"/>
     <use x="316.552734" xlink:href="#DejaVuSans-32"/>
     <use x="348.339844" xlink:href="#DejaVuSans-80"/>
     <use x="408.626953" xlink:href="#DejaVuSans-114"/>
     <use x="449.740234" xlink:href="#DejaVuSans-105"/>
     <use x="477.523438" xlink:href="#DejaVuSans-109"/>
     <use x="574.935547" xlink:href="#DejaVuSans-97"/>
     <use x="636.214844" xlink:href="#DejaVuSans-114"/>
     <use x="677.328125" xlink:href="#DejaVuSans-105"/>
     <use x="705.111328" xlink:href="#DejaVuSans-97"/>
    </g>
   </g>
  </g>
 </g>
 <defs>
  <clipPath id="p2ed20ce70a">
   <rect height="326.16" width="558" x="135.073438" y="36.3315"/>
  </clipPath>
 </defs>
</svg>
