<?xml version="1.0" encoding="utf-8" standalone="no"?>
<!DOCTYPE svg PUBLIC "-//W3C//DTD SVG 1.1//EN"
  "http://www.w3.org/Graphics/SVG/1.1/DTD/svg11.dtd">
<!-- Created with matplotlib (https://matplotlib.org/) -->
<svg height="400.04775pt" version="1.1" viewBox="0 0 704.003125 400.04775" width="704.003125pt" xmlns="http://www.w3.org/2000/svg" xmlns:xlink="http://www.w3.org/1999/xlink">
 <defs>
  <style type="text/css">
*{stroke-linecap:butt;stroke-linejoin:round;}
  </style>
 </defs>
 <g id="figure_1">
  <g id="patch_1">
   <path d="M 0 400.04775 
L 704.003125 400.04775 
L 704.003125 0 
L 0 0 
z
" style="fill:#ffffff;"/>
  </g>
  <g id="axes_1">
   <g id="patch_2">
    <path d="M 135.303125 362.4915 
L 693.303125 362.4915 
L 693.303125 36.3315 
L 135.303125 36.3315 
z
" style="fill:#ffffff;"/>
   </g>
   <g id="PolyCollection_1">
    <defs>
     <path d="M 144.21072 -322.639459 
L 144.21072 -323.253041 
L 149.667132 -323.960857 
L 155.123545 -325.591635 
L 160.579957 -328.518876 
L 166.036369 -332.645162 
L 171.492781 -337.159421 
L 176.949193 -340.871641 
L 182.405606 -343.096346 
L 187.862018 -344.13428 
L 193.31843 -344.713434 
L 198.774842 -345.276178 
L 204.231254 -345.958067 
L 209.687667 -346.84039 
L 215.144079 -347.976114 
L 220.600491 -349.244649 
L 226.056903 -350.296179 
L 231.513316 -350.8343 
L 236.969728 -350.98541 
L 242.42614 -351.144391 
L 247.882552 -351.471446 
L 253.338964 -351.795678 
L 258.795377 -351.967837 
L 264.251789 -352.104195 
L 269.708201 -352.415713 
L 275.164613 -352.80514 
L 280.621026 -352.778516 
L 286.077438 -351.950174 
L 291.53385 -350.537887 
L 296.990262 -349.15265 
L 302.446674 -348.205014 
L 307.903087 -347.680396 
L 313.359499 -347.343358 
L 318.815911 -346.957553 
L 324.272323 -346.343045 
L 329.728736 -345.398994 
L 335.185148 -344.202903 
L 340.64156 -343.017336 
L 346.097972 -342.042333 
L 351.554384 -341.209328 
L 357.010797 -340.368175 
L 362.467209 -339.602236 
L 367.923621 -339.164576 
L 373.380033 -339.077195 
L 378.836446 -338.933524 
L 384.292858 -338.260108 
L 389.74927 -337.063028 
L 395.205682 -335.843992 
L 400.662094 -335.042945 
L 406.118507 -334.606401 
L 411.574919 -334.152861 
L 417.031331 -333.423304 
L 422.487743 -332.482188 
L 427.944156 -331.581704 
L 433.400568 -330.919673 
L 438.85698 -330.496573 
L 444.313392 -330.155753 
L 449.769804 -329.758223 
L 455.226217 -329.321877 
L 460.682629 -328.956975 
L 466.139041 -328.690629 
L 471.595453 -328.447766 
L 477.051866 -328.177103 
L 482.508278 -327.882182 
L 487.96469 -327.5563 
L 493.421102 -327.198855 
L 498.877514 -326.878017 
L 504.333927 -326.683033 
L 509.790339 -326.610699 
L 515.246751 -326.555743 
L 520.703163 -326.4277 
L 526.159576 -326.247584 
L 531.615988 -326.113041 
L 537.0724 -326.08586 
L 542.528812 -326.136247 
L 547.985224 -326.192011 
L 553.441637 -326.211143 
L 558.898049 -326.201685 
L 564.354461 -326.199699 
L 569.810873 -326.234456 
L 575.267286 -326.306148 
L 580.723698 -326.394292 
L 586.18011 -326.471354 
L 591.636522 -326.502477 
L 597.092934 -326.446791 
L 602.549347 -326.270417 
L 608.005759 -325.975519 
L 613.462171 -325.620809 
L 618.918583 -325.283222 
L 624.374996 -324.99258 
L 629.831408 -324.726459 
L 635.28782 -324.448446 
L 640.744232 -324.1324 
L 646.200644 -323.788428 
L 651.657057 -323.474041 
L 657.113469 -323.247329 
L 662.569881 -323.115061 
L 668.026293 -323.042894 
L 673.482705 -322.998641 
L 678.939118 -322.97021 
L 684.39553 -322.954813 
L 684.39553 -322.937687 
L 684.39553 -322.937687 
L 678.939118 -322.92229 
L 673.482705 -322.893859 
L 668.026293 -322.849606 
L 662.569881 -322.777439 
L 657.113469 -322.645171 
L 651.657057 -322.418459 
L 646.200644 -322.104072 
L 640.744232 -321.7601 
L 635.28782 -321.444054 
L 629.831408 -321.166041 
L 624.374996 -320.89992 
L 618.918583 -320.609278 
L 613.462171 -320.271691 
L 608.005759 -319.916981 
L 602.549347 -319.622083 
L 597.092934 -319.445709 
L 591.636522 -319.390023 
L 586.18011 -319.421146 
L 580.723698 -319.498208 
L 575.267286 -319.586352 
L 569.810873 -319.658044 
L 564.354461 -319.692801 
L 558.898049 -319.690815 
L 553.441637 -319.681357 
L 547.985224 -319.700489 
L 542.528812 -319.756253 
L 537.0724 -319.80664 
L 531.615988 -319.779459 
L 526.159576 -319.644916 
L 520.703163 -319.4648 
L 515.246751 -319.336757 
L 509.790339 -319.281801 
L 504.333927 -319.209467 
L 498.877514 -319.014483 
L 493.421102 -318.693645 
L 487.96469 -318.3362 
L 482.508278 -318.010318 
L 477.051866 -317.715397 
L 471.595453 -317.444734 
L 466.139041 -317.201871 
L 460.682629 -316.935525 
L 455.226217 -316.570623 
L 449.769804 -316.134277 
L 444.313392 -315.736747 
L 438.85698 -315.395927 
L 433.400568 -314.972827 
L 427.944156 -314.310796 
L 422.487743 -313.410312 
L 417.031331 -312.469196 
L 411.574919 -311.739639 
L 406.118507 -311.286099 
L 400.662094 -310.849555 
L 395.205682 -310.048508 
L 389.74927 -308.829472 
L 384.292858 -307.632392 
L 378.836446 -306.958976 
L 373.380033 -306.815305 
L 367.923621 -306.727924 
L 362.467209 -306.290264 
L 357.010797 -305.524325 
L 351.554384 -304.683172 
L 346.097972 -303.850167 
L 340.64156 -302.875164 
L 335.185148 -301.689597 
L 329.728736 -300.493506 
L 324.272323 -299.549455 
L 318.815911 -298.934947 
L 313.359499 -298.549142 
L 307.903087 -298.212104 
L 302.446674 -297.687486 
L 296.990262 -296.73985 
L 291.53385 -295.354613 
L 286.077438 -293.942326 
L 280.621026 -293.113984 
L 275.164613 -293.08736 
L 269.708201 -293.476787 
L 264.251789 -293.788305 
L 258.795377 -293.924663 
L 253.338964 -294.096822 
L 247.882552 -294.421054 
L 242.42614 -294.748109 
L 236.969728 -294.90709 
L 231.513316 -295.0582 
L 226.056903 -295.596321 
L 220.600491 -296.647851 
L 215.144079 -297.916386 
L 209.687667 -299.05211 
L 204.231254 -299.934433 
L 198.774842 -300.616322 
L 193.31843 -301.179066 
L 187.862018 -301.75822 
L 182.405606 -302.796154 
L 176.949193 -305.020859 
L 171.492781 -308.733079 
L 166.036369 -313.247338 
L 160.579957 -317.373624 
L 155.123545 -320.300865 
L 149.667132 -321.931643 
L 144.21072 -322.639459 
z
" id="mba5f622f27" style="stroke:#4c4c4c;stroke-width:1.5;"/>
    </defs>
    <g clip-path="url(#p7c6cb8e6eb)">
     <use style="fill:#df2020;stroke:#4c4c4c;stroke-width:1.5;" x="0" xlink:href="#mba5f622f27" y="400.04775"/>
    </g>
   </g>
   <g id="PolyCollection_2">
    <defs>
     <path d="M 150.48873 -241.266466 
L 150.48873 -241.546034 
L 155.818313 -242.1309 
L 161.147897 -243.798551 
L 166.477481 -246.941526 
L 171.807065 -250.905511 
L 177.136648 -254.005919 
L 182.466232 -255.610929 
L 187.795816 -256.879827 
L 193.1254 -258.178878 
L 198.454983 -259.134619 
L 203.784567 -260.51847 
L 209.114151 -262.169667 
L 214.443735 -262.960568 
L 219.773318 -263.4516 
L 225.102902 -264.623584 
L 230.432486 -265.573885 
L 235.76207 -266.126831 
L 241.091653 -267.025662 
L 246.421237 -267.46991 
L 251.750821 -267.363058 
L 257.080405 -268.14685 
L 262.409988 -270.030545 
L 267.739572 -271.907258 
L 273.069156 -273.303635 
L 278.39874 -274.02225 
L 283.728323 -273.445759 
L 289.057907 -271.512738 
L 294.387491 -269.7318 
L 299.717075 -269.781329 
L 305.046658 -270.734546 
L 310.376242 -270.605601 
L 315.705826 -269.421955 
L 321.035409 -268.575052 
L 326.364993 -268.195359 
L 331.694577 -267.571555 
L 337.024161 -267.416943 
L 342.353744 -267.9428 
L 347.683328 -267.897105 
L 353.012912 -266.152286 
L 358.342496 -263.306027 
L 363.672079 -261.417125 
L 369.001663 -260.988523 
L 374.331247 -261.049625 
L 379.660831 -261.370989 
L 384.990414 -261.431545 
L 390.319998 -259.997528 
L 395.649582 -257.469843 
L 400.979166 -255.774985 
L 406.308749 -255.415785 
L 411.638333 -255.74962 
L 416.967917 -256.097498 
L 422.297501 -255.456781 
L 427.627084 -253.654319 
L 432.956668 -251.817062 
L 438.286252 -250.594039 
L 443.615836 -249.689311 
L 448.945419 -249.008531 
L 454.275003 -248.454278 
L 459.604587 -247.891709 
L 464.934171 -247.458556 
L 470.263754 -247.147948 
L 475.593338 -246.734893 
L 480.922922 -246.221708 
L 486.252506 -245.902978 
L 491.582089 -245.661898 
L 496.911673 -245.13843 
L 502.241257 -244.474554 
L 507.570841 -244.105863 
L 512.900424 -244.072501 
L 518.230008 -243.985045 
L 523.559592 -243.632358 
L 528.889175 -243.241496 
L 534.218759 -243.052924 
L 539.548343 -243.012513 
L 544.877927 -242.955831 
L 550.20751 -242.901733 
L 555.537094 -242.885037 
L 560.866678 -242.811742 
L 566.196262 -242.730367 
L 571.525845 -242.718529 
L 576.855429 -242.726126 
L 582.185013 -242.743848 
L 587.514597 -242.76652 
L 592.84418 -242.756695 
L 598.173764 -242.70135 
L 603.503348 -242.590702 
L 608.832932 -242.446518 
L 614.162515 -242.313569 
L 619.492099 -242.212526 
L 624.821683 -242.113967 
L 630.151267 -241.982329 
L 635.48085 -241.852307 
L 640.810434 -241.747124 
L 646.140018 -241.641801 
L 651.469602 -241.544803 
L 656.799185 -241.485476 
L 662.128769 -241.463332 
L 667.458353 -241.448363 
L 672.787937 -241.426797 
L 678.11752 -241.411792 
L 678.11752 -241.400708 
L 678.11752 -241.400708 
L 672.787937 -241.385703 
L 667.458353 -241.364137 
L 662.128769 -241.349168 
L 656.799185 -241.327024 
L 651.469602 -241.267697 
L 646.140018 -241.170699 
L 640.810434 -241.065376 
L 635.48085 -240.960193 
L 630.151267 -240.830171 
L 624.821683 -240.698533 
L 619.492099 -240.599974 
L 614.162515 -240.498931 
L 608.832932 -240.365982 
L 603.503348 -240.221798 
L 598.173764 -240.11115 
L 592.84418 -240.055805 
L 587.514597 -240.04598 
L 582.185013 -240.068652 
L 576.855429 -240.086374 
L 571.525845 -240.093971 
L 566.196262 -240.082133 
L 560.866678 -240.000758 
L 555.537094 -239.927463 
L 550.20751 -239.910767 
L 544.877927 -239.856669 
L 539.548343 -239.799987 
L 534.218759 -239.759576 
L 528.889175 -239.571004 
L 523.559592 -239.180142 
L 518.230008 -238.827455 
L 512.900424 -238.739999 
L 507.570841 -238.706637 
L 502.241257 -238.337946 
L 496.911673 -237.67407 
L 491.582089 -237.150602 
L 486.252506 -236.909522 
L 480.922922 -236.590792 
L 475.593338 -236.077607 
L 470.263754 -235.664552 
L 464.934171 -235.353944 
L 459.604587 -234.920791 
L 454.275003 -234.358222 
L 448.945419 -233.803969 
L 443.615836 -233.123189 
L 438.286252 -232.218461 
L 432.956668 -230.995438 
L 427.627084 -229.158181 
L 422.297501 -227.355719 
L 416.967917 -226.715002 
L 411.638333 -227.06288 
L 406.308749 -227.396715 
L 400.979166 -227.037515 
L 395.649582 -225.342657 
L 390.319998 -222.814972 
L 384.990414 -221.380955 
L 379.660831 -221.441511 
L 374.331247 -221.762875 
L 369.001663 -221.823977 
L 363.672079 -221.395375 
L 358.342496 -219.506473 
L 353.012912 -216.660214 
L 347.683328 -214.915395 
L 342.353744 -214.8697 
L 337.024161 -215.395557 
L 331.694577 -215.240945 
L 326.364993 -214.617141 
L 321.035409 -214.237448 
L 315.705826 -213.390545 
L 310.376242 -212.206899 
L 305.046658 -212.077954 
L 299.717075 -213.031171 
L 294.387491 -213.0807 
L 289.057907 -211.299762 
L 283.728323 -209.366741 
L 278.39874 -208.79025 
L 273.069156 -209.508865 
L 267.739572 -210.905242 
L 262.409988 -212.781955 
L 257.080405 -214.66565 
L 251.750821 -215.449442 
L 246.421237 -215.34259 
L 241.091653 -215.786838 
L 235.76207 -216.685669 
L 230.432486 -217.238615 
L 225.102902 -218.188916 
L 219.773318 -219.3609 
L 214.443735 -219.851932 
L 209.114151 -220.642833 
L 203.784567 -222.29403 
L 198.454983 -223.677881 
L 193.1254 -224.633622 
L 187.795816 -225.932673 
L 182.466232 -227.201571 
L 177.136648 -228.806581 
L 171.807065 -231.906989 
L 166.477481 -235.870974 
L 161.147897 -239.013949 
L 155.818313 -240.6816 
L 150.48873 -241.266466 
z
" id="m1505d702ae" style="stroke:#4c4c4c;stroke-width:1.5;"/>
    </defs>
    <g clip-path="url(#p7c6cb8e6eb)">
     <use style="fill:#df2020;stroke:#4c4c4c;stroke-width:1.5;" x="0" xlink:href="#m1505d702ae" y="400.04775"/>
    </g>
   </g>
   <g id="PolyCollection_3">
    <defs>
     <path d="M 149.969249 -159.779248 
L 149.969249 -159.953252 
L 155.309327 -160.300349 
L 160.649405 -161.304228 
L 165.989483 -163.261624 
L 171.329562 -165.787208 
L 176.66964 -167.768219 
L 182.009718 -168.745463 
L 187.349797 -169.54817 
L 192.689875 -170.702143 
L 198.029953 -171.941765 
L 203.370032 -173.303281 
L 208.71011 -174.583748 
L 214.050188 -175.368979 
L 219.390267 -176.215919 
L 224.730345 -177.830146 
L 230.070423 -179.694702 
L 235.410502 -181.259178 
L 240.75058 -182.560694 
L 246.090658 -183.173715 
L 251.430736 -183.316129 
L 256.770815 -184.295723 
L 262.110893 -186.412153 
L 267.450971 -188.49581 
L 272.79105 -189.548073 
L 278.131128 -189.455057 
L 283.471206 -188.627265 
L 288.811285 -187.687122 
L 294.151363 -187.35807 
L 299.491441 -187.941935 
L 304.83152 -188.520619 
L 310.171598 -188.371373 
L 315.511676 -188.099018 
L 320.851755 -188.6121 
L 326.191833 -189.591846 
L 331.531911 -189.680913 
L 336.871989 -188.929049 
L 342.212068 -188.245634 
L 347.552146 -187.79398 
L 352.892224 -186.927167 
L 358.232303 -185.232252 
L 363.572381 -183.590984 
L 368.912459 -182.949561 
L 374.252538 -183.337065 
L 379.592616 -184.140832 
L 384.932694 -184.067703 
L 390.272773 -182.563857 
L 395.612851 -180.669442 
L 400.952929 -179.179565 
L 406.293008 -178.008886 
L 411.633086 -177.521436 
L 416.973164 -177.920421 
L 422.313242 -177.838455 
L 427.653321 -176.038153 
L 432.993399 -173.406239 
L 438.333477 -171.229283 
L 443.673556 -169.676216 
L 449.013634 -168.815204 
L 454.353712 -168.450803 
L 459.693791 -168.137821 
L 465.033869 -167.830193 
L 470.373947 -167.417287 
L 475.714026 -166.708955 
L 481.054104 -166.023022 
L 486.394182 -165.742595 
L 491.734261 -165.561525 
L 497.074339 -164.987918 
L 502.414417 -164.043125 
L 507.754495 -163.162487 
L 513.094574 -162.656324 
L 518.434652 -162.413831 
L 523.77473 -162.184281 
L 529.114809 -161.906019 
L 534.454887 -161.666729 
L 539.794965 -161.526549 
L 545.135044 -161.461343 
L 550.475122 -161.43177 
L 555.8152 -161.398631 
L 561.155279 -161.366419 
L 566.495357 -161.405703 
L 571.835435 -161.433614 
L 577.175514 -161.359036 
L 582.515592 -161.289397 
L 587.85567 -161.235564 
L 593.195748 -161.088562 
L 598.535827 -160.890385 
L 603.875905 -160.753408 
L 609.215983 -160.671522 
L 614.556062 -160.602453 
L 619.89614 -160.553594 
L 625.236218 -160.479224 
L 630.576297 -160.328328 
L 635.916375 -160.160569 
L 641.256453 -160.039159 
L 646.596532 -159.966805 
L 651.93661 -159.934704 
L 657.276688 -159.93609 
L 662.616767 -159.946334 
L 667.956845 -159.931801 
L 673.296923 -159.898224 
L 678.637001 -159.875062 
L 678.637001 -159.857438 
L 678.637001 -159.857438 
L 673.296923 -159.834276 
L 667.956845 -159.800699 
L 662.616767 -159.786166 
L 657.276688 -159.79641 
L 651.93661 -159.797796 
L 646.596532 -159.765695 
L 641.256453 -159.693341 
L 635.916375 -159.571931 
L 630.576297 -159.404172 
L 625.236218 -159.253276 
L 619.89614 -159.178906 
L 614.556062 -159.130047 
L 609.215983 -159.060978 
L 603.875905 -158.979092 
L 598.535827 -158.842115 
L 593.195748 -158.643938 
L 587.85567 -158.496936 
L 582.515592 -158.443103 
L 577.175514 -158.373464 
L 571.835435 -158.298886 
L 566.495357 -158.326797 
L 561.155279 -158.366081 
L 555.8152 -158.333869 
L 550.475122 -158.30073 
L 545.135044 -158.271157 
L 539.794965 -158.205951 
L 534.454887 -158.065771 
L 529.114809 -157.826481 
L 523.77473 -157.548219 
L 518.434652 -157.318669 
L 513.094574 -157.076176 
L 507.754495 -156.570013 
L 502.414417 -155.689375 
L 497.074339 -154.744582 
L 491.734261 -154.170975 
L 486.394182 -153.989905 
L 481.054104 -153.709478 
L 475.714026 -153.023545 
L 470.373947 -152.315213 
L 465.033869 -151.902307 
L 459.693791 -151.594679 
L 454.353712 -151.281697 
L 449.013634 -150.917296 
L 443.673556 -150.056284 
L 438.333477 -148.503217 
L 432.993399 -146.326261 
L 427.653321 -143.694347 
L 422.313242 -141.894045 
L 416.973164 -141.812079 
L 411.633086 -142.211064 
L 406.293008 -141.723614 
L 400.952929 -140.552935 
L 395.612851 -139.063058 
L 390.272773 -137.168643 
L 384.932694 -135.664797 
L 379.592616 -135.591668 
L 374.252538 -136.395435 
L 368.912459 -136.782939 
L 363.572381 -136.141516 
L 358.232303 -134.500248 
L 352.892224 -132.805333 
L 347.552146 -131.93852 
L 342.212068 -131.486866 
L 336.871989 -130.803451 
L 331.531911 -130.051587 
L 326.191833 -130.140654 
L 320.851755 -131.1204 
L 315.511676 -131.633482 
L 310.171598 -131.361127 
L 304.83152 -131.211881 
L 299.491441 -131.790565 
L 294.151363 -132.37443 
L 288.811285 -132.045378 
L 283.471206 -131.105235 
L 278.131128 -130.277443 
L 272.79105 -130.184427 
L 267.450971 -131.23669 
L 262.110893 -133.320347 
L 256.770815 -135.436777 
L 251.430736 -136.416371 
L 246.090658 -136.558785 
L 240.75058 -137.171806 
L 235.410502 -138.473322 
L 230.070423 -140.037798 
L 224.730345 -141.902354 
L 219.390267 -143.516581 
L 214.050188 -144.363521 
L 208.71011 -145.148752 
L 203.370032 -146.429219 
L 198.029953 -147.790735 
L 192.689875 -149.030357 
L 187.349797 -150.18433 
L 182.009718 -150.987037 
L 176.66964 -151.964281 
L 171.329562 -153.945292 
L 165.989483 -156.470876 
L 160.649405 -158.428272 
L 155.309327 -159.432151 
L 149.969249 -159.779248 
z
" id="mb5f5f5d1c6" style="stroke:#4c4c4c;stroke-width:1.5;"/>
    </defs>
    <g clip-path="url(#p7c6cb8e6eb)">
     <use style="fill:#df2020;stroke:#4c4c4c;stroke-width:1.5;" x="0" xlink:href="#mb5f5f5d1c6" y="400.04775"/>
    </g>
   </g>
   <g id="PolyCollection_4">
    <defs>
     <path d="M 149.256386 -78.282768 
L 149.256386 -78.369732 
L 154.610865 -78.577605 
L 159.965345 -79.33225 
L 165.319824 -81.070085 
L 170.674304 -83.390124 
L 176.028784 -84.922045 
L 181.383263 -85.237521 
L 186.737743 -85.52272 
L 192.092222 -86.523159 
L 197.446702 -87.755191 
L 202.801181 -88.90026 
L 208.155661 -89.828595 
L 213.510141 -90.357965 
L 218.86462 -91.349641 
L 224.2191 -93.765296 
L 229.573579 -96.627829 
L 234.928059 -98.370467 
L 240.282539 -99.114934 
L 245.637018 -99.525056 
L 250.991498 -99.84693 
L 256.345977 -100.804876 
L 261.700457 -102.877 
L 267.054936 -105.211098 
L 272.409416 -106.801114 
L 277.763896 -107.451221 
L 283.118375 -107.316697 
L 288.472855 -106.704174 
L 293.827334 -106.223318 
L 299.181814 -106.285499 
L 304.536294 -106.179527 
L 309.890773 -105.165515 
L 315.245253 -103.946884 
L 320.599732 -103.668229 
L 325.954212 -104.460297 
L 331.308691 -105.689353 
L 336.663171 -106.850583 
L 342.017651 -107.495727 
L 347.37213 -107.365812 
L 352.72661 -106.338302 
L 358.081089 -104.563637 
L 363.435569 -103.270384 
L 368.790049 -103.440428 
L 374.144528 -104.509306 
L 379.499008 -105.544815 
L 384.853487 -105.530395 
L 390.207967 -103.770654 
L 395.562446 -101.263955 
L 400.916926 -99.384049 
L 406.271406 -98.13267 
L 411.625885 -97.399507 
L 416.980365 -97.304364 
L 422.334844 -97.045861 
L 427.689324 -95.702673 
L 433.043804 -93.574214 
L 438.398283 -91.419125 
L 443.752763 -89.566386 
L 449.107242 -88.321491 
L 454.461722 -87.756105 
L 459.816201 -87.56942 
L 465.170681 -87.441789 
L 470.525161 -87.064625 
L 475.87964 -86.389551 
L 481.23412 -85.978429 
L 486.588599 -86.221875 
L 491.943079 -86.259728 
L 497.297559 -85.199032 
L 502.652038 -83.607665 
L 508.006518 -82.362181 
L 513.360997 -81.554861 
L 518.715477 -81.032533 
L 524.069956 -80.768272 
L 529.424436 -80.6514 
L 534.778916 -80.494388 
L 540.133395 -80.30784 
L 545.487875 -80.230332 
L 550.842354 -80.247137 
L 556.196834 -80.252813 
L 561.551314 -80.2454 
L 566.905793 -80.277782 
L 572.260273 -80.278499 
L 577.614752 -80.191009 
L 582.969232 -80.114456 
L 588.323711 -80.072858 
L 593.678191 -79.915319 
L 599.032671 -79.617251 
L 604.38715 -79.362295 
L 609.74163 -79.23863 
L 615.096109 -79.192197 
L 620.450589 -79.159578 
L 625.805069 -79.055747 
L 631.159548 -78.867653 
L 636.514028 -78.693108 
L 641.868507 -78.577349 
L 647.222987 -78.496759 
L 652.577466 -78.436963 
L 657.931946 -78.398588 
L 663.286426 -78.377233 
L 668.640905 -78.359298 
L 673.995385 -78.341486 
L 679.349864 -78.330609 
L 679.349864 -78.321891 
L 679.349864 -78.321891 
L 673.995385 -78.311014 
L 668.640905 -78.293202 
L 663.286426 -78.275267 
L 657.931946 -78.253912 
L 652.577466 -78.215537 
L 647.222987 -78.155741 
L 641.868507 -78.075151 
L 636.514028 -77.959392 
L 631.159548 -77.784847 
L 625.805069 -77.596753 
L 620.450589 -77.492922 
L 615.096109 -77.460303 
L 609.74163 -77.41387 
L 604.38715 -77.290205 
L 599.032671 -77.035249 
L 593.678191 -76.737181 
L 588.323711 -76.579642 
L 582.969232 -76.538044 
L 577.614752 -76.461491 
L 572.260273 -76.374001 
L 566.905793 -76.374718 
L 561.551314 -76.4071 
L 556.196834 -76.399687 
L 550.842354 -76.405363 
L 545.487875 -76.422168 
L 540.133395 -76.34466 
L 534.778916 -76.158112 
L 529.424436 -76.0011 
L 524.069956 -75.884228 
L 518.715477 -75.619967 
L 513.360997 -75.097639 
L 508.006518 -74.290319 
L 502.652038 -73.044835 
L 497.297559 -71.453468 
L 491.943079 -70.392772 
L 486.588599 -70.430625 
L 481.23412 -70.674071 
L 475.87964 -70.262949 
L 470.525161 -69.587875 
L 465.170681 -69.210711 
L 459.816201 -69.08308 
L 454.461722 -68.896395 
L 449.107242 -68.331009 
L 443.752763 -67.086114 
L 438.398283 -65.233375 
L 433.043804 -63.078286 
L 427.689324 -60.949827 
L 422.334844 -59.606639 
L 416.980365 -59.348136 
L 411.625885 -59.252993 
L 406.271406 -58.51983 
L 400.916926 -57.268451 
L 395.562446 -55.388545 
L 390.207967 -52.881846 
L 384.853487 -51.122105 
L 379.499008 -51.107685 
L 374.144528 -52.143194 
L 368.790049 -53.212072 
L 363.435569 -53.382116 
L 358.081089 -52.088863 
L 352.72661 -50.314198 
L 347.37213 -49.286688 
L 342.017651 -49.156773 
L 336.663171 -49.801917 
L 331.308691 -50.963147 
L 325.954212 -52.192203 
L 320.599732 -52.984271 
L 315.245253 -52.705616 
L 309.890773 -51.486985 
L 304.536294 -50.472973 
L 299.181814 -50.367001 
L 293.827334 -50.429182 
L 288.472855 -49.948326 
L 283.118375 -49.335803 
L 277.763896 -49.201279 
L 272.409416 -49.851386 
L 267.054936 -51.441402 
L 261.700457 -53.7755 
L 256.345977 -55.847624 
L 250.991498 -56.80557 
L 245.637018 -57.127444 
L 240.282539 -57.537566 
L 234.928059 -58.282033 
L 229.573579 -60.024671 
L 224.2191 -62.887204 
L 218.86462 -65.302859 
L 213.510141 -66.294535 
L 208.155661 -66.823905 
L 202.801181 -67.75224 
L 197.446702 -68.897309 
L 192.092222 -70.129341 
L 186.737743 -71.12978 
L 181.383263 -71.414979 
L 176.028784 -71.730455 
L 170.674304 -73.262376 
L 165.319824 -75.582415 
L 159.965345 -77.32025 
L 154.610865 -78.074895 
L 149.256386 -78.282768 
z
" id="m4fbdbabe94" style="stroke:#4c4c4c;stroke-width:1.5;"/>
    </defs>
    <g clip-path="url(#p7c6cb8e6eb)">
     <use style="fill:#df2020;stroke:#4c4c4c;stroke-width:1.5;" x="0" xlink:href="#m4fbdbabe94" y="400.04775"/>
    </g>
   </g>
   <g id="matplotlib.axis_1">
    <g id="xtick_1">
     <g id="line2d_1">
      <defs>
       <path d="M 0 0 
L 0 3.5 
" id="mc3577c0afa" style="stroke:#000000;stroke-width:0.8;"/>
      </defs>
      <g>
       <use style="stroke:#000000;stroke-width:0.8;" x="147.791426" xlink:href="#mc3577c0afa" y="362.4915"/>
      </g>
     </g>
     <g id="text_1">
      <!-- 0.0 -->
      <defs>
       <path d="M 31.78125 66.40625 
Q 24.171875 66.40625 20.328125 58.90625 
Q 16.5 51.421875 16.5 36.375 
Q 16.5 21.390625 20.328125 13.890625 
Q 24.171875 6.390625 31.78125 6.390625 
Q 39.453125 6.390625 43.28125 13.890625 
Q 47.125 21.390625 47.125 36.375 
Q 47.125 51.421875 43.28125 58.90625 
Q 39.453125 66.40625 31.78125 66.40625 
z
M 31.78125 74.21875 
Q 44.046875 74.21875 50.515625 64.515625 
Q 56.984375 54.828125 56.984375 36.375 
Q 56.984375 17.96875 50.515625 8.265625 
Q 44.046875 -1.421875 31.78125 -1.421875 
Q 19.53125 -1.421875 13.0625 8.265625 
Q 6.59375 17.96875 6.59375 36.375 
Q 6.59375 54.828125 13.0625 64.515625 
Q 19.53125 74.21875 31.78125 74.21875 
z
" id="DejaVuSans-48"/>
       <path d="M 10.6875 12.40625 
L 21 12.40625 
L 21 0 
L 10.6875 0 
z
" id="DejaVuSans-46"/>
      </defs>
      <g transform="translate(139.839864 377.089938)scale(0.1 -0.1)">
       <use xlink:href="#DejaVuSans-48"/>
       <use x="63.623047" xlink:href="#DejaVuSans-46"/>
       <use x="95.410156" xlink:href="#DejaVuSans-48"/>
      </g>
     </g>
    </g>
    <g id="xtick_2">
     <g id="line2d_2">
      <g>
       <use style="stroke:#000000;stroke-width:0.8;" x="261.321436" xlink:href="#mc3577c0afa" y="362.4915"/>
      </g>
     </g>
     <g id="text_2">
      <!-- 0.2 -->
      <defs>
       <path d="M 19.1875 8.296875 
L 53.609375 8.296875 
L 53.609375 0 
L 7.328125 0 
L 7.328125 8.296875 
Q 12.9375 14.109375 22.625 23.890625 
Q 32.328125 33.6875 34.8125 36.53125 
Q 39.546875 41.84375 41.421875 45.53125 
Q 43.3125 49.21875 43.3125 52.78125 
Q 43.3125 58.59375 39.234375 62.25 
Q 35.15625 65.921875 28.609375 65.921875 
Q 23.96875 65.921875 18.8125 64.3125 
Q 13.671875 62.703125 7.8125 59.421875 
L 7.8125 69.390625 
Q 13.765625 71.78125 18.9375 73 
Q 24.125 74.21875 28.421875 74.21875 
Q 39.75 74.21875 46.484375 68.546875 
Q 53.21875 62.890625 53.21875 53.421875 
Q 53.21875 48.921875 51.53125 44.890625 
Q 49.859375 40.875 45.40625 35.40625 
Q 44.1875 33.984375 37.640625 27.21875 
Q 31.109375 20.453125 19.1875 8.296875 
z
" id="DejaVuSans-50"/>
      </defs>
      <g transform="translate(253.369874 377.089938)scale(0.1 -0.1)">
       <use xlink:href="#DejaVuSans-48"/>
       <use x="63.623047" xlink:href="#DejaVuSans-46"/>
       <use x="95.410156" xlink:href="#DejaVuSans-50"/>
      </g>
     </g>
    </g>
    <g id="xtick_3">
     <g id="line2d_3">
      <g>
       <use style="stroke:#000000;stroke-width:0.8;" x="374.851446" xlink:href="#mc3577c0afa" y="362.4915"/>
      </g>
     </g>
     <g id="text_3">
      <!-- 0.4 -->
      <defs>
       <path d="M 37.796875 64.3125 
L 12.890625 25.390625 
L 37.796875 25.390625 
z
M 35.203125 72.90625 
L 47.609375 72.90625 
L 47.609375 25.390625 
L 58.015625 25.390625 
L 58.015625 17.1875 
L 47.609375 17.1875 
L 47.609375 0 
L 37.796875 0 
L 37.796875 17.1875 
L 4.890625 17.1875 
L 4.890625 26.703125 
z
" id="DejaVuSans-52"/>
      </defs>
      <g transform="translate(366.899884 377.089938)scale(0.1 -0.1)">
       <use xlink:href="#DejaVuSans-48"/>
       <use x="63.623047" xlink:href="#DejaVuSans-46"/>
       <use x="95.410156" xlink:href="#DejaVuSans-52"/>
      </g>
     </g>
    </g>
    <g id="xtick_4">
     <g id="line2d_4">
      <g>
       <use style="stroke:#000000;stroke-width:0.8;" x="488.381457" xlink:href="#mc3577c0afa" y="362.4915"/>
      </g>
     </g>
     <g id="text_4">
      <!-- 0.6 -->
      <defs>
       <path d="M 33.015625 40.375 
Q 26.375 40.375 22.484375 35.828125 
Q 18.609375 31.296875 18.609375 23.390625 
Q 18.609375 15.53125 22.484375 10.953125 
Q 26.375 6.390625 33.015625 6.390625 
Q 39.65625 6.390625 43.53125 10.953125 
Q 47.40625 15.53125 47.40625 23.390625 
Q 47.40625 31.296875 43.53125 35.828125 
Q 39.65625 40.375 33.015625 40.375 
z
M 52.59375 71.296875 
L 52.59375 62.3125 
Q 48.875 64.0625 45.09375 64.984375 
Q 41.3125 65.921875 37.59375 65.921875 
Q 27.828125 65.921875 22.671875 59.328125 
Q 17.53125 52.734375 16.796875 39.40625 
Q 19.671875 43.65625 24.015625 45.921875 
Q 28.375 48.1875 33.59375 48.1875 
Q 44.578125 48.1875 50.953125 41.515625 
Q 57.328125 34.859375 57.328125 23.390625 
Q 57.328125 12.15625 50.6875 5.359375 
Q 44.046875 -1.421875 33.015625 -1.421875 
Q 20.359375 -1.421875 13.671875 8.265625 
Q 6.984375 17.96875 6.984375 36.375 
Q 6.984375 53.65625 15.1875 63.9375 
Q 23.390625 74.21875 37.203125 74.21875 
Q 40.921875 74.21875 44.703125 73.484375 
Q 48.484375 72.75 52.59375 71.296875 
z
" id="DejaVuSans-54"/>
      </defs>
      <g transform="translate(480.429894 377.089938)scale(0.1 -0.1)">
       <use xlink:href="#DejaVuSans-48"/>
       <use x="63.623047" xlink:href="#DejaVuSans-46"/>
       <use x="95.410156" xlink:href="#DejaVuSans-54"/>
      </g>
     </g>
    </g>
    <g id="xtick_5">
     <g id="line2d_5">
      <g>
       <use style="stroke:#000000;stroke-width:0.8;" x="601.911467" xlink:href="#mc3577c0afa" y="362.4915"/>
      </g>
     </g>
     <g id="text_5">
      <!-- 0.8 -->
      <defs>
       <path d="M 31.78125 34.625 
Q 24.75 34.625 20.71875 30.859375 
Q 16.703125 27.09375 16.703125 20.515625 
Q 16.703125 13.921875 20.71875 10.15625 
Q 24.75 6.390625 31.78125 6.390625 
Q 38.8125 6.390625 42.859375 10.171875 
Q 46.921875 13.96875 46.921875 20.515625 
Q 46.921875 27.09375 42.890625 30.859375 
Q 38.875 34.625 31.78125 34.625 
z
M 21.921875 38.8125 
Q 15.578125 40.375 12.03125 44.71875 
Q 8.5 49.078125 8.5 55.328125 
Q 8.5 64.0625 14.71875 69.140625 
Q 20.953125 74.21875 31.78125 74.21875 
Q 42.671875 74.21875 48.875 69.140625 
Q 55.078125 64.0625 55.078125 55.328125 
Q 55.078125 49.078125 51.53125 44.71875 
Q 48 40.375 41.703125 38.8125 
Q 48.828125 37.15625 52.796875 32.3125 
Q 56.78125 27.484375 56.78125 20.515625 
Q 56.78125 9.90625 50.3125 4.234375 
Q 43.84375 -1.421875 31.78125 -1.421875 
Q 19.734375 -1.421875 13.25 4.234375 
Q 6.78125 9.90625 6.78125 20.515625 
Q 6.78125 27.484375 10.78125 32.3125 
Q 14.796875 37.15625 21.921875 38.8125 
z
M 18.3125 54.390625 
Q 18.3125 48.734375 21.84375 45.5625 
Q 25.390625 42.390625 31.78125 42.390625 
Q 38.140625 42.390625 41.71875 45.5625 
Q 45.3125 48.734375 45.3125 54.390625 
Q 45.3125 60.0625 41.71875 63.234375 
Q 38.140625 66.40625 31.78125 66.40625 
Q 25.390625 66.40625 21.84375 63.234375 
Q 18.3125 60.0625 18.3125 54.390625 
z
" id="DejaVuSans-56"/>
      </defs>
      <g transform="translate(593.959904 377.089938)scale(0.1 -0.1)">
       <use xlink:href="#DejaVuSans-48"/>
       <use x="63.623047" xlink:href="#DejaVuSans-46"/>
       <use x="95.410156" xlink:href="#DejaVuSans-56"/>
      </g>
     </g>
    </g>
    <g id="text_6">
     <!-- ICSE -->
     <defs>
      <path d="M 9.8125 72.90625 
L 19.671875 72.90625 
L 19.671875 0 
L 9.8125 0 
z
" id="DejaVuSans-73"/>
      <path d="M 64.40625 67.28125 
L 64.40625 56.890625 
Q 59.421875 61.53125 53.78125 63.8125 
Q 48.140625 66.109375 41.796875 66.109375 
Q 29.296875 66.109375 22.65625 58.46875 
Q 16.015625 50.828125 16.015625 36.375 
Q 16.015625 21.96875 22.65625 14.328125 
Q 29.296875 6.6875 41.796875 6.6875 
Q 48.140625 6.6875 53.78125 8.984375 
Q 59.421875 11.28125 64.40625 15.921875 
L 64.40625 5.609375 
Q 59.234375 2.09375 53.4375 0.328125 
Q 47.65625 -1.421875 41.21875 -1.421875 
Q 24.65625 -1.421875 15.125 8.703125 
Q 5.609375 18.84375 5.609375 36.375 
Q 5.609375 53.953125 15.125 64.078125 
Q 24.65625 74.21875 41.21875 74.21875 
Q 47.75 74.21875 53.53125 72.484375 
Q 59.328125 70.75 64.40625 67.28125 
z
" id="DejaVuSans-67"/>
      <path d="M 53.515625 70.515625 
L 53.515625 60.890625 
Q 47.90625 63.578125 42.921875 64.890625 
Q 37.9375 66.21875 33.296875 66.21875 
Q 25.25 66.21875 20.875 63.09375 
Q 16.5 59.96875 16.5 54.203125 
Q 16.5 49.359375 19.40625 46.890625 
Q 22.3125 44.4375 30.421875 42.921875 
L 36.375 41.703125 
Q 47.40625 39.59375 52.65625 34.296875 
Q 57.90625 29 57.90625 20.125 
Q 57.90625 9.515625 50.796875 4.046875 
Q 43.703125 -1.421875 29.984375 -1.421875 
Q 24.8125 -1.421875 18.96875 -0.25 
Q 13.140625 0.921875 6.890625 3.21875 
L 6.890625 13.375 
Q 12.890625 10.015625 18.65625 8.296875 
Q 24.421875 6.59375 29.984375 6.59375 
Q 38.421875 6.59375 43.015625 9.90625 
Q 47.609375 13.234375 47.609375 19.390625 
Q 47.609375 24.75 44.3125 27.78125 
Q 41.015625 30.8125 33.5 32.328125 
L 27.484375 33.5 
Q 16.453125 35.6875 11.515625 40.375 
Q 6.59375 45.0625 6.59375 53.421875 
Q 6.59375 63.09375 13.40625 68.65625 
Q 20.21875 74.21875 32.171875 74.21875 
Q 37.3125 74.21875 42.625 73.28125 
Q 47.953125 72.359375 53.515625 70.515625 
z
" id="DejaVuSans-83"/>
      <path d="M 9.8125 72.90625 
L 55.90625 72.90625 
L 55.90625 64.59375 
L 19.671875 64.59375 
L 19.671875 43.015625 
L 54.390625 43.015625 
L 54.390625 34.71875 
L 19.671875 34.71875 
L 19.671875 8.296875 
L 56.78125 8.296875 
L 56.78125 0 
L 9.8125 0 
z
" id="DejaVuSans-69"/>
     </defs>
     <g transform="translate(403.003125 390.768062)scale(0.1 -0.1)">
      <use xlink:href="#DejaVuSans-73"/>
      <use x="29.492188" xlink:href="#DejaVuSans-67"/>
      <use x="99.316406" xlink:href="#DejaVuSans-83"/>
      <use x="162.792969" xlink:href="#DejaVuSans-69"/>
     </g>
    </g>
   </g>
   <g id="matplotlib.axis_2">
    <g id="ytick_1">
     <g id="line2d_6">
      <defs>
       <path d="M 0 0 
L -3.5 0 
" id="m2c28c50c3f" style="stroke:#000000;stroke-width:0.8;"/>
      </defs>
      <g>
       <use style="stroke:#000000;stroke-width:0.8;" x="135.303125" xlink:href="#m2c28c50c3f" y="77.1015"/>
      </g>
     </g>
     <g id="text_7">
      <!-- Avanzado -->
      <defs>
       <path d="M 34.1875 63.1875 
L 20.796875 26.90625 
L 47.609375 26.90625 
z
M 28.609375 72.90625 
L 39.796875 72.90625 
L 67.578125 0 
L 57.328125 0 
L 50.6875 18.703125 
L 17.828125 18.703125 
L 11.1875 0 
L 0.78125 0 
z
" id="DejaVuSans-65"/>
       <path d="M 2.984375 54.6875 
L 12.5 54.6875 
L 29.59375 8.796875 
L 46.6875 54.6875 
L 56.203125 54.6875 
L 35.6875 0 
L 23.484375 0 
z
" id="DejaVuSans-118"/>
       <path d="M 34.28125 27.484375 
Q 23.390625 27.484375 19.1875 25 
Q 14.984375 22.515625 14.984375 16.5 
Q 14.984375 11.71875 18.140625 8.90625 
Q 21.296875 6.109375 26.703125 6.109375 
Q 34.1875 6.109375 38.703125 11.40625 
Q 43.21875 16.703125 43.21875 25.484375 
L 43.21875 27.484375 
z
M 52.203125 31.203125 
L 52.203125 0 
L 43.21875 0 
L 43.21875 8.296875 
Q 40.140625 3.328125 35.546875 0.953125 
Q 30.953125 -1.421875 24.3125 -1.421875 
Q 15.921875 -1.421875 10.953125 3.296875 
Q 6 8.015625 6 15.921875 
Q 6 25.140625 12.171875 29.828125 
Q 18.359375 34.515625 30.609375 34.515625 
L 43.21875 34.515625 
L 43.21875 35.40625 
Q 43.21875 41.609375 39.140625 45 
Q 35.0625 48.390625 27.6875 48.390625 
Q 23 48.390625 18.546875 47.265625 
Q 14.109375 46.140625 10.015625 43.890625 
L 10.015625 52.203125 
Q 14.9375 54.109375 19.578125 55.046875 
Q 24.21875 56 28.609375 56 
Q 40.484375 56 46.34375 49.84375 
Q 52.203125 43.703125 52.203125 31.203125 
z
" id="DejaVuSans-97"/>
       <path d="M 54.890625 33.015625 
L 54.890625 0 
L 45.90625 0 
L 45.90625 32.71875 
Q 45.90625 40.484375 42.875 44.328125 
Q 39.84375 48.1875 33.796875 48.1875 
Q 26.515625 48.1875 22.3125 43.546875 
Q 18.109375 38.921875 18.109375 30.90625 
L 18.109375 0 
L 9.078125 0 
L 9.078125 54.6875 
L 18.109375 54.6875 
L 18.109375 46.1875 
Q 21.34375 51.125 25.703125 53.5625 
Q 30.078125 56 35.796875 56 
Q 45.21875 56 50.046875 50.171875 
Q 54.890625 44.34375 54.890625 33.015625 
z
" id="DejaVuSans-110"/>
       <path d="M 5.515625 54.6875 
L 48.1875 54.6875 
L 48.1875 46.484375 
L 14.40625 7.171875 
L 48.1875 7.171875 
L 48.1875 0 
L 4.296875 0 
L 4.296875 8.203125 
L 38.09375 47.515625 
L 5.515625 47.515625 
z
" id="DejaVuSans-122"/>
       <path d="M 45.40625 46.390625 
L 45.40625 75.984375 
L 54.390625 75.984375 
L 54.390625 0 
L 45.40625 0 
L 45.40625 8.203125 
Q 42.578125 3.328125 38.25 0.953125 
Q 33.9375 -1.421875 27.875 -1.421875 
Q 17.96875 -1.421875 11.734375 6.484375 
Q 5.515625 14.40625 5.515625 27.296875 
Q 5.515625 40.1875 11.734375 48.09375 
Q 17.96875 56 27.875 56 
Q 33.9375 56 38.25 53.625 
Q 42.578125 51.265625 45.40625 46.390625 
z
M 14.796875 27.296875 
Q 14.796875 17.390625 18.875 11.75 
Q 22.953125 6.109375 30.078125 6.109375 
Q 37.203125 6.109375 41.296875 11.75 
Q 45.40625 17.390625 45.40625 27.296875 
Q 45.40625 37.203125 41.296875 42.84375 
Q 37.203125 48.484375 30.078125 48.484375 
Q 22.953125 48.484375 18.875 42.84375 
Q 14.796875 37.203125 14.796875 27.296875 
z
" id="DejaVuSans-100"/>
       <path d="M 30.609375 48.390625 
Q 23.390625 48.390625 19.1875 42.75 
Q 14.984375 37.109375 14.984375 27.296875 
Q 14.984375 17.484375 19.15625 11.84375 
Q 23.34375 6.203125 30.609375 6.203125 
Q 37.796875 6.203125 41.984375 11.859375 
Q 46.1875 17.53125 46.1875 27.296875 
Q 46.1875 37.015625 41.984375 42.703125 
Q 37.796875 48.390625 30.609375 48.390625 
z
M 30.609375 56 
Q 42.328125 56 49.015625 48.375 
Q 55.71875 40.765625 55.71875 27.296875 
Q 55.71875 13.875 49.015625 6.21875 
Q 42.328125 -1.421875 30.609375 -1.421875 
Q 18.84375 -1.421875 12.171875 6.21875 
Q 5.515625 13.875 5.515625 27.296875 
Q 5.515625 40.765625 12.171875 48.375 
Q 18.84375 56 30.609375 56 
z
" id="DejaVuSans-111"/>
      </defs>
      <g transform="translate(79.242188 80.900719)scale(0.1 -0.1)">
       <use xlink:href="#DejaVuSans-65"/>
       <use x="68.330078" xlink:href="#DejaVuSans-118"/>
       <use x="127.509766" xlink:href="#DejaVuSans-97"/>
       <use x="188.789062" xlink:href="#DejaVuSans-110"/>
       <use x="252.167969" xlink:href="#DejaVuSans-122"/>
       <use x="304.658203" xlink:href="#DejaVuSans-97"/>
       <use x="365.9375" xlink:href="#DejaVuSans-100"/>
       <use x="429.414062" xlink:href="#DejaVuSans-111"/>
      </g>
     </g>
    </g>
    <g id="ytick_2">
     <g id="line2d_7">
      <g>
       <use style="stroke:#000000;stroke-width:0.8;" x="135.303125" xlink:href="#m2c28c50c3f" y="158.6415"/>
      </g>
     </g>
     <g id="text_8">
      <!-- Satisfactorio -->
      <defs>
       <path d="M 18.3125 70.21875 
L 18.3125 54.6875 
L 36.8125 54.6875 
L 36.8125 47.703125 
L 18.3125 47.703125 
L 18.3125 18.015625 
Q 18.3125 11.328125 20.140625 9.421875 
Q 21.96875 7.515625 27.59375 7.515625 
L 36.8125 7.515625 
L 36.8125 0 
L 27.59375 0 
Q 17.1875 0 13.234375 3.875 
Q 9.28125 7.765625 9.28125 18.015625 
L 9.28125 47.703125 
L 2.6875 47.703125 
L 2.6875 54.6875 
L 9.28125 54.6875 
L 9.28125 70.21875 
z
" id="DejaVuSans-116"/>
       <path d="M 9.421875 54.6875 
L 18.40625 54.6875 
L 18.40625 0 
L 9.421875 0 
z
M 9.421875 75.984375 
L 18.40625 75.984375 
L 18.40625 64.59375 
L 9.421875 64.59375 
z
" id="DejaVuSans-105"/>
       <path d="M 44.28125 53.078125 
L 44.28125 44.578125 
Q 40.484375 46.53125 36.375 47.5 
Q 32.28125 48.484375 27.875 48.484375 
Q 21.1875 48.484375 17.84375 46.4375 
Q 14.5 44.390625 14.5 40.28125 
Q 14.5 37.15625 16.890625 35.375 
Q 19.28125 33.59375 26.515625 31.984375 
L 29.59375 31.296875 
Q 39.15625 29.25 43.1875 25.515625 
Q 47.21875 21.78125 47.21875 15.09375 
Q 47.21875 7.46875 41.1875 3.015625 
Q 35.15625 -1.421875 24.609375 -1.421875 
Q 20.21875 -1.421875 15.453125 -0.5625 
Q 10.6875 0.296875 5.421875 2 
L 5.421875 11.28125 
Q 10.40625 8.6875 15.234375 7.390625 
Q 20.0625 6.109375 24.8125 6.109375 
Q 31.15625 6.109375 34.5625 8.28125 
Q 37.984375 10.453125 37.984375 14.40625 
Q 37.984375 18.0625 35.515625 20.015625 
Q 33.0625 21.96875 24.703125 23.78125 
L 21.578125 24.515625 
Q 13.234375 26.265625 9.515625 29.90625 
Q 5.8125 33.546875 5.8125 39.890625 
Q 5.8125 47.609375 11.28125 51.796875 
Q 16.75 56 26.8125 56 
Q 31.78125 56 36.171875 55.265625 
Q 40.578125 54.546875 44.28125 53.078125 
z
" id="DejaVuSans-115"/>
       <path d="M 37.109375 75.984375 
L 37.109375 68.5 
L 28.515625 68.5 
Q 23.6875 68.5 21.796875 66.546875 
Q 19.921875 64.59375 19.921875 59.515625 
L 19.921875 54.6875 
L 34.71875 54.6875 
L 34.71875 47.703125 
L 19.921875 47.703125 
L 19.921875 0 
L 10.890625 0 
L 10.890625 47.703125 
L 2.296875 47.703125 
L 2.296875 54.6875 
L 10.890625 54.6875 
L 10.890625 58.5 
Q 10.890625 67.625 15.140625 71.796875 
Q 19.390625 75.984375 28.609375 75.984375 
z
" id="DejaVuSans-102"/>
       <path d="M 48.78125 52.59375 
L 48.78125 44.1875 
Q 44.96875 46.296875 41.140625 47.34375 
Q 37.3125 48.390625 33.40625 48.390625 
Q 24.65625 48.390625 19.8125 42.84375 
Q 14.984375 37.3125 14.984375 27.296875 
Q 14.984375 17.28125 19.8125 11.734375 
Q 24.65625 6.203125 33.40625 6.203125 
Q 37.3125 6.203125 41.140625 7.25 
Q 44.96875 8.296875 48.78125 10.40625 
L 48.78125 2.09375 
Q 45.015625 0.34375 40.984375 -0.53125 
Q 36.96875 -1.421875 32.421875 -1.421875 
Q 20.0625 -1.421875 12.78125 6.34375 
Q 5.515625 14.109375 5.515625 27.296875 
Q 5.515625 40.671875 12.859375 48.328125 
Q 20.21875 56 33.015625 56 
Q 37.15625 56 41.109375 55.140625 
Q 45.0625 54.296875 48.78125 52.59375 
z
" id="DejaVuSans-99"/>
       <path d="M 41.109375 46.296875 
Q 39.59375 47.171875 37.8125 47.578125 
Q 36.03125 48 33.890625 48 
Q 26.265625 48 22.1875 43.046875 
Q 18.109375 38.09375 18.109375 28.8125 
L 18.109375 0 
L 9.078125 0 
L 9.078125 54.6875 
L 18.109375 54.6875 
L 18.109375 46.1875 
Q 20.953125 51.171875 25.484375 53.578125 
Q 30.03125 56 36.53125 56 
Q 37.453125 56 38.578125 55.875 
Q 39.703125 55.765625 41.0625 55.515625 
z
" id="DejaVuSans-114"/>
      </defs>
      <g transform="translate(65.725 162.440719)scale(0.1 -0.1)">
       <use xlink:href="#DejaVuSans-83"/>
       <use x="63.476562" xlink:href="#DejaVuSans-97"/>
       <use x="124.755859" xlink:href="#DejaVuSans-116"/>
       <use x="163.964844" xlink:href="#DejaVuSans-105"/>
       <use x="191.748047" xlink:href="#DejaVuSans-115"/>
       <use x="243.847656" xlink:href="#DejaVuSans-102"/>
       <use x="279.052734" xlink:href="#DejaVuSans-97"/>
       <use x="340.332031" xlink:href="#DejaVuSans-99"/>
       <use x="395.3125" xlink:href="#DejaVuSans-116"/>
       <use x="434.521484" xlink:href="#DejaVuSans-111"/>
       <use x="495.703125" xlink:href="#DejaVuSans-114"/>
       <use x="536.816406" xlink:href="#DejaVuSans-105"/>
       <use x="564.599609" xlink:href="#DejaVuSans-111"/>
      </g>
     </g>
    </g>
    <g id="ytick_3">
     <g id="line2d_8">
      <g>
       <use style="stroke:#000000;stroke-width:0.8;" x="135.303125" xlink:href="#m2c28c50c3f" y="240.1815"/>
      </g>
     </g>
     <g id="text_9">
      <!-- B치sico -->
      <defs>
       <path d="M 19.671875 34.8125 
L 19.671875 8.109375 
L 35.5 8.109375 
Q 43.453125 8.109375 47.28125 11.40625 
Q 51.125 14.703125 51.125 21.484375 
Q 51.125 28.328125 47.28125 31.5625 
Q 43.453125 34.8125 35.5 34.8125 
z
M 19.671875 64.796875 
L 19.671875 42.828125 
L 34.28125 42.828125 
Q 41.5 42.828125 45.03125 45.53125 
Q 48.578125 48.25 48.578125 53.8125 
Q 48.578125 59.328125 45.03125 62.0625 
Q 41.5 64.796875 34.28125 64.796875 
z
M 9.8125 72.90625 
L 35.015625 72.90625 
Q 46.296875 72.90625 52.390625 68.21875 
Q 58.5 63.53125 58.5 54.890625 
Q 58.5 48.1875 55.375 44.234375 
Q 52.25 40.28125 46.1875 39.3125 
Q 53.46875 37.75 57.5 32.78125 
Q 61.53125 27.828125 61.53125 20.40625 
Q 61.53125 10.640625 54.890625 5.3125 
Q 48.25 0 35.984375 0 
L 9.8125 0 
z
" id="DejaVuSans-66"/>
       <path d="M 34.28125 27.484375 
Q 23.390625 27.484375 19.1875 25 
Q 14.984375 22.515625 14.984375 16.5 
Q 14.984375 11.71875 18.140625 8.90625 
Q 21.296875 6.109375 26.703125 6.109375 
Q 34.1875 6.109375 38.703125 11.40625 
Q 43.21875 16.703125 43.21875 25.484375 
L 43.21875 27.484375 
z
M 52.203125 31.203125 
L 52.203125 0 
L 43.21875 0 
L 43.21875 8.296875 
Q 40.140625 3.328125 35.546875 0.953125 
Q 30.953125 -1.421875 24.3125 -1.421875 
Q 15.921875 -1.421875 10.953125 3.296875 
Q 6 8.015625 6 15.921875 
Q 6 25.140625 12.171875 29.828125 
Q 18.359375 34.515625 30.609375 34.515625 
L 43.21875 34.515625 
L 43.21875 35.40625 
Q 43.21875 41.609375 39.140625 45 
Q 35.0625 48.390625 27.6875 48.390625 
Q 23 48.390625 18.546875 47.265625 
Q 14.109375 46.140625 10.015625 43.890625 
L 10.015625 52.203125 
Q 14.9375 54.109375 19.578125 55.046875 
Q 24.21875 56 28.609375 56 
Q 40.484375 56 46.34375 49.84375 
Q 52.203125 43.703125 52.203125 31.203125 
z
M 35.796875 79.984375 
L 45.515625 79.984375 
L 29.59375 61.625 
L 22.125 61.625 
z
" id="DejaVuSans-225"/>
      </defs>
      <g transform="translate(95.709375 243.980719)scale(0.1 -0.1)">
       <use xlink:href="#DejaVuSans-66"/>
       <use x="68.603516" xlink:href="#DejaVuSans-225"/>
       <use x="129.882812" xlink:href="#DejaVuSans-115"/>
       <use x="181.982422" xlink:href="#DejaVuSans-105"/>
       <use x="209.765625" xlink:href="#DejaVuSans-99"/>
       <use x="264.746094" xlink:href="#DejaVuSans-111"/>
      </g>
     </g>
    </g>
    <g id="ytick_4">
     <g id="line2d_9">
      <g>
       <use style="stroke:#000000;stroke-width:0.8;" x="135.303125" xlink:href="#m2c28c50c3f" y="321.7215"/>
      </g>
     </g>
     <g id="text_10">
      <!-- Por debajo del b치sico -->
      <defs>
       <path d="M 19.671875 64.796875 
L 19.671875 37.40625 
L 32.078125 37.40625 
Q 38.96875 37.40625 42.71875 40.96875 
Q 46.484375 44.53125 46.484375 51.125 
Q 46.484375 57.671875 42.71875 61.234375 
Q 38.96875 64.796875 32.078125 64.796875 
z
M 9.8125 72.90625 
L 32.078125 72.90625 
Q 44.34375 72.90625 50.609375 67.359375 
Q 56.890625 61.8125 56.890625 51.125 
Q 56.890625 40.328125 50.609375 34.8125 
Q 44.34375 29.296875 32.078125 29.296875 
L 19.671875 29.296875 
L 19.671875 0 
L 9.8125 0 
z
" id="DejaVuSans-80"/>
       <path id="DejaVuSans-32"/>
       <path d="M 56.203125 29.59375 
L 56.203125 25.203125 
L 14.890625 25.203125 
Q 15.484375 15.921875 20.484375 11.0625 
Q 25.484375 6.203125 34.421875 6.203125 
Q 39.59375 6.203125 44.453125 7.46875 
Q 49.3125 8.734375 54.109375 11.28125 
L 54.109375 2.78125 
Q 49.265625 0.734375 44.1875 -0.34375 
Q 39.109375 -1.421875 33.890625 -1.421875 
Q 20.796875 -1.421875 13.15625 6.1875 
Q 5.515625 13.8125 5.515625 26.8125 
Q 5.515625 40.234375 12.765625 48.109375 
Q 20.015625 56 32.328125 56 
Q 43.359375 56 49.78125 48.890625 
Q 56.203125 41.796875 56.203125 29.59375 
z
M 47.21875 32.234375 
Q 47.125 39.59375 43.09375 43.984375 
Q 39.0625 48.390625 32.421875 48.390625 
Q 24.90625 48.390625 20.390625 44.140625 
Q 15.875 39.890625 15.1875 32.171875 
z
" id="DejaVuSans-101"/>
       <path d="M 48.6875 27.296875 
Q 48.6875 37.203125 44.609375 42.84375 
Q 40.53125 48.484375 33.40625 48.484375 
Q 26.265625 48.484375 22.1875 42.84375 
Q 18.109375 37.203125 18.109375 27.296875 
Q 18.109375 17.390625 22.1875 11.75 
Q 26.265625 6.109375 33.40625 6.109375 
Q 40.53125 6.109375 44.609375 11.75 
Q 48.6875 17.390625 48.6875 27.296875 
z
M 18.109375 46.390625 
Q 20.953125 51.265625 25.265625 53.625 
Q 29.59375 56 35.59375 56 
Q 45.5625 56 51.78125 48.09375 
Q 58.015625 40.1875 58.015625 27.296875 
Q 58.015625 14.40625 51.78125 6.484375 
Q 45.5625 -1.421875 35.59375 -1.421875 
Q 29.59375 -1.421875 25.265625 0.953125 
Q 20.953125 3.328125 18.109375 8.203125 
L 18.109375 0 
L 9.078125 0 
L 9.078125 75.984375 
L 18.109375 75.984375 
z
" id="DejaVuSans-98"/>
       <path d="M 9.421875 54.6875 
L 18.40625 54.6875 
L 18.40625 -0.984375 
Q 18.40625 -11.421875 14.421875 -16.109375 
Q 10.453125 -20.796875 1.609375 -20.796875 
L -1.8125 -20.796875 
L -1.8125 -13.1875 
L 0.59375 -13.1875 
Q 5.71875 -13.1875 7.5625 -10.8125 
Q 9.421875 -8.453125 9.421875 -0.984375 
z
M 9.421875 75.984375 
L 18.40625 75.984375 
L 18.40625 64.59375 
L 9.421875 64.59375 
z
" id="DejaVuSans-106"/>
       <path d="M 9.421875 75.984375 
L 18.40625 75.984375 
L 18.40625 0 
L 9.421875 0 
z
" id="DejaVuSans-108"/>
      </defs>
      <g transform="translate(21.278125 325.720719)scale(0.1 -0.1)">
       <use xlink:href="#DejaVuSans-80"/>
       <use x="60.255859" xlink:href="#DejaVuSans-111"/>
       <use x="121.4375" xlink:href="#DejaVuSans-114"/>
       <use x="162.550781" xlink:href="#DejaVuSans-32"/>
       <use x="194.337891" xlink:href="#DejaVuSans-100"/>
       <use x="257.814453" xlink:href="#DejaVuSans-101"/>
       <use x="319.337891" xlink:href="#DejaVuSans-98"/>
       <use x="382.814453" xlink:href="#DejaVuSans-97"/>
       <use x="444.09375" xlink:href="#DejaVuSans-106"/>
       <use x="471.876953" xlink:href="#DejaVuSans-111"/>
       <use x="533.058594" xlink:href="#DejaVuSans-32"/>
       <use x="564.845703" xlink:href="#DejaVuSans-100"/>
       <use x="628.322266" xlink:href="#DejaVuSans-101"/>
       <use x="689.845703" xlink:href="#DejaVuSans-108"/>
       <use x="717.628906" xlink:href="#DejaVuSans-32"/>
       <use x="749.416016" xlink:href="#DejaVuSans-98"/>
       <use x="812.892578" xlink:href="#DejaVuSans-225"/>
       <use x="874.171875" xlink:href="#DejaVuSans-115"/>
       <use x="926.271484" xlink:href="#DejaVuSans-105"/>
       <use x="954.054688" xlink:href="#DejaVuSans-99"/>
       <use x="1009.035156" xlink:href="#DejaVuSans-111"/>
      </g>
     </g>
    </g>
    <g id="text_11">
     <!-- Nivel de desempe침o en matem치tica -->
     <defs>
      <path d="M 9.8125 72.90625 
L 23.09375 72.90625 
L 55.421875 11.921875 
L 55.421875 72.90625 
L 64.984375 72.90625 
L 64.984375 0 
L 51.703125 0 
L 19.390625 60.984375 
L 19.390625 0 
L 9.8125 0 
z
" id="DejaVuSans-78"/>
      <path d="M 52 44.1875 
Q 55.375 50.25 60.0625 53.125 
Q 64.75 56 71.09375 56 
Q 79.640625 56 84.28125 50.015625 
Q 88.921875 44.046875 88.921875 33.015625 
L 88.921875 0 
L 79.890625 0 
L 79.890625 32.71875 
Q 79.890625 40.578125 77.09375 44.375 
Q 74.3125 48.1875 68.609375 48.1875 
Q 61.625 48.1875 57.5625 43.546875 
Q 53.515625 38.921875 53.515625 30.90625 
L 53.515625 0 
L 44.484375 0 
L 44.484375 32.71875 
Q 44.484375 40.625 41.703125 44.40625 
Q 38.921875 48.1875 33.109375 48.1875 
Q 26.21875 48.1875 22.15625 43.53125 
Q 18.109375 38.875 18.109375 30.90625 
L 18.109375 0 
L 9.078125 0 
L 9.078125 54.6875 
L 18.109375 54.6875 
L 18.109375 46.1875 
Q 21.1875 51.21875 25.484375 53.609375 
Q 29.78125 56 35.6875 56 
Q 41.65625 56 45.828125 52.96875 
Q 50 49.953125 52 44.1875 
z
" id="DejaVuSans-109"/>
      <path d="M 18.109375 8.203125 
L 18.109375 -20.796875 
L 9.078125 -20.796875 
L 9.078125 54.6875 
L 18.109375 54.6875 
L 18.109375 46.390625 
Q 20.953125 51.265625 25.265625 53.625 
Q 29.59375 56 35.59375 56 
Q 45.5625 56 51.78125 48.09375 
Q 58.015625 40.1875 58.015625 27.296875 
Q 58.015625 14.40625 51.78125 6.484375 
Q 45.5625 -1.421875 35.59375 -1.421875 
Q 29.59375 -1.421875 25.265625 0.953125 
Q 20.953125 3.328125 18.109375 8.203125 
z
M 48.6875 27.296875 
Q 48.6875 37.203125 44.609375 42.84375 
Q 40.53125 48.484375 33.40625 48.484375 
Q 26.265625 48.484375 22.1875 42.84375 
Q 18.109375 37.203125 18.109375 27.296875 
Q 18.109375 17.390625 22.1875 11.75 
Q 26.265625 6.109375 33.40625 6.109375 
Q 40.53125 6.109375 44.609375 11.75 
Q 48.6875 17.390625 48.6875 27.296875 
z
" id="DejaVuSans-112"/>
      <path d="M 54.890625 33.015625 
L 54.890625 0 
L 45.90625 0 
L 45.90625 32.71875 
Q 45.90625 40.484375 42.875 44.328125 
Q 39.84375 48.1875 33.796875 48.1875 
Q 26.515625 48.1875 22.3125 43.546875 
Q 18.109375 38.921875 18.109375 30.90625 
L 18.109375 0 
L 9.078125 0 
L 9.078125 54.6875 
L 18.109375 54.6875 
L 18.109375 46.1875 
Q 21.34375 51.125 25.703125 53.5625 
Q 30.078125 56 35.796875 56 
Q 45.21875 56 50.046875 50.171875 
Q 54.890625 44.34375 54.890625 33.015625 
z
M 32.234375 66.890625 
L 29.4375 69.578125 
Q 28.375 70.5625 27.5625 71.015625 
Q 26.765625 71.484375 26.125 71.484375 
Q 24.265625 71.484375 23.390625 69.703125 
Q 22.515625 67.921875 22.40625 63.921875 
L 16.3125 63.921875 
Q 16.40625 70.515625 18.890625 74.09375 
Q 21.390625 77.6875 25.828125 77.6875 
Q 27.6875 77.6875 29.25 77 
Q 30.8125 76.3125 32.625 74.703125 
L 35.40625 72.015625 
Q 36.46875 71.046875 37.28125 70.578125 
Q 38.09375 70.125 38.71875 70.125 
Q 40.578125 70.125 41.453125 71.90625 
Q 42.328125 73.6875 42.4375 77.6875 
L 48.53125 77.6875 
Q 48.4375 71.09375 45.9375 67.5 
Q 43.453125 63.921875 39.015625 63.921875 
Q 37.15625 63.921875 35.59375 64.59375 
Q 34.03125 65.28125 32.234375 66.890625 
z
" id="DejaVuSans-241"/>
     </defs>
     <g transform="translate(15.198438 290.16775)rotate(-90)scale(0.1 -0.1)">
      <use xlink:href="#DejaVuSans-78"/>
      <use x="74.804688" xlink:href="#DejaVuSans-105"/>
      <use x="102.587891" xlink:href="#DejaVuSans-118"/>
      <use x="161.767578" xlink:href="#DejaVuSans-101"/>
      <use x="223.291016" xlink:href="#DejaVuSans-108"/>
      <use x="251.074219" xlink:href="#DejaVuSans-32"/>
      <use x="282.861328" xlink:href="#DejaVuSans-100"/>
      <use x="346.337891" xlink:href="#DejaVuSans-101"/>
      <use x="407.861328" xlink:href="#DejaVuSans-32"/>
      <use x="439.648438" xlink:href="#DejaVuSans-100"/>
      <use x="503.125" xlink:href="#DejaVuSans-101"/>
      <use x="564.648438" xlink:href="#DejaVuSans-115"/>
      <use x="616.748047" xlink:href="#DejaVuSans-101"/>
      <use x="678.271484" xlink:href="#DejaVuSans-109"/>
      <use x="775.683594" xlink:href="#DejaVuSans-112"/>
      <use x="839.160156" xlink:href="#DejaVuSans-101"/>
      <use x="900.683594" xlink:href="#DejaVuSans-241"/>
      <use x="964.0625" xlink:href="#DejaVuSans-111"/>
      <use x="1025.244141" xlink:href="#DejaVuSans-32"/>
      <use x="1057.03125" xlink:href="#DejaVuSans-101"/>
      <use x="1118.554688" xlink:href="#DejaVuSans-110"/>
      <use x="1181.933594" xlink:href="#DejaVuSans-32"/>
      <use x="1213.720703" xlink:href="#DejaVuSans-109"/>
      <use x="1311.132812" xlink:href="#DejaVuSans-97"/>
      <use x="1372.412109" xlink:href="#DejaVuSans-116"/>
      <use x="1411.621094" xlink:href="#DejaVuSans-101"/>
      <use x="1473.144531" xlink:href="#DejaVuSans-109"/>
      <use x="1570.556641" xlink:href="#DejaVuSans-225"/>
      <use x="1631.835938" xlink:href="#DejaVuSans-116"/>
      <use x="1671.044922" xlink:href="#DejaVuSans-105"/>
      <use x="1698.828125" xlink:href="#DejaVuSans-99"/>
      <use x="1753.808594" xlink:href="#DejaVuSans-97"/>
     </g>
    </g>
   </g>
   <g id="line2d_10">
    <path clip-path="url(#p7c6cb8e6eb)" d="M 163.685628 77.1015 
L 565.581864 77.1015 
" style="fill:none;stroke:#4c4c4c;stroke-linecap:square;stroke-width:1.5;"/>
   </g>
   <g id="line2d_11">
    <path clip-path="url(#p7c6cb8e6eb)" d="M 236.344834 77.1015 
L 368.039646 77.1015 
" style="fill:none;stroke:#4c4c4c;stroke-linecap:square;stroke-width:4.5;"/>
   </g>
   <g id="line2d_12">
    <path clip-path="url(#p7c6cb8e6eb)" d="M 163.685628 158.6415 
L 549.120012 158.6415 
" style="fill:none;stroke:#4c4c4c;stroke-linecap:square;stroke-width:1.5;"/>
   </g>
   <g id="line2d_13">
    <path clip-path="url(#p7c6cb8e6eb)" d="M 249.968435 158.6415 
L 369.742596 158.6415 
" style="fill:none;stroke:#4c4c4c;stroke-linecap:square;stroke-width:4.5;"/>
   </g>
   <g id="line2d_14">
    <path clip-path="url(#p7c6cb8e6eb)" d="M 163.685628 240.1815 
L 563.878913 240.1815 
" style="fill:none;stroke:#4c4c4c;stroke-linecap:square;stroke-width:1.5;"/>
   </g>
   <g id="line2d_15">
    <path clip-path="url(#p7c6cb8e6eb)" d="M 265.862637 240.1815 
L 385.069147 240.1815 
" style="fill:none;stroke:#4c4c4c;stroke-linecap:square;stroke-width:4.5;"/>
   </g>
   <g id="line2d_16">
    <path clip-path="url(#p7c6cb8e6eb)" d="M 163.685628 321.7215 
L 572.961314 321.7215 
" style="fill:none;stroke:#4c4c4c;stroke-linecap:square;stroke-width:1.5;"/>
   </g>
   <g id="line2d_17">
    <path clip-path="url(#p7c6cb8e6eb)" d="M 273.809737 321.7215 
L 393.583898 321.7215 
" style="fill:none;stroke:#4c4c4c;stroke-linecap:square;stroke-width:4.5;"/>
   </g>
   <g id="patch_3">
    <path d="M 135.303125 362.4915 
L 135.303125 36.3315 
" style="fill:none;stroke:#000000;stroke-linecap:square;stroke-linejoin:miter;stroke-width:0.8;"/>
   </g>
   <g id="patch_4">
    <path d="M 693.303125 362.4915 
L 693.303125 36.3315 
" style="fill:none;stroke:#000000;stroke-linecap:square;stroke-linejoin:miter;stroke-width:0.8;"/>
   </g>
   <g id="patch_5">
    <path d="M 135.303125 362.4915 
L 693.303125 362.4915 
" style="fill:none;stroke:#000000;stroke-linecap:square;stroke-linejoin:miter;stroke-width:0.8;"/>
   </g>
   <g id="patch_6">
    <path d="M 135.303125 36.3315 
L 693.303125 36.3315 
" style="fill:none;stroke:#000000;stroke-linecap:square;stroke-linejoin:miter;stroke-width:0.8;"/>
   </g>
   <g id="PathCollection_1">
    <defs>
     <path d="M 0 1.5 
C 0.397805 1.5 0.77937 1.341951 1.06066 1.06066 
C 1.341951 0.77937 1.5 0.397805 1.5 0 
C 1.5 -0.397805 1.341951 -0.77937 1.06066 -1.06066 
C 0.77937 -1.341951 0.397805 -1.5 0 -1.5 
C -0.397805 -1.5 -0.77937 -1.341951 -1.06066 -1.06066 
C -1.341951 -0.77937 -1.5 -0.397805 -1.5 0 
C -1.5 0.397805 -1.341951 0.77937 -1.06066 1.06066 
C -0.77937 1.341951 -0.397805 1.5 0 1.5 
z
" id="mdfa34ed724" style="stroke:#4c4c4c;"/>
    </defs>
    <g clip-path="url(#p7c6cb8e6eb)">
     <use style="fill:#ffffff;stroke:#4c4c4c;" x="292.542189" xlink:href="#mdfa34ed724" y="77.1015"/>
    </g>
   </g>
   <g id="PathCollection_2">
    <g clip-path="url(#p7c6cb8e6eb)">
     <use style="fill:#ffffff;stroke:#4c4c4c;" x="306.16579" xlink:href="#mdfa34ed724" y="158.6415"/>
    </g>
   </g>
   <g id="PathCollection_3">
    <g clip-path="url(#p7c6cb8e6eb)">
     <use style="fill:#ffffff;stroke:#4c4c4c;" x="324.330592" xlink:href="#mdfa34ed724" y="240.1815"/>
    </g>
   </g>
   <g id="PathCollection_4">
    <g clip-path="url(#p7c6cb8e6eb)">
     <use style="fill:#ffffff;stroke:#4c4c4c;" x="333.980643" xlink:href="#mdfa34ed724" y="321.7215"/>
    </g>
   </g>
   <g id="text_12">
    <!-- Distribuci칩n de: ICSE seg칰n el desempe침o en matem치tica -->
    <defs>
     <path d="M 19.671875 64.796875 
L 19.671875 8.109375 
L 31.59375 8.109375 
Q 46.6875 8.109375 53.6875 14.9375 
Q 60.6875 21.78125 60.6875 36.53125 
Q 60.6875 51.171875 53.6875 57.984375 
Q 46.6875 64.796875 31.59375 64.796875 
z
M 9.8125 72.90625 
L 30.078125 72.90625 
Q 51.265625 72.90625 61.171875 64.09375 
Q 71.09375 55.28125 71.09375 36.53125 
Q 71.09375 17.671875 61.125 8.828125 
Q 51.171875 0 30.078125 0 
L 9.8125 0 
z
" id="DejaVuSans-68"/>
     <path d="M 8.5 21.578125 
L 8.5 54.6875 
L 17.484375 54.6875 
L 17.484375 21.921875 
Q 17.484375 14.15625 20.5 10.265625 
Q 23.53125 6.390625 29.59375 6.390625 
Q 36.859375 6.390625 41.078125 11.03125 
Q 45.3125 15.671875 45.3125 23.6875 
L 45.3125 54.6875 
L 54.296875 54.6875 
L 54.296875 0 
L 45.3125 0 
L 45.3125 8.40625 
Q 42.046875 3.421875 37.71875 1 
Q 33.40625 -1.421875 27.6875 -1.421875 
Q 18.265625 -1.421875 13.375 4.4375 
Q 8.5 10.296875 8.5 21.578125 
z
M 31.109375 56 
z
" id="DejaVuSans-117"/>
     <path d="M 30.609375 48.390625 
Q 23.390625 48.390625 19.1875 42.75 
Q 14.984375 37.109375 14.984375 27.296875 
Q 14.984375 17.484375 19.15625 11.84375 
Q 23.34375 6.203125 30.609375 6.203125 
Q 37.796875 6.203125 41.984375 11.859375 
Q 46.1875 17.53125 46.1875 27.296875 
Q 46.1875 37.015625 41.984375 42.703125 
Q 37.796875 48.390625 30.609375 48.390625 
z
M 30.609375 56 
Q 42.328125 56 49.015625 48.375 
Q 55.71875 40.765625 55.71875 27.296875 
Q 55.71875 13.875 49.015625 6.21875 
Q 42.328125 -1.421875 30.609375 -1.421875 
Q 18.84375 -1.421875 12.171875 6.21875 
Q 5.515625 13.875 5.515625 27.296875 
Q 5.515625 40.765625 12.171875 48.375 
Q 18.84375 56 30.609375 56 
z
M 37.40625 79.984375 
L 47.125 79.984375 
L 31.203125 61.625 
L 23.734375 61.625 
z
" id="DejaVuSans-243"/>
     <path d="M 11.71875 12.40625 
L 22.015625 12.40625 
L 22.015625 0 
L 11.71875 0 
z
M 11.71875 51.703125 
L 22.015625 51.703125 
L 22.015625 39.3125 
L 11.71875 39.3125 
z
" id="DejaVuSans-58"/>
     <path d="M 45.40625 27.984375 
Q 45.40625 37.75 41.375 43.109375 
Q 37.359375 48.484375 30.078125 48.484375 
Q 22.859375 48.484375 18.828125 43.109375 
Q 14.796875 37.75 14.796875 27.984375 
Q 14.796875 18.265625 18.828125 12.890625 
Q 22.859375 7.515625 30.078125 7.515625 
Q 37.359375 7.515625 41.375 12.890625 
Q 45.40625 18.265625 45.40625 27.984375 
z
M 54.390625 6.78125 
Q 54.390625 -7.171875 48.1875 -13.984375 
Q 42 -20.796875 29.203125 -20.796875 
Q 24.46875 -20.796875 20.265625 -20.09375 
Q 16.0625 -19.390625 12.109375 -17.921875 
L 12.109375 -9.1875 
Q 16.0625 -11.328125 19.921875 -12.34375 
Q 23.78125 -13.375 27.78125 -13.375 
Q 36.625 -13.375 41.015625 -8.765625 
Q 45.40625 -4.15625 45.40625 5.171875 
L 45.40625 9.625 
Q 42.625 4.78125 38.28125 2.390625 
Q 33.9375 0 27.875 0 
Q 17.828125 0 11.671875 7.65625 
Q 5.515625 15.328125 5.515625 27.984375 
Q 5.515625 40.671875 11.671875 48.328125 
Q 17.828125 56 27.875 56 
Q 33.9375 56 38.28125 53.609375 
Q 42.625 51.21875 45.40625 46.390625 
L 45.40625 54.6875 
L 54.390625 54.6875 
z
" id="DejaVuSans-103"/>
     <path d="M 8.5 21.578125 
L 8.5 54.6875 
L 17.484375 54.6875 
L 17.484375 21.921875 
Q 17.484375 14.15625 20.5 10.265625 
Q 23.53125 6.390625 29.59375 6.390625 
Q 36.859375 6.390625 41.078125 11.03125 
Q 45.3125 15.671875 45.3125 23.6875 
L 45.3125 54.6875 
L 54.296875 54.6875 
L 54.296875 0 
L 45.3125 0 
L 45.3125 8.40625 
Q 42.046875 3.421875 37.71875 1 
Q 33.40625 -1.421875 27.6875 -1.421875 
Q 18.265625 -1.421875 13.375 4.4375 
Q 8.5 10.296875 8.5 21.578125 
z
M 31.109375 56 
z
M 37.796875 79.984375 
L 47.515625 79.984375 
L 31.59375 61.625 
L 24.125 61.625 
z
" id="DejaVuSans-250"/>
    </defs>
    <g transform="translate(239.619688 16.798125)scale(0.12 -0.12)">
     <use xlink:href="#DejaVuSans-68"/>
     <use x="77.001953" xlink:href="#DejaVuSans-105"/>
     <use x="104.785156" xlink:href="#DejaVuSans-115"/>
     <use x="156.884766" xlink:href="#DejaVuSans-116"/>
     <use x="196.09375" xlink:href="#DejaVuSans-114"/>
     <use x="237.207031" xlink:href="#DejaVuSans-105"/>
     <use x="264.990234" xlink:href="#DejaVuSans-98"/>
     <use x="328.466797" xlink:href="#DejaVuSans-117"/>
     <use x="391.845703" xlink:href="#DejaVuSans-99"/>
     <use x="446.826172" xlink:href="#DejaVuSans-105"/>
     <use x="474.609375" xlink:href="#DejaVuSans-243"/>
     <use x="535.791016" xlink:href="#DejaVuSans-110"/>
     <use x="599.169922" xlink:href="#DejaVuSans-32"/>
     <use x="630.957031" xlink:href="#DejaVuSans-100"/>
     <use x="694.433594" xlink:href="#DejaVuSans-101"/>
     <use x="755.957031" xlink:href="#DejaVuSans-58"/>
     <use x="789.648438" xlink:href="#DejaVuSans-32"/>
     <use x="821.435547" xlink:href="#DejaVuSans-73"/>
     <use x="850.927734" xlink:href="#DejaVuSans-67"/>
     <use x="920.751953" xlink:href="#DejaVuSans-83"/>
     <use x="984.228516" xlink:href="#DejaVuSans-69"/>
     <use x="1047.412109" xlink:href="#DejaVuSans-32"/>
     <use x="1079.199219" xlink:href="#DejaVuSans-115"/>
     <use x="1131.298828" xlink:href="#DejaVuSans-101"/>
     <use x="1192.822266" xlink:href="#DejaVuSans-103"/>
     <use x="1256.298828" xlink:href="#DejaVuSans-250"/>
     <use x="1319.677734" xlink:href="#DejaVuSans-110"/>
     <use x="1383.056641" xlink:href="#DejaVuSans-32"/>
     <use x="1414.84375" xlink:href="#DejaVuSans-101"/>
     <use x="1476.367188" xlink:href="#DejaVuSans-108"/>
     <use x="1504.150391" xlink:href="#DejaVuSans-32"/>
     <use x="1535.9375" xlink:href="#DejaVuSans-100"/>
     <use x="1599.414062" xlink:href="#DejaVuSans-101"/>
     <use x="1660.9375" xlink:href="#DejaVuSans-115"/>
     <use x="1713.037109" xlink:href="#DejaVuSans-101"/>
     <use x="1774.560547" xlink:href="#DejaVuSans-109"/>
     <use x="1871.972656" xlink:href="#DejaVuSans-112"/>
     <use x="1935.449219" xlink:href="#DejaVuSans-101"/>
     <use x="1996.972656" xlink:href="#DejaVuSans-241"/>
     <use x="2060.351562" xlink:href="#DejaVuSans-111"/>
     <use x="2121.533203" xlink:href="#DejaVuSans-32"/>
     <use x="2153.320312" xlink:href="#DejaVuSans-101"/>
     <use x="2214.84375" xlink:href="#DejaVuSans-110"/>
     <use x="2278.222656" xlink:href="#DejaVuSans-32"/>
     <use x="2310.009766" xlink:href="#DejaVuSans-109"/>
     <use x="2407.421875" xlink:href="#DejaVuSans-97"/>
     <use x="2468.701172" xlink:href="#DejaVuSans-116"/>
     <use x="2507.910156" xlink:href="#DejaVuSans-101"/>
     <use x="2569.433594" xlink:href="#DejaVuSans-109"/>
     <use x="2666.845703" xlink:href="#DejaVuSans-225"/>
     <use x="2728.125" xlink:href="#DejaVuSans-116"/>
     <use x="2767.333984" xlink:href="#DejaVuSans-105"/>
     <use x="2795.117188" xlink:href="#DejaVuSans-99"/>
     <use x="2850.097656" xlink:href="#DejaVuSans-97"/>
    </g>
    <!--  Nivel: Primaria -->
    <g transform="translate(368.320625 30.2355)scale(0.12 -0.12)">
     <use xlink:href="#DejaVuSans-32"/>
     <use x="31.787109" xlink:href="#DejaVuSans-78"/>
     <use x="106.591797" xlink:href="#DejaVuSans-105"/>
     <use x="134.375" xlink:href="#DejaVuSans-118"/>
     <use x="193.554688" xlink:href="#DejaVuSans-101"/>
     <use x="255.078125" xlink:href="#DejaVuSans-108"/>
     <use x="282.861328" xlink:href="#DejaVuSans-58"/>
     <use x="316.552734" xlink:href="#DejaVuSans-32"/>
     <use x="348.339844" xlink:href="#DejaVuSans-80"/>
     <use x="408.626953" xlink:href="#DejaVuSans-114"/>
     <use x="449.740234" xlink:href="#DejaVuSans-105"/>
     <use x="477.523438" xlink:href="#DejaVuSans-109"/>
     <use x="574.935547" xlink:href="#DejaVuSans-97"/>
     <use x="636.214844" xlink:href="#DejaVuSans-114"/>
     <use x="677.328125" xlink:href="#DejaVuSans-105"/>
     <use x="705.111328" xlink:href="#DejaVuSans-97"/>
    </g>
   </g>
  </g>
 </g>
 <defs>
  <clipPath id="p7c6cb8e6eb">
   <rect height="326.16" width="558" x="135.303125" y="36.3315"/>
  </clipPath>
 </defs>
</svg>
