<?xml version="1.0" encoding="utf-8" standalone="no"?>
<!DOCTYPE svg PUBLIC "-//W3C//DTD SVG 1.1//EN"
  "http://www.w3.org/Graphics/SVG/1.1/DTD/svg11.dtd">
<!-- Created with matplotlib (https://matplotlib.org/) -->
<svg height="400.04775pt" version="1.1" viewBox="0 0 703.773437 400.04775" width="703.773437pt" xmlns="http://www.w3.org/2000/svg" xmlns:xlink="http://www.w3.org/1999/xlink">
 <defs>
  <style type="text/css">
*{stroke-linecap:butt;stroke-linejoin:round;}
  </style>
 </defs>
 <g id="figure_1">
  <g id="patch_1">
   <path d="M 0 400.04775 
L 703.773437 400.04775 
L 703.773437 0 
L 0 0 
z
" style="fill:#ffffff;"/>
  </g>
  <g id="axes_1">
   <g id="patch_2">
    <path d="M 135.073438 362.4915 
L 693.073437 362.4915 
L 693.073437 36.3315 
L 135.073438 36.3315 
z
" style="fill:#ffffff;"/>
   </g>
   <g id="PolyCollection_1">
    <defs>
     <path d="M 184.313738 -322.434812 
L 184.313738 -323.457688 
L 188.955348 -326.489013 
L 193.596959 -333.257183 
L 198.238569 -337.230278 
L 202.880179 -334.096764 
L 207.521789 -334.055372 
L 212.163399 -344.307575 
L 216.805009 -350.514126 
L 221.446619 -352.042581 
L 226.088229 -355.56225 
L 230.729839 -352.119282 
L 235.371449 -349.488298 
L 240.013059 -355.186689 
L 244.654669 -353.129698 
L 249.29628 -347.248256 
L 253.93789 -337.194755 
L 258.5795 -329.265678 
L 263.22111 -332.269648 
L 267.86272 -340.052538 
L 272.50433 -346.279033 
L 277.14594 -349.156003 
L 281.78755 -345.064155 
L 286.42916 -336.779589 
L 291.07077 -333.465655 
L 295.71238 -335.077222 
L 300.35399 -337.776742 
L 304.995601 -342.651042 
L 309.637211 -347.178911 
L 314.278821 -343.240961 
L 318.920431 -338.176583 
L 323.562041 -336.353505 
L 328.203651 -329.803544 
L 332.845261 -325.457037 
L 337.486871 -325.574125 
L 342.128481 -327.598374 
L 346.770091 -328.881534 
L 351.411701 -328.00189 
L 356.053311 -327.937115 
L 360.694922 -327.426516 
L 365.336532 -326.548197 
L 369.978142 -326.803621 
L 374.619752 -325.308256 
L 379.261362 -323.660727 
L 383.902972 -323.456293 
L 388.544582 -323.6298 
L 393.186192 -323.871208 
L 397.827802 -324.289598 
L 402.469412 -324.301329 
L 407.111022 -323.858238 
L 411.752632 -323.364103 
L 416.394243 -323.242555 
L 421.035853 -323.320244 
L 425.677463 -323.160589 
L 430.319073 -323.049713 
L 434.960683 -323.249389 
L 439.602293 -323.460358 
L 444.243903 -323.367607 
L 448.885513 -323.212619 
L 453.527123 -323.101462 
L 458.168733 -323.028767 
L 462.810343 -322.993903 
L 467.451953 -323.155957 
L 472.093564 -323.662628 
L 476.735174 -323.889131 
L 481.376784 -323.565523 
L 486.018394 -323.378512 
L 490.660004 -323.235018 
L 495.301614 -323.241165 
L 499.943224 -323.23665 
L 504.584834 -323.084412 
L 509.226444 -322.989914 
L 513.868054 -323.005736 
L 518.509664 -323.254381 
L 523.151274 -323.565388 
L 527.792885 -323.394624 
L 532.434495 -323.116105 
L 537.076105 -323.002533 
L 541.717715 -322.956608 
L 546.359325 -322.946946 
L 551.000935 -322.946266 
L 555.642545 -322.94625 
L 560.284155 -322.94625 
L 564.925765 -322.946252 
L 569.567375 -322.946421 
L 574.208985 -322.951617 
L 578.850595 -323.002329 
L 583.492206 -323.141098 
L 588.133816 -323.171352 
L 592.775426 -323.032717 
L 597.417036 -322.957294 
L 602.058646 -322.946719 
L 606.700256 -322.946257 
L 611.341866 -322.94625 
L 615.983476 -322.946256 
L 620.625086 -322.946562 
L 625.266696 -322.951675 
L 629.908306 -322.977631 
L 634.549916 -323.00661 
L 639.191527 -322.984853 
L 643.833137 -322.954459 
L 643.833137 -322.938041 
L 643.833137 -322.938041 
L 639.191527 -322.907647 
L 634.549916 -322.88589 
L 629.908306 -322.914869 
L 625.266696 -322.940825 
L 620.625086 -322.945938 
L 615.983476 -322.946244 
L 611.341866 -322.94625 
L 606.700256 -322.946243 
L 602.058646 -322.945781 
L 597.417036 -322.935206 
L 592.775426 -322.859783 
L 588.133816 -322.721148 
L 583.492206 -322.751402 
L 578.850595 -322.890171 
L 574.208985 -322.940883 
L 569.567375 -322.946079 
L 564.925765 -322.946248 
L 560.284155 -322.94625 
L 555.642545 -322.94625 
L 551.000935 -322.946234 
L 546.359325 -322.945554 
L 541.717715 -322.935892 
L 537.076105 -322.889967 
L 532.434495 -322.776395 
L 527.792885 -322.497876 
L 523.151274 -322.327112 
L 518.509664 -322.638119 
L 513.868054 -322.886764 
L 509.226444 -322.902586 
L 504.584834 -322.808088 
L 499.943224 -322.65585 
L 495.301614 -322.651335 
L 490.660004 -322.657482 
L 486.018394 -322.513988 
L 481.376784 -322.326977 
L 476.735174 -322.003369 
L 472.093564 -322.229872 
L 467.451953 -322.736543 
L 462.810343 -322.898597 
L 458.168733 -322.863733 
L 453.527123 -322.791038 
L 448.885513 -322.679881 
L 444.243903 -322.524893 
L 439.602293 -322.432142 
L 434.960683 -322.643111 
L 430.319073 -322.842787 
L 425.677463 -322.731911 
L 421.035853 -322.572256 
L 416.394243 -322.649945 
L 411.752632 -322.528397 
L 407.111022 -322.034262 
L 402.469412 -321.591171 
L 397.827802 -321.602902 
L 393.186192 -322.021292 
L 388.544582 -322.2627 
L 383.902972 -322.436207 
L 379.261362 -322.231773 
L 374.619752 -320.584244 
L 369.978142 -319.088879 
L 365.336532 -319.344303 
L 360.694922 -318.465984 
L 356.053311 -317.955385 
L 351.411701 -317.89061 
L 346.770091 -317.010966 
L 342.128481 -318.294126 
L 337.486871 -320.318375 
L 332.845261 -320.435463 
L 328.203651 -316.088956 
L 323.562041 -309.538995 
L 318.920431 -307.715917 
L 314.278821 -302.651539 
L 309.637211 -298.713589 
L 304.995601 -303.241458 
L 300.35399 -308.115758 
L 295.71238 -310.815278 
L 291.07077 -312.426845 
L 286.42916 -309.112911 
L 281.78755 -300.828345 
L 277.14594 -296.736497 
L 272.50433 -299.613467 
L 267.86272 -305.839962 
L 263.22111 -313.622852 
L 258.5795 -316.626822 
L 253.93789 -308.697745 
L 249.29628 -298.644244 
L 244.654669 -292.762802 
L 240.013059 -290.705811 
L 235.371449 -296.404202 
L 230.729839 -293.773218 
L 226.088229 -290.33025 
L 221.446619 -293.849919 
L 216.805009 -295.378374 
L 212.163399 -301.584925 
L 207.521789 -311.837128 
L 202.880179 -311.795736 
L 198.238569 -308.662222 
L 193.596959 -312.635317 
L 188.955348 -319.403487 
L 184.313738 -322.434812 
z
" id="m700b7741e4" style="stroke:#4c4c4c;stroke-width:1.5;"/>
    </defs>
    <g clip-path="url(#p67ff581dad)">
     <use style="fill:#df9c20;stroke:#4c4c4c;stroke-width:1.5;" x="0" xlink:href="#m700b7741e4" y="400.04775"/>
    </g>
   </g>
   <g id="PolyCollection_2">
    <defs>
     <path d="M 182.189436 -241.152151 
L 182.189436 -241.660349 
L 186.873961 -242.732912 
L 191.558486 -245.18676 
L 196.243012 -247.596232 
L 200.927537 -248.098893 
L 205.612062 -249.121041 
L 210.296587 -254.186942 
L 214.981113 -260.223201 
L 219.665638 -263.803554 
L 224.350163 -266.315442 
L 229.034689 -266.38613 
L 233.719214 -265.173602 
L 238.403739 -267.099778 
L 243.088264 -268.503712 
L 247.77279 -265.371226 
L 252.457315 -258.199601 
L 257.14184 -251.092186 
L 261.826366 -250.438441 
L 266.510891 -255.373676 
L 271.195416 -261.41339 
L 275.879941 -265.891024 
L 280.564467 -265.605161 
L 285.248992 -260.260949 
L 289.933517 -255.789287 
L 294.618043 -255.730704 
L 299.302568 -258.702051 
L 303.987093 -264.036605 
L 308.671619 -268.458774 
L 313.356144 -266.474212 
L 318.040669 -260.767371 
L 322.725194 -256.21091 
L 327.40972 -250.765064 
L 332.094245 -246.21073 
L 336.77877 -245.559247 
L 341.463296 -247.48738 
L 346.147821 -249.063343 
L 350.832346 -248.703009 
L 355.516871 -247.767288 
L 360.201397 -247.265499 
L 364.885922 -247.365312 
L 369.570447 -247.463588 
L 374.254973 -245.720391 
L 378.939498 -243.420719 
L 383.624023 -242.569255 
L 388.308548 -242.659757 
L 392.993074 -243.0339 
L 397.677599 -243.519479 
L 402.362124 -243.576512 
L 407.04665 -243.054603 
L 411.731175 -242.414338 
L 416.4157 -242.107918 
L 421.100225 -242.027509 
L 425.784751 -241.840112 
L 430.469276 -241.802187 
L 435.153801 -242.17213 
L 439.838327 -242.50223 
L 444.522852 -242.38933 
L 449.207377 -242.062509 
L 453.891902 -241.779912 
L 458.576428 -241.609761 
L 463.260953 -241.636329 
L 467.945478 -242.076276 
L 472.630004 -242.798989 
L 477.314529 -243.03304 
L 481.999054 -242.685259 
L 486.683579 -242.347591 
L 491.368105 -242.161315 
L 496.05263 -242.123618 
L 500.737155 -241.990636 
L 505.421681 -241.700135 
L 510.106206 -241.546203 
L 514.790731 -241.748825 
L 519.475256 -242.33173 
L 524.159782 -242.703811 
L 528.844307 -242.388094 
L 533.528832 -241.889787 
L 538.213358 -241.586901 
L 542.897883 -241.45116 
L 547.582408 -241.412346 
L 552.266934 -241.406663 
L 556.951459 -241.406264 
L 561.635984 -241.406268 
L 566.320509 -241.406828 
L 571.005035 -241.415422 
L 575.68956 -241.476464 
L 580.374085 -241.665462 
L 585.058611 -241.867737 
L 589.743136 -241.802472 
L 594.427661 -241.570306 
L 599.112186 -241.439008 
L 603.796712 -241.409404 
L 608.481237 -241.406397 
L 613.165762 -241.406288 
L 617.850288 -241.406968 
L 622.534813 -241.41343 
L 627.219338 -241.440895 
L 631.903863 -241.486865 
L 636.588389 -241.496713 
L 641.272914 -241.455205 
L 645.957439 -241.419026 
L 645.957439 -241.393474 
L 645.957439 -241.393474 
L 641.272914 -241.357295 
L 636.588389 -241.315787 
L 631.903863 -241.325635 
L 627.219338 -241.371605 
L 622.534813 -241.39907 
L 617.850288 -241.405532 
L 613.165762 -241.406212 
L 608.481237 -241.406103 
L 603.796712 -241.403096 
L 599.112186 -241.373492 
L 594.427661 -241.242194 
L 589.743136 -241.010028 
L 585.058611 -240.944763 
L 580.374085 -241.147038 
L 575.68956 -241.336036 
L 571.005035 -241.397078 
L 566.320509 -241.405672 
L 561.635984 -241.406232 
L 556.951459 -241.406236 
L 552.266934 -241.405837 
L 547.582408 -241.400154 
L 542.897883 -241.36134 
L 538.213358 -241.225599 
L 533.528832 -240.922713 
L 528.844307 -240.424406 
L 524.159782 -240.108689 
L 519.475256 -240.48077 
L 514.790731 -241.063675 
L 510.106206 -241.266297 
L 505.421681 -241.112365 
L 500.737155 -240.821864 
L 496.05263 -240.688882 
L 491.368105 -240.651185 
L 486.683579 -240.464909 
L 481.999054 -240.127241 
L 477.314529 -239.77946 
L 472.630004 -240.013511 
L 467.945478 -240.736224 
L 463.260953 -241.176171 
L 458.576428 -241.202739 
L 453.891902 -241.032588 
L 449.207377 -240.749991 
L 444.522852 -240.42317 
L 439.838327 -240.31027 
L 435.153801 -240.64037 
L 430.469276 -241.010313 
L 425.784751 -240.972388 
L 421.100225 -240.784991 
L 416.4157 -240.704582 
L 411.731175 -240.398162 
L 407.04665 -239.757897 
L 402.362124 -239.235988 
L 397.677599 -239.293021 
L 392.993074 -239.7786 
L 388.308548 -240.152743 
L 383.624023 -240.243245 
L 378.939498 -239.391781 
L 374.254973 -237.092109 
L 369.570447 -235.348912 
L 364.885922 -235.447188 
L 360.201397 -235.547001 
L 355.516871 -235.045212 
L 350.832346 -234.109491 
L 346.147821 -233.749157 
L 341.463296 -235.32512 
L 336.77877 -237.253253 
L 332.094245 -236.60177 
L 327.40972 -232.047436 
L 322.725194 -226.60159 
L 318.040669 -222.045129 
L 313.356144 -216.338288 
L 308.671619 -214.353726 
L 303.987093 -218.775895 
L 299.302568 -224.110449 
L 294.618043 -227.081796 
L 289.933517 -227.023213 
L 285.248992 -222.551551 
L 280.564467 -217.207339 
L 275.879941 -216.921476 
L 271.195416 -221.39911 
L 266.510891 -227.438824 
L 261.826366 -232.374059 
L 257.14184 -231.720314 
L 252.457315 -224.612899 
L 247.77279 -217.441274 
L 243.088264 -214.308788 
L 238.403739 -215.712722 
L 233.719214 -217.638898 
L 229.034689 -216.42637 
L 224.350163 -216.497058 
L 219.665638 -219.008946 
L 214.981113 -222.589299 
L 210.296587 -228.625558 
L 205.612062 -233.691459 
L 200.927537 -234.713607 
L 196.243012 -235.216268 
L 191.558486 -237.62574 
L 186.873961 -240.079588 
L 182.189436 -241.152151 
z
" id="m0d30fc5578" style="stroke:#4c4c4c;stroke-width:1.5;"/>
    </defs>
    <g clip-path="url(#p67ff581dad)">
     <use style="fill:#df9c20;stroke:#4c4c4c;stroke-width:1.5;" x="0" xlink:href="#m0d30fc5578" y="400.04775"/>
    </g>
   </g>
   <g id="PolyCollection_3">
    <defs>
     <path d="M 181.225222 -159.651744 
L 181.225222 -160.080756 
L 185.929226 -160.867026 
L 190.633231 -162.624925 
L 195.337235 -164.548285 
L 200.04124 -165.374652 
L 204.745244 -166.307996 
L 209.449248 -169.820315 
L 214.153253 -174.842314 
L 218.857257 -178.731655 
L 223.561261 -181.272501 
L 228.265266 -181.964256 
L 232.96927 -181.52121 
L 237.673274 -182.667256 
L 242.377279 -183.731319 
L 247.081283 -181.348564 
L 251.785287 -175.595255 
L 256.489292 -169.772596 
L 261.193296 -168.58814 
L 265.8973 -172.373216 
L 270.601305 -177.90337 
L 275.305309 -182.392155 
L 280.009313 -183.184405 
L 284.713318 -179.699752 
L 289.417322 -175.987718 
L 294.121327 -175.646255 
L 298.825331 -178.59027 
L 303.529335 -184.100836 
L 308.23334 -188.776794 
L 312.937344 -187.224283 
L 317.641348 -180.934978 
L 322.345353 -175.221963 
L 327.049357 -170.113682 
L 331.753361 -166.003245 
L 336.457366 -165.081149 
L 341.16137 -166.788696 
L 345.865374 -168.548054 
L 350.569379 -168.620748 
L 355.273383 -167.849807 
L 359.977387 -167.429433 
L 364.681392 -167.558726 
L 369.385396 -167.32727 
L 374.089401 -165.251884 
L 378.793405 -162.5607 
L 383.497409 -161.291908 
L 388.201414 -161.296275 
L 392.905418 -161.8179 
L 397.609422 -162.370757 
L 402.313427 -162.38113 
L 407.017431 -161.773606 
L 411.721435 -161.051743 
L 416.42544 -160.649859 
L 421.129444 -160.49216 
L 425.833448 -160.334129 
L 430.537453 -160.359144 
L 435.241457 -160.748202 
L 439.945461 -161.144806 
L 444.649466 -161.160333 
L 449.35347 -160.839532 
L 454.057474 -160.43943 
L 458.761479 -160.18251 
L 463.465483 -160.234339 
L 468.169488 -160.756375 
L 472.873492 -161.497984 
L 477.577496 -161.770251 
L 482.281501 -161.508925 
L 486.985505 -161.176123 
L 491.689509 -160.984249 
L 496.393514 -160.921083 
L 501.097518 -160.703538 
L 505.801522 -160.316425 
L 510.505527 -160.132146 
L 515.209531 -160.425183 
L 519.913535 -161.097443 
L 524.61754 -161.4839 
L 529.321544 -161.194127 
L 534.025548 -160.644823 
L 538.729553 -160.20596 
L 543.433557 -159.964578 
L 548.137562 -159.882975 
L 552.841566 -159.867826 
L 557.54557 -159.866336 
L 562.249575 -159.866447 
L 566.953579 -159.869731 
L 571.657583 -159.899635 
L 576.361588 -160.038265 
L 581.065592 -160.342386 
L 585.769596 -160.574274 
L 590.473601 -160.431859 
L 595.177605 -160.108987 
L 599.881609 -159.922214 
L 604.585614 -159.873182 
L 609.289618 -159.866727 
L 613.993622 -159.866609 
L 618.697627 -159.870263 
L 623.401631 -159.89154 
L 628.105635 -159.951874 
L 632.80964 -160.021989 
L 637.513644 -160.018426 
L 642.217649 -159.946132 
L 646.921653 -159.888777 
L 646.921653 -159.843723 
L 646.921653 -159.843723 
L 642.217649 -159.786368 
L 637.513644 -159.714074 
L 632.80964 -159.710511 
L 628.105635 -159.780626 
L 623.401631 -159.84096 
L 618.697627 -159.862237 
L 613.993622 -159.865891 
L 609.289618 -159.865773 
L 604.585614 -159.859318 
L 599.881609 -159.810286 
L 595.177605 -159.623513 
L 590.473601 -159.300641 
L 585.769596 -159.158226 
L 581.065592 -159.390114 
L 576.361588 -159.694235 
L 571.657583 -159.832865 
L 566.953579 -159.862769 
L 562.249575 -159.866053 
L 557.54557 -159.866164 
L 552.841566 -159.864674 
L 548.137562 -159.849525 
L 543.433557 -159.767922 
L 538.729553 -159.52654 
L 534.025548 -159.087677 
L 529.321544 -158.538373 
L 524.61754 -158.2486 
L 519.913535 -158.635057 
L 515.209531 -159.307317 
L 510.505527 -159.600354 
L 505.801522 -159.416075 
L 501.097518 -159.028962 
L 496.393514 -158.811417 
L 491.689509 -158.748251 
L 486.985505 -158.556377 
L 482.281501 -158.223575 
L 477.577496 -157.962249 
L 472.873492 -158.234516 
L 468.169488 -158.976125 
L 463.465483 -159.498161 
L 458.761479 -159.54999 
L 454.057474 -159.29307 
L 449.35347 -158.892968 
L 444.649466 -158.572167 
L 439.945461 -158.587694 
L 435.241457 -158.984298 
L 430.537453 -159.373356 
L 425.833448 -159.398371 
L 421.129444 -159.24034 
L 416.42544 -159.082641 
L 411.721435 -158.680757 
L 407.017431 -157.958894 
L 402.313427 -157.35137 
L 397.609422 -157.361743 
L 392.905418 -157.9146 
L 388.201414 -158.436225 
L 383.497409 -158.440592 
L 378.793405 -157.1718 
L 374.089401 -154.480616 
L 369.385396 -152.40523 
L 364.681392 -152.173774 
L 359.977387 -152.303067 
L 355.273383 -151.882693 
L 350.569379 -151.111752 
L 345.865374 -151.184446 
L 341.16137 -152.943804 
L 336.457366 -154.651351 
L 331.753361 -153.729255 
L 327.049357 -149.618818 
L 322.345353 -144.510537 
L 317.641348 -138.797522 
L 312.937344 -132.508217 
L 308.23334 -130.955706 
L 303.529335 -135.631664 
L 298.825331 -141.14223 
L 294.121327 -144.086245 
L 289.417322 -143.744782 
L 284.713318 -140.032748 
L 280.009313 -136.548095 
L 275.305309 -137.340345 
L 270.601305 -141.82913 
L 265.8973 -147.359284 
L 261.193296 -151.14436 
L 256.489292 -149.959904 
L 251.785287 -144.137245 
L 247.081283 -138.383936 
L 242.377279 -136.001181 
L 237.673274 -137.065244 
L 232.96927 -138.21129 
L 228.265266 -137.768244 
L 223.561261 -138.459999 
L 218.857257 -141.000845 
L 214.153253 -144.890186 
L 209.449248 -149.912185 
L 204.745244 -153.424504 
L 200.04124 -154.357848 
L 195.337235 -155.184215 
L 190.633231 -157.107575 
L 185.929226 -158.865474 
L 181.225222 -159.651744 
z
" id="me083a5927a" style="stroke:#4c4c4c;stroke-width:1.5;"/>
    </defs>
    <g clip-path="url(#p67ff581dad)">
     <use style="fill:#df9c20;stroke:#4c4c4c;stroke-width:1.5;" x="0" xlink:href="#me083a5927a" y="400.04775"/>
    </g>
   </g>
   <g id="PolyCollection_4">
    <defs>
     <path d="M 180.739398 -78.068025 
L 180.739398 -78.584475 
L 185.453217 -79.487693 
L 190.167036 -81.503676 
L 194.880855 -83.782217 
L 199.594674 -84.76435 
L 204.308493 -85.291217 
L 209.022312 -87.987589 
L 213.736131 -92.59949 
L 218.449949 -96.688012 
L 223.163768 -99.302615 
L 227.877587 -99.909051 
L 232.591406 -99.371416 
L 237.305225 -100.122261 
L 242.019044 -100.807992 
L 246.732863 -98.336448 
L 251.446682 -92.990981 
L 256.160501 -87.851539 
L 260.87432 -86.739859 
L 265.588139 -90.232384 
L 270.301958 -95.671412 
L 275.015777 -100.183172 
L 279.729596 -101.199187 
L 284.443415 -98.263162 
L 289.157234 -94.999265 
L 293.871053 -94.940456 
L 298.584872 -98.304391 
L 303.298691 -104.05594 
L 308.01251 -108.518918 
L 312.726329 -106.675328 
L 317.440148 -99.972615 
L 322.153967 -93.757487 
L 326.867786 -88.715125 
L 331.581605 -84.781076 
L 336.295424 -83.615439 
L 341.009243 -84.889454 
L 345.723062 -86.447385 
L 350.436881 -86.761208 
L 355.1507 -86.305864 
L 359.864519 -86.042526 
L 364.578338 -86.164947 
L 369.292157 -85.820209 
L 374.005976 -83.799153 
L 378.719795 -81.199389 
L 383.433614 -79.896253 
L 388.147433 -79.8748 
L 392.861252 -80.367366 
L 397.575071 -80.79801 
L 402.28889 -80.709774 
L 407.002709 -80.1479 
L 411.716528 -79.529591 
L 416.430347 -79.151926 
L 421.144166 -78.963108 
L 425.857985 -78.809447 
L 430.571804 -78.854614 
L 435.285623 -79.234991 
L 439.999442 -79.624661 
L 444.713261 -79.652281 
L 449.42708 -79.327302 
L 454.140899 -78.904291 
L 458.854718 -78.629111 
L 463.568537 -78.648263 
L 468.282356 -79.044853 
L 472.996175 -79.6012 
L 477.709994 -79.84479 
L 482.423813 -79.733619 
L 487.137632 -79.558472 
L 491.851451 -79.452645 
L 496.56527 -79.377174 
L 501.279089 -79.132281 
L 505.992908 -78.766134 
L 510.706727 -78.619466 
L 515.420546 -78.930646 
L 520.134365 -79.567382 
L 524.848184 -79.940709 
L 529.562003 -79.725477 
L 534.275822 -79.219121 
L 538.989641 -78.745207 
L 543.70346 -78.456561 
L 548.417279 -78.350741 
L 553.131098 -78.328908 
L 557.844917 -78.326435 
L 562.558736 -78.326776 
L 567.272555 -78.333455 
L 571.986374 -78.382343 
L 576.700193 -78.571705 
L 581.414012 -78.929982 
L 586.127831 -79.160938 
L 590.84165 -78.9749 
L 595.555469 -78.609588 
L 600.269288 -78.395817 
L 604.983107 -78.335852 
L 609.696926 -78.327033 
L 614.410744 -78.326917 
L 619.124563 -78.33213 
L 623.838382 -78.356878 
L 628.552201 -78.415937 
L 633.26602 -78.473868 
L 637.979839 -78.46282 
L 642.693658 -78.39727 
L 647.407477 -78.347009 
L 647.407477 -78.305491 
L 647.407477 -78.305491 
L 642.693658 -78.25523 
L 637.979839 -78.18968 
L 633.26602 -78.178632 
L 628.552201 -78.236563 
L 623.838382 -78.295622 
L 619.124563 -78.32037 
L 614.410744 -78.325583 
L 609.696926 -78.325467 
L 604.983107 -78.316648 
L 600.269288 -78.256683 
L 595.555469 -78.042912 
L 590.84165 -77.6776 
L 586.127831 -77.491562 
L 581.414012 -77.722518 
L 576.700193 -78.080795 
L 571.986374 -78.270157 
L 567.272555 -78.319045 
L 562.558736 -78.325724 
L 557.844917 -78.326065 
L 553.131098 -78.323592 
L 548.417279 -78.301759 
L 543.70346 -78.195939 
L 538.989641 -77.907293 
L 534.275822 -77.433379 
L 529.562003 -76.927023 
L 524.848184 -76.711791 
L 520.134365 -77.085118 
L 515.420546 -77.721854 
L 510.706727 -78.033034 
L 505.992908 -77.886366 
L 501.279089 -77.520219 
L 496.56527 -77.275326 
L 491.851451 -77.199855 
L 487.137632 -77.094028 
L 482.423813 -76.918881 
L 477.709994 -76.80771 
L 472.996175 -77.0513 
L 468.282356 -77.607647 
L 463.568537 -78.004237 
L 458.854718 -78.023389 
L 454.140899 -77.748209 
L 449.42708 -77.325198 
L 444.713261 -77.000219 
L 439.999442 -77.027839 
L 435.285623 -77.417509 
L 430.571804 -77.797886 
L 425.857985 -77.843053 
L 421.144166 -77.689392 
L 416.430347 -77.500574 
L 411.716528 -77.122909 
L 407.002709 -76.5046 
L 402.28889 -75.942726 
L 397.575071 -75.85449 
L 392.861252 -76.285134 
L 388.147433 -76.7777 
L 383.433614 -76.756247 
L 378.719795 -75.453111 
L 374.005976 -72.853347 
L 369.292157 -70.832291 
L 364.578338 -70.487553 
L 359.864519 -70.609974 
L 355.1507 -70.346636 
L 350.436881 -69.891292 
L 345.723062 -70.205115 
L 341.009243 -71.763046 
L 336.295424 -73.037061 
L 331.581605 -71.871424 
L 326.867786 -67.937375 
L 322.153967 -62.895013 
L 317.440148 -56.679885 
L 312.726329 -49.977172 
L 308.01251 -48.133582 
L 303.298691 -52.59656 
L 298.584872 -58.348109 
L 293.871053 -61.712044 
L 289.157234 -61.653235 
L 284.443415 -58.389338 
L 279.729596 -55.453313 
L 275.015777 -56.469328 
L 270.301958 -60.981088 
L 265.588139 -66.420116 
L 260.87432 -69.912641 
L 256.160501 -68.800961 
L 251.446682 -63.661519 
L 246.732863 -58.316052 
L 242.019044 -55.844508 
L 237.305225 -56.530239 
L 232.591406 -57.281084 
L 227.877587 -56.743449 
L 223.163768 -57.349885 
L 218.449949 -59.964488 
L 213.736131 -64.05301 
L 209.022312 -68.664911 
L 204.308493 -71.361283 
L 199.594674 -71.88815 
L 194.880855 -72.870283 
L 190.167036 -75.148824 
L 185.453217 -77.164807 
L 180.739398 -78.068025 
z
" id="md619d104dc" style="stroke:#4c4c4c;stroke-width:1.5;"/>
    </defs>
    <g clip-path="url(#p67ff581dad)">
     <use style="fill:#df9c20;stroke:#4c4c4c;stroke-width:1.5;" x="0" xlink:href="#md619d104dc" y="400.04775"/>
    </g>
   </g>
   <g id="matplotlib.axis_1">
    <g id="xtick_1">
     <g id="line2d_1">
      <defs>
       <path d="M 0 0 
L 0 3.5 
" id="mf14e51c070" style="stroke:#000000;stroke-width:0.8;"/>
      </defs>
      <g>
       <use style="stroke:#000000;stroke-width:0.8;" x="173.415274" xlink:href="#mf14e51c070" y="362.4915"/>
      </g>
     </g>
     <g id="text_1">
      <!-- 0.0 -->
      <defs>
       <path d="M 31.78125 66.40625 
Q 24.171875 66.40625 20.328125 58.90625 
Q 16.5 51.421875 16.5 36.375 
Q 16.5 21.390625 20.328125 13.890625 
Q 24.171875 6.390625 31.78125 6.390625 
Q 39.453125 6.390625 43.28125 13.890625 
Q 47.125 21.390625 47.125 36.375 
Q 47.125 51.421875 43.28125 58.90625 
Q 39.453125 66.40625 31.78125 66.40625 
z
M 31.78125 74.21875 
Q 44.046875 74.21875 50.515625 64.515625 
Q 56.984375 54.828125 56.984375 36.375 
Q 56.984375 17.96875 50.515625 8.265625 
Q 44.046875 -1.421875 31.78125 -1.421875 
Q 19.53125 -1.421875 13.0625 8.265625 
Q 6.59375 17.96875 6.59375 36.375 
Q 6.59375 54.828125 13.0625 64.515625 
Q 19.53125 74.21875 31.78125 74.21875 
z
" id="DejaVuSans-48"/>
       <path d="M 10.6875 12.40625 
L 21 12.40625 
L 21 0 
L 10.6875 0 
z
" id="DejaVuSans-46"/>
      </defs>
      <g transform="translate(165.463711 377.089938)scale(0.1 -0.1)">
       <use xlink:href="#DejaVuSans-48"/>
       <use x="63.623047" xlink:href="#DejaVuSans-46"/>
       <use x="95.410156" xlink:href="#DejaVuSans-48"/>
      </g>
     </g>
    </g>
    <g id="xtick_2">
     <g id="line2d_2">
      <g>
       <use style="stroke:#000000;stroke-width:0.8;" x="289.589256" xlink:href="#mf14e51c070" y="362.4915"/>
      </g>
     </g>
     <g id="text_2">
      <!-- 0.1 -->
      <defs>
       <path d="M 12.40625 8.296875 
L 28.515625 8.296875 
L 28.515625 63.921875 
L 10.984375 60.40625 
L 10.984375 69.390625 
L 28.421875 72.90625 
L 38.28125 72.90625 
L 38.28125 8.296875 
L 54.390625 8.296875 
L 54.390625 0 
L 12.40625 0 
z
" id="DejaVuSans-49"/>
      </defs>
      <g transform="translate(281.637694 377.089938)scale(0.1 -0.1)">
       <use xlink:href="#DejaVuSans-48"/>
       <use x="63.623047" xlink:href="#DejaVuSans-46"/>
       <use x="95.410156" xlink:href="#DejaVuSans-49"/>
      </g>
     </g>
    </g>
    <g id="xtick_3">
     <g id="line2d_3">
      <g>
       <use style="stroke:#000000;stroke-width:0.8;" x="405.763238" xlink:href="#mf14e51c070" y="362.4915"/>
      </g>
     </g>
     <g id="text_3">
      <!-- 0.2 -->
      <defs>
       <path d="M 19.1875 8.296875 
L 53.609375 8.296875 
L 53.609375 0 
L 7.328125 0 
L 7.328125 8.296875 
Q 12.9375 14.109375 22.625 23.890625 
Q 32.328125 33.6875 34.8125 36.53125 
Q 39.546875 41.84375 41.421875 45.53125 
Q 43.3125 49.21875 43.3125 52.78125 
Q 43.3125 58.59375 39.234375 62.25 
Q 35.15625 65.921875 28.609375 65.921875 
Q 23.96875 65.921875 18.8125 64.3125 
Q 13.671875 62.703125 7.8125 59.421875 
L 7.8125 69.390625 
Q 13.765625 71.78125 18.9375 73 
Q 24.125 74.21875 28.421875 74.21875 
Q 39.75 74.21875 46.484375 68.546875 
Q 53.21875 62.890625 53.21875 53.421875 
Q 53.21875 48.921875 51.53125 44.890625 
Q 49.859375 40.875 45.40625 35.40625 
Q 44.1875 33.984375 37.640625 27.21875 
Q 31.109375 20.453125 19.1875 8.296875 
z
" id="DejaVuSans-50"/>
      </defs>
      <g transform="translate(397.811676 377.089938)scale(0.1 -0.1)">
       <use xlink:href="#DejaVuSans-48"/>
       <use x="63.623047" xlink:href="#DejaVuSans-46"/>
       <use x="95.410156" xlink:href="#DejaVuSans-50"/>
      </g>
     </g>
    </g>
    <g id="xtick_4">
     <g id="line2d_4">
      <g>
       <use style="stroke:#000000;stroke-width:0.8;" x="521.937221" xlink:href="#mf14e51c070" y="362.4915"/>
      </g>
     </g>
     <g id="text_4">
      <!-- 0.3 -->
      <defs>
       <path d="M 40.578125 39.3125 
Q 47.65625 37.796875 51.625 33 
Q 55.609375 28.21875 55.609375 21.1875 
Q 55.609375 10.40625 48.1875 4.484375 
Q 40.765625 -1.421875 27.09375 -1.421875 
Q 22.515625 -1.421875 17.65625 -0.515625 
Q 12.796875 0.390625 7.625 2.203125 
L 7.625 11.71875 
Q 11.71875 9.328125 16.59375 8.109375 
Q 21.484375 6.890625 26.8125 6.890625 
Q 36.078125 6.890625 40.9375 10.546875 
Q 45.796875 14.203125 45.796875 21.1875 
Q 45.796875 27.640625 41.28125 31.265625 
Q 36.765625 34.90625 28.71875 34.90625 
L 20.21875 34.90625 
L 20.21875 43.015625 
L 29.109375 43.015625 
Q 36.375 43.015625 40.234375 45.921875 
Q 44.09375 48.828125 44.09375 54.296875 
Q 44.09375 59.90625 40.109375 62.90625 
Q 36.140625 65.921875 28.71875 65.921875 
Q 24.65625 65.921875 20.015625 65.03125 
Q 15.375 64.15625 9.8125 62.3125 
L 9.8125 71.09375 
Q 15.4375 72.65625 20.34375 73.4375 
Q 25.25 74.21875 29.59375 74.21875 
Q 40.828125 74.21875 47.359375 69.109375 
Q 53.90625 64.015625 53.90625 55.328125 
Q 53.90625 49.265625 50.4375 45.09375 
Q 46.96875 40.921875 40.578125 39.3125 
z
" id="DejaVuSans-51"/>
      </defs>
      <g transform="translate(513.985658 377.089938)scale(0.1 -0.1)">
       <use xlink:href="#DejaVuSans-48"/>
       <use x="63.623047" xlink:href="#DejaVuSans-46"/>
       <use x="95.410156" xlink:href="#DejaVuSans-51"/>
      </g>
     </g>
    </g>
    <g id="xtick_5">
     <g id="line2d_5">
      <g>
       <use style="stroke:#000000;stroke-width:0.8;" x="638.111203" xlink:href="#mf14e51c070" y="362.4915"/>
      </g>
     </g>
     <g id="text_5">
      <!-- 0.4 -->
      <defs>
       <path d="M 37.796875 64.3125 
L 12.890625 25.390625 
L 37.796875 25.390625 
z
M 35.203125 72.90625 
L 47.609375 72.90625 
L 47.609375 25.390625 
L 58.015625 25.390625 
L 58.015625 17.1875 
L 47.609375 17.1875 
L 47.609375 0 
L 37.796875 0 
L 37.796875 17.1875 
L 4.890625 17.1875 
L 4.890625 26.703125 
z
" id="DejaVuSans-52"/>
      </defs>
      <g transform="translate(630.15964 377.089938)scale(0.1 -0.1)">
       <use xlink:href="#DejaVuSans-48"/>
       <use x="63.623047" xlink:href="#DejaVuSans-46"/>
       <use x="95.410156" xlink:href="#DejaVuSans-52"/>
      </g>
     </g>
    </g>
    <g id="text_6">
     <!-- Tasa con NBI -->
     <defs>
      <path d="M -0.296875 72.90625 
L 61.375 72.90625 
L 61.375 64.59375 
L 35.5 64.59375 
L 35.5 0 
L 25.59375 0 
L 25.59375 64.59375 
L -0.296875 64.59375 
z
" id="DejaVuSans-84"/>
      <path d="M 34.28125 27.484375 
Q 23.390625 27.484375 19.1875 25 
Q 14.984375 22.515625 14.984375 16.5 
Q 14.984375 11.71875 18.140625 8.90625 
Q 21.296875 6.109375 26.703125 6.109375 
Q 34.1875 6.109375 38.703125 11.40625 
Q 43.21875 16.703125 43.21875 25.484375 
L 43.21875 27.484375 
z
M 52.203125 31.203125 
L 52.203125 0 
L 43.21875 0 
L 43.21875 8.296875 
Q 40.140625 3.328125 35.546875 0.953125 
Q 30.953125 -1.421875 24.3125 -1.421875 
Q 15.921875 -1.421875 10.953125 3.296875 
Q 6 8.015625 6 15.921875 
Q 6 25.140625 12.171875 29.828125 
Q 18.359375 34.515625 30.609375 34.515625 
L 43.21875 34.515625 
L 43.21875 35.40625 
Q 43.21875 41.609375 39.140625 45 
Q 35.0625 48.390625 27.6875 48.390625 
Q 23 48.390625 18.546875 47.265625 
Q 14.109375 46.140625 10.015625 43.890625 
L 10.015625 52.203125 
Q 14.9375 54.109375 19.578125 55.046875 
Q 24.21875 56 28.609375 56 
Q 40.484375 56 46.34375 49.84375 
Q 52.203125 43.703125 52.203125 31.203125 
z
" id="DejaVuSans-97"/>
      <path d="M 44.28125 53.078125 
L 44.28125 44.578125 
Q 40.484375 46.53125 36.375 47.5 
Q 32.28125 48.484375 27.875 48.484375 
Q 21.1875 48.484375 17.84375 46.4375 
Q 14.5 44.390625 14.5 40.28125 
Q 14.5 37.15625 16.890625 35.375 
Q 19.28125 33.59375 26.515625 31.984375 
L 29.59375 31.296875 
Q 39.15625 29.25 43.1875 25.515625 
Q 47.21875 21.78125 47.21875 15.09375 
Q 47.21875 7.46875 41.1875 3.015625 
Q 35.15625 -1.421875 24.609375 -1.421875 
Q 20.21875 -1.421875 15.453125 -0.5625 
Q 10.6875 0.296875 5.421875 2 
L 5.421875 11.28125 
Q 10.40625 8.6875 15.234375 7.390625 
Q 20.0625 6.109375 24.8125 6.109375 
Q 31.15625 6.109375 34.5625 8.28125 
Q 37.984375 10.453125 37.984375 14.40625 
Q 37.984375 18.0625 35.515625 20.015625 
Q 33.0625 21.96875 24.703125 23.78125 
L 21.578125 24.515625 
Q 13.234375 26.265625 9.515625 29.90625 
Q 5.8125 33.546875 5.8125 39.890625 
Q 5.8125 47.609375 11.28125 51.796875 
Q 16.75 56 26.8125 56 
Q 31.78125 56 36.171875 55.265625 
Q 40.578125 54.546875 44.28125 53.078125 
z
" id="DejaVuSans-115"/>
      <path id="DejaVuSans-32"/>
      <path d="M 48.78125 52.59375 
L 48.78125 44.1875 
Q 44.96875 46.296875 41.140625 47.34375 
Q 37.3125 48.390625 33.40625 48.390625 
Q 24.65625 48.390625 19.8125 42.84375 
Q 14.984375 37.3125 14.984375 27.296875 
Q 14.984375 17.28125 19.8125 11.734375 
Q 24.65625 6.203125 33.40625 6.203125 
Q 37.3125 6.203125 41.140625 7.25 
Q 44.96875 8.296875 48.78125 10.40625 
L 48.78125 2.09375 
Q 45.015625 0.34375 40.984375 -0.53125 
Q 36.96875 -1.421875 32.421875 -1.421875 
Q 20.0625 -1.421875 12.78125 6.34375 
Q 5.515625 14.109375 5.515625 27.296875 
Q 5.515625 40.671875 12.859375 48.328125 
Q 20.21875 56 33.015625 56 
Q 37.15625 56 41.109375 55.140625 
Q 45.0625 54.296875 48.78125 52.59375 
z
" id="DejaVuSans-99"/>
      <path d="M 30.609375 48.390625 
Q 23.390625 48.390625 19.1875 42.75 
Q 14.984375 37.109375 14.984375 27.296875 
Q 14.984375 17.484375 19.15625 11.84375 
Q 23.34375 6.203125 30.609375 6.203125 
Q 37.796875 6.203125 41.984375 11.859375 
Q 46.1875 17.53125 46.1875 27.296875 
Q 46.1875 37.015625 41.984375 42.703125 
Q 37.796875 48.390625 30.609375 48.390625 
z
M 30.609375 56 
Q 42.328125 56 49.015625 48.375 
Q 55.71875 40.765625 55.71875 27.296875 
Q 55.71875 13.875 49.015625 6.21875 
Q 42.328125 -1.421875 30.609375 -1.421875 
Q 18.84375 -1.421875 12.171875 6.21875 
Q 5.515625 13.875 5.515625 27.296875 
Q 5.515625 40.765625 12.171875 48.375 
Q 18.84375 56 30.609375 56 
z
" id="DejaVuSans-111"/>
      <path d="M 54.890625 33.015625 
L 54.890625 0 
L 45.90625 0 
L 45.90625 32.71875 
Q 45.90625 40.484375 42.875 44.328125 
Q 39.84375 48.1875 33.796875 48.1875 
Q 26.515625 48.1875 22.3125 43.546875 
Q 18.109375 38.921875 18.109375 30.90625 
L 18.109375 0 
L 9.078125 0 
L 9.078125 54.6875 
L 18.109375 54.6875 
L 18.109375 46.1875 
Q 21.34375 51.125 25.703125 53.5625 
Q 30.078125 56 35.796875 56 
Q 45.21875 56 50.046875 50.171875 
Q 54.890625 44.34375 54.890625 33.015625 
z
" id="DejaVuSans-110"/>
      <path d="M 9.8125 72.90625 
L 23.09375 72.90625 
L 55.421875 11.921875 
L 55.421875 72.90625 
L 64.984375 72.90625 
L 64.984375 0 
L 51.703125 0 
L 19.390625 60.984375 
L 19.390625 0 
L 9.8125 0 
z
" id="DejaVuSans-78"/>
      <path d="M 19.671875 34.8125 
L 19.671875 8.109375 
L 35.5 8.109375 
Q 43.453125 8.109375 47.28125 11.40625 
Q 51.125 14.703125 51.125 21.484375 
Q 51.125 28.328125 47.28125 31.5625 
Q 43.453125 34.8125 35.5 34.8125 
z
M 19.671875 64.796875 
L 19.671875 42.828125 
L 34.28125 42.828125 
Q 41.5 42.828125 45.03125 45.53125 
Q 48.578125 48.25 48.578125 53.8125 
Q 48.578125 59.328125 45.03125 62.0625 
Q 41.5 64.796875 34.28125 64.796875 
z
M 9.8125 72.90625 
L 35.015625 72.90625 
Q 46.296875 72.90625 52.390625 68.21875 
Q 58.5 63.53125 58.5 54.890625 
Q 58.5 48.1875 55.375 44.234375 
Q 52.25 40.28125 46.1875 39.3125 
Q 53.46875 37.75 57.5 32.78125 
Q 61.53125 27.828125 61.53125 20.40625 
Q 61.53125 10.640625 54.890625 5.3125 
Q 48.25 0 35.984375 0 
L 9.8125 0 
z
" id="DejaVuSans-66"/>
      <path d="M 9.8125 72.90625 
L 19.671875 72.90625 
L 19.671875 0 
L 9.8125 0 
z
" id="DejaVuSans-73"/>
     </defs>
     <g transform="translate(381.497656 390.768062)scale(0.1 -0.1)">
      <use xlink:href="#DejaVuSans-84"/>
      <use x="60.833984" xlink:href="#DejaVuSans-97"/>
      <use x="122.113281" xlink:href="#DejaVuSans-115"/>
      <use x="174.212891" xlink:href="#DejaVuSans-97"/>
      <use x="235.492188" xlink:href="#DejaVuSans-32"/>
      <use x="267.279297" xlink:href="#DejaVuSans-99"/>
      <use x="322.259766" xlink:href="#DejaVuSans-111"/>
      <use x="383.441406" xlink:href="#DejaVuSans-110"/>
      <use x="446.820312" xlink:href="#DejaVuSans-32"/>
      <use x="478.607422" xlink:href="#DejaVuSans-78"/>
      <use x="553.412109" xlink:href="#DejaVuSans-66"/>
      <use x="622.015625" xlink:href="#DejaVuSans-73"/>
     </g>
    </g>
   </g>
   <g id="matplotlib.axis_2">
    <g id="ytick_1">
     <g id="line2d_6">
      <defs>
       <path d="M 0 0 
L -3.5 0 
" id="ma3586a1819" style="stroke:#000000;stroke-width:0.8;"/>
      </defs>
      <g>
       <use style="stroke:#000000;stroke-width:0.8;" x="135.073438" xlink:href="#ma3586a1819" y="77.1015"/>
      </g>
     </g>
     <g id="text_7">
      <!-- Avanzado -->
      <defs>
       <path d="M 34.1875 63.1875 
L 20.796875 26.90625 
L 47.609375 26.90625 
z
M 28.609375 72.90625 
L 39.796875 72.90625 
L 67.578125 0 
L 57.328125 0 
L 50.6875 18.703125 
L 17.828125 18.703125 
L 11.1875 0 
L 0.78125 0 
z
" id="DejaVuSans-65"/>
       <path d="M 2.984375 54.6875 
L 12.5 54.6875 
L 29.59375 8.796875 
L 46.6875 54.6875 
L 56.203125 54.6875 
L 35.6875 0 
L 23.484375 0 
z
" id="DejaVuSans-118"/>
       <path d="M 5.515625 54.6875 
L 48.1875 54.6875 
L 48.1875 46.484375 
L 14.40625 7.171875 
L 48.1875 7.171875 
L 48.1875 0 
L 4.296875 0 
L 4.296875 8.203125 
L 38.09375 47.515625 
L 5.515625 47.515625 
z
" id="DejaVuSans-122"/>
       <path d="M 45.40625 46.390625 
L 45.40625 75.984375 
L 54.390625 75.984375 
L 54.390625 0 
L 45.40625 0 
L 45.40625 8.203125 
Q 42.578125 3.328125 38.25 0.953125 
Q 33.9375 -1.421875 27.875 -1.421875 
Q 17.96875 -1.421875 11.734375 6.484375 
Q 5.515625 14.40625 5.515625 27.296875 
Q 5.515625 40.1875 11.734375 48.09375 
Q 17.96875 56 27.875 56 
Q 33.9375 56 38.25 53.625 
Q 42.578125 51.265625 45.40625 46.390625 
z
M 14.796875 27.296875 
Q 14.796875 17.390625 18.875 11.75 
Q 22.953125 6.109375 30.078125 6.109375 
Q 37.203125 6.109375 41.296875 11.75 
Q 45.40625 17.390625 45.40625 27.296875 
Q 45.40625 37.203125 41.296875 42.84375 
Q 37.203125 48.484375 30.078125 48.484375 
Q 22.953125 48.484375 18.875 42.84375 
Q 14.796875 37.203125 14.796875 27.296875 
z
" id="DejaVuSans-100"/>
      </defs>
      <g transform="translate(79.0125 80.900719)scale(0.1 -0.1)">
       <use xlink:href="#DejaVuSans-65"/>
       <use x="68.330078" xlink:href="#DejaVuSans-118"/>
       <use x="127.509766" xlink:href="#DejaVuSans-97"/>
       <use x="188.789062" xlink:href="#DejaVuSans-110"/>
       <use x="252.167969" xlink:href="#DejaVuSans-122"/>
       <use x="304.658203" xlink:href="#DejaVuSans-97"/>
       <use x="365.9375" xlink:href="#DejaVuSans-100"/>
       <use x="429.414062" xlink:href="#DejaVuSans-111"/>
      </g>
     </g>
    </g>
    <g id="ytick_2">
     <g id="line2d_7">
      <g>
       <use style="stroke:#000000;stroke-width:0.8;" x="135.073438" xlink:href="#ma3586a1819" y="158.6415"/>
      </g>
     </g>
     <g id="text_8">
      <!-- Satisfactorio -->
      <defs>
       <path d="M 53.515625 70.515625 
L 53.515625 60.890625 
Q 47.90625 63.578125 42.921875 64.890625 
Q 37.9375 66.21875 33.296875 66.21875 
Q 25.25 66.21875 20.875 63.09375 
Q 16.5 59.96875 16.5 54.203125 
Q 16.5 49.359375 19.40625 46.890625 
Q 22.3125 44.4375 30.421875 42.921875 
L 36.375 41.703125 
Q 47.40625 39.59375 52.65625 34.296875 
Q 57.90625 29 57.90625 20.125 
Q 57.90625 9.515625 50.796875 4.046875 
Q 43.703125 -1.421875 29.984375 -1.421875 
Q 24.8125 -1.421875 18.96875 -0.25 
Q 13.140625 0.921875 6.890625 3.21875 
L 6.890625 13.375 
Q 12.890625 10.015625 18.65625 8.296875 
Q 24.421875 6.59375 29.984375 6.59375 
Q 38.421875 6.59375 43.015625 9.90625 
Q 47.609375 13.234375 47.609375 19.390625 
Q 47.609375 24.75 44.3125 27.78125 
Q 41.015625 30.8125 33.5 32.328125 
L 27.484375 33.5 
Q 16.453125 35.6875 11.515625 40.375 
Q 6.59375 45.0625 6.59375 53.421875 
Q 6.59375 63.09375 13.40625 68.65625 
Q 20.21875 74.21875 32.171875 74.21875 
Q 37.3125 74.21875 42.625 73.28125 
Q 47.953125 72.359375 53.515625 70.515625 
z
" id="DejaVuSans-83"/>
       <path d="M 18.3125 70.21875 
L 18.3125 54.6875 
L 36.8125 54.6875 
L 36.8125 47.703125 
L 18.3125 47.703125 
L 18.3125 18.015625 
Q 18.3125 11.328125 20.140625 9.421875 
Q 21.96875 7.515625 27.59375 7.515625 
L 36.8125 7.515625 
L 36.8125 0 
L 27.59375 0 
Q 17.1875 0 13.234375 3.875 
Q 9.28125 7.765625 9.28125 18.015625 
L 9.28125 47.703125 
L 2.6875 47.703125 
L 2.6875 54.6875 
L 9.28125 54.6875 
L 9.28125 70.21875 
z
" id="DejaVuSans-116"/>
       <path d="M 9.421875 54.6875 
L 18.40625 54.6875 
L 18.40625 0 
L 9.421875 0 
z
M 9.421875 75.984375 
L 18.40625 75.984375 
L 18.40625 64.59375 
L 9.421875 64.59375 
z
" id="DejaVuSans-105"/>
       <path d="M 37.109375 75.984375 
L 37.109375 68.5 
L 28.515625 68.5 
Q 23.6875 68.5 21.796875 66.546875 
Q 19.921875 64.59375 19.921875 59.515625 
L 19.921875 54.6875 
L 34.71875 54.6875 
L 34.71875 47.703125 
L 19.921875 47.703125 
L 19.921875 0 
L 10.890625 0 
L 10.890625 47.703125 
L 2.296875 47.703125 
L 2.296875 54.6875 
L 10.890625 54.6875 
L 10.890625 58.5 
Q 10.890625 67.625 15.140625 71.796875 
Q 19.390625 75.984375 28.609375 75.984375 
z
" id="DejaVuSans-102"/>
       <path d="M 41.109375 46.296875 
Q 39.59375 47.171875 37.8125 47.578125 
Q 36.03125 48 33.890625 48 
Q 26.265625 48 22.1875 43.046875 
Q 18.109375 38.09375 18.109375 28.8125 
L 18.109375 0 
L 9.078125 0 
L 9.078125 54.6875 
L 18.109375 54.6875 
L 18.109375 46.1875 
Q 20.953125 51.171875 25.484375 53.578125 
Q 30.03125 56 36.53125 56 
Q 37.453125 56 38.578125 55.875 
Q 39.703125 55.765625 41.0625 55.515625 
z
" id="DejaVuSans-114"/>
      </defs>
      <g transform="translate(65.495313 162.440719)scale(0.1 -0.1)">
       <use xlink:href="#DejaVuSans-83"/>
       <use x="63.476562" xlink:href="#DejaVuSans-97"/>
       <use x="124.755859" xlink:href="#DejaVuSans-116"/>
       <use x="163.964844" xlink:href="#DejaVuSans-105"/>
       <use x="191.748047" xlink:href="#DejaVuSans-115"/>
       <use x="243.847656" xlink:href="#DejaVuSans-102"/>
       <use x="279.052734" xlink:href="#DejaVuSans-97"/>
       <use x="340.332031" xlink:href="#DejaVuSans-99"/>
       <use x="395.3125" xlink:href="#DejaVuSans-116"/>
       <use x="434.521484" xlink:href="#DejaVuSans-111"/>
       <use x="495.703125" xlink:href="#DejaVuSans-114"/>
       <use x="536.816406" xlink:href="#DejaVuSans-105"/>
       <use x="564.599609" xlink:href="#DejaVuSans-111"/>
      </g>
     </g>
    </g>
    <g id="ytick_3">
     <g id="line2d_8">
      <g>
       <use style="stroke:#000000;stroke-width:0.8;" x="135.073438" xlink:href="#ma3586a1819" y="240.1815"/>
      </g>
     </g>
     <g id="text_9">
      <!-- Básico -->
      <defs>
       <path d="M 34.28125 27.484375 
Q 23.390625 27.484375 19.1875 25 
Q 14.984375 22.515625 14.984375 16.5 
Q 14.984375 11.71875 18.140625 8.90625 
Q 21.296875 6.109375 26.703125 6.109375 
Q 34.1875 6.109375 38.703125 11.40625 
Q 43.21875 16.703125 43.21875 25.484375 
L 43.21875 27.484375 
z
M 52.203125 31.203125 
L 52.203125 0 
L 43.21875 0 
L 43.21875 8.296875 
Q 40.140625 3.328125 35.546875 0.953125 
Q 30.953125 -1.421875 24.3125 -1.421875 
Q 15.921875 -1.421875 10.953125 3.296875 
Q 6 8.015625 6 15.921875 
Q 6 25.140625 12.171875 29.828125 
Q 18.359375 34.515625 30.609375 34.515625 
L 43.21875 34.515625 
L 43.21875 35.40625 
Q 43.21875 41.609375 39.140625 45 
Q 35.0625 48.390625 27.6875 48.390625 
Q 23 48.390625 18.546875 47.265625 
Q 14.109375 46.140625 10.015625 43.890625 
L 10.015625 52.203125 
Q 14.9375 54.109375 19.578125 55.046875 
Q 24.21875 56 28.609375 56 
Q 40.484375 56 46.34375 49.84375 
Q 52.203125 43.703125 52.203125 31.203125 
z
M 35.796875 79.984375 
L 45.515625 79.984375 
L 29.59375 61.625 
L 22.125 61.625 
z
" id="DejaVuSans-225"/>
      </defs>
      <g transform="translate(95.479688 243.980719)scale(0.1 -0.1)">
       <use xlink:href="#DejaVuSans-66"/>
       <use x="68.603516" xlink:href="#DejaVuSans-225"/>
       <use x="129.882812" xlink:href="#DejaVuSans-115"/>
       <use x="181.982422" xlink:href="#DejaVuSans-105"/>
       <use x="209.765625" xlink:href="#DejaVuSans-99"/>
       <use x="264.746094" xlink:href="#DejaVuSans-111"/>
      </g>
     </g>
    </g>
    <g id="ytick_4">
     <g id="line2d_9">
      <g>
       <use style="stroke:#000000;stroke-width:0.8;" x="135.073438" xlink:href="#ma3586a1819" y="321.7215"/>
      </g>
     </g>
     <g id="text_10">
      <!-- Por debajo del básico -->
      <defs>
       <path d="M 19.671875 64.796875 
L 19.671875 37.40625 
L 32.078125 37.40625 
Q 38.96875 37.40625 42.71875 40.96875 
Q 46.484375 44.53125 46.484375 51.125 
Q 46.484375 57.671875 42.71875 61.234375 
Q 38.96875 64.796875 32.078125 64.796875 
z
M 9.8125 72.90625 
L 32.078125 72.90625 
Q 44.34375 72.90625 50.609375 67.359375 
Q 56.890625 61.8125 56.890625 51.125 
Q 56.890625 40.328125 50.609375 34.8125 
Q 44.34375 29.296875 32.078125 29.296875 
L 19.671875 29.296875 
L 19.671875 0 
L 9.8125 0 
z
" id="DejaVuSans-80"/>
       <path d="M 56.203125 29.59375 
L 56.203125 25.203125 
L 14.890625 25.203125 
Q 15.484375 15.921875 20.484375 11.0625 
Q 25.484375 6.203125 34.421875 6.203125 
Q 39.59375 6.203125 44.453125 7.46875 
Q 49.3125 8.734375 54.109375 11.28125 
L 54.109375 2.78125 
Q 49.265625 0.734375 44.1875 -0.34375 
Q 39.109375 -1.421875 33.890625 -1.421875 
Q 20.796875 -1.421875 13.15625 6.1875 
Q 5.515625 13.8125 5.515625 26.8125 
Q 5.515625 40.234375 12.765625 48.109375 
Q 20.015625 56 32.328125 56 
Q 43.359375 56 49.78125 48.890625 
Q 56.203125 41.796875 56.203125 29.59375 
z
M 47.21875 32.234375 
Q 47.125 39.59375 43.09375 43.984375 
Q 39.0625 48.390625 32.421875 48.390625 
Q 24.90625 48.390625 20.390625 44.140625 
Q 15.875 39.890625 15.1875 32.171875 
z
" id="DejaVuSans-101"/>
       <path d="M 48.6875 27.296875 
Q 48.6875 37.203125 44.609375 42.84375 
Q 40.53125 48.484375 33.40625 48.484375 
Q 26.265625 48.484375 22.1875 42.84375 
Q 18.109375 37.203125 18.109375 27.296875 
Q 18.109375 17.390625 22.1875 11.75 
Q 26.265625 6.109375 33.40625 6.109375 
Q 40.53125 6.109375 44.609375 11.75 
Q 48.6875 17.390625 48.6875 27.296875 
z
M 18.109375 46.390625 
Q 20.953125 51.265625 25.265625 53.625 
Q 29.59375 56 35.59375 56 
Q 45.5625 56 51.78125 48.09375 
Q 58.015625 40.1875 58.015625 27.296875 
Q 58.015625 14.40625 51.78125 6.484375 
Q 45.5625 -1.421875 35.59375 -1.421875 
Q 29.59375 -1.421875 25.265625 0.953125 
Q 20.953125 3.328125 18.109375 8.203125 
L 18.109375 0 
L 9.078125 0 
L 9.078125 75.984375 
L 18.109375 75.984375 
z
" id="DejaVuSans-98"/>
       <path d="M 9.421875 54.6875 
L 18.40625 54.6875 
L 18.40625 -0.984375 
Q 18.40625 -11.421875 14.421875 -16.109375 
Q 10.453125 -20.796875 1.609375 -20.796875 
L -1.8125 -20.796875 
L -1.8125 -13.1875 
L 0.59375 -13.1875 
Q 5.71875 -13.1875 7.5625 -10.8125 
Q 9.421875 -8.453125 9.421875 -0.984375 
z
M 9.421875 75.984375 
L 18.40625 75.984375 
L 18.40625 64.59375 
L 9.421875 64.59375 
z
" id="DejaVuSans-106"/>
       <path d="M 9.421875 75.984375 
L 18.40625 75.984375 
L 18.40625 0 
L 9.421875 0 
z
" id="DejaVuSans-108"/>
      </defs>
      <g transform="translate(21.048438 325.720719)scale(0.1 -0.1)">
       <use xlink:href="#DejaVuSans-80"/>
       <use x="60.255859" xlink:href="#DejaVuSans-111"/>
       <use x="121.4375" xlink:href="#DejaVuSans-114"/>
       <use x="162.550781" xlink:href="#DejaVuSans-32"/>
       <use x="194.337891" xlink:href="#DejaVuSans-100"/>
       <use x="257.814453" xlink:href="#DejaVuSans-101"/>
       <use x="319.337891" xlink:href="#DejaVuSans-98"/>
       <use x="382.814453" xlink:href="#DejaVuSans-97"/>
       <use x="444.09375" xlink:href="#DejaVuSans-106"/>
       <use x="471.876953" xlink:href="#DejaVuSans-111"/>
       <use x="533.058594" xlink:href="#DejaVuSans-32"/>
       <use x="564.845703" xlink:href="#DejaVuSans-100"/>
       <use x="628.322266" xlink:href="#DejaVuSans-101"/>
       <use x="689.845703" xlink:href="#DejaVuSans-108"/>
       <use x="717.628906" xlink:href="#DejaVuSans-32"/>
       <use x="749.416016" xlink:href="#DejaVuSans-98"/>
       <use x="812.892578" xlink:href="#DejaVuSans-225"/>
       <use x="874.171875" xlink:href="#DejaVuSans-115"/>
       <use x="926.271484" xlink:href="#DejaVuSans-105"/>
       <use x="954.054688" xlink:href="#DejaVuSans-99"/>
       <use x="1009.035156" xlink:href="#DejaVuSans-111"/>
      </g>
     </g>
    </g>
    <g id="text_11">
     <!-- Nivel de desempeño en sociales -->
     <defs>
      <path d="M 52 44.1875 
Q 55.375 50.25 60.0625 53.125 
Q 64.75 56 71.09375 56 
Q 79.640625 56 84.28125 50.015625 
Q 88.921875 44.046875 88.921875 33.015625 
L 88.921875 0 
L 79.890625 0 
L 79.890625 32.71875 
Q 79.890625 40.578125 77.09375 44.375 
Q 74.3125 48.1875 68.609375 48.1875 
Q 61.625 48.1875 57.5625 43.546875 
Q 53.515625 38.921875 53.515625 30.90625 
L 53.515625 0 
L 44.484375 0 
L 44.484375 32.71875 
Q 44.484375 40.625 41.703125 44.40625 
Q 38.921875 48.1875 33.109375 48.1875 
Q 26.21875 48.1875 22.15625 43.53125 
Q 18.109375 38.875 18.109375 30.90625 
L 18.109375 0 
L 9.078125 0 
L 9.078125 54.6875 
L 18.109375 54.6875 
L 18.109375 46.1875 
Q 21.1875 51.21875 25.484375 53.609375 
Q 29.78125 56 35.6875 56 
Q 41.65625 56 45.828125 52.96875 
Q 50 49.953125 52 44.1875 
z
" id="DejaVuSans-109"/>
      <path d="M 18.109375 8.203125 
L 18.109375 -20.796875 
L 9.078125 -20.796875 
L 9.078125 54.6875 
L 18.109375 54.6875 
L 18.109375 46.390625 
Q 20.953125 51.265625 25.265625 53.625 
Q 29.59375 56 35.59375 56 
Q 45.5625 56 51.78125 48.09375 
Q 58.015625 40.1875 58.015625 27.296875 
Q 58.015625 14.40625 51.78125 6.484375 
Q 45.5625 -1.421875 35.59375 -1.421875 
Q 29.59375 -1.421875 25.265625 0.953125 
Q 20.953125 3.328125 18.109375 8.203125 
z
M 48.6875 27.296875 
Q 48.6875 37.203125 44.609375 42.84375 
Q 40.53125 48.484375 33.40625 48.484375 
Q 26.265625 48.484375 22.1875 42.84375 
Q 18.109375 37.203125 18.109375 27.296875 
Q 18.109375 17.390625 22.1875 11.75 
Q 26.265625 6.109375 33.40625 6.109375 
Q 40.53125 6.109375 44.609375 11.75 
Q 48.6875 17.390625 48.6875 27.296875 
z
" id="DejaVuSans-112"/>
      <path d="M 54.890625 33.015625 
L 54.890625 0 
L 45.90625 0 
L 45.90625 32.71875 
Q 45.90625 40.484375 42.875 44.328125 
Q 39.84375 48.1875 33.796875 48.1875 
Q 26.515625 48.1875 22.3125 43.546875 
Q 18.109375 38.921875 18.109375 30.90625 
L 18.109375 0 
L 9.078125 0 
L 9.078125 54.6875 
L 18.109375 54.6875 
L 18.109375 46.1875 
Q 21.34375 51.125 25.703125 53.5625 
Q 30.078125 56 35.796875 56 
Q 45.21875 56 50.046875 50.171875 
Q 54.890625 44.34375 54.890625 33.015625 
z
M 32.234375 66.890625 
L 29.4375 69.578125 
Q 28.375 70.5625 27.5625 71.015625 
Q 26.765625 71.484375 26.125 71.484375 
Q 24.265625 71.484375 23.390625 69.703125 
Q 22.515625 67.921875 22.40625 63.921875 
L 16.3125 63.921875 
Q 16.40625 70.515625 18.890625 74.09375 
Q 21.390625 77.6875 25.828125 77.6875 
Q 27.6875 77.6875 29.25 77 
Q 30.8125 76.3125 32.625 74.703125 
L 35.40625 72.015625 
Q 36.46875 71.046875 37.28125 70.578125 
Q 38.09375 70.125 38.71875 70.125 
Q 40.578125 70.125 41.453125 71.90625 
Q 42.328125 73.6875 42.4375 77.6875 
L 48.53125 77.6875 
Q 48.4375 71.09375 45.9375 67.5 
Q 43.453125 63.921875 39.015625 63.921875 
Q 37.15625 63.921875 35.59375 64.59375 
Q 34.03125 65.28125 32.234375 66.890625 
z
" id="DejaVuSans-241"/>
     </defs>
     <g transform="translate(14.96875 280.0365)rotate(-90)scale(0.1 -0.1)">
      <use xlink:href="#DejaVuSans-78"/>
      <use x="74.804688" xlink:href="#DejaVuSans-105"/>
      <use x="102.587891" xlink:href="#DejaVuSans-118"/>
      <use x="161.767578" xlink:href="#DejaVuSans-101"/>
      <use x="223.291016" xlink:href="#DejaVuSans-108"/>
      <use x="251.074219" xlink:href="#DejaVuSans-32"/>
      <use x="282.861328" xlink:href="#DejaVuSans-100"/>
      <use x="346.337891" xlink:href="#DejaVuSans-101"/>
      <use x="407.861328" xlink:href="#DejaVuSans-32"/>
      <use x="439.648438" xlink:href="#DejaVuSans-100"/>
      <use x="503.125" xlink:href="#DejaVuSans-101"/>
      <use x="564.648438" xlink:href="#DejaVuSans-115"/>
      <use x="616.748047" xlink:href="#DejaVuSans-101"/>
      <use x="678.271484" xlink:href="#DejaVuSans-109"/>
      <use x="775.683594" xlink:href="#DejaVuSans-112"/>
      <use x="839.160156" xlink:href="#DejaVuSans-101"/>
      <use x="900.683594" xlink:href="#DejaVuSans-241"/>
      <use x="964.0625" xlink:href="#DejaVuSans-111"/>
      <use x="1025.244141" xlink:href="#DejaVuSans-32"/>
      <use x="1057.03125" xlink:href="#DejaVuSans-101"/>
      <use x="1118.554688" xlink:href="#DejaVuSans-110"/>
      <use x="1181.933594" xlink:href="#DejaVuSans-32"/>
      <use x="1213.720703" xlink:href="#DejaVuSans-115"/>
      <use x="1265.820312" xlink:href="#DejaVuSans-111"/>
      <use x="1327.001953" xlink:href="#DejaVuSans-99"/>
      <use x="1381.982422" xlink:href="#DejaVuSans-105"/>
      <use x="1409.765625" xlink:href="#DejaVuSans-97"/>
      <use x="1471.044922" xlink:href="#DejaVuSans-108"/>
      <use x="1498.828125" xlink:href="#DejaVuSans-101"/>
      <use x="1560.351562" xlink:href="#DejaVuSans-115"/>
     </g>
    </g>
   </g>
   <g id="line2d_10">
    <path clip-path="url(#p67ff581dad)" d="M 193.160429 77.1015 
L 410.558741 77.1015 
" style="fill:none;stroke:#4c4c4c;stroke-linecap:square;stroke-width:1.5;"/>
   </g>
   <g id="line2d_11">
    <path clip-path="url(#p67ff581dad)" d="M 227.655345 77.1015 
L 302.143259 77.1015 
" style="fill:none;stroke:#4c4c4c;stroke-linecap:square;stroke-width:4.5;"/>
   </g>
   <g id="line2d_12">
    <path clip-path="url(#p67ff581dad)" d="M 193.160429 158.6415 
L 410.558741 158.6415 
" style="fill:none;stroke:#4c4c4c;stroke-linecap:square;stroke-width:1.5;"/>
   </g>
   <g id="line2d_13">
    <path clip-path="url(#p67ff581dad)" d="M 240.340909 158.6415 
L 312.090749 158.6415 
" style="fill:none;stroke:#4c4c4c;stroke-linecap:square;stroke-width:4.5;"/>
   </g>
   <g id="line2d_14">
    <path clip-path="url(#p67ff581dad)" d="M 193.160429 240.1815 
L 421.014253 240.1815 
" style="fill:none;stroke:#4c4c4c;stroke-linecap:square;stroke-width:1.5;"/>
   </g>
   <g id="line2d_15">
    <path clip-path="url(#p67ff581dad)" d="M 240.362194 240.1815 
L 312.878477 240.1815 
" style="fill:none;stroke:#4c4c4c;stroke-linecap:square;stroke-width:4.5;"/>
   </g>
   <g id="line2d_16">
    <path clip-path="url(#p67ff581dad)" d="M 193.160429 321.7215 
L 410.558741 321.7215 
" style="fill:none;stroke:#4c4c4c;stroke-linecap:square;stroke-width:1.5;"/>
   </g>
   <g id="line2d_17">
    <path clip-path="url(#p67ff581dad)" d="M 240.362194 321.7215 
L 312.090749 321.7215 
" style="fill:none;stroke:#4c4c4c;stroke-linecap:square;stroke-width:4.5;"/>
   </g>
   <g id="patch_3">
    <path d="M 135.073438 362.4915 
L 135.073438 36.3315 
" style="fill:none;stroke:#000000;stroke-linecap:square;stroke-linejoin:miter;stroke-width:0.8;"/>
   </g>
   <g id="patch_4">
    <path d="M 693.073437 362.4915 
L 693.073437 36.3315 
" style="fill:none;stroke:#000000;stroke-linecap:square;stroke-linejoin:miter;stroke-width:0.8;"/>
   </g>
   <g id="patch_5">
    <path d="M 135.073438 362.4915 
L 693.073437 362.4915 
" style="fill:none;stroke:#000000;stroke-linecap:square;stroke-linejoin:miter;stroke-width:0.8;"/>
   </g>
   <g id="patch_6">
    <path d="M 135.073438 36.3315 
L 693.073437 36.3315 
" style="fill:none;stroke:#000000;stroke-linecap:square;stroke-linejoin:miter;stroke-width:0.8;"/>
   </g>
   <g id="PathCollection_1">
    <defs>
     <path d="M 0 1.5 
C 0.397805 1.5 0.77937 1.341951 1.06066 1.06066 
C 1.341951 0.77937 1.5 0.397805 1.5 0 
C 1.5 -0.397805 1.341951 -0.77937 1.06066 -1.06066 
C 0.77937 -1.341951 0.397805 -1.5 0 -1.5 
C -0.397805 -1.5 -0.77937 -1.341951 -1.06066 -1.06066 
C -1.341951 -0.77937 -1.5 -0.397805 -1.5 0 
C -1.5 0.397805 -1.341951 0.77937 -1.06066 1.06066 
C -0.77937 1.341951 -0.397805 1.5 0 1.5 
z
" id="m35d563e3b5" style="stroke:#4c4c4c;"/>
    </defs>
    <g clip-path="url(#p67ff581dad)">
     <use style="fill:#ffffff;stroke:#4c4c4c;" x="251.351844" xlink:href="#m35d563e3b5" y="77.1015"/>
    </g>
   </g>
   <g id="PathCollection_2">
    <g clip-path="url(#p67ff581dad)">
     <use style="fill:#ffffff;stroke:#4c4c4c;" x="276.975504" xlink:href="#m35d563e3b5" y="158.6415"/>
    </g>
   </g>
   <g id="PathCollection_3">
    <g clip-path="url(#p67ff581dad)">
     <use style="fill:#ffffff;stroke:#4c4c4c;" x="280.877484" xlink:href="#m35d563e3b5" y="240.1815"/>
    </g>
   </g>
   <g id="PathCollection_4">
    <g clip-path="url(#p67ff581dad)">
     <use style="fill:#ffffff;stroke:#4c4c4c;" x="282.998076" xlink:href="#m35d563e3b5" y="321.7215"/>
    </g>
   </g>
   <g id="text_12">
    <!-- Distribución de: Tasa con NBI según el desempeño en sociales -->
    <defs>
     <path d="M 19.671875 64.796875 
L 19.671875 8.109375 
L 31.59375 8.109375 
Q 46.6875 8.109375 53.6875 14.9375 
Q 60.6875 21.78125 60.6875 36.53125 
Q 60.6875 51.171875 53.6875 57.984375 
Q 46.6875 64.796875 31.59375 64.796875 
z
M 9.8125 72.90625 
L 30.078125 72.90625 
Q 51.265625 72.90625 61.171875 64.09375 
Q 71.09375 55.28125 71.09375 36.53125 
Q 71.09375 17.671875 61.125 8.828125 
Q 51.171875 0 30.078125 0 
L 9.8125 0 
z
" id="DejaVuSans-68"/>
     <path d="M 8.5 21.578125 
L 8.5 54.6875 
L 17.484375 54.6875 
L 17.484375 21.921875 
Q 17.484375 14.15625 20.5 10.265625 
Q 23.53125 6.390625 29.59375 6.390625 
Q 36.859375 6.390625 41.078125 11.03125 
Q 45.3125 15.671875 45.3125 23.6875 
L 45.3125 54.6875 
L 54.296875 54.6875 
L 54.296875 0 
L 45.3125 0 
L 45.3125 8.40625 
Q 42.046875 3.421875 37.71875 1 
Q 33.40625 -1.421875 27.6875 -1.421875 
Q 18.265625 -1.421875 13.375 4.4375 
Q 8.5 10.296875 8.5 21.578125 
z
M 31.109375 56 
z
" id="DejaVuSans-117"/>
     <path d="M 30.609375 48.390625 
Q 23.390625 48.390625 19.1875 42.75 
Q 14.984375 37.109375 14.984375 27.296875 
Q 14.984375 17.484375 19.15625 11.84375 
Q 23.34375 6.203125 30.609375 6.203125 
Q 37.796875 6.203125 41.984375 11.859375 
Q 46.1875 17.53125 46.1875 27.296875 
Q 46.1875 37.015625 41.984375 42.703125 
Q 37.796875 48.390625 30.609375 48.390625 
z
M 30.609375 56 
Q 42.328125 56 49.015625 48.375 
Q 55.71875 40.765625 55.71875 27.296875 
Q 55.71875 13.875 49.015625 6.21875 
Q 42.328125 -1.421875 30.609375 -1.421875 
Q 18.84375 -1.421875 12.171875 6.21875 
Q 5.515625 13.875 5.515625 27.296875 
Q 5.515625 40.765625 12.171875 48.375 
Q 18.84375 56 30.609375 56 
z
M 37.40625 79.984375 
L 47.125 79.984375 
L 31.203125 61.625 
L 23.734375 61.625 
z
" id="DejaVuSans-243"/>
     <path d="M 11.71875 12.40625 
L 22.015625 12.40625 
L 22.015625 0 
L 11.71875 0 
z
M 11.71875 51.703125 
L 22.015625 51.703125 
L 22.015625 39.3125 
L 11.71875 39.3125 
z
" id="DejaVuSans-58"/>
     <path d="M 45.40625 27.984375 
Q 45.40625 37.75 41.375 43.109375 
Q 37.359375 48.484375 30.078125 48.484375 
Q 22.859375 48.484375 18.828125 43.109375 
Q 14.796875 37.75 14.796875 27.984375 
Q 14.796875 18.265625 18.828125 12.890625 
Q 22.859375 7.515625 30.078125 7.515625 
Q 37.359375 7.515625 41.375 12.890625 
Q 45.40625 18.265625 45.40625 27.984375 
z
M 54.390625 6.78125 
Q 54.390625 -7.171875 48.1875 -13.984375 
Q 42 -20.796875 29.203125 -20.796875 
Q 24.46875 -20.796875 20.265625 -20.09375 
Q 16.0625 -19.390625 12.109375 -17.921875 
L 12.109375 -9.1875 
Q 16.0625 -11.328125 19.921875 -12.34375 
Q 23.78125 -13.375 27.78125 -13.375 
Q 36.625 -13.375 41.015625 -8.765625 
Q 45.40625 -4.15625 45.40625 5.171875 
L 45.40625 9.625 
Q 42.625 4.78125 38.28125 2.390625 
Q 33.9375 0 27.875 0 
Q 17.828125 0 11.671875 7.65625 
Q 5.515625 15.328125 5.515625 27.984375 
Q 5.515625 40.671875 11.671875 48.328125 
Q 17.828125 56 27.875 56 
Q 33.9375 56 38.28125 53.609375 
Q 42.625 51.21875 45.40625 46.390625 
L 45.40625 54.6875 
L 54.390625 54.6875 
z
" id="DejaVuSans-103"/>
     <path d="M 8.5 21.578125 
L 8.5 54.6875 
L 17.484375 54.6875 
L 17.484375 21.921875 
Q 17.484375 14.15625 20.5 10.265625 
Q 23.53125 6.390625 29.59375 6.390625 
Q 36.859375 6.390625 41.078125 11.03125 
Q 45.3125 15.671875 45.3125 23.6875 
L 45.3125 54.6875 
L 54.296875 54.6875 
L 54.296875 0 
L 45.3125 0 
L 45.3125 8.40625 
Q 42.046875 3.421875 37.71875 1 
Q 33.40625 -1.421875 27.6875 -1.421875 
Q 18.265625 -1.421875 13.375 4.4375 
Q 8.5 10.296875 8.5 21.578125 
z
M 31.109375 56 
z
M 37.796875 79.984375 
L 47.515625 79.984375 
L 31.59375 61.625 
L 24.125 61.625 
z
" id="DejaVuSans-250"/>
    </defs>
    <g transform="translate(226.016563 16.798125)scale(0.12 -0.12)">
     <use xlink:href="#DejaVuSans-68"/>
     <use x="77.001953" xlink:href="#DejaVuSans-105"/>
     <use x="104.785156" xlink:href="#DejaVuSans-115"/>
     <use x="156.884766" xlink:href="#DejaVuSans-116"/>
     <use x="196.09375" xlink:href="#DejaVuSans-114"/>
     <use x="237.207031" xlink:href="#DejaVuSans-105"/>
     <use x="264.990234" xlink:href="#DejaVuSans-98"/>
     <use x="328.466797" xlink:href="#DejaVuSans-117"/>
     <use x="391.845703" xlink:href="#DejaVuSans-99"/>
     <use x="446.826172" xlink:href="#DejaVuSans-105"/>
     <use x="474.609375" xlink:href="#DejaVuSans-243"/>
     <use x="535.791016" xlink:href="#DejaVuSans-110"/>
     <use x="599.169922" xlink:href="#DejaVuSans-32"/>
     <use x="630.957031" xlink:href="#DejaVuSans-100"/>
     <use x="694.433594" xlink:href="#DejaVuSans-101"/>
     <use x="755.957031" xlink:href="#DejaVuSans-58"/>
     <use x="789.648438" xlink:href="#DejaVuSans-32"/>
     <use x="821.435547" xlink:href="#DejaVuSans-84"/>
     <use x="882.269531" xlink:href="#DejaVuSans-97"/>
     <use x="943.548828" xlink:href="#DejaVuSans-115"/>
     <use x="995.648438" xlink:href="#DejaVuSans-97"/>
     <use x="1056.927734" xlink:href="#DejaVuSans-32"/>
     <use x="1088.714844" xlink:href="#DejaVuSans-99"/>
     <use x="1143.695312" xlink:href="#DejaVuSans-111"/>
     <use x="1204.876953" xlink:href="#DejaVuSans-110"/>
     <use x="1268.255859" xlink:href="#DejaVuSans-32"/>
     <use x="1300.042969" xlink:href="#DejaVuSans-78"/>
     <use x="1374.847656" xlink:href="#DejaVuSans-66"/>
     <use x="1443.451172" xlink:href="#DejaVuSans-73"/>
     <use x="1472.943359" xlink:href="#DejaVuSans-32"/>
     <use x="1504.730469" xlink:href="#DejaVuSans-115"/>
     <use x="1556.830078" xlink:href="#DejaVuSans-101"/>
     <use x="1618.353516" xlink:href="#DejaVuSans-103"/>
     <use x="1681.830078" xlink:href="#DejaVuSans-250"/>
     <use x="1745.208984" xlink:href="#DejaVuSans-110"/>
     <use x="1808.587891" xlink:href="#DejaVuSans-32"/>
     <use x="1840.375" xlink:href="#DejaVuSans-101"/>
     <use x="1901.898438" xlink:href="#DejaVuSans-108"/>
     <use x="1929.681641" xlink:href="#DejaVuSans-32"/>
     <use x="1961.46875" xlink:href="#DejaVuSans-100"/>
     <use x="2024.945312" xlink:href="#DejaVuSans-101"/>
     <use x="2086.46875" xlink:href="#DejaVuSans-115"/>
     <use x="2138.568359" xlink:href="#DejaVuSans-101"/>
     <use x="2200.091797" xlink:href="#DejaVuSans-109"/>
     <use x="2297.503906" xlink:href="#DejaVuSans-112"/>
     <use x="2360.980469" xlink:href="#DejaVuSans-101"/>
     <use x="2422.503906" xlink:href="#DejaVuSans-241"/>
     <use x="2485.882812" xlink:href="#DejaVuSans-111"/>
     <use x="2547.064453" xlink:href="#DejaVuSans-32"/>
     <use x="2578.851562" xlink:href="#DejaVuSans-101"/>
     <use x="2640.375" xlink:href="#DejaVuSans-110"/>
     <use x="2703.753906" xlink:href="#DejaVuSans-32"/>
     <use x="2735.541016" xlink:href="#DejaVuSans-115"/>
     <use x="2787.640625" xlink:href="#DejaVuSans-111"/>
     <use x="2848.822266" xlink:href="#DejaVuSans-99"/>
     <use x="2903.802734" xlink:href="#DejaVuSans-105"/>
     <use x="2931.585938" xlink:href="#DejaVuSans-97"/>
     <use x="2992.865234" xlink:href="#DejaVuSans-108"/>
     <use x="3020.648438" xlink:href="#DejaVuSans-101"/>
     <use x="3082.171875" xlink:href="#DejaVuSans-115"/>
    </g>
    <!--  Nivel: Primaria -->
    <g transform="translate(368.090937 30.2355)scale(0.12 -0.12)">
     <use xlink:href="#DejaVuSans-32"/>
     <use x="31.787109" xlink:href="#DejaVuSans-78"/>
     <use x="106.591797" xlink:href="#DejaVuSans-105"/>
     <use x="134.375" xlink:href="#DejaVuSans-118"/>
     <use x="193.554688" xlink:href="#DejaVuSans-101"/>
     <use x="255.078125" xlink:href="#DejaVuSans-108"/>
     <use x="282.861328" xlink:href="#DejaVuSans-58"/>
     <use x="316.552734" xlink:href="#DejaVuSans-32"/>
     <use x="348.339844" xlink:href="#DejaVuSans-80"/>
     <use x="408.626953" xlink:href="#DejaVuSans-114"/>
     <use x="449.740234" xlink:href="#DejaVuSans-105"/>
     <use x="477.523438" xlink:href="#DejaVuSans-109"/>
     <use x="574.935547" xlink:href="#DejaVuSans-97"/>
     <use x="636.214844" xlink:href="#DejaVuSans-114"/>
     <use x="677.328125" xlink:href="#DejaVuSans-105"/>
     <use x="705.111328" xlink:href="#DejaVuSans-97"/>
    </g>
   </g>
  </g>
 </g>
 <defs>
  <clipPath id="p67ff581dad">
   <rect height="326.16" width="558" x="135.073438" y="36.3315"/>
  </clipPath>
 </defs>
</svg>
