<?xml version="1.0" encoding="utf-8" standalone="no"?>
<!DOCTYPE svg PUBLIC "-//W3C//DTD SVG 1.1//EN"
  "http://www.w3.org/Graphics/SVG/1.1/DTD/svg11.dtd">
<!-- Created with matplotlib (https://matplotlib.org/) -->
<svg height="401.88375pt" version="1.1" viewBox="0 0 703.773437 401.88375" width="703.773437pt" xmlns="http://www.w3.org/2000/svg" xmlns:xlink="http://www.w3.org/1999/xlink">
 <defs>
  <style type="text/css">
*{stroke-linecap:butt;stroke-linejoin:round;}
  </style>
 </defs>
 <g id="figure_1">
  <g id="patch_1">
   <path d="M 0 401.88375 
L 703.773437 401.88375 
L 703.773437 0 
L 0 0 
z
" style="fill:#ffffff;"/>
  </g>
  <g id="axes_1">
   <g id="patch_2">
    <path d="M 135.073438 364.3275 
L 693.073437 364.3275 
L 693.073437 38.1675 
L 135.073438 38.1675 
z
" style="fill:#ffffff;"/>
   </g>
   <g id="PolyCollection_1">
    <defs>
     <path d="M 133.88216 -322.650327 
L 133.88216 -323.242173 
L 139.542589 -323.987701 
L 145.203019 -324.935143 
L 150.863449 -325.009486 
L 156.523879 -324.118326 
L 162.184309 -323.340377 
L 167.844739 -323.09281 
L 173.505169 -323.103001 
L 179.165598 -323.168475 
L 184.826028 -323.241512 
L 190.486458 -323.316999 
L 196.146888 -323.383265 
L 201.807318 -323.424333 
L 207.467748 -323.464809 
L 213.128178 -323.525009 
L 218.788607 -323.544795 
L 224.449037 -323.558238 
L 230.109467 -323.68472 
L 235.769897 -323.833753 
L 241.430327 -323.845665 
L 247.090757 -323.859581 
L 252.751187 -324.012308 
L 258.411616 -324.191364 
L 264.072046 -324.342811 
L 269.732476 -324.641585 
L 275.392906 -325.245174 
L 281.053336 -325.790985 
L 286.713766 -325.829762 
L 292.374196 -325.677738 
L 298.034625 -325.790362 
L 303.695055 -326.196151 
L 309.355485 -326.740269 
L 315.015915 -327.364024 
L 320.676345 -328.145538 
L 326.336775 -329.0882 
L 331.997205 -330.126697 
L 337.657634 -331.188919 
L 343.318064 -332.097897 
L 348.978494 -332.800307 
L 354.638924 -333.539377 
L 360.299354 -334.631159 
L 365.959784 -336.00541 
L 371.620214 -337.530885 
L 377.280643 -339.184831 
L 382.941073 -340.587865 
L 388.601503 -341.400865 
L 394.261933 -341.987566 
L 399.922363 -342.994601 
L 405.582793 -344.914025 
L 411.243223 -347.078217 
L 416.903652 -347.197759 
L 422.564082 -345.084868 
L 428.224512 -343.22682 
L 433.884942 -343.011786 
L 439.545372 -343.672838 
L 445.205802 -343.584802 
L 450.866232 -342.353447 
L 456.526661 -341.125719 
L 462.187091 -340.616954 
L 467.847521 -340.157948 
L 473.507951 -339.384126 
L 479.168381 -338.731322 
L 484.828811 -338.167174 
L 490.489241 -337.602516 
L 496.14967 -337.267109 
L 501.8101 -337.386786 
L 507.47053 -337.720545 
L 513.13096 -337.258964 
L 518.79139 -335.621296 
L 524.45182 -333.951282 
L 530.11225 -333.480088 
L 535.772679 -333.912145 
L 541.433109 -333.827832 
L 547.093539 -332.612168 
L 552.753969 -331.031718 
L 558.414399 -329.981717 
L 564.074829 -329.601413 
L 569.735259 -329.730817 
L 575.395688 -330.237166 
L 581.056118 -330.834876 
L 586.716548 -331.142879 
L 592.376978 -331.012154 
L 598.037408 -330.856137 
L 603.697838 -330.721504 
L 609.358268 -329.99844 
L 615.018697 -328.591325 
L 620.679127 -327.178971 
L 626.339557 -326.270917 
L 631.999987 -325.854711 
L 637.660417 -325.697626 
L 643.320847 -325.476453 
L 648.981277 -324.954843 
L 654.641706 -324.212782 
L 660.302136 -323.597665 
L 665.962566 -323.296669 
L 671.622996 -323.251398 
L 677.283426 -323.303022 
L 682.943856 -323.256134 
L 688.604286 -323.103934 
L 694.264715 -322.990658 
L 694.264715 -322.901842 
L 694.264715 -322.901842 
L 688.604286 -322.788566 
L 682.943856 -322.636366 
L 677.283426 -322.589478 
L 671.622996 -322.641102 
L 665.962566 -322.595831 
L 660.302136 -322.294835 
L 654.641706 -321.679718 
L 648.981277 -320.937657 
L 643.320847 -320.416047 
L 637.660417 -320.194874 
L 631.999987 -320.037789 
L 626.339557 -319.621583 
L 620.679127 -318.713529 
L 615.018697 -317.301175 
L 609.358268 -315.89406 
L 603.697838 -315.170996 
L 598.037408 -315.036363 
L 592.376978 -314.880346 
L 586.716548 -314.749621 
L 581.056118 -315.057624 
L 575.395688 -315.655334 
L 569.735259 -316.161683 
L 564.074829 -316.291087 
L 558.414399 -315.910783 
L 552.753969 -314.860782 
L 547.093539 -313.280332 
L 541.433109 -312.064668 
L 535.772679 -311.980355 
L 530.11225 -312.412412 
L 524.45182 -311.941218 
L 518.79139 -310.271204 
L 513.13096 -308.633536 
L 507.47053 -308.171955 
L 501.8101 -308.505714 
L 496.14967 -308.625391 
L 490.489241 -308.289984 
L 484.828811 -307.725326 
L 479.168381 -307.161178 
L 473.507951 -306.508374 
L 467.847521 -305.734552 
L 462.187091 -305.275546 
L 456.526661 -304.766781 
L 450.866232 -303.539053 
L 445.205802 -302.307698 
L 439.545372 -302.219662 
L 433.884942 -302.880714 
L 428.224512 -302.66568 
L 422.564082 -300.807632 
L 416.903652 -298.694741 
L 411.243223 -298.814283 
L 405.582793 -300.978475 
L 399.922363 -302.897899 
L 394.261933 -303.904934 
L 388.601503 -304.491635 
L 382.941073 -305.304635 
L 377.280643 -306.707669 
L 371.620214 -308.361615 
L 365.959784 -309.88709 
L 360.299354 -311.261341 
L 354.638924 -312.353123 
L 348.978494 -313.092193 
L 343.318064 -313.794603 
L 337.657634 -314.703581 
L 331.997205 -315.765803 
L 326.336775 -316.8043 
L 320.676345 -317.746962 
L 315.015915 -318.528476 
L 309.355485 -319.152231 
L 303.695055 -319.696349 
L 298.034625 -320.102138 
L 292.374196 -320.214762 
L 286.713766 -320.062738 
L 281.053336 -320.101515 
L 275.392906 -320.647326 
L 269.732476 -321.250915 
L 264.072046 -321.549689 
L 258.411616 -321.701136 
L 252.751187 -321.880192 
L 247.090757 -322.032919 
L 241.430327 -322.046835 
L 235.769897 -322.058747 
L 230.109467 -322.20778 
L 224.449037 -322.334262 
L 218.788607 -322.347705 
L 213.128178 -322.367491 
L 207.467748 -322.427691 
L 201.807318 -322.468167 
L 196.146888 -322.509235 
L 190.486458 -322.575501 
L 184.826028 -322.650988 
L 179.165598 -322.724025 
L 173.505169 -322.789499 
L 167.844739 -322.79969 
L 162.184309 -322.552123 
L 156.523879 -321.774174 
L 150.863449 -320.883014 
L 145.203019 -320.957357 
L 139.542589 -321.904799 
L 133.88216 -322.650327 
z
" id="mcff6df57c1" style="stroke:#262626;stroke-width:1.5;"/>
    </defs>
    <g clip-path="url(#p887fad3500)">
     <use style="fill:#107010;stroke:#262626;stroke-width:1.5;" x="0" xlink:href="#mcff6df57c1" y="401.88375"/>
    </g>
   </g>
   <g id="PolyCollection_2">
    <defs>
     <path d="M 137.128217 -241.160239 
L 137.128217 -241.652261 
L 142.72307 -242.504807 
L 148.317923 -243.225503 
L 153.912776 -242.535087 
L 159.507629 -241.716102 
L 165.102482 -241.538127 
L 170.697335 -241.554303 
L 176.292188 -241.609549 
L 181.887041 -241.671471 
L 187.481894 -241.70502 
L 193.076746 -241.769713 
L 198.671599 -241.859895 
L 204.266452 -241.89136 
L 209.861305 -241.942141 
L 215.456158 -242.039084 
L 221.051011 -242.049372 
L 226.645864 -242.115179 
L 232.240717 -242.3717 
L 237.83557 -242.582602 
L 243.430423 -242.573291 
L 249.025276 -242.840024 
L 254.620129 -243.291987 
L 260.214982 -243.48378 
L 265.809835 -243.684709 
L 271.404688 -244.221683 
L 276.999541 -245.427468 
L 282.594393 -246.173556 
L 288.189246 -245.733233 
L 293.784099 -245.811279 
L 299.378952 -246.823456 
L 304.973805 -247.844469 
L 310.568658 -248.448206 
L 316.163511 -249.291455 
L 321.758364 -250.565087 
L 327.353217 -252.030587 
L 332.94807 -253.360236 
L 338.542923 -254.99051 
L 344.137776 -257.037055 
L 349.732629 -259.027448 
L 355.327482 -260.626245 
L 360.922335 -262.567672 
L 366.517188 -263.999682 
L 372.11204 -265.080592 
L 377.706893 -266.830067 
L 383.301746 -267.700147 
L 388.896599 -267.166463 
L 394.491452 -267.872718 
L 400.086305 -269.202611 
L 405.681158 -269.825951 
L 411.276011 -271.609528 
L 416.870864 -270.518993 
L 422.465717 -265.530038 
L 428.06057 -262.154224 
L 433.655423 -261.807348 
L 439.250276 -262.826886 
L 444.845129 -261.782668 
L 450.439982 -258.388711 
L 456.034835 -256.126999 
L 461.629687 -256.314219 
L 467.22454 -256.406821 
L 472.819393 -255.146391 
L 478.414246 -254.339908 
L 484.009099 -253.297436 
L 489.603952 -251.327347 
L 495.198805 -249.99207 
L 500.793658 -249.597539 
L 506.388511 -249.570193 
L 511.983364 -249.599642 
L 517.578217 -248.79647 
L 523.17307 -247.30491 
L 528.767923 -246.529478 
L 534.362776 -247.074483 
L 539.957629 -247.416832 
L 545.552482 -246.284848 
L 551.147334 -244.859719 
L 556.742187 -244.139168 
L 562.33704 -244.004362 
L 567.931893 -244.254857 
L 573.526746 -244.851711 
L 579.121599 -245.034434 
L 584.716452 -245.053372 
L 590.311305 -245.124632 
L 595.906158 -245.096328 
L 601.501011 -245.019564 
L 607.095864 -244.579614 
L 612.690717 -243.702274 
L 618.28557 -242.8265 
L 623.880423 -242.384909 
L 629.475276 -242.276108 
L 635.070129 -242.349389 
L 640.664981 -242.271708 
L 646.259834 -242.015221 
L 651.854687 -241.763869 
L 657.44954 -241.576177 
L 663.044393 -241.487016 
L 668.639246 -241.481559 
L 674.234099 -241.590873 
L 679.828952 -241.686648 
L 685.423805 -241.573862 
L 691.018658 -241.44371 
L 691.018658 -241.36879 
L 691.018658 -241.36879 
L 685.423805 -241.238638 
L 679.828952 -241.125852 
L 674.234099 -241.221627 
L 668.639246 -241.330941 
L 663.044393 -241.325484 
L 657.44954 -241.236323 
L 651.854687 -241.048631 
L 646.259834 -240.797279 
L 640.664981 -240.540792 
L 635.070129 -240.463111 
L 629.475276 -240.536392 
L 623.880423 -240.427591 
L 618.28557 -239.986 
L 612.690717 -239.110226 
L 607.095864 -238.232886 
L 601.501011 -237.792936 
L 595.906158 -237.716172 
L 590.311305 -237.687868 
L 584.716452 -237.759128 
L 579.121599 -237.778066 
L 573.526746 -237.960789 
L 567.931893 -238.557643 
L 562.33704 -238.808138 
L 556.742187 -238.673332 
L 551.147334 -237.952781 
L 545.552482 -236.527652 
L 539.957629 -235.395668 
L 534.362776 -235.738017 
L 528.767923 -236.283022 
L 523.17307 -235.50759 
L 517.578217 -234.01603 
L 511.983364 -233.212858 
L 506.388511 -233.242307 
L 500.793658 -233.214961 
L 495.198805 -232.82043 
L 489.603952 -231.485153 
L 484.009099 -229.515064 
L 478.414246 -228.472592 
L 472.819393 -227.666109 
L 467.22454 -226.405679 
L 461.629687 -226.498281 
L 456.034835 -226.685501 
L 450.439982 -224.423789 
L 444.845129 -221.029832 
L 439.250276 -219.985614 
L 433.655423 -221.005152 
L 428.06057 -220.658276 
L 422.465717 -217.282462 
L 416.870864 -212.293507 
L 411.276011 -211.202972 
L 405.681158 -212.986549 
L 400.086305 -213.609889 
L 394.491452 -214.939782 
L 388.896599 -215.646037 
L 383.301746 -215.112353 
L 377.706893 -215.982433 
L 372.11204 -217.731908 
L 366.517188 -218.812818 
L 360.922335 -220.244828 
L 355.327482 -222.186255 
L 349.732629 -223.785052 
L 344.137776 -225.775445 
L 338.542923 -227.82199 
L 332.94807 -229.452264 
L 327.353217 -230.781913 
L 321.758364 -232.247413 
L 316.163511 -233.521045 
L 310.568658 -234.364294 
L 304.973805 -234.968031 
L 299.378952 -235.989044 
L 293.784099 -237.001221 
L 288.189246 -237.079267 
L 282.594393 -236.638944 
L 276.999541 -237.385032 
L 271.404688 -238.590817 
L 265.809835 -239.127791 
L 260.214982 -239.32872 
L 254.620129 -239.520513 
L 249.025276 -239.972476 
L 243.430423 -240.239209 
L 237.83557 -240.229898 
L 232.240717 -240.4408 
L 226.645864 -240.697321 
L 221.051011 -240.763128 
L 215.456158 -240.773416 
L 209.861305 -240.870359 
L 204.266452 -240.92114 
L 198.671599 -240.952605 
L 193.076746 -241.042787 
L 187.481894 -241.10748 
L 181.887041 -241.141029 
L 176.292188 -241.202951 
L 170.697335 -241.258197 
L 165.102482 -241.274373 
L 159.507629 -241.096398 
L 153.912776 -240.277413 
L 148.317923 -239.586997 
L 142.72307 -240.307693 
L 137.128217 -241.160239 
z
" id="m788b361456" style="stroke:#262626;stroke-width:1.5;"/>
    </defs>
    <g clip-path="url(#p887fad3500)">
     <use style="fill:#107010;stroke:#262626;stroke-width:1.5;" x="0" xlink:href="#m788b361456" y="401.88375"/>
    </g>
   </g>
   <g id="PolyCollection_3">
    <defs>
     <path d="M 136.614157 -159.57534 
L 136.614157 -160.15716 
L 142.219395 -161.11082 
L 147.824633 -162.009117 
L 153.429871 -161.367044 
L 159.035109 -160.362273 
L 164.640347 -160.090166 
L 170.245585 -160.104295 
L 175.850823 -160.140763 
L 181.456061 -160.186154 
L 187.061299 -160.235926 
L 192.666537 -160.351181 
L 198.271775 -160.52576 
L 203.877013 -160.588151 
L 209.482251 -160.616719 
L 215.087489 -160.731574 
L 220.692727 -160.751236 
L 226.297965 -160.865199 
L 231.903203 -161.243908 
L 237.508441 -161.516493 
L 243.113679 -161.536154 
L 248.718917 -161.991303 
L 254.324155 -162.694454 
L 259.929393 -162.92739 
L 265.534631 -163.069194 
L 271.139869 -163.713535 
L 276.745107 -165.19534 
L 282.350345 -166.374217 
L 287.955583 -166.375483 
L 293.560821 -167.042117 
L 299.166059 -168.936427 
L 304.771297 -170.396135 
L 310.376535 -170.712609 
L 315.981773 -171.362298 
L 321.587011 -172.755532 
L 327.192249 -174.678564 
L 332.797487 -176.948139 
L 338.402725 -179.070288 
L 344.007963 -180.837729 
L 349.613201 -182.919758 
L 355.218439 -185.383578 
L 360.823677 -188.643619 
L 366.428915 -190.669229 
L 372.034153 -190.451596 
L 377.639391 -189.96261 
L 383.244629 -189.074342 
L 388.849867 -187.617505 
L 394.455105 -187.056117 
L 400.060343 -187.128627 
L 405.665581 -187.436811 
L 411.270819 -188.335321 
L 416.876056 -186.541662 
L 422.481294 -182.096134 
L 428.086532 -178.717666 
L 433.69177 -177.237391 
L 439.297008 -176.583005 
L 444.902246 -174.815516 
L 450.507484 -172.154251 
L 456.112722 -170.553341 
L 461.71796 -170.545617 
L 467.323198 -170.350387 
L 472.928436 -169.232001 
L 478.533674 -168.64721 
L 484.138912 -167.831084 
L 489.74415 -166.395566 
L 495.349388 -165.669712 
L 500.954626 -165.615664 
L 506.559864 -165.361149 
L 512.165102 -164.9221 
L 517.77034 -164.302219 
L 523.375578 -163.513702 
L 528.980816 -163.097528 
L 534.586054 -163.333458 
L 540.191292 -163.266387 
L 545.79653 -162.320788 
L 551.401768 -161.37201 
L 557.007006 -160.979638 
L 562.612244 -161.021182 
L 568.217482 -161.320382 
L 573.82272 -161.666369 
L 579.427958 -161.840297 
L 585.033196 -162.196789 
L 590.638434 -162.675784 
L 596.243672 -162.740463 
L 601.84891 -162.158719 
L 607.454148 -161.27835 
L 613.059386 -160.716835 
L 618.664624 -160.38941 
L 624.269862 -160.221316 
L 629.8751 -160.226749 
L 635.480338 -160.291422 
L 641.085576 -160.22436 
L 646.690814 -160.076511 
L 652.296052 -159.970783 
L 657.90129 -159.911699 
L 663.506528 -159.890826 
L 669.111766 -159.929076 
L 674.717004 -160.064171 
L 680.322242 -160.147228 
L 685.92748 -160.028993 
L 691.532718 -159.904261 
L 691.532718 -159.828239 
L 691.532718 -159.828239 
L 685.92748 -159.703507 
L 680.322242 -159.585272 
L 674.717004 -159.668329 
L 669.111766 -159.803424 
L 663.506528 -159.841674 
L 657.90129 -159.820801 
L 652.296052 -159.761717 
L 646.690814 -159.655989 
L 641.085576 -159.50814 
L 635.480338 -159.441078 
L 629.8751 -159.505751 
L 624.269862 -159.511184 
L 618.664624 -159.34309 
L 613.059386 -159.015665 
L 607.454148 -158.45415 
L 601.84891 -157.573781 
L 596.243672 -156.992037 
L 590.638434 -157.056716 
L 585.033196 -157.535711 
L 579.427958 -157.892203 
L 573.82272 -158.066131 
L 568.217482 -158.412118 
L 562.612244 -158.711318 
L 557.007006 -158.752862 
L 551.401768 -158.36049 
L 545.79653 -157.411712 
L 540.191292 -156.466113 
L 534.586054 -156.399042 
L 528.980816 -156.634972 
L 523.375578 -156.218798 
L 517.77034 -155.430281 
L 512.165102 -154.8104 
L 506.559864 -154.371351 
L 500.954626 -154.116836 
L 495.349388 -154.062788 
L 489.74415 -153.336934 
L 484.138912 -151.901416 
L 478.533674 -151.08529 
L 472.928436 -150.500499 
L 467.323198 -149.382113 
L 461.71796 -149.186883 
L 456.112722 -149.179159 
L 450.507484 -147.578249 
L 444.902246 -144.916984 
L 439.297008 -143.149495 
L 433.69177 -142.495109 
L 428.086532 -141.014834 
L 422.481294 -137.636366 
L 416.876056 -133.190838 
L 411.270819 -131.397179 
L 405.665581 -132.295689 
L 400.060343 -132.603873 
L 394.455105 -132.676383 
L 388.849867 -132.114995 
L 383.244629 -130.658158 
L 377.639391 -129.76989 
L 372.034153 -129.280904 
L 366.428915 -129.063271 
L 360.823677 -131.088881 
L 355.218439 -134.348922 
L 349.613201 -136.812742 
L 344.007963 -138.894771 
L 338.402725 -140.662212 
L 332.797487 -142.784361 
L 327.192249 -145.053936 
L 321.587011 -146.976968 
L 315.981773 -148.370202 
L 310.376535 -149.019891 
L 304.771297 -149.336365 
L 299.166059 -150.796073 
L 293.560821 -152.690383 
L 287.955583 -153.357017 
L 282.350345 -153.358283 
L 276.745107 -154.53716 
L 271.139869 -156.018965 
L 265.534631 -156.663306 
L 259.929393 -156.80511 
L 254.324155 -157.038046 
L 248.718917 -157.741197 
L 243.113679 -158.196346 
L 237.508441 -158.216007 
L 231.903203 -158.488592 
L 226.297965 -158.867301 
L 220.692727 -158.981264 
L 215.087489 -159.000926 
L 209.482251 -159.115781 
L 203.877013 -159.144349 
L 198.271775 -159.20674 
L 192.666537 -159.381319 
L 187.061299 -159.496574 
L 181.456061 -159.546346 
L 175.850823 -159.591737 
L 170.245585 -159.628205 
L 164.640347 -159.642334 
L 159.035109 -159.370227 
L 153.429871 -158.365456 
L 147.824633 -157.723383 
L 142.219395 -158.62168 
L 136.614157 -159.57534 
z
" id="m02df5ebe6d" style="stroke:#262626;stroke-width:1.5;"/>
    </defs>
    <g clip-path="url(#p887fad3500)">
     <use style="fill:#107010;stroke:#262626;stroke-width:1.5;" x="0" xlink:href="#m02df5ebe6d" y="401.88375"/>
    </g>
   </g>
   <g id="PolyCollection_4">
    <defs>
     <path d="M 135.752886 -77.894381 
L 135.752886 -78.758119 
L 141.375523 -80.05388 
L 146.99816 -81.448844 
L 152.620798 -80.901379 
L 158.243435 -79.385399 
L 163.866073 -78.713735 
L 169.48871 -78.611619 
L 175.111348 -78.630814 
L 180.733985 -78.749539 
L 186.356622 -78.940832 
L 191.97926 -79.118941 
L 197.601897 -79.244944 
L 203.224535 -79.241041 
L 208.847172 -79.216665 
L 214.469809 -79.347786 
L 220.092447 -79.487897 
L 225.715084 -79.755954 
L 231.337722 -80.37016 
L 236.960359 -80.938314 
L 242.582996 -81.09708 
L 248.205634 -81.497894 
L 253.828271 -82.260737 
L 259.450909 -82.606957 
L 265.073546 -82.703313 
L 270.696184 -83.479073 
L 276.318821 -85.408344 
L 281.941458 -86.927006 
L 287.564096 -86.667088 
L 293.186733 -86.57681 
L 298.809371 -87.758345 
L 304.432008 -89.269908 
L 310.054645 -90.296455 
L 315.677283 -91.307204 
L 321.29992 -92.995533 
L 326.922558 -95.64705 
L 332.545195 -98.422601 
L 338.167832 -100.058055 
L 343.79047 -100.653744 
L 349.413107 -101.63135 
L 355.035745 -103.669966 
L 360.658382 -106.499701 
L 366.28102 -108.969111 
L 371.903657 -110.443773 
L 377.526294 -110.94225 
L 383.148932 -109.793073 
L 388.771569 -107.293844 
L 394.394207 -105.080216 
L 400.016844 -103.577014 
L 405.639481 -103.079192 
L 411.262119 -103.848327 
L 416.884756 -102.970534 
L 422.507394 -99.419239 
L 428.130031 -95.799486 
L 433.752668 -93.529389 
L 439.375306 -91.869068 
L 444.997943 -89.726301 
L 450.620581 -87.690011 
L 456.243218 -86.920335 
L 461.865855 -87.593034 
L 467.488493 -88.239883 
L 473.11113 -87.306439 
L 478.733768 -85.622558 
L 484.356405 -84.368569 
L 489.979043 -83.838947 
L 495.60168 -83.945989 
L 501.224317 -83.919669 
L 506.846955 -83.422089 
L 512.469592 -83.047034 
L 518.09223 -82.41116 
L 523.714867 -81.402849 
L 529.337504 -80.914212 
L 534.960142 -80.976468 
L 540.582779 -80.710628 
L 546.205417 -79.964449 
L 551.828054 -79.342792 
L 557.450691 -79.090416 
L 563.073329 -79.126528 
L 568.695966 -79.367948 
L 574.318604 -79.673699 
L 579.941241 -80.046602 
L 585.563879 -80.645623 
L 591.186516 -80.968476 
L 596.809153 -80.571263 
L 602.431791 -79.859513 
L 608.054428 -79.305606 
L 613.677066 -79.009151 
L 619.299703 -78.754121 
L 624.92234 -78.554221 
L 630.544978 -78.486263 
L 636.167615 -78.473352 
L 641.790253 -78.44923 
L 647.41289 -78.420698 
L 653.035527 -78.389339 
L 658.658165 -78.358927 
L 664.280802 -78.34681 
L 669.90344 -78.365101 
L 675.526077 -78.413094 
L 681.148715 -78.429192 
L 686.771352 -78.382817 
L 692.393989 -78.340361 
L 692.393989 -78.312139 
L 692.393989 -78.312139 
L 686.771352 -78.269683 
L 681.148715 -78.223308 
L 675.526077 -78.239406 
L 669.90344 -78.287399 
L 664.280802 -78.30569 
L 658.658165 -78.293573 
L 653.035527 -78.263161 
L 647.41289 -78.231802 
L 641.790253 -78.20327 
L 636.167615 -78.179148 
L 630.544978 -78.166237 
L 624.92234 -78.098279 
L 619.299703 -77.898379 
L 613.677066 -77.643349 
L 608.054428 -77.346894 
L 602.431791 -76.792987 
L 596.809153 -76.081237 
L 591.186516 -75.684024 
L 585.563879 -76.006877 
L 579.941241 -76.605898 
L 574.318604 -76.978801 
L 568.695966 -77.284552 
L 563.073329 -77.525972 
L 557.450691 -77.562084 
L 551.828054 -77.309708 
L 546.205417 -76.688051 
L 540.582779 -75.941872 
L 534.960142 -75.676032 
L 529.337504 -75.738288 
L 523.714867 -75.249651 
L 518.09223 -74.24134 
L 512.469592 -73.605466 
L 506.846955 -73.230411 
L 501.224317 -72.732831 
L 495.60168 -72.706511 
L 489.979043 -72.813553 
L 484.356405 -72.283931 
L 478.733768 -71.029942 
L 473.11113 -69.346061 
L 467.488493 -68.412617 
L 461.865855 -69.059466 
L 456.243218 -69.732165 
L 450.620581 -68.962489 
L 444.997943 -66.926199 
L 439.375306 -64.783432 
L 433.752668 -63.123111 
L 428.130031 -60.853014 
L 422.507394 -57.233261 
L 416.884756 -53.681966 
L 411.262119 -52.804173 
L 405.639481 -53.573308 
L 400.016844 -53.075486 
L 394.394207 -51.572284 
L 388.771569 -49.358656 
L 383.148932 -46.859427 
L 377.526294 -45.71025 
L 371.903657 -46.208727 
L 366.28102 -47.683389 
L 360.658382 -50.152799 
L 355.035745 -52.982534 
L 349.413107 -55.02115 
L 343.79047 -55.998756 
L 338.167832 -56.594445 
L 332.545195 -58.229899 
L 326.922558 -61.00545 
L 321.29992 -63.656967 
L 315.677283 -65.345296 
L 310.054645 -66.356045 
L 304.432008 -67.382592 
L 298.809371 -68.894155 
L 293.186733 -70.07569 
L 287.564096 -69.985412 
L 281.941458 -69.725494 
L 276.318821 -71.244156 
L 270.696184 -73.173427 
L 265.073546 -73.949187 
L 259.450909 -74.045543 
L 253.828271 -74.391763 
L 248.205634 -75.154606 
L 242.582996 -75.55542 
L 236.960359 -75.714186 
L 231.337722 -76.28234 
L 225.715084 -76.896546 
L 220.092447 -77.164603 
L 214.469809 -77.304714 
L 208.847172 -77.435835 
L 203.224535 -77.411459 
L 197.601897 -77.407556 
L 191.97926 -77.533559 
L 186.356622 -77.711668 
L 180.733985 -77.902961 
L 175.111348 -78.021686 
L 169.48871 -78.040881 
L 163.866073 -77.938765 
L 158.243435 -77.267101 
L 152.620798 -75.751121 
L 146.99816 -75.203656 
L 141.375523 -76.59862 
L 135.752886 -77.894381 
z
" id="mb40f5eb4f2" style="stroke:#262626;stroke-width:1.5;"/>
    </defs>
    <g clip-path="url(#p887fad3500)">
     <use style="fill:#107010;stroke:#262626;stroke-width:1.5;" x="0" xlink:href="#mb40f5eb4f2" y="401.88375"/>
    </g>
   </g>
   <g id="matplotlib.axis_1">
    <g id="xtick_1">
     <g id="line2d_1">
      <defs>
       <path d="M 0 0 
L 0 3.5 
" id="m689fcbf3a2" style="stroke:#000000;stroke-width:0.8;"/>
      </defs>
      <g>
       <use style="stroke:#000000;stroke-width:0.8;" x="148.359152" xlink:href="#m689fcbf3a2" y="364.3275"/>
      </g>
     </g>
     <g id="text_1">
      <!-- 1.00 -->
      <defs>
       <path d="M 12.40625 8.296875 
L 28.515625 8.296875 
L 28.515625 63.921875 
L 10.984375 60.40625 
L 10.984375 69.390625 
L 28.421875 72.90625 
L 38.28125 72.90625 
L 38.28125 8.296875 
L 54.390625 8.296875 
L 54.390625 0 
L 12.40625 0 
z
" id="DejaVuSans-49"/>
       <path d="M 10.6875 12.40625 
L 21 12.40625 
L 21 0 
L 10.6875 0 
z
" id="DejaVuSans-46"/>
       <path d="M 31.78125 66.40625 
Q 24.171875 66.40625 20.328125 58.90625 
Q 16.5 51.421875 16.5 36.375 
Q 16.5 21.390625 20.328125 13.890625 
Q 24.171875 6.390625 31.78125 6.390625 
Q 39.453125 6.390625 43.28125 13.890625 
Q 47.125 21.390625 47.125 36.375 
Q 47.125 51.421875 43.28125 58.90625 
Q 39.453125 66.40625 31.78125 66.40625 
z
M 31.78125 74.21875 
Q 44.046875 74.21875 50.515625 64.515625 
Q 56.984375 54.828125 56.984375 36.375 
Q 56.984375 17.96875 50.515625 8.265625 
Q 44.046875 -1.421875 31.78125 -1.421875 
Q 19.53125 -1.421875 13.0625 8.265625 
Q 6.59375 17.96875 6.59375 36.375 
Q 6.59375 54.828125 13.0625 64.515625 
Q 19.53125 74.21875 31.78125 74.21875 
z
" id="DejaVuSans-48"/>
      </defs>
      <g transform="translate(137.226339 378.925937)scale(0.1 -0.1)">
       <use xlink:href="#DejaVuSans-49"/>
       <use x="63.623047" xlink:href="#DejaVuSans-46"/>
       <use x="95.410156" xlink:href="#DejaVuSans-48"/>
       <use x="159.033203" xlink:href="#DejaVuSans-48"/>
      </g>
     </g>
    </g>
    <g id="xtick_2">
     <g id="line2d_2">
      <g>
       <use style="stroke:#000000;stroke-width:0.8;" x="214.787723" xlink:href="#m689fcbf3a2" y="364.3275"/>
      </g>
     </g>
     <g id="text_2">
      <!-- 1.25 -->
      <defs>
       <path d="M 19.1875 8.296875 
L 53.609375 8.296875 
L 53.609375 0 
L 7.328125 0 
L 7.328125 8.296875 
Q 12.9375 14.109375 22.625 23.890625 
Q 32.328125 33.6875 34.8125 36.53125 
Q 39.546875 41.84375 41.421875 45.53125 
Q 43.3125 49.21875 43.3125 52.78125 
Q 43.3125 58.59375 39.234375 62.25 
Q 35.15625 65.921875 28.609375 65.921875 
Q 23.96875 65.921875 18.8125 64.3125 
Q 13.671875 62.703125 7.8125 59.421875 
L 7.8125 69.390625 
Q 13.765625 71.78125 18.9375 73 
Q 24.125 74.21875 28.421875 74.21875 
Q 39.75 74.21875 46.484375 68.546875 
Q 53.21875 62.890625 53.21875 53.421875 
Q 53.21875 48.921875 51.53125 44.890625 
Q 49.859375 40.875 45.40625 35.40625 
Q 44.1875 33.984375 37.640625 27.21875 
Q 31.109375 20.453125 19.1875 8.296875 
z
" id="DejaVuSans-50"/>
       <path d="M 10.796875 72.90625 
L 49.515625 72.90625 
L 49.515625 64.59375 
L 19.828125 64.59375 
L 19.828125 46.734375 
Q 21.96875 47.46875 24.109375 47.828125 
Q 26.265625 48.1875 28.421875 48.1875 
Q 40.625 48.1875 47.75 41.5 
Q 54.890625 34.8125 54.890625 23.390625 
Q 54.890625 11.625 47.5625 5.09375 
Q 40.234375 -1.421875 26.90625 -1.421875 
Q 22.3125 -1.421875 17.546875 -0.640625 
Q 12.796875 0.140625 7.71875 1.703125 
L 7.71875 11.625 
Q 12.109375 9.234375 16.796875 8.0625 
Q 21.484375 6.890625 26.703125 6.890625 
Q 35.15625 6.890625 40.078125 11.328125 
Q 45.015625 15.765625 45.015625 23.390625 
Q 45.015625 31 40.078125 35.4375 
Q 35.15625 39.890625 26.703125 39.890625 
Q 22.75 39.890625 18.8125 39.015625 
Q 14.890625 38.140625 10.796875 36.28125 
z
" id="DejaVuSans-53"/>
      </defs>
      <g transform="translate(203.654911 378.925937)scale(0.1 -0.1)">
       <use xlink:href="#DejaVuSans-49"/>
       <use x="63.623047" xlink:href="#DejaVuSans-46"/>
       <use x="95.410156" xlink:href="#DejaVuSans-50"/>
       <use x="159.033203" xlink:href="#DejaVuSans-53"/>
      </g>
     </g>
    </g>
    <g id="xtick_3">
     <g id="line2d_3">
      <g>
       <use style="stroke:#000000;stroke-width:0.8;" x="281.216295" xlink:href="#m689fcbf3a2" y="364.3275"/>
      </g>
     </g>
     <g id="text_3">
      <!-- 1.50 -->
      <g transform="translate(270.083482 378.925937)scale(0.1 -0.1)">
       <use xlink:href="#DejaVuSans-49"/>
       <use x="63.623047" xlink:href="#DejaVuSans-46"/>
       <use x="95.410156" xlink:href="#DejaVuSans-53"/>
       <use x="159.033203" xlink:href="#DejaVuSans-48"/>
      </g>
     </g>
    </g>
    <g id="xtick_4">
     <g id="line2d_4">
      <g>
       <use style="stroke:#000000;stroke-width:0.8;" x="347.644866" xlink:href="#m689fcbf3a2" y="364.3275"/>
      </g>
     </g>
     <g id="text_4">
      <!-- 1.75 -->
      <defs>
       <path d="M 8.203125 72.90625 
L 55.078125 72.90625 
L 55.078125 68.703125 
L 28.609375 0 
L 18.3125 0 
L 43.21875 64.59375 
L 8.203125 64.59375 
z
" id="DejaVuSans-55"/>
      </defs>
      <g transform="translate(336.512054 378.925937)scale(0.1 -0.1)">
       <use xlink:href="#DejaVuSans-49"/>
       <use x="63.623047" xlink:href="#DejaVuSans-46"/>
       <use x="95.410156" xlink:href="#DejaVuSans-55"/>
       <use x="159.033203" xlink:href="#DejaVuSans-53"/>
      </g>
     </g>
    </g>
    <g id="xtick_5">
     <g id="line2d_5">
      <g>
       <use style="stroke:#000000;stroke-width:0.8;" x="414.073438" xlink:href="#m689fcbf3a2" y="364.3275"/>
      </g>
     </g>
     <g id="text_5">
      <!-- 2.00 -->
      <g transform="translate(402.940625 378.925937)scale(0.1 -0.1)">
       <use xlink:href="#DejaVuSans-50"/>
       <use x="63.623047" xlink:href="#DejaVuSans-46"/>
       <use x="95.410156" xlink:href="#DejaVuSans-48"/>
       <use x="159.033203" xlink:href="#DejaVuSans-48"/>
      </g>
     </g>
    </g>
    <g id="xtick_6">
     <g id="line2d_6">
      <g>
       <use style="stroke:#000000;stroke-width:0.8;" x="480.502009" xlink:href="#m689fcbf3a2" y="364.3275"/>
      </g>
     </g>
     <g id="text_6">
      <!-- 2.25 -->
      <g transform="translate(469.369196 378.925937)scale(0.1 -0.1)">
       <use xlink:href="#DejaVuSans-50"/>
       <use x="63.623047" xlink:href="#DejaVuSans-46"/>
       <use x="95.410156" xlink:href="#DejaVuSans-50"/>
       <use x="159.033203" xlink:href="#DejaVuSans-53"/>
      </g>
     </g>
    </g>
    <g id="xtick_7">
     <g id="line2d_7">
      <g>
       <use style="stroke:#000000;stroke-width:0.8;" x="546.93058" xlink:href="#m689fcbf3a2" y="364.3275"/>
      </g>
     </g>
     <g id="text_7">
      <!-- 2.50 -->
      <g transform="translate(535.797768 378.925937)scale(0.1 -0.1)">
       <use xlink:href="#DejaVuSans-50"/>
       <use x="63.623047" xlink:href="#DejaVuSans-46"/>
       <use x="95.410156" xlink:href="#DejaVuSans-53"/>
       <use x="159.033203" xlink:href="#DejaVuSans-48"/>
      </g>
     </g>
    </g>
    <g id="xtick_8">
     <g id="line2d_8">
      <g>
       <use style="stroke:#000000;stroke-width:0.8;" x="613.359152" xlink:href="#m689fcbf3a2" y="364.3275"/>
      </g>
     </g>
     <g id="text_8">
      <!-- 2.75 -->
      <g transform="translate(602.226339 378.925937)scale(0.1 -0.1)">
       <use xlink:href="#DejaVuSans-50"/>
       <use x="63.623047" xlink:href="#DejaVuSans-46"/>
       <use x="95.410156" xlink:href="#DejaVuSans-55"/>
       <use x="159.033203" xlink:href="#DejaVuSans-53"/>
      </g>
     </g>
    </g>
    <g id="xtick_9">
     <g id="line2d_9">
      <g>
       <use style="stroke:#000000;stroke-width:0.8;" x="679.787723" xlink:href="#m689fcbf3a2" y="364.3275"/>
      </g>
     </g>
     <g id="text_9">
      <!-- 3.00 -->
      <defs>
       <path d="M 40.578125 39.3125 
Q 47.65625 37.796875 51.625 33 
Q 55.609375 28.21875 55.609375 21.1875 
Q 55.609375 10.40625 48.1875 4.484375 
Q 40.765625 -1.421875 27.09375 -1.421875 
Q 22.515625 -1.421875 17.65625 -0.515625 
Q 12.796875 0.390625 7.625 2.203125 
L 7.625 11.71875 
Q 11.71875 9.328125 16.59375 8.109375 
Q 21.484375 6.890625 26.8125 6.890625 
Q 36.078125 6.890625 40.9375 10.546875 
Q 45.796875 14.203125 45.796875 21.1875 
Q 45.796875 27.640625 41.28125 31.265625 
Q 36.765625 34.90625 28.71875 34.90625 
L 20.21875 34.90625 
L 20.21875 43.015625 
L 29.109375 43.015625 
Q 36.375 43.015625 40.234375 45.921875 
Q 44.09375 48.828125 44.09375 54.296875 
Q 44.09375 59.90625 40.109375 62.90625 
Q 36.140625 65.921875 28.71875 65.921875 
Q 24.65625 65.921875 20.015625 65.03125 
Q 15.375 64.15625 9.8125 62.3125 
L 9.8125 71.09375 
Q 15.4375 72.65625 20.34375 73.4375 
Q 25.25 74.21875 29.59375 74.21875 
Q 40.828125 74.21875 47.359375 69.109375 
Q 53.90625 64.015625 53.90625 55.328125 
Q 53.90625 49.265625 50.4375 45.09375 
Q 46.96875 40.921875 40.578125 39.3125 
z
" id="DejaVuSans-51"/>
      </defs>
      <g transform="translate(668.654911 378.925937)scale(0.1 -0.1)">
       <use xlink:href="#DejaVuSans-51"/>
       <use x="63.623047" xlink:href="#DejaVuSans-46"/>
       <use x="95.410156" xlink:href="#DejaVuSans-48"/>
       <use x="159.033203" xlink:href="#DejaVuSans-48"/>
      </g>
     </g>
    </g>
    <g id="text_10">
     <!-- Índice socioeconómico -->
     <defs>
      <path d="M 9.8125 72.90625 
L 19.671875 72.90625 
L 19.671875 0 
L 9.8125 0 
z
M 17.484375 92.734375 
L 26.515625 92.734375 
L 15.375 79.84375 
L 7.90625 79.84375 
z
" id="DejaVuSans-205"/>
      <path d="M 54.890625 33.015625 
L 54.890625 0 
L 45.90625 0 
L 45.90625 32.71875 
Q 45.90625 40.484375 42.875 44.328125 
Q 39.84375 48.1875 33.796875 48.1875 
Q 26.515625 48.1875 22.3125 43.546875 
Q 18.109375 38.921875 18.109375 30.90625 
L 18.109375 0 
L 9.078125 0 
L 9.078125 54.6875 
L 18.109375 54.6875 
L 18.109375 46.1875 
Q 21.34375 51.125 25.703125 53.5625 
Q 30.078125 56 35.796875 56 
Q 45.21875 56 50.046875 50.171875 
Q 54.890625 44.34375 54.890625 33.015625 
z
" id="DejaVuSans-110"/>
      <path d="M 45.40625 46.390625 
L 45.40625 75.984375 
L 54.390625 75.984375 
L 54.390625 0 
L 45.40625 0 
L 45.40625 8.203125 
Q 42.578125 3.328125 38.25 0.953125 
Q 33.9375 -1.421875 27.875 -1.421875 
Q 17.96875 -1.421875 11.734375 6.484375 
Q 5.515625 14.40625 5.515625 27.296875 
Q 5.515625 40.1875 11.734375 48.09375 
Q 17.96875 56 27.875 56 
Q 33.9375 56 38.25 53.625 
Q 42.578125 51.265625 45.40625 46.390625 
z
M 14.796875 27.296875 
Q 14.796875 17.390625 18.875 11.75 
Q 22.953125 6.109375 30.078125 6.109375 
Q 37.203125 6.109375 41.296875 11.75 
Q 45.40625 17.390625 45.40625 27.296875 
Q 45.40625 37.203125 41.296875 42.84375 
Q 37.203125 48.484375 30.078125 48.484375 
Q 22.953125 48.484375 18.875 42.84375 
Q 14.796875 37.203125 14.796875 27.296875 
z
" id="DejaVuSans-100"/>
      <path d="M 9.421875 54.6875 
L 18.40625 54.6875 
L 18.40625 0 
L 9.421875 0 
z
M 9.421875 75.984375 
L 18.40625 75.984375 
L 18.40625 64.59375 
L 9.421875 64.59375 
z
" id="DejaVuSans-105"/>
      <path d="M 48.78125 52.59375 
L 48.78125 44.1875 
Q 44.96875 46.296875 41.140625 47.34375 
Q 37.3125 48.390625 33.40625 48.390625 
Q 24.65625 48.390625 19.8125 42.84375 
Q 14.984375 37.3125 14.984375 27.296875 
Q 14.984375 17.28125 19.8125 11.734375 
Q 24.65625 6.203125 33.40625 6.203125 
Q 37.3125 6.203125 41.140625 7.25 
Q 44.96875 8.296875 48.78125 10.40625 
L 48.78125 2.09375 
Q 45.015625 0.34375 40.984375 -0.53125 
Q 36.96875 -1.421875 32.421875 -1.421875 
Q 20.0625 -1.421875 12.78125 6.34375 
Q 5.515625 14.109375 5.515625 27.296875 
Q 5.515625 40.671875 12.859375 48.328125 
Q 20.21875 56 33.015625 56 
Q 37.15625 56 41.109375 55.140625 
Q 45.0625 54.296875 48.78125 52.59375 
z
" id="DejaVuSans-99"/>
      <path d="M 56.203125 29.59375 
L 56.203125 25.203125 
L 14.890625 25.203125 
Q 15.484375 15.921875 20.484375 11.0625 
Q 25.484375 6.203125 34.421875 6.203125 
Q 39.59375 6.203125 44.453125 7.46875 
Q 49.3125 8.734375 54.109375 11.28125 
L 54.109375 2.78125 
Q 49.265625 0.734375 44.1875 -0.34375 
Q 39.109375 -1.421875 33.890625 -1.421875 
Q 20.796875 -1.421875 13.15625 6.1875 
Q 5.515625 13.8125 5.515625 26.8125 
Q 5.515625 40.234375 12.765625 48.109375 
Q 20.015625 56 32.328125 56 
Q 43.359375 56 49.78125 48.890625 
Q 56.203125 41.796875 56.203125 29.59375 
z
M 47.21875 32.234375 
Q 47.125 39.59375 43.09375 43.984375 
Q 39.0625 48.390625 32.421875 48.390625 
Q 24.90625 48.390625 20.390625 44.140625 
Q 15.875 39.890625 15.1875 32.171875 
z
" id="DejaVuSans-101"/>
      <path id="DejaVuSans-32"/>
      <path d="M 44.28125 53.078125 
L 44.28125 44.578125 
Q 40.484375 46.53125 36.375 47.5 
Q 32.28125 48.484375 27.875 48.484375 
Q 21.1875 48.484375 17.84375 46.4375 
Q 14.5 44.390625 14.5 40.28125 
Q 14.5 37.15625 16.890625 35.375 
Q 19.28125 33.59375 26.515625 31.984375 
L 29.59375 31.296875 
Q 39.15625 29.25 43.1875 25.515625 
Q 47.21875 21.78125 47.21875 15.09375 
Q 47.21875 7.46875 41.1875 3.015625 
Q 35.15625 -1.421875 24.609375 -1.421875 
Q 20.21875 -1.421875 15.453125 -0.5625 
Q 10.6875 0.296875 5.421875 2 
L 5.421875 11.28125 
Q 10.40625 8.6875 15.234375 7.390625 
Q 20.0625 6.109375 24.8125 6.109375 
Q 31.15625 6.109375 34.5625 8.28125 
Q 37.984375 10.453125 37.984375 14.40625 
Q 37.984375 18.0625 35.515625 20.015625 
Q 33.0625 21.96875 24.703125 23.78125 
L 21.578125 24.515625 
Q 13.234375 26.265625 9.515625 29.90625 
Q 5.8125 33.546875 5.8125 39.890625 
Q 5.8125 47.609375 11.28125 51.796875 
Q 16.75 56 26.8125 56 
Q 31.78125 56 36.171875 55.265625 
Q 40.578125 54.546875 44.28125 53.078125 
z
" id="DejaVuSans-115"/>
      <path d="M 30.609375 48.390625 
Q 23.390625 48.390625 19.1875 42.75 
Q 14.984375 37.109375 14.984375 27.296875 
Q 14.984375 17.484375 19.15625 11.84375 
Q 23.34375 6.203125 30.609375 6.203125 
Q 37.796875 6.203125 41.984375 11.859375 
Q 46.1875 17.53125 46.1875 27.296875 
Q 46.1875 37.015625 41.984375 42.703125 
Q 37.796875 48.390625 30.609375 48.390625 
z
M 30.609375 56 
Q 42.328125 56 49.015625 48.375 
Q 55.71875 40.765625 55.71875 27.296875 
Q 55.71875 13.875 49.015625 6.21875 
Q 42.328125 -1.421875 30.609375 -1.421875 
Q 18.84375 -1.421875 12.171875 6.21875 
Q 5.515625 13.875 5.515625 27.296875 
Q 5.515625 40.765625 12.171875 48.375 
Q 18.84375 56 30.609375 56 
z
" id="DejaVuSans-111"/>
      <path d="M 30.609375 48.390625 
Q 23.390625 48.390625 19.1875 42.75 
Q 14.984375 37.109375 14.984375 27.296875 
Q 14.984375 17.484375 19.15625 11.84375 
Q 23.34375 6.203125 30.609375 6.203125 
Q 37.796875 6.203125 41.984375 11.859375 
Q 46.1875 17.53125 46.1875 27.296875 
Q 46.1875 37.015625 41.984375 42.703125 
Q 37.796875 48.390625 30.609375 48.390625 
z
M 30.609375 56 
Q 42.328125 56 49.015625 48.375 
Q 55.71875 40.765625 55.71875 27.296875 
Q 55.71875 13.875 49.015625 6.21875 
Q 42.328125 -1.421875 30.609375 -1.421875 
Q 18.84375 -1.421875 12.171875 6.21875 
Q 5.515625 13.875 5.515625 27.296875 
Q 5.515625 40.765625 12.171875 48.375 
Q 18.84375 56 30.609375 56 
z
M 37.40625 79.984375 
L 47.125 79.984375 
L 31.203125 61.625 
L 23.734375 61.625 
z
" id="DejaVuSans-243"/>
      <path d="M 52 44.1875 
Q 55.375 50.25 60.0625 53.125 
Q 64.75 56 71.09375 56 
Q 79.640625 56 84.28125 50.015625 
Q 88.921875 44.046875 88.921875 33.015625 
L 88.921875 0 
L 79.890625 0 
L 79.890625 32.71875 
Q 79.890625 40.578125 77.09375 44.375 
Q 74.3125 48.1875 68.609375 48.1875 
Q 61.625 48.1875 57.5625 43.546875 
Q 53.515625 38.921875 53.515625 30.90625 
L 53.515625 0 
L 44.484375 0 
L 44.484375 32.71875 
Q 44.484375 40.625 41.703125 44.40625 
Q 38.921875 48.1875 33.109375 48.1875 
Q 26.21875 48.1875 22.15625 43.53125 
Q 18.109375 38.875 18.109375 30.90625 
L 18.109375 0 
L 9.078125 0 
L 9.078125 54.6875 
L 18.109375 54.6875 
L 18.109375 46.1875 
Q 21.1875 51.21875 25.484375 53.609375 
Q 29.78125 56 35.6875 56 
Q 41.65625 56 45.828125 52.96875 
Q 50 49.953125 52 44.1875 
z
" id="DejaVuSans-109"/>
     </defs>
     <g transform="translate(357.408594 392.604062)scale(0.1 -0.1)">
      <use xlink:href="#DejaVuSans-205"/>
      <use x="29.492188" xlink:href="#DejaVuSans-110"/>
      <use x="92.871094" xlink:href="#DejaVuSans-100"/>
      <use x="156.347656" xlink:href="#DejaVuSans-105"/>
      <use x="184.130859" xlink:href="#DejaVuSans-99"/>
      <use x="239.111328" xlink:href="#DejaVuSans-101"/>
      <use x="300.634766" xlink:href="#DejaVuSans-32"/>
      <use x="332.421875" xlink:href="#DejaVuSans-115"/>
      <use x="384.521484" xlink:href="#DejaVuSans-111"/>
      <use x="445.703125" xlink:href="#DejaVuSans-99"/>
      <use x="500.683594" xlink:href="#DejaVuSans-105"/>
      <use x="528.466797" xlink:href="#DejaVuSans-111"/>
      <use x="589.648438" xlink:href="#DejaVuSans-101"/>
      <use x="651.171875" xlink:href="#DejaVuSans-99"/>
      <use x="706.152344" xlink:href="#DejaVuSans-111"/>
      <use x="767.333984" xlink:href="#DejaVuSans-110"/>
      <use x="830.712891" xlink:href="#DejaVuSans-243"/>
      <use x="891.894531" xlink:href="#DejaVuSans-109"/>
      <use x="989.306641" xlink:href="#DejaVuSans-105"/>
      <use x="1017.089844" xlink:href="#DejaVuSans-99"/>
      <use x="1072.070312" xlink:href="#DejaVuSans-111"/>
     </g>
    </g>
   </g>
   <g id="matplotlib.axis_2">
    <g id="ytick_1">
     <g id="line2d_10">
      <defs>
       <path d="M 0 0 
L -3.5 0 
" id="mdb7088d592" style="stroke:#000000;stroke-width:0.8;"/>
      </defs>
      <g>
       <use style="stroke:#000000;stroke-width:0.8;" x="135.073438" xlink:href="#mdb7088d592" y="78.9375"/>
      </g>
     </g>
     <g id="text_11">
      <!-- Avanzado -->
      <defs>
       <path d="M 34.1875 63.1875 
L 20.796875 26.90625 
L 47.609375 26.90625 
z
M 28.609375 72.90625 
L 39.796875 72.90625 
L 67.578125 0 
L 57.328125 0 
L 50.6875 18.703125 
L 17.828125 18.703125 
L 11.1875 0 
L 0.78125 0 
z
" id="DejaVuSans-65"/>
       <path d="M 2.984375 54.6875 
L 12.5 54.6875 
L 29.59375 8.796875 
L 46.6875 54.6875 
L 56.203125 54.6875 
L 35.6875 0 
L 23.484375 0 
z
" id="DejaVuSans-118"/>
       <path d="M 34.28125 27.484375 
Q 23.390625 27.484375 19.1875 25 
Q 14.984375 22.515625 14.984375 16.5 
Q 14.984375 11.71875 18.140625 8.90625 
Q 21.296875 6.109375 26.703125 6.109375 
Q 34.1875 6.109375 38.703125 11.40625 
Q 43.21875 16.703125 43.21875 25.484375 
L 43.21875 27.484375 
z
M 52.203125 31.203125 
L 52.203125 0 
L 43.21875 0 
L 43.21875 8.296875 
Q 40.140625 3.328125 35.546875 0.953125 
Q 30.953125 -1.421875 24.3125 -1.421875 
Q 15.921875 -1.421875 10.953125 3.296875 
Q 6 8.015625 6 15.921875 
Q 6 25.140625 12.171875 29.828125 
Q 18.359375 34.515625 30.609375 34.515625 
L 43.21875 34.515625 
L 43.21875 35.40625 
Q 43.21875 41.609375 39.140625 45 
Q 35.0625 48.390625 27.6875 48.390625 
Q 23 48.390625 18.546875 47.265625 
Q 14.109375 46.140625 10.015625 43.890625 
L 10.015625 52.203125 
Q 14.9375 54.109375 19.578125 55.046875 
Q 24.21875 56 28.609375 56 
Q 40.484375 56 46.34375 49.84375 
Q 52.203125 43.703125 52.203125 31.203125 
z
" id="DejaVuSans-97"/>
       <path d="M 5.515625 54.6875 
L 48.1875 54.6875 
L 48.1875 46.484375 
L 14.40625 7.171875 
L 48.1875 7.171875 
L 48.1875 0 
L 4.296875 0 
L 4.296875 8.203125 
L 38.09375 47.515625 
L 5.515625 47.515625 
z
" id="DejaVuSans-122"/>
      </defs>
      <g transform="translate(79.0125 82.736719)scale(0.1 -0.1)">
       <use xlink:href="#DejaVuSans-65"/>
       <use x="68.330078" xlink:href="#DejaVuSans-118"/>
       <use x="127.509766" xlink:href="#DejaVuSans-97"/>
       <use x="188.789062" xlink:href="#DejaVuSans-110"/>
       <use x="252.167969" xlink:href="#DejaVuSans-122"/>
       <use x="304.658203" xlink:href="#DejaVuSans-97"/>
       <use x="365.9375" xlink:href="#DejaVuSans-100"/>
       <use x="429.414062" xlink:href="#DejaVuSans-111"/>
      </g>
     </g>
    </g>
    <g id="ytick_2">
     <g id="line2d_11">
      <g>
       <use style="stroke:#000000;stroke-width:0.8;" x="135.073438" xlink:href="#mdb7088d592" y="160.4775"/>
      </g>
     </g>
     <g id="text_12">
      <!-- Satisfactorio -->
      <defs>
       <path d="M 53.515625 70.515625 
L 53.515625 60.890625 
Q 47.90625 63.578125 42.921875 64.890625 
Q 37.9375 66.21875 33.296875 66.21875 
Q 25.25 66.21875 20.875 63.09375 
Q 16.5 59.96875 16.5 54.203125 
Q 16.5 49.359375 19.40625 46.890625 
Q 22.3125 44.4375 30.421875 42.921875 
L 36.375 41.703125 
Q 47.40625 39.59375 52.65625 34.296875 
Q 57.90625 29 57.90625 20.125 
Q 57.90625 9.515625 50.796875 4.046875 
Q 43.703125 -1.421875 29.984375 -1.421875 
Q 24.8125 -1.421875 18.96875 -0.25 
Q 13.140625 0.921875 6.890625 3.21875 
L 6.890625 13.375 
Q 12.890625 10.015625 18.65625 8.296875 
Q 24.421875 6.59375 29.984375 6.59375 
Q 38.421875 6.59375 43.015625 9.90625 
Q 47.609375 13.234375 47.609375 19.390625 
Q 47.609375 24.75 44.3125 27.78125 
Q 41.015625 30.8125 33.5 32.328125 
L 27.484375 33.5 
Q 16.453125 35.6875 11.515625 40.375 
Q 6.59375 45.0625 6.59375 53.421875 
Q 6.59375 63.09375 13.40625 68.65625 
Q 20.21875 74.21875 32.171875 74.21875 
Q 37.3125 74.21875 42.625 73.28125 
Q 47.953125 72.359375 53.515625 70.515625 
z
" id="DejaVuSans-83"/>
       <path d="M 18.3125 70.21875 
L 18.3125 54.6875 
L 36.8125 54.6875 
L 36.8125 47.703125 
L 18.3125 47.703125 
L 18.3125 18.015625 
Q 18.3125 11.328125 20.140625 9.421875 
Q 21.96875 7.515625 27.59375 7.515625 
L 36.8125 7.515625 
L 36.8125 0 
L 27.59375 0 
Q 17.1875 0 13.234375 3.875 
Q 9.28125 7.765625 9.28125 18.015625 
L 9.28125 47.703125 
L 2.6875 47.703125 
L 2.6875 54.6875 
L 9.28125 54.6875 
L 9.28125 70.21875 
z
" id="DejaVuSans-116"/>
       <path d="M 37.109375 75.984375 
L 37.109375 68.5 
L 28.515625 68.5 
Q 23.6875 68.5 21.796875 66.546875 
Q 19.921875 64.59375 19.921875 59.515625 
L 19.921875 54.6875 
L 34.71875 54.6875 
L 34.71875 47.703125 
L 19.921875 47.703125 
L 19.921875 0 
L 10.890625 0 
L 10.890625 47.703125 
L 2.296875 47.703125 
L 2.296875 54.6875 
L 10.890625 54.6875 
L 10.890625 58.5 
Q 10.890625 67.625 15.140625 71.796875 
Q 19.390625 75.984375 28.609375 75.984375 
z
" id="DejaVuSans-102"/>
       <path d="M 41.109375 46.296875 
Q 39.59375 47.171875 37.8125 47.578125 
Q 36.03125 48 33.890625 48 
Q 26.265625 48 22.1875 43.046875 
Q 18.109375 38.09375 18.109375 28.8125 
L 18.109375 0 
L 9.078125 0 
L 9.078125 54.6875 
L 18.109375 54.6875 
L 18.109375 46.1875 
Q 20.953125 51.171875 25.484375 53.578125 
Q 30.03125 56 36.53125 56 
Q 37.453125 56 38.578125 55.875 
Q 39.703125 55.765625 41.0625 55.515625 
z
" id="DejaVuSans-114"/>
      </defs>
      <g transform="translate(65.495313 164.276719)scale(0.1 -0.1)">
       <use xlink:href="#DejaVuSans-83"/>
       <use x="63.476562" xlink:href="#DejaVuSans-97"/>
       <use x="124.755859" xlink:href="#DejaVuSans-116"/>
       <use x="163.964844" xlink:href="#DejaVuSans-105"/>
       <use x="191.748047" xlink:href="#DejaVuSans-115"/>
       <use x="243.847656" xlink:href="#DejaVuSans-102"/>
       <use x="279.052734" xlink:href="#DejaVuSans-97"/>
       <use x="340.332031" xlink:href="#DejaVuSans-99"/>
       <use x="395.3125" xlink:href="#DejaVuSans-116"/>
       <use x="434.521484" xlink:href="#DejaVuSans-111"/>
       <use x="495.703125" xlink:href="#DejaVuSans-114"/>
       <use x="536.816406" xlink:href="#DejaVuSans-105"/>
       <use x="564.599609" xlink:href="#DejaVuSans-111"/>
      </g>
     </g>
    </g>
    <g id="ytick_3">
     <g id="line2d_12">
      <g>
       <use style="stroke:#000000;stroke-width:0.8;" x="135.073438" xlink:href="#mdb7088d592" y="242.0175"/>
      </g>
     </g>
     <g id="text_13">
      <!-- Básico -->
      <defs>
       <path d="M 19.671875 34.8125 
L 19.671875 8.109375 
L 35.5 8.109375 
Q 43.453125 8.109375 47.28125 11.40625 
Q 51.125 14.703125 51.125 21.484375 
Q 51.125 28.328125 47.28125 31.5625 
Q 43.453125 34.8125 35.5 34.8125 
z
M 19.671875 64.796875 
L 19.671875 42.828125 
L 34.28125 42.828125 
Q 41.5 42.828125 45.03125 45.53125 
Q 48.578125 48.25 48.578125 53.8125 
Q 48.578125 59.328125 45.03125 62.0625 
Q 41.5 64.796875 34.28125 64.796875 
z
M 9.8125 72.90625 
L 35.015625 72.90625 
Q 46.296875 72.90625 52.390625 68.21875 
Q 58.5 63.53125 58.5 54.890625 
Q 58.5 48.1875 55.375 44.234375 
Q 52.25 40.28125 46.1875 39.3125 
Q 53.46875 37.75 57.5 32.78125 
Q 61.53125 27.828125 61.53125 20.40625 
Q 61.53125 10.640625 54.890625 5.3125 
Q 48.25 0 35.984375 0 
L 9.8125 0 
z
" id="DejaVuSans-66"/>
       <path d="M 34.28125 27.484375 
Q 23.390625 27.484375 19.1875 25 
Q 14.984375 22.515625 14.984375 16.5 
Q 14.984375 11.71875 18.140625 8.90625 
Q 21.296875 6.109375 26.703125 6.109375 
Q 34.1875 6.109375 38.703125 11.40625 
Q 43.21875 16.703125 43.21875 25.484375 
L 43.21875 27.484375 
z
M 52.203125 31.203125 
L 52.203125 0 
L 43.21875 0 
L 43.21875 8.296875 
Q 40.140625 3.328125 35.546875 0.953125 
Q 30.953125 -1.421875 24.3125 -1.421875 
Q 15.921875 -1.421875 10.953125 3.296875 
Q 6 8.015625 6 15.921875 
Q 6 25.140625 12.171875 29.828125 
Q 18.359375 34.515625 30.609375 34.515625 
L 43.21875 34.515625 
L 43.21875 35.40625 
Q 43.21875 41.609375 39.140625 45 
Q 35.0625 48.390625 27.6875 48.390625 
Q 23 48.390625 18.546875 47.265625 
Q 14.109375 46.140625 10.015625 43.890625 
L 10.015625 52.203125 
Q 14.9375 54.109375 19.578125 55.046875 
Q 24.21875 56 28.609375 56 
Q 40.484375 56 46.34375 49.84375 
Q 52.203125 43.703125 52.203125 31.203125 
z
M 35.796875 79.984375 
L 45.515625 79.984375 
L 29.59375 61.625 
L 22.125 61.625 
z
" id="DejaVuSans-225"/>
      </defs>
      <g transform="translate(95.479688 245.816719)scale(0.1 -0.1)">
       <use xlink:href="#DejaVuSans-66"/>
       <use x="68.603516" xlink:href="#DejaVuSans-225"/>
       <use x="129.882812" xlink:href="#DejaVuSans-115"/>
       <use x="181.982422" xlink:href="#DejaVuSans-105"/>
       <use x="209.765625" xlink:href="#DejaVuSans-99"/>
       <use x="264.746094" xlink:href="#DejaVuSans-111"/>
      </g>
     </g>
    </g>
    <g id="ytick_4">
     <g id="line2d_13">
      <g>
       <use style="stroke:#000000;stroke-width:0.8;" x="135.073438" xlink:href="#mdb7088d592" y="323.5575"/>
      </g>
     </g>
     <g id="text_14">
      <!-- Por debajo del básico -->
      <defs>
       <path d="M 19.671875 64.796875 
L 19.671875 37.40625 
L 32.078125 37.40625 
Q 38.96875 37.40625 42.71875 40.96875 
Q 46.484375 44.53125 46.484375 51.125 
Q 46.484375 57.671875 42.71875 61.234375 
Q 38.96875 64.796875 32.078125 64.796875 
z
M 9.8125 72.90625 
L 32.078125 72.90625 
Q 44.34375 72.90625 50.609375 67.359375 
Q 56.890625 61.8125 56.890625 51.125 
Q 56.890625 40.328125 50.609375 34.8125 
Q 44.34375 29.296875 32.078125 29.296875 
L 19.671875 29.296875 
L 19.671875 0 
L 9.8125 0 
z
" id="DejaVuSans-80"/>
       <path d="M 48.6875 27.296875 
Q 48.6875 37.203125 44.609375 42.84375 
Q 40.53125 48.484375 33.40625 48.484375 
Q 26.265625 48.484375 22.1875 42.84375 
Q 18.109375 37.203125 18.109375 27.296875 
Q 18.109375 17.390625 22.1875 11.75 
Q 26.265625 6.109375 33.40625 6.109375 
Q 40.53125 6.109375 44.609375 11.75 
Q 48.6875 17.390625 48.6875 27.296875 
z
M 18.109375 46.390625 
Q 20.953125 51.265625 25.265625 53.625 
Q 29.59375 56 35.59375 56 
Q 45.5625 56 51.78125 48.09375 
Q 58.015625 40.1875 58.015625 27.296875 
Q 58.015625 14.40625 51.78125 6.484375 
Q 45.5625 -1.421875 35.59375 -1.421875 
Q 29.59375 -1.421875 25.265625 0.953125 
Q 20.953125 3.328125 18.109375 8.203125 
L 18.109375 0 
L 9.078125 0 
L 9.078125 75.984375 
L 18.109375 75.984375 
z
" id="DejaVuSans-98"/>
       <path d="M 9.421875 54.6875 
L 18.40625 54.6875 
L 18.40625 -0.984375 
Q 18.40625 -11.421875 14.421875 -16.109375 
Q 10.453125 -20.796875 1.609375 -20.796875 
L -1.8125 -20.796875 
L -1.8125 -13.1875 
L 0.59375 -13.1875 
Q 5.71875 -13.1875 7.5625 -10.8125 
Q 9.421875 -8.453125 9.421875 -0.984375 
z
M 9.421875 75.984375 
L 18.40625 75.984375 
L 18.40625 64.59375 
L 9.421875 64.59375 
z
" id="DejaVuSans-106"/>
       <path d="M 9.421875 75.984375 
L 18.40625 75.984375 
L 18.40625 0 
L 9.421875 0 
z
" id="DejaVuSans-108"/>
      </defs>
      <g transform="translate(21.048438 327.556719)scale(0.1 -0.1)">
       <use xlink:href="#DejaVuSans-80"/>
       <use x="60.255859" xlink:href="#DejaVuSans-111"/>
       <use x="121.4375" xlink:href="#DejaVuSans-114"/>
       <use x="162.550781" xlink:href="#DejaVuSans-32"/>
       <use x="194.337891" xlink:href="#DejaVuSans-100"/>
       <use x="257.814453" xlink:href="#DejaVuSans-101"/>
       <use x="319.337891" xlink:href="#DejaVuSans-98"/>
       <use x="382.814453" xlink:href="#DejaVuSans-97"/>
       <use x="444.09375" xlink:href="#DejaVuSans-106"/>
       <use x="471.876953" xlink:href="#DejaVuSans-111"/>
       <use x="533.058594" xlink:href="#DejaVuSans-32"/>
       <use x="564.845703" xlink:href="#DejaVuSans-100"/>
       <use x="628.322266" xlink:href="#DejaVuSans-101"/>
       <use x="689.845703" xlink:href="#DejaVuSans-108"/>
       <use x="717.628906" xlink:href="#DejaVuSans-32"/>
       <use x="749.416016" xlink:href="#DejaVuSans-98"/>
       <use x="812.892578" xlink:href="#DejaVuSans-225"/>
       <use x="874.171875" xlink:href="#DejaVuSans-115"/>
       <use x="926.271484" xlink:href="#DejaVuSans-105"/>
       <use x="954.054688" xlink:href="#DejaVuSans-99"/>
       <use x="1009.035156" xlink:href="#DejaVuSans-111"/>
      </g>
     </g>
    </g>
    <g id="text_15">
     <!-- Nivel de desempeño en naturales -->
     <defs>
      <path d="M 9.8125 72.90625 
L 23.09375 72.90625 
L 55.421875 11.921875 
L 55.421875 72.90625 
L 64.984375 72.90625 
L 64.984375 0 
L 51.703125 0 
L 19.390625 60.984375 
L 19.390625 0 
L 9.8125 0 
z
" id="DejaVuSans-78"/>
      <path d="M 18.109375 8.203125 
L 18.109375 -20.796875 
L 9.078125 -20.796875 
L 9.078125 54.6875 
L 18.109375 54.6875 
L 18.109375 46.390625 
Q 20.953125 51.265625 25.265625 53.625 
Q 29.59375 56 35.59375 56 
Q 45.5625 56 51.78125 48.09375 
Q 58.015625 40.1875 58.015625 27.296875 
Q 58.015625 14.40625 51.78125 6.484375 
Q 45.5625 -1.421875 35.59375 -1.421875 
Q 29.59375 -1.421875 25.265625 0.953125 
Q 20.953125 3.328125 18.109375 8.203125 
z
M 48.6875 27.296875 
Q 48.6875 37.203125 44.609375 42.84375 
Q 40.53125 48.484375 33.40625 48.484375 
Q 26.265625 48.484375 22.1875 42.84375 
Q 18.109375 37.203125 18.109375 27.296875 
Q 18.109375 17.390625 22.1875 11.75 
Q 26.265625 6.109375 33.40625 6.109375 
Q 40.53125 6.109375 44.609375 11.75 
Q 48.6875 17.390625 48.6875 27.296875 
z
" id="DejaVuSans-112"/>
      <path d="M 54.890625 33.015625 
L 54.890625 0 
L 45.90625 0 
L 45.90625 32.71875 
Q 45.90625 40.484375 42.875 44.328125 
Q 39.84375 48.1875 33.796875 48.1875 
Q 26.515625 48.1875 22.3125 43.546875 
Q 18.109375 38.921875 18.109375 30.90625 
L 18.109375 0 
L 9.078125 0 
L 9.078125 54.6875 
L 18.109375 54.6875 
L 18.109375 46.1875 
Q 21.34375 51.125 25.703125 53.5625 
Q 30.078125 56 35.796875 56 
Q 45.21875 56 50.046875 50.171875 
Q 54.890625 44.34375 54.890625 33.015625 
z
M 32.234375 66.890625 
L 29.4375 69.578125 
Q 28.375 70.5625 27.5625 71.015625 
Q 26.765625 71.484375 26.125 71.484375 
Q 24.265625 71.484375 23.390625 69.703125 
Q 22.515625 67.921875 22.40625 63.921875 
L 16.3125 63.921875 
Q 16.40625 70.515625 18.890625 74.09375 
Q 21.390625 77.6875 25.828125 77.6875 
Q 27.6875 77.6875 29.25 77 
Q 30.8125 76.3125 32.625 74.703125 
L 35.40625 72.015625 
Q 36.46875 71.046875 37.28125 70.578125 
Q 38.09375 70.125 38.71875 70.125 
Q 40.578125 70.125 41.453125 71.90625 
Q 42.328125 73.6875 42.4375 77.6875 
L 48.53125 77.6875 
Q 48.4375 71.09375 45.9375 67.5 
Q 43.453125 63.921875 39.015625 63.921875 
Q 37.15625 63.921875 35.59375 64.59375 
Q 34.03125 65.28125 32.234375 66.890625 
z
" id="DejaVuSans-241"/>
      <path d="M 8.5 21.578125 
L 8.5 54.6875 
L 17.484375 54.6875 
L 17.484375 21.921875 
Q 17.484375 14.15625 20.5 10.265625 
Q 23.53125 6.390625 29.59375 6.390625 
Q 36.859375 6.390625 41.078125 11.03125 
Q 45.3125 15.671875 45.3125 23.6875 
L 45.3125 54.6875 
L 54.296875 54.6875 
L 54.296875 0 
L 45.3125 0 
L 45.3125 8.40625 
Q 42.046875 3.421875 37.71875 1 
Q 33.40625 -1.421875 27.6875 -1.421875 
Q 18.265625 -1.421875 13.375 4.4375 
Q 8.5 10.296875 8.5 21.578125 
z
M 31.109375 56 
z
" id="DejaVuSans-117"/>
     </defs>
     <g transform="translate(14.96875 285.487344)rotate(-90)scale(0.1 -0.1)">
      <use xlink:href="#DejaVuSans-78"/>
      <use x="74.804688" xlink:href="#DejaVuSans-105"/>
      <use x="102.587891" xlink:href="#DejaVuSans-118"/>
      <use x="161.767578" xlink:href="#DejaVuSans-101"/>
      <use x="223.291016" xlink:href="#DejaVuSans-108"/>
      <use x="251.074219" xlink:href="#DejaVuSans-32"/>
      <use x="282.861328" xlink:href="#DejaVuSans-100"/>
      <use x="346.337891" xlink:href="#DejaVuSans-101"/>
      <use x="407.861328" xlink:href="#DejaVuSans-32"/>
      <use x="439.648438" xlink:href="#DejaVuSans-100"/>
      <use x="503.125" xlink:href="#DejaVuSans-101"/>
      <use x="564.648438" xlink:href="#DejaVuSans-115"/>
      <use x="616.748047" xlink:href="#DejaVuSans-101"/>
      <use x="678.271484" xlink:href="#DejaVuSans-109"/>
      <use x="775.683594" xlink:href="#DejaVuSans-112"/>
      <use x="839.160156" xlink:href="#DejaVuSans-101"/>
      <use x="900.683594" xlink:href="#DejaVuSans-241"/>
      <use x="964.0625" xlink:href="#DejaVuSans-111"/>
      <use x="1025.244141" xlink:href="#DejaVuSans-32"/>
      <use x="1057.03125" xlink:href="#DejaVuSans-101"/>
      <use x="1118.554688" xlink:href="#DejaVuSans-110"/>
      <use x="1181.933594" xlink:href="#DejaVuSans-32"/>
      <use x="1213.720703" xlink:href="#DejaVuSans-110"/>
      <use x="1277.099609" xlink:href="#DejaVuSans-97"/>
      <use x="1338.378906" xlink:href="#DejaVuSans-116"/>
      <use x="1377.587891" xlink:href="#DejaVuSans-117"/>
      <use x="1440.966797" xlink:href="#DejaVuSans-114"/>
      <use x="1482.080078" xlink:href="#DejaVuSans-97"/>
      <use x="1543.359375" xlink:href="#DejaVuSans-108"/>
      <use x="1571.142578" xlink:href="#DejaVuSans-101"/>
      <use x="1632.666016" xlink:href="#DejaVuSans-115"/>
     </g>
    </g>
   </g>
   <g id="line2d_14">
    <path clip-path="url(#p887fad3500)" d="M 218.283964 78.9375 
L 679.787723 78.9375 
" style="fill:none;stroke:#262626;stroke-linecap:square;stroke-width:1.5;"/>
   </g>
   <g id="line2d_15">
    <path clip-path="url(#p887fad3500)" d="M 391.555278 78.9375 
L 508.095416 78.9375 
" style="fill:none;stroke:#262626;stroke-linecap:square;stroke-width:4.5;"/>
   </g>
   <g id="line2d_16">
    <path clip-path="url(#p887fad3500)" d="M 229.228717 160.4775 
L 595.877949 160.4775 
" style="fill:none;stroke:#262626;stroke-linecap:square;stroke-width:1.5;"/>
   </g>
   <g id="line2d_17">
    <path clip-path="url(#p887fad3500)" d="M 366.482819 160.4775 
L 458.359152 160.4775 
" style="fill:none;stroke:#262626;stroke-linecap:square;stroke-width:4.5;"/>
   </g>
   <g id="line2d_18">
    <path clip-path="url(#p887fad3500)" d="M 230.117394 242.0175 
L 550.521314 242.0175 
" style="fill:none;stroke:#262626;stroke-linecap:square;stroke-width:1.5;"/>
   </g>
   <g id="line2d_19">
    <path clip-path="url(#p887fad3500)" d="M 349.935506 242.0175 
L 430.177334 242.0175 
" style="fill:none;stroke:#262626;stroke-linecap:square;stroke-width:4.5;"/>
   </g>
   <g id="line2d_20">
    <path clip-path="url(#p887fad3500)" d="M 222.759152 323.5575 
L 539.549628 323.5575 
" style="fill:none;stroke:#262626;stroke-linecap:square;stroke-width:1.5;"/>
   </g>
   <g id="line2d_21">
    <path clip-path="url(#p887fad3500)" d="M 340.577997 323.5575 
L 420.181812 323.5575 
" style="fill:none;stroke:#262626;stroke-linecap:square;stroke-width:4.5;"/>
   </g>
   <g id="patch_3">
    <path d="M 135.073438 364.3275 
L 135.073438 38.1675 
" style="fill:none;stroke:#000000;stroke-linecap:square;stroke-linejoin:miter;stroke-width:0.8;"/>
   </g>
   <g id="patch_4">
    <path d="M 693.073437 364.3275 
L 693.073437 38.1675 
" style="fill:none;stroke:#000000;stroke-linecap:square;stroke-linejoin:miter;stroke-width:0.8;"/>
   </g>
   <g id="patch_5">
    <path d="M 135.073438 364.3275 
L 693.073438 364.3275 
" style="fill:none;stroke:#000000;stroke-linecap:square;stroke-linejoin:miter;stroke-width:0.8;"/>
   </g>
   <g id="patch_6">
    <path d="M 135.073438 38.1675 
L 693.073438 38.1675 
" style="fill:none;stroke:#000000;stroke-linecap:square;stroke-linejoin:miter;stroke-width:0.8;"/>
   </g>
   <g id="PathCollection_1">
    <defs>
     <path d="M 0 1.5 
C 0.397805 1.5 0.77937 1.341951 1.06066 1.06066 
C 1.341951 0.77937 1.5 0.397805 1.5 0 
C 1.5 -0.397805 1.341951 -0.77937 1.06066 -1.06066 
C 0.77937 -1.341951 0.397805 -1.5 0 -1.5 
C -0.397805 -1.5 -0.77937 -1.341951 -1.06066 -1.06066 
C -1.341951 -0.77937 -1.5 -0.397805 -1.5 0 
C -1.5 0.397805 -1.341951 0.77937 -1.06066 1.06066 
C -0.77937 1.341951 -0.397805 1.5 0 1.5 
z
" id="mc42c2ed084" style="stroke:#262626;"/>
    </defs>
    <g clip-path="url(#p887fad3500)">
     <use style="fill:#ffffff;stroke:#262626;" x="442.7289" xlink:href="#mc42c2ed084" y="78.9375"/>
    </g>
   </g>
   <g id="PathCollection_2">
    <g clip-path="url(#p887fad3500)">
     <use style="fill:#ffffff;stroke:#262626;" x="408.168676" xlink:href="#mc42c2ed084" y="160.4775"/>
    </g>
   </g>
   <g id="PathCollection_3">
    <g clip-path="url(#p887fad3500)">
     <use style="fill:#ffffff;stroke:#262626;" x="387.502009" xlink:href="#mc42c2ed084" y="242.0175"/>
    </g>
   </g>
   <g id="PathCollection_4">
    <g clip-path="url(#p887fad3500)">
     <use style="fill:#ffffff;stroke:#262626;" x="379.787723" xlink:href="#mc42c2ed084" y="323.5575"/>
    </g>
   </g>
   <g id="text_16">
    <!-- Distribución de: Índice socioeconómico según el desempeño en naturales -->
    <defs>
     <path d="M 19.671875 64.796875 
L 19.671875 8.109375 
L 31.59375 8.109375 
Q 46.6875 8.109375 53.6875 14.9375 
Q 60.6875 21.78125 60.6875 36.53125 
Q 60.6875 51.171875 53.6875 57.984375 
Q 46.6875 64.796875 31.59375 64.796875 
z
M 9.8125 72.90625 
L 30.078125 72.90625 
Q 51.265625 72.90625 61.171875 64.09375 
Q 71.09375 55.28125 71.09375 36.53125 
Q 71.09375 17.671875 61.125 8.828125 
Q 51.171875 0 30.078125 0 
L 9.8125 0 
z
" id="DejaVuSans-68"/>
     <path d="M 11.71875 12.40625 
L 22.015625 12.40625 
L 22.015625 0 
L 11.71875 0 
z
M 11.71875 51.703125 
L 22.015625 51.703125 
L 22.015625 39.3125 
L 11.71875 39.3125 
z
" id="DejaVuSans-58"/>
     <path d="M 45.40625 27.984375 
Q 45.40625 37.75 41.375 43.109375 
Q 37.359375 48.484375 30.078125 48.484375 
Q 22.859375 48.484375 18.828125 43.109375 
Q 14.796875 37.75 14.796875 27.984375 
Q 14.796875 18.265625 18.828125 12.890625 
Q 22.859375 7.515625 30.078125 7.515625 
Q 37.359375 7.515625 41.375 12.890625 
Q 45.40625 18.265625 45.40625 27.984375 
z
M 54.390625 6.78125 
Q 54.390625 -7.171875 48.1875 -13.984375 
Q 42 -20.796875 29.203125 -20.796875 
Q 24.46875 -20.796875 20.265625 -20.09375 
Q 16.0625 -19.390625 12.109375 -17.921875 
L 12.109375 -9.1875 
Q 16.0625 -11.328125 19.921875 -12.34375 
Q 23.78125 -13.375 27.78125 -13.375 
Q 36.625 -13.375 41.015625 -8.765625 
Q 45.40625 -4.15625 45.40625 5.171875 
L 45.40625 9.625 
Q 42.625 4.78125 38.28125 2.390625 
Q 33.9375 0 27.875 0 
Q 17.828125 0 11.671875 7.65625 
Q 5.515625 15.328125 5.515625 27.984375 
Q 5.515625 40.671875 11.671875 48.328125 
Q 17.828125 56 27.875 56 
Q 33.9375 56 38.28125 53.609375 
Q 42.625 51.21875 45.40625 46.390625 
L 45.40625 54.6875 
L 54.390625 54.6875 
z
" id="DejaVuSans-103"/>
     <path d="M 8.5 21.578125 
L 8.5 54.6875 
L 17.484375 54.6875 
L 17.484375 21.921875 
Q 17.484375 14.15625 20.5 10.265625 
Q 23.53125 6.390625 29.59375 6.390625 
Q 36.859375 6.390625 41.078125 11.03125 
Q 45.3125 15.671875 45.3125 23.6875 
L 45.3125 54.6875 
L 54.296875 54.6875 
L 54.296875 0 
L 45.3125 0 
L 45.3125 8.40625 
Q 42.046875 3.421875 37.71875 1 
Q 33.40625 -1.421875 27.6875 -1.421875 
Q 18.265625 -1.421875 13.375 4.4375 
Q 8.5 10.296875 8.5 21.578125 
z
M 31.109375 56 
z
M 37.796875 79.984375 
L 47.515625 79.984375 
L 31.59375 61.625 
L 24.125 61.625 
z
" id="DejaVuSans-250"/>
    </defs>
    <g transform="translate(192.771875 18.328125)scale(0.12 -0.12)">
     <use xlink:href="#DejaVuSans-68"/>
     <use x="77.001953" xlink:href="#DejaVuSans-105"/>
     <use x="104.785156" xlink:href="#DejaVuSans-115"/>
     <use x="156.884766" xlink:href="#DejaVuSans-116"/>
     <use x="196.09375" xlink:href="#DejaVuSans-114"/>
     <use x="237.207031" xlink:href="#DejaVuSans-105"/>
     <use x="264.990234" xlink:href="#DejaVuSans-98"/>
     <use x="328.466797" xlink:href="#DejaVuSans-117"/>
     <use x="391.845703" xlink:href="#DejaVuSans-99"/>
     <use x="446.826172" xlink:href="#DejaVuSans-105"/>
     <use x="474.609375" xlink:href="#DejaVuSans-243"/>
     <use x="535.791016" xlink:href="#DejaVuSans-110"/>
     <use x="599.169922" xlink:href="#DejaVuSans-32"/>
     <use x="630.957031" xlink:href="#DejaVuSans-100"/>
     <use x="694.433594" xlink:href="#DejaVuSans-101"/>
     <use x="755.957031" xlink:href="#DejaVuSans-58"/>
     <use x="789.648438" xlink:href="#DejaVuSans-32"/>
     <use x="821.435547" xlink:href="#DejaVuSans-205"/>
     <use x="850.927734" xlink:href="#DejaVuSans-110"/>
     <use x="914.306641" xlink:href="#DejaVuSans-100"/>
     <use x="977.783203" xlink:href="#DejaVuSans-105"/>
     <use x="1005.566406" xlink:href="#DejaVuSans-99"/>
     <use x="1060.546875" xlink:href="#DejaVuSans-101"/>
     <use x="1122.070312" xlink:href="#DejaVuSans-32"/>
     <use x="1153.857422" xlink:href="#DejaVuSans-115"/>
     <use x="1205.957031" xlink:href="#DejaVuSans-111"/>
     <use x="1267.138672" xlink:href="#DejaVuSans-99"/>
     <use x="1322.119141" xlink:href="#DejaVuSans-105"/>
     <use x="1349.902344" xlink:href="#DejaVuSans-111"/>
     <use x="1411.083984" xlink:href="#DejaVuSans-101"/>
     <use x="1472.607422" xlink:href="#DejaVuSans-99"/>
     <use x="1527.587891" xlink:href="#DejaVuSans-111"/>
     <use x="1588.769531" xlink:href="#DejaVuSans-110"/>
     <use x="1652.148438" xlink:href="#DejaVuSans-243"/>
     <use x="1713.330078" xlink:href="#DejaVuSans-109"/>
     <use x="1810.742188" xlink:href="#DejaVuSans-105"/>
     <use x="1838.525391" xlink:href="#DejaVuSans-99"/>
     <use x="1893.505859" xlink:href="#DejaVuSans-111"/>
     <use x="1954.6875" xlink:href="#DejaVuSans-32"/>
     <use x="1986.474609" xlink:href="#DejaVuSans-115"/>
     <use x="2038.574219" xlink:href="#DejaVuSans-101"/>
     <use x="2100.097656" xlink:href="#DejaVuSans-103"/>
     <use x="2163.574219" xlink:href="#DejaVuSans-250"/>
     <use x="2226.953125" xlink:href="#DejaVuSans-110"/>
     <use x="2290.332031" xlink:href="#DejaVuSans-32"/>
     <use x="2322.119141" xlink:href="#DejaVuSans-101"/>
     <use x="2383.642578" xlink:href="#DejaVuSans-108"/>
     <use x="2411.425781" xlink:href="#DejaVuSans-32"/>
     <use x="2443.212891" xlink:href="#DejaVuSans-100"/>
     <use x="2506.689453" xlink:href="#DejaVuSans-101"/>
     <use x="2568.212891" xlink:href="#DejaVuSans-115"/>
     <use x="2620.3125" xlink:href="#DejaVuSans-101"/>
     <use x="2681.835938" xlink:href="#DejaVuSans-109"/>
     <use x="2779.248047" xlink:href="#DejaVuSans-112"/>
     <use x="2842.724609" xlink:href="#DejaVuSans-101"/>
     <use x="2904.248047" xlink:href="#DejaVuSans-241"/>
     <use x="2967.626953" xlink:href="#DejaVuSans-111"/>
     <use x="3028.808594" xlink:href="#DejaVuSans-32"/>
     <use x="3060.595703" xlink:href="#DejaVuSans-101"/>
     <use x="3122.119141" xlink:href="#DejaVuSans-110"/>
     <use x="3185.498047" xlink:href="#DejaVuSans-32"/>
     <use x="3217.285156" xlink:href="#DejaVuSans-110"/>
     <use x="3280.664062" xlink:href="#DejaVuSans-97"/>
     <use x="3341.943359" xlink:href="#DejaVuSans-116"/>
     <use x="3381.152344" xlink:href="#DejaVuSans-117"/>
     <use x="3444.53125" xlink:href="#DejaVuSans-114"/>
     <use x="3485.644531" xlink:href="#DejaVuSans-97"/>
     <use x="3546.923828" xlink:href="#DejaVuSans-108"/>
     <use x="3574.707031" xlink:href="#DejaVuSans-101"/>
     <use x="3636.230469" xlink:href="#DejaVuSans-115"/>
    </g>
    <!--  Nivel: Primaria -->
    <g transform="translate(368.090937 31.7655)scale(0.12 -0.12)">
     <use xlink:href="#DejaVuSans-32"/>
     <use x="31.787109" xlink:href="#DejaVuSans-78"/>
     <use x="106.591797" xlink:href="#DejaVuSans-105"/>
     <use x="134.375" xlink:href="#DejaVuSans-118"/>
     <use x="193.554688" xlink:href="#DejaVuSans-101"/>
     <use x="255.078125" xlink:href="#DejaVuSans-108"/>
     <use x="282.861328" xlink:href="#DejaVuSans-58"/>
     <use x="316.552734" xlink:href="#DejaVuSans-32"/>
     <use x="348.339844" xlink:href="#DejaVuSans-80"/>
     <use x="408.626953" xlink:href="#DejaVuSans-114"/>
     <use x="449.740234" xlink:href="#DejaVuSans-105"/>
     <use x="477.523438" xlink:href="#DejaVuSans-109"/>
     <use x="574.935547" xlink:href="#DejaVuSans-97"/>
     <use x="636.214844" xlink:href="#DejaVuSans-114"/>
     <use x="677.328125" xlink:href="#DejaVuSans-105"/>
     <use x="705.111328" xlink:href="#DejaVuSans-97"/>
    </g>
   </g>
  </g>
 </g>
 <defs>
  <clipPath id="p887fad3500">
   <rect height="326.16" width="558" x="135.073438" y="38.1675"/>
  </clipPath>
 </defs>
</svg>
