<?xml version="1.0" encoding="utf-8" standalone="no"?>
<!DOCTYPE svg PUBLIC "-//W3C//DTD SVG 1.1//EN"
  "http://www.w3.org/Graphics/SVG/1.1/DTD/svg11.dtd">
<!-- Created with matplotlib (https://matplotlib.org/) -->
<svg height="401.88375pt" version="1.1" viewBox="0 0 703.773437 401.88375" width="703.773437pt" xmlns="http://www.w3.org/2000/svg" xmlns:xlink="http://www.w3.org/1999/xlink">
 <defs>
  <style type="text/css">
*{stroke-linecap:butt;stroke-linejoin:round;}
  </style>
 </defs>
 <g id="figure_1">
  <g id="patch_1">
   <path d="M 0 401.88375 
L 703.773437 401.88375 
L 703.773437 0 
L 0 0 
z
" style="fill:#ffffff;"/>
  </g>
  <g id="axes_1">
   <g id="patch_2">
    <path d="M 135.073438 364.3275 
L 693.073437 364.3275 
L 693.073437 38.1675 
L 135.073438 38.1675 
z
" style="fill:#ffffff;"/>
   </g>
   <g id="PolyCollection_1">
    <defs>
     <path d="M 132.004942 -322.57032 
L 132.004942 -323.32218 
L 137.703295 -324.134885 
L 143.401649 -325.260629 
L 149.100002 -325.729073 
L 154.798356 -325.039747 
L 160.496709 -323.993467 
L 166.195063 -323.391852 
L 171.893416 -323.217568 
L 177.591769 -323.226703 
L 183.290123 -323.322486 
L 188.988476 -323.461238 
L 194.68683 -323.589882 
L 200.385183 -323.670579 
L 206.083537 -323.709654 
L 211.78189 -323.734256 
L 217.480244 -323.738218 
L 223.178597 -323.771349 
L 228.87695 -323.946627 
L 234.575304 -324.181844 
L 240.273657 -324.265706 
L 245.972011 -324.258259 
L 251.670364 -324.357526 
L 257.368718 -324.537483 
L 263.067071 -324.710792 
L 268.765425 -324.990434 
L 274.463778 -325.509562 
L 280.162131 -326.032958 
L 285.860485 -326.210509 
L 291.558838 -326.186917 
L 297.257192 -326.339744 
L 302.955545 -326.737198 
L 308.653899 -327.212901 
L 314.352252 -327.662232 
L 320.050606 -328.115579 
L 325.748959 -328.624287 
L 331.447313 -329.233103 
L 337.145666 -329.971146 
L 342.844019 -330.749423 
L 348.542373 -331.462733 
L 354.240726 -332.203828 
L 359.93908 -333.213511 
L 365.637433 -334.590549 
L 371.335787 -336.214306 
L 377.03414 -337.783312 
L 382.732494 -338.906311 
L 388.430847 -339.557643 
L 394.1292 -340.175201 
L 399.827554 -341.154777 
L 405.525907 -342.574777 
L 411.224261 -343.882838 
L 416.922614 -343.948976 
L 422.620968 -342.705697 
L 428.319321 -341.645663 
L 434.017675 -341.818855 
L 439.716028 -342.544763 
L 445.414381 -342.497262 
L 451.112735 -341.56733 
L 456.811088 -340.762694 
L 462.509442 -340.532041 
L 468.207795 -340.308863 
L 473.906149 -339.692671 
L 479.604502 -338.940332 
L 485.302856 -338.212669 
L 491.001209 -337.476478 
L 496.699562 -336.98927 
L 502.397916 -337.164777 
L 508.096269 -337.779334 
L 513.794623 -337.66655 
L 519.492976 -336.192657 
L 525.19133 -334.46371 
L 530.889683 -333.820476 
L 536.588037 -334.026287 
L 542.28639 -333.820416 
L 547.984744 -332.64929 
L 553.683097 -331.154869 
L 559.38145 -330.170483 
L 565.079804 -329.961413 
L 570.778157 -330.381088 
L 576.476511 -331.119083 
L 582.174864 -331.819708 
L 587.873218 -332.189941 
L 593.571571 -332.197535 
L 599.269925 -332.048561 
L 604.968278 -331.619761 
L 610.666631 -330.533272 
L 616.364985 -328.910958 
L 622.063338 -327.39214 
L 627.761692 -326.414736 
L 633.460045 -325.934858 
L 639.158399 -325.680227 
L 644.856752 -325.350636 
L 650.555106 -324.774606 
L 656.253459 -324.07243 
L 661.951812 -323.526663 
L 667.650166 -323.263086 
L 673.348519 -323.202962 
L 679.046873 -323.194594 
L 684.745226 -323.13394 
L 690.44358 -323.039659 
L 696.141933 -322.975453 
L 696.141933 -322.917047 
L 696.141933 -322.917047 
L 690.44358 -322.852841 
L 684.745226 -322.75856 
L 679.046873 -322.697906 
L 673.348519 -322.689538 
L 667.650166 -322.629414 
L 661.951812 -322.365837 
L 656.253459 -321.82007 
L 650.555106 -321.117894 
L 644.856752 -320.541864 
L 639.158399 -320.212273 
L 633.460045 -319.957642 
L 627.761692 -319.477764 
L 622.063338 -318.50036 
L 616.364985 -316.981542 
L 610.666631 -315.359228 
L 604.968278 -314.272739 
L 599.269925 -313.843939 
L 593.571571 -313.694965 
L 587.873218 -313.702559 
L 582.174864 -314.072792 
L 576.476511 -314.773417 
L 570.778157 -315.511412 
L 565.079804 -315.931087 
L 559.38145 -315.722017 
L 553.683097 -314.737631 
L 547.984744 -313.24321 
L 542.28639 -312.072084 
L 536.588037 -311.866213 
L 530.889683 -312.072024 
L 525.19133 -311.42879 
L 519.492976 -309.699843 
L 513.794623 -308.22595 
L 508.096269 -308.113166 
L 502.397916 -308.727723 
L 496.699562 -308.90323 
L 491.001209 -308.416022 
L 485.302856 -307.679831 
L 479.604502 -306.952168 
L 473.906149 -306.199829 
L 468.207795 -305.583637 
L 462.509442 -305.360459 
L 456.811088 -305.129806 
L 451.112735 -304.32517 
L 445.414381 -303.395238 
L 439.716028 -303.347737 
L 434.017675 -304.073645 
L 428.319321 -304.246837 
L 422.620968 -303.186803 
L 416.922614 -301.943524 
L 411.224261 -302.009662 
L 405.525907 -303.317723 
L 399.827554 -304.737723 
L 394.1292 -305.717299 
L 388.430847 -306.334857 
L 382.732494 -306.986189 
L 377.03414 -308.109188 
L 371.335787 -309.678194 
L 365.637433 -311.301951 
L 359.93908 -312.678989 
L 354.240726 -313.688672 
L 348.542373 -314.429767 
L 342.844019 -315.143077 
L 337.145666 -315.921354 
L 331.447313 -316.659397 
L 325.748959 -317.268213 
L 320.050606 -317.776921 
L 314.352252 -318.230268 
L 308.653899 -318.679599 
L 302.955545 -319.155302 
L 297.257192 -319.552756 
L 291.558838 -319.705583 
L 285.860485 -319.681991 
L 280.162131 -319.859542 
L 274.463778 -320.382938 
L 268.765425 -320.902066 
L 263.067071 -321.181708 
L 257.368718 -321.355017 
L 251.670364 -321.534974 
L 245.972011 -321.634241 
L 240.273657 -321.626794 
L 234.575304 -321.710656 
L 228.87695 -321.945873 
L 223.178597 -322.121151 
L 217.480244 -322.154282 
L 211.78189 -322.158244 
L 206.083537 -322.182846 
L 200.385183 -322.221921 
L 194.68683 -322.302618 
L 188.988476 -322.431262 
L 183.290123 -322.570014 
L 177.591769 -322.665797 
L 171.893416 -322.674932 
L 166.195063 -322.500648 
L 160.496709 -321.899033 
L 154.798356 -320.852753 
L 149.100002 -320.163427 
L 143.401649 -320.631871 
L 137.703295 -321.757615 
L 132.004942 -322.57032 
z
" id="ma3b3a76bd2" style="stroke:#4c4c4c;stroke-width:1.5;"/>
    </defs>
    <g clip-path="url(#p42d318b22e)">
     <use style="fill:#df9c20;stroke:#4c4c4c;stroke-width:1.5;" x="0" xlink:href="#ma3b3a76bd2" y="401.88375"/>
    </g>
   </g>
   <g id="PolyCollection_2">
    <defs>
     <path d="M 137.221987 -241.183308 
L 137.221987 -241.629192 
L 142.814945 -242.409824 
L 148.407904 -243.054576 
L 154.000862 -242.402001 
L 159.593821 -241.659519 
L 165.18678 -241.502061 
L 170.779738 -241.533551 
L 176.372697 -241.60761 
L 181.965655 -241.66929 
L 187.558614 -241.68561 
L 193.151573 -241.75799 
L 198.744531 -241.889537 
L 204.33749 -241.918581 
L 209.930448 -241.941443 
L 215.523407 -242.031507 
L 221.116366 -242.027409 
L 226.709324 -242.085762 
L 232.302283 -242.345263 
L 237.895241 -242.508612 
L 243.4882 -242.45425 
L 249.081159 -242.734897 
L 254.674117 -243.176654 
L 260.267076 -243.321579 
L 265.860034 -243.455462 
L 271.452993 -243.890178 
L 277.045952 -244.99104 
L 282.63891 -245.688655 
L 288.231869 -245.273197 
L 293.824827 -245.468349 
L 299.417786 -246.642388 
L 305.010745 -247.718288 
L 310.603703 -248.040803 
L 316.196662 -248.618652 
L 321.789621 -249.804862 
L 327.382579 -251.267253 
L 332.975538 -252.866587 
L 338.568496 -254.333173 
L 344.161455 -255.584183 
L 349.754414 -257.032098 
L 355.347372 -258.769561 
L 360.940331 -261.083333 
L 366.533289 -262.629393 
L 372.126248 -263.435077 
L 377.719207 -264.766931 
L 383.312165 -265.713602 
L 388.905124 -265.472032 
L 394.498082 -266.04821 
L 400.091041 -267.121467 
L 405.684 -267.995462 
L 411.276958 -270.74767 
L 416.869917 -270.543788 
L 422.462875 -265.930516 
L 428.055834 -262.507654 
L 433.648793 -261.579617 
L 439.241751 -261.935078 
L 444.83471 -261.135416 
L 450.427668 -258.810891 
L 456.020627 -257.362316 
L 461.613586 -257.493747 
L 467.206544 -257.069576 
L 472.799503 -255.338292 
L 478.392461 -254.378995 
L 483.98542 -253.352844 
L 489.578379 -251.652378 
L 495.171337 -250.665479 
L 500.764296 -250.589338 
L 506.357254 -250.806735 
L 511.950213 -250.840472 
L 517.543172 -249.835134 
L 523.13613 -248.151107 
L 528.729089 -247.39336 
L 534.322048 -247.977056 
L 539.915006 -248.158844 
L 545.507965 -246.806787 
L 551.100923 -245.28444 
L 556.693882 -244.568744 
L 562.286841 -244.465753 
L 567.879799 -244.651031 
L 573.472758 -245.129946 
L 579.065716 -245.369468 
L 584.658675 -245.508552 
L 590.251634 -245.560837 
L 595.844592 -245.536114 
L 601.437551 -245.466818 
L 607.030509 -244.956072 
L 612.623468 -244.091034 
L 618.216427 -243.178048 
L 623.809385 -242.651456 
L 629.402344 -242.505016 
L 634.995302 -242.596688 
L 640.588261 -242.515436 
L 646.18122 -242.199096 
L 651.774178 -241.877445 
L 657.367137 -241.634624 
L 662.960095 -241.5206 
L 668.553054 -241.51625 
L 674.146013 -241.675241 
L 679.738971 -241.821888 
L 685.33193 -241.656519 
L 690.924888 -241.46173 
L 690.924888 -241.35077 
L 690.924888 -241.35077 
L 685.33193 -241.155981 
L 679.738971 -240.990612 
L 674.146013 -241.137259 
L 668.553054 -241.29625 
L 662.960095 -241.2919 
L 657.367137 -241.177876 
L 651.774178 -240.935055 
L 646.18122 -240.613404 
L 640.588261 -240.297064 
L 634.995302 -240.215812 
L 629.402344 -240.307484 
L 623.809385 -240.161044 
L 618.216427 -239.634452 
L 612.623468 -238.721466 
L 607.030509 -237.856428 
L 601.437551 -237.345682 
L 595.844592 -237.276386 
L 590.251634 -237.251663 
L 584.658675 -237.303948 
L 579.065716 -237.443032 
L 573.472758 -237.682554 
L 567.879799 -238.161469 
L 562.286841 -238.346747 
L 556.693882 -238.243756 
L 551.100923 -237.52806 
L 545.507965 -236.005713 
L 539.915006 -234.653656 
L 534.322048 -234.835444 
L 528.729089 -235.41914 
L 523.13613 -234.661393 
L 517.543172 -232.977366 
L 511.950213 -231.972028 
L 506.357254 -232.005765 
L 500.764296 -232.223162 
L 495.171337 -232.147021 
L 489.578379 -231.160122 
L 483.98542 -229.459656 
L 478.392461 -228.433505 
L 472.799503 -227.474208 
L 467.206544 -225.742924 
L 461.613586 -225.318753 
L 456.020627 -225.450184 
L 450.427668 -224.001609 
L 444.83471 -221.677084 
L 439.241751 -220.877422 
L 433.648793 -221.232883 
L 428.055834 -220.304846 
L 422.462875 -216.881984 
L 416.869917 -212.268712 
L 411.276958 -212.06483 
L 405.684 -214.817038 
L 400.091041 -215.691033 
L 394.498082 -216.76429 
L 388.905124 -217.340468 
L 383.312165 -217.098898 
L 377.719207 -218.045569 
L 372.126248 -219.377423 
L 366.533289 -220.183107 
L 360.940331 -221.729167 
L 355.347372 -224.042939 
L 349.754414 -225.780402 
L 344.161455 -227.228317 
L 338.568496 -228.479327 
L 332.975538 -229.945913 
L 327.382579 -231.545247 
L 321.789621 -233.007638 
L 316.196662 -234.193848 
L 310.603703 -234.771697 
L 305.010745 -235.094212 
L 299.417786 -236.170112 
L 293.824827 -237.344151 
L 288.231869 -237.539303 
L 282.63891 -237.123845 
L 277.045952 -237.82146 
L 271.452993 -238.922322 
L 265.860034 -239.357038 
L 260.267076 -239.490921 
L 254.674117 -239.635846 
L 249.081159 -240.077603 
L 243.4882 -240.35825 
L 237.895241 -240.303888 
L 232.302283 -240.467237 
L 226.709324 -240.726738 
L 221.116366 -240.785091 
L 215.523407 -240.780993 
L 209.930448 -240.871057 
L 204.33749 -240.893919 
L 198.744531 -240.922963 
L 193.151573 -241.05451 
L 187.558614 -241.12689 
L 181.965655 -241.14321 
L 176.372697 -241.20489 
L 170.779738 -241.278949 
L 165.18678 -241.310439 
L 159.593821 -241.152981 
L 154.000862 -240.410499 
L 148.407904 -239.757924 
L 142.814945 -240.402676 
L 137.221987 -241.183308 
z
" id="mf7858d7196" style="stroke:#4c4c4c;stroke-width:1.5;"/>
    </defs>
    <g clip-path="url(#p42d318b22e)">
     <use style="fill:#df9c20;stroke:#4c4c4c;stroke-width:1.5;" x="0" xlink:href="#mf7858d7196" y="401.88375"/>
    </g>
   </g>
   <g id="PolyCollection_3">
    <defs>
     <path d="M 137.001938 -159.556883 
L 137.001938 -160.175617 
L 142.599342 -161.232991 
L 148.196746 -162.153037 
L 153.79415 -161.32773 
L 159.391554 -160.272327 
L 164.988958 -160.019428 
L 170.586362 -160.036778 
L 176.183766 -160.070709 
L 181.78117 -160.11649 
L 187.378574 -160.197922 
L 192.975978 -160.310502 
L 198.573382 -160.414933 
L 204.170786 -160.435838 
L 209.76819 -160.506486 
L 215.365594 -160.665584 
L 220.962998 -160.689875 
L 226.560402 -160.783139 
L 232.157806 -161.189438 
L 237.75521 -161.545864 
L 243.352614 -161.575275 
L 248.950018 -161.943329 
L 254.547422 -162.536397 
L 260.144826 -162.762405 
L 265.742231 -163.082424 
L 271.339635 -163.980922 
L 276.937039 -165.579779 
L 282.534443 -166.500303 
L 288.131847 -166.070204 
L 293.729251 -166.482527 
L 299.326655 -168.561954 
L 304.924059 -170.579059 
L 310.521463 -170.789855 
L 316.118867 -171.328172 
L 321.716271 -173.231629 
L 327.313675 -175.353105 
L 332.911079 -177.183111 
L 338.508483 -178.971028 
L 344.105887 -180.486557 
L 349.703291 -182.01009 
L 355.300695 -183.493347 
L 360.898099 -185.872836 
L 366.495503 -188.258798 
L 372.092907 -189.5226 
L 377.690311 -190.291794 
L 383.287715 -189.776928 
L 388.885119 -188.46911 
L 394.482523 -187.922737 
L 400.079927 -187.31886 
L 405.677331 -187.202763 
L 411.274735 -189.043327 
L 416.87214 -187.68716 
L 422.469544 -182.719959 
L 428.066948 -179.270408 
L 433.664352 -177.840945 
L 439.261756 -176.97319 
L 444.85916 -174.836548 
L 450.456564 -171.979181 
L 456.053968 -170.44755 
L 461.651372 -170.621556 
L 467.248776 -170.712484 
L 472.84618 -169.391781 
L 478.443584 -168.277268 
L 484.040988 -167.184002 
L 489.638392 -165.885737 
L 495.235796 -165.411122 
L 500.8332 -165.481759 
L 506.430604 -165.247381 
L 512.028008 -164.758747 
L 517.625412 -163.906174 
L 523.222816 -162.987533 
L 528.82022 -162.512901 
L 534.417624 -162.653391 
L 540.015028 -162.600008 
L 545.612432 -161.913488 
L 551.209836 -161.24049 
L 556.80724 -160.91833 
L 562.404644 -160.881109 
L 568.002049 -161.135667 
L 573.599453 -161.624466 
L 579.196857 -161.896602 
L 584.794261 -162.072429 
L 590.391665 -162.326828 
L 595.989069 -162.204054 
L 601.586473 -161.779976 
L 607.183877 -161.357567 
L 612.781281 -160.90622 
L 618.378685 -160.431544 
L 623.976089 -160.183788 
L 629.573493 -160.158876 
L 635.170897 -160.216771 
L 640.768301 -160.170463 
L 646.365705 -160.05639 
L 651.963109 -159.97632 
L 657.560513 -159.925085 
L 663.157917 -159.89971 
L 668.755321 -159.916533 
L 674.352725 -160.013064 
L 679.950129 -160.086959 
L 685.547533 -159.997059 
L 691.144937 -159.895804 
L 691.144937 -159.836696 
L 691.144937 -159.836696 
L 685.547533 -159.735441 
L 679.950129 -159.645541 
L 674.352725 -159.719436 
L 668.755321 -159.815967 
L 663.157917 -159.83279 
L 657.560513 -159.807415 
L 651.963109 -159.75618 
L 646.365705 -159.67611 
L 640.768301 -159.562037 
L 635.170897 -159.515729 
L 629.573493 -159.573624 
L 623.976089 -159.548712 
L 618.378685 -159.300956 
L 612.781281 -158.82628 
L 607.183877 -158.374933 
L 601.586473 -157.952524 
L 595.989069 -157.528446 
L 590.391665 -157.405672 
L 584.794261 -157.660071 
L 579.196857 -157.835898 
L 573.599453 -158.108034 
L 568.002049 -158.596833 
L 562.404644 -158.851391 
L 556.80724 -158.81417 
L 551.209836 -158.49201 
L 545.612432 -157.819012 
L 540.015028 -157.132492 
L 534.417624 -157.079109 
L 528.82022 -157.219599 
L 523.222816 -156.744967 
L 517.625412 -155.826326 
L 512.028008 -154.973753 
L 506.430604 -154.485119 
L 500.8332 -154.250741 
L 495.235796 -154.321378 
L 489.638392 -153.846763 
L 484.040988 -152.548498 
L 478.443584 -151.455232 
L 472.84618 -150.340719 
L 467.248776 -149.020016 
L 461.651372 -149.110944 
L 456.053968 -149.28495 
L 450.456564 -147.753319 
L 444.85916 -144.895952 
L 439.261756 -142.75931 
L 433.664352 -141.891555 
L 428.066948 -140.462092 
L 422.469544 -137.012541 
L 416.87214 -132.04534 
L 411.274735 -130.689173 
L 405.677331 -132.529737 
L 400.079927 -132.41364 
L 394.482523 -131.809763 
L 388.885119 -131.26339 
L 383.287715 -129.955572 
L 377.690311 -129.440706 
L 372.092907 -130.2099 
L 366.495503 -131.473702 
L 360.898099 -133.859664 
L 355.300695 -136.239153 
L 349.703291 -137.72241 
L 344.105887 -139.245943 
L 338.508483 -140.761472 
L 332.911079 -142.549389 
L 327.313675 -144.379395 
L 321.716271 -146.500871 
L 316.118867 -148.404328 
L 310.521463 -148.942645 
L 304.924059 -149.153441 
L 299.326655 -151.170546 
L 293.729251 -153.249973 
L 288.131847 -153.662296 
L 282.534443 -153.232197 
L 276.937039 -154.152721 
L 271.339635 -155.751578 
L 265.742231 -156.650076 
L 260.144826 -156.970095 
L 254.547422 -157.196103 
L 248.950018 -157.789171 
L 243.352614 -158.157225 
L 237.75521 -158.186636 
L 232.157806 -158.543062 
L 226.560402 -158.949361 
L 220.962998 -159.042625 
L 215.365594 -159.066916 
L 209.76819 -159.226014 
L 204.170786 -159.296662 
L 198.573382 -159.317567 
L 192.975978 -159.421998 
L 187.378574 -159.534578 
L 181.78117 -159.61601 
L 176.183766 -159.661791 
L 170.586362 -159.695722 
L 164.988958 -159.713072 
L 159.391554 -159.460173 
L 153.79415 -158.40477 
L 148.196746 -157.579463 
L 142.599342 -158.499509 
L 137.001938 -159.556883 
z
" id="mb46d1d89c1" style="stroke:#4c4c4c;stroke-width:1.5;"/>
    </defs>
    <g clip-path="url(#p42d318b22e)">
     <use style="fill:#df9c20;stroke:#4c4c4c;stroke-width:1.5;" x="0" xlink:href="#mb46d1d89c1" y="401.88375"/>
    </g>
   </g>
   <g id="PolyCollection_4">
    <defs>
     <path d="M 136.453184 -77.929774 
L 136.453184 -78.722726 
L 142.061674 -80.000696 
L 147.670164 -81.241716 
L 153.278654 -80.45064 
L 158.887144 -79.086253 
L 164.495634 -78.652783 
L 170.104124 -78.606804 
L 175.712614 -78.637736 
L 181.321104 -78.752014 
L 186.929594 -78.906884 
L 192.538084 -79.013908 
L 198.146574 -79.005515 
L 203.755064 -78.958792 
L 209.363554 -79.053824 
L 214.972044 -79.277567 
L 220.580534 -79.40372 
L 226.189024 -79.601355 
L 231.797514 -80.084736 
L 237.406004 -80.574848 
L 243.014494 -80.770613 
L 248.622983 -81.270623 
L 254.231473 -82.17584 
L 259.839963 -82.619491 
L 265.448453 -82.73153 
L 271.056943 -83.417052 
L 276.665433 -85.271319 
L 282.273923 -86.700251 
L 287.882413 -86.377395 
L 293.490903 -86.442841 
L 299.099393 -87.918174 
L 304.707883 -89.789261 
L 310.316373 -90.904023 
L 315.924863 -92.120914 
L 321.533353 -94.304432 
L 327.141843 -96.798421 
L 332.750333 -98.694314 
L 338.358823 -100.452622 
L 343.967313 -102.762534 
L 349.575803 -105.485571 
L 355.184293 -107.47056 
L 360.792783 -109.184585 
L 366.401273 -110.339701 
L 372.009763 -110.776086 
L 377.618253 -110.94225 
L 383.226743 -109.526311 
L 388.835233 -106.609048 
L 394.443723 -104.512828 
L 400.052213 -103.948131 
L 405.660703 -105.015998 
L 411.269193 -106.088047 
L 416.877682 -102.931127 
L 422.486172 -97.384924 
L 428.094662 -93.942495 
L 433.703152 -92.894852 
L 439.311642 -92.079163 
L 444.920132 -89.862338 
L 450.528622 -87.866246 
L 456.137112 -87.293877 
L 461.745602 -87.492846 
L 467.354092 -87.382882 
L 472.962582 -86.090448 
L 478.571072 -84.556021 
L 484.179562 -83.281014 
L 489.788052 -82.314422 
L 495.396542 -82.012126 
L 501.005032 -81.890456 
L 506.613522 -81.49091 
L 512.222012 -81.166418 
L 517.830502 -80.843878 
L 523.438992 -80.359741 
L 529.047482 -80.136068 
L 534.655972 -80.350207 
L 540.264462 -80.329285 
L 545.872952 -79.809631 
L 551.481442 -79.287331 
L 557.089932 -79.007495 
L 562.698422 -78.93596 
L 568.306912 -79.024538 
L 573.915402 -79.178603 
L 579.523892 -79.378552 
L 585.132381 -79.907665 
L 590.740871 -80.429577 
L 596.349361 -80.209651 
L 601.957851 -79.446216 
L 607.566341 -78.849006 
L 613.174831 -78.623891 
L 618.783321 -78.536699 
L 624.391811 -78.484961 
L 630.000301 -78.502669 
L 635.608791 -78.530967 
L 641.217281 -78.480648 
L 646.825771 -78.408155 
L 652.434261 -78.372061 
L 658.042751 -78.354995 
L 663.651241 -78.342756 
L 669.259731 -78.347819 
L 674.868221 -78.385759 
L 680.476711 -78.408632 
L 686.085201 -78.373625 
L 691.693691 -78.337469 
L 691.693691 -78.315031 
L 691.693691 -78.315031 
L 686.085201 -78.278875 
L 680.476711 -78.243868 
L 674.868221 -78.266741 
L 669.259731 -78.304681 
L 663.651241 -78.309744 
L 658.042751 -78.297505 
L 652.434261 -78.280439 
L 646.825771 -78.244345 
L 641.217281 -78.171852 
L 635.608791 -78.121533 
L 630.000301 -78.149831 
L 624.391811 -78.167539 
L 618.783321 -78.115801 
L 613.174831 -78.028609 
L 607.566341 -77.803494 
L 601.957851 -77.206284 
L 596.349361 -76.442849 
L 590.740871 -76.222923 
L 585.132381 -76.744835 
L 579.523892 -77.273948 
L 573.915402 -77.473897 
L 568.306912 -77.627962 
L 562.698422 -77.71654 
L 557.089932 -77.645005 
L 551.481442 -77.365169 
L 545.872952 -76.842869 
L 540.264462 -76.323215 
L 534.655972 -76.302293 
L 529.047482 -76.516432 
L 523.438992 -76.292759 
L 517.830502 -75.808622 
L 512.222012 -75.486082 
L 506.613522 -75.16159 
L 501.005032 -74.762044 
L 495.396542 -74.640374 
L 489.788052 -74.338078 
L 484.179562 -73.371486 
L 478.571072 -72.096479 
L 472.962582 -70.562052 
L 467.354092 -69.269618 
L 461.745602 -69.159654 
L 456.137112 -69.358623 
L 450.528622 -68.786254 
L 444.920132 -66.790162 
L 439.311642 -64.573337 
L 433.703152 -63.757648 
L 428.094662 -62.710005 
L 422.486172 -59.267576 
L 416.877682 -53.721373 
L 411.269193 -50.564453 
L 405.660703 -51.636502 
L 400.052213 -52.704369 
L 394.443723 -52.139672 
L 388.835233 -50.043452 
L 383.226743 -47.126189 
L 377.618253 -45.71025 
L 372.009763 -45.876414 
L 366.401273 -46.312799 
L 360.792783 -47.467915 
L 355.184293 -49.18194 
L 349.575803 -51.166929 
L 343.967313 -53.889966 
L 338.358823 -56.199878 
L 332.750333 -57.958186 
L 327.141843 -59.854079 
L 321.533353 -62.348068 
L 315.924863 -64.531586 
L 310.316373 -65.748477 
L 304.707883 -66.863239 
L 299.099393 -68.734326 
L 293.490903 -70.209659 
L 287.882413 -70.275105 
L 282.273923 -69.952249 
L 276.665433 -71.381181 
L 271.056943 -73.235448 
L 265.448453 -73.92097 
L 259.839963 -74.033009 
L 254.231473 -74.47666 
L 248.622983 -75.381877 
L 243.014494 -75.881887 
L 237.406004 -76.077652 
L 231.797514 -76.567764 
L 226.189024 -77.051145 
L 220.580534 -77.24878 
L 214.972044 -77.374933 
L 209.363554 -77.598676 
L 203.755064 -77.693708 
L 198.146574 -77.646985 
L 192.538084 -77.638592 
L 186.929594 -77.745616 
L 181.321104 -77.900486 
L 175.712614 -78.014764 
L 170.104124 -78.045696 
L 164.495634 -77.999717 
L 158.887144 -77.566247 
L 153.278654 -76.20186 
L 147.670164 -75.410784 
L 142.061674 -76.651804 
L 136.453184 -77.929774 
z
" id="me8d33ed0a8" style="stroke:#4c4c4c;stroke-width:1.5;"/>
    </defs>
    <g clip-path="url(#p42d318b22e)">
     <use style="fill:#df9c20;stroke:#4c4c4c;stroke-width:1.5;" x="0" xlink:href="#me8d33ed0a8" y="401.88375"/>
    </g>
   </g>
   <g id="matplotlib.axis_1">
    <g id="xtick_1">
     <g id="line2d_1">
      <defs>
       <path d="M 0 0 
L 0 3.5 
" id="m3e6fee630d" style="stroke:#000000;stroke-width:0.8;"/>
      </defs>
      <g>
       <use style="stroke:#000000;stroke-width:0.8;" x="148.359152" xlink:href="#m3e6fee630d" y="364.3275"/>
      </g>
     </g>
     <g id="text_1">
      <!-- 1.00 -->
      <defs>
       <path d="M 12.40625 8.296875 
L 28.515625 8.296875 
L 28.515625 63.921875 
L 10.984375 60.40625 
L 10.984375 69.390625 
L 28.421875 72.90625 
L 38.28125 72.90625 
L 38.28125 8.296875 
L 54.390625 8.296875 
L 54.390625 0 
L 12.40625 0 
z
" id="DejaVuSans-49"/>
       <path d="M 10.6875 12.40625 
L 21 12.40625 
L 21 0 
L 10.6875 0 
z
" id="DejaVuSans-46"/>
       <path d="M 31.78125 66.40625 
Q 24.171875 66.40625 20.328125 58.90625 
Q 16.5 51.421875 16.5 36.375 
Q 16.5 21.390625 20.328125 13.890625 
Q 24.171875 6.390625 31.78125 6.390625 
Q 39.453125 6.390625 43.28125 13.890625 
Q 47.125 21.390625 47.125 36.375 
Q 47.125 51.421875 43.28125 58.90625 
Q 39.453125 66.40625 31.78125 66.40625 
z
M 31.78125 74.21875 
Q 44.046875 74.21875 50.515625 64.515625 
Q 56.984375 54.828125 56.984375 36.375 
Q 56.984375 17.96875 50.515625 8.265625 
Q 44.046875 -1.421875 31.78125 -1.421875 
Q 19.53125 -1.421875 13.0625 8.265625 
Q 6.59375 17.96875 6.59375 36.375 
Q 6.59375 54.828125 13.0625 64.515625 
Q 19.53125 74.21875 31.78125 74.21875 
z
" id="DejaVuSans-48"/>
      </defs>
      <g transform="translate(137.226339 378.925937)scale(0.1 -0.1)">
       <use xlink:href="#DejaVuSans-49"/>
       <use x="63.623047" xlink:href="#DejaVuSans-46"/>
       <use x="95.410156" xlink:href="#DejaVuSans-48"/>
       <use x="159.033203" xlink:href="#DejaVuSans-48"/>
      </g>
     </g>
    </g>
    <g id="xtick_2">
     <g id="line2d_2">
      <g>
       <use style="stroke:#000000;stroke-width:0.8;" x="214.787723" xlink:href="#m3e6fee630d" y="364.3275"/>
      </g>
     </g>
     <g id="text_2">
      <!-- 1.25 -->
      <defs>
       <path d="M 19.1875 8.296875 
L 53.609375 8.296875 
L 53.609375 0 
L 7.328125 0 
L 7.328125 8.296875 
Q 12.9375 14.109375 22.625 23.890625 
Q 32.328125 33.6875 34.8125 36.53125 
Q 39.546875 41.84375 41.421875 45.53125 
Q 43.3125 49.21875 43.3125 52.78125 
Q 43.3125 58.59375 39.234375 62.25 
Q 35.15625 65.921875 28.609375 65.921875 
Q 23.96875 65.921875 18.8125 64.3125 
Q 13.671875 62.703125 7.8125 59.421875 
L 7.8125 69.390625 
Q 13.765625 71.78125 18.9375 73 
Q 24.125 74.21875 28.421875 74.21875 
Q 39.75 74.21875 46.484375 68.546875 
Q 53.21875 62.890625 53.21875 53.421875 
Q 53.21875 48.921875 51.53125 44.890625 
Q 49.859375 40.875 45.40625 35.40625 
Q 44.1875 33.984375 37.640625 27.21875 
Q 31.109375 20.453125 19.1875 8.296875 
z
" id="DejaVuSans-50"/>
       <path d="M 10.796875 72.90625 
L 49.515625 72.90625 
L 49.515625 64.59375 
L 19.828125 64.59375 
L 19.828125 46.734375 
Q 21.96875 47.46875 24.109375 47.828125 
Q 26.265625 48.1875 28.421875 48.1875 
Q 40.625 48.1875 47.75 41.5 
Q 54.890625 34.8125 54.890625 23.390625 
Q 54.890625 11.625 47.5625 5.09375 
Q 40.234375 -1.421875 26.90625 -1.421875 
Q 22.3125 -1.421875 17.546875 -0.640625 
Q 12.796875 0.140625 7.71875 1.703125 
L 7.71875 11.625 
Q 12.109375 9.234375 16.796875 8.0625 
Q 21.484375 6.890625 26.703125 6.890625 
Q 35.15625 6.890625 40.078125 11.328125 
Q 45.015625 15.765625 45.015625 23.390625 
Q 45.015625 31 40.078125 35.4375 
Q 35.15625 39.890625 26.703125 39.890625 
Q 22.75 39.890625 18.8125 39.015625 
Q 14.890625 38.140625 10.796875 36.28125 
z
" id="DejaVuSans-53"/>
      </defs>
      <g transform="translate(203.654911 378.925937)scale(0.1 -0.1)">
       <use xlink:href="#DejaVuSans-49"/>
       <use x="63.623047" xlink:href="#DejaVuSans-46"/>
       <use x="95.410156" xlink:href="#DejaVuSans-50"/>
       <use x="159.033203" xlink:href="#DejaVuSans-53"/>
      </g>
     </g>
    </g>
    <g id="xtick_3">
     <g id="line2d_3">
      <g>
       <use style="stroke:#000000;stroke-width:0.8;" x="281.216295" xlink:href="#m3e6fee630d" y="364.3275"/>
      </g>
     </g>
     <g id="text_3">
      <!-- 1.50 -->
      <g transform="translate(270.083482 378.925937)scale(0.1 -0.1)">
       <use xlink:href="#DejaVuSans-49"/>
       <use x="63.623047" xlink:href="#DejaVuSans-46"/>
       <use x="95.410156" xlink:href="#DejaVuSans-53"/>
       <use x="159.033203" xlink:href="#DejaVuSans-48"/>
      </g>
     </g>
    </g>
    <g id="xtick_4">
     <g id="line2d_4">
      <g>
       <use style="stroke:#000000;stroke-width:0.8;" x="347.644866" xlink:href="#m3e6fee630d" y="364.3275"/>
      </g>
     </g>
     <g id="text_4">
      <!-- 1.75 -->
      <defs>
       <path d="M 8.203125 72.90625 
L 55.078125 72.90625 
L 55.078125 68.703125 
L 28.609375 0 
L 18.3125 0 
L 43.21875 64.59375 
L 8.203125 64.59375 
z
" id="DejaVuSans-55"/>
      </defs>
      <g transform="translate(336.512054 378.925937)scale(0.1 -0.1)">
       <use xlink:href="#DejaVuSans-49"/>
       <use x="63.623047" xlink:href="#DejaVuSans-46"/>
       <use x="95.410156" xlink:href="#DejaVuSans-55"/>
       <use x="159.033203" xlink:href="#DejaVuSans-53"/>
      </g>
     </g>
    </g>
    <g id="xtick_5">
     <g id="line2d_5">
      <g>
       <use style="stroke:#000000;stroke-width:0.8;" x="414.073438" xlink:href="#m3e6fee630d" y="364.3275"/>
      </g>
     </g>
     <g id="text_5">
      <!-- 2.00 -->
      <g transform="translate(402.940625 378.925937)scale(0.1 -0.1)">
       <use xlink:href="#DejaVuSans-50"/>
       <use x="63.623047" xlink:href="#DejaVuSans-46"/>
       <use x="95.410156" xlink:href="#DejaVuSans-48"/>
       <use x="159.033203" xlink:href="#DejaVuSans-48"/>
      </g>
     </g>
    </g>
    <g id="xtick_6">
     <g id="line2d_6">
      <g>
       <use style="stroke:#000000;stroke-width:0.8;" x="480.502009" xlink:href="#m3e6fee630d" y="364.3275"/>
      </g>
     </g>
     <g id="text_6">
      <!-- 2.25 -->
      <g transform="translate(469.369196 378.925937)scale(0.1 -0.1)">
       <use xlink:href="#DejaVuSans-50"/>
       <use x="63.623047" xlink:href="#DejaVuSans-46"/>
       <use x="95.410156" xlink:href="#DejaVuSans-50"/>
       <use x="159.033203" xlink:href="#DejaVuSans-53"/>
      </g>
     </g>
    </g>
    <g id="xtick_7">
     <g id="line2d_7">
      <g>
       <use style="stroke:#000000;stroke-width:0.8;" x="546.93058" xlink:href="#m3e6fee630d" y="364.3275"/>
      </g>
     </g>
     <g id="text_7">
      <!-- 2.50 -->
      <g transform="translate(535.797768 378.925937)scale(0.1 -0.1)">
       <use xlink:href="#DejaVuSans-50"/>
       <use x="63.623047" xlink:href="#DejaVuSans-46"/>
       <use x="95.410156" xlink:href="#DejaVuSans-53"/>
       <use x="159.033203" xlink:href="#DejaVuSans-48"/>
      </g>
     </g>
    </g>
    <g id="xtick_8">
     <g id="line2d_8">
      <g>
       <use style="stroke:#000000;stroke-width:0.8;" x="613.359152" xlink:href="#m3e6fee630d" y="364.3275"/>
      </g>
     </g>
     <g id="text_8">
      <!-- 2.75 -->
      <g transform="translate(602.226339 378.925937)scale(0.1 -0.1)">
       <use xlink:href="#DejaVuSans-50"/>
       <use x="63.623047" xlink:href="#DejaVuSans-46"/>
       <use x="95.410156" xlink:href="#DejaVuSans-55"/>
       <use x="159.033203" xlink:href="#DejaVuSans-53"/>
      </g>
     </g>
    </g>
    <g id="xtick_9">
     <g id="line2d_9">
      <g>
       <use style="stroke:#000000;stroke-width:0.8;" x="679.787723" xlink:href="#m3e6fee630d" y="364.3275"/>
      </g>
     </g>
     <g id="text_9">
      <!-- 3.00 -->
      <defs>
       <path d="M 40.578125 39.3125 
Q 47.65625 37.796875 51.625 33 
Q 55.609375 28.21875 55.609375 21.1875 
Q 55.609375 10.40625 48.1875 4.484375 
Q 40.765625 -1.421875 27.09375 -1.421875 
Q 22.515625 -1.421875 17.65625 -0.515625 
Q 12.796875 0.390625 7.625 2.203125 
L 7.625 11.71875 
Q 11.71875 9.328125 16.59375 8.109375 
Q 21.484375 6.890625 26.8125 6.890625 
Q 36.078125 6.890625 40.9375 10.546875 
Q 45.796875 14.203125 45.796875 21.1875 
Q 45.796875 27.640625 41.28125 31.265625 
Q 36.765625 34.90625 28.71875 34.90625 
L 20.21875 34.90625 
L 20.21875 43.015625 
L 29.109375 43.015625 
Q 36.375 43.015625 40.234375 45.921875 
Q 44.09375 48.828125 44.09375 54.296875 
Q 44.09375 59.90625 40.109375 62.90625 
Q 36.140625 65.921875 28.71875 65.921875 
Q 24.65625 65.921875 20.015625 65.03125 
Q 15.375 64.15625 9.8125 62.3125 
L 9.8125 71.09375 
Q 15.4375 72.65625 20.34375 73.4375 
Q 25.25 74.21875 29.59375 74.21875 
Q 40.828125 74.21875 47.359375 69.109375 
Q 53.90625 64.015625 53.90625 55.328125 
Q 53.90625 49.265625 50.4375 45.09375 
Q 46.96875 40.921875 40.578125 39.3125 
z
" id="DejaVuSans-51"/>
      </defs>
      <g transform="translate(668.654911 378.925937)scale(0.1 -0.1)">
       <use xlink:href="#DejaVuSans-51"/>
       <use x="63.623047" xlink:href="#DejaVuSans-46"/>
       <use x="95.410156" xlink:href="#DejaVuSans-48"/>
       <use x="159.033203" xlink:href="#DejaVuSans-48"/>
      </g>
     </g>
    </g>
    <g id="text_10">
     <!-- Índice socioeconómico -->
     <defs>
      <path d="M 9.8125 72.90625 
L 19.671875 72.90625 
L 19.671875 0 
L 9.8125 0 
z
M 17.484375 92.734375 
L 26.515625 92.734375 
L 15.375 79.84375 
L 7.90625 79.84375 
z
" id="DejaVuSans-205"/>
      <path d="M 54.890625 33.015625 
L 54.890625 0 
L 45.90625 0 
L 45.90625 32.71875 
Q 45.90625 40.484375 42.875 44.328125 
Q 39.84375 48.1875 33.796875 48.1875 
Q 26.515625 48.1875 22.3125 43.546875 
Q 18.109375 38.921875 18.109375 30.90625 
L 18.109375 0 
L 9.078125 0 
L 9.078125 54.6875 
L 18.109375 54.6875 
L 18.109375 46.1875 
Q 21.34375 51.125 25.703125 53.5625 
Q 30.078125 56 35.796875 56 
Q 45.21875 56 50.046875 50.171875 
Q 54.890625 44.34375 54.890625 33.015625 
z
" id="DejaVuSans-110"/>
      <path d="M 45.40625 46.390625 
L 45.40625 75.984375 
L 54.390625 75.984375 
L 54.390625 0 
L 45.40625 0 
L 45.40625 8.203125 
Q 42.578125 3.328125 38.25 0.953125 
Q 33.9375 -1.421875 27.875 -1.421875 
Q 17.96875 -1.421875 11.734375 6.484375 
Q 5.515625 14.40625 5.515625 27.296875 
Q 5.515625 40.1875 11.734375 48.09375 
Q 17.96875 56 27.875 56 
Q 33.9375 56 38.25 53.625 
Q 42.578125 51.265625 45.40625 46.390625 
z
M 14.796875 27.296875 
Q 14.796875 17.390625 18.875 11.75 
Q 22.953125 6.109375 30.078125 6.109375 
Q 37.203125 6.109375 41.296875 11.75 
Q 45.40625 17.390625 45.40625 27.296875 
Q 45.40625 37.203125 41.296875 42.84375 
Q 37.203125 48.484375 30.078125 48.484375 
Q 22.953125 48.484375 18.875 42.84375 
Q 14.796875 37.203125 14.796875 27.296875 
z
" id="DejaVuSans-100"/>
      <path d="M 9.421875 54.6875 
L 18.40625 54.6875 
L 18.40625 0 
L 9.421875 0 
z
M 9.421875 75.984375 
L 18.40625 75.984375 
L 18.40625 64.59375 
L 9.421875 64.59375 
z
" id="DejaVuSans-105"/>
      <path d="M 48.78125 52.59375 
L 48.78125 44.1875 
Q 44.96875 46.296875 41.140625 47.34375 
Q 37.3125 48.390625 33.40625 48.390625 
Q 24.65625 48.390625 19.8125 42.84375 
Q 14.984375 37.3125 14.984375 27.296875 
Q 14.984375 17.28125 19.8125 11.734375 
Q 24.65625 6.203125 33.40625 6.203125 
Q 37.3125 6.203125 41.140625 7.25 
Q 44.96875 8.296875 48.78125 10.40625 
L 48.78125 2.09375 
Q 45.015625 0.34375 40.984375 -0.53125 
Q 36.96875 -1.421875 32.421875 -1.421875 
Q 20.0625 -1.421875 12.78125 6.34375 
Q 5.515625 14.109375 5.515625 27.296875 
Q 5.515625 40.671875 12.859375 48.328125 
Q 20.21875 56 33.015625 56 
Q 37.15625 56 41.109375 55.140625 
Q 45.0625 54.296875 48.78125 52.59375 
z
" id="DejaVuSans-99"/>
      <path d="M 56.203125 29.59375 
L 56.203125 25.203125 
L 14.890625 25.203125 
Q 15.484375 15.921875 20.484375 11.0625 
Q 25.484375 6.203125 34.421875 6.203125 
Q 39.59375 6.203125 44.453125 7.46875 
Q 49.3125 8.734375 54.109375 11.28125 
L 54.109375 2.78125 
Q 49.265625 0.734375 44.1875 -0.34375 
Q 39.109375 -1.421875 33.890625 -1.421875 
Q 20.796875 -1.421875 13.15625 6.1875 
Q 5.515625 13.8125 5.515625 26.8125 
Q 5.515625 40.234375 12.765625 48.109375 
Q 20.015625 56 32.328125 56 
Q 43.359375 56 49.78125 48.890625 
Q 56.203125 41.796875 56.203125 29.59375 
z
M 47.21875 32.234375 
Q 47.125 39.59375 43.09375 43.984375 
Q 39.0625 48.390625 32.421875 48.390625 
Q 24.90625 48.390625 20.390625 44.140625 
Q 15.875 39.890625 15.1875 32.171875 
z
" id="DejaVuSans-101"/>
      <path id="DejaVuSans-32"/>
      <path d="M 44.28125 53.078125 
L 44.28125 44.578125 
Q 40.484375 46.53125 36.375 47.5 
Q 32.28125 48.484375 27.875 48.484375 
Q 21.1875 48.484375 17.84375 46.4375 
Q 14.5 44.390625 14.5 40.28125 
Q 14.5 37.15625 16.890625 35.375 
Q 19.28125 33.59375 26.515625 31.984375 
L 29.59375 31.296875 
Q 39.15625 29.25 43.1875 25.515625 
Q 47.21875 21.78125 47.21875 15.09375 
Q 47.21875 7.46875 41.1875 3.015625 
Q 35.15625 -1.421875 24.609375 -1.421875 
Q 20.21875 -1.421875 15.453125 -0.5625 
Q 10.6875 0.296875 5.421875 2 
L 5.421875 11.28125 
Q 10.40625 8.6875 15.234375 7.390625 
Q 20.0625 6.109375 24.8125 6.109375 
Q 31.15625 6.109375 34.5625 8.28125 
Q 37.984375 10.453125 37.984375 14.40625 
Q 37.984375 18.0625 35.515625 20.015625 
Q 33.0625 21.96875 24.703125 23.78125 
L 21.578125 24.515625 
Q 13.234375 26.265625 9.515625 29.90625 
Q 5.8125 33.546875 5.8125 39.890625 
Q 5.8125 47.609375 11.28125 51.796875 
Q 16.75 56 26.8125 56 
Q 31.78125 56 36.171875 55.265625 
Q 40.578125 54.546875 44.28125 53.078125 
z
" id="DejaVuSans-115"/>
      <path d="M 30.609375 48.390625 
Q 23.390625 48.390625 19.1875 42.75 
Q 14.984375 37.109375 14.984375 27.296875 
Q 14.984375 17.484375 19.15625 11.84375 
Q 23.34375 6.203125 30.609375 6.203125 
Q 37.796875 6.203125 41.984375 11.859375 
Q 46.1875 17.53125 46.1875 27.296875 
Q 46.1875 37.015625 41.984375 42.703125 
Q 37.796875 48.390625 30.609375 48.390625 
z
M 30.609375 56 
Q 42.328125 56 49.015625 48.375 
Q 55.71875 40.765625 55.71875 27.296875 
Q 55.71875 13.875 49.015625 6.21875 
Q 42.328125 -1.421875 30.609375 -1.421875 
Q 18.84375 -1.421875 12.171875 6.21875 
Q 5.515625 13.875 5.515625 27.296875 
Q 5.515625 40.765625 12.171875 48.375 
Q 18.84375 56 30.609375 56 
z
" id="DejaVuSans-111"/>
      <path d="M 30.609375 48.390625 
Q 23.390625 48.390625 19.1875 42.75 
Q 14.984375 37.109375 14.984375 27.296875 
Q 14.984375 17.484375 19.15625 11.84375 
Q 23.34375 6.203125 30.609375 6.203125 
Q 37.796875 6.203125 41.984375 11.859375 
Q 46.1875 17.53125 46.1875 27.296875 
Q 46.1875 37.015625 41.984375 42.703125 
Q 37.796875 48.390625 30.609375 48.390625 
z
M 30.609375 56 
Q 42.328125 56 49.015625 48.375 
Q 55.71875 40.765625 55.71875 27.296875 
Q 55.71875 13.875 49.015625 6.21875 
Q 42.328125 -1.421875 30.609375 -1.421875 
Q 18.84375 -1.421875 12.171875 6.21875 
Q 5.515625 13.875 5.515625 27.296875 
Q 5.515625 40.765625 12.171875 48.375 
Q 18.84375 56 30.609375 56 
z
M 37.40625 79.984375 
L 47.125 79.984375 
L 31.203125 61.625 
L 23.734375 61.625 
z
" id="DejaVuSans-243"/>
      <path d="M 52 44.1875 
Q 55.375 50.25 60.0625 53.125 
Q 64.75 56 71.09375 56 
Q 79.640625 56 84.28125 50.015625 
Q 88.921875 44.046875 88.921875 33.015625 
L 88.921875 0 
L 79.890625 0 
L 79.890625 32.71875 
Q 79.890625 40.578125 77.09375 44.375 
Q 74.3125 48.1875 68.609375 48.1875 
Q 61.625 48.1875 57.5625 43.546875 
Q 53.515625 38.921875 53.515625 30.90625 
L 53.515625 0 
L 44.484375 0 
L 44.484375 32.71875 
Q 44.484375 40.625 41.703125 44.40625 
Q 38.921875 48.1875 33.109375 48.1875 
Q 26.21875 48.1875 22.15625 43.53125 
Q 18.109375 38.875 18.109375 30.90625 
L 18.109375 0 
L 9.078125 0 
L 9.078125 54.6875 
L 18.109375 54.6875 
L 18.109375 46.1875 
Q 21.1875 51.21875 25.484375 53.609375 
Q 29.78125 56 35.6875 56 
Q 41.65625 56 45.828125 52.96875 
Q 50 49.953125 52 44.1875 
z
" id="DejaVuSans-109"/>
     </defs>
     <g transform="translate(357.408594 392.604062)scale(0.1 -0.1)">
      <use xlink:href="#DejaVuSans-205"/>
      <use x="29.492188" xlink:href="#DejaVuSans-110"/>
      <use x="92.871094" xlink:href="#DejaVuSans-100"/>
      <use x="156.347656" xlink:href="#DejaVuSans-105"/>
      <use x="184.130859" xlink:href="#DejaVuSans-99"/>
      <use x="239.111328" xlink:href="#DejaVuSans-101"/>
      <use x="300.634766" xlink:href="#DejaVuSans-32"/>
      <use x="332.421875" xlink:href="#DejaVuSans-115"/>
      <use x="384.521484" xlink:href="#DejaVuSans-111"/>
      <use x="445.703125" xlink:href="#DejaVuSans-99"/>
      <use x="500.683594" xlink:href="#DejaVuSans-105"/>
      <use x="528.466797" xlink:href="#DejaVuSans-111"/>
      <use x="589.648438" xlink:href="#DejaVuSans-101"/>
      <use x="651.171875" xlink:href="#DejaVuSans-99"/>
      <use x="706.152344" xlink:href="#DejaVuSans-111"/>
      <use x="767.333984" xlink:href="#DejaVuSans-110"/>
      <use x="830.712891" xlink:href="#DejaVuSans-243"/>
      <use x="891.894531" xlink:href="#DejaVuSans-109"/>
      <use x="989.306641" xlink:href="#DejaVuSans-105"/>
      <use x="1017.089844" xlink:href="#DejaVuSans-99"/>
      <use x="1072.070312" xlink:href="#DejaVuSans-111"/>
     </g>
    </g>
   </g>
   <g id="matplotlib.axis_2">
    <g id="ytick_1">
     <g id="line2d_10">
      <defs>
       <path d="M 0 0 
L -3.5 0 
" id="m2702c96fa3" style="stroke:#000000;stroke-width:0.8;"/>
      </defs>
      <g>
       <use style="stroke:#000000;stroke-width:0.8;" x="135.073438" xlink:href="#m2702c96fa3" y="78.9375"/>
      </g>
     </g>
     <g id="text_11">
      <!-- Avanzado -->
      <defs>
       <path d="M 34.1875 63.1875 
L 20.796875 26.90625 
L 47.609375 26.90625 
z
M 28.609375 72.90625 
L 39.796875 72.90625 
L 67.578125 0 
L 57.328125 0 
L 50.6875 18.703125 
L 17.828125 18.703125 
L 11.1875 0 
L 0.78125 0 
z
" id="DejaVuSans-65"/>
       <path d="M 2.984375 54.6875 
L 12.5 54.6875 
L 29.59375 8.796875 
L 46.6875 54.6875 
L 56.203125 54.6875 
L 35.6875 0 
L 23.484375 0 
z
" id="DejaVuSans-118"/>
       <path d="M 34.28125 27.484375 
Q 23.390625 27.484375 19.1875 25 
Q 14.984375 22.515625 14.984375 16.5 
Q 14.984375 11.71875 18.140625 8.90625 
Q 21.296875 6.109375 26.703125 6.109375 
Q 34.1875 6.109375 38.703125 11.40625 
Q 43.21875 16.703125 43.21875 25.484375 
L 43.21875 27.484375 
z
M 52.203125 31.203125 
L 52.203125 0 
L 43.21875 0 
L 43.21875 8.296875 
Q 40.140625 3.328125 35.546875 0.953125 
Q 30.953125 -1.421875 24.3125 -1.421875 
Q 15.921875 -1.421875 10.953125 3.296875 
Q 6 8.015625 6 15.921875 
Q 6 25.140625 12.171875 29.828125 
Q 18.359375 34.515625 30.609375 34.515625 
L 43.21875 34.515625 
L 43.21875 35.40625 
Q 43.21875 41.609375 39.140625 45 
Q 35.0625 48.390625 27.6875 48.390625 
Q 23 48.390625 18.546875 47.265625 
Q 14.109375 46.140625 10.015625 43.890625 
L 10.015625 52.203125 
Q 14.9375 54.109375 19.578125 55.046875 
Q 24.21875 56 28.609375 56 
Q 40.484375 56 46.34375 49.84375 
Q 52.203125 43.703125 52.203125 31.203125 
z
" id="DejaVuSans-97"/>
       <path d="M 5.515625 54.6875 
L 48.1875 54.6875 
L 48.1875 46.484375 
L 14.40625 7.171875 
L 48.1875 7.171875 
L 48.1875 0 
L 4.296875 0 
L 4.296875 8.203125 
L 38.09375 47.515625 
L 5.515625 47.515625 
z
" id="DejaVuSans-122"/>
      </defs>
      <g transform="translate(79.0125 82.736719)scale(0.1 -0.1)">
       <use xlink:href="#DejaVuSans-65"/>
       <use x="68.330078" xlink:href="#DejaVuSans-118"/>
       <use x="127.509766" xlink:href="#DejaVuSans-97"/>
       <use x="188.789062" xlink:href="#DejaVuSans-110"/>
       <use x="252.167969" xlink:href="#DejaVuSans-122"/>
       <use x="304.658203" xlink:href="#DejaVuSans-97"/>
       <use x="365.9375" xlink:href="#DejaVuSans-100"/>
       <use x="429.414062" xlink:href="#DejaVuSans-111"/>
      </g>
     </g>
    </g>
    <g id="ytick_2">
     <g id="line2d_11">
      <g>
       <use style="stroke:#000000;stroke-width:0.8;" x="135.073438" xlink:href="#m2702c96fa3" y="160.4775"/>
      </g>
     </g>
     <g id="text_12">
      <!-- Satisfactorio -->
      <defs>
       <path d="M 53.515625 70.515625 
L 53.515625 60.890625 
Q 47.90625 63.578125 42.921875 64.890625 
Q 37.9375 66.21875 33.296875 66.21875 
Q 25.25 66.21875 20.875 63.09375 
Q 16.5 59.96875 16.5 54.203125 
Q 16.5 49.359375 19.40625 46.890625 
Q 22.3125 44.4375 30.421875 42.921875 
L 36.375 41.703125 
Q 47.40625 39.59375 52.65625 34.296875 
Q 57.90625 29 57.90625 20.125 
Q 57.90625 9.515625 50.796875 4.046875 
Q 43.703125 -1.421875 29.984375 -1.421875 
Q 24.8125 -1.421875 18.96875 -0.25 
Q 13.140625 0.921875 6.890625 3.21875 
L 6.890625 13.375 
Q 12.890625 10.015625 18.65625 8.296875 
Q 24.421875 6.59375 29.984375 6.59375 
Q 38.421875 6.59375 43.015625 9.90625 
Q 47.609375 13.234375 47.609375 19.390625 
Q 47.609375 24.75 44.3125 27.78125 
Q 41.015625 30.8125 33.5 32.328125 
L 27.484375 33.5 
Q 16.453125 35.6875 11.515625 40.375 
Q 6.59375 45.0625 6.59375 53.421875 
Q 6.59375 63.09375 13.40625 68.65625 
Q 20.21875 74.21875 32.171875 74.21875 
Q 37.3125 74.21875 42.625 73.28125 
Q 47.953125 72.359375 53.515625 70.515625 
z
" id="DejaVuSans-83"/>
       <path d="M 18.3125 70.21875 
L 18.3125 54.6875 
L 36.8125 54.6875 
L 36.8125 47.703125 
L 18.3125 47.703125 
L 18.3125 18.015625 
Q 18.3125 11.328125 20.140625 9.421875 
Q 21.96875 7.515625 27.59375 7.515625 
L 36.8125 7.515625 
L 36.8125 0 
L 27.59375 0 
Q 17.1875 0 13.234375 3.875 
Q 9.28125 7.765625 9.28125 18.015625 
L 9.28125 47.703125 
L 2.6875 47.703125 
L 2.6875 54.6875 
L 9.28125 54.6875 
L 9.28125 70.21875 
z
" id="DejaVuSans-116"/>
       <path d="M 37.109375 75.984375 
L 37.109375 68.5 
L 28.515625 68.5 
Q 23.6875 68.5 21.796875 66.546875 
Q 19.921875 64.59375 19.921875 59.515625 
L 19.921875 54.6875 
L 34.71875 54.6875 
L 34.71875 47.703125 
L 19.921875 47.703125 
L 19.921875 0 
L 10.890625 0 
L 10.890625 47.703125 
L 2.296875 47.703125 
L 2.296875 54.6875 
L 10.890625 54.6875 
L 10.890625 58.5 
Q 10.890625 67.625 15.140625 71.796875 
Q 19.390625 75.984375 28.609375 75.984375 
z
" id="DejaVuSans-102"/>
       <path d="M 41.109375 46.296875 
Q 39.59375 47.171875 37.8125 47.578125 
Q 36.03125 48 33.890625 48 
Q 26.265625 48 22.1875 43.046875 
Q 18.109375 38.09375 18.109375 28.8125 
L 18.109375 0 
L 9.078125 0 
L 9.078125 54.6875 
L 18.109375 54.6875 
L 18.109375 46.1875 
Q 20.953125 51.171875 25.484375 53.578125 
Q 30.03125 56 36.53125 56 
Q 37.453125 56 38.578125 55.875 
Q 39.703125 55.765625 41.0625 55.515625 
z
" id="DejaVuSans-114"/>
      </defs>
      <g transform="translate(65.495313 164.276719)scale(0.1 -0.1)">
       <use xlink:href="#DejaVuSans-83"/>
       <use x="63.476562" xlink:href="#DejaVuSans-97"/>
       <use x="124.755859" xlink:href="#DejaVuSans-116"/>
       <use x="163.964844" xlink:href="#DejaVuSans-105"/>
       <use x="191.748047" xlink:href="#DejaVuSans-115"/>
       <use x="243.847656" xlink:href="#DejaVuSans-102"/>
       <use x="279.052734" xlink:href="#DejaVuSans-97"/>
       <use x="340.332031" xlink:href="#DejaVuSans-99"/>
       <use x="395.3125" xlink:href="#DejaVuSans-116"/>
       <use x="434.521484" xlink:href="#DejaVuSans-111"/>
       <use x="495.703125" xlink:href="#DejaVuSans-114"/>
       <use x="536.816406" xlink:href="#DejaVuSans-105"/>
       <use x="564.599609" xlink:href="#DejaVuSans-111"/>
      </g>
     </g>
    </g>
    <g id="ytick_3">
     <g id="line2d_12">
      <g>
       <use style="stroke:#000000;stroke-width:0.8;" x="135.073438" xlink:href="#m2702c96fa3" y="242.0175"/>
      </g>
     </g>
     <g id="text_13">
      <!-- Básico -->
      <defs>
       <path d="M 19.671875 34.8125 
L 19.671875 8.109375 
L 35.5 8.109375 
Q 43.453125 8.109375 47.28125 11.40625 
Q 51.125 14.703125 51.125 21.484375 
Q 51.125 28.328125 47.28125 31.5625 
Q 43.453125 34.8125 35.5 34.8125 
z
M 19.671875 64.796875 
L 19.671875 42.828125 
L 34.28125 42.828125 
Q 41.5 42.828125 45.03125 45.53125 
Q 48.578125 48.25 48.578125 53.8125 
Q 48.578125 59.328125 45.03125 62.0625 
Q 41.5 64.796875 34.28125 64.796875 
z
M 9.8125 72.90625 
L 35.015625 72.90625 
Q 46.296875 72.90625 52.390625 68.21875 
Q 58.5 63.53125 58.5 54.890625 
Q 58.5 48.1875 55.375 44.234375 
Q 52.25 40.28125 46.1875 39.3125 
Q 53.46875 37.75 57.5 32.78125 
Q 61.53125 27.828125 61.53125 20.40625 
Q 61.53125 10.640625 54.890625 5.3125 
Q 48.25 0 35.984375 0 
L 9.8125 0 
z
" id="DejaVuSans-66"/>
       <path d="M 34.28125 27.484375 
Q 23.390625 27.484375 19.1875 25 
Q 14.984375 22.515625 14.984375 16.5 
Q 14.984375 11.71875 18.140625 8.90625 
Q 21.296875 6.109375 26.703125 6.109375 
Q 34.1875 6.109375 38.703125 11.40625 
Q 43.21875 16.703125 43.21875 25.484375 
L 43.21875 27.484375 
z
M 52.203125 31.203125 
L 52.203125 0 
L 43.21875 0 
L 43.21875 8.296875 
Q 40.140625 3.328125 35.546875 0.953125 
Q 30.953125 -1.421875 24.3125 -1.421875 
Q 15.921875 -1.421875 10.953125 3.296875 
Q 6 8.015625 6 15.921875 
Q 6 25.140625 12.171875 29.828125 
Q 18.359375 34.515625 30.609375 34.515625 
L 43.21875 34.515625 
L 43.21875 35.40625 
Q 43.21875 41.609375 39.140625 45 
Q 35.0625 48.390625 27.6875 48.390625 
Q 23 48.390625 18.546875 47.265625 
Q 14.109375 46.140625 10.015625 43.890625 
L 10.015625 52.203125 
Q 14.9375 54.109375 19.578125 55.046875 
Q 24.21875 56 28.609375 56 
Q 40.484375 56 46.34375 49.84375 
Q 52.203125 43.703125 52.203125 31.203125 
z
M 35.796875 79.984375 
L 45.515625 79.984375 
L 29.59375 61.625 
L 22.125 61.625 
z
" id="DejaVuSans-225"/>
      </defs>
      <g transform="translate(95.479688 245.816719)scale(0.1 -0.1)">
       <use xlink:href="#DejaVuSans-66"/>
       <use x="68.603516" xlink:href="#DejaVuSans-225"/>
       <use x="129.882812" xlink:href="#DejaVuSans-115"/>
       <use x="181.982422" xlink:href="#DejaVuSans-105"/>
       <use x="209.765625" xlink:href="#DejaVuSans-99"/>
       <use x="264.746094" xlink:href="#DejaVuSans-111"/>
      </g>
     </g>
    </g>
    <g id="ytick_4">
     <g id="line2d_13">
      <g>
       <use style="stroke:#000000;stroke-width:0.8;" x="135.073438" xlink:href="#m2702c96fa3" y="323.5575"/>
      </g>
     </g>
     <g id="text_14">
      <!-- Por debajo del básico -->
      <defs>
       <path d="M 19.671875 64.796875 
L 19.671875 37.40625 
L 32.078125 37.40625 
Q 38.96875 37.40625 42.71875 40.96875 
Q 46.484375 44.53125 46.484375 51.125 
Q 46.484375 57.671875 42.71875 61.234375 
Q 38.96875 64.796875 32.078125 64.796875 
z
M 9.8125 72.90625 
L 32.078125 72.90625 
Q 44.34375 72.90625 50.609375 67.359375 
Q 56.890625 61.8125 56.890625 51.125 
Q 56.890625 40.328125 50.609375 34.8125 
Q 44.34375 29.296875 32.078125 29.296875 
L 19.671875 29.296875 
L 19.671875 0 
L 9.8125 0 
z
" id="DejaVuSans-80"/>
       <path d="M 48.6875 27.296875 
Q 48.6875 37.203125 44.609375 42.84375 
Q 40.53125 48.484375 33.40625 48.484375 
Q 26.265625 48.484375 22.1875 42.84375 
Q 18.109375 37.203125 18.109375 27.296875 
Q 18.109375 17.390625 22.1875 11.75 
Q 26.265625 6.109375 33.40625 6.109375 
Q 40.53125 6.109375 44.609375 11.75 
Q 48.6875 17.390625 48.6875 27.296875 
z
M 18.109375 46.390625 
Q 20.953125 51.265625 25.265625 53.625 
Q 29.59375 56 35.59375 56 
Q 45.5625 56 51.78125 48.09375 
Q 58.015625 40.1875 58.015625 27.296875 
Q 58.015625 14.40625 51.78125 6.484375 
Q 45.5625 -1.421875 35.59375 -1.421875 
Q 29.59375 -1.421875 25.265625 0.953125 
Q 20.953125 3.328125 18.109375 8.203125 
L 18.109375 0 
L 9.078125 0 
L 9.078125 75.984375 
L 18.109375 75.984375 
z
" id="DejaVuSans-98"/>
       <path d="M 9.421875 54.6875 
L 18.40625 54.6875 
L 18.40625 -0.984375 
Q 18.40625 -11.421875 14.421875 -16.109375 
Q 10.453125 -20.796875 1.609375 -20.796875 
L -1.8125 -20.796875 
L -1.8125 -13.1875 
L 0.59375 -13.1875 
Q 5.71875 -13.1875 7.5625 -10.8125 
Q 9.421875 -8.453125 9.421875 -0.984375 
z
M 9.421875 75.984375 
L 18.40625 75.984375 
L 18.40625 64.59375 
L 9.421875 64.59375 
z
" id="DejaVuSans-106"/>
       <path d="M 9.421875 75.984375 
L 18.40625 75.984375 
L 18.40625 0 
L 9.421875 0 
z
" id="DejaVuSans-108"/>
      </defs>
      <g transform="translate(21.048438 327.556719)scale(0.1 -0.1)">
       <use xlink:href="#DejaVuSans-80"/>
       <use x="60.255859" xlink:href="#DejaVuSans-111"/>
       <use x="121.4375" xlink:href="#DejaVuSans-114"/>
       <use x="162.550781" xlink:href="#DejaVuSans-32"/>
       <use x="194.337891" xlink:href="#DejaVuSans-100"/>
       <use x="257.814453" xlink:href="#DejaVuSans-101"/>
       <use x="319.337891" xlink:href="#DejaVuSans-98"/>
       <use x="382.814453" xlink:href="#DejaVuSans-97"/>
       <use x="444.09375" xlink:href="#DejaVuSans-106"/>
       <use x="471.876953" xlink:href="#DejaVuSans-111"/>
       <use x="533.058594" xlink:href="#DejaVuSans-32"/>
       <use x="564.845703" xlink:href="#DejaVuSans-100"/>
       <use x="628.322266" xlink:href="#DejaVuSans-101"/>
       <use x="689.845703" xlink:href="#DejaVuSans-108"/>
       <use x="717.628906" xlink:href="#DejaVuSans-32"/>
       <use x="749.416016" xlink:href="#DejaVuSans-98"/>
       <use x="812.892578" xlink:href="#DejaVuSans-225"/>
       <use x="874.171875" xlink:href="#DejaVuSans-115"/>
       <use x="926.271484" xlink:href="#DejaVuSans-105"/>
       <use x="954.054688" xlink:href="#DejaVuSans-99"/>
       <use x="1009.035156" xlink:href="#DejaVuSans-111"/>
      </g>
     </g>
    </g>
    <g id="text_15">
     <!-- Nivel de desempeño en sociales -->
     <defs>
      <path d="M 9.8125 72.90625 
L 23.09375 72.90625 
L 55.421875 11.921875 
L 55.421875 72.90625 
L 64.984375 72.90625 
L 64.984375 0 
L 51.703125 0 
L 19.390625 60.984375 
L 19.390625 0 
L 9.8125 0 
z
" id="DejaVuSans-78"/>
      <path d="M 18.109375 8.203125 
L 18.109375 -20.796875 
L 9.078125 -20.796875 
L 9.078125 54.6875 
L 18.109375 54.6875 
L 18.109375 46.390625 
Q 20.953125 51.265625 25.265625 53.625 
Q 29.59375 56 35.59375 56 
Q 45.5625 56 51.78125 48.09375 
Q 58.015625 40.1875 58.015625 27.296875 
Q 58.015625 14.40625 51.78125 6.484375 
Q 45.5625 -1.421875 35.59375 -1.421875 
Q 29.59375 -1.421875 25.265625 0.953125 
Q 20.953125 3.328125 18.109375 8.203125 
z
M 48.6875 27.296875 
Q 48.6875 37.203125 44.609375 42.84375 
Q 40.53125 48.484375 33.40625 48.484375 
Q 26.265625 48.484375 22.1875 42.84375 
Q 18.109375 37.203125 18.109375 27.296875 
Q 18.109375 17.390625 22.1875 11.75 
Q 26.265625 6.109375 33.40625 6.109375 
Q 40.53125 6.109375 44.609375 11.75 
Q 48.6875 17.390625 48.6875 27.296875 
z
" id="DejaVuSans-112"/>
      <path d="M 54.890625 33.015625 
L 54.890625 0 
L 45.90625 0 
L 45.90625 32.71875 
Q 45.90625 40.484375 42.875 44.328125 
Q 39.84375 48.1875 33.796875 48.1875 
Q 26.515625 48.1875 22.3125 43.546875 
Q 18.109375 38.921875 18.109375 30.90625 
L 18.109375 0 
L 9.078125 0 
L 9.078125 54.6875 
L 18.109375 54.6875 
L 18.109375 46.1875 
Q 21.34375 51.125 25.703125 53.5625 
Q 30.078125 56 35.796875 56 
Q 45.21875 56 50.046875 50.171875 
Q 54.890625 44.34375 54.890625 33.015625 
z
M 32.234375 66.890625 
L 29.4375 69.578125 
Q 28.375 70.5625 27.5625 71.015625 
Q 26.765625 71.484375 26.125 71.484375 
Q 24.265625 71.484375 23.390625 69.703125 
Q 22.515625 67.921875 22.40625 63.921875 
L 16.3125 63.921875 
Q 16.40625 70.515625 18.890625 74.09375 
Q 21.390625 77.6875 25.828125 77.6875 
Q 27.6875 77.6875 29.25 77 
Q 30.8125 76.3125 32.625 74.703125 
L 35.40625 72.015625 
Q 36.46875 71.046875 37.28125 70.578125 
Q 38.09375 70.125 38.71875 70.125 
Q 40.578125 70.125 41.453125 71.90625 
Q 42.328125 73.6875 42.4375 77.6875 
L 48.53125 77.6875 
Q 48.4375 71.09375 45.9375 67.5 
Q 43.453125 63.921875 39.015625 63.921875 
Q 37.15625 63.921875 35.59375 64.59375 
Q 34.03125 65.28125 32.234375 66.890625 
z
" id="DejaVuSans-241"/>
     </defs>
     <g transform="translate(14.96875 281.8725)rotate(-90)scale(0.1 -0.1)">
      <use xlink:href="#DejaVuSans-78"/>
      <use x="74.804688" xlink:href="#DejaVuSans-105"/>
      <use x="102.587891" xlink:href="#DejaVuSans-118"/>
      <use x="161.767578" xlink:href="#DejaVuSans-101"/>
      <use x="223.291016" xlink:href="#DejaVuSans-108"/>
      <use x="251.074219" xlink:href="#DejaVuSans-32"/>
      <use x="282.861328" xlink:href="#DejaVuSans-100"/>
      <use x="346.337891" xlink:href="#DejaVuSans-101"/>
      <use x="407.861328" xlink:href="#DejaVuSans-32"/>
      <use x="439.648438" xlink:href="#DejaVuSans-100"/>
      <use x="503.125" xlink:href="#DejaVuSans-101"/>
      <use x="564.648438" xlink:href="#DejaVuSans-115"/>
      <use x="616.748047" xlink:href="#DejaVuSans-101"/>
      <use x="678.271484" xlink:href="#DejaVuSans-109"/>
      <use x="775.683594" xlink:href="#DejaVuSans-112"/>
      <use x="839.160156" xlink:href="#DejaVuSans-101"/>
      <use x="900.683594" xlink:href="#DejaVuSans-241"/>
      <use x="964.0625" xlink:href="#DejaVuSans-111"/>
      <use x="1025.244141" xlink:href="#DejaVuSans-32"/>
      <use x="1057.03125" xlink:href="#DejaVuSans-101"/>
      <use x="1118.554688" xlink:href="#DejaVuSans-110"/>
      <use x="1181.933594" xlink:href="#DejaVuSans-32"/>
      <use x="1213.720703" xlink:href="#DejaVuSans-115"/>
      <use x="1265.820312" xlink:href="#DejaVuSans-111"/>
      <use x="1327.001953" xlink:href="#DejaVuSans-99"/>
      <use x="1381.982422" xlink:href="#DejaVuSans-105"/>
      <use x="1409.765625" xlink:href="#DejaVuSans-97"/>
      <use x="1471.044922" xlink:href="#DejaVuSans-108"/>
      <use x="1498.828125" xlink:href="#DejaVuSans-101"/>
      <use x="1560.351562" xlink:href="#DejaVuSans-115"/>
     </g>
    </g>
   </g>
   <g id="line2d_14">
    <path clip-path="url(#p42d318b22e)" d="M 208.748762 78.9375 
L 679.787723 78.9375 
" style="fill:none;stroke:#4c4c4c;stroke-linecap:square;stroke-width:1.5;"/>
   </g>
   <g id="line2d_15">
    <path clip-path="url(#p42d318b22e)" d="M 391.93058 78.9375 
L 514.613978 78.9375 
" style="fill:none;stroke:#4c4c4c;stroke-linecap:square;stroke-width:4.5;"/>
   </g>
   <g id="line2d_16">
    <path clip-path="url(#p42d318b22e)" d="M 227.089311 160.4775 
L 609.357431 160.4775 
" style="fill:none;stroke:#4c4c4c;stroke-linecap:square;stroke-width:1.5;"/>
   </g>
   <g id="line2d_17">
    <path clip-path="url(#p42d318b22e)" d="M 369.037118 160.4775 
L 465.172339 160.4775 
" style="fill:none;stroke:#4c4c4c;stroke-linecap:square;stroke-width:4.5;"/>
   </g>
   <g id="line2d_18">
    <path clip-path="url(#p42d318b22e)" d="M 230.117394 242.0175 
L 546.93058 242.0175 
" style="fill:none;stroke:#4c4c4c;stroke-linecap:square;stroke-width:1.5;"/>
   </g>
   <g id="line2d_19">
    <path clip-path="url(#p42d318b22e)" d="M 349.265075 242.0175 
L 428.835342 242.0175 
" style="fill:none;stroke:#4c4c4c;stroke-linecap:square;stroke-width:4.5;"/>
   </g>
   <g id="line2d_20">
    <path clip-path="url(#p42d318b22e)" d="M 229.228717 323.5575 
L 525.302673 323.5575 
" style="fill:none;stroke:#4c4c4c;stroke-linecap:square;stroke-width:1.5;"/>
   </g>
   <g id="line2d_21">
    <path clip-path="url(#p42d318b22e)" d="M 339.920614 323.5575 
L 414.073438 323.5575 
" style="fill:none;stroke:#4c4c4c;stroke-linecap:square;stroke-width:4.5;"/>
   </g>
   <g id="patch_3">
    <path d="M 135.073438 364.3275 
L 135.073438 38.1675 
" style="fill:none;stroke:#000000;stroke-linecap:square;stroke-linejoin:miter;stroke-width:0.8;"/>
   </g>
   <g id="patch_4">
    <path d="M 693.073437 364.3275 
L 693.073437 38.1675 
" style="fill:none;stroke:#000000;stroke-linecap:square;stroke-linejoin:miter;stroke-width:0.8;"/>
   </g>
   <g id="patch_5">
    <path d="M 135.073438 364.3275 
L 693.073438 364.3275 
" style="fill:none;stroke:#000000;stroke-linecap:square;stroke-linejoin:miter;stroke-width:0.8;"/>
   </g>
   <g id="patch_6">
    <path d="M 135.073438 38.1675 
L 693.073438 38.1675 
" style="fill:none;stroke:#000000;stroke-linecap:square;stroke-linejoin:miter;stroke-width:0.8;"/>
   </g>
   <g id="PathCollection_1">
    <defs>
     <path d="M 0 1.5 
C 0.397805 1.5 0.77937 1.341951 1.06066 1.06066 
C 1.341951 0.77937 1.5 0.397805 1.5 0 
C 1.5 -0.397805 1.341951 -0.77937 1.06066 -1.06066 
C 0.77937 -1.341951 0.397805 -1.5 0 -1.5 
C -0.397805 -1.5 -0.77937 -1.341951 -1.06066 -1.06066 
C -1.341951 -0.77937 -1.5 -0.397805 -1.5 0 
C -1.5 0.397805 -1.341951 0.77937 -1.06066 1.06066 
C -0.77937 1.341951 -0.397805 1.5 0 1.5 
z
" id="m3191fa8174" style="stroke:#4c4c4c;"/>
    </defs>
    <g clip-path="url(#p42d318b22e)">
     <use style="fill:#ffffff;stroke:#4c4c4c;" x="447.287723" xlink:href="#m3191fa8174" y="78.9375"/>
    </g>
   </g>
   <g id="PathCollection_2">
    <g clip-path="url(#p42d318b22e)">
     <use style="fill:#ffffff;stroke:#4c4c4c;" x="414.073438" xlink:href="#m3191fa8174" y="160.4775"/>
    </g>
   </g>
   <g id="PathCollection_3">
    <g clip-path="url(#p42d318b22e)">
     <use style="fill:#ffffff;stroke:#4c4c4c;" x="388.359152" xlink:href="#m3191fa8174" y="242.0175"/>
    </g>
   </g>
   <g id="PathCollection_4">
    <g clip-path="url(#p42d318b22e)">
     <use style="fill:#ffffff;stroke:#4c4c4c;" x="376.707366" xlink:href="#m3191fa8174" y="323.5575"/>
    </g>
   </g>
   <g id="text_16">
    <!-- Distribución de: Índice socioeconómico según el desempeño en sociales -->
    <defs>
     <path d="M 19.671875 64.796875 
L 19.671875 8.109375 
L 31.59375 8.109375 
Q 46.6875 8.109375 53.6875 14.9375 
Q 60.6875 21.78125 60.6875 36.53125 
Q 60.6875 51.171875 53.6875 57.984375 
Q 46.6875 64.796875 31.59375 64.796875 
z
M 9.8125 72.90625 
L 30.078125 72.90625 
Q 51.265625 72.90625 61.171875 64.09375 
Q 71.09375 55.28125 71.09375 36.53125 
Q 71.09375 17.671875 61.125 8.828125 
Q 51.171875 0 30.078125 0 
L 9.8125 0 
z
" id="DejaVuSans-68"/>
     <path d="M 8.5 21.578125 
L 8.5 54.6875 
L 17.484375 54.6875 
L 17.484375 21.921875 
Q 17.484375 14.15625 20.5 10.265625 
Q 23.53125 6.390625 29.59375 6.390625 
Q 36.859375 6.390625 41.078125 11.03125 
Q 45.3125 15.671875 45.3125 23.6875 
L 45.3125 54.6875 
L 54.296875 54.6875 
L 54.296875 0 
L 45.3125 0 
L 45.3125 8.40625 
Q 42.046875 3.421875 37.71875 1 
Q 33.40625 -1.421875 27.6875 -1.421875 
Q 18.265625 -1.421875 13.375 4.4375 
Q 8.5 10.296875 8.5 21.578125 
z
M 31.109375 56 
z
" id="DejaVuSans-117"/>
     <path d="M 11.71875 12.40625 
L 22.015625 12.40625 
L 22.015625 0 
L 11.71875 0 
z
M 11.71875 51.703125 
L 22.015625 51.703125 
L 22.015625 39.3125 
L 11.71875 39.3125 
z
" id="DejaVuSans-58"/>
     <path d="M 45.40625 27.984375 
Q 45.40625 37.75 41.375 43.109375 
Q 37.359375 48.484375 30.078125 48.484375 
Q 22.859375 48.484375 18.828125 43.109375 
Q 14.796875 37.75 14.796875 27.984375 
Q 14.796875 18.265625 18.828125 12.890625 
Q 22.859375 7.515625 30.078125 7.515625 
Q 37.359375 7.515625 41.375 12.890625 
Q 45.40625 18.265625 45.40625 27.984375 
z
M 54.390625 6.78125 
Q 54.390625 -7.171875 48.1875 -13.984375 
Q 42 -20.796875 29.203125 -20.796875 
Q 24.46875 -20.796875 20.265625 -20.09375 
Q 16.0625 -19.390625 12.109375 -17.921875 
L 12.109375 -9.1875 
Q 16.0625 -11.328125 19.921875 -12.34375 
Q 23.78125 -13.375 27.78125 -13.375 
Q 36.625 -13.375 41.015625 -8.765625 
Q 45.40625 -4.15625 45.40625 5.171875 
L 45.40625 9.625 
Q 42.625 4.78125 38.28125 2.390625 
Q 33.9375 0 27.875 0 
Q 17.828125 0 11.671875 7.65625 
Q 5.515625 15.328125 5.515625 27.984375 
Q 5.515625 40.671875 11.671875 48.328125 
Q 17.828125 56 27.875 56 
Q 33.9375 56 38.28125 53.609375 
Q 42.625 51.21875 45.40625 46.390625 
L 45.40625 54.6875 
L 54.390625 54.6875 
z
" id="DejaVuSans-103"/>
     <path d="M 8.5 21.578125 
L 8.5 54.6875 
L 17.484375 54.6875 
L 17.484375 21.921875 
Q 17.484375 14.15625 20.5 10.265625 
Q 23.53125 6.390625 29.59375 6.390625 
Q 36.859375 6.390625 41.078125 11.03125 
Q 45.3125 15.671875 45.3125 23.6875 
L 45.3125 54.6875 
L 54.296875 54.6875 
L 54.296875 0 
L 45.3125 0 
L 45.3125 8.40625 
Q 42.046875 3.421875 37.71875 1 
Q 33.40625 -1.421875 27.6875 -1.421875 
Q 18.265625 -1.421875 13.375 4.4375 
Q 8.5 10.296875 8.5 21.578125 
z
M 31.109375 56 
z
M 37.796875 79.984375 
L 47.515625 79.984375 
L 31.59375 61.625 
L 24.125 61.625 
z
" id="DejaVuSans-250"/>
    </defs>
    <g transform="translate(197.109688 18.328125)scale(0.12 -0.12)">
     <use xlink:href="#DejaVuSans-68"/>
     <use x="77.001953" xlink:href="#DejaVuSans-105"/>
     <use x="104.785156" xlink:href="#DejaVuSans-115"/>
     <use x="156.884766" xlink:href="#DejaVuSans-116"/>
     <use x="196.09375" xlink:href="#DejaVuSans-114"/>
     <use x="237.207031" xlink:href="#DejaVuSans-105"/>
     <use x="264.990234" xlink:href="#DejaVuSans-98"/>
     <use x="328.466797" xlink:href="#DejaVuSans-117"/>
     <use x="391.845703" xlink:href="#DejaVuSans-99"/>
     <use x="446.826172" xlink:href="#DejaVuSans-105"/>
     <use x="474.609375" xlink:href="#DejaVuSans-243"/>
     <use x="535.791016" xlink:href="#DejaVuSans-110"/>
     <use x="599.169922" xlink:href="#DejaVuSans-32"/>
     <use x="630.957031" xlink:href="#DejaVuSans-100"/>
     <use x="694.433594" xlink:href="#DejaVuSans-101"/>
     <use x="755.957031" xlink:href="#DejaVuSans-58"/>
     <use x="789.648438" xlink:href="#DejaVuSans-32"/>
     <use x="821.435547" xlink:href="#DejaVuSans-205"/>
     <use x="850.927734" xlink:href="#DejaVuSans-110"/>
     <use x="914.306641" xlink:href="#DejaVuSans-100"/>
     <use x="977.783203" xlink:href="#DejaVuSans-105"/>
     <use x="1005.566406" xlink:href="#DejaVuSans-99"/>
     <use x="1060.546875" xlink:href="#DejaVuSans-101"/>
     <use x="1122.070312" xlink:href="#DejaVuSans-32"/>
     <use x="1153.857422" xlink:href="#DejaVuSans-115"/>
     <use x="1205.957031" xlink:href="#DejaVuSans-111"/>
     <use x="1267.138672" xlink:href="#DejaVuSans-99"/>
     <use x="1322.119141" xlink:href="#DejaVuSans-105"/>
     <use x="1349.902344" xlink:href="#DejaVuSans-111"/>
     <use x="1411.083984" xlink:href="#DejaVuSans-101"/>
     <use x="1472.607422" xlink:href="#DejaVuSans-99"/>
     <use x="1527.587891" xlink:href="#DejaVuSans-111"/>
     <use x="1588.769531" xlink:href="#DejaVuSans-110"/>
     <use x="1652.148438" xlink:href="#DejaVuSans-243"/>
     <use x="1713.330078" xlink:href="#DejaVuSans-109"/>
     <use x="1810.742188" xlink:href="#DejaVuSans-105"/>
     <use x="1838.525391" xlink:href="#DejaVuSans-99"/>
     <use x="1893.505859" xlink:href="#DejaVuSans-111"/>
     <use x="1954.6875" xlink:href="#DejaVuSans-32"/>
     <use x="1986.474609" xlink:href="#DejaVuSans-115"/>
     <use x="2038.574219" xlink:href="#DejaVuSans-101"/>
     <use x="2100.097656" xlink:href="#DejaVuSans-103"/>
     <use x="2163.574219" xlink:href="#DejaVuSans-250"/>
     <use x="2226.953125" xlink:href="#DejaVuSans-110"/>
     <use x="2290.332031" xlink:href="#DejaVuSans-32"/>
     <use x="2322.119141" xlink:href="#DejaVuSans-101"/>
     <use x="2383.642578" xlink:href="#DejaVuSans-108"/>
     <use x="2411.425781" xlink:href="#DejaVuSans-32"/>
     <use x="2443.212891" xlink:href="#DejaVuSans-100"/>
     <use x="2506.689453" xlink:href="#DejaVuSans-101"/>
     <use x="2568.212891" xlink:href="#DejaVuSans-115"/>
     <use x="2620.3125" xlink:href="#DejaVuSans-101"/>
     <use x="2681.835938" xlink:href="#DejaVuSans-109"/>
     <use x="2779.248047" xlink:href="#DejaVuSans-112"/>
     <use x="2842.724609" xlink:href="#DejaVuSans-101"/>
     <use x="2904.248047" xlink:href="#DejaVuSans-241"/>
     <use x="2967.626953" xlink:href="#DejaVuSans-111"/>
     <use x="3028.808594" xlink:href="#DejaVuSans-32"/>
     <use x="3060.595703" xlink:href="#DejaVuSans-101"/>
     <use x="3122.119141" xlink:href="#DejaVuSans-110"/>
     <use x="3185.498047" xlink:href="#DejaVuSans-32"/>
     <use x="3217.285156" xlink:href="#DejaVuSans-115"/>
     <use x="3269.384766" xlink:href="#DejaVuSans-111"/>
     <use x="3330.566406" xlink:href="#DejaVuSans-99"/>
     <use x="3385.546875" xlink:href="#DejaVuSans-105"/>
     <use x="3413.330078" xlink:href="#DejaVuSans-97"/>
     <use x="3474.609375" xlink:href="#DejaVuSans-108"/>
     <use x="3502.392578" xlink:href="#DejaVuSans-101"/>
     <use x="3563.916016" xlink:href="#DejaVuSans-115"/>
    </g>
    <!--  Nivel: Primaria -->
    <g transform="translate(368.090937 31.7655)scale(0.12 -0.12)">
     <use xlink:href="#DejaVuSans-32"/>
     <use x="31.787109" xlink:href="#DejaVuSans-78"/>
     <use x="106.591797" xlink:href="#DejaVuSans-105"/>
     <use x="134.375" xlink:href="#DejaVuSans-118"/>
     <use x="193.554688" xlink:href="#DejaVuSans-101"/>
     <use x="255.078125" xlink:href="#DejaVuSans-108"/>
     <use x="282.861328" xlink:href="#DejaVuSans-58"/>
     <use x="316.552734" xlink:href="#DejaVuSans-32"/>
     <use x="348.339844" xlink:href="#DejaVuSans-80"/>
     <use x="408.626953" xlink:href="#DejaVuSans-114"/>
     <use x="449.740234" xlink:href="#DejaVuSans-105"/>
     <use x="477.523438" xlink:href="#DejaVuSans-109"/>
     <use x="574.935547" xlink:href="#DejaVuSans-97"/>
     <use x="636.214844" xlink:href="#DejaVuSans-114"/>
     <use x="677.328125" xlink:href="#DejaVuSans-105"/>
     <use x="705.111328" xlink:href="#DejaVuSans-97"/>
    </g>
   </g>
  </g>
 </g>
 <defs>
  <clipPath id="p42d318b22e">
   <rect height="326.16" width="558" x="135.073438" y="38.1675"/>
  </clipPath>
 </defs>
</svg>
