<?xml version="1.0" encoding="utf-8" standalone="no"?>
<!DOCTYPE svg PUBLIC "-//W3C//DTD SVG 1.1//EN"
  "http://www.w3.org/Graphics/SVG/1.1/DTD/svg11.dtd">
<!-- Created with matplotlib (https://matplotlib.org/) -->
<svg height="400.04775pt" version="1.1" viewBox="0 0 703.773437 400.04775" width="703.773437pt" xmlns="http://www.w3.org/2000/svg" xmlns:xlink="http://www.w3.org/1999/xlink">
 <defs>
  <style type="text/css">
*{stroke-linecap:butt;stroke-linejoin:round;}
  </style>
 </defs>
 <g id="figure_1">
  <g id="patch_1">
   <path d="M 0 400.04775 
L 703.773437 400.04775 
L 703.773437 0 
L 0 0 
z
" style="fill:#ffffff;"/>
  </g>
  <g id="axes_1">
   <g id="patch_2">
    <path d="M 135.073438 362.4915 
L 693.073437 362.4915 
L 693.073437 36.3315 
L 135.073438 36.3315 
z
" style="fill:#ffffff;"/>
   </g>
   <g id="PolyCollection_1">
    <defs>
     <path d="M 182.764363 -321.934015 
L 182.764363 -323.958485 
L 187.437274 -328.602425 
L 192.110184 -339.030867 
L 196.783095 -347.458426 
L 201.456005 -344.642685 
L 206.128916 -339.020554 
L 210.801827 -343.584705 
L 215.474737 -351.628292 
L 220.147648 -354.317753 
L 224.820558 -354.988865 
L 229.493469 -352.427763 
L 234.16638 -349.768867 
L 238.83929 -353.012877 
L 243.512201 -354.051668 
L 248.185111 -348.61545 
L 252.858022 -339.551409 
L 257.530933 -331.547043 
L 262.203843 -331.537422 
L 266.876754 -337.965137 
L 271.549664 -344.559702 
L 276.222575 -347.016089 
L 280.895486 -344.001007 
L 285.568396 -337.766864 
L 290.241307 -333.651397 
L 294.914217 -333.77922 
L 299.587128 -336.307033 
L 304.260038 -340.672813 
L 308.932949 -344.664608 
L 313.60586 -343.198653 
L 318.27877 -339.058001 
L 322.951681 -336.063157 
L 327.624591 -330.822311 
L 332.297502 -326.144921 
L 336.970413 -324.993542 
L 341.643323 -325.948978 
L 346.316234 -327.105732 
L 350.989144 -327.790288 
L 355.662055 -328.791197 
L 360.334966 -328.426675 
L 365.007876 -326.52979 
L 369.680787 -325.411225 
L 374.353697 -324.497841 
L 379.026608 -323.614571 
L 383.699519 -323.387913 
L 388.372429 -323.492875 
L 393.04534 -323.656027 
L 397.71825 -323.820778 
L 402.391161 -323.755746 
L 407.064072 -323.477248 
L 411.736982 -323.222149 
L 416.409893 -323.153533 
L 421.082803 -323.165982 
L 425.755714 -323.094429 
L 430.428625 -323.055218 
L 435.101535 -323.164091 
L 439.774446 -323.261475 
L 444.447356 -323.203082 
L 449.120267 -323.090941 
L 453.793178 -323.011402 
L 458.466088 -322.974904 
L 463.138999 -322.994944 
L 467.811909 -323.155317 
L 472.48482 -323.446407 
L 477.157731 -323.517953 
L 481.830641 -323.293199 
L 486.503552 -323.11999 
L 491.176462 -323.086136 
L 495.849373 -323.120901 
L 500.522284 -323.107157 
L 505.195194 -323.028313 
L 509.868105 -322.982838 
L 514.541015 -323.042213 
L 519.213926 -323.246059 
L 523.886837 -323.389036 
L 528.559747 -323.253205 
L 533.232658 -323.0613 
L 537.905568 -322.97704 
L 542.578479 -322.952357 
L 547.251389 -322.946932 
L 551.9243 -322.946286 
L 556.597211 -322.946251 
L 561.270121 -322.94625 
L 565.943032 -322.946272 
L 570.615942 -322.946767 
L 575.288853 -322.951564 
L 579.961764 -322.970576 
L 584.634674 -322.995882 
L 589.307585 -322.991381 
L 593.980495 -322.96454 
L 598.653406 -322.949553 
L 603.326317 -322.946516 
L 607.999227 -322.94626 
L 612.672138 -322.946253 
L 617.345048 -322.946346 
L 622.017959 -322.947607 
L 626.69087 -322.954781 
L 631.36378 -322.97016 
L 636.036691 -322.976117 
L 640.709601 -322.962877 
L 645.382512 -322.950375 
L 645.382512 -322.942125 
L 645.382512 -322.942125 
L 640.709601 -322.929623 
L 636.036691 -322.916383 
L 631.36378 -322.92234 
L 626.69087 -322.937719 
L 622.017959 -322.944893 
L 617.345048 -322.946154 
L 612.672138 -322.946247 
L 607.999227 -322.94624 
L 603.326317 -322.945984 
L 598.653406 -322.942947 
L 593.980495 -322.92796 
L 589.307585 -322.901119 
L 584.634674 -322.896618 
L 579.961764 -322.921924 
L 575.288853 -322.940936 
L 570.615942 -322.945733 
L 565.943032 -322.946228 
L 561.270121 -322.94625 
L 556.597211 -322.946249 
L 551.9243 -322.946214 
L 547.251389 -322.945568 
L 542.578479 -322.940143 
L 537.905568 -322.91546 
L 533.232658 -322.8312 
L 528.559747 -322.639295 
L 523.886837 -322.503464 
L 519.213926 -322.646441 
L 514.541015 -322.850287 
L 509.868105 -322.909662 
L 505.195194 -322.864187 
L 500.522284 -322.785343 
L 495.849373 -322.771599 
L 491.176462 -322.806364 
L 486.503552 -322.77251 
L 481.830641 -322.599301 
L 477.157731 -322.374547 
L 472.48482 -322.446093 
L 467.811909 -322.737183 
L 463.138999 -322.897556 
L 458.466088 -322.917596 
L 453.793178 -322.881098 
L 449.120267 -322.801559 
L 444.447356 -322.689418 
L 439.774446 -322.631025 
L 435.101535 -322.728409 
L 430.428625 -322.837282 
L 425.755714 -322.798071 
L 421.082803 -322.726518 
L 416.409893 -322.738967 
L 411.736982 -322.670351 
L 407.064072 -322.415252 
L 402.391161 -322.136754 
L 397.71825 -322.071722 
L 393.04534 -322.236473 
L 388.372429 -322.399625 
L 383.699519 -322.504587 
L 379.026608 -322.277929 
L 374.353697 -321.394659 
L 369.680787 -320.481275 
L 365.007876 -319.36271 
L 360.334966 -317.465825 
L 355.662055 -317.101303 
L 350.989144 -318.102212 
L 346.316234 -318.786768 
L 341.643323 -319.943522 
L 336.970413 -320.898958 
L 332.297502 -319.747579 
L 327.624591 -315.070189 
L 322.951681 -309.829343 
L 318.27877 -306.834499 
L 313.60586 -302.693847 
L 308.932949 -301.227892 
L 304.260038 -305.219687 
L 299.587128 -309.585467 
L 294.914217 -312.11328 
L 290.241307 -312.241103 
L 285.568396 -308.125636 
L 280.895486 -301.891493 
L 276.222575 -298.876411 
L 271.549664 -301.332798 
L 266.876754 -307.927363 
L 262.203843 -314.355078 
L 257.530933 -314.345457 
L 252.858022 -306.341091 
L 248.185111 -297.27705 
L 243.512201 -291.840832 
L 238.83929 -292.879623 
L 234.16638 -296.123633 
L 229.493469 -293.464737 
L 224.820558 -290.903635 
L 220.147648 -291.574747 
L 215.474737 -294.264208 
L 210.801827 -302.307795 
L 206.128916 -306.871946 
L 201.456005 -301.249815 
L 196.783095 -298.434074 
L 192.110184 -306.861633 
L 187.437274 -317.290075 
L 182.764363 -321.934015 
z
" id="m7e1bc7bb5f" style="stroke:#4c4c4c;stroke-width:1.5;"/>
    </defs>
    <g clip-path="url(#p524d4c53d1)">
     <use style="fill:#2020df;stroke:#4c4c4c;stroke-width:1.5;" x="0" xlink:href="#m7e1bc7bb5f" y="400.04775"/>
    </g>
   </g>
   <g id="PolyCollection_2">
    <defs>
     <path d="M 183.998843 -240.889413 
L 183.998843 -241.923087 
L 188.646815 -244.801806 
L 193.294786 -251.172169 
L 197.942758 -254.86937 
L 202.59073 -251.830582 
L 207.238701 -251.491137 
L 211.886673 -260.310034 
L 216.534644 -266.980363 
L 221.182616 -269.225113 
L 225.830588 -271.577356 
L 230.478559 -268.286178 
L 235.126531 -265.702596 
L 239.774502 -270.642686 
L 244.422474 -270.598942 
L 249.070446 -265.445029 
L 253.718417 -255.855926 
L 258.366389 -248.245064 
L 263.01436 -250.795723 
L 267.662332 -258.080754 
L 272.310304 -264.446727 
L 276.958275 -267.921353 
L 281.606247 -264.948223 
L 286.254218 -257.201257 
L 290.90219 -253.413742 
L 295.550162 -254.753677 
L 300.198133 -257.977873 
L 304.846105 -264.184996 
L 309.494076 -269.501623 
L 314.142048 -265.389426 
L 318.79002 -259.146318 
L 323.437991 -256.225115 
L 328.085963 -249.274729 
L 332.733934 -244.508181 
L 337.381906 -244.628509 
L 342.029878 -246.954473 
L 346.677849 -248.53716 
L 351.325821 -247.869363 
L 355.973792 -247.792091 
L 360.621764 -247.255469 
L 365.269736 -246.443225 
L 369.917707 -246.68251 
L 374.565679 -244.699813 
L 379.21365 -242.517292 
L 383.861622 -242.18645 
L 388.509594 -242.387774 
L 393.157565 -242.665534 
L 397.805537 -243.18725 
L 402.453508 -243.185198 
L 407.10148 -242.595017 
L 411.749452 -242.00022 
L 416.397423 -241.868031 
L 421.045395 -241.96291 
L 425.693367 -241.738482 
L 430.341338 -241.604222 
L 434.98931 -241.955666 
L 439.637281 -242.288471 
L 444.285253 -242.098879 
L 448.933225 -241.812654 
L 453.581196 -241.632975 
L 458.229168 -241.523338 
L 462.877139 -241.483695 
L 467.525111 -241.752874 
L 472.173083 -242.511745 
L 476.821054 -242.831223 
L 481.469026 -242.369615 
L 486.116997 -242.090181 
L 490.764969 -241.912709 
L 495.412941 -241.931231 
L 500.060912 -241.891083 
L 504.708884 -241.624933 
L 509.356855 -241.468912 
L 514.004827 -241.53445 
L 518.652799 -242.021566 
L 523.30077 -242.5601 
L 527.948742 -242.270895 
L 532.596713 -241.790663 
L 537.244685 -241.549724 
L 541.892657 -241.434926 
L 546.540628 -241.408465 
L 551.1886 -241.406312 
L 555.836571 -241.406251 
L 560.484543 -241.40625 
L 565.132515 -241.406257 
L 569.780486 -241.406717 
L 574.428458 -241.417375 
L 579.076429 -241.500968 
L 583.724401 -241.694284 
L 588.372373 -241.719095 
L 593.020344 -241.527614 
L 597.668316 -241.423066 
L 602.316287 -241.407082 
L 606.964259 -241.406265 
L 611.612231 -241.40625 
L 616.260202 -241.406275 
L 620.908174 -241.407214 
L 625.556145 -241.419279 
L 630.204117 -241.469133 
L 634.852089 -241.514647 
L 639.50006 -241.472989 
L 644.148032 -241.420926 
L 644.148032 -241.391574 
L 644.148032 -241.391574 
L 639.50006 -241.339511 
L 634.852089 -241.297853 
L 630.204117 -241.343367 
L 625.556145 -241.393221 
L 620.908174 -241.405286 
L 616.260202 -241.406225 
L 611.612231 -241.40625 
L 606.964259 -241.406235 
L 602.316287 -241.405418 
L 597.668316 -241.389434 
L 593.020344 -241.284886 
L 588.372373 -241.093405 
L 583.724401 -241.118216 
L 579.076429 -241.311532 
L 574.428458 -241.395125 
L 569.780486 -241.405783 
L 565.132515 -241.406243 
L 560.484543 -241.40625 
L 555.836571 -241.406249 
L 551.1886 -241.406188 
L 546.540628 -241.404035 
L 541.892657 -241.377574 
L 537.244685 -241.262776 
L 532.596713 -241.021837 
L 527.948742 -240.541605 
L 523.30077 -240.2524 
L 518.652799 -240.790934 
L 514.004827 -241.27805 
L 509.356855 -241.343588 
L 504.708884 -241.187567 
L 500.060912 -240.921417 
L 495.412941 -240.881269 
L 490.764969 -240.899791 
L 486.116997 -240.722319 
L 481.469026 -240.442885 
L 476.821054 -239.981277 
L 472.173083 -240.300755 
L 467.525111 -241.059626 
L 462.877139 -241.328805 
L 458.229168 -241.289162 
L 453.581196 -241.179525 
L 448.933225 -240.999846 
L 444.285253 -240.713621 
L 439.637281 -240.524029 
L 434.98931 -240.856834 
L 430.341338 -241.208278 
L 425.693367 -241.074018 
L 421.045395 -240.84959 
L 416.397423 -240.944469 
L 411.749452 -240.81228 
L 407.10148 -240.217483 
L 402.453508 -239.627302 
L 397.805537 -239.62525 
L 393.157565 -240.146966 
L 388.509594 -240.424726 
L 383.861622 -240.62605 
L 379.21365 -240.295208 
L 374.565679 -238.112687 
L 369.917707 -236.12999 
L 365.269736 -236.369275 
L 360.621764 -235.557031 
L 355.973792 -235.020409 
L 351.325821 -234.943137 
L 346.677849 -234.27534 
L 342.029878 -235.858027 
L 337.381906 -238.183991 
L 332.733934 -238.304319 
L 328.085963 -233.537771 
L 323.437991 -226.587385 
L 318.79002 -223.666182 
L 314.142048 -217.423074 
L 309.494076 -213.310877 
L 304.846105 -218.627504 
L 300.198133 -224.834627 
L 295.550162 -228.058823 
L 290.90219 -229.398758 
L 286.254218 -225.611243 
L 281.606247 -217.864277 
L 276.958275 -214.891147 
L 272.310304 -218.365773 
L 267.662332 -224.731746 
L 263.01436 -232.016777 
L 258.366389 -234.567436 
L 253.718417 -226.956574 
L 249.070446 -217.367471 
L 244.422474 -212.213558 
L 239.774502 -212.169814 
L 235.126531 -217.109904 
L 230.478559 -214.526322 
L 225.830588 -211.235144 
L 221.182616 -213.587387 
L 216.534644 -215.832137 
L 211.886673 -222.502466 
L 207.238701 -231.321363 
L 202.59073 -230.981918 
L 197.942758 -227.94313 
L 193.294786 -231.640331 
L 188.646815 -238.010694 
L 183.998843 -240.889413 
z
" id="m74ce780d0a" style="stroke:#4c4c4c;stroke-width:1.5;"/>
    </defs>
    <g clip-path="url(#p524d4c53d1)">
     <use style="fill:#2020df;stroke:#4c4c4c;stroke-width:1.5;" x="0" xlink:href="#m74ce780d0a" y="400.04775"/>
    </g>
   </g>
   <g id="PolyCollection_3">
    <defs>
     <path d="M 181.474825 -159.542778 
L 181.474825 -160.189722 
L 186.173787 -161.399269 
L 190.872749 -164.054057 
L 195.571711 -166.713378 
L 200.270673 -167.324576 
L 204.969634 -167.767061 
L 209.668596 -171.642917 
L 214.367558 -177.349341 
L 219.06652 -181.405884 
L 223.765482 -183.834323 
L 228.464444 -184.107593 
L 233.163406 -183.099415 
L 237.862367 -184.165192 
L 242.561329 -185.313907 
L 247.260291 -182.658936 
L 251.959253 -176.348853 
L 256.658215 -170.038335 
L 261.357177 -168.889319 
L 266.056139 -173.047841 
L 270.755101 -178.852932 
L 275.454062 -183.275907 
L 280.153024 -183.52889 
L 284.851986 -179.347724 
L 289.550948 -175.407888 
L 294.24991 -175.214416 
L 298.948872 -178.291498 
L 303.647834 -184.100008 
L 308.346795 -189.275363 
L 313.045757 -187.908816 
L 317.744719 -181.462447 
L 322.443681 -175.571173 
L 327.142643 -170.084535 
L 331.841605 -165.679452 
L 336.540567 -164.789884 
L 341.239529 -166.559567 
L 345.93849 -168.196395 
L 350.637452 -168.189068 
L 355.336414 -167.569186 
L 360.035376 -167.216484 
L 364.734338 -167.29339 
L 369.4333 -167.150215 
L 374.132262 -165.161056 
L 378.831223 -162.504171 
L 383.530185 -161.299038 
L 388.229147 -161.329475 
L 392.928109 -161.837289 
L 397.627071 -162.393227 
L 402.326033 -162.399636 
L 407.024995 -161.776951 
L 411.723957 -161.054191 
L 416.422918 -160.663368 
L 421.12188 -160.512506 
L 425.820842 -160.334678 
L 430.519804 -160.326438 
L 435.218766 -160.682711 
L 439.917728 -161.02897 
L 444.61669 -160.995919 
L 449.315652 -160.694318 
L 454.014613 -160.36638 
L 458.713575 -160.154992 
L 463.412537 -160.189137 
L 468.111499 -160.636969 
L 472.810461 -161.29417 
L 477.509423 -161.540149 
L 482.208385 -161.328153 
L 486.907346 -161.069244 
L 491.606308 -160.930533 
L 496.30527 -160.91124 
L 501.004232 -160.716759 
L 505.703194 -160.323403 
L 510.402156 -160.114783 
L 515.101118 -160.363842 
L 519.80008 -160.998948 
L 524.499041 -161.36779 
L 529.198003 -161.064511 
L 533.896965 -160.533904 
L 538.595927 -160.144772 
L 543.294889 -159.94361 
L 547.993851 -159.878696 
L 552.692813 -159.867334 
L 557.391774 -159.866303 
L 562.090736 -159.866359 
L 566.789698 -159.868467 
L 571.48866 -159.890172 
L 576.187622 -160.001462 
L 580.886584 -160.266495 
L 585.585546 -160.48675 
L 590.284508 -160.370054 
L 594.983469 -160.080482 
L 599.682431 -159.91396 
L 604.381393 -159.871815 
L 609.080355 -159.866598 
L 613.779317 -159.866464 
L 618.478279 -159.868977 
L 623.177241 -159.885391 
L 627.876202 -159.936631 
L 632.575164 -160.001784 
L 637.274126 -160.002942 
L 641.973088 -159.938451 
L 646.67205 -159.886223 
L 646.67205 -159.846277 
L 646.67205 -159.846277 
L 641.973088 -159.794049 
L 637.274126 -159.729558 
L 632.575164 -159.730716 
L 627.876202 -159.795869 
L 623.177241 -159.847109 
L 618.478279 -159.863523 
L 613.779317 -159.866036 
L 609.080355 -159.865902 
L 604.381393 -159.860685 
L 599.682431 -159.81854 
L 594.983469 -159.652018 
L 590.284508 -159.362446 
L 585.585546 -159.24575 
L 580.886584 -159.466005 
L 576.187622 -159.731038 
L 571.48866 -159.842328 
L 566.789698 -159.864033 
L 562.090736 -159.866141 
L 557.391774 -159.866197 
L 552.692813 -159.865166 
L 547.993851 -159.853804 
L 543.294889 -159.78889 
L 538.595927 -159.587728 
L 533.896965 -159.198596 
L 529.198003 -158.667989 
L 524.499041 -158.36471 
L 519.80008 -158.733552 
L 515.101118 -159.368658 
L 510.402156 -159.617717 
L 505.703194 -159.409097 
L 501.004232 -159.015741 
L 496.30527 -158.82126 
L 491.606308 -158.801967 
L 486.907346 -158.663256 
L 482.208385 -158.404347 
L 477.509423 -158.192351 
L 472.810461 -158.43833 
L 468.111499 -159.095531 
L 463.412537 -159.543363 
L 458.713575 -159.577508 
L 454.014613 -159.36612 
L 449.315652 -159.038182 
L 444.61669 -158.736581 
L 439.917728 -158.70353 
L 435.218766 -159.049789 
L 430.519804 -159.406062 
L 425.820842 -159.397822 
L 421.12188 -159.219994 
L 416.422918 -159.069132 
L 411.723957 -158.678309 
L 407.024995 -157.955549 
L 402.326033 -157.332864 
L 397.627071 -157.339273 
L 392.928109 -157.895211 
L 388.229147 -158.403025 
L 383.530185 -158.433462 
L 378.831223 -157.228329 
L 374.132262 -154.571444 
L 369.4333 -152.582285 
L 364.734338 -152.43911 
L 360.035376 -152.516016 
L 355.336414 -152.163314 
L 350.637452 -151.543432 
L 345.93849 -151.536105 
L 341.239529 -153.172933 
L 336.540567 -154.942616 
L 331.841605 -154.053048 
L 327.142643 -149.647965 
L 322.443681 -144.161327 
L 317.744719 -138.270053 
L 313.045757 -131.823684 
L 308.346795 -130.457137 
L 303.647834 -135.632492 
L 298.948872 -141.441002 
L 294.24991 -144.518084 
L 289.550948 -144.324612 
L 284.851986 -140.384776 
L 280.153024 -136.20361 
L 275.454062 -136.456593 
L 270.755101 -140.879568 
L 266.056139 -146.684659 
L 261.357177 -150.843181 
L 256.658215 -149.694165 
L 251.959253 -143.383647 
L 247.260291 -137.073564 
L 242.561329 -134.418593 
L 237.862367 -135.567308 
L 233.163406 -136.633085 
L 228.464444 -135.624907 
L 223.765482 -135.898177 
L 219.06652 -138.326616 
L 214.367558 -142.383159 
L 209.668596 -148.089583 
L 204.969634 -151.965439 
L 200.270673 -152.407924 
L 195.571711 -153.019122 
L 190.872749 -155.678443 
L 186.173787 -158.333231 
L 181.474825 -159.542778 
z
" id="mcc2e681317" style="stroke:#4c4c4c;stroke-width:1.5;"/>
    </defs>
    <g clip-path="url(#p524d4c53d1)">
     <use style="fill:#2020df;stroke:#4c4c4c;stroke-width:1.5;" x="0" xlink:href="#mcc2e681317" y="400.04775"/>
    </g>
   </g>
   <g id="PolyCollection_4">
    <defs>
     <path d="M 181.367146 -77.967562 
L 181.367146 -78.684938 
L 186.068283 -80.008102 
L 190.76942 -82.90956 
L 195.470557 -85.838672 
L 200.171694 -86.427714 
L 204.872832 -86.304432 
L 209.573969 -89.253202 
L 214.275106 -94.306694 
L 218.976243 -98.198344 
L 223.67738 -100.505226 
L 228.378518 -100.70973 
L 233.079655 -99.863619 
L 237.780792 -100.927527 
L 242.481929 -101.614985 
L 247.183067 -98.430887 
L 251.884204 -92.387217 
L 256.585341 -86.996211 
L 261.286478 -86.353798 
L 265.987615 -90.622813 
L 270.688753 -96.609034 
L 275.38989 -101.135268 
L 280.091027 -101.425902 
L 284.792164 -97.603543 
L 289.493301 -94.445866 
L 294.194439 -95.199632 
L 298.895576 -99.114695 
L 303.596713 -105.591887 
L 308.29785 -110.94225 
L 312.998987 -108.739352 
L 317.700125 -100.687925 
L 322.401262 -93.736272 
L 327.102399 -88.345596 
L 331.803536 -84.348004 
L 336.504674 -83.582165 
L 341.205811 -85.351111 
L 345.906948 -87.131772 
L 350.608085 -87.308686 
L 355.309222 -86.742412 
L 360.01036 -86.417719 
L 364.711497 -86.495507 
L 369.412634 -86.203927 
L 374.113771 -83.96445 
L 378.814908 -81.068222 
L 383.516046 -79.727508 
L 388.217183 -79.761998 
L 392.91832 -80.305909 
L 397.619457 -80.795003 
L 402.320594 -80.734029 
L 407.021732 -80.162443 
L 411.722869 -79.508203 
L 416.424006 -79.117125 
L 421.125143 -78.944291 
L 425.826281 -78.778616 
L 430.527418 -78.808439 
L 435.228555 -79.224771 
L 439.929692 -79.680949 
L 444.630829 -79.761481 
L 449.331967 -79.443647 
L 454.033104 -78.983154 
L 458.734241 -78.661743 
L 463.435378 -78.643727 
L 468.136515 -79.061918 
L 472.837653 -79.715062 
L 477.53879 -80.024916 
L 482.239927 -79.921672 
L 486.941064 -79.706496 
L 491.642201 -79.503969 
L 496.343339 -79.383739 
L 501.044476 -79.138826 
L 505.745613 -78.755353 
L 510.44675 -78.567972 
L 515.147888 -78.819114 
L 519.849025 -79.440335 
L 524.550162 -79.842083 
L 529.251299 -79.643845 
L 533.952436 -79.164592 
L 538.653574 -78.715661 
L 543.354711 -78.44096 
L 548.055848 -78.345431 
L 552.756985 -78.327987 
L 557.458122 -78.32634 
L 562.15926 -78.32647 
L 566.860397 -78.330459 
L 571.561534 -78.369381 
L 576.262671 -78.560305 
L 580.963808 -78.998928 
L 585.664946 -79.350131 
L 590.366083 -79.151616 
L 595.06722 -78.678619 
L 599.768357 -78.405922 
L 604.469495 -78.335791 
L 609.170632 -78.326868 
L 613.871769 -78.326591 
L 618.572906 -78.330308 
L 623.274043 -78.353419 
L 627.975181 -78.422587 
L 632.676318 -78.50716 
L 637.377455 -78.506173 
L 642.078592 -78.421019 
L 646.779729 -78.352686 
L 646.779729 -78.299814 
L 646.779729 -78.299814 
L 642.078592 -78.231481 
L 637.377455 -78.146327 
L 632.676318 -78.14534 
L 627.975181 -78.229913 
L 623.274043 -78.299081 
L 618.572906 -78.322192 
L 613.871769 -78.325909 
L 609.170632 -78.325632 
L 604.469495 -78.316709 
L 599.768357 -78.246578 
L 595.06722 -77.973881 
L 590.366083 -77.500884 
L 585.664946 -77.302369 
L 580.963808 -77.653572 
L 576.262671 -78.092195 
L 571.561534 -78.283119 
L 566.860397 -78.322041 
L 562.15926 -78.32603 
L 557.458122 -78.32616 
L 552.756985 -78.324513 
L 548.055848 -78.307069 
L 543.354711 -78.21154 
L 538.653574 -77.936839 
L 533.952436 -77.487908 
L 529.251299 -77.008655 
L 524.550162 -76.810417 
L 519.849025 -77.212165 
L 515.147888 -77.833386 
L 510.44675 -78.084528 
L 505.745613 -77.897147 
L 501.044476 -77.513674 
L 496.343339 -77.268761 
L 491.642201 -77.148531 
L 486.941064 -76.946004 
L 482.239927 -76.730828 
L 477.53879 -76.627584 
L 472.837653 -76.937438 
L 468.136515 -77.590582 
L 463.435378 -78.008773 
L 458.734241 -77.990757 
L 454.033104 -77.669346 
L 449.331967 -77.208853 
L 444.630829 -76.891019 
L 439.929692 -76.971551 
L 435.228555 -77.427729 
L 430.527418 -77.844061 
L 425.826281 -77.873884 
L 421.125143 -77.708209 
L 416.424006 -77.535375 
L 411.722869 -77.144297 
L 407.021732 -76.490057 
L 402.320594 -75.918471 
L 397.619457 -75.857497 
L 392.91832 -76.346591 
L 388.217183 -76.890502 
L 383.516046 -76.924992 
L 378.814908 -75.584278 
L 374.113771 -72.68805 
L 369.412634 -70.448573 
L 364.711497 -70.156993 
L 360.01036 -70.234781 
L 355.309222 -69.910088 
L 350.608085 -69.343814 
L 345.906948 -69.520728 
L 341.205811 -71.301389 
L 336.504674 -73.070335 
L 331.803536 -72.304496 
L 327.102399 -68.306904 
L 322.401262 -62.916228 
L 317.700125 -55.964575 
L 312.998987 -47.913148 
L 308.29785 -45.71025 
L 303.596713 -51.060613 
L 298.895576 -57.537805 
L 294.194439 -61.452868 
L 289.493301 -62.206634 
L 284.792164 -59.048957 
L 280.091027 -55.226598 
L 275.38989 -55.517232 
L 270.688753 -60.043466 
L 265.987615 -66.029687 
L 261.286478 -70.298702 
L 256.585341 -69.656289 
L 251.884204 -64.265283 
L 247.183067 -58.221613 
L 242.481929 -55.037515 
L 237.780792 -55.724973 
L 233.079655 -56.788881 
L 228.378518 -55.94277 
L 223.67738 -56.147274 
L 218.976243 -58.454156 
L 214.275106 -62.345806 
L 209.573969 -67.399298 
L 204.872832 -70.348068 
L 200.171694 -70.224786 
L 195.470557 -70.813828 
L 190.76942 -73.74294 
L 186.068283 -76.644398 
L 181.367146 -77.967562 
z
" id="m3ef1b39558" style="stroke:#4c4c4c;stroke-width:1.5;"/>
    </defs>
    <g clip-path="url(#p524d4c53d1)">
     <use style="fill:#2020df;stroke:#4c4c4c;stroke-width:1.5;" x="0" xlink:href="#m3ef1b39558" y="400.04775"/>
    </g>
   </g>
   <g id="matplotlib.axis_1">
    <g id="xtick_1">
     <g id="line2d_1">
      <defs>
       <path d="M 0 0 
L 0 3.5 
" id="m5542efcdf7" style="stroke:#000000;stroke-width:0.8;"/>
      </defs>
      <g>
       <use style="stroke:#000000;stroke-width:0.8;" x="173.415274" xlink:href="#m5542efcdf7" y="362.4915"/>
      </g>
     </g>
     <g id="text_1">
      <!-- 0.0 -->
      <defs>
       <path d="M 31.78125 66.40625 
Q 24.171875 66.40625 20.328125 58.90625 
Q 16.5 51.421875 16.5 36.375 
Q 16.5 21.390625 20.328125 13.890625 
Q 24.171875 6.390625 31.78125 6.390625 
Q 39.453125 6.390625 43.28125 13.890625 
Q 47.125 21.390625 47.125 36.375 
Q 47.125 51.421875 43.28125 58.90625 
Q 39.453125 66.40625 31.78125 66.40625 
z
M 31.78125 74.21875 
Q 44.046875 74.21875 50.515625 64.515625 
Q 56.984375 54.828125 56.984375 36.375 
Q 56.984375 17.96875 50.515625 8.265625 
Q 44.046875 -1.421875 31.78125 -1.421875 
Q 19.53125 -1.421875 13.0625 8.265625 
Q 6.59375 17.96875 6.59375 36.375 
Q 6.59375 54.828125 13.0625 64.515625 
Q 19.53125 74.21875 31.78125 74.21875 
z
" id="DejaVuSans-48"/>
       <path d="M 10.6875 12.40625 
L 21 12.40625 
L 21 0 
L 10.6875 0 
z
" id="DejaVuSans-46"/>
      </defs>
      <g transform="translate(165.463711 377.089938)scale(0.1 -0.1)">
       <use xlink:href="#DejaVuSans-48"/>
       <use x="63.623047" xlink:href="#DejaVuSans-46"/>
       <use x="95.410156" xlink:href="#DejaVuSans-48"/>
      </g>
     </g>
    </g>
    <g id="xtick_2">
     <g id="line2d_2">
      <g>
       <use style="stroke:#000000;stroke-width:0.8;" x="289.589256" xlink:href="#m5542efcdf7" y="362.4915"/>
      </g>
     </g>
     <g id="text_2">
      <!-- 0.1 -->
      <defs>
       <path d="M 12.40625 8.296875 
L 28.515625 8.296875 
L 28.515625 63.921875 
L 10.984375 60.40625 
L 10.984375 69.390625 
L 28.421875 72.90625 
L 38.28125 72.90625 
L 38.28125 8.296875 
L 54.390625 8.296875 
L 54.390625 0 
L 12.40625 0 
z
" id="DejaVuSans-49"/>
      </defs>
      <g transform="translate(281.637694 377.089938)scale(0.1 -0.1)">
       <use xlink:href="#DejaVuSans-48"/>
       <use x="63.623047" xlink:href="#DejaVuSans-46"/>
       <use x="95.410156" xlink:href="#DejaVuSans-49"/>
      </g>
     </g>
    </g>
    <g id="xtick_3">
     <g id="line2d_3">
      <g>
       <use style="stroke:#000000;stroke-width:0.8;" x="405.763238" xlink:href="#m5542efcdf7" y="362.4915"/>
      </g>
     </g>
     <g id="text_3">
      <!-- 0.2 -->
      <defs>
       <path d="M 19.1875 8.296875 
L 53.609375 8.296875 
L 53.609375 0 
L 7.328125 0 
L 7.328125 8.296875 
Q 12.9375 14.109375 22.625 23.890625 
Q 32.328125 33.6875 34.8125 36.53125 
Q 39.546875 41.84375 41.421875 45.53125 
Q 43.3125 49.21875 43.3125 52.78125 
Q 43.3125 58.59375 39.234375 62.25 
Q 35.15625 65.921875 28.609375 65.921875 
Q 23.96875 65.921875 18.8125 64.3125 
Q 13.671875 62.703125 7.8125 59.421875 
L 7.8125 69.390625 
Q 13.765625 71.78125 18.9375 73 
Q 24.125 74.21875 28.421875 74.21875 
Q 39.75 74.21875 46.484375 68.546875 
Q 53.21875 62.890625 53.21875 53.421875 
Q 53.21875 48.921875 51.53125 44.890625 
Q 49.859375 40.875 45.40625 35.40625 
Q 44.1875 33.984375 37.640625 27.21875 
Q 31.109375 20.453125 19.1875 8.296875 
z
" id="DejaVuSans-50"/>
      </defs>
      <g transform="translate(397.811676 377.089938)scale(0.1 -0.1)">
       <use xlink:href="#DejaVuSans-48"/>
       <use x="63.623047" xlink:href="#DejaVuSans-46"/>
       <use x="95.410156" xlink:href="#DejaVuSans-50"/>
      </g>
     </g>
    </g>
    <g id="xtick_4">
     <g id="line2d_4">
      <g>
       <use style="stroke:#000000;stroke-width:0.8;" x="521.937221" xlink:href="#m5542efcdf7" y="362.4915"/>
      </g>
     </g>
     <g id="text_4">
      <!-- 0.3 -->
      <defs>
       <path d="M 40.578125 39.3125 
Q 47.65625 37.796875 51.625 33 
Q 55.609375 28.21875 55.609375 21.1875 
Q 55.609375 10.40625 48.1875 4.484375 
Q 40.765625 -1.421875 27.09375 -1.421875 
Q 22.515625 -1.421875 17.65625 -0.515625 
Q 12.796875 0.390625 7.625 2.203125 
L 7.625 11.71875 
Q 11.71875 9.328125 16.59375 8.109375 
Q 21.484375 6.890625 26.8125 6.890625 
Q 36.078125 6.890625 40.9375 10.546875 
Q 45.796875 14.203125 45.796875 21.1875 
Q 45.796875 27.640625 41.28125 31.265625 
Q 36.765625 34.90625 28.71875 34.90625 
L 20.21875 34.90625 
L 20.21875 43.015625 
L 29.109375 43.015625 
Q 36.375 43.015625 40.234375 45.921875 
Q 44.09375 48.828125 44.09375 54.296875 
Q 44.09375 59.90625 40.109375 62.90625 
Q 36.140625 65.921875 28.71875 65.921875 
Q 24.65625 65.921875 20.015625 65.03125 
Q 15.375 64.15625 9.8125 62.3125 
L 9.8125 71.09375 
Q 15.4375 72.65625 20.34375 73.4375 
Q 25.25 74.21875 29.59375 74.21875 
Q 40.828125 74.21875 47.359375 69.109375 
Q 53.90625 64.015625 53.90625 55.328125 
Q 53.90625 49.265625 50.4375 45.09375 
Q 46.96875 40.921875 40.578125 39.3125 
z
" id="DejaVuSans-51"/>
      </defs>
      <g transform="translate(513.985658 377.089938)scale(0.1 -0.1)">
       <use xlink:href="#DejaVuSans-48"/>
       <use x="63.623047" xlink:href="#DejaVuSans-46"/>
       <use x="95.410156" xlink:href="#DejaVuSans-51"/>
      </g>
     </g>
    </g>
    <g id="xtick_5">
     <g id="line2d_5">
      <g>
       <use style="stroke:#000000;stroke-width:0.8;" x="638.111203" xlink:href="#m5542efcdf7" y="362.4915"/>
      </g>
     </g>
     <g id="text_5">
      <!-- 0.4 -->
      <defs>
       <path d="M 37.796875 64.3125 
L 12.890625 25.390625 
L 37.796875 25.390625 
z
M 35.203125 72.90625 
L 47.609375 72.90625 
L 47.609375 25.390625 
L 58.015625 25.390625 
L 58.015625 17.1875 
L 47.609375 17.1875 
L 47.609375 0 
L 37.796875 0 
L 37.796875 17.1875 
L 4.890625 17.1875 
L 4.890625 26.703125 
z
" id="DejaVuSans-52"/>
      </defs>
      <g transform="translate(630.15964 377.089938)scale(0.1 -0.1)">
       <use xlink:href="#DejaVuSans-48"/>
       <use x="63.623047" xlink:href="#DejaVuSans-46"/>
       <use x="95.410156" xlink:href="#DejaVuSans-52"/>
      </g>
     </g>
    </g>
    <g id="text_6">
     <!-- Tasa con NBI -->
     <defs>
      <path d="M -0.296875 72.90625 
L 61.375 72.90625 
L 61.375 64.59375 
L 35.5 64.59375 
L 35.5 0 
L 25.59375 0 
L 25.59375 64.59375 
L -0.296875 64.59375 
z
" id="DejaVuSans-84"/>
      <path d="M 34.28125 27.484375 
Q 23.390625 27.484375 19.1875 25 
Q 14.984375 22.515625 14.984375 16.5 
Q 14.984375 11.71875 18.140625 8.90625 
Q 21.296875 6.109375 26.703125 6.109375 
Q 34.1875 6.109375 38.703125 11.40625 
Q 43.21875 16.703125 43.21875 25.484375 
L 43.21875 27.484375 
z
M 52.203125 31.203125 
L 52.203125 0 
L 43.21875 0 
L 43.21875 8.296875 
Q 40.140625 3.328125 35.546875 0.953125 
Q 30.953125 -1.421875 24.3125 -1.421875 
Q 15.921875 -1.421875 10.953125 3.296875 
Q 6 8.015625 6 15.921875 
Q 6 25.140625 12.171875 29.828125 
Q 18.359375 34.515625 30.609375 34.515625 
L 43.21875 34.515625 
L 43.21875 35.40625 
Q 43.21875 41.609375 39.140625 45 
Q 35.0625 48.390625 27.6875 48.390625 
Q 23 48.390625 18.546875 47.265625 
Q 14.109375 46.140625 10.015625 43.890625 
L 10.015625 52.203125 
Q 14.9375 54.109375 19.578125 55.046875 
Q 24.21875 56 28.609375 56 
Q 40.484375 56 46.34375 49.84375 
Q 52.203125 43.703125 52.203125 31.203125 
z
" id="DejaVuSans-97"/>
      <path d="M 44.28125 53.078125 
L 44.28125 44.578125 
Q 40.484375 46.53125 36.375 47.5 
Q 32.28125 48.484375 27.875 48.484375 
Q 21.1875 48.484375 17.84375 46.4375 
Q 14.5 44.390625 14.5 40.28125 
Q 14.5 37.15625 16.890625 35.375 
Q 19.28125 33.59375 26.515625 31.984375 
L 29.59375 31.296875 
Q 39.15625 29.25 43.1875 25.515625 
Q 47.21875 21.78125 47.21875 15.09375 
Q 47.21875 7.46875 41.1875 3.015625 
Q 35.15625 -1.421875 24.609375 -1.421875 
Q 20.21875 -1.421875 15.453125 -0.5625 
Q 10.6875 0.296875 5.421875 2 
L 5.421875 11.28125 
Q 10.40625 8.6875 15.234375 7.390625 
Q 20.0625 6.109375 24.8125 6.109375 
Q 31.15625 6.109375 34.5625 8.28125 
Q 37.984375 10.453125 37.984375 14.40625 
Q 37.984375 18.0625 35.515625 20.015625 
Q 33.0625 21.96875 24.703125 23.78125 
L 21.578125 24.515625 
Q 13.234375 26.265625 9.515625 29.90625 
Q 5.8125 33.546875 5.8125 39.890625 
Q 5.8125 47.609375 11.28125 51.796875 
Q 16.75 56 26.8125 56 
Q 31.78125 56 36.171875 55.265625 
Q 40.578125 54.546875 44.28125 53.078125 
z
" id="DejaVuSans-115"/>
      <path id="DejaVuSans-32"/>
      <path d="M 48.78125 52.59375 
L 48.78125 44.1875 
Q 44.96875 46.296875 41.140625 47.34375 
Q 37.3125 48.390625 33.40625 48.390625 
Q 24.65625 48.390625 19.8125 42.84375 
Q 14.984375 37.3125 14.984375 27.296875 
Q 14.984375 17.28125 19.8125 11.734375 
Q 24.65625 6.203125 33.40625 6.203125 
Q 37.3125 6.203125 41.140625 7.25 
Q 44.96875 8.296875 48.78125 10.40625 
L 48.78125 2.09375 
Q 45.015625 0.34375 40.984375 -0.53125 
Q 36.96875 -1.421875 32.421875 -1.421875 
Q 20.0625 -1.421875 12.78125 6.34375 
Q 5.515625 14.109375 5.515625 27.296875 
Q 5.515625 40.671875 12.859375 48.328125 
Q 20.21875 56 33.015625 56 
Q 37.15625 56 41.109375 55.140625 
Q 45.0625 54.296875 48.78125 52.59375 
z
" id="DejaVuSans-99"/>
      <path d="M 30.609375 48.390625 
Q 23.390625 48.390625 19.1875 42.75 
Q 14.984375 37.109375 14.984375 27.296875 
Q 14.984375 17.484375 19.15625 11.84375 
Q 23.34375 6.203125 30.609375 6.203125 
Q 37.796875 6.203125 41.984375 11.859375 
Q 46.1875 17.53125 46.1875 27.296875 
Q 46.1875 37.015625 41.984375 42.703125 
Q 37.796875 48.390625 30.609375 48.390625 
z
M 30.609375 56 
Q 42.328125 56 49.015625 48.375 
Q 55.71875 40.765625 55.71875 27.296875 
Q 55.71875 13.875 49.015625 6.21875 
Q 42.328125 -1.421875 30.609375 -1.421875 
Q 18.84375 -1.421875 12.171875 6.21875 
Q 5.515625 13.875 5.515625 27.296875 
Q 5.515625 40.765625 12.171875 48.375 
Q 18.84375 56 30.609375 56 
z
" id="DejaVuSans-111"/>
      <path d="M 54.890625 33.015625 
L 54.890625 0 
L 45.90625 0 
L 45.90625 32.71875 
Q 45.90625 40.484375 42.875 44.328125 
Q 39.84375 48.1875 33.796875 48.1875 
Q 26.515625 48.1875 22.3125 43.546875 
Q 18.109375 38.921875 18.109375 30.90625 
L 18.109375 0 
L 9.078125 0 
L 9.078125 54.6875 
L 18.109375 54.6875 
L 18.109375 46.1875 
Q 21.34375 51.125 25.703125 53.5625 
Q 30.078125 56 35.796875 56 
Q 45.21875 56 50.046875 50.171875 
Q 54.890625 44.34375 54.890625 33.015625 
z
" id="DejaVuSans-110"/>
      <path d="M 9.8125 72.90625 
L 23.09375 72.90625 
L 55.421875 11.921875 
L 55.421875 72.90625 
L 64.984375 72.90625 
L 64.984375 0 
L 51.703125 0 
L 19.390625 60.984375 
L 19.390625 0 
L 9.8125 0 
z
" id="DejaVuSans-78"/>
      <path d="M 19.671875 34.8125 
L 19.671875 8.109375 
L 35.5 8.109375 
Q 43.453125 8.109375 47.28125 11.40625 
Q 51.125 14.703125 51.125 21.484375 
Q 51.125 28.328125 47.28125 31.5625 
Q 43.453125 34.8125 35.5 34.8125 
z
M 19.671875 64.796875 
L 19.671875 42.828125 
L 34.28125 42.828125 
Q 41.5 42.828125 45.03125 45.53125 
Q 48.578125 48.25 48.578125 53.8125 
Q 48.578125 59.328125 45.03125 62.0625 
Q 41.5 64.796875 34.28125 64.796875 
z
M 9.8125 72.90625 
L 35.015625 72.90625 
Q 46.296875 72.90625 52.390625 68.21875 
Q 58.5 63.53125 58.5 54.890625 
Q 58.5 48.1875 55.375 44.234375 
Q 52.25 40.28125 46.1875 39.3125 
Q 53.46875 37.75 57.5 32.78125 
Q 61.53125 27.828125 61.53125 20.40625 
Q 61.53125 10.640625 54.890625 5.3125 
Q 48.25 0 35.984375 0 
L 9.8125 0 
z
" id="DejaVuSans-66"/>
      <path d="M 9.8125 72.90625 
L 19.671875 72.90625 
L 19.671875 0 
L 9.8125 0 
z
" id="DejaVuSans-73"/>
     </defs>
     <g transform="translate(381.497656 390.768062)scale(0.1 -0.1)">
      <use xlink:href="#DejaVuSans-84"/>
      <use x="60.833984" xlink:href="#DejaVuSans-97"/>
      <use x="122.113281" xlink:href="#DejaVuSans-115"/>
      <use x="174.212891" xlink:href="#DejaVuSans-97"/>
      <use x="235.492188" xlink:href="#DejaVuSans-32"/>
      <use x="267.279297" xlink:href="#DejaVuSans-99"/>
      <use x="322.259766" xlink:href="#DejaVuSans-111"/>
      <use x="383.441406" xlink:href="#DejaVuSans-110"/>
      <use x="446.820312" xlink:href="#DejaVuSans-32"/>
      <use x="478.607422" xlink:href="#DejaVuSans-78"/>
      <use x="553.412109" xlink:href="#DejaVuSans-66"/>
      <use x="622.015625" xlink:href="#DejaVuSans-73"/>
     </g>
    </g>
   </g>
   <g id="matplotlib.axis_2">
    <g id="ytick_1">
     <g id="line2d_6">
      <defs>
       <path d="M 0 0 
L -3.5 0 
" id="mbf0ab39548" style="stroke:#000000;stroke-width:0.8;"/>
      </defs>
      <g>
       <use style="stroke:#000000;stroke-width:0.8;" x="135.073438" xlink:href="#mbf0ab39548" y="77.1015"/>
      </g>
     </g>
     <g id="text_7">
      <!-- Avanzado -->
      <defs>
       <path d="M 34.1875 63.1875 
L 20.796875 26.90625 
L 47.609375 26.90625 
z
M 28.609375 72.90625 
L 39.796875 72.90625 
L 67.578125 0 
L 57.328125 0 
L 50.6875 18.703125 
L 17.828125 18.703125 
L 11.1875 0 
L 0.78125 0 
z
" id="DejaVuSans-65"/>
       <path d="M 2.984375 54.6875 
L 12.5 54.6875 
L 29.59375 8.796875 
L 46.6875 54.6875 
L 56.203125 54.6875 
L 35.6875 0 
L 23.484375 0 
z
" id="DejaVuSans-118"/>
       <path d="M 5.515625 54.6875 
L 48.1875 54.6875 
L 48.1875 46.484375 
L 14.40625 7.171875 
L 48.1875 7.171875 
L 48.1875 0 
L 4.296875 0 
L 4.296875 8.203125 
L 38.09375 47.515625 
L 5.515625 47.515625 
z
" id="DejaVuSans-122"/>
       <path d="M 45.40625 46.390625 
L 45.40625 75.984375 
L 54.390625 75.984375 
L 54.390625 0 
L 45.40625 0 
L 45.40625 8.203125 
Q 42.578125 3.328125 38.25 0.953125 
Q 33.9375 -1.421875 27.875 -1.421875 
Q 17.96875 -1.421875 11.734375 6.484375 
Q 5.515625 14.40625 5.515625 27.296875 
Q 5.515625 40.1875 11.734375 48.09375 
Q 17.96875 56 27.875 56 
Q 33.9375 56 38.25 53.625 
Q 42.578125 51.265625 45.40625 46.390625 
z
M 14.796875 27.296875 
Q 14.796875 17.390625 18.875 11.75 
Q 22.953125 6.109375 30.078125 6.109375 
Q 37.203125 6.109375 41.296875 11.75 
Q 45.40625 17.390625 45.40625 27.296875 
Q 45.40625 37.203125 41.296875 42.84375 
Q 37.203125 48.484375 30.078125 48.484375 
Q 22.953125 48.484375 18.875 42.84375 
Q 14.796875 37.203125 14.796875 27.296875 
z
" id="DejaVuSans-100"/>
      </defs>
      <g transform="translate(79.0125 80.900719)scale(0.1 -0.1)">
       <use xlink:href="#DejaVuSans-65"/>
       <use x="68.330078" xlink:href="#DejaVuSans-118"/>
       <use x="127.509766" xlink:href="#DejaVuSans-97"/>
       <use x="188.789062" xlink:href="#DejaVuSans-110"/>
       <use x="252.167969" xlink:href="#DejaVuSans-122"/>
       <use x="304.658203" xlink:href="#DejaVuSans-97"/>
       <use x="365.9375" xlink:href="#DejaVuSans-100"/>
       <use x="429.414062" xlink:href="#DejaVuSans-111"/>
      </g>
     </g>
    </g>
    <g id="ytick_2">
     <g id="line2d_7">
      <g>
       <use style="stroke:#000000;stroke-width:0.8;" x="135.073438" xlink:href="#mbf0ab39548" y="158.6415"/>
      </g>
     </g>
     <g id="text_8">
      <!-- Satisfactorio -->
      <defs>
       <path d="M 53.515625 70.515625 
L 53.515625 60.890625 
Q 47.90625 63.578125 42.921875 64.890625 
Q 37.9375 66.21875 33.296875 66.21875 
Q 25.25 66.21875 20.875 63.09375 
Q 16.5 59.96875 16.5 54.203125 
Q 16.5 49.359375 19.40625 46.890625 
Q 22.3125 44.4375 30.421875 42.921875 
L 36.375 41.703125 
Q 47.40625 39.59375 52.65625 34.296875 
Q 57.90625 29 57.90625 20.125 
Q 57.90625 9.515625 50.796875 4.046875 
Q 43.703125 -1.421875 29.984375 -1.421875 
Q 24.8125 -1.421875 18.96875 -0.25 
Q 13.140625 0.921875 6.890625 3.21875 
L 6.890625 13.375 
Q 12.890625 10.015625 18.65625 8.296875 
Q 24.421875 6.59375 29.984375 6.59375 
Q 38.421875 6.59375 43.015625 9.90625 
Q 47.609375 13.234375 47.609375 19.390625 
Q 47.609375 24.75 44.3125 27.78125 
Q 41.015625 30.8125 33.5 32.328125 
L 27.484375 33.5 
Q 16.453125 35.6875 11.515625 40.375 
Q 6.59375 45.0625 6.59375 53.421875 
Q 6.59375 63.09375 13.40625 68.65625 
Q 20.21875 74.21875 32.171875 74.21875 
Q 37.3125 74.21875 42.625 73.28125 
Q 47.953125 72.359375 53.515625 70.515625 
z
" id="DejaVuSans-83"/>
       <path d="M 18.3125 70.21875 
L 18.3125 54.6875 
L 36.8125 54.6875 
L 36.8125 47.703125 
L 18.3125 47.703125 
L 18.3125 18.015625 
Q 18.3125 11.328125 20.140625 9.421875 
Q 21.96875 7.515625 27.59375 7.515625 
L 36.8125 7.515625 
L 36.8125 0 
L 27.59375 0 
Q 17.1875 0 13.234375 3.875 
Q 9.28125 7.765625 9.28125 18.015625 
L 9.28125 47.703125 
L 2.6875 47.703125 
L 2.6875 54.6875 
L 9.28125 54.6875 
L 9.28125 70.21875 
z
" id="DejaVuSans-116"/>
       <path d="M 9.421875 54.6875 
L 18.40625 54.6875 
L 18.40625 0 
L 9.421875 0 
z
M 9.421875 75.984375 
L 18.40625 75.984375 
L 18.40625 64.59375 
L 9.421875 64.59375 
z
" id="DejaVuSans-105"/>
       <path d="M 37.109375 75.984375 
L 37.109375 68.5 
L 28.515625 68.5 
Q 23.6875 68.5 21.796875 66.546875 
Q 19.921875 64.59375 19.921875 59.515625 
L 19.921875 54.6875 
L 34.71875 54.6875 
L 34.71875 47.703125 
L 19.921875 47.703125 
L 19.921875 0 
L 10.890625 0 
L 10.890625 47.703125 
L 2.296875 47.703125 
L 2.296875 54.6875 
L 10.890625 54.6875 
L 10.890625 58.5 
Q 10.890625 67.625 15.140625 71.796875 
Q 19.390625 75.984375 28.609375 75.984375 
z
" id="DejaVuSans-102"/>
       <path d="M 41.109375 46.296875 
Q 39.59375 47.171875 37.8125 47.578125 
Q 36.03125 48 33.890625 48 
Q 26.265625 48 22.1875 43.046875 
Q 18.109375 38.09375 18.109375 28.8125 
L 18.109375 0 
L 9.078125 0 
L 9.078125 54.6875 
L 18.109375 54.6875 
L 18.109375 46.1875 
Q 20.953125 51.171875 25.484375 53.578125 
Q 30.03125 56 36.53125 56 
Q 37.453125 56 38.578125 55.875 
Q 39.703125 55.765625 41.0625 55.515625 
z
" id="DejaVuSans-114"/>
      </defs>
      <g transform="translate(65.495313 162.440719)scale(0.1 -0.1)">
       <use xlink:href="#DejaVuSans-83"/>
       <use x="63.476562" xlink:href="#DejaVuSans-97"/>
       <use x="124.755859" xlink:href="#DejaVuSans-116"/>
       <use x="163.964844" xlink:href="#DejaVuSans-105"/>
       <use x="191.748047" xlink:href="#DejaVuSans-115"/>
       <use x="243.847656" xlink:href="#DejaVuSans-102"/>
       <use x="279.052734" xlink:href="#DejaVuSans-97"/>
       <use x="340.332031" xlink:href="#DejaVuSans-99"/>
       <use x="395.3125" xlink:href="#DejaVuSans-116"/>
       <use x="434.521484" xlink:href="#DejaVuSans-111"/>
       <use x="495.703125" xlink:href="#DejaVuSans-114"/>
       <use x="536.816406" xlink:href="#DejaVuSans-105"/>
       <use x="564.599609" xlink:href="#DejaVuSans-111"/>
      </g>
     </g>
    </g>
    <g id="ytick_3">
     <g id="line2d_8">
      <g>
       <use style="stroke:#000000;stroke-width:0.8;" x="135.073438" xlink:href="#mbf0ab39548" y="240.1815"/>
      </g>
     </g>
     <g id="text_9">
      <!-- Básico -->
      <defs>
       <path d="M 34.28125 27.484375 
Q 23.390625 27.484375 19.1875 25 
Q 14.984375 22.515625 14.984375 16.5 
Q 14.984375 11.71875 18.140625 8.90625 
Q 21.296875 6.109375 26.703125 6.109375 
Q 34.1875 6.109375 38.703125 11.40625 
Q 43.21875 16.703125 43.21875 25.484375 
L 43.21875 27.484375 
z
M 52.203125 31.203125 
L 52.203125 0 
L 43.21875 0 
L 43.21875 8.296875 
Q 40.140625 3.328125 35.546875 0.953125 
Q 30.953125 -1.421875 24.3125 -1.421875 
Q 15.921875 -1.421875 10.953125 3.296875 
Q 6 8.015625 6 15.921875 
Q 6 25.140625 12.171875 29.828125 
Q 18.359375 34.515625 30.609375 34.515625 
L 43.21875 34.515625 
L 43.21875 35.40625 
Q 43.21875 41.609375 39.140625 45 
Q 35.0625 48.390625 27.6875 48.390625 
Q 23 48.390625 18.546875 47.265625 
Q 14.109375 46.140625 10.015625 43.890625 
L 10.015625 52.203125 
Q 14.9375 54.109375 19.578125 55.046875 
Q 24.21875 56 28.609375 56 
Q 40.484375 56 46.34375 49.84375 
Q 52.203125 43.703125 52.203125 31.203125 
z
M 35.796875 79.984375 
L 45.515625 79.984375 
L 29.59375 61.625 
L 22.125 61.625 
z
" id="DejaVuSans-225"/>
      </defs>
      <g transform="translate(95.479688 243.980719)scale(0.1 -0.1)">
       <use xlink:href="#DejaVuSans-66"/>
       <use x="68.603516" xlink:href="#DejaVuSans-225"/>
       <use x="129.882812" xlink:href="#DejaVuSans-115"/>
       <use x="181.982422" xlink:href="#DejaVuSans-105"/>
       <use x="209.765625" xlink:href="#DejaVuSans-99"/>
       <use x="264.746094" xlink:href="#DejaVuSans-111"/>
      </g>
     </g>
    </g>
    <g id="ytick_4">
     <g id="line2d_9">
      <g>
       <use style="stroke:#000000;stroke-width:0.8;" x="135.073438" xlink:href="#mbf0ab39548" y="321.7215"/>
      </g>
     </g>
     <g id="text_10">
      <!-- Por debajo del básico -->
      <defs>
       <path d="M 19.671875 64.796875 
L 19.671875 37.40625 
L 32.078125 37.40625 
Q 38.96875 37.40625 42.71875 40.96875 
Q 46.484375 44.53125 46.484375 51.125 
Q 46.484375 57.671875 42.71875 61.234375 
Q 38.96875 64.796875 32.078125 64.796875 
z
M 9.8125 72.90625 
L 32.078125 72.90625 
Q 44.34375 72.90625 50.609375 67.359375 
Q 56.890625 61.8125 56.890625 51.125 
Q 56.890625 40.328125 50.609375 34.8125 
Q 44.34375 29.296875 32.078125 29.296875 
L 19.671875 29.296875 
L 19.671875 0 
L 9.8125 0 
z
" id="DejaVuSans-80"/>
       <path d="M 56.203125 29.59375 
L 56.203125 25.203125 
L 14.890625 25.203125 
Q 15.484375 15.921875 20.484375 11.0625 
Q 25.484375 6.203125 34.421875 6.203125 
Q 39.59375 6.203125 44.453125 7.46875 
Q 49.3125 8.734375 54.109375 11.28125 
L 54.109375 2.78125 
Q 49.265625 0.734375 44.1875 -0.34375 
Q 39.109375 -1.421875 33.890625 -1.421875 
Q 20.796875 -1.421875 13.15625 6.1875 
Q 5.515625 13.8125 5.515625 26.8125 
Q 5.515625 40.234375 12.765625 48.109375 
Q 20.015625 56 32.328125 56 
Q 43.359375 56 49.78125 48.890625 
Q 56.203125 41.796875 56.203125 29.59375 
z
M 47.21875 32.234375 
Q 47.125 39.59375 43.09375 43.984375 
Q 39.0625 48.390625 32.421875 48.390625 
Q 24.90625 48.390625 20.390625 44.140625 
Q 15.875 39.890625 15.1875 32.171875 
z
" id="DejaVuSans-101"/>
       <path d="M 48.6875 27.296875 
Q 48.6875 37.203125 44.609375 42.84375 
Q 40.53125 48.484375 33.40625 48.484375 
Q 26.265625 48.484375 22.1875 42.84375 
Q 18.109375 37.203125 18.109375 27.296875 
Q 18.109375 17.390625 22.1875 11.75 
Q 26.265625 6.109375 33.40625 6.109375 
Q 40.53125 6.109375 44.609375 11.75 
Q 48.6875 17.390625 48.6875 27.296875 
z
M 18.109375 46.390625 
Q 20.953125 51.265625 25.265625 53.625 
Q 29.59375 56 35.59375 56 
Q 45.5625 56 51.78125 48.09375 
Q 58.015625 40.1875 58.015625 27.296875 
Q 58.015625 14.40625 51.78125 6.484375 
Q 45.5625 -1.421875 35.59375 -1.421875 
Q 29.59375 -1.421875 25.265625 0.953125 
Q 20.953125 3.328125 18.109375 8.203125 
L 18.109375 0 
L 9.078125 0 
L 9.078125 75.984375 
L 18.109375 75.984375 
z
" id="DejaVuSans-98"/>
       <path d="M 9.421875 54.6875 
L 18.40625 54.6875 
L 18.40625 -0.984375 
Q 18.40625 -11.421875 14.421875 -16.109375 
Q 10.453125 -20.796875 1.609375 -20.796875 
L -1.8125 -20.796875 
L -1.8125 -13.1875 
L 0.59375 -13.1875 
Q 5.71875 -13.1875 7.5625 -10.8125 
Q 9.421875 -8.453125 9.421875 -0.984375 
z
M 9.421875 75.984375 
L 18.40625 75.984375 
L 18.40625 64.59375 
L 9.421875 64.59375 
z
" id="DejaVuSans-106"/>
       <path d="M 9.421875 75.984375 
L 18.40625 75.984375 
L 18.40625 0 
L 9.421875 0 
z
" id="DejaVuSans-108"/>
      </defs>
      <g transform="translate(21.048438 325.720719)scale(0.1 -0.1)">
       <use xlink:href="#DejaVuSans-80"/>
       <use x="60.255859" xlink:href="#DejaVuSans-111"/>
       <use x="121.4375" xlink:href="#DejaVuSans-114"/>
       <use x="162.550781" xlink:href="#DejaVuSans-32"/>
       <use x="194.337891" xlink:href="#DejaVuSans-100"/>
       <use x="257.814453" xlink:href="#DejaVuSans-101"/>
       <use x="319.337891" xlink:href="#DejaVuSans-98"/>
       <use x="382.814453" xlink:href="#DejaVuSans-97"/>
       <use x="444.09375" xlink:href="#DejaVuSans-106"/>
       <use x="471.876953" xlink:href="#DejaVuSans-111"/>
       <use x="533.058594" xlink:href="#DejaVuSans-32"/>
       <use x="564.845703" xlink:href="#DejaVuSans-100"/>
       <use x="628.322266" xlink:href="#DejaVuSans-101"/>
       <use x="689.845703" xlink:href="#DejaVuSans-108"/>
       <use x="717.628906" xlink:href="#DejaVuSans-32"/>
       <use x="749.416016" xlink:href="#DejaVuSans-98"/>
       <use x="812.892578" xlink:href="#DejaVuSans-225"/>
       <use x="874.171875" xlink:href="#DejaVuSans-115"/>
       <use x="926.271484" xlink:href="#DejaVuSans-105"/>
       <use x="954.054688" xlink:href="#DejaVuSans-99"/>
       <use x="1009.035156" xlink:href="#DejaVuSans-111"/>
      </g>
     </g>
    </g>
    <g id="text_11">
     <!-- Nivel de desempeño en lengua -->
     <defs>
      <path d="M 52 44.1875 
Q 55.375 50.25 60.0625 53.125 
Q 64.75 56 71.09375 56 
Q 79.640625 56 84.28125 50.015625 
Q 88.921875 44.046875 88.921875 33.015625 
L 88.921875 0 
L 79.890625 0 
L 79.890625 32.71875 
Q 79.890625 40.578125 77.09375 44.375 
Q 74.3125 48.1875 68.609375 48.1875 
Q 61.625 48.1875 57.5625 43.546875 
Q 53.515625 38.921875 53.515625 30.90625 
L 53.515625 0 
L 44.484375 0 
L 44.484375 32.71875 
Q 44.484375 40.625 41.703125 44.40625 
Q 38.921875 48.1875 33.109375 48.1875 
Q 26.21875 48.1875 22.15625 43.53125 
Q 18.109375 38.875 18.109375 30.90625 
L 18.109375 0 
L 9.078125 0 
L 9.078125 54.6875 
L 18.109375 54.6875 
L 18.109375 46.1875 
Q 21.1875 51.21875 25.484375 53.609375 
Q 29.78125 56 35.6875 56 
Q 41.65625 56 45.828125 52.96875 
Q 50 49.953125 52 44.1875 
z
" id="DejaVuSans-109"/>
      <path d="M 18.109375 8.203125 
L 18.109375 -20.796875 
L 9.078125 -20.796875 
L 9.078125 54.6875 
L 18.109375 54.6875 
L 18.109375 46.390625 
Q 20.953125 51.265625 25.265625 53.625 
Q 29.59375 56 35.59375 56 
Q 45.5625 56 51.78125 48.09375 
Q 58.015625 40.1875 58.015625 27.296875 
Q 58.015625 14.40625 51.78125 6.484375 
Q 45.5625 -1.421875 35.59375 -1.421875 
Q 29.59375 -1.421875 25.265625 0.953125 
Q 20.953125 3.328125 18.109375 8.203125 
z
M 48.6875 27.296875 
Q 48.6875 37.203125 44.609375 42.84375 
Q 40.53125 48.484375 33.40625 48.484375 
Q 26.265625 48.484375 22.1875 42.84375 
Q 18.109375 37.203125 18.109375 27.296875 
Q 18.109375 17.390625 22.1875 11.75 
Q 26.265625 6.109375 33.40625 6.109375 
Q 40.53125 6.109375 44.609375 11.75 
Q 48.6875 17.390625 48.6875 27.296875 
z
" id="DejaVuSans-112"/>
      <path d="M 54.890625 33.015625 
L 54.890625 0 
L 45.90625 0 
L 45.90625 32.71875 
Q 45.90625 40.484375 42.875 44.328125 
Q 39.84375 48.1875 33.796875 48.1875 
Q 26.515625 48.1875 22.3125 43.546875 
Q 18.109375 38.921875 18.109375 30.90625 
L 18.109375 0 
L 9.078125 0 
L 9.078125 54.6875 
L 18.109375 54.6875 
L 18.109375 46.1875 
Q 21.34375 51.125 25.703125 53.5625 
Q 30.078125 56 35.796875 56 
Q 45.21875 56 50.046875 50.171875 
Q 54.890625 44.34375 54.890625 33.015625 
z
M 32.234375 66.890625 
L 29.4375 69.578125 
Q 28.375 70.5625 27.5625 71.015625 
Q 26.765625 71.484375 26.125 71.484375 
Q 24.265625 71.484375 23.390625 69.703125 
Q 22.515625 67.921875 22.40625 63.921875 
L 16.3125 63.921875 
Q 16.40625 70.515625 18.890625 74.09375 
Q 21.390625 77.6875 25.828125 77.6875 
Q 27.6875 77.6875 29.25 77 
Q 30.8125 76.3125 32.625 74.703125 
L 35.40625 72.015625 
Q 36.46875 71.046875 37.28125 70.578125 
Q 38.09375 70.125 38.71875 70.125 
Q 40.578125 70.125 41.453125 71.90625 
Q 42.328125 73.6875 42.4375 77.6875 
L 48.53125 77.6875 
Q 48.4375 71.09375 45.9375 67.5 
Q 43.453125 63.921875 39.015625 63.921875 
Q 37.15625 63.921875 35.59375 64.59375 
Q 34.03125 65.28125 32.234375 66.890625 
z
" id="DejaVuSans-241"/>
      <path d="M 45.40625 27.984375 
Q 45.40625 37.75 41.375 43.109375 
Q 37.359375 48.484375 30.078125 48.484375 
Q 22.859375 48.484375 18.828125 43.109375 
Q 14.796875 37.75 14.796875 27.984375 
Q 14.796875 18.265625 18.828125 12.890625 
Q 22.859375 7.515625 30.078125 7.515625 
Q 37.359375 7.515625 41.375 12.890625 
Q 45.40625 18.265625 45.40625 27.984375 
z
M 54.390625 6.78125 
Q 54.390625 -7.171875 48.1875 -13.984375 
Q 42 -20.796875 29.203125 -20.796875 
Q 24.46875 -20.796875 20.265625 -20.09375 
Q 16.0625 -19.390625 12.109375 -17.921875 
L 12.109375 -9.1875 
Q 16.0625 -11.328125 19.921875 -12.34375 
Q 23.78125 -13.375 27.78125 -13.375 
Q 36.625 -13.375 41.015625 -8.765625 
Q 45.40625 -4.15625 45.40625 5.171875 
L 45.40625 9.625 
Q 42.625 4.78125 38.28125 2.390625 
Q 33.9375 0 27.875 0 
Q 17.828125 0 11.671875 7.65625 
Q 5.515625 15.328125 5.515625 27.984375 
Q 5.515625 40.671875 11.671875 48.328125 
Q 17.828125 56 27.875 56 
Q 33.9375 56 38.28125 53.609375 
Q 42.625 51.21875 45.40625 46.390625 
L 45.40625 54.6875 
L 54.390625 54.6875 
z
" id="DejaVuSans-103"/>
      <path d="M 8.5 21.578125 
L 8.5 54.6875 
L 17.484375 54.6875 
L 17.484375 21.921875 
Q 17.484375 14.15625 20.5 10.265625 
Q 23.53125 6.390625 29.59375 6.390625 
Q 36.859375 6.390625 41.078125 11.03125 
Q 45.3125 15.671875 45.3125 23.6875 
L 45.3125 54.6875 
L 54.296875 54.6875 
L 54.296875 0 
L 45.3125 0 
L 45.3125 8.40625 
Q 42.046875 3.421875 37.71875 1 
Q 33.40625 -1.421875 27.6875 -1.421875 
Q 18.265625 -1.421875 13.375 4.4375 
Q 8.5 10.296875 8.5 21.578125 
z
M 31.109375 56 
z
" id="DejaVuSans-117"/>
     </defs>
     <g transform="translate(14.96875 277.141188)rotate(-90)scale(0.1 -0.1)">
      <use xlink:href="#DejaVuSans-78"/>
      <use x="74.804688" xlink:href="#DejaVuSans-105"/>
      <use x="102.587891" xlink:href="#DejaVuSans-118"/>
      <use x="161.767578" xlink:href="#DejaVuSans-101"/>
      <use x="223.291016" xlink:href="#DejaVuSans-108"/>
      <use x="251.074219" xlink:href="#DejaVuSans-32"/>
      <use x="282.861328" xlink:href="#DejaVuSans-100"/>
      <use x="346.337891" xlink:href="#DejaVuSans-101"/>
      <use x="407.861328" xlink:href="#DejaVuSans-32"/>
      <use x="439.648438" xlink:href="#DejaVuSans-100"/>
      <use x="503.125" xlink:href="#DejaVuSans-101"/>
      <use x="564.648438" xlink:href="#DejaVuSans-115"/>
      <use x="616.748047" xlink:href="#DejaVuSans-101"/>
      <use x="678.271484" xlink:href="#DejaVuSans-109"/>
      <use x="775.683594" xlink:href="#DejaVuSans-112"/>
      <use x="839.160156" xlink:href="#DejaVuSans-101"/>
      <use x="900.683594" xlink:href="#DejaVuSans-241"/>
      <use x="964.0625" xlink:href="#DejaVuSans-111"/>
      <use x="1025.244141" xlink:href="#DejaVuSans-32"/>
      <use x="1057.03125" xlink:href="#DejaVuSans-101"/>
      <use x="1118.554688" xlink:href="#DejaVuSans-110"/>
      <use x="1181.933594" xlink:href="#DejaVuSans-32"/>
      <use x="1213.720703" xlink:href="#DejaVuSans-108"/>
      <use x="1241.503906" xlink:href="#DejaVuSans-101"/>
      <use x="1303.027344" xlink:href="#DejaVuSans-110"/>
      <use x="1366.40625" xlink:href="#DejaVuSans-103"/>
      <use x="1429.882812" xlink:href="#DejaVuSans-117"/>
      <use x="1493.261719" xlink:href="#DejaVuSans-97"/>
     </g>
    </g>
   </g>
   <g id="line2d_10">
    <path clip-path="url(#p524d4c53d1)" d="M 193.160429 77.1015 
L 402.666662 77.1015 
" style="fill:none;stroke:#4c4c4c;stroke-linecap:square;stroke-width:1.5;"/>
   </g>
   <g id="line2d_11">
    <path clip-path="url(#p524d4c53d1)" d="M 222.835107 77.1015 
L 295.002683 77.1015 
" style="fill:none;stroke:#4c4c4c;stroke-linecap:square;stroke-width:4.5;"/>
   </g>
   <g id="line2d_12">
    <path clip-path="url(#p524d4c53d1)" d="M 193.160429 158.6415 
L 421.014253 158.6415 
" style="fill:none;stroke:#4c4c4c;stroke-linecap:square;stroke-width:1.5;"/>
   </g>
   <g id="line2d_13">
    <path clip-path="url(#p524d4c53d1)" d="M 230.413783 158.6415 
L 310.213631 158.6415 
" style="fill:none;stroke:#4c4c4c;stroke-linecap:square;stroke-width:4.5;"/>
   </g>
   <g id="line2d_14">
    <path clip-path="url(#p524d4c53d1)" d="M 193.160429 240.1815 
L 410.558741 240.1815 
" style="fill:none;stroke:#4c4c4c;stroke-linecap:square;stroke-width:1.5;"/>
   </g>
   <g id="line2d_15">
    <path clip-path="url(#p524d4c53d1)" d="M 240.340909 240.1815 
L 312.090749 240.1815 
" style="fill:none;stroke:#4c4c4c;stroke-linecap:square;stroke-width:4.5;"/>
   </g>
   <g id="line2d_16">
    <path clip-path="url(#p524d4c53d1)" d="M 193.160429 321.7215 
L 410.558741 321.7215 
" style="fill:none;stroke:#4c4c4c;stroke-linecap:square;stroke-width:1.5;"/>
   </g>
   <g id="line2d_17">
    <path clip-path="url(#p524d4c53d1)" d="M 240.362194 321.7215 
L 312.090749 321.7215 
" style="fill:none;stroke:#4c4c4c;stroke-linecap:square;stroke-width:4.5;"/>
   </g>
   <g id="patch_3">
    <path d="M 135.073438 362.4915 
L 135.073438 36.3315 
" style="fill:none;stroke:#000000;stroke-linecap:square;stroke-linejoin:miter;stroke-width:0.8;"/>
   </g>
   <g id="patch_4">
    <path d="M 693.073437 362.4915 
L 693.073437 36.3315 
" style="fill:none;stroke:#000000;stroke-linecap:square;stroke-linejoin:miter;stroke-width:0.8;"/>
   </g>
   <g id="patch_5">
    <path d="M 135.073438 362.4915 
L 693.073437 362.4915 
" style="fill:none;stroke:#000000;stroke-linecap:square;stroke-linejoin:miter;stroke-width:0.8;"/>
   </g>
   <g id="patch_6">
    <path d="M 135.073438 36.3315 
L 693.073437 36.3315 
" style="fill:none;stroke:#000000;stroke-linecap:square;stroke-linejoin:miter;stroke-width:0.8;"/>
   </g>
   <g id="PathCollection_1">
    <defs>
     <path d="M 0 1.5 
C 0.397805 1.5 0.77937 1.341951 1.06066 1.06066 
C 1.341951 0.77937 1.5 0.397805 1.5 0 
C 1.5 -0.397805 1.341951 -0.77937 1.06066 -1.06066 
C 0.77937 -1.341951 0.397805 -1.5 0 -1.5 
C -0.397805 -1.5 -0.77937 -1.341951 -1.06066 -1.06066 
C -1.341951 -0.77937 -1.5 -0.397805 -1.5 0 
C -1.5 0.397805 -1.341951 0.77937 -1.06066 1.06066 
C -0.77937 1.341951 -0.397805 1.5 0 1.5 
z
" id="m8c910ded99" style="stroke:#4c4c4c;"/>
    </defs>
    <g clip-path="url(#p524d4c53d1)">
     <use style="fill:#ffffff;stroke:#4c4c4c;" x="248.1574" xlink:href="#m8c910ded99" y="77.1015"/>
    </g>
   </g>
   <g id="PathCollection_2">
    <g clip-path="url(#p524d4c53d1)">
     <use style="fill:#ffffff;stroke:#4c4c4c;" x="270.185197" xlink:href="#m8c910ded99" y="158.6415"/>
    </g>
   </g>
   <g id="PathCollection_3">
    <g clip-path="url(#p524d4c53d1)">
     <use style="fill:#ffffff;stroke:#4c4c4c;" x="280.145366" xlink:href="#m8c910ded99" y="240.1815"/>
    </g>
   </g>
   <g id="PathCollection_4">
    <g clip-path="url(#p524d4c53d1)">
     <use style="fill:#ffffff;stroke:#4c4c4c;" x="282.998076" xlink:href="#m8c910ded99" y="321.7215"/>
    </g>
   </g>
   <g id="text_12">
    <!-- Distribución de: Tasa con NBI según el desempeño en lengua -->
    <defs>
     <path d="M 19.671875 64.796875 
L 19.671875 8.109375 
L 31.59375 8.109375 
Q 46.6875 8.109375 53.6875 14.9375 
Q 60.6875 21.78125 60.6875 36.53125 
Q 60.6875 51.171875 53.6875 57.984375 
Q 46.6875 64.796875 31.59375 64.796875 
z
M 9.8125 72.90625 
L 30.078125 72.90625 
Q 51.265625 72.90625 61.171875 64.09375 
Q 71.09375 55.28125 71.09375 36.53125 
Q 71.09375 17.671875 61.125 8.828125 
Q 51.171875 0 30.078125 0 
L 9.8125 0 
z
" id="DejaVuSans-68"/>
     <path d="M 30.609375 48.390625 
Q 23.390625 48.390625 19.1875 42.75 
Q 14.984375 37.109375 14.984375 27.296875 
Q 14.984375 17.484375 19.15625 11.84375 
Q 23.34375 6.203125 30.609375 6.203125 
Q 37.796875 6.203125 41.984375 11.859375 
Q 46.1875 17.53125 46.1875 27.296875 
Q 46.1875 37.015625 41.984375 42.703125 
Q 37.796875 48.390625 30.609375 48.390625 
z
M 30.609375 56 
Q 42.328125 56 49.015625 48.375 
Q 55.71875 40.765625 55.71875 27.296875 
Q 55.71875 13.875 49.015625 6.21875 
Q 42.328125 -1.421875 30.609375 -1.421875 
Q 18.84375 -1.421875 12.171875 6.21875 
Q 5.515625 13.875 5.515625 27.296875 
Q 5.515625 40.765625 12.171875 48.375 
Q 18.84375 56 30.609375 56 
z
M 37.40625 79.984375 
L 47.125 79.984375 
L 31.203125 61.625 
L 23.734375 61.625 
z
" id="DejaVuSans-243"/>
     <path d="M 11.71875 12.40625 
L 22.015625 12.40625 
L 22.015625 0 
L 11.71875 0 
z
M 11.71875 51.703125 
L 22.015625 51.703125 
L 22.015625 39.3125 
L 11.71875 39.3125 
z
" id="DejaVuSans-58"/>
     <path d="M 8.5 21.578125 
L 8.5 54.6875 
L 17.484375 54.6875 
L 17.484375 21.921875 
Q 17.484375 14.15625 20.5 10.265625 
Q 23.53125 6.390625 29.59375 6.390625 
Q 36.859375 6.390625 41.078125 11.03125 
Q 45.3125 15.671875 45.3125 23.6875 
L 45.3125 54.6875 
L 54.296875 54.6875 
L 54.296875 0 
L 45.3125 0 
L 45.3125 8.40625 
Q 42.046875 3.421875 37.71875 1 
Q 33.40625 -1.421875 27.6875 -1.421875 
Q 18.265625 -1.421875 13.375 4.4375 
Q 8.5 10.296875 8.5 21.578125 
z
M 31.109375 56 
z
M 37.796875 79.984375 
L 47.515625 79.984375 
L 31.59375 61.625 
L 24.125 61.625 
z
" id="DejaVuSans-250"/>
    </defs>
    <g transform="translate(229.490938 16.798125)scale(0.12 -0.12)">
     <use xlink:href="#DejaVuSans-68"/>
     <use x="77.001953" xlink:href="#DejaVuSans-105"/>
     <use x="104.785156" xlink:href="#DejaVuSans-115"/>
     <use x="156.884766" xlink:href="#DejaVuSans-116"/>
     <use x="196.09375" xlink:href="#DejaVuSans-114"/>
     <use x="237.207031" xlink:href="#DejaVuSans-105"/>
     <use x="264.990234" xlink:href="#DejaVuSans-98"/>
     <use x="328.466797" xlink:href="#DejaVuSans-117"/>
     <use x="391.845703" xlink:href="#DejaVuSans-99"/>
     <use x="446.826172" xlink:href="#DejaVuSans-105"/>
     <use x="474.609375" xlink:href="#DejaVuSans-243"/>
     <use x="535.791016" xlink:href="#DejaVuSans-110"/>
     <use x="599.169922" xlink:href="#DejaVuSans-32"/>
     <use x="630.957031" xlink:href="#DejaVuSans-100"/>
     <use x="694.433594" xlink:href="#DejaVuSans-101"/>
     <use x="755.957031" xlink:href="#DejaVuSans-58"/>
     <use x="789.648438" xlink:href="#DejaVuSans-32"/>
     <use x="821.435547" xlink:href="#DejaVuSans-84"/>
     <use x="882.269531" xlink:href="#DejaVuSans-97"/>
     <use x="943.548828" xlink:href="#DejaVuSans-115"/>
     <use x="995.648438" xlink:href="#DejaVuSans-97"/>
     <use x="1056.927734" xlink:href="#DejaVuSans-32"/>
     <use x="1088.714844" xlink:href="#DejaVuSans-99"/>
     <use x="1143.695312" xlink:href="#DejaVuSans-111"/>
     <use x="1204.876953" xlink:href="#DejaVuSans-110"/>
     <use x="1268.255859" xlink:href="#DejaVuSans-32"/>
     <use x="1300.042969" xlink:href="#DejaVuSans-78"/>
     <use x="1374.847656" xlink:href="#DejaVuSans-66"/>
     <use x="1443.451172" xlink:href="#DejaVuSans-73"/>
     <use x="1472.943359" xlink:href="#DejaVuSans-32"/>
     <use x="1504.730469" xlink:href="#DejaVuSans-115"/>
     <use x="1556.830078" xlink:href="#DejaVuSans-101"/>
     <use x="1618.353516" xlink:href="#DejaVuSans-103"/>
     <use x="1681.830078" xlink:href="#DejaVuSans-250"/>
     <use x="1745.208984" xlink:href="#DejaVuSans-110"/>
     <use x="1808.587891" xlink:href="#DejaVuSans-32"/>
     <use x="1840.375" xlink:href="#DejaVuSans-101"/>
     <use x="1901.898438" xlink:href="#DejaVuSans-108"/>
     <use x="1929.681641" xlink:href="#DejaVuSans-32"/>
     <use x="1961.46875" xlink:href="#DejaVuSans-100"/>
     <use x="2024.945312" xlink:href="#DejaVuSans-101"/>
     <use x="2086.46875" xlink:href="#DejaVuSans-115"/>
     <use x="2138.568359" xlink:href="#DejaVuSans-101"/>
     <use x="2200.091797" xlink:href="#DejaVuSans-109"/>
     <use x="2297.503906" xlink:href="#DejaVuSans-112"/>
     <use x="2360.980469" xlink:href="#DejaVuSans-101"/>
     <use x="2422.503906" xlink:href="#DejaVuSans-241"/>
     <use x="2485.882812" xlink:href="#DejaVuSans-111"/>
     <use x="2547.064453" xlink:href="#DejaVuSans-32"/>
     <use x="2578.851562" xlink:href="#DejaVuSans-101"/>
     <use x="2640.375" xlink:href="#DejaVuSans-110"/>
     <use x="2703.753906" xlink:href="#DejaVuSans-32"/>
     <use x="2735.541016" xlink:href="#DejaVuSans-108"/>
     <use x="2763.324219" xlink:href="#DejaVuSans-101"/>
     <use x="2824.847656" xlink:href="#DejaVuSans-110"/>
     <use x="2888.226562" xlink:href="#DejaVuSans-103"/>
     <use x="2951.703125" xlink:href="#DejaVuSans-117"/>
     <use x="3015.082031" xlink:href="#DejaVuSans-97"/>
    </g>
    <!--  Nivel: Primaria -->
    <g transform="translate(368.090937 30.2355)scale(0.12 -0.12)">
     <use xlink:href="#DejaVuSans-32"/>
     <use x="31.787109" xlink:href="#DejaVuSans-78"/>
     <use x="106.591797" xlink:href="#DejaVuSans-105"/>
     <use x="134.375" xlink:href="#DejaVuSans-118"/>
     <use x="193.554688" xlink:href="#DejaVuSans-101"/>
     <use x="255.078125" xlink:href="#DejaVuSans-108"/>
     <use x="282.861328" xlink:href="#DejaVuSans-58"/>
     <use x="316.552734" xlink:href="#DejaVuSans-32"/>
     <use x="348.339844" xlink:href="#DejaVuSans-80"/>
     <use x="408.626953" xlink:href="#DejaVuSans-114"/>
     <use x="449.740234" xlink:href="#DejaVuSans-105"/>
     <use x="477.523438" xlink:href="#DejaVuSans-109"/>
     <use x="574.935547" xlink:href="#DejaVuSans-97"/>
     <use x="636.214844" xlink:href="#DejaVuSans-114"/>
     <use x="677.328125" xlink:href="#DejaVuSans-105"/>
     <use x="705.111328" xlink:href="#DejaVuSans-97"/>
    </g>
   </g>
  </g>
 </g>
 <defs>
  <clipPath id="p524d4c53d1">
   <rect height="326.16" width="558" x="135.073438" y="36.3315"/>
  </clipPath>
 </defs>
</svg>
