<?xml version="1.0" encoding="utf-8" standalone="no"?>
<!DOCTYPE svg PUBLIC "-//W3C//DTD SVG 1.1//EN"
  "http://www.w3.org/Graphics/SVG/1.1/DTD/svg11.dtd">
<!-- Created with matplotlib (https://matplotlib.org/) -->
<svg height="400.04775pt" version="1.1" viewBox="0 0 703.773437 400.04775" width="703.773437pt" xmlns="http://www.w3.org/2000/svg" xmlns:xlink="http://www.w3.org/1999/xlink">
 <defs>
  <style type="text/css">
*{stroke-linecap:butt;stroke-linejoin:round;}
  </style>
 </defs>
 <g id="figure_1">
  <g id="patch_1">
   <path d="M 0 400.04775 
L 703.773437 400.04775 
L 703.773437 0 
L 0 0 
z
" style="fill:#ffffff;"/>
  </g>
  <g id="axes_1">
   <g id="patch_2">
    <path d="M 135.073438 362.4915 
L 693.073437 362.4915 
L 693.073437 36.3315 
L 135.073438 36.3315 
z
" style="fill:#ffffff;"/>
   </g>
   <g id="PolyCollection_1">
    <defs>
     <path d="M 149.660769 -322.844836 
L 149.660769 -323.047664 
L 154.901471 -323.564763 
L 160.142174 -325.446878 
L 165.382876 -329.711684 
L 170.623579 -335.449395 
L 175.864281 -339.422711 
L 181.104984 -339.813985 
L 186.345686 -338.609997 
L 191.586389 -338.726178 
L 196.827092 -340.722174 
L 202.067794 -343.255729 
L 207.308497 -345.269338 
L 212.549199 -346.495741 
L 217.789902 -347.038892 
L 223.030604 -347.194178 
L 228.271307 -347.350761 
L 233.512009 -347.836538 
L 238.752712 -348.548687 
L 243.993415 -349.315729 
L 249.234117 -350.554707 
L 254.47482 -352.581714 
L 259.715522 -354.615519 
L 264.956225 -355.56225 
L 270.196927 -355.34447 
L 275.43763 -354.584037 
L 280.678332 -353.577226 
L 285.919035 -352.317527 
L 291.159738 -351.049765 
L 296.40044 -350.081567 
L 301.641143 -349.138405 
L 306.881845 -347.574437 
L 312.122548 -345.410624 
L 317.36325 -343.336324 
L 322.603953 -341.625567 
L 327.844655 -340.05874 
L 333.085358 -338.638009 
L 338.326061 -337.485338 
L 343.566763 -336.7135 
L 348.807466 -336.556573 
L 354.048168 -336.970818 
L 359.288871 -337.382492 
L 364.529573 -337.247161 
L 369.770276 -336.646837 
L 375.010978 -335.923341 
L 380.251681 -335.186334 
L 385.492383 -334.389258 
L 390.733086 -333.353642 
L 395.973789 -332.08713 
L 401.214491 -331.01999 
L 406.455194 -330.465488 
L 411.695896 -330.232408 
L 416.936599 -329.941981 
L 422.177301 -329.419105 
L 427.418004 -328.698076 
L 432.658706 -327.874648 
L 437.899409 -327.142815 
L 443.140112 -326.743656 
L 448.380814 -326.637755 
L 453.621517 -326.520119 
L 458.862219 -326.229048 
L 464.102922 -325.824966 
L 469.343624 -325.381662 
L 474.584327 -324.971978 
L 479.825029 -324.738331 
L 485.065732 -324.740152 
L 490.306435 -324.784858 
L 495.547137 -324.672407 
L 500.78784 -324.470639 
L 506.028542 -324.327397 
L 511.269245 -324.243789 
L 516.509947 -324.161915 
L 521.75065 -324.090681 
L 526.991352 -324.042498 
L 532.232055 -323.981739 
L 537.472758 -323.885594 
L 542.71346 -323.750789 
L 547.954163 -323.599173 
L 553.194865 -323.478122 
L 558.435568 -323.40968 
L 563.67627 -323.389327 
L 568.916973 -323.394427 
L 574.157675 -323.387738 
L 579.398378 -323.364008 
L 584.639081 -323.357635 
L 589.879783 -323.376797 
L 595.120486 -323.380576 
L 600.361188 -323.34732 
L 605.601891 -323.291501 
L 610.842593 -323.22731 
L 616.083296 -323.165215 
L 621.323998 -323.116061 
L 626.564701 -323.091624 
L 631.805403 -323.096818 
L 637.046106 -323.116373 
L 642.286809 -323.119988 
L 647.527511 -323.091193 
L 652.768214 -323.041701 
L 658.008916 -322.994143 
L 663.249619 -322.963502 
L 668.490321 -322.950443 
L 668.490321 -322.942057 
L 668.490321 -322.942057 
L 663.249619 -322.928998 
L 658.008916 -322.898357 
L 652.768214 -322.850799 
L 647.527511 -322.801307 
L 642.286809 -322.772512 
L 637.046106 -322.776127 
L 631.805403 -322.795682 
L 626.564701 -322.800876 
L 621.323998 -322.776439 
L 616.083296 -322.727285 
L 610.842593 -322.66519 
L 605.601891 -322.600999 
L 600.361188 -322.54518 
L 595.120486 -322.511924 
L 589.879783 -322.515703 
L 584.639081 -322.534865 
L 579.398378 -322.528492 
L 574.157675 -322.504762 
L 568.916973 -322.498073 
L 563.67627 -322.503173 
L 558.435568 -322.48282 
L 553.194865 -322.414378 
L 547.954163 -322.293327 
L 542.71346 -322.141711 
L 537.472758 -322.006906 
L 532.232055 -321.910761 
L 526.991352 -321.850002 
L 521.75065 -321.801819 
L 516.509947 -321.730585 
L 511.269245 -321.648711 
L 506.028542 -321.565103 
L 500.78784 -321.421861 
L 495.547137 -321.220093 
L 490.306435 -321.107642 
L 485.065732 -321.152348 
L 479.825029 -321.154169 
L 474.584327 -320.920522 
L 469.343624 -320.510838 
L 464.102922 -320.067534 
L 458.862219 -319.663452 
L 453.621517 -319.372381 
L 448.380814 -319.254745 
L 443.140112 -319.148844 
L 437.899409 -318.749685 
L 432.658706 -318.017852 
L 427.418004 -317.194424 
L 422.177301 -316.473395 
L 416.936599 -315.950519 
L 411.695896 -315.660092 
L 406.455194 -315.427012 
L 401.214491 -314.87251 
L 395.973789 -313.80537 
L 390.733086 -312.538858 
L 385.492383 -311.503242 
L 380.251681 -310.706166 
L 375.010978 -309.969159 
L 369.770276 -309.245663 
L 364.529573 -308.645339 
L 359.288871 -308.510008 
L 354.048168 -308.921682 
L 348.807466 -309.335927 
L 343.566763 -309.179 
L 338.326061 -308.407162 
L 333.085358 -307.254491 
L 327.844655 -305.83376 
L 322.603953 -304.266933 
L 317.36325 -302.556176 
L 312.122548 -300.481876 
L 306.881845 -298.318063 
L 301.641143 -296.754095 
L 296.40044 -295.810933 
L 291.159738 -294.842735 
L 285.919035 -293.574973 
L 280.678332 -292.315274 
L 275.43763 -291.308463 
L 270.196927 -290.54803 
L 264.956225 -290.33025 
L 259.715522 -291.276981 
L 254.47482 -293.310786 
L 249.234117 -295.337793 
L 243.993415 -296.576771 
L 238.752712 -297.343813 
L 233.512009 -298.055962 
L 228.271307 -298.541739 
L 223.030604 -298.698322 
L 217.789902 -298.853608 
L 212.549199 -299.396759 
L 207.308497 -300.623162 
L 202.067794 -302.636771 
L 196.827092 -305.170326 
L 191.586389 -307.166322 
L 186.345686 -307.282503 
L 181.104984 -306.078515 
L 175.864281 -306.469789 
L 170.623579 -310.443105 
L 165.382876 -316.180816 
L 160.142174 -320.445622 
L 154.901471 -322.327737 
L 149.660769 -322.844836 
z
" id="m7ae2c5b119" style="stroke:#4c4c4c;stroke-width:1.5;"/>
    </defs>
    <g clip-path="url(#p75e4dfed5b)">
     <use style="fill:#df9c20;stroke:#4c4c4c;stroke-width:1.5;" x="0" xlink:href="#m7ae2c5b119" y="400.04775"/>
    </g>
   </g>
   <g id="PolyCollection_2">
    <defs>
     <path d="M 148.887368 -241.350417 
L 148.887368 -241.462083 
L 154.244662 -241.725311 
L 159.601956 -242.660422 
L 164.959251 -244.810496 
L 170.316545 -247.90863 
L 175.673839 -250.540191 
L 181.031134 -251.682936 
L 186.388428 -252.024311 
L 191.745722 -252.877514 
L 197.103017 -254.54454 
L 202.460311 -256.400092 
L 207.817605 -257.900402 
L 213.1749 -258.921873 
L 218.532194 -259.582287 
L 223.889488 -260.14705 
L 229.246783 -261.002887 
L 234.604077 -262.373072 
L 239.961371 -263.987483 
L 245.318666 -265.492317 
L 250.67596 -267.076167 
L 256.033254 -268.969513 
L 261.390549 -270.685872 
L 266.747843 -271.576819 
L 272.105137 -271.521338 
L 277.462432 -270.597362 
L 282.819726 -269.061539 
L 288.17702 -267.720942 
L 293.534315 -267.240318 
L 298.891609 -267.164224 
L 304.248903 -266.470698 
L 309.606198 -264.963804 
L 314.963492 -263.372918 
L 320.320787 -262.209228 
L 325.678081 -261.282254 
L 331.035375 -260.341178 
L 336.39267 -259.437888 
L 341.749964 -258.728248 
L 347.107258 -258.545877 
L 352.464553 -259.213244 
L 357.821847 -260.274771 
L 363.179141 -260.656193 
L 368.536436 -259.997632 
L 373.89373 -258.896269 
L 379.251024 -257.80105 
L 384.608319 -256.65336 
L 389.965613 -255.293604 
L 395.322907 -253.820907 
L 400.680202 -252.691892 
L 406.037496 -252.240624 
L 411.39479 -252.202589 
L 416.752085 -252.036804 
L 422.109379 -251.469794 
L 427.466673 -250.47338 
L 432.823968 -249.141878 
L 438.181262 -247.869893 
L 443.538556 -247.108472 
L 448.895851 -246.797098 
L 454.253145 -246.520299 
L 459.610439 -246.061354 
L 464.967734 -245.525067 
L 470.325028 -245.064578 
L 475.682322 -244.69889 
L 481.039617 -244.480118 
L 486.396911 -244.454357 
L 491.754205 -244.426196 
L 497.1115 -244.23307 
L 502.468794 -243.99308 
L 507.826088 -243.813219 
L 513.183383 -243.626841 
L 518.540677 -243.406832 
L 523.897972 -243.250656 
L 529.255266 -243.182142 
L 534.61256 -243.086996 
L 539.969855 -242.872553 
L 545.327149 -242.573155 
L 550.684443 -242.311065 
L 556.041738 -242.155361 
L 561.399032 -242.070556 
L 566.756326 -242.017177 
L 572.113621 -241.996445 
L 577.470915 -242.009248 
L 582.828209 -242.047072 
L 588.185504 -242.089414 
L 593.542798 -242.090831 
L 598.900092 -242.029119 
L 604.257387 -241.934382 
L 609.614681 -241.838686 
L 614.971975 -241.748954 
L 620.32927 -241.670709 
L 625.686564 -241.619454 
L 631.043858 -241.598556 
L 636.401153 -241.589477 
L 641.758447 -241.569513 
L 647.115741 -241.527724 
L 652.473036 -241.475663 
L 657.83033 -241.436584 
L 663.187624 -241.417973 
L 668.544919 -241.411107 
L 673.902213 -241.408178 
L 679.259507 -241.40682 
L 679.259507 -241.40568 
L 679.259507 -241.40568 
L 673.902213 -241.404322 
L 668.544919 -241.401393 
L 663.187624 -241.394527 
L 657.83033 -241.375916 
L 652.473036 -241.336837 
L 647.115741 -241.284776 
L 641.758447 -241.242987 
L 636.401153 -241.223023 
L 631.043858 -241.213944 
L 625.686564 -241.193046 
L 620.32927 -241.141791 
L 614.971975 -241.063546 
L 609.614681 -240.973814 
L 604.257387 -240.878118 
L 598.900092 -240.783381 
L 593.542798 -240.721669 
L 588.185504 -240.723086 
L 582.828209 -240.765428 
L 577.470915 -240.803252 
L 572.113621 -240.816055 
L 566.756326 -240.795323 
L 561.399032 -240.741944 
L 556.041738 -240.657139 
L 550.684443 -240.501435 
L 545.327149 -240.239345 
L 539.969855 -239.939947 
L 534.61256 -239.725504 
L 529.255266 -239.630358 
L 523.897972 -239.561844 
L 518.540677 -239.405668 
L 513.183383 -239.185659 
L 507.826088 -238.999281 
L 502.468794 -238.81942 
L 497.1115 -238.57943 
L 491.754205 -238.386304 
L 486.396911 -238.358143 
L 481.039617 -238.332382 
L 475.682322 -238.11361 
L 470.325028 -237.747922 
L 464.967734 -237.287433 
L 459.610439 -236.751146 
L 454.253145 -236.292201 
L 448.895851 -236.015402 
L 443.538556 -235.704028 
L 438.181262 -234.942607 
L 432.823968 -233.670622 
L 427.466673 -232.33912 
L 422.109379 -231.342706 
L 416.752085 -230.775696 
L 411.39479 -230.609911 
L 406.037496 -230.571876 
L 400.680202 -230.120608 
L 395.322907 -228.991593 
L 389.965613 -227.518896 
L 384.608319 -226.15914 
L 379.251024 -225.01145 
L 373.89373 -223.916231 
L 368.536436 -222.814868 
L 363.179141 -222.156307 
L 357.821847 -222.537729 
L 352.464553 -223.599256 
L 347.107258 -224.266623 
L 341.749964 -224.084252 
L 336.39267 -223.374612 
L 331.035375 -222.471322 
L 325.678081 -221.530246 
L 320.320787 -220.603272 
L 314.963492 -219.439582 
L 309.606198 -217.848696 
L 304.248903 -216.341802 
L 298.891609 -215.648276 
L 293.534315 -215.572182 
L 288.17702 -215.091558 
L 282.819726 -213.750961 
L 277.462432 -212.215138 
L 272.105137 -211.291162 
L 266.747843 -211.235681 
L 261.390549 -212.126628 
L 256.033254 -213.842987 
L 250.67596 -215.736333 
L 245.318666 -217.320183 
L 239.961371 -218.825017 
L 234.604077 -220.439428 
L 229.246783 -221.809613 
L 223.889488 -222.66545 
L 218.532194 -223.230213 
L 213.1749 -223.890627 
L 207.817605 -224.912098 
L 202.460311 -226.412408 
L 197.103017 -228.26796 
L 191.745722 -229.934986 
L 186.388428 -230.788189 
L 181.031134 -231.129564 
L 175.673839 -232.272309 
L 170.316545 -234.90387 
L 164.959251 -238.002004 
L 159.601956 -240.152078 
L 154.244662 -241.087189 
L 148.887368 -241.350417 
z
" id="m7d72a83ba6" style="stroke:#4c4c4c;stroke-width:1.5;"/>
    </defs>
    <g clip-path="url(#p75e4dfed5b)">
     <use style="fill:#df9c20;stroke:#4c4c4c;stroke-width:1.5;" x="0" xlink:href="#m7d72a83ba6" y="400.04775"/>
    </g>
   </g>
   <g id="PolyCollection_3">
    <defs>
     <path d="M 148.562344 -159.817194 
L 148.562344 -159.915306 
L 153.80148 -160.124638 
L 159.040616 -160.830839 
L 164.279752 -162.437544 
L 169.518888 -164.848368 
L 174.758024 -167.131829 
L 179.997159 -168.378129 
L 185.236295 -168.828497 
L 190.475431 -169.536653 
L 195.714567 -171.031202 
L 200.953703 -172.859629 
L 206.192839 -174.341045 
L 211.431975 -175.278004 
L 216.671111 -175.885597 
L 221.910247 -176.394963 
L 227.149382 -177.037645 
L 232.388518 -178.098217 
L 237.627654 -179.529656 
L 242.86679 -180.881265 
L 248.105926 -182.003325 
L 253.345062 -183.343214 
L 258.584198 -185.114548 
L 263.823334 -186.773581 
L 269.062469 -187.728037 
L 274.301605 -187.779043 
L 279.540741 -186.902942 
L 284.779877 -185.519067 
L 290.019013 -184.53306 
L 295.258149 -184.39024 
L 300.497285 -184.479908 
L 305.736421 -183.922817 
L 310.975556 -182.676205 
L 316.214692 -181.398926 
L 321.453828 -180.47274 
L 326.692964 -179.769568 
L 331.9321 -179.148066 
L 337.171236 -178.586125 
L 342.410372 -178.1907 
L 347.649508 -178.397367 
L 352.888644 -179.479403 
L 358.127779 -180.744817 
L 363.366915 -181.086948 
L 368.606051 -180.34338 
L 373.845187 -179.236508 
L 379.084323 -178.225217 
L 384.323459 -177.186991 
L 389.562595 -175.878874 
L 394.801731 -174.342654 
L 400.040866 -172.999989 
L 405.280002 -172.282583 
L 410.519138 -172.131213 
L 415.758274 -172.077901 
L 420.99741 -171.748217 
L 426.236546 -170.980343 
L 431.475682 -169.701385 
L 436.714818 -168.143185 
L 441.953953 -166.880309 
L 447.193089 -166.242351 
L 452.432225 -165.989993 
L 457.671361 -165.687808 
L 462.910497 -165.171947 
L 468.149633 -164.600786 
L 473.388769 -164.117007 
L 478.627905 -163.74447 
L 483.867041 -163.546439 
L 489.106176 -163.484492 
L 494.345312 -163.369391 
L 499.584448 -163.151041 
L 504.823584 -162.919178 
L 510.06272 -162.688162 
L 515.301856 -162.441027 
L 520.540992 -162.232696 
L 525.780128 -162.099664 
L 531.019263 -161.98418 
L 536.258399 -161.813533 
L 541.497535 -161.566451 
L 546.736671 -161.280711 
L 551.975807 -161.034624 
L 557.214943 -160.868839 
L 562.454079 -160.767685 
L 567.693215 -160.721285 
L 572.932351 -160.724128 
L 578.171486 -160.742506 
L 583.410622 -160.746216 
L 588.649758 -160.732881 
L 593.888894 -160.69819 
L 599.12803 -160.644784 
L 604.367166 -160.598464 
L 609.606302 -160.562864 
L 614.845438 -160.498527 
L 620.084573 -160.381329 
L 625.323709 -160.247332 
L 630.562845 -160.144663 
L 635.801981 -160.078561 
L 641.041117 -160.028251 
L 646.280253 -159.978969 
L 651.519389 -159.93102 
L 656.758525 -159.894628 
L 661.99766 -159.87529 
L 667.236796 -159.868299 
L 667.236796 -159.864201 
L 667.236796 -159.864201 
L 661.99766 -159.85721 
L 656.758525 -159.837872 
L 651.519389 -159.80148 
L 646.280253 -159.753531 
L 641.041117 -159.704249 
L 635.801981 -159.653939 
L 630.562845 -159.587837 
L 625.323709 -159.485168 
L 620.084573 -159.351171 
L 614.845438 -159.233973 
L 609.606302 -159.169636 
L 604.367166 -159.134036 
L 599.12803 -159.087716 
L 593.888894 -159.03431 
L 588.649758 -158.999619 
L 583.410622 -158.986284 
L 578.171486 -158.989994 
L 572.932351 -159.008372 
L 567.693215 -159.011215 
L 562.454079 -158.964815 
L 557.214943 -158.863661 
L 551.975807 -158.697876 
L 546.736671 -158.451789 
L 541.497535 -158.166049 
L 536.258399 -157.918967 
L 531.019263 -157.74832 
L 525.780128 -157.632836 
L 520.540992 -157.499804 
L 515.301856 -157.291473 
L 510.06272 -157.044338 
L 504.823584 -156.813322 
L 499.584448 -156.581459 
L 494.345312 -156.363109 
L 489.106176 -156.248008 
L 483.867041 -156.186061 
L 478.627905 -155.98803 
L 473.388769 -155.615493 
L 468.149633 -155.131714 
L 462.910497 -154.560553 
L 457.671361 -154.044692 
L 452.432225 -153.742507 
L 447.193089 -153.490149 
L 441.953953 -152.852191 
L 436.714818 -151.589315 
L 431.475682 -150.031115 
L 426.236546 -148.752157 
L 420.99741 -147.984283 
L 415.758274 -147.654599 
L 410.519138 -147.601287 
L 405.280002 -147.449917 
L 400.040866 -146.732511 
L 394.801731 -145.389846 
L 389.562595 -143.853626 
L 384.323459 -142.545509 
L 379.084323 -141.507283 
L 373.845187 -140.495992 
L 368.606051 -139.38912 
L 363.366915 -138.645552 
L 358.127779 -138.987683 
L 352.888644 -140.253097 
L 347.649508 -141.335133 
L 342.410372 -141.5418 
L 337.171236 -141.146375 
L 331.9321 -140.584434 
L 326.692964 -139.962932 
L 321.453828 -139.25976 
L 316.214692 -138.333574 
L 310.975556 -137.056295 
L 305.736421 -135.809683 
L 300.497285 -135.252592 
L 295.258149 -135.34226 
L 290.019013 -135.19944 
L 284.779877 -134.213433 
L 279.540741 -132.829558 
L 274.301605 -131.953457 
L 269.062469 -132.004463 
L 263.823334 -132.958919 
L 258.584198 -134.617952 
L 253.345062 -136.389286 
L 248.105926 -137.729175 
L 242.86679 -138.851235 
L 237.627654 -140.202844 
L 232.388518 -141.634283 
L 227.149382 -142.694855 
L 221.910247 -143.337537 
L 216.671111 -143.846903 
L 211.431975 -144.454496 
L 206.192839 -145.391455 
L 200.953703 -146.872871 
L 195.714567 -148.701298 
L 190.475431 -150.195847 
L 185.236295 -150.904003 
L 179.997159 -151.354371 
L 174.758024 -152.600671 
L 169.518888 -154.884132 
L 164.279752 -157.294956 
L 159.040616 -158.901661 
L 153.80148 -159.607862 
L 148.562344 -159.817194 
z
" id="m00faf07319" style="stroke:#4c4c4c;stroke-width:1.5;"/>
    </defs>
    <g clip-path="url(#p75e4dfed5b)">
     <use style="fill:#df9c20;stroke:#4c4c4c;stroke-width:1.5;" x="0" xlink:href="#m00faf07319" y="400.04775"/>
    </g>
   </g>
   <g id="PolyCollection_4">
    <defs>
     <path d="M 147.909534 -78.271422 
L 147.909534 -78.381078 
L 153.286583 -78.611354 
L 158.663631 -79.373108 
L 164.04068 -81.075967 
L 169.417729 -83.615292 
L 174.794777 -86.083789 
L 180.171826 -87.616179 
L 185.548874 -88.400625 
L 190.925923 -89.307236 
L 196.302971 -90.690407 
L 201.68002 -92.075913 
L 207.057068 -92.971266 
L 212.434117 -93.522831 
L 217.811165 -94.123546 
L 223.188214 -94.761687 
L 228.565263 -95.312275 
L 233.942311 -95.99479 
L 239.31936 -96.990814 
L 244.696408 -98.257603 
L 250.073457 -99.947162 
L 255.450505 -102.162489 
L 260.827554 -104.348518 
L 266.204602 -105.776589 
L 271.581651 -106.257264 
L 276.9587 -105.833411 
L 282.335748 -104.652629 
L 287.712797 -103.343296 
L 293.089845 -102.586613 
L 298.466894 -102.332571 
L 303.843942 -101.953243 
L 309.220991 -101.08745 
L 314.598039 -99.998546 
L 319.975088 -99.080525 
L 325.352136 -98.409253 
L 330.729185 -97.867524 
L 336.106234 -97.332332 
L 341.483282 -96.821279 
L 346.860331 -96.726134 
L 352.237379 -97.436726 
L 357.614428 -98.54322 
L 362.991476 -99.092099 
L 368.368525 -98.704448 
L 373.745573 -97.807975 
L 379.122622 -96.871538 
L 384.49967 -95.906006 
L 389.876719 -94.658856 
L 395.253768 -93.134785 
L 400.630816 -91.806734 
L 406.007865 -91.124358 
L 411.384913 -90.942589 
L 416.761962 -90.753245 
L 422.13901 -90.266077 
L 427.516059 -89.393581 
L 432.893107 -88.088411 
L 438.270156 -86.597679 
L 443.647205 -85.402057 
L 449.024253 -84.693829 
L 454.401302 -84.255338 
L 459.77835 -83.81169 
L 465.155399 -83.326907 
L 470.532447 -82.9068 
L 475.909496 -82.550812 
L 481.286544 -82.245434 
L 486.663593 -82.045875 
L 492.040641 -81.900665 
L 497.41769 -81.70036 
L 502.794739 -81.434918 
L 508.171787 -81.143095 
L 513.548836 -80.861342 
L 518.925884 -80.638288 
L 524.302933 -80.489178 
L 529.679981 -80.366685 
L 535.05703 -80.215324 
L 540.434078 -80.010369 
L 545.811127 -79.763601 
L 551.188175 -79.52524 
L 556.565224 -79.346127 
L 561.942273 -79.246256 
L 567.319321 -79.220555 
L 572.69637 -79.234945 
L 578.073418 -79.246298 
L 583.450467 -79.244522 
L 588.827515 -79.232198 
L 594.204564 -79.190547 
L 599.581612 -79.119913 
L 604.958661 -79.058669 
L 610.33571 -79.015481 
L 615.712758 -78.939965 
L 621.089807 -78.807847 
L 626.466855 -78.673589 
L 631.843904 -78.586521 
L 637.220952 -78.529611 
L 642.598001 -78.472066 
L 647.975049 -78.414158 
L 653.352098 -78.370824 
L 658.729146 -78.347912 
L 664.106195 -78.338573 
L 669.483244 -78.333624 
L 674.860292 -78.329762 
L 680.237341 -78.32741 
L 680.237341 -78.32509 
L 680.237341 -78.32509 
L 674.860292 -78.322738 
L 669.483244 -78.318876 
L 664.106195 -78.313927 
L 658.729146 -78.304588 
L 653.352098 -78.281676 
L 647.975049 -78.238342 
L 642.598001 -78.180434 
L 637.220952 -78.122889 
L 631.843904 -78.065979 
L 626.466855 -77.978911 
L 621.089807 -77.844653 
L 615.712758 -77.712535 
L 610.33571 -77.637019 
L 604.958661 -77.593831 
L 599.581612 -77.532587 
L 594.204564 -77.461953 
L 588.827515 -77.420302 
L 583.450467 -77.407978 
L 578.073418 -77.406202 
L 572.69637 -77.417555 
L 567.319321 -77.431945 
L 561.942273 -77.406244 
L 556.565224 -77.306373 
L 551.188175 -77.12726 
L 545.811127 -76.888899 
L 540.434078 -76.642131 
L 535.05703 -76.437176 
L 529.679981 -76.285815 
L 524.302933 -76.163322 
L 518.925884 -76.014212 
L 513.548836 -75.791158 
L 508.171787 -75.509405 
L 502.794739 -75.217582 
L 497.41769 -74.95214 
L 492.040641 -74.751835 
L 486.663593 -74.606625 
L 481.286544 -74.407066 
L 475.909496 -74.101688 
L 470.532447 -73.7457 
L 465.155399 -73.325593 
L 459.77835 -72.84081 
L 454.401302 -72.397162 
L 449.024253 -71.958671 
L 443.647205 -71.250443 
L 438.270156 -70.054821 
L 432.893107 -68.564089 
L 427.516059 -67.258919 
L 422.13901 -66.386423 
L 416.761962 -65.899255 
L 411.384913 -65.709911 
L 406.007865 -65.528142 
L 400.630816 -64.845766 
L 395.253768 -63.517715 
L 389.876719 -61.993644 
L 384.49967 -60.746494 
L 379.122622 -59.780962 
L 373.745573 -58.844525 
L 368.368525 -57.948052 
L 362.991476 -57.560401 
L 357.614428 -58.10928 
L 352.237379 -59.215774 
L 346.860331 -59.926366 
L 341.483282 -59.831221 
L 336.106234 -59.320168 
L 330.729185 -58.784976 
L 325.352136 -58.243247 
L 319.975088 -57.571975 
L 314.598039 -56.653954 
L 309.220991 -55.56505 
L 303.843942 -54.699257 
L 298.466894 -54.319929 
L 293.089845 -54.065887 
L 287.712797 -53.309204 
L 282.335748 -51.999871 
L 276.9587 -50.819089 
L 271.581651 -50.395236 
L 266.204602 -50.875911 
L 260.827554 -52.303982 
L 255.450505 -54.490011 
L 250.073457 -56.705338 
L 244.696408 -58.394897 
L 239.31936 -59.661686 
L 233.942311 -60.65771 
L 228.565263 -61.340225 
L 223.188214 -61.890813 
L 217.811165 -62.528954 
L 212.434117 -63.129669 
L 207.057068 -63.681234 
L 201.68002 -64.576587 
L 196.302971 -65.962093 
L 190.925923 -67.345264 
L 185.548874 -68.251875 
L 180.171826 -69.036321 
L 174.794777 -70.568711 
L 169.417729 -73.037208 
L 164.04068 -75.576533 
L 158.663631 -77.279392 
L 153.286583 -78.041146 
L 147.909534 -78.271422 
z
" id="m6fca283a32" style="stroke:#4c4c4c;stroke-width:1.5;"/>
    </defs>
    <g clip-path="url(#p75e4dfed5b)">
     <use style="fill:#df9c20;stroke:#4c4c4c;stroke-width:1.5;" x="0" xlink:href="#m6fca283a32" y="400.04775"/>
    </g>
   </g>
   <g id="matplotlib.axis_1">
    <g id="xtick_1">
     <g id="line2d_1">
      <defs>
       <path d="M 0 0 
L 0 3.5 
" id="m5e6030eaca" style="stroke:#000000;stroke-width:0.8;"/>
      </defs>
      <g>
       <use style="stroke:#000000;stroke-width:0.8;" x="145.65721" xlink:href="#m5e6030eaca" y="362.4915"/>
      </g>
     </g>
     <g id="text_1">
      <!-- 0.0 -->
      <defs>
       <path d="M 31.78125 66.40625 
Q 24.171875 66.40625 20.328125 58.90625 
Q 16.5 51.421875 16.5 36.375 
Q 16.5 21.390625 20.328125 13.890625 
Q 24.171875 6.390625 31.78125 6.390625 
Q 39.453125 6.390625 43.28125 13.890625 
Q 47.125 21.390625 47.125 36.375 
Q 47.125 51.421875 43.28125 58.90625 
Q 39.453125 66.40625 31.78125 66.40625 
z
M 31.78125 74.21875 
Q 44.046875 74.21875 50.515625 64.515625 
Q 56.984375 54.828125 56.984375 36.375 
Q 56.984375 17.96875 50.515625 8.265625 
Q 44.046875 -1.421875 31.78125 -1.421875 
Q 19.53125 -1.421875 13.0625 8.265625 
Q 6.59375 17.96875 6.59375 36.375 
Q 6.59375 54.828125 13.0625 64.515625 
Q 19.53125 74.21875 31.78125 74.21875 
z
" id="DejaVuSans-48"/>
       <path d="M 10.6875 12.40625 
L 21 12.40625 
L 21 0 
L 10.6875 0 
z
" id="DejaVuSans-46"/>
      </defs>
      <g transform="translate(137.705647 377.089938)scale(0.1 -0.1)">
       <use xlink:href="#DejaVuSans-48"/>
       <use x="63.623047" xlink:href="#DejaVuSans-46"/>
       <use x="95.410156" xlink:href="#DejaVuSans-48"/>
      </g>
     </g>
    </g>
    <g id="xtick_2">
     <g id="line2d_2">
      <g>
       <use style="stroke:#000000;stroke-width:0.8;" x="263.254681" xlink:href="#m5e6030eaca" y="362.4915"/>
      </g>
     </g>
     <g id="text_2">
      <!-- 0.2 -->
      <defs>
       <path d="M 19.1875 8.296875 
L 53.609375 8.296875 
L 53.609375 0 
L 7.328125 0 
L 7.328125 8.296875 
Q 12.9375 14.109375 22.625 23.890625 
Q 32.328125 33.6875 34.8125 36.53125 
Q 39.546875 41.84375 41.421875 45.53125 
Q 43.3125 49.21875 43.3125 52.78125 
Q 43.3125 58.59375 39.234375 62.25 
Q 35.15625 65.921875 28.609375 65.921875 
Q 23.96875 65.921875 18.8125 64.3125 
Q 13.671875 62.703125 7.8125 59.421875 
L 7.8125 69.390625 
Q 13.765625 71.78125 18.9375 73 
Q 24.125 74.21875 28.421875 74.21875 
Q 39.75 74.21875 46.484375 68.546875 
Q 53.21875 62.890625 53.21875 53.421875 
Q 53.21875 48.921875 51.53125 44.890625 
Q 49.859375 40.875 45.40625 35.40625 
Q 44.1875 33.984375 37.640625 27.21875 
Q 31.109375 20.453125 19.1875 8.296875 
z
" id="DejaVuSans-50"/>
      </defs>
      <g transform="translate(255.303118 377.089938)scale(0.1 -0.1)">
       <use xlink:href="#DejaVuSans-48"/>
       <use x="63.623047" xlink:href="#DejaVuSans-46"/>
       <use x="95.410156" xlink:href="#DejaVuSans-50"/>
      </g>
     </g>
    </g>
    <g id="xtick_3">
     <g id="line2d_3">
      <g>
       <use style="stroke:#000000;stroke-width:0.8;" x="380.852152" xlink:href="#m5e6030eaca" y="362.4915"/>
      </g>
     </g>
     <g id="text_3">
      <!-- 0.4 -->
      <defs>
       <path d="M 37.796875 64.3125 
L 12.890625 25.390625 
L 37.796875 25.390625 
z
M 35.203125 72.90625 
L 47.609375 72.90625 
L 47.609375 25.390625 
L 58.015625 25.390625 
L 58.015625 17.1875 
L 47.609375 17.1875 
L 47.609375 0 
L 37.796875 0 
L 37.796875 17.1875 
L 4.890625 17.1875 
L 4.890625 26.703125 
z
" id="DejaVuSans-52"/>
      </defs>
      <g transform="translate(372.900589 377.089938)scale(0.1 -0.1)">
       <use xlink:href="#DejaVuSans-48"/>
       <use x="63.623047" xlink:href="#DejaVuSans-46"/>
       <use x="95.410156" xlink:href="#DejaVuSans-52"/>
      </g>
     </g>
    </g>
    <g id="xtick_4">
     <g id="line2d_4">
      <g>
       <use style="stroke:#000000;stroke-width:0.8;" x="498.449623" xlink:href="#m5e6030eaca" y="362.4915"/>
      </g>
     </g>
     <g id="text_4">
      <!-- 0.6 -->
      <defs>
       <path d="M 33.015625 40.375 
Q 26.375 40.375 22.484375 35.828125 
Q 18.609375 31.296875 18.609375 23.390625 
Q 18.609375 15.53125 22.484375 10.953125 
Q 26.375 6.390625 33.015625 6.390625 
Q 39.65625 6.390625 43.53125 10.953125 
Q 47.40625 15.53125 47.40625 23.390625 
Q 47.40625 31.296875 43.53125 35.828125 
Q 39.65625 40.375 33.015625 40.375 
z
M 52.59375 71.296875 
L 52.59375 62.3125 
Q 48.875 64.0625 45.09375 64.984375 
Q 41.3125 65.921875 37.59375 65.921875 
Q 27.828125 65.921875 22.671875 59.328125 
Q 17.53125 52.734375 16.796875 39.40625 
Q 19.671875 43.65625 24.015625 45.921875 
Q 28.375 48.1875 33.59375 48.1875 
Q 44.578125 48.1875 50.953125 41.515625 
Q 57.328125 34.859375 57.328125 23.390625 
Q 57.328125 12.15625 50.6875 5.359375 
Q 44.046875 -1.421875 33.015625 -1.421875 
Q 20.359375 -1.421875 13.671875 8.265625 
Q 6.984375 17.96875 6.984375 36.375 
Q 6.984375 53.65625 15.1875 63.9375 
Q 23.390625 74.21875 37.203125 74.21875 
Q 40.921875 74.21875 44.703125 73.484375 
Q 48.484375 72.75 52.59375 71.296875 
z
" id="DejaVuSans-54"/>
      </defs>
      <g transform="translate(490.49806 377.089938)scale(0.1 -0.1)">
       <use xlink:href="#DejaVuSans-48"/>
       <use x="63.623047" xlink:href="#DejaVuSans-46"/>
       <use x="95.410156" xlink:href="#DejaVuSans-54"/>
      </g>
     </g>
    </g>
    <g id="xtick_5">
     <g id="line2d_5">
      <g>
       <use style="stroke:#000000;stroke-width:0.8;" x="616.047094" xlink:href="#m5e6030eaca" y="362.4915"/>
      </g>
     </g>
     <g id="text_5">
      <!-- 0.8 -->
      <defs>
       <path d="M 31.78125 34.625 
Q 24.75 34.625 20.71875 30.859375 
Q 16.703125 27.09375 16.703125 20.515625 
Q 16.703125 13.921875 20.71875 10.15625 
Q 24.75 6.390625 31.78125 6.390625 
Q 38.8125 6.390625 42.859375 10.171875 
Q 46.921875 13.96875 46.921875 20.515625 
Q 46.921875 27.09375 42.890625 30.859375 
Q 38.875 34.625 31.78125 34.625 
z
M 21.921875 38.8125 
Q 15.578125 40.375 12.03125 44.71875 
Q 8.5 49.078125 8.5 55.328125 
Q 8.5 64.0625 14.71875 69.140625 
Q 20.953125 74.21875 31.78125 74.21875 
Q 42.671875 74.21875 48.875 69.140625 
Q 55.078125 64.0625 55.078125 55.328125 
Q 55.078125 49.078125 51.53125 44.71875 
Q 48 40.375 41.703125 38.8125 
Q 48.828125 37.15625 52.796875 32.3125 
Q 56.78125 27.484375 56.78125 20.515625 
Q 56.78125 9.90625 50.3125 4.234375 
Q 43.84375 -1.421875 31.78125 -1.421875 
Q 19.734375 -1.421875 13.25 4.234375 
Q 6.78125 9.90625 6.78125 20.515625 
Q 6.78125 27.484375 10.78125 32.3125 
Q 14.796875 37.15625 21.921875 38.8125 
z
M 18.3125 54.390625 
Q 18.3125 48.734375 21.84375 45.5625 
Q 25.390625 42.390625 31.78125 42.390625 
Q 38.140625 42.390625 41.71875 45.5625 
Q 45.3125 48.734375 45.3125 54.390625 
Q 45.3125 60.0625 41.71875 63.234375 
Q 38.140625 66.40625 31.78125 66.40625 
Q 25.390625 66.40625 21.84375 63.234375 
Q 18.3125 60.0625 18.3125 54.390625 
z
" id="DejaVuSans-56"/>
      </defs>
      <g transform="translate(608.095531 377.089938)scale(0.1 -0.1)">
       <use xlink:href="#DejaVuSans-48"/>
       <use x="63.623047" xlink:href="#DejaVuSans-46"/>
       <use x="95.410156" xlink:href="#DejaVuSans-56"/>
      </g>
     </g>
    </g>
    <g id="text_6">
     <!-- ICSE -->
     <defs>
      <path d="M 9.8125 72.90625 
L 19.671875 72.90625 
L 19.671875 0 
L 9.8125 0 
z
" id="DejaVuSans-73"/>
      <path d="M 64.40625 67.28125 
L 64.40625 56.890625 
Q 59.421875 61.53125 53.78125 63.8125 
Q 48.140625 66.109375 41.796875 66.109375 
Q 29.296875 66.109375 22.65625 58.46875 
Q 16.015625 50.828125 16.015625 36.375 
Q 16.015625 21.96875 22.65625 14.328125 
Q 29.296875 6.6875 41.796875 6.6875 
Q 48.140625 6.6875 53.78125 8.984375 
Q 59.421875 11.28125 64.40625 15.921875 
L 64.40625 5.609375 
Q 59.234375 2.09375 53.4375 0.328125 
Q 47.65625 -1.421875 41.21875 -1.421875 
Q 24.65625 -1.421875 15.125 8.703125 
Q 5.609375 18.84375 5.609375 36.375 
Q 5.609375 53.953125 15.125 64.078125 
Q 24.65625 74.21875 41.21875 74.21875 
Q 47.75 74.21875 53.53125 72.484375 
Q 59.328125 70.75 64.40625 67.28125 
z
" id="DejaVuSans-67"/>
      <path d="M 53.515625 70.515625 
L 53.515625 60.890625 
Q 47.90625 63.578125 42.921875 64.890625 
Q 37.9375 66.21875 33.296875 66.21875 
Q 25.25 66.21875 20.875 63.09375 
Q 16.5 59.96875 16.5 54.203125 
Q 16.5 49.359375 19.40625 46.890625 
Q 22.3125 44.4375 30.421875 42.921875 
L 36.375 41.703125 
Q 47.40625 39.59375 52.65625 34.296875 
Q 57.90625 29 57.90625 20.125 
Q 57.90625 9.515625 50.796875 4.046875 
Q 43.703125 -1.421875 29.984375 -1.421875 
Q 24.8125 -1.421875 18.96875 -0.25 
Q 13.140625 0.921875 6.890625 3.21875 
L 6.890625 13.375 
Q 12.890625 10.015625 18.65625 8.296875 
Q 24.421875 6.59375 29.984375 6.59375 
Q 38.421875 6.59375 43.015625 9.90625 
Q 47.609375 13.234375 47.609375 19.390625 
Q 47.609375 24.75 44.3125 27.78125 
Q 41.015625 30.8125 33.5 32.328125 
L 27.484375 33.5 
Q 16.453125 35.6875 11.515625 40.375 
Q 6.59375 45.0625 6.59375 53.421875 
Q 6.59375 63.09375 13.40625 68.65625 
Q 20.21875 74.21875 32.171875 74.21875 
Q 37.3125 74.21875 42.625 73.28125 
Q 47.953125 72.359375 53.515625 70.515625 
z
" id="DejaVuSans-83"/>
      <path d="M 9.8125 72.90625 
L 55.90625 72.90625 
L 55.90625 64.59375 
L 19.671875 64.59375 
L 19.671875 43.015625 
L 54.390625 43.015625 
L 54.390625 34.71875 
L 19.671875 34.71875 
L 19.671875 8.296875 
L 56.78125 8.296875 
L 56.78125 0 
L 9.8125 0 
z
" id="DejaVuSans-69"/>
     </defs>
     <g transform="translate(402.773438 390.768062)scale(0.1 -0.1)">
      <use xlink:href="#DejaVuSans-73"/>
      <use x="29.492188" xlink:href="#DejaVuSans-67"/>
      <use x="99.316406" xlink:href="#DejaVuSans-83"/>
      <use x="162.792969" xlink:href="#DejaVuSans-69"/>
     </g>
    </g>
   </g>
   <g id="matplotlib.axis_2">
    <g id="ytick_1">
     <g id="line2d_6">
      <defs>
       <path d="M 0 0 
L -3.5 0 
" id="mee2e7cf4ff" style="stroke:#000000;stroke-width:0.8;"/>
      </defs>
      <g>
       <use style="stroke:#000000;stroke-width:0.8;" x="135.073438" xlink:href="#mee2e7cf4ff" y="77.1015"/>
      </g>
     </g>
     <g id="text_7">
      <!-- Avanzado -->
      <defs>
       <path d="M 34.1875 63.1875 
L 20.796875 26.90625 
L 47.609375 26.90625 
z
M 28.609375 72.90625 
L 39.796875 72.90625 
L 67.578125 0 
L 57.328125 0 
L 50.6875 18.703125 
L 17.828125 18.703125 
L 11.1875 0 
L 0.78125 0 
z
" id="DejaVuSans-65"/>
       <path d="M 2.984375 54.6875 
L 12.5 54.6875 
L 29.59375 8.796875 
L 46.6875 54.6875 
L 56.203125 54.6875 
L 35.6875 0 
L 23.484375 0 
z
" id="DejaVuSans-118"/>
       <path d="M 34.28125 27.484375 
Q 23.390625 27.484375 19.1875 25 
Q 14.984375 22.515625 14.984375 16.5 
Q 14.984375 11.71875 18.140625 8.90625 
Q 21.296875 6.109375 26.703125 6.109375 
Q 34.1875 6.109375 38.703125 11.40625 
Q 43.21875 16.703125 43.21875 25.484375 
L 43.21875 27.484375 
z
M 52.203125 31.203125 
L 52.203125 0 
L 43.21875 0 
L 43.21875 8.296875 
Q 40.140625 3.328125 35.546875 0.953125 
Q 30.953125 -1.421875 24.3125 -1.421875 
Q 15.921875 -1.421875 10.953125 3.296875 
Q 6 8.015625 6 15.921875 
Q 6 25.140625 12.171875 29.828125 
Q 18.359375 34.515625 30.609375 34.515625 
L 43.21875 34.515625 
L 43.21875 35.40625 
Q 43.21875 41.609375 39.140625 45 
Q 35.0625 48.390625 27.6875 48.390625 
Q 23 48.390625 18.546875 47.265625 
Q 14.109375 46.140625 10.015625 43.890625 
L 10.015625 52.203125 
Q 14.9375 54.109375 19.578125 55.046875 
Q 24.21875 56 28.609375 56 
Q 40.484375 56 46.34375 49.84375 
Q 52.203125 43.703125 52.203125 31.203125 
z
" id="DejaVuSans-97"/>
       <path d="M 54.890625 33.015625 
L 54.890625 0 
L 45.90625 0 
L 45.90625 32.71875 
Q 45.90625 40.484375 42.875 44.328125 
Q 39.84375 48.1875 33.796875 48.1875 
Q 26.515625 48.1875 22.3125 43.546875 
Q 18.109375 38.921875 18.109375 30.90625 
L 18.109375 0 
L 9.078125 0 
L 9.078125 54.6875 
L 18.109375 54.6875 
L 18.109375 46.1875 
Q 21.34375 51.125 25.703125 53.5625 
Q 30.078125 56 35.796875 56 
Q 45.21875 56 50.046875 50.171875 
Q 54.890625 44.34375 54.890625 33.015625 
z
" id="DejaVuSans-110"/>
       <path d="M 5.515625 54.6875 
L 48.1875 54.6875 
L 48.1875 46.484375 
L 14.40625 7.171875 
L 48.1875 7.171875 
L 48.1875 0 
L 4.296875 0 
L 4.296875 8.203125 
L 38.09375 47.515625 
L 5.515625 47.515625 
z
" id="DejaVuSans-122"/>
       <path d="M 45.40625 46.390625 
L 45.40625 75.984375 
L 54.390625 75.984375 
L 54.390625 0 
L 45.40625 0 
L 45.40625 8.203125 
Q 42.578125 3.328125 38.25 0.953125 
Q 33.9375 -1.421875 27.875 -1.421875 
Q 17.96875 -1.421875 11.734375 6.484375 
Q 5.515625 14.40625 5.515625 27.296875 
Q 5.515625 40.1875 11.734375 48.09375 
Q 17.96875 56 27.875 56 
Q 33.9375 56 38.25 53.625 
Q 42.578125 51.265625 45.40625 46.390625 
z
M 14.796875 27.296875 
Q 14.796875 17.390625 18.875 11.75 
Q 22.953125 6.109375 30.078125 6.109375 
Q 37.203125 6.109375 41.296875 11.75 
Q 45.40625 17.390625 45.40625 27.296875 
Q 45.40625 37.203125 41.296875 42.84375 
Q 37.203125 48.484375 30.078125 48.484375 
Q 22.953125 48.484375 18.875 42.84375 
Q 14.796875 37.203125 14.796875 27.296875 
z
" id="DejaVuSans-100"/>
       <path d="M 30.609375 48.390625 
Q 23.390625 48.390625 19.1875 42.75 
Q 14.984375 37.109375 14.984375 27.296875 
Q 14.984375 17.484375 19.15625 11.84375 
Q 23.34375 6.203125 30.609375 6.203125 
Q 37.796875 6.203125 41.984375 11.859375 
Q 46.1875 17.53125 46.1875 27.296875 
Q 46.1875 37.015625 41.984375 42.703125 
Q 37.796875 48.390625 30.609375 48.390625 
z
M 30.609375 56 
Q 42.328125 56 49.015625 48.375 
Q 55.71875 40.765625 55.71875 27.296875 
Q 55.71875 13.875 49.015625 6.21875 
Q 42.328125 -1.421875 30.609375 -1.421875 
Q 18.84375 -1.421875 12.171875 6.21875 
Q 5.515625 13.875 5.515625 27.296875 
Q 5.515625 40.765625 12.171875 48.375 
Q 18.84375 56 30.609375 56 
z
" id="DejaVuSans-111"/>
      </defs>
      <g transform="translate(79.0125 80.900719)scale(0.1 -0.1)">
       <use xlink:href="#DejaVuSans-65"/>
       <use x="68.330078" xlink:href="#DejaVuSans-118"/>
       <use x="127.509766" xlink:href="#DejaVuSans-97"/>
       <use x="188.789062" xlink:href="#DejaVuSans-110"/>
       <use x="252.167969" xlink:href="#DejaVuSans-122"/>
       <use x="304.658203" xlink:href="#DejaVuSans-97"/>
       <use x="365.9375" xlink:href="#DejaVuSans-100"/>
       <use x="429.414062" xlink:href="#DejaVuSans-111"/>
      </g>
     </g>
    </g>
    <g id="ytick_2">
     <g id="line2d_7">
      <g>
       <use style="stroke:#000000;stroke-width:0.8;" x="135.073438" xlink:href="#mee2e7cf4ff" y="158.6415"/>
      </g>
     </g>
     <g id="text_8">
      <!-- Satisfactorio -->
      <defs>
       <path d="M 18.3125 70.21875 
L 18.3125 54.6875 
L 36.8125 54.6875 
L 36.8125 47.703125 
L 18.3125 47.703125 
L 18.3125 18.015625 
Q 18.3125 11.328125 20.140625 9.421875 
Q 21.96875 7.515625 27.59375 7.515625 
L 36.8125 7.515625 
L 36.8125 0 
L 27.59375 0 
Q 17.1875 0 13.234375 3.875 
Q 9.28125 7.765625 9.28125 18.015625 
L 9.28125 47.703125 
L 2.6875 47.703125 
L 2.6875 54.6875 
L 9.28125 54.6875 
L 9.28125 70.21875 
z
" id="DejaVuSans-116"/>
       <path d="M 9.421875 54.6875 
L 18.40625 54.6875 
L 18.40625 0 
L 9.421875 0 
z
M 9.421875 75.984375 
L 18.40625 75.984375 
L 18.40625 64.59375 
L 9.421875 64.59375 
z
" id="DejaVuSans-105"/>
       <path d="M 44.28125 53.078125 
L 44.28125 44.578125 
Q 40.484375 46.53125 36.375 47.5 
Q 32.28125 48.484375 27.875 48.484375 
Q 21.1875 48.484375 17.84375 46.4375 
Q 14.5 44.390625 14.5 40.28125 
Q 14.5 37.15625 16.890625 35.375 
Q 19.28125 33.59375 26.515625 31.984375 
L 29.59375 31.296875 
Q 39.15625 29.25 43.1875 25.515625 
Q 47.21875 21.78125 47.21875 15.09375 
Q 47.21875 7.46875 41.1875 3.015625 
Q 35.15625 -1.421875 24.609375 -1.421875 
Q 20.21875 -1.421875 15.453125 -0.5625 
Q 10.6875 0.296875 5.421875 2 
L 5.421875 11.28125 
Q 10.40625 8.6875 15.234375 7.390625 
Q 20.0625 6.109375 24.8125 6.109375 
Q 31.15625 6.109375 34.5625 8.28125 
Q 37.984375 10.453125 37.984375 14.40625 
Q 37.984375 18.0625 35.515625 20.015625 
Q 33.0625 21.96875 24.703125 23.78125 
L 21.578125 24.515625 
Q 13.234375 26.265625 9.515625 29.90625 
Q 5.8125 33.546875 5.8125 39.890625 
Q 5.8125 47.609375 11.28125 51.796875 
Q 16.75 56 26.8125 56 
Q 31.78125 56 36.171875 55.265625 
Q 40.578125 54.546875 44.28125 53.078125 
z
" id="DejaVuSans-115"/>
       <path d="M 37.109375 75.984375 
L 37.109375 68.5 
L 28.515625 68.5 
Q 23.6875 68.5 21.796875 66.546875 
Q 19.921875 64.59375 19.921875 59.515625 
L 19.921875 54.6875 
L 34.71875 54.6875 
L 34.71875 47.703125 
L 19.921875 47.703125 
L 19.921875 0 
L 10.890625 0 
L 10.890625 47.703125 
L 2.296875 47.703125 
L 2.296875 54.6875 
L 10.890625 54.6875 
L 10.890625 58.5 
Q 10.890625 67.625 15.140625 71.796875 
Q 19.390625 75.984375 28.609375 75.984375 
z
" id="DejaVuSans-102"/>
       <path d="M 48.78125 52.59375 
L 48.78125 44.1875 
Q 44.96875 46.296875 41.140625 47.34375 
Q 37.3125 48.390625 33.40625 48.390625 
Q 24.65625 48.390625 19.8125 42.84375 
Q 14.984375 37.3125 14.984375 27.296875 
Q 14.984375 17.28125 19.8125 11.734375 
Q 24.65625 6.203125 33.40625 6.203125 
Q 37.3125 6.203125 41.140625 7.25 
Q 44.96875 8.296875 48.78125 10.40625 
L 48.78125 2.09375 
Q 45.015625 0.34375 40.984375 -0.53125 
Q 36.96875 -1.421875 32.421875 -1.421875 
Q 20.0625 -1.421875 12.78125 6.34375 
Q 5.515625 14.109375 5.515625 27.296875 
Q 5.515625 40.671875 12.859375 48.328125 
Q 20.21875 56 33.015625 56 
Q 37.15625 56 41.109375 55.140625 
Q 45.0625 54.296875 48.78125 52.59375 
z
" id="DejaVuSans-99"/>
       <path d="M 41.109375 46.296875 
Q 39.59375 47.171875 37.8125 47.578125 
Q 36.03125 48 33.890625 48 
Q 26.265625 48 22.1875 43.046875 
Q 18.109375 38.09375 18.109375 28.8125 
L 18.109375 0 
L 9.078125 0 
L 9.078125 54.6875 
L 18.109375 54.6875 
L 18.109375 46.1875 
Q 20.953125 51.171875 25.484375 53.578125 
Q 30.03125 56 36.53125 56 
Q 37.453125 56 38.578125 55.875 
Q 39.703125 55.765625 41.0625 55.515625 
z
" id="DejaVuSans-114"/>
      </defs>
      <g transform="translate(65.495313 162.440719)scale(0.1 -0.1)">
       <use xlink:href="#DejaVuSans-83"/>
       <use x="63.476562" xlink:href="#DejaVuSans-97"/>
       <use x="124.755859" xlink:href="#DejaVuSans-116"/>
       <use x="163.964844" xlink:href="#DejaVuSans-105"/>
       <use x="191.748047" xlink:href="#DejaVuSans-115"/>
       <use x="243.847656" xlink:href="#DejaVuSans-102"/>
       <use x="279.052734" xlink:href="#DejaVuSans-97"/>
       <use x="340.332031" xlink:href="#DejaVuSans-99"/>
       <use x="395.3125" xlink:href="#DejaVuSans-116"/>
       <use x="434.521484" xlink:href="#DejaVuSans-111"/>
       <use x="495.703125" xlink:href="#DejaVuSans-114"/>
       <use x="536.816406" xlink:href="#DejaVuSans-105"/>
       <use x="564.599609" xlink:href="#DejaVuSans-111"/>
      </g>
     </g>
    </g>
    <g id="ytick_3">
     <g id="line2d_8">
      <g>
       <use style="stroke:#000000;stroke-width:0.8;" x="135.073438" xlink:href="#mee2e7cf4ff" y="240.1815"/>
      </g>
     </g>
     <g id="text_9">
      <!-- Básico -->
      <defs>
       <path d="M 19.671875 34.8125 
L 19.671875 8.109375 
L 35.5 8.109375 
Q 43.453125 8.109375 47.28125 11.40625 
Q 51.125 14.703125 51.125 21.484375 
Q 51.125 28.328125 47.28125 31.5625 
Q 43.453125 34.8125 35.5 34.8125 
z
M 19.671875 64.796875 
L 19.671875 42.828125 
L 34.28125 42.828125 
Q 41.5 42.828125 45.03125 45.53125 
Q 48.578125 48.25 48.578125 53.8125 
Q 48.578125 59.328125 45.03125 62.0625 
Q 41.5 64.796875 34.28125 64.796875 
z
M 9.8125 72.90625 
L 35.015625 72.90625 
Q 46.296875 72.90625 52.390625 68.21875 
Q 58.5 63.53125 58.5 54.890625 
Q 58.5 48.1875 55.375 44.234375 
Q 52.25 40.28125 46.1875 39.3125 
Q 53.46875 37.75 57.5 32.78125 
Q 61.53125 27.828125 61.53125 20.40625 
Q 61.53125 10.640625 54.890625 5.3125 
Q 48.25 0 35.984375 0 
L 9.8125 0 
z
" id="DejaVuSans-66"/>
       <path d="M 34.28125 27.484375 
Q 23.390625 27.484375 19.1875 25 
Q 14.984375 22.515625 14.984375 16.5 
Q 14.984375 11.71875 18.140625 8.90625 
Q 21.296875 6.109375 26.703125 6.109375 
Q 34.1875 6.109375 38.703125 11.40625 
Q 43.21875 16.703125 43.21875 25.484375 
L 43.21875 27.484375 
z
M 52.203125 31.203125 
L 52.203125 0 
L 43.21875 0 
L 43.21875 8.296875 
Q 40.140625 3.328125 35.546875 0.953125 
Q 30.953125 -1.421875 24.3125 -1.421875 
Q 15.921875 -1.421875 10.953125 3.296875 
Q 6 8.015625 6 15.921875 
Q 6 25.140625 12.171875 29.828125 
Q 18.359375 34.515625 30.609375 34.515625 
L 43.21875 34.515625 
L 43.21875 35.40625 
Q 43.21875 41.609375 39.140625 45 
Q 35.0625 48.390625 27.6875 48.390625 
Q 23 48.390625 18.546875 47.265625 
Q 14.109375 46.140625 10.015625 43.890625 
L 10.015625 52.203125 
Q 14.9375 54.109375 19.578125 55.046875 
Q 24.21875 56 28.609375 56 
Q 40.484375 56 46.34375 49.84375 
Q 52.203125 43.703125 52.203125 31.203125 
z
M 35.796875 79.984375 
L 45.515625 79.984375 
L 29.59375 61.625 
L 22.125 61.625 
z
" id="DejaVuSans-225"/>
      </defs>
      <g transform="translate(95.479688 243.980719)scale(0.1 -0.1)">
       <use xlink:href="#DejaVuSans-66"/>
       <use x="68.603516" xlink:href="#DejaVuSans-225"/>
       <use x="129.882812" xlink:href="#DejaVuSans-115"/>
       <use x="181.982422" xlink:href="#DejaVuSans-105"/>
       <use x="209.765625" xlink:href="#DejaVuSans-99"/>
       <use x="264.746094" xlink:href="#DejaVuSans-111"/>
      </g>
     </g>
    </g>
    <g id="ytick_4">
     <g id="line2d_9">
      <g>
       <use style="stroke:#000000;stroke-width:0.8;" x="135.073438" xlink:href="#mee2e7cf4ff" y="321.7215"/>
      </g>
     </g>
     <g id="text_10">
      <!-- Por debajo del básico -->
      <defs>
       <path d="M 19.671875 64.796875 
L 19.671875 37.40625 
L 32.078125 37.40625 
Q 38.96875 37.40625 42.71875 40.96875 
Q 46.484375 44.53125 46.484375 51.125 
Q 46.484375 57.671875 42.71875 61.234375 
Q 38.96875 64.796875 32.078125 64.796875 
z
M 9.8125 72.90625 
L 32.078125 72.90625 
Q 44.34375 72.90625 50.609375 67.359375 
Q 56.890625 61.8125 56.890625 51.125 
Q 56.890625 40.328125 50.609375 34.8125 
Q 44.34375 29.296875 32.078125 29.296875 
L 19.671875 29.296875 
L 19.671875 0 
L 9.8125 0 
z
" id="DejaVuSans-80"/>
       <path id="DejaVuSans-32"/>
       <path d="M 56.203125 29.59375 
L 56.203125 25.203125 
L 14.890625 25.203125 
Q 15.484375 15.921875 20.484375 11.0625 
Q 25.484375 6.203125 34.421875 6.203125 
Q 39.59375 6.203125 44.453125 7.46875 
Q 49.3125 8.734375 54.109375 11.28125 
L 54.109375 2.78125 
Q 49.265625 0.734375 44.1875 -0.34375 
Q 39.109375 -1.421875 33.890625 -1.421875 
Q 20.796875 -1.421875 13.15625 6.1875 
Q 5.515625 13.8125 5.515625 26.8125 
Q 5.515625 40.234375 12.765625 48.109375 
Q 20.015625 56 32.328125 56 
Q 43.359375 56 49.78125 48.890625 
Q 56.203125 41.796875 56.203125 29.59375 
z
M 47.21875 32.234375 
Q 47.125 39.59375 43.09375 43.984375 
Q 39.0625 48.390625 32.421875 48.390625 
Q 24.90625 48.390625 20.390625 44.140625 
Q 15.875 39.890625 15.1875 32.171875 
z
" id="DejaVuSans-101"/>
       <path d="M 48.6875 27.296875 
Q 48.6875 37.203125 44.609375 42.84375 
Q 40.53125 48.484375 33.40625 48.484375 
Q 26.265625 48.484375 22.1875 42.84375 
Q 18.109375 37.203125 18.109375 27.296875 
Q 18.109375 17.390625 22.1875 11.75 
Q 26.265625 6.109375 33.40625 6.109375 
Q 40.53125 6.109375 44.609375 11.75 
Q 48.6875 17.390625 48.6875 27.296875 
z
M 18.109375 46.390625 
Q 20.953125 51.265625 25.265625 53.625 
Q 29.59375 56 35.59375 56 
Q 45.5625 56 51.78125 48.09375 
Q 58.015625 40.1875 58.015625 27.296875 
Q 58.015625 14.40625 51.78125 6.484375 
Q 45.5625 -1.421875 35.59375 -1.421875 
Q 29.59375 -1.421875 25.265625 0.953125 
Q 20.953125 3.328125 18.109375 8.203125 
L 18.109375 0 
L 9.078125 0 
L 9.078125 75.984375 
L 18.109375 75.984375 
z
" id="DejaVuSans-98"/>
       <path d="M 9.421875 54.6875 
L 18.40625 54.6875 
L 18.40625 -0.984375 
Q 18.40625 -11.421875 14.421875 -16.109375 
Q 10.453125 -20.796875 1.609375 -20.796875 
L -1.8125 -20.796875 
L -1.8125 -13.1875 
L 0.59375 -13.1875 
Q 5.71875 -13.1875 7.5625 -10.8125 
Q 9.421875 -8.453125 9.421875 -0.984375 
z
M 9.421875 75.984375 
L 18.40625 75.984375 
L 18.40625 64.59375 
L 9.421875 64.59375 
z
" id="DejaVuSans-106"/>
       <path d="M 9.421875 75.984375 
L 18.40625 75.984375 
L 18.40625 0 
L 9.421875 0 
z
" id="DejaVuSans-108"/>
      </defs>
      <g transform="translate(21.048438 325.720719)scale(0.1 -0.1)">
       <use xlink:href="#DejaVuSans-80"/>
       <use x="60.255859" xlink:href="#DejaVuSans-111"/>
       <use x="121.4375" xlink:href="#DejaVuSans-114"/>
       <use x="162.550781" xlink:href="#DejaVuSans-32"/>
       <use x="194.337891" xlink:href="#DejaVuSans-100"/>
       <use x="257.814453" xlink:href="#DejaVuSans-101"/>
       <use x="319.337891" xlink:href="#DejaVuSans-98"/>
       <use x="382.814453" xlink:href="#DejaVuSans-97"/>
       <use x="444.09375" xlink:href="#DejaVuSans-106"/>
       <use x="471.876953" xlink:href="#DejaVuSans-111"/>
       <use x="533.058594" xlink:href="#DejaVuSans-32"/>
       <use x="564.845703" xlink:href="#DejaVuSans-100"/>
       <use x="628.322266" xlink:href="#DejaVuSans-101"/>
       <use x="689.845703" xlink:href="#DejaVuSans-108"/>
       <use x="717.628906" xlink:href="#DejaVuSans-32"/>
       <use x="749.416016" xlink:href="#DejaVuSans-98"/>
       <use x="812.892578" xlink:href="#DejaVuSans-225"/>
       <use x="874.171875" xlink:href="#DejaVuSans-115"/>
       <use x="926.271484" xlink:href="#DejaVuSans-105"/>
       <use x="954.054688" xlink:href="#DejaVuSans-99"/>
       <use x="1009.035156" xlink:href="#DejaVuSans-111"/>
      </g>
     </g>
    </g>
    <g id="text_11">
     <!-- Nivel de desempeño en sociales -->
     <defs>
      <path d="M 9.8125 72.90625 
L 23.09375 72.90625 
L 55.421875 11.921875 
L 55.421875 72.90625 
L 64.984375 72.90625 
L 64.984375 0 
L 51.703125 0 
L 19.390625 60.984375 
L 19.390625 0 
L 9.8125 0 
z
" id="DejaVuSans-78"/>
      <path d="M 52 44.1875 
Q 55.375 50.25 60.0625 53.125 
Q 64.75 56 71.09375 56 
Q 79.640625 56 84.28125 50.015625 
Q 88.921875 44.046875 88.921875 33.015625 
L 88.921875 0 
L 79.890625 0 
L 79.890625 32.71875 
Q 79.890625 40.578125 77.09375 44.375 
Q 74.3125 48.1875 68.609375 48.1875 
Q 61.625 48.1875 57.5625 43.546875 
Q 53.515625 38.921875 53.515625 30.90625 
L 53.515625 0 
L 44.484375 0 
L 44.484375 32.71875 
Q 44.484375 40.625 41.703125 44.40625 
Q 38.921875 48.1875 33.109375 48.1875 
Q 26.21875 48.1875 22.15625 43.53125 
Q 18.109375 38.875 18.109375 30.90625 
L 18.109375 0 
L 9.078125 0 
L 9.078125 54.6875 
L 18.109375 54.6875 
L 18.109375 46.1875 
Q 21.1875 51.21875 25.484375 53.609375 
Q 29.78125 56 35.6875 56 
Q 41.65625 56 45.828125 52.96875 
Q 50 49.953125 52 44.1875 
z
" id="DejaVuSans-109"/>
      <path d="M 18.109375 8.203125 
L 18.109375 -20.796875 
L 9.078125 -20.796875 
L 9.078125 54.6875 
L 18.109375 54.6875 
L 18.109375 46.390625 
Q 20.953125 51.265625 25.265625 53.625 
Q 29.59375 56 35.59375 56 
Q 45.5625 56 51.78125 48.09375 
Q 58.015625 40.1875 58.015625 27.296875 
Q 58.015625 14.40625 51.78125 6.484375 
Q 45.5625 -1.421875 35.59375 -1.421875 
Q 29.59375 -1.421875 25.265625 0.953125 
Q 20.953125 3.328125 18.109375 8.203125 
z
M 48.6875 27.296875 
Q 48.6875 37.203125 44.609375 42.84375 
Q 40.53125 48.484375 33.40625 48.484375 
Q 26.265625 48.484375 22.1875 42.84375 
Q 18.109375 37.203125 18.109375 27.296875 
Q 18.109375 17.390625 22.1875 11.75 
Q 26.265625 6.109375 33.40625 6.109375 
Q 40.53125 6.109375 44.609375 11.75 
Q 48.6875 17.390625 48.6875 27.296875 
z
" id="DejaVuSans-112"/>
      <path d="M 54.890625 33.015625 
L 54.890625 0 
L 45.90625 0 
L 45.90625 32.71875 
Q 45.90625 40.484375 42.875 44.328125 
Q 39.84375 48.1875 33.796875 48.1875 
Q 26.515625 48.1875 22.3125 43.546875 
Q 18.109375 38.921875 18.109375 30.90625 
L 18.109375 0 
L 9.078125 0 
L 9.078125 54.6875 
L 18.109375 54.6875 
L 18.109375 46.1875 
Q 21.34375 51.125 25.703125 53.5625 
Q 30.078125 56 35.796875 56 
Q 45.21875 56 50.046875 50.171875 
Q 54.890625 44.34375 54.890625 33.015625 
z
M 32.234375 66.890625 
L 29.4375 69.578125 
Q 28.375 70.5625 27.5625 71.015625 
Q 26.765625 71.484375 26.125 71.484375 
Q 24.265625 71.484375 23.390625 69.703125 
Q 22.515625 67.921875 22.40625 63.921875 
L 16.3125 63.921875 
Q 16.40625 70.515625 18.890625 74.09375 
Q 21.390625 77.6875 25.828125 77.6875 
Q 27.6875 77.6875 29.25 77 
Q 30.8125 76.3125 32.625 74.703125 
L 35.40625 72.015625 
Q 36.46875 71.046875 37.28125 70.578125 
Q 38.09375 70.125 38.71875 70.125 
Q 40.578125 70.125 41.453125 71.90625 
Q 42.328125 73.6875 42.4375 77.6875 
L 48.53125 77.6875 
Q 48.4375 71.09375 45.9375 67.5 
Q 43.453125 63.921875 39.015625 63.921875 
Q 37.15625 63.921875 35.59375 64.59375 
Q 34.03125 65.28125 32.234375 66.890625 
z
" id="DejaVuSans-241"/>
     </defs>
     <g transform="translate(14.96875 280.0365)rotate(-90)scale(0.1 -0.1)">
      <use xlink:href="#DejaVuSans-78"/>
      <use x="74.804688" xlink:href="#DejaVuSans-105"/>
      <use x="102.587891" xlink:href="#DejaVuSans-118"/>
      <use x="161.767578" xlink:href="#DejaVuSans-101"/>
      <use x="223.291016" xlink:href="#DejaVuSans-108"/>
      <use x="251.074219" xlink:href="#DejaVuSans-32"/>
      <use x="282.861328" xlink:href="#DejaVuSans-100"/>
      <use x="346.337891" xlink:href="#DejaVuSans-101"/>
      <use x="407.861328" xlink:href="#DejaVuSans-32"/>
      <use x="439.648438" xlink:href="#DejaVuSans-100"/>
      <use x="503.125" xlink:href="#DejaVuSans-101"/>
      <use x="564.648438" xlink:href="#DejaVuSans-115"/>
      <use x="616.748047" xlink:href="#DejaVuSans-101"/>
      <use x="678.271484" xlink:href="#DejaVuSans-109"/>
      <use x="775.683594" xlink:href="#DejaVuSans-112"/>
      <use x="839.160156" xlink:href="#DejaVuSans-101"/>
      <use x="900.683594" xlink:href="#DejaVuSans-241"/>
      <use x="964.0625" xlink:href="#DejaVuSans-111"/>
      <use x="1025.244141" xlink:href="#DejaVuSans-32"/>
      <use x="1057.03125" xlink:href="#DejaVuSans-101"/>
      <use x="1118.554688" xlink:href="#DejaVuSans-110"/>
      <use x="1181.933594" xlink:href="#DejaVuSans-32"/>
      <use x="1213.720703" xlink:href="#DejaVuSans-115"/>
      <use x="1265.820312" xlink:href="#DejaVuSans-111"/>
      <use x="1327.001953" xlink:href="#DejaVuSans-99"/>
      <use x="1381.982422" xlink:href="#DejaVuSans-105"/>
      <use x="1409.765625" xlink:href="#DejaVuSans-97"/>
      <use x="1471.044922" xlink:href="#DejaVuSans-108"/>
      <use x="1498.828125" xlink:href="#DejaVuSans-101"/>
      <use x="1560.351562" xlink:href="#DejaVuSans-115"/>
     </g>
    </g>
   </g>
   <g id="line2d_10">
    <path clip-path="url(#p75e4dfed5b)" d="M 164.472805 77.1015 
L 484.925914 77.1015 
" style="fill:none;stroke:#4c4c4c;stroke-linecap:square;stroke-width:1.5;"/>
   </g>
   <g id="line2d_11">
    <path clip-path="url(#p75e4dfed5b)" d="M 233.855313 77.1015 
L 334.401151 77.1015 
" style="fill:none;stroke:#4c4c4c;stroke-linecap:square;stroke-width:4.5;"/>
   </g>
   <g id="line2d_12">
    <path clip-path="url(#p75e4dfed5b)" d="M 164.472805 158.6415 
L 532.55289 158.6415 
" style="fill:none;stroke:#4c4c4c;stroke-linecap:square;stroke-width:1.5;"/>
   </g>
   <g id="line2d_13">
    <path clip-path="url(#p75e4dfed5b)" d="M 250.318959 158.6415 
L 363.212531 158.6415 
" style="fill:none;stroke:#4c4c4c;stroke-linecap:square;stroke-width:4.5;"/>
   </g>
   <g id="line2d_14">
    <path clip-path="url(#p75e4dfed5b)" d="M 164.472805 240.1815 
L 547.840561 240.1815 
" style="fill:none;stroke:#4c4c4c;stroke-linecap:square;stroke-width:1.5;"/>
   </g>
   <g id="line2d_15">
    <path clip-path="url(#p75e4dfed5b)" d="M 257.962795 240.1815 
L 374.384291 240.1815 
" style="fill:none;stroke:#4c4c4c;stroke-linecap:square;stroke-width:4.5;"/>
   </g>
   <g id="line2d_16">
    <path clip-path="url(#p75e4dfed5b)" d="M 164.472805 321.7215 
L 547.840561 321.7215 
" style="fill:none;stroke:#4c4c4c;stroke-linecap:square;stroke-width:1.5;"/>
   </g>
   <g id="line2d_17">
    <path clip-path="url(#p75e4dfed5b)" d="M 258.550782 321.7215 
L 374.972278 321.7215 
" style="fill:none;stroke:#4c4c4c;stroke-linecap:square;stroke-width:4.5;"/>
   </g>
   <g id="patch_3">
    <path d="M 135.073438 362.4915 
L 135.073438 36.3315 
" style="fill:none;stroke:#000000;stroke-linecap:square;stroke-linejoin:miter;stroke-width:0.8;"/>
   </g>
   <g id="patch_4">
    <path d="M 693.073437 362.4915 
L 693.073437 36.3315 
" style="fill:none;stroke:#000000;stroke-linecap:square;stroke-linejoin:miter;stroke-width:0.8;"/>
   </g>
   <g id="patch_5">
    <path d="M 135.073438 362.4915 
L 693.073437 362.4915 
" style="fill:none;stroke:#000000;stroke-linecap:square;stroke-linejoin:miter;stroke-width:0.8;"/>
   </g>
   <g id="patch_6">
    <path d="M 135.073438 36.3315 
L 693.073437 36.3315 
" style="fill:none;stroke:#000000;stroke-linecap:square;stroke-linejoin:miter;stroke-width:0.8;"/>
   </g>
   <g id="PathCollection_1">
    <defs>
     <path d="M 0 1.5 
C 0.397805 1.5 0.77937 1.341951 1.06066 1.06066 
C 1.341951 0.77937 1.5 0.397805 1.5 0 
C 1.5 -0.397805 1.341951 -0.77937 1.06066 -1.06066 
C 0.77937 -1.341951 0.397805 -1.5 0 -1.5 
C -0.397805 -1.5 -0.77937 -1.341951 -1.06066 -1.06066 
C -1.341951 -0.77937 -1.5 -0.397805 -1.5 0 
C -1.5 0.397805 -1.341951 0.77937 -1.06066 1.06066 
C -0.77937 1.341951 -0.397805 1.5 0 1.5 
z
" id="m97aafcf6e8" style="stroke:#4c4c4c;"/>
    </defs>
    <g clip-path="url(#p75e4dfed5b)">
     <use style="fill:#ffffff;stroke:#4c4c4c;" x="277.954365" xlink:href="#m97aafcf6e8" y="77.1015"/>
    </g>
   </g>
   <g id="PathCollection_2">
    <g clip-path="url(#p75e4dfed5b)">
     <use style="fill:#ffffff;stroke:#4c4c4c;" x="297.945935" xlink:href="#m97aafcf6e8" y="158.6415"/>
    </g>
   </g>
   <g id="PathCollection_3">
    <g clip-path="url(#p75e4dfed5b)">
     <use style="fill:#ffffff;stroke:#4c4c4c;" x="307.94172" xlink:href="#m97aafcf6e8" y="240.1815"/>
    </g>
   </g>
   <g id="PathCollection_4">
    <g clip-path="url(#p75e4dfed5b)">
     <use style="fill:#ffffff;stroke:#4c4c4c;" x="308.529707" xlink:href="#m97aafcf6e8" y="321.7215"/>
    </g>
   </g>
   <g id="text_12">
    <!-- Distribución de: ICSE según el desempeño en sociales -->
    <defs>
     <path d="M 19.671875 64.796875 
L 19.671875 8.109375 
L 31.59375 8.109375 
Q 46.6875 8.109375 53.6875 14.9375 
Q 60.6875 21.78125 60.6875 36.53125 
Q 60.6875 51.171875 53.6875 57.984375 
Q 46.6875 64.796875 31.59375 64.796875 
z
M 9.8125 72.90625 
L 30.078125 72.90625 
Q 51.265625 72.90625 61.171875 64.09375 
Q 71.09375 55.28125 71.09375 36.53125 
Q 71.09375 17.671875 61.125 8.828125 
Q 51.171875 0 30.078125 0 
L 9.8125 0 
z
" id="DejaVuSans-68"/>
     <path d="M 8.5 21.578125 
L 8.5 54.6875 
L 17.484375 54.6875 
L 17.484375 21.921875 
Q 17.484375 14.15625 20.5 10.265625 
Q 23.53125 6.390625 29.59375 6.390625 
Q 36.859375 6.390625 41.078125 11.03125 
Q 45.3125 15.671875 45.3125 23.6875 
L 45.3125 54.6875 
L 54.296875 54.6875 
L 54.296875 0 
L 45.3125 0 
L 45.3125 8.40625 
Q 42.046875 3.421875 37.71875 1 
Q 33.40625 -1.421875 27.6875 -1.421875 
Q 18.265625 -1.421875 13.375 4.4375 
Q 8.5 10.296875 8.5 21.578125 
z
M 31.109375 56 
z
" id="DejaVuSans-117"/>
     <path d="M 30.609375 48.390625 
Q 23.390625 48.390625 19.1875 42.75 
Q 14.984375 37.109375 14.984375 27.296875 
Q 14.984375 17.484375 19.15625 11.84375 
Q 23.34375 6.203125 30.609375 6.203125 
Q 37.796875 6.203125 41.984375 11.859375 
Q 46.1875 17.53125 46.1875 27.296875 
Q 46.1875 37.015625 41.984375 42.703125 
Q 37.796875 48.390625 30.609375 48.390625 
z
M 30.609375 56 
Q 42.328125 56 49.015625 48.375 
Q 55.71875 40.765625 55.71875 27.296875 
Q 55.71875 13.875 49.015625 6.21875 
Q 42.328125 -1.421875 30.609375 -1.421875 
Q 18.84375 -1.421875 12.171875 6.21875 
Q 5.515625 13.875 5.515625 27.296875 
Q 5.515625 40.765625 12.171875 48.375 
Q 18.84375 56 30.609375 56 
z
M 37.40625 79.984375 
L 47.125 79.984375 
L 31.203125 61.625 
L 23.734375 61.625 
z
" id="DejaVuSans-243"/>
     <path d="M 11.71875 12.40625 
L 22.015625 12.40625 
L 22.015625 0 
L 11.71875 0 
z
M 11.71875 51.703125 
L 22.015625 51.703125 
L 22.015625 39.3125 
L 11.71875 39.3125 
z
" id="DejaVuSans-58"/>
     <path d="M 45.40625 27.984375 
Q 45.40625 37.75 41.375 43.109375 
Q 37.359375 48.484375 30.078125 48.484375 
Q 22.859375 48.484375 18.828125 43.109375 
Q 14.796875 37.75 14.796875 27.984375 
Q 14.796875 18.265625 18.828125 12.890625 
Q 22.859375 7.515625 30.078125 7.515625 
Q 37.359375 7.515625 41.375 12.890625 
Q 45.40625 18.265625 45.40625 27.984375 
z
M 54.390625 6.78125 
Q 54.390625 -7.171875 48.1875 -13.984375 
Q 42 -20.796875 29.203125 -20.796875 
Q 24.46875 -20.796875 20.265625 -20.09375 
Q 16.0625 -19.390625 12.109375 -17.921875 
L 12.109375 -9.1875 
Q 16.0625 -11.328125 19.921875 -12.34375 
Q 23.78125 -13.375 27.78125 -13.375 
Q 36.625 -13.375 41.015625 -8.765625 
Q 45.40625 -4.15625 45.40625 5.171875 
L 45.40625 9.625 
Q 42.625 4.78125 38.28125 2.390625 
Q 33.9375 0 27.875 0 
Q 17.828125 0 11.671875 7.65625 
Q 5.515625 15.328125 5.515625 27.984375 
Q 5.515625 40.671875 11.671875 48.328125 
Q 17.828125 56 27.875 56 
Q 33.9375 56 38.28125 53.609375 
Q 42.625 51.21875 45.40625 46.390625 
L 45.40625 54.6875 
L 54.390625 54.6875 
z
" id="DejaVuSans-103"/>
     <path d="M 8.5 21.578125 
L 8.5 54.6875 
L 17.484375 54.6875 
L 17.484375 21.921875 
Q 17.484375 14.15625 20.5 10.265625 
Q 23.53125 6.390625 29.59375 6.390625 
Q 36.859375 6.390625 41.078125 11.03125 
Q 45.3125 15.671875 45.3125 23.6875 
L 45.3125 54.6875 
L 54.296875 54.6875 
L 54.296875 0 
L 45.3125 0 
L 45.3125 8.40625 
Q 42.046875 3.421875 37.71875 1 
Q 33.40625 -1.421875 27.6875 -1.421875 
Q 18.265625 -1.421875 13.375 4.4375 
Q 8.5 10.296875 8.5 21.578125 
z
M 31.109375 56 
z
M 37.796875 79.984375 
L 47.515625 79.984375 
L 31.59375 61.625 
L 24.125 61.625 
z
" id="DejaVuSans-250"/>
    </defs>
    <g transform="translate(251.5475 16.798125)scale(0.12 -0.12)">
     <use xlink:href="#DejaVuSans-68"/>
     <use x="77.001953" xlink:href="#DejaVuSans-105"/>
     <use x="104.785156" xlink:href="#DejaVuSans-115"/>
     <use x="156.884766" xlink:href="#DejaVuSans-116"/>
     <use x="196.09375" xlink:href="#DejaVuSans-114"/>
     <use x="237.207031" xlink:href="#DejaVuSans-105"/>
     <use x="264.990234" xlink:href="#DejaVuSans-98"/>
     <use x="328.466797" xlink:href="#DejaVuSans-117"/>
     <use x="391.845703" xlink:href="#DejaVuSans-99"/>
     <use x="446.826172" xlink:href="#DejaVuSans-105"/>
     <use x="474.609375" xlink:href="#DejaVuSans-243"/>
     <use x="535.791016" xlink:href="#DejaVuSans-110"/>
     <use x="599.169922" xlink:href="#DejaVuSans-32"/>
     <use x="630.957031" xlink:href="#DejaVuSans-100"/>
     <use x="694.433594" xlink:href="#DejaVuSans-101"/>
     <use x="755.957031" xlink:href="#DejaVuSans-58"/>
     <use x="789.648438" xlink:href="#DejaVuSans-32"/>
     <use x="821.435547" xlink:href="#DejaVuSans-73"/>
     <use x="850.927734" xlink:href="#DejaVuSans-67"/>
     <use x="920.751953" xlink:href="#DejaVuSans-83"/>
     <use x="984.228516" xlink:href="#DejaVuSans-69"/>
     <use x="1047.412109" xlink:href="#DejaVuSans-32"/>
     <use x="1079.199219" xlink:href="#DejaVuSans-115"/>
     <use x="1131.298828" xlink:href="#DejaVuSans-101"/>
     <use x="1192.822266" xlink:href="#DejaVuSans-103"/>
     <use x="1256.298828" xlink:href="#DejaVuSans-250"/>
     <use x="1319.677734" xlink:href="#DejaVuSans-110"/>
     <use x="1383.056641" xlink:href="#DejaVuSans-32"/>
     <use x="1414.84375" xlink:href="#DejaVuSans-101"/>
     <use x="1476.367188" xlink:href="#DejaVuSans-108"/>
     <use x="1504.150391" xlink:href="#DejaVuSans-32"/>
     <use x="1535.9375" xlink:href="#DejaVuSans-100"/>
     <use x="1599.414062" xlink:href="#DejaVuSans-101"/>
     <use x="1660.9375" xlink:href="#DejaVuSans-115"/>
     <use x="1713.037109" xlink:href="#DejaVuSans-101"/>
     <use x="1774.560547" xlink:href="#DejaVuSans-109"/>
     <use x="1871.972656" xlink:href="#DejaVuSans-112"/>
     <use x="1935.449219" xlink:href="#DejaVuSans-101"/>
     <use x="1996.972656" xlink:href="#DejaVuSans-241"/>
     <use x="2060.351562" xlink:href="#DejaVuSans-111"/>
     <use x="2121.533203" xlink:href="#DejaVuSans-32"/>
     <use x="2153.320312" xlink:href="#DejaVuSans-101"/>
     <use x="2214.84375" xlink:href="#DejaVuSans-110"/>
     <use x="2278.222656" xlink:href="#DejaVuSans-32"/>
     <use x="2310.009766" xlink:href="#DejaVuSans-115"/>
     <use x="2362.109375" xlink:href="#DejaVuSans-111"/>
     <use x="2423.291016" xlink:href="#DejaVuSans-99"/>
     <use x="2478.271484" xlink:href="#DejaVuSans-105"/>
     <use x="2506.054688" xlink:href="#DejaVuSans-97"/>
     <use x="2567.333984" xlink:href="#DejaVuSans-108"/>
     <use x="2595.117188" xlink:href="#DejaVuSans-101"/>
     <use x="2656.640625" xlink:href="#DejaVuSans-115"/>
    </g>
    <!--  Nivel: Primaria -->
    <g transform="translate(368.090937 30.2355)scale(0.12 -0.12)">
     <use xlink:href="#DejaVuSans-32"/>
     <use x="31.787109" xlink:href="#DejaVuSans-78"/>
     <use x="106.591797" xlink:href="#DejaVuSans-105"/>
     <use x="134.375" xlink:href="#DejaVuSans-118"/>
     <use x="193.554688" xlink:href="#DejaVuSans-101"/>
     <use x="255.078125" xlink:href="#DejaVuSans-108"/>
     <use x="282.861328" xlink:href="#DejaVuSans-58"/>
     <use x="316.552734" xlink:href="#DejaVuSans-32"/>
     <use x="348.339844" xlink:href="#DejaVuSans-80"/>
     <use x="408.626953" xlink:href="#DejaVuSans-114"/>
     <use x="449.740234" xlink:href="#DejaVuSans-105"/>
     <use x="477.523438" xlink:href="#DejaVuSans-109"/>
     <use x="574.935547" xlink:href="#DejaVuSans-97"/>
     <use x="636.214844" xlink:href="#DejaVuSans-114"/>
     <use x="677.328125" xlink:href="#DejaVuSans-105"/>
     <use x="705.111328" xlink:href="#DejaVuSans-97"/>
    </g>
   </g>
  </g>
 </g>
 <defs>
  <clipPath id="p75e4dfed5b">
   <rect height="326.16" width="558" x="135.073438" y="36.3315"/>
  </clipPath>
 </defs>
</svg>
