<?xml version="1.0" encoding="utf-8" standalone="no"?>
<!DOCTYPE svg PUBLIC "-//W3C//DTD SVG 1.1//EN"
  "http://www.w3.org/Graphics/SVG/1.1/DTD/svg11.dtd">
<!-- Created with matplotlib (https://matplotlib.org/) -->
<svg height="401.88375pt" version="1.1" viewBox="0 0 704.003125 401.88375" width="704.003125pt" xmlns="http://www.w3.org/2000/svg" xmlns:xlink="http://www.w3.org/1999/xlink">
 <defs>
  <style type="text/css">
*{stroke-linecap:butt;stroke-linejoin:round;}
  </style>
 </defs>
 <g id="figure_1">
  <g id="patch_1">
   <path d="M 0 401.88375 
L 704.003125 401.88375 
L 704.003125 0 
L 0 0 
z
" style="fill:#ffffff;"/>
  </g>
  <g id="axes_1">
   <g id="patch_2">
    <path d="M 135.303125 364.3275 
L 693.303125 364.3275 
L 693.303125 38.1675 
L 135.303125 38.1675 
z
" style="fill:#ffffff;"/>
   </g>
   <g id="PolyCollection_1">
    <defs>
     <path d="M 131.226108 -322.192344 
L 131.226108 -323.700156 
L 136.944836 -325.21248 
L 142.663564 -327.361345 
L 148.382291 -328.524751 
L 154.101019 -327.53157 
L 159.819746 -325.438979 
L 165.538474 -323.93689 
L 171.257202 -323.405677 
L 176.975929 -323.377535 
L 182.694657 -323.483098 
L 188.413384 -323.59529 
L 194.132112 -323.685265 
L 199.85084 -323.751507 
L 205.569567 -323.803969 
L 211.288295 -323.851478 
L 217.007022 -323.885757 
L 222.72575 -323.937684 
L 228.444478 -324.086474 
L 234.163205 -324.281872 
L 239.881933 -324.339274 
L 245.600661 -324.246968 
L 251.319388 -324.199332 
L 257.038116 -324.28997 
L 262.756843 -324.471831 
L 268.475571 -324.776131 
L 274.194299 -325.263333 
L 279.913026 -325.727041 
L 285.631754 -325.868559 
L 291.350481 -325.826288 
L 297.069209 -325.994791 
L 302.787937 -326.431746 
L 308.506664 -326.905786 
L 314.225392 -327.329437 
L 319.944119 -327.808681 
L 325.662847 -328.387043 
L 331.381575 -329.034877 
L 337.100302 -329.772009 
L 342.81903 -330.556828 
L 348.537757 -331.317213 
L 354.256485 -332.186825 
L 359.975213 -333.362266 
L 365.69394 -334.79144 
L 371.412668 -336.271183 
L 377.131396 -337.656421 
L 382.850123 -338.878338 
L 388.568851 -339.944212 
L 394.287578 -340.971154 
L 400.006306 -342.233642 
L 405.725034 -343.972816 
L 411.443761 -345.658341 
L 417.162489 -345.987772 
L 422.881216 -344.635204 
L 428.599944 -342.913751 
L 434.318672 -342.06911 
L 440.037399 -341.988668 
L 445.756127 -341.764216 
L 451.474854 -341.06799 
L 457.193582 -340.464334 
L 462.91231 -340.325445 
L 468.631037 -340.249522 
L 474.349765 -339.798239 
L 480.068493 -339.013677 
L 485.78722 -338.131137 
L 491.505948 -337.435639 
L 497.224675 -337.242609 
L 502.943403 -337.612145 
L 508.662131 -338.061497 
L 514.380858 -337.740856 
L 520.099586 -336.355696 
L 525.818313 -334.777396 
L 531.537041 -333.981274 
L 537.255769 -333.748946 
L 542.974496 -333.230212 
L 548.693224 -332.217522 
L 554.411951 -331.189099 
L 560.130679 -330.577841 
L 565.849407 -330.520042 
L 571.568134 -331.033032 
L 577.286862 -331.956427 
L 583.005589 -332.89144 
L 588.724317 -333.517883 
L 594.443045 -333.819301 
L 600.161772 -333.774444 
L 605.8805 -333.097428 
L 611.599228 -331.61589 
L 617.317955 -329.676296 
L 623.036683 -327.952908 
L 628.75541 -326.887607 
L 634.474138 -326.414093 
L 640.192866 -326.145577 
L 645.911593 -325.714214 
L 651.630321 -325.024275 
L 657.349048 -324.272265 
L 663.067776 -323.715384 
L 668.786504 -323.439937 
L 674.505231 -323.354101 
L 680.223959 -323.301875 
L 685.942686 -323.19425 
L 691.661414 -323.067268 
L 697.380142 -322.985644 
L 697.380142 -322.906856 
L 697.380142 -322.906856 
L 691.661414 -322.825232 
L 685.942686 -322.69825 
L 680.223959 -322.590625 
L 674.505231 -322.538399 
L 668.786504 -322.452563 
L 663.067776 -322.177116 
L 657.349048 -321.620235 
L 651.630321 -320.868225 
L 645.911593 -320.178286 
L 640.192866 -319.746923 
L 634.474138 -319.478407 
L 628.75541 -319.004893 
L 623.036683 -317.939592 
L 617.317955 -316.216204 
L 611.599228 -314.27661 
L 605.8805 -312.795072 
L 600.161772 -312.118056 
L 594.443045 -312.073199 
L 588.724317 -312.374617 
L 583.005589 -313.00106 
L 577.286862 -313.936073 
L 571.568134 -314.859468 
L 565.849407 -315.372458 
L 560.130679 -315.314659 
L 554.411951 -314.703401 
L 548.693224 -313.674978 
L 542.974496 -312.662288 
L 537.255769 -312.143554 
L 531.537041 -311.911226 
L 525.818313 -311.115104 
L 520.099586 -309.536804 
L 514.380858 -308.151644 
L 508.662131 -307.831003 
L 502.943403 -308.280355 
L 497.224675 -308.649891 
L 491.505948 -308.456861 
L 485.78722 -307.761363 
L 480.068493 -306.878823 
L 474.349765 -306.094261 
L 468.631037 -305.642978 
L 462.91231 -305.567055 
L 457.193582 -305.428166 
L 451.474854 -304.82451 
L 445.756127 -304.128284 
L 440.037399 -303.903832 
L 434.318672 -303.82339 
L 428.599944 -302.978749 
L 422.881216 -301.257296 
L 417.162489 -299.904728 
L 411.443761 -300.234159 
L 405.725034 -301.919684 
L 400.006306 -303.658858 
L 394.287578 -304.921346 
L 388.568851 -305.948288 
L 382.850123 -307.014162 
L 377.131396 -308.236079 
L 371.412668 -309.621317 
L 365.69394 -311.10106 
L 359.975213 -312.530234 
L 354.256485 -313.705675 
L 348.537757 -314.575287 
L 342.81903 -315.335672 
L 337.100302 -316.120491 
L 331.381575 -316.857623 
L 325.662847 -317.505457 
L 319.944119 -318.083819 
L 314.225392 -318.563063 
L 308.506664 -318.986714 
L 302.787937 -319.460754 
L 297.069209 -319.897709 
L 291.350481 -320.066212 
L 285.631754 -320.023941 
L 279.913026 -320.165459 
L 274.194299 -320.629167 
L 268.475571 -321.116369 
L 262.756843 -321.420669 
L 257.038116 -321.60253 
L 251.319388 -321.693168 
L 245.600661 -321.645532 
L 239.881933 -321.553226 
L 234.163205 -321.610628 
L 228.444478 -321.806026 
L 222.72575 -321.954816 
L 217.007022 -322.006743 
L 211.288295 -322.041022 
L 205.569567 -322.088531 
L 199.85084 -322.140993 
L 194.132112 -322.207235 
L 188.413384 -322.29721 
L 182.694657 -322.409402 
L 176.975929 -322.514965 
L 171.257202 -322.486823 
L 165.538474 -321.95561 
L 159.819746 -320.453521 
L 154.101019 -318.36093 
L 148.382291 -317.367749 
L 142.663564 -318.531155 
L 136.944836 -320.68002 
L 131.226108 -322.192344 
z
" id="m3503907b45" style="stroke:#4c4c4c;stroke-width:1.5;"/>
    </defs>
    <g clip-path="url(#p82bf17d2db)">
     <use style="fill:#df2020;stroke:#4c4c4c;stroke-width:1.5;" x="0" xlink:href="#m3503907b45" y="401.88375"/>
    </g>
   </g>
   <g id="PolyCollection_2">
    <defs>
     <path d="M 137.180966 -241.064624 
L 137.180966 -241.747876 
L 142.779394 -242.909064 
L 148.377821 -243.930465 
L 153.976249 -243.036573 
L 159.574676 -241.855092 
L 165.173104 -241.546613 
L 170.771531 -241.565078 
L 176.369959 -241.652701 
L 181.968386 -241.738108 
L 187.566813 -241.813501 
L 193.165241 -241.912459 
L 198.763668 -242.003288 
L 204.362096 -242.017616 
L 209.960523 -242.071765 
L 215.558951 -242.170535 
L 221.157378 -242.121187 
L 226.755806 -242.165081 
L 232.354233 -242.490384 
L 237.95266 -242.738029 
L 243.551088 -242.645299 
L 249.149515 -242.789948 
L 254.747943 -243.147637 
L 260.34637 -243.329388 
L 265.944798 -243.472725 
L 271.543225 -243.892674 
L 277.141653 -245.018913 
L 282.74008 -245.904675 
L 288.338507 -245.752086 
L 293.936935 -245.938795 
L 299.535362 -246.736324 
L 305.13379 -247.534713 
L 310.732217 -247.992029 
L 316.330645 -248.54372 
L 321.929072 -249.652861 
L 327.5275 -251.214461 
L 333.125927 -252.779141 
L 338.724354 -254.159925 
L 344.322782 -255.436492 
L 349.921209 -257.06267 
L 355.519637 -259.038163 
L 361.118064 -261.403155 
L 366.716492 -263.240494 
L 372.314919 -264.75431 
L 377.913347 -266.703755 
L 383.511774 -267.527667 
L 389.110201 -266.647271 
L 394.708629 -266.767558 
L 400.307056 -268.357131 
L 405.905484 -269.90708 
L 411.503911 -272.62722 
L 417.102339 -272.309497 
L 422.700766 -267.671585 
L 428.299194 -264.040178 
L 433.897621 -262.777783 
L 439.496049 -262.987194 
L 445.094476 -262.204759 
L 450.692903 -259.48733 
L 456.291331 -257.624654 
L 461.889758 -257.934527 
L 467.488186 -257.995676 
L 473.086613 -256.529663 
L 478.685041 -255.201705 
L 484.283468 -253.975493 
L 489.881896 -252.479262 
L 495.480323 -251.544607 
L 501.07875 -251.286418 
L 506.677178 -251.45538 
L 512.275605 -251.722941 
L 517.874033 -250.746324 
L 523.47246 -248.803978 
L 529.070888 -247.586852 
L 534.669315 -247.607864 
L 540.267743 -247.443698 
L 545.86617 -246.422352 
L 551.464597 -245.366121 
L 557.063025 -244.736828 
L 562.661452 -244.521034 
L 568.25988 -244.55947 
L 573.858307 -244.958662 
L 579.456735 -245.510892 
L 585.055162 -246.003161 
L 590.65359 -246.12148 
L 596.252017 -245.872053 
L 601.850444 -245.437961 
L 607.448872 -244.760478 
L 613.047299 -243.863634 
L 618.645727 -242.958462 
L 624.244154 -242.4628 
L 629.842582 -242.384028 
L 635.441009 -242.477555 
L 641.039437 -242.363585 
L 646.637864 -242.106622 
L 652.236291 -241.842036 
L 657.834719 -241.608643 
L 663.433146 -241.489081 
L 669.031574 -241.48026 
L 674.630001 -241.583622 
L 680.228429 -241.663871 
L 685.826856 -241.557852 
L 691.425284 -241.440631 
L 691.425284 -241.371869 
L 691.425284 -241.371869 
L 685.826856 -241.254648 
L 680.228429 -241.148629 
L 674.630001 -241.228878 
L 669.031574 -241.33224 
L 663.433146 -241.323419 
L 657.834719 -241.203857 
L 652.236291 -240.970464 
L 646.637864 -240.705878 
L 641.039437 -240.448915 
L 635.441009 -240.334945 
L 629.842582 -240.428472 
L 624.244154 -240.3497 
L 618.645727 -239.854038 
L 613.047299 -238.948866 
L 607.448872 -238.052022 
L 601.850444 -237.374539 
L 596.252017 -236.940447 
L 590.65359 -236.69102 
L 585.055162 -236.809339 
L 579.456735 -237.301608 
L 573.858307 -237.853838 
L 568.25988 -238.25303 
L 562.661452 -238.291466 
L 557.063025 -238.075672 
L 551.464597 -237.446379 
L 545.86617 -236.390148 
L 540.267743 -235.368802 
L 534.669315 -235.204636 
L 529.070888 -235.225648 
L 523.47246 -234.008522 
L 517.874033 -232.066176 
L 512.275605 -231.089559 
L 506.677178 -231.35712 
L 501.07875 -231.526082 
L 495.480323 -231.267893 
L 489.881896 -230.333238 
L 484.283468 -228.837007 
L 478.685041 -227.610795 
L 473.086613 -226.282837 
L 467.488186 -224.816824 
L 461.889758 -224.877973 
L 456.291331 -225.187846 
L 450.692903 -223.32517 
L 445.094476 -220.607741 
L 439.496049 -219.825306 
L 433.897621 -220.034717 
L 428.299194 -218.772322 
L 422.700766 -215.140915 
L 417.102339 -210.503003 
L 411.503911 -210.18528 
L 405.905484 -212.90542 
L 400.307056 -214.455369 
L 394.708629 -216.044942 
L 389.110201 -216.165229 
L 383.511774 -215.284833 
L 377.913347 -216.108745 
L 372.314919 -218.05819 
L 366.716492 -219.572006 
L 361.118064 -221.409345 
L 355.519637 -223.774337 
L 349.921209 -225.74983 
L 344.322782 -227.376008 
L 338.724354 -228.652575 
L 333.125927 -230.033359 
L 327.5275 -231.598039 
L 321.929072 -233.159639 
L 316.330645 -234.26878 
L 310.732217 -234.820471 
L 305.13379 -235.277787 
L 299.535362 -236.076176 
L 293.936935 -236.873705 
L 288.338507 -237.060414 
L 282.74008 -236.907825 
L 277.141653 -237.793587 
L 271.543225 -238.919826 
L 265.944798 -239.339775 
L 260.34637 -239.483112 
L 254.747943 -239.664863 
L 249.149515 -240.022552 
L 243.551088 -240.167201 
L 237.95266 -240.074471 
L 232.354233 -240.322116 
L 226.755806 -240.647419 
L 221.157378 -240.691313 
L 215.558951 -240.641965 
L 209.960523 -240.740735 
L 204.362096 -240.794884 
L 198.763668 -240.809212 
L 193.165241 -240.900041 
L 187.566813 -240.998999 
L 181.968386 -241.074392 
L 176.369959 -241.159799 
L 170.771531 -241.247422 
L 165.173104 -241.265887 
L 159.574676 -240.957408 
L 153.976249 -239.775927 
L 148.377821 -238.882035 
L 142.779394 -239.903436 
L 137.180966 -241.064624 
z
" id="maac2406002" style="stroke:#4c4c4c;stroke-width:1.5;"/>
    </defs>
    <g clip-path="url(#p82bf17d2db)">
     <use style="fill:#df2020;stroke:#4c4c4c;stroke-width:1.5;" x="0" xlink:href="#maac2406002" y="401.88375"/>
    </g>
   </g>
   <g id="PolyCollection_3">
    <defs>
     <path d="M 137.361356 -159.575971 
L 137.361356 -160.156529 
L 142.956139 -161.162908 
L 148.550923 -162.013813 
L 154.145706 -161.204976 
L 159.740489 -160.25946 
L 165.335272 -160.076117 
L 170.930056 -160.11789 
L 176.524839 -160.188555 
L 182.119622 -160.249636 
L 187.714405 -160.303045 
L 193.309188 -160.390709 
L 198.903972 -160.490399 
L 204.498755 -160.499803 
L 210.093538 -160.600998 
L 215.688321 -160.84557 
L 221.283104 -160.909454 
L 226.877888 -160.996983 
L 232.472671 -161.423301 
L 238.067454 -161.781858 
L 243.662237 -161.761872 
L 249.25702 -162.194969 
L 254.851804 -162.867165 
L 260.446587 -163.096162 
L 266.04137 -163.361208 
L 271.636153 -164.00155 
L 277.230936 -165.40701 
L 282.82572 -166.535132 
L 288.420503 -166.444214 
L 294.015286 -166.900272 
L 299.610069 -168.2905 
L 305.204852 -169.736223 
L 310.799636 -170.491985 
L 316.394419 -171.526082 
L 321.989202 -173.184116 
L 327.583985 -174.843852 
L 333.178769 -176.870887 
L 338.773552 -179.54706 
L 344.368335 -181.863316 
L 349.963118 -184.04697 
L 355.557901 -186.232693 
L 361.152685 -188.351543 
L 366.747468 -189.327354 
L 372.342251 -189.944499 
L 377.937034 -191.109462 
L 383.531817 -191.015373 
L 389.126601 -189.765545 
L 394.721384 -189.148413 
L 400.316167 -188.36845 
L 405.91095 -187.84963 
L 411.505733 -189.537742 
L 417.100517 -188.009112 
L 422.6953 -182.772685 
L 428.290083 -179.204694 
L 433.884866 -177.69168 
L 439.479649 -177.014961 
L 445.074433 -175.754533 
L 450.669216 -173.567743 
L 456.263999 -172.034637 
L 461.858782 -172.029768 
L 467.453565 -171.54092 
L 473.048349 -169.823903 
L 478.643132 -169.096479 
L 484.237915 -168.507725 
L 489.832698 -167.107842 
L 495.427481 -166.214686 
L 501.022265 -166.135008 
L 506.617048 -165.965738 
L 512.211831 -165.552336 
L 517.806614 -164.509623 
L 523.401398 -163.300483 
L 528.996181 -162.914659 
L 534.590964 -163.432149 
L 540.185747 -163.682448 
L 545.78053 -162.847898 
L 551.375314 -161.889622 
L 556.970097 -161.413778 
L 562.56488 -161.267775 
L 568.159663 -161.342836 
L 573.754446 -161.577123 
L 579.34923 -161.726818 
L 584.944013 -162.022558 
L 590.538796 -162.286713 
L 596.133579 -161.806734 
L 601.728362 -161.213272 
L 607.323146 -160.978307 
L 612.917929 -160.727484 
L 618.512712 -160.417045 
L 624.107495 -160.226919 
L 629.702278 -160.14472 
L 635.297062 -160.119078 
L 640.891845 -160.079169 
L 646.486628 -160.014567 
L 652.081411 -159.965108 
L 657.676194 -159.92311 
L 663.270978 -159.892324 
L 668.865761 -159.906448 
L 674.460544 -160.012649 
L 680.055327 -160.101444 
L 685.650111 -160.00807 
L 691.244894 -159.897986 
L 691.244894 -159.834514 
L 691.244894 -159.834514 
L 685.650111 -159.72443 
L 680.055327 -159.631056 
L 674.460544 -159.719851 
L 668.865761 -159.826052 
L 663.270978 -159.840176 
L 657.676194 -159.80939 
L 652.081411 -159.767392 
L 646.486628 -159.717933 
L 640.891845 -159.653331 
L 635.297062 -159.613422 
L 629.702278 -159.58778 
L 624.107495 -159.505581 
L 618.512712 -159.315455 
L 612.917929 -159.005016 
L 607.323146 -158.754193 
L 601.728362 -158.519228 
L 596.133579 -157.925766 
L 590.538796 -157.445787 
L 584.944013 -157.709942 
L 579.34923 -158.005682 
L 573.754446 -158.155377 
L 568.159663 -158.389664 
L 562.56488 -158.464725 
L 556.970097 -158.318722 
L 551.375314 -157.842878 
L 545.78053 -156.884602 
L 540.185747 -156.050052 
L 534.590964 -156.300351 
L 528.996181 -156.817841 
L 523.401398 -156.432017 
L 517.806614 -155.222877 
L 512.211831 -154.180164 
L 506.617048 -153.766762 
L 501.022265 -153.597492 
L 495.427481 -153.517814 
L 489.832698 -152.624658 
L 484.237915 -151.224775 
L 478.643132 -150.636021 
L 473.048349 -149.908597 
L 467.453565 -148.19158 
L 461.858782 -147.702732 
L 456.263999 -147.697863 
L 450.669216 -146.164757 
L 445.074433 -143.977967 
L 439.479649 -142.717539 
L 433.884866 -142.04082 
L 428.290083 -140.527806 
L 422.6953 -136.959815 
L 417.100517 -131.723388 
L 411.505733 -130.194758 
L 405.91095 -131.88287 
L 400.316167 -131.36405 
L 394.721384 -130.584087 
L 389.126601 -129.966955 
L 383.531817 -128.717127 
L 377.937034 -128.623038 
L 372.342251 -129.788001 
L 366.747468 -130.405146 
L 361.152685 -131.380957 
L 355.557901 -133.499807 
L 349.963118 -135.68553 
L 344.368335 -137.869184 
L 338.773552 -140.18544 
L 333.178769 -142.861613 
L 327.583985 -144.888648 
L 321.989202 -146.548384 
L 316.394419 -148.206418 
L 310.799636 -149.240515 
L 305.204852 -149.996277 
L 299.610069 -151.442 
L 294.015286 -152.832228 
L 288.420503 -153.288286 
L 282.82572 -153.197368 
L 277.230936 -154.32549 
L 271.636153 -155.73095 
L 266.04137 -156.371292 
L 260.446587 -156.636338 
L 254.851804 -156.865335 
L 249.25702 -157.537531 
L 243.662237 -157.970628 
L 238.067454 -157.950642 
L 232.472671 -158.309199 
L 226.877888 -158.735517 
L 221.283104 -158.823046 
L 215.688321 -158.88693 
L 210.093538 -159.131502 
L 204.498755 -159.232697 
L 198.903972 -159.242101 
L 193.309188 -159.341791 
L 187.714405 -159.429455 
L 182.119622 -159.482864 
L 176.524839 -159.543945 
L 170.930056 -159.61461 
L 165.335272 -159.656383 
L 159.740489 -159.47304 
L 154.145706 -158.527524 
L 148.550923 -157.718687 
L 142.956139 -158.569592 
L 137.361356 -159.575971 
z
" id="m68761d1d5d" style="stroke:#4c4c4c;stroke-width:1.5;"/>
    </defs>
    <g clip-path="url(#p82bf17d2db)">
     <use style="fill:#df2020;stroke:#4c4c4c;stroke-width:1.5;" x="0" xlink:href="#m68761d1d5d" y="401.88375"/>
    </g>
   </g>
   <g id="PolyCollection_4">
    <defs>
     <path d="M 137.015877 -77.917538 
L 137.015877 -78.734962 
L 142.61764 -80.099605 
L 148.219402 -81.342214 
L 153.821165 -80.35263 
L 159.422927 -78.930037 
L 165.02469 -78.54057 
L 170.626452 -78.560599 
L 176.228215 -78.679041 
L 181.829978 -78.777323 
L 187.43174 -78.809754 
L 193.033503 -78.926389 
L 198.635265 -79.093374 
L 204.237028 -79.137736 
L 209.838791 -79.272039 
L 215.440553 -79.531418 
L 221.042316 -79.554738 
L 226.644078 -79.726166 
L 232.245841 -80.352776 
L 237.847603 -80.875091 
L 243.449366 -80.956807 
L 249.051129 -81.414451 
L 254.652891 -82.165382 
L 260.254654 -82.449805 
L 265.856416 -82.706662 
L 271.458179 -83.554721 
L 277.059942 -85.460579 
L 282.661704 -86.74748 
L 288.263467 -86.280036 
L 293.865229 -86.782425 
L 299.466992 -89.147749 
L 305.068755 -91.25059 
L 310.670517 -91.367832 
L 316.27228 -91.80276 
L 321.874042 -93.647482 
L 327.475805 -96.10197 
L 333.077567 -98.721804 
L 338.67933 -100.625223 
L 344.281093 -101.700429 
L 349.882855 -103.552566 
L 355.484618 -105.693461 
L 361.08638 -108.210285 
L 366.688143 -110.285545 
L 372.289906 -110.800716 
L 377.891668 -110.94225 
L 383.493431 -109.93489 
L 389.095193 -107.411884 
L 394.696956 -105.96054 
L 400.298719 -105.981191 
L 405.900481 -107.328138 
L 411.502244 -108.460514 
L 417.104006 -104.759009 
L 422.705769 -98.427183 
L 428.307531 -94.811542 
L 433.909294 -94.417575 
L 439.511057 -94.240684 
L 445.112819 -92.051215 
L 450.714582 -89.806609 
L 456.316344 -88.681195 
L 461.918107 -87.932418 
L 467.51987 -87.174359 
L 473.121632 -86.250841 
L 478.723395 -85.589732 
L 484.325157 -84.58502 
L 489.92692 -83.672921 
L 495.528683 -83.724085 
L 501.130445 -83.640454 
L 506.732208 -82.700174 
L 512.33397 -81.639867 
L 517.935733 -80.925093 
L 523.537495 -80.417129 
L 529.139258 -80.265396 
L 534.741021 -81.032121 
L 540.342783 -81.866913 
L 545.944546 -81.069206 
L 551.546308 -79.767213 
L 557.148071 -79.280747 
L 562.749834 -79.303996 
L 568.351596 -79.76865 
L 573.953359 -80.477278 
L 579.555121 -80.408614 
L 585.156884 -80.008227 
L 590.758647 -79.903887 
L 596.360409 -79.597562 
L 601.962172 -79.243176 
L 607.563934 -79.056455 
L 613.165697 -78.864169 
L 618.767459 -78.659138 
L 624.369222 -78.528793 
L 629.970985 -78.476283 
L 635.572747 -78.462787 
L 641.17451 -78.437796 
L 646.776272 -78.393937 
L 652.378035 -78.358306 
L 657.979798 -78.339534 
L 663.58156 -78.333968 
L 669.183323 -78.345877 
L 674.785085 -78.385156 
L 680.386848 -78.410246 
L 685.98861 -78.375076 
L 691.590373 -78.337472 
L 691.590373 -78.315028 
L 691.590373 -78.315028 
L 685.98861 -78.277424 
L 680.386848 -78.242254 
L 674.785085 -78.267344 
L 669.183323 -78.306623 
L 663.58156 -78.318532 
L 657.979798 -78.312966 
L 652.378035 -78.294194 
L 646.776272 -78.258563 
L 641.17451 -78.214704 
L 635.572747 -78.189713 
L 629.970985 -78.176217 
L 624.369222 -78.123707 
L 618.767459 -77.993362 
L 613.165697 -77.788331 
L 607.563934 -77.596045 
L 601.962172 -77.409324 
L 596.360409 -77.054938 
L 590.758647 -76.748613 
L 585.156884 -76.644273 
L 579.555121 -76.243886 
L 573.953359 -76.175222 
L 568.351596 -76.88385 
L 562.749834 -77.348504 
L 557.148071 -77.371753 
L 551.546308 -76.885287 
L 545.944546 -75.583294 
L 540.342783 -74.785587 
L 534.741021 -75.620379 
L 529.139258 -76.387104 
L 523.537495 -76.235371 
L 517.935733 -75.727407 
L 512.33397 -75.012633 
L 506.732208 -73.952326 
L 501.130445 -73.012046 
L 495.528683 -72.928415 
L 489.92692 -72.979579 
L 484.325157 -72.06748 
L 478.723395 -71.062768 
L 473.121632 -70.401659 
L 467.51987 -69.478141 
L 461.918107 -68.720082 
L 456.316344 -67.971305 
L 450.714582 -66.845891 
L 445.112819 -64.601285 
L 439.511057 -62.411816 
L 433.909294 -62.234925 
L 428.307531 -61.840958 
L 422.705769 -58.225317 
L 417.104006 -51.893491 
L 411.502244 -48.191986 
L 405.900481 -49.324362 
L 400.298719 -50.671309 
L 394.696956 -50.69196 
L 389.095193 -49.240616 
L 383.493431 -46.71761 
L 377.891668 -45.71025 
L 372.289906 -45.851784 
L 366.688143 -46.366955 
L 361.08638 -48.442215 
L 355.484618 -50.959039 
L 349.882855 -53.099934 
L 344.281093 -54.952071 
L 338.67933 -56.027277 
L 333.077567 -57.930696 
L 327.475805 -60.55053 
L 321.874042 -63.005018 
L 316.27228 -64.84974 
L 310.670517 -65.284668 
L 305.068755 -65.40191 
L 299.466992 -67.504751 
L 293.865229 -69.870075 
L 288.263467 -70.372464 
L 282.661704 -69.90502 
L 277.059942 -71.191921 
L 271.458179 -73.097779 
L 265.856416 -73.945838 
L 260.254654 -74.202695 
L 254.652891 -74.487118 
L 249.051129 -75.238049 
L 243.449366 -75.695693 
L 237.847603 -75.777409 
L 232.245841 -76.299724 
L 226.644078 -76.926334 
L 221.042316 -77.097762 
L 215.440553 -77.121082 
L 209.838791 -77.380461 
L 204.237028 -77.514764 
L 198.635265 -77.559126 
L 193.033503 -77.726111 
L 187.43174 -77.842746 
L 181.829978 -77.875177 
L 176.228215 -77.973459 
L 170.626452 -78.091901 
L 165.02469 -78.11193 
L 159.422927 -77.722463 
L 153.821165 -76.29987 
L 148.219402 -75.310286 
L 142.61764 -76.552895 
L 137.015877 -77.917538 
z
" id="m0c6fd587e1" style="stroke:#4c4c4c;stroke-width:1.5;"/>
    </defs>
    <g clip-path="url(#p82bf17d2db)">
     <use style="fill:#df2020;stroke:#4c4c4c;stroke-width:1.5;" x="0" xlink:href="#m0c6fd587e1" y="401.88375"/>
    </g>
   </g>
   <g id="matplotlib.axis_1">
    <g id="xtick_1">
     <g id="line2d_1">
      <defs>
       <path d="M 0 0 
L 0 3.5 
" id="m01bbd9f661" style="stroke:#000000;stroke-width:0.8;"/>
      </defs>
      <g>
       <use style="stroke:#000000;stroke-width:0.8;" x="148.588839" xlink:href="#m01bbd9f661" y="364.3275"/>
      </g>
     </g>
     <g id="text_1">
      <!-- 1.00 -->
      <defs>
       <path d="M 12.40625 8.296875 
L 28.515625 8.296875 
L 28.515625 63.921875 
L 10.984375 60.40625 
L 10.984375 69.390625 
L 28.421875 72.90625 
L 38.28125 72.90625 
L 38.28125 8.296875 
L 54.390625 8.296875 
L 54.390625 0 
L 12.40625 0 
z
" id="DejaVuSans-49"/>
       <path d="M 10.6875 12.40625 
L 21 12.40625 
L 21 0 
L 10.6875 0 
z
" id="DejaVuSans-46"/>
       <path d="M 31.78125 66.40625 
Q 24.171875 66.40625 20.328125 58.90625 
Q 16.5 51.421875 16.5 36.375 
Q 16.5 21.390625 20.328125 13.890625 
Q 24.171875 6.390625 31.78125 6.390625 
Q 39.453125 6.390625 43.28125 13.890625 
Q 47.125 21.390625 47.125 36.375 
Q 47.125 51.421875 43.28125 58.90625 
Q 39.453125 66.40625 31.78125 66.40625 
z
M 31.78125 74.21875 
Q 44.046875 74.21875 50.515625 64.515625 
Q 56.984375 54.828125 56.984375 36.375 
Q 56.984375 17.96875 50.515625 8.265625 
Q 44.046875 -1.421875 31.78125 -1.421875 
Q 19.53125 -1.421875 13.0625 8.265625 
Q 6.59375 17.96875 6.59375 36.375 
Q 6.59375 54.828125 13.0625 64.515625 
Q 19.53125 74.21875 31.78125 74.21875 
z
" id="DejaVuSans-48"/>
      </defs>
      <g transform="translate(137.456027 378.925937)scale(0.1 -0.1)">
       <use xlink:href="#DejaVuSans-49"/>
       <use x="63.623047" xlink:href="#DejaVuSans-46"/>
       <use x="95.410156" xlink:href="#DejaVuSans-48"/>
       <use x="159.033203" xlink:href="#DejaVuSans-48"/>
      </g>
     </g>
    </g>
    <g id="xtick_2">
     <g id="line2d_2">
      <g>
       <use style="stroke:#000000;stroke-width:0.8;" x="215.017411" xlink:href="#m01bbd9f661" y="364.3275"/>
      </g>
     </g>
     <g id="text_2">
      <!-- 1.25 -->
      <defs>
       <path d="M 19.1875 8.296875 
L 53.609375 8.296875 
L 53.609375 0 
L 7.328125 0 
L 7.328125 8.296875 
Q 12.9375 14.109375 22.625 23.890625 
Q 32.328125 33.6875 34.8125 36.53125 
Q 39.546875 41.84375 41.421875 45.53125 
Q 43.3125 49.21875 43.3125 52.78125 
Q 43.3125 58.59375 39.234375 62.25 
Q 35.15625 65.921875 28.609375 65.921875 
Q 23.96875 65.921875 18.8125 64.3125 
Q 13.671875 62.703125 7.8125 59.421875 
L 7.8125 69.390625 
Q 13.765625 71.78125 18.9375 73 
Q 24.125 74.21875 28.421875 74.21875 
Q 39.75 74.21875 46.484375 68.546875 
Q 53.21875 62.890625 53.21875 53.421875 
Q 53.21875 48.921875 51.53125 44.890625 
Q 49.859375 40.875 45.40625 35.40625 
Q 44.1875 33.984375 37.640625 27.21875 
Q 31.109375 20.453125 19.1875 8.296875 
z
" id="DejaVuSans-50"/>
       <path d="M 10.796875 72.90625 
L 49.515625 72.90625 
L 49.515625 64.59375 
L 19.828125 64.59375 
L 19.828125 46.734375 
Q 21.96875 47.46875 24.109375 47.828125 
Q 26.265625 48.1875 28.421875 48.1875 
Q 40.625 48.1875 47.75 41.5 
Q 54.890625 34.8125 54.890625 23.390625 
Q 54.890625 11.625 47.5625 5.09375 
Q 40.234375 -1.421875 26.90625 -1.421875 
Q 22.3125 -1.421875 17.546875 -0.640625 
Q 12.796875 0.140625 7.71875 1.703125 
L 7.71875 11.625 
Q 12.109375 9.234375 16.796875 8.0625 
Q 21.484375 6.890625 26.703125 6.890625 
Q 35.15625 6.890625 40.078125 11.328125 
Q 45.015625 15.765625 45.015625 23.390625 
Q 45.015625 31 40.078125 35.4375 
Q 35.15625 39.890625 26.703125 39.890625 
Q 22.75 39.890625 18.8125 39.015625 
Q 14.890625 38.140625 10.796875 36.28125 
z
" id="DejaVuSans-53"/>
      </defs>
      <g transform="translate(203.884598 378.925937)scale(0.1 -0.1)">
       <use xlink:href="#DejaVuSans-49"/>
       <use x="63.623047" xlink:href="#DejaVuSans-46"/>
       <use x="95.410156" xlink:href="#DejaVuSans-50"/>
       <use x="159.033203" xlink:href="#DejaVuSans-53"/>
      </g>
     </g>
    </g>
    <g id="xtick_3">
     <g id="line2d_3">
      <g>
       <use style="stroke:#000000;stroke-width:0.8;" x="281.445982" xlink:href="#m01bbd9f661" y="364.3275"/>
      </g>
     </g>
     <g id="text_3">
      <!-- 1.50 -->
      <g transform="translate(270.31317 378.925937)scale(0.1 -0.1)">
       <use xlink:href="#DejaVuSans-49"/>
       <use x="63.623047" xlink:href="#DejaVuSans-46"/>
       <use x="95.410156" xlink:href="#DejaVuSans-53"/>
       <use x="159.033203" xlink:href="#DejaVuSans-48"/>
      </g>
     </g>
    </g>
    <g id="xtick_4">
     <g id="line2d_4">
      <g>
       <use style="stroke:#000000;stroke-width:0.8;" x="347.874554" xlink:href="#m01bbd9f661" y="364.3275"/>
      </g>
     </g>
     <g id="text_4">
      <!-- 1.75 -->
      <defs>
       <path d="M 8.203125 72.90625 
L 55.078125 72.90625 
L 55.078125 68.703125 
L 28.609375 0 
L 18.3125 0 
L 43.21875 64.59375 
L 8.203125 64.59375 
z
" id="DejaVuSans-55"/>
      </defs>
      <g transform="translate(336.741741 378.925937)scale(0.1 -0.1)">
       <use xlink:href="#DejaVuSans-49"/>
       <use x="63.623047" xlink:href="#DejaVuSans-46"/>
       <use x="95.410156" xlink:href="#DejaVuSans-55"/>
       <use x="159.033203" xlink:href="#DejaVuSans-53"/>
      </g>
     </g>
    </g>
    <g id="xtick_5">
     <g id="line2d_5">
      <g>
       <use style="stroke:#000000;stroke-width:0.8;" x="414.303125" xlink:href="#m01bbd9f661" y="364.3275"/>
      </g>
     </g>
     <g id="text_5">
      <!-- 2.00 -->
      <g transform="translate(403.170313 378.925937)scale(0.1 -0.1)">
       <use xlink:href="#DejaVuSans-50"/>
       <use x="63.623047" xlink:href="#DejaVuSans-46"/>
       <use x="95.410156" xlink:href="#DejaVuSans-48"/>
       <use x="159.033203" xlink:href="#DejaVuSans-48"/>
      </g>
     </g>
    </g>
    <g id="xtick_6">
     <g id="line2d_6">
      <g>
       <use style="stroke:#000000;stroke-width:0.8;" x="480.731696" xlink:href="#m01bbd9f661" y="364.3275"/>
      </g>
     </g>
     <g id="text_6">
      <!-- 2.25 -->
      <g transform="translate(469.598884 378.925937)scale(0.1 -0.1)">
       <use xlink:href="#DejaVuSans-50"/>
       <use x="63.623047" xlink:href="#DejaVuSans-46"/>
       <use x="95.410156" xlink:href="#DejaVuSans-50"/>
       <use x="159.033203" xlink:href="#DejaVuSans-53"/>
      </g>
     </g>
    </g>
    <g id="xtick_7">
     <g id="line2d_7">
      <g>
       <use style="stroke:#000000;stroke-width:0.8;" x="547.160268" xlink:href="#m01bbd9f661" y="364.3275"/>
      </g>
     </g>
     <g id="text_7">
      <!-- 2.50 -->
      <g transform="translate(536.027455 378.925937)scale(0.1 -0.1)">
       <use xlink:href="#DejaVuSans-50"/>
       <use x="63.623047" xlink:href="#DejaVuSans-46"/>
       <use x="95.410156" xlink:href="#DejaVuSans-53"/>
       <use x="159.033203" xlink:href="#DejaVuSans-48"/>
      </g>
     </g>
    </g>
    <g id="xtick_8">
     <g id="line2d_8">
      <g>
       <use style="stroke:#000000;stroke-width:0.8;" x="613.588839" xlink:href="#m01bbd9f661" y="364.3275"/>
      </g>
     </g>
     <g id="text_8">
      <!-- 2.75 -->
      <g transform="translate(602.456027 378.925937)scale(0.1 -0.1)">
       <use xlink:href="#DejaVuSans-50"/>
       <use x="63.623047" xlink:href="#DejaVuSans-46"/>
       <use x="95.410156" xlink:href="#DejaVuSans-55"/>
       <use x="159.033203" xlink:href="#DejaVuSans-53"/>
      </g>
     </g>
    </g>
    <g id="xtick_9">
     <g id="line2d_9">
      <g>
       <use style="stroke:#000000;stroke-width:0.8;" x="680.017411" xlink:href="#m01bbd9f661" y="364.3275"/>
      </g>
     </g>
     <g id="text_9">
      <!-- 3.00 -->
      <defs>
       <path d="M 40.578125 39.3125 
Q 47.65625 37.796875 51.625 33 
Q 55.609375 28.21875 55.609375 21.1875 
Q 55.609375 10.40625 48.1875 4.484375 
Q 40.765625 -1.421875 27.09375 -1.421875 
Q 22.515625 -1.421875 17.65625 -0.515625 
Q 12.796875 0.390625 7.625 2.203125 
L 7.625 11.71875 
Q 11.71875 9.328125 16.59375 8.109375 
Q 21.484375 6.890625 26.8125 6.890625 
Q 36.078125 6.890625 40.9375 10.546875 
Q 45.796875 14.203125 45.796875 21.1875 
Q 45.796875 27.640625 41.28125 31.265625 
Q 36.765625 34.90625 28.71875 34.90625 
L 20.21875 34.90625 
L 20.21875 43.015625 
L 29.109375 43.015625 
Q 36.375 43.015625 40.234375 45.921875 
Q 44.09375 48.828125 44.09375 54.296875 
Q 44.09375 59.90625 40.109375 62.90625 
Q 36.140625 65.921875 28.71875 65.921875 
Q 24.65625 65.921875 20.015625 65.03125 
Q 15.375 64.15625 9.8125 62.3125 
L 9.8125 71.09375 
Q 15.4375 72.65625 20.34375 73.4375 
Q 25.25 74.21875 29.59375 74.21875 
Q 40.828125 74.21875 47.359375 69.109375 
Q 53.90625 64.015625 53.90625 55.328125 
Q 53.90625 49.265625 50.4375 45.09375 
Q 46.96875 40.921875 40.578125 39.3125 
z
" id="DejaVuSans-51"/>
      </defs>
      <g transform="translate(668.884598 378.925937)scale(0.1 -0.1)">
       <use xlink:href="#DejaVuSans-51"/>
       <use x="63.623047" xlink:href="#DejaVuSans-46"/>
       <use x="95.410156" xlink:href="#DejaVuSans-48"/>
       <use x="159.033203" xlink:href="#DejaVuSans-48"/>
      </g>
     </g>
    </g>
    <g id="text_10">
     <!-- Índice socioeconómico -->
     <defs>
      <path d="M 9.8125 72.90625 
L 19.671875 72.90625 
L 19.671875 0 
L 9.8125 0 
z
M 17.484375 92.734375 
L 26.515625 92.734375 
L 15.375 79.84375 
L 7.90625 79.84375 
z
" id="DejaVuSans-205"/>
      <path d="M 54.890625 33.015625 
L 54.890625 0 
L 45.90625 0 
L 45.90625 32.71875 
Q 45.90625 40.484375 42.875 44.328125 
Q 39.84375 48.1875 33.796875 48.1875 
Q 26.515625 48.1875 22.3125 43.546875 
Q 18.109375 38.921875 18.109375 30.90625 
L 18.109375 0 
L 9.078125 0 
L 9.078125 54.6875 
L 18.109375 54.6875 
L 18.109375 46.1875 
Q 21.34375 51.125 25.703125 53.5625 
Q 30.078125 56 35.796875 56 
Q 45.21875 56 50.046875 50.171875 
Q 54.890625 44.34375 54.890625 33.015625 
z
" id="DejaVuSans-110"/>
      <path d="M 45.40625 46.390625 
L 45.40625 75.984375 
L 54.390625 75.984375 
L 54.390625 0 
L 45.40625 0 
L 45.40625 8.203125 
Q 42.578125 3.328125 38.25 0.953125 
Q 33.9375 -1.421875 27.875 -1.421875 
Q 17.96875 -1.421875 11.734375 6.484375 
Q 5.515625 14.40625 5.515625 27.296875 
Q 5.515625 40.1875 11.734375 48.09375 
Q 17.96875 56 27.875 56 
Q 33.9375 56 38.25 53.625 
Q 42.578125 51.265625 45.40625 46.390625 
z
M 14.796875 27.296875 
Q 14.796875 17.390625 18.875 11.75 
Q 22.953125 6.109375 30.078125 6.109375 
Q 37.203125 6.109375 41.296875 11.75 
Q 45.40625 17.390625 45.40625 27.296875 
Q 45.40625 37.203125 41.296875 42.84375 
Q 37.203125 48.484375 30.078125 48.484375 
Q 22.953125 48.484375 18.875 42.84375 
Q 14.796875 37.203125 14.796875 27.296875 
z
" id="DejaVuSans-100"/>
      <path d="M 9.421875 54.6875 
L 18.40625 54.6875 
L 18.40625 0 
L 9.421875 0 
z
M 9.421875 75.984375 
L 18.40625 75.984375 
L 18.40625 64.59375 
L 9.421875 64.59375 
z
" id="DejaVuSans-105"/>
      <path d="M 48.78125 52.59375 
L 48.78125 44.1875 
Q 44.96875 46.296875 41.140625 47.34375 
Q 37.3125 48.390625 33.40625 48.390625 
Q 24.65625 48.390625 19.8125 42.84375 
Q 14.984375 37.3125 14.984375 27.296875 
Q 14.984375 17.28125 19.8125 11.734375 
Q 24.65625 6.203125 33.40625 6.203125 
Q 37.3125 6.203125 41.140625 7.25 
Q 44.96875 8.296875 48.78125 10.40625 
L 48.78125 2.09375 
Q 45.015625 0.34375 40.984375 -0.53125 
Q 36.96875 -1.421875 32.421875 -1.421875 
Q 20.0625 -1.421875 12.78125 6.34375 
Q 5.515625 14.109375 5.515625 27.296875 
Q 5.515625 40.671875 12.859375 48.328125 
Q 20.21875 56 33.015625 56 
Q 37.15625 56 41.109375 55.140625 
Q 45.0625 54.296875 48.78125 52.59375 
z
" id="DejaVuSans-99"/>
      <path d="M 56.203125 29.59375 
L 56.203125 25.203125 
L 14.890625 25.203125 
Q 15.484375 15.921875 20.484375 11.0625 
Q 25.484375 6.203125 34.421875 6.203125 
Q 39.59375 6.203125 44.453125 7.46875 
Q 49.3125 8.734375 54.109375 11.28125 
L 54.109375 2.78125 
Q 49.265625 0.734375 44.1875 -0.34375 
Q 39.109375 -1.421875 33.890625 -1.421875 
Q 20.796875 -1.421875 13.15625 6.1875 
Q 5.515625 13.8125 5.515625 26.8125 
Q 5.515625 40.234375 12.765625 48.109375 
Q 20.015625 56 32.328125 56 
Q 43.359375 56 49.78125 48.890625 
Q 56.203125 41.796875 56.203125 29.59375 
z
M 47.21875 32.234375 
Q 47.125 39.59375 43.09375 43.984375 
Q 39.0625 48.390625 32.421875 48.390625 
Q 24.90625 48.390625 20.390625 44.140625 
Q 15.875 39.890625 15.1875 32.171875 
z
" id="DejaVuSans-101"/>
      <path id="DejaVuSans-32"/>
      <path d="M 44.28125 53.078125 
L 44.28125 44.578125 
Q 40.484375 46.53125 36.375 47.5 
Q 32.28125 48.484375 27.875 48.484375 
Q 21.1875 48.484375 17.84375 46.4375 
Q 14.5 44.390625 14.5 40.28125 
Q 14.5 37.15625 16.890625 35.375 
Q 19.28125 33.59375 26.515625 31.984375 
L 29.59375 31.296875 
Q 39.15625 29.25 43.1875 25.515625 
Q 47.21875 21.78125 47.21875 15.09375 
Q 47.21875 7.46875 41.1875 3.015625 
Q 35.15625 -1.421875 24.609375 -1.421875 
Q 20.21875 -1.421875 15.453125 -0.5625 
Q 10.6875 0.296875 5.421875 2 
L 5.421875 11.28125 
Q 10.40625 8.6875 15.234375 7.390625 
Q 20.0625 6.109375 24.8125 6.109375 
Q 31.15625 6.109375 34.5625 8.28125 
Q 37.984375 10.453125 37.984375 14.40625 
Q 37.984375 18.0625 35.515625 20.015625 
Q 33.0625 21.96875 24.703125 23.78125 
L 21.578125 24.515625 
Q 13.234375 26.265625 9.515625 29.90625 
Q 5.8125 33.546875 5.8125 39.890625 
Q 5.8125 47.609375 11.28125 51.796875 
Q 16.75 56 26.8125 56 
Q 31.78125 56 36.171875 55.265625 
Q 40.578125 54.546875 44.28125 53.078125 
z
" id="DejaVuSans-115"/>
      <path d="M 30.609375 48.390625 
Q 23.390625 48.390625 19.1875 42.75 
Q 14.984375 37.109375 14.984375 27.296875 
Q 14.984375 17.484375 19.15625 11.84375 
Q 23.34375 6.203125 30.609375 6.203125 
Q 37.796875 6.203125 41.984375 11.859375 
Q 46.1875 17.53125 46.1875 27.296875 
Q 46.1875 37.015625 41.984375 42.703125 
Q 37.796875 48.390625 30.609375 48.390625 
z
M 30.609375 56 
Q 42.328125 56 49.015625 48.375 
Q 55.71875 40.765625 55.71875 27.296875 
Q 55.71875 13.875 49.015625 6.21875 
Q 42.328125 -1.421875 30.609375 -1.421875 
Q 18.84375 -1.421875 12.171875 6.21875 
Q 5.515625 13.875 5.515625 27.296875 
Q 5.515625 40.765625 12.171875 48.375 
Q 18.84375 56 30.609375 56 
z
" id="DejaVuSans-111"/>
      <path d="M 30.609375 48.390625 
Q 23.390625 48.390625 19.1875 42.75 
Q 14.984375 37.109375 14.984375 27.296875 
Q 14.984375 17.484375 19.15625 11.84375 
Q 23.34375 6.203125 30.609375 6.203125 
Q 37.796875 6.203125 41.984375 11.859375 
Q 46.1875 17.53125 46.1875 27.296875 
Q 46.1875 37.015625 41.984375 42.703125 
Q 37.796875 48.390625 30.609375 48.390625 
z
M 30.609375 56 
Q 42.328125 56 49.015625 48.375 
Q 55.71875 40.765625 55.71875 27.296875 
Q 55.71875 13.875 49.015625 6.21875 
Q 42.328125 -1.421875 30.609375 -1.421875 
Q 18.84375 -1.421875 12.171875 6.21875 
Q 5.515625 13.875 5.515625 27.296875 
Q 5.515625 40.765625 12.171875 48.375 
Q 18.84375 56 30.609375 56 
z
M 37.40625 79.984375 
L 47.125 79.984375 
L 31.203125 61.625 
L 23.734375 61.625 
z
" id="DejaVuSans-243"/>
      <path d="M 52 44.1875 
Q 55.375 50.25 60.0625 53.125 
Q 64.75 56 71.09375 56 
Q 79.640625 56 84.28125 50.015625 
Q 88.921875 44.046875 88.921875 33.015625 
L 88.921875 0 
L 79.890625 0 
L 79.890625 32.71875 
Q 79.890625 40.578125 77.09375 44.375 
Q 74.3125 48.1875 68.609375 48.1875 
Q 61.625 48.1875 57.5625 43.546875 
Q 53.515625 38.921875 53.515625 30.90625 
L 53.515625 0 
L 44.484375 0 
L 44.484375 32.71875 
Q 44.484375 40.625 41.703125 44.40625 
Q 38.921875 48.1875 33.109375 48.1875 
Q 26.21875 48.1875 22.15625 43.53125 
Q 18.109375 38.875 18.109375 30.90625 
L 18.109375 0 
L 9.078125 0 
L 9.078125 54.6875 
L 18.109375 54.6875 
L 18.109375 46.1875 
Q 21.1875 51.21875 25.484375 53.609375 
Q 29.78125 56 35.6875 56 
Q 41.65625 56 45.828125 52.96875 
Q 50 49.953125 52 44.1875 
z
" id="DejaVuSans-109"/>
     </defs>
     <g transform="translate(357.638281 392.604062)scale(0.1 -0.1)">
      <use xlink:href="#DejaVuSans-205"/>
      <use x="29.492188" xlink:href="#DejaVuSans-110"/>
      <use x="92.871094" xlink:href="#DejaVuSans-100"/>
      <use x="156.347656" xlink:href="#DejaVuSans-105"/>
      <use x="184.130859" xlink:href="#DejaVuSans-99"/>
      <use x="239.111328" xlink:href="#DejaVuSans-101"/>
      <use x="300.634766" xlink:href="#DejaVuSans-32"/>
      <use x="332.421875" xlink:href="#DejaVuSans-115"/>
      <use x="384.521484" xlink:href="#DejaVuSans-111"/>
      <use x="445.703125" xlink:href="#DejaVuSans-99"/>
      <use x="500.683594" xlink:href="#DejaVuSans-105"/>
      <use x="528.466797" xlink:href="#DejaVuSans-111"/>
      <use x="589.648438" xlink:href="#DejaVuSans-101"/>
      <use x="651.171875" xlink:href="#DejaVuSans-99"/>
      <use x="706.152344" xlink:href="#DejaVuSans-111"/>
      <use x="767.333984" xlink:href="#DejaVuSans-110"/>
      <use x="830.712891" xlink:href="#DejaVuSans-243"/>
      <use x="891.894531" xlink:href="#DejaVuSans-109"/>
      <use x="989.306641" xlink:href="#DejaVuSans-105"/>
      <use x="1017.089844" xlink:href="#DejaVuSans-99"/>
      <use x="1072.070312" xlink:href="#DejaVuSans-111"/>
     </g>
    </g>
   </g>
   <g id="matplotlib.axis_2">
    <g id="ytick_1">
     <g id="line2d_10">
      <defs>
       <path d="M 0 0 
L -3.5 0 
" id="m221c73c383" style="stroke:#000000;stroke-width:0.8;"/>
      </defs>
      <g>
       <use style="stroke:#000000;stroke-width:0.8;" x="135.303125" xlink:href="#m221c73c383" y="78.9375"/>
      </g>
     </g>
     <g id="text_11">
      <!-- Avanzado -->
      <defs>
       <path d="M 34.1875 63.1875 
L 20.796875 26.90625 
L 47.609375 26.90625 
z
M 28.609375 72.90625 
L 39.796875 72.90625 
L 67.578125 0 
L 57.328125 0 
L 50.6875 18.703125 
L 17.828125 18.703125 
L 11.1875 0 
L 0.78125 0 
z
" id="DejaVuSans-65"/>
       <path d="M 2.984375 54.6875 
L 12.5 54.6875 
L 29.59375 8.796875 
L 46.6875 54.6875 
L 56.203125 54.6875 
L 35.6875 0 
L 23.484375 0 
z
" id="DejaVuSans-118"/>
       <path d="M 34.28125 27.484375 
Q 23.390625 27.484375 19.1875 25 
Q 14.984375 22.515625 14.984375 16.5 
Q 14.984375 11.71875 18.140625 8.90625 
Q 21.296875 6.109375 26.703125 6.109375 
Q 34.1875 6.109375 38.703125 11.40625 
Q 43.21875 16.703125 43.21875 25.484375 
L 43.21875 27.484375 
z
M 52.203125 31.203125 
L 52.203125 0 
L 43.21875 0 
L 43.21875 8.296875 
Q 40.140625 3.328125 35.546875 0.953125 
Q 30.953125 -1.421875 24.3125 -1.421875 
Q 15.921875 -1.421875 10.953125 3.296875 
Q 6 8.015625 6 15.921875 
Q 6 25.140625 12.171875 29.828125 
Q 18.359375 34.515625 30.609375 34.515625 
L 43.21875 34.515625 
L 43.21875 35.40625 
Q 43.21875 41.609375 39.140625 45 
Q 35.0625 48.390625 27.6875 48.390625 
Q 23 48.390625 18.546875 47.265625 
Q 14.109375 46.140625 10.015625 43.890625 
L 10.015625 52.203125 
Q 14.9375 54.109375 19.578125 55.046875 
Q 24.21875 56 28.609375 56 
Q 40.484375 56 46.34375 49.84375 
Q 52.203125 43.703125 52.203125 31.203125 
z
" id="DejaVuSans-97"/>
       <path d="M 5.515625 54.6875 
L 48.1875 54.6875 
L 48.1875 46.484375 
L 14.40625 7.171875 
L 48.1875 7.171875 
L 48.1875 0 
L 4.296875 0 
L 4.296875 8.203125 
L 38.09375 47.515625 
L 5.515625 47.515625 
z
" id="DejaVuSans-122"/>
      </defs>
      <g transform="translate(79.242188 82.736719)scale(0.1 -0.1)">
       <use xlink:href="#DejaVuSans-65"/>
       <use x="68.330078" xlink:href="#DejaVuSans-118"/>
       <use x="127.509766" xlink:href="#DejaVuSans-97"/>
       <use x="188.789062" xlink:href="#DejaVuSans-110"/>
       <use x="252.167969" xlink:href="#DejaVuSans-122"/>
       <use x="304.658203" xlink:href="#DejaVuSans-97"/>
       <use x="365.9375" xlink:href="#DejaVuSans-100"/>
       <use x="429.414062" xlink:href="#DejaVuSans-111"/>
      </g>
     </g>
    </g>
    <g id="ytick_2">
     <g id="line2d_11">
      <g>
       <use style="stroke:#000000;stroke-width:0.8;" x="135.303125" xlink:href="#m221c73c383" y="160.4775"/>
      </g>
     </g>
     <g id="text_12">
      <!-- Satisfactorio -->
      <defs>
       <path d="M 53.515625 70.515625 
L 53.515625 60.890625 
Q 47.90625 63.578125 42.921875 64.890625 
Q 37.9375 66.21875 33.296875 66.21875 
Q 25.25 66.21875 20.875 63.09375 
Q 16.5 59.96875 16.5 54.203125 
Q 16.5 49.359375 19.40625 46.890625 
Q 22.3125 44.4375 30.421875 42.921875 
L 36.375 41.703125 
Q 47.40625 39.59375 52.65625 34.296875 
Q 57.90625 29 57.90625 20.125 
Q 57.90625 9.515625 50.796875 4.046875 
Q 43.703125 -1.421875 29.984375 -1.421875 
Q 24.8125 -1.421875 18.96875 -0.25 
Q 13.140625 0.921875 6.890625 3.21875 
L 6.890625 13.375 
Q 12.890625 10.015625 18.65625 8.296875 
Q 24.421875 6.59375 29.984375 6.59375 
Q 38.421875 6.59375 43.015625 9.90625 
Q 47.609375 13.234375 47.609375 19.390625 
Q 47.609375 24.75 44.3125 27.78125 
Q 41.015625 30.8125 33.5 32.328125 
L 27.484375 33.5 
Q 16.453125 35.6875 11.515625 40.375 
Q 6.59375 45.0625 6.59375 53.421875 
Q 6.59375 63.09375 13.40625 68.65625 
Q 20.21875 74.21875 32.171875 74.21875 
Q 37.3125 74.21875 42.625 73.28125 
Q 47.953125 72.359375 53.515625 70.515625 
z
" id="DejaVuSans-83"/>
       <path d="M 18.3125 70.21875 
L 18.3125 54.6875 
L 36.8125 54.6875 
L 36.8125 47.703125 
L 18.3125 47.703125 
L 18.3125 18.015625 
Q 18.3125 11.328125 20.140625 9.421875 
Q 21.96875 7.515625 27.59375 7.515625 
L 36.8125 7.515625 
L 36.8125 0 
L 27.59375 0 
Q 17.1875 0 13.234375 3.875 
Q 9.28125 7.765625 9.28125 18.015625 
L 9.28125 47.703125 
L 2.6875 47.703125 
L 2.6875 54.6875 
L 9.28125 54.6875 
L 9.28125 70.21875 
z
" id="DejaVuSans-116"/>
       <path d="M 37.109375 75.984375 
L 37.109375 68.5 
L 28.515625 68.5 
Q 23.6875 68.5 21.796875 66.546875 
Q 19.921875 64.59375 19.921875 59.515625 
L 19.921875 54.6875 
L 34.71875 54.6875 
L 34.71875 47.703125 
L 19.921875 47.703125 
L 19.921875 0 
L 10.890625 0 
L 10.890625 47.703125 
L 2.296875 47.703125 
L 2.296875 54.6875 
L 10.890625 54.6875 
L 10.890625 58.5 
Q 10.890625 67.625 15.140625 71.796875 
Q 19.390625 75.984375 28.609375 75.984375 
z
" id="DejaVuSans-102"/>
       <path d="M 41.109375 46.296875 
Q 39.59375 47.171875 37.8125 47.578125 
Q 36.03125 48 33.890625 48 
Q 26.265625 48 22.1875 43.046875 
Q 18.109375 38.09375 18.109375 28.8125 
L 18.109375 0 
L 9.078125 0 
L 9.078125 54.6875 
L 18.109375 54.6875 
L 18.109375 46.1875 
Q 20.953125 51.171875 25.484375 53.578125 
Q 30.03125 56 36.53125 56 
Q 37.453125 56 38.578125 55.875 
Q 39.703125 55.765625 41.0625 55.515625 
z
" id="DejaVuSans-114"/>
      </defs>
      <g transform="translate(65.725 164.276719)scale(0.1 -0.1)">
       <use xlink:href="#DejaVuSans-83"/>
       <use x="63.476562" xlink:href="#DejaVuSans-97"/>
       <use x="124.755859" xlink:href="#DejaVuSans-116"/>
       <use x="163.964844" xlink:href="#DejaVuSans-105"/>
       <use x="191.748047" xlink:href="#DejaVuSans-115"/>
       <use x="243.847656" xlink:href="#DejaVuSans-102"/>
       <use x="279.052734" xlink:href="#DejaVuSans-97"/>
       <use x="340.332031" xlink:href="#DejaVuSans-99"/>
       <use x="395.3125" xlink:href="#DejaVuSans-116"/>
       <use x="434.521484" xlink:href="#DejaVuSans-111"/>
       <use x="495.703125" xlink:href="#DejaVuSans-114"/>
       <use x="536.816406" xlink:href="#DejaVuSans-105"/>
       <use x="564.599609" xlink:href="#DejaVuSans-111"/>
      </g>
     </g>
    </g>
    <g id="ytick_3">
     <g id="line2d_12">
      <g>
       <use style="stroke:#000000;stroke-width:0.8;" x="135.303125" xlink:href="#m221c73c383" y="242.0175"/>
      </g>
     </g>
     <g id="text_13">
      <!-- Básico -->
      <defs>
       <path d="M 19.671875 34.8125 
L 19.671875 8.109375 
L 35.5 8.109375 
Q 43.453125 8.109375 47.28125 11.40625 
Q 51.125 14.703125 51.125 21.484375 
Q 51.125 28.328125 47.28125 31.5625 
Q 43.453125 34.8125 35.5 34.8125 
z
M 19.671875 64.796875 
L 19.671875 42.828125 
L 34.28125 42.828125 
Q 41.5 42.828125 45.03125 45.53125 
Q 48.578125 48.25 48.578125 53.8125 
Q 48.578125 59.328125 45.03125 62.0625 
Q 41.5 64.796875 34.28125 64.796875 
z
M 9.8125 72.90625 
L 35.015625 72.90625 
Q 46.296875 72.90625 52.390625 68.21875 
Q 58.5 63.53125 58.5 54.890625 
Q 58.5 48.1875 55.375 44.234375 
Q 52.25 40.28125 46.1875 39.3125 
Q 53.46875 37.75 57.5 32.78125 
Q 61.53125 27.828125 61.53125 20.40625 
Q 61.53125 10.640625 54.890625 5.3125 
Q 48.25 0 35.984375 0 
L 9.8125 0 
z
" id="DejaVuSans-66"/>
       <path d="M 34.28125 27.484375 
Q 23.390625 27.484375 19.1875 25 
Q 14.984375 22.515625 14.984375 16.5 
Q 14.984375 11.71875 18.140625 8.90625 
Q 21.296875 6.109375 26.703125 6.109375 
Q 34.1875 6.109375 38.703125 11.40625 
Q 43.21875 16.703125 43.21875 25.484375 
L 43.21875 27.484375 
z
M 52.203125 31.203125 
L 52.203125 0 
L 43.21875 0 
L 43.21875 8.296875 
Q 40.140625 3.328125 35.546875 0.953125 
Q 30.953125 -1.421875 24.3125 -1.421875 
Q 15.921875 -1.421875 10.953125 3.296875 
Q 6 8.015625 6 15.921875 
Q 6 25.140625 12.171875 29.828125 
Q 18.359375 34.515625 30.609375 34.515625 
L 43.21875 34.515625 
L 43.21875 35.40625 
Q 43.21875 41.609375 39.140625 45 
Q 35.0625 48.390625 27.6875 48.390625 
Q 23 48.390625 18.546875 47.265625 
Q 14.109375 46.140625 10.015625 43.890625 
L 10.015625 52.203125 
Q 14.9375 54.109375 19.578125 55.046875 
Q 24.21875 56 28.609375 56 
Q 40.484375 56 46.34375 49.84375 
Q 52.203125 43.703125 52.203125 31.203125 
z
M 35.796875 79.984375 
L 45.515625 79.984375 
L 29.59375 61.625 
L 22.125 61.625 
z
" id="DejaVuSans-225"/>
      </defs>
      <g transform="translate(95.709375 245.816719)scale(0.1 -0.1)">
       <use xlink:href="#DejaVuSans-66"/>
       <use x="68.603516" xlink:href="#DejaVuSans-225"/>
       <use x="129.882812" xlink:href="#DejaVuSans-115"/>
       <use x="181.982422" xlink:href="#DejaVuSans-105"/>
       <use x="209.765625" xlink:href="#DejaVuSans-99"/>
       <use x="264.746094" xlink:href="#DejaVuSans-111"/>
      </g>
     </g>
    </g>
    <g id="ytick_4">
     <g id="line2d_13">
      <g>
       <use style="stroke:#000000;stroke-width:0.8;" x="135.303125" xlink:href="#m221c73c383" y="323.5575"/>
      </g>
     </g>
     <g id="text_14">
      <!-- Por debajo del básico -->
      <defs>
       <path d="M 19.671875 64.796875 
L 19.671875 37.40625 
L 32.078125 37.40625 
Q 38.96875 37.40625 42.71875 40.96875 
Q 46.484375 44.53125 46.484375 51.125 
Q 46.484375 57.671875 42.71875 61.234375 
Q 38.96875 64.796875 32.078125 64.796875 
z
M 9.8125 72.90625 
L 32.078125 72.90625 
Q 44.34375 72.90625 50.609375 67.359375 
Q 56.890625 61.8125 56.890625 51.125 
Q 56.890625 40.328125 50.609375 34.8125 
Q 44.34375 29.296875 32.078125 29.296875 
L 19.671875 29.296875 
L 19.671875 0 
L 9.8125 0 
z
" id="DejaVuSans-80"/>
       <path d="M 48.6875 27.296875 
Q 48.6875 37.203125 44.609375 42.84375 
Q 40.53125 48.484375 33.40625 48.484375 
Q 26.265625 48.484375 22.1875 42.84375 
Q 18.109375 37.203125 18.109375 27.296875 
Q 18.109375 17.390625 22.1875 11.75 
Q 26.265625 6.109375 33.40625 6.109375 
Q 40.53125 6.109375 44.609375 11.75 
Q 48.6875 17.390625 48.6875 27.296875 
z
M 18.109375 46.390625 
Q 20.953125 51.265625 25.265625 53.625 
Q 29.59375 56 35.59375 56 
Q 45.5625 56 51.78125 48.09375 
Q 58.015625 40.1875 58.015625 27.296875 
Q 58.015625 14.40625 51.78125 6.484375 
Q 45.5625 -1.421875 35.59375 -1.421875 
Q 29.59375 -1.421875 25.265625 0.953125 
Q 20.953125 3.328125 18.109375 8.203125 
L 18.109375 0 
L 9.078125 0 
L 9.078125 75.984375 
L 18.109375 75.984375 
z
" id="DejaVuSans-98"/>
       <path d="M 9.421875 54.6875 
L 18.40625 54.6875 
L 18.40625 -0.984375 
Q 18.40625 -11.421875 14.421875 -16.109375 
Q 10.453125 -20.796875 1.609375 -20.796875 
L -1.8125 -20.796875 
L -1.8125 -13.1875 
L 0.59375 -13.1875 
Q 5.71875 -13.1875 7.5625 -10.8125 
Q 9.421875 -8.453125 9.421875 -0.984375 
z
M 9.421875 75.984375 
L 18.40625 75.984375 
L 18.40625 64.59375 
L 9.421875 64.59375 
z
" id="DejaVuSans-106"/>
       <path d="M 9.421875 75.984375 
L 18.40625 75.984375 
L 18.40625 0 
L 9.421875 0 
z
" id="DejaVuSans-108"/>
      </defs>
      <g transform="translate(21.278125 327.556719)scale(0.1 -0.1)">
       <use xlink:href="#DejaVuSans-80"/>
       <use x="60.255859" xlink:href="#DejaVuSans-111"/>
       <use x="121.4375" xlink:href="#DejaVuSans-114"/>
       <use x="162.550781" xlink:href="#DejaVuSans-32"/>
       <use x="194.337891" xlink:href="#DejaVuSans-100"/>
       <use x="257.814453" xlink:href="#DejaVuSans-101"/>
       <use x="319.337891" xlink:href="#DejaVuSans-98"/>
       <use x="382.814453" xlink:href="#DejaVuSans-97"/>
       <use x="444.09375" xlink:href="#DejaVuSans-106"/>
       <use x="471.876953" xlink:href="#DejaVuSans-111"/>
       <use x="533.058594" xlink:href="#DejaVuSans-32"/>
       <use x="564.845703" xlink:href="#DejaVuSans-100"/>
       <use x="628.322266" xlink:href="#DejaVuSans-101"/>
       <use x="689.845703" xlink:href="#DejaVuSans-108"/>
       <use x="717.628906" xlink:href="#DejaVuSans-32"/>
       <use x="749.416016" xlink:href="#DejaVuSans-98"/>
       <use x="812.892578" xlink:href="#DejaVuSans-225"/>
       <use x="874.171875" xlink:href="#DejaVuSans-115"/>
       <use x="926.271484" xlink:href="#DejaVuSans-105"/>
       <use x="954.054688" xlink:href="#DejaVuSans-99"/>
       <use x="1009.035156" xlink:href="#DejaVuSans-111"/>
      </g>
     </g>
    </g>
    <g id="text_15">
     <!-- Nivel de desempeño en matemática -->
     <defs>
      <path d="M 9.8125 72.90625 
L 23.09375 72.90625 
L 55.421875 11.921875 
L 55.421875 72.90625 
L 64.984375 72.90625 
L 64.984375 0 
L 51.703125 0 
L 19.390625 60.984375 
L 19.390625 0 
L 9.8125 0 
z
" id="DejaVuSans-78"/>
      <path d="M 18.109375 8.203125 
L 18.109375 -20.796875 
L 9.078125 -20.796875 
L 9.078125 54.6875 
L 18.109375 54.6875 
L 18.109375 46.390625 
Q 20.953125 51.265625 25.265625 53.625 
Q 29.59375 56 35.59375 56 
Q 45.5625 56 51.78125 48.09375 
Q 58.015625 40.1875 58.015625 27.296875 
Q 58.015625 14.40625 51.78125 6.484375 
Q 45.5625 -1.421875 35.59375 -1.421875 
Q 29.59375 -1.421875 25.265625 0.953125 
Q 20.953125 3.328125 18.109375 8.203125 
z
M 48.6875 27.296875 
Q 48.6875 37.203125 44.609375 42.84375 
Q 40.53125 48.484375 33.40625 48.484375 
Q 26.265625 48.484375 22.1875 42.84375 
Q 18.109375 37.203125 18.109375 27.296875 
Q 18.109375 17.390625 22.1875 11.75 
Q 26.265625 6.109375 33.40625 6.109375 
Q 40.53125 6.109375 44.609375 11.75 
Q 48.6875 17.390625 48.6875 27.296875 
z
" id="DejaVuSans-112"/>
      <path d="M 54.890625 33.015625 
L 54.890625 0 
L 45.90625 0 
L 45.90625 32.71875 
Q 45.90625 40.484375 42.875 44.328125 
Q 39.84375 48.1875 33.796875 48.1875 
Q 26.515625 48.1875 22.3125 43.546875 
Q 18.109375 38.921875 18.109375 30.90625 
L 18.109375 0 
L 9.078125 0 
L 9.078125 54.6875 
L 18.109375 54.6875 
L 18.109375 46.1875 
Q 21.34375 51.125 25.703125 53.5625 
Q 30.078125 56 35.796875 56 
Q 45.21875 56 50.046875 50.171875 
Q 54.890625 44.34375 54.890625 33.015625 
z
M 32.234375 66.890625 
L 29.4375 69.578125 
Q 28.375 70.5625 27.5625 71.015625 
Q 26.765625 71.484375 26.125 71.484375 
Q 24.265625 71.484375 23.390625 69.703125 
Q 22.515625 67.921875 22.40625 63.921875 
L 16.3125 63.921875 
Q 16.40625 70.515625 18.890625 74.09375 
Q 21.390625 77.6875 25.828125 77.6875 
Q 27.6875 77.6875 29.25 77 
Q 30.8125 76.3125 32.625 74.703125 
L 35.40625 72.015625 
Q 36.46875 71.046875 37.28125 70.578125 
Q 38.09375 70.125 38.71875 70.125 
Q 40.578125 70.125 41.453125 71.90625 
Q 42.328125 73.6875 42.4375 77.6875 
L 48.53125 77.6875 
Q 48.4375 71.09375 45.9375 67.5 
Q 43.453125 63.921875 39.015625 63.921875 
Q 37.15625 63.921875 35.59375 64.59375 
Q 34.03125 65.28125 32.234375 66.890625 
z
" id="DejaVuSans-241"/>
     </defs>
     <g transform="translate(15.198438 292.00375)rotate(-90)scale(0.1 -0.1)">
      <use xlink:href="#DejaVuSans-78"/>
      <use x="74.804688" xlink:href="#DejaVuSans-105"/>
      <use x="102.587891" xlink:href="#DejaVuSans-118"/>
      <use x="161.767578" xlink:href="#DejaVuSans-101"/>
      <use x="223.291016" xlink:href="#DejaVuSans-108"/>
      <use x="251.074219" xlink:href="#DejaVuSans-32"/>
      <use x="282.861328" xlink:href="#DejaVuSans-100"/>
      <use x="346.337891" xlink:href="#DejaVuSans-101"/>
      <use x="407.861328" xlink:href="#DejaVuSans-32"/>
      <use x="439.648438" xlink:href="#DejaVuSans-100"/>
      <use x="503.125" xlink:href="#DejaVuSans-101"/>
      <use x="564.648438" xlink:href="#DejaVuSans-115"/>
      <use x="616.748047" xlink:href="#DejaVuSans-101"/>
      <use x="678.271484" xlink:href="#DejaVuSans-109"/>
      <use x="775.683594" xlink:href="#DejaVuSans-112"/>
      <use x="839.160156" xlink:href="#DejaVuSans-101"/>
      <use x="900.683594" xlink:href="#DejaVuSans-241"/>
      <use x="964.0625" xlink:href="#DejaVuSans-111"/>
      <use x="1025.244141" xlink:href="#DejaVuSans-32"/>
      <use x="1057.03125" xlink:href="#DejaVuSans-101"/>
      <use x="1118.554688" xlink:href="#DejaVuSans-110"/>
      <use x="1181.933594" xlink:href="#DejaVuSans-32"/>
      <use x="1213.720703" xlink:href="#DejaVuSans-109"/>
      <use x="1311.132812" xlink:href="#DejaVuSans-97"/>
      <use x="1372.412109" xlink:href="#DejaVuSans-116"/>
      <use x="1411.621094" xlink:href="#DejaVuSans-101"/>
      <use x="1473.144531" xlink:href="#DejaVuSans-109"/>
      <use x="1570.556641" xlink:href="#DejaVuSans-225"/>
      <use x="1631.835938" xlink:href="#DejaVuSans-116"/>
      <use x="1671.044922" xlink:href="#DejaVuSans-105"/>
      <use x="1698.828125" xlink:href="#DejaVuSans-99"/>
      <use x="1753.808594" xlink:href="#DejaVuSans-97"/>
     </g>
    </g>
   </g>
   <g id="line2d_14">
    <path clip-path="url(#p82bf17d2db)" d="M 205.527615 78.9375 
L 680.017411 78.9375 
" style="fill:none;stroke:#4c4c4c;stroke-linecap:square;stroke-width:1.5;"/>
   </g>
   <g id="line2d_15">
    <path clip-path="url(#p82bf17d2db)" d="M 392.160268 78.9375 
L 517.045982 78.9375 
" style="fill:none;stroke:#4c4c4c;stroke-linecap:square;stroke-width:4.5;"/>
   </g>
   <g id="line2d_16">
    <path clip-path="url(#p82bf17d2db)" d="M 227.318998 160.4775 
L 608.478949 160.4775 
" style="fill:none;stroke:#4c4c4c;stroke-linecap:square;stroke-width:1.5;"/>
   </g>
   <g id="line2d_17">
    <path clip-path="url(#p82bf17d2db)" d="M 370.017411 160.4775 
L 465.402026 160.4775 
" style="fill:none;stroke:#4c4c4c;stroke-linecap:square;stroke-width:4.5;"/>
   </g>
   <g id="line2d_18">
    <path clip-path="url(#p82bf17d2db)" d="M 229.458405 242.0175 
L 553.588839 242.0175 
" style="fill:none;stroke:#4c4c4c;stroke-linecap:square;stroke-width:1.5;"/>
   </g>
   <g id="line2d_19">
    <path clip-path="url(#p82bf17d2db)" d="M 350.894034 242.0175 
L 432.017411 242.0175 
" style="fill:none;stroke:#4c4c4c;stroke-linecap:square;stroke-width:4.5;"/>
   </g>
   <g id="line2d_20">
    <path clip-path="url(#p82bf17d2db)" d="M 225.506133 323.5575 
L 535.772513 323.5575 
" style="fill:none;stroke:#4c4c4c;stroke-linecap:square;stroke-width:1.5;"/>
   </g>
   <g id="line2d_21">
    <path clip-path="url(#p82bf17d2db)" d="M 341.361949 323.5575 
L 419.22376 323.5575 
" style="fill:none;stroke:#4c4c4c;stroke-linecap:square;stroke-width:4.5;"/>
   </g>
   <g id="patch_3">
    <path d="M 135.303125 364.3275 
L 135.303125 38.1675 
" style="fill:none;stroke:#000000;stroke-linecap:square;stroke-linejoin:miter;stroke-width:0.8;"/>
   </g>
   <g id="patch_4">
    <path d="M 693.303125 364.3275 
L 693.303125 38.1675 
" style="fill:none;stroke:#000000;stroke-linecap:square;stroke-linejoin:miter;stroke-width:0.8;"/>
   </g>
   <g id="patch_5">
    <path d="M 135.303125 364.3275 
L 693.303125 364.3275 
" style="fill:none;stroke:#000000;stroke-linecap:square;stroke-linejoin:miter;stroke-width:0.8;"/>
   </g>
   <g id="patch_6">
    <path d="M 135.303125 38.1675 
L 693.303125 38.1675 
" style="fill:none;stroke:#000000;stroke-linecap:square;stroke-linejoin:miter;stroke-width:0.8;"/>
   </g>
   <g id="PathCollection_1">
    <defs>
     <path d="M 0 1.5 
C 0.397805 1.5 0.77937 1.341951 1.06066 1.06066 
C 1.341951 0.77937 1.5 0.397805 1.5 0 
C 1.5 -0.397805 1.341951 -0.77937 1.06066 -1.06066 
C 0.77937 -1.341951 0.397805 -1.5 0 -1.5 
C -0.397805 -1.5 -0.77937 -1.341951 -1.06066 -1.06066 
C -1.341951 -0.77937 -1.5 -0.397805 -1.5 0 
C -1.5 0.397805 -1.341951 0.77937 -1.06066 1.06066 
C -0.77937 1.341951 -0.397805 1.5 0 1.5 
z
" id="mfd8cd2c42c" style="stroke:#4c4c4c;"/>
    </defs>
    <g clip-path="url(#p82bf17d2db)">
     <use style="fill:#ffffff;stroke:#4c4c4c;" x="447.517411" xlink:href="#mfd8cd2c42c" y="78.9375"/>
    </g>
   </g>
   <g id="PathCollection_2">
    <g clip-path="url(#p82bf17d2db)">
     <use style="fill:#ffffff;stroke:#4c4c4c;" x="414.303125" xlink:href="#mfd8cd2c42c" y="160.4775"/>
    </g>
   </g>
   <g id="PathCollection_3">
    <g clip-path="url(#p82bf17d2db)">
     <use style="fill:#ffffff;stroke:#4c4c4c;" x="389.23574" xlink:href="#mfd8cd2c42c" y="242.0175"/>
    </g>
   </g>
   <g id="PathCollection_4">
    <g clip-path="url(#p82bf17d2db)">
     <use style="fill:#ffffff;stroke:#4c4c4c;" x="380.484943" xlink:href="#mfd8cd2c42c" y="323.5575"/>
    </g>
   </g>
   <g id="text_16">
    <!-- Distribución de: Índice socioeconómico según el desempeño en matemática -->
    <defs>
     <path d="M 19.671875 64.796875 
L 19.671875 8.109375 
L 31.59375 8.109375 
Q 46.6875 8.109375 53.6875 14.9375 
Q 60.6875 21.78125 60.6875 36.53125 
Q 60.6875 51.171875 53.6875 57.984375 
Q 46.6875 64.796875 31.59375 64.796875 
z
M 9.8125 72.90625 
L 30.078125 72.90625 
Q 51.265625 72.90625 61.171875 64.09375 
Q 71.09375 55.28125 71.09375 36.53125 
Q 71.09375 17.671875 61.125 8.828125 
Q 51.171875 0 30.078125 0 
L 9.8125 0 
z
" id="DejaVuSans-68"/>
     <path d="M 8.5 21.578125 
L 8.5 54.6875 
L 17.484375 54.6875 
L 17.484375 21.921875 
Q 17.484375 14.15625 20.5 10.265625 
Q 23.53125 6.390625 29.59375 6.390625 
Q 36.859375 6.390625 41.078125 11.03125 
Q 45.3125 15.671875 45.3125 23.6875 
L 45.3125 54.6875 
L 54.296875 54.6875 
L 54.296875 0 
L 45.3125 0 
L 45.3125 8.40625 
Q 42.046875 3.421875 37.71875 1 
Q 33.40625 -1.421875 27.6875 -1.421875 
Q 18.265625 -1.421875 13.375 4.4375 
Q 8.5 10.296875 8.5 21.578125 
z
M 31.109375 56 
z
" id="DejaVuSans-117"/>
     <path d="M 11.71875 12.40625 
L 22.015625 12.40625 
L 22.015625 0 
L 11.71875 0 
z
M 11.71875 51.703125 
L 22.015625 51.703125 
L 22.015625 39.3125 
L 11.71875 39.3125 
z
" id="DejaVuSans-58"/>
     <path d="M 45.40625 27.984375 
Q 45.40625 37.75 41.375 43.109375 
Q 37.359375 48.484375 30.078125 48.484375 
Q 22.859375 48.484375 18.828125 43.109375 
Q 14.796875 37.75 14.796875 27.984375 
Q 14.796875 18.265625 18.828125 12.890625 
Q 22.859375 7.515625 30.078125 7.515625 
Q 37.359375 7.515625 41.375 12.890625 
Q 45.40625 18.265625 45.40625 27.984375 
z
M 54.390625 6.78125 
Q 54.390625 -7.171875 48.1875 -13.984375 
Q 42 -20.796875 29.203125 -20.796875 
Q 24.46875 -20.796875 20.265625 -20.09375 
Q 16.0625 -19.390625 12.109375 -17.921875 
L 12.109375 -9.1875 
Q 16.0625 -11.328125 19.921875 -12.34375 
Q 23.78125 -13.375 27.78125 -13.375 
Q 36.625 -13.375 41.015625 -8.765625 
Q 45.40625 -4.15625 45.40625 5.171875 
L 45.40625 9.625 
Q 42.625 4.78125 38.28125 2.390625 
Q 33.9375 0 27.875 0 
Q 17.828125 0 11.671875 7.65625 
Q 5.515625 15.328125 5.515625 27.984375 
Q 5.515625 40.671875 11.671875 48.328125 
Q 17.828125 56 27.875 56 
Q 33.9375 56 38.28125 53.609375 
Q 42.625 51.21875 45.40625 46.390625 
L 45.40625 54.6875 
L 54.390625 54.6875 
z
" id="DejaVuSans-103"/>
     <path d="M 8.5 21.578125 
L 8.5 54.6875 
L 17.484375 54.6875 
L 17.484375 21.921875 
Q 17.484375 14.15625 20.5 10.265625 
Q 23.53125 6.390625 29.59375 6.390625 
Q 36.859375 6.390625 41.078125 11.03125 
Q 45.3125 15.671875 45.3125 23.6875 
L 45.3125 54.6875 
L 54.296875 54.6875 
L 54.296875 0 
L 45.3125 0 
L 45.3125 8.40625 
Q 42.046875 3.421875 37.71875 1 
Q 33.40625 -1.421875 27.6875 -1.421875 
Q 18.265625 -1.421875 13.375 4.4375 
Q 8.5 10.296875 8.5 21.578125 
z
M 31.109375 56 
z
M 37.796875 79.984375 
L 47.515625 79.984375 
L 31.59375 61.625 
L 24.125 61.625 
z
" id="DejaVuSans-250"/>
    </defs>
    <g transform="translate(185.181875 18.328125)scale(0.12 -0.12)">
     <use xlink:href="#DejaVuSans-68"/>
     <use x="77.001953" xlink:href="#DejaVuSans-105"/>
     <use x="104.785156" xlink:href="#DejaVuSans-115"/>
     <use x="156.884766" xlink:href="#DejaVuSans-116"/>
     <use x="196.09375" xlink:href="#DejaVuSans-114"/>
     <use x="237.207031" xlink:href="#DejaVuSans-105"/>
     <use x="264.990234" xlink:href="#DejaVuSans-98"/>
     <use x="328.466797" xlink:href="#DejaVuSans-117"/>
     <use x="391.845703" xlink:href="#DejaVuSans-99"/>
     <use x="446.826172" xlink:href="#DejaVuSans-105"/>
     <use x="474.609375" xlink:href="#DejaVuSans-243"/>
     <use x="535.791016" xlink:href="#DejaVuSans-110"/>
     <use x="599.169922" xlink:href="#DejaVuSans-32"/>
     <use x="630.957031" xlink:href="#DejaVuSans-100"/>
     <use x="694.433594" xlink:href="#DejaVuSans-101"/>
     <use x="755.957031" xlink:href="#DejaVuSans-58"/>
     <use x="789.648438" xlink:href="#DejaVuSans-32"/>
     <use x="821.435547" xlink:href="#DejaVuSans-205"/>
     <use x="850.927734" xlink:href="#DejaVuSans-110"/>
     <use x="914.306641" xlink:href="#DejaVuSans-100"/>
     <use x="977.783203" xlink:href="#DejaVuSans-105"/>
     <use x="1005.566406" xlink:href="#DejaVuSans-99"/>
     <use x="1060.546875" xlink:href="#DejaVuSans-101"/>
     <use x="1122.070312" xlink:href="#DejaVuSans-32"/>
     <use x="1153.857422" xlink:href="#DejaVuSans-115"/>
     <use x="1205.957031" xlink:href="#DejaVuSans-111"/>
     <use x="1267.138672" xlink:href="#DejaVuSans-99"/>
     <use x="1322.119141" xlink:href="#DejaVuSans-105"/>
     <use x="1349.902344" xlink:href="#DejaVuSans-111"/>
     <use x="1411.083984" xlink:href="#DejaVuSans-101"/>
     <use x="1472.607422" xlink:href="#DejaVuSans-99"/>
     <use x="1527.587891" xlink:href="#DejaVuSans-111"/>
     <use x="1588.769531" xlink:href="#DejaVuSans-110"/>
     <use x="1652.148438" xlink:href="#DejaVuSans-243"/>
     <use x="1713.330078" xlink:href="#DejaVuSans-109"/>
     <use x="1810.742188" xlink:href="#DejaVuSans-105"/>
     <use x="1838.525391" xlink:href="#DejaVuSans-99"/>
     <use x="1893.505859" xlink:href="#DejaVuSans-111"/>
     <use x="1954.6875" xlink:href="#DejaVuSans-32"/>
     <use x="1986.474609" xlink:href="#DejaVuSans-115"/>
     <use x="2038.574219" xlink:href="#DejaVuSans-101"/>
     <use x="2100.097656" xlink:href="#DejaVuSans-103"/>
     <use x="2163.574219" xlink:href="#DejaVuSans-250"/>
     <use x="2226.953125" xlink:href="#DejaVuSans-110"/>
     <use x="2290.332031" xlink:href="#DejaVuSans-32"/>
     <use x="2322.119141" xlink:href="#DejaVuSans-101"/>
     <use x="2383.642578" xlink:href="#DejaVuSans-108"/>
     <use x="2411.425781" xlink:href="#DejaVuSans-32"/>
     <use x="2443.212891" xlink:href="#DejaVuSans-100"/>
     <use x="2506.689453" xlink:href="#DejaVuSans-101"/>
     <use x="2568.212891" xlink:href="#DejaVuSans-115"/>
     <use x="2620.3125" xlink:href="#DejaVuSans-101"/>
     <use x="2681.835938" xlink:href="#DejaVuSans-109"/>
     <use x="2779.248047" xlink:href="#DejaVuSans-112"/>
     <use x="2842.724609" xlink:href="#DejaVuSans-101"/>
     <use x="2904.248047" xlink:href="#DejaVuSans-241"/>
     <use x="2967.626953" xlink:href="#DejaVuSans-111"/>
     <use x="3028.808594" xlink:href="#DejaVuSans-32"/>
     <use x="3060.595703" xlink:href="#DejaVuSans-101"/>
     <use x="3122.119141" xlink:href="#DejaVuSans-110"/>
     <use x="3185.498047" xlink:href="#DejaVuSans-32"/>
     <use x="3217.285156" xlink:href="#DejaVuSans-109"/>
     <use x="3314.697266" xlink:href="#DejaVuSans-97"/>
     <use x="3375.976562" xlink:href="#DejaVuSans-116"/>
     <use x="3415.185547" xlink:href="#DejaVuSans-101"/>
     <use x="3476.708984" xlink:href="#DejaVuSans-109"/>
     <use x="3574.121094" xlink:href="#DejaVuSans-225"/>
     <use x="3635.400391" xlink:href="#DejaVuSans-116"/>
     <use x="3674.609375" xlink:href="#DejaVuSans-105"/>
     <use x="3702.392578" xlink:href="#DejaVuSans-99"/>
     <use x="3757.373047" xlink:href="#DejaVuSans-97"/>
    </g>
    <!--  Nivel: Primaria -->
    <g transform="translate(368.320625 31.7655)scale(0.12 -0.12)">
     <use xlink:href="#DejaVuSans-32"/>
     <use x="31.787109" xlink:href="#DejaVuSans-78"/>
     <use x="106.591797" xlink:href="#DejaVuSans-105"/>
     <use x="134.375" xlink:href="#DejaVuSans-118"/>
     <use x="193.554688" xlink:href="#DejaVuSans-101"/>
     <use x="255.078125" xlink:href="#DejaVuSans-108"/>
     <use x="282.861328" xlink:href="#DejaVuSans-58"/>
     <use x="316.552734" xlink:href="#DejaVuSans-32"/>
     <use x="348.339844" xlink:href="#DejaVuSans-80"/>
     <use x="408.626953" xlink:href="#DejaVuSans-114"/>
     <use x="449.740234" xlink:href="#DejaVuSans-105"/>
     <use x="477.523438" xlink:href="#DejaVuSans-109"/>
     <use x="574.935547" xlink:href="#DejaVuSans-97"/>
     <use x="636.214844" xlink:href="#DejaVuSans-114"/>
     <use x="677.328125" xlink:href="#DejaVuSans-105"/>
     <use x="705.111328" xlink:href="#DejaVuSans-97"/>
    </g>
   </g>
  </g>
 </g>
 <defs>
  <clipPath id="p82bf17d2db">
   <rect height="326.16" width="558" x="135.303125" y="38.1675"/>
  </clipPath>
 </defs>
</svg>
