<?xml version="1.0" encoding="utf-8" standalone="no"?>
<!DOCTYPE svg PUBLIC "-//W3C//DTD SVG 1.1//EN"
  "http://www.w3.org/Graphics/SVG/1.1/DTD/svg11.dtd">
<!-- Created with matplotlib (https://matplotlib.org/) -->
<svg height="400.04775pt" version="1.1" viewBox="0 0 703.773437 400.04775" width="703.773437pt" xmlns="http://www.w3.org/2000/svg" xmlns:xlink="http://www.w3.org/1999/xlink">
 <defs>
  <style type="text/css">
*{stroke-linecap:butt;stroke-linejoin:round;}
  </style>
 </defs>
 <g id="figure_1">
  <g id="patch_1">
   <path d="M 0 400.04775 
L 703.773437 400.04775 
L 703.773437 0 
L 0 0 
z
" style="fill:#ffffff;"/>
  </g>
  <g id="axes_1">
   <g id="patch_2">
    <path d="M 135.073438 362.4915 
L 693.073437 362.4915 
L 693.073437 36.3315 
L 135.073438 36.3315 
z
" style="fill:#ffffff;"/>
   </g>
   <g id="PolyCollection_1">
    <defs>
     <path d="M 147.467675 -322.783723 
L 147.467675 -323.108777 
L 152.85365 -323.63542 
L 158.239625 -325.085489 
L 163.6256 -328.041795 
L 169.011575 -332.538505 
L 174.39755 -337.470191 
L 179.783525 -341.251762 
L 185.1695 -343.413187 
L 190.555475 -344.521718 
L 195.94145 -345.039603 
L 201.327425 -345.345511 
L 206.7134 -345.799279 
L 212.099375 -346.612786 
L 217.48535 -348.061511 
L 222.871325 -349.994434 
L 228.2573 -351.303474 
L 233.643275 -351.240481 
L 239.02925 -350.684058 
L 244.415225 -350.710954 
L 249.8012 -351.213914 
L 255.187175 -351.771188 
L 260.57315 -352.462122 
L 265.959125 -353.504662 
L 271.3451 -354.788505 
L 276.731075 -355.56225 
L 282.11705 -354.836936 
L 287.503025 -352.588535 
L 292.889 -349.995298 
L 298.274975 -348.197921 
L 303.66095 -347.276191 
L 309.046925 -346.708674 
L 314.4329 -346.228971 
L 319.818875 -345.820391 
L 325.20485 -345.314273 
L 330.590825 -344.3915 
L 335.9768 -343.088985 
L 341.362775 -342.031141 
L 346.74875 -341.576918 
L 352.134725 -341.076746 
L 357.5207 -339.924076 
L 362.906675 -338.627955 
L 368.29265 -337.920083 
L 373.678625 -337.799397 
L 379.0646 -337.806046 
L 384.450575 -337.494522 
L 389.83655 -336.677846 
L 395.222525 -335.591522 
L 400.6085 -334.813336 
L 405.994475 -334.781661 
L 411.38045 -335.329256 
L 416.766425 -335.621296 
L 422.1524 -334.804846 
L 427.538375 -333.016295 
L 432.92435 -331.225659 
L 438.310325 -330.063585 
L 443.6963 -329.403818 
L 449.082275 -328.865091 
L 454.46825 -328.3065 
L 459.854225 -327.890573 
L 465.2402 -327.727472 
L 470.626175 -327.640851 
L 476.01215 -327.420737 
L 481.398125 -327.07644 
L 486.7841 -326.699277 
L 492.170075 -326.297297 
L 497.55605 -325.891268 
L 502.942025 -325.58839 
L 508.328 -325.46427 
L 513.713975 -325.463677 
L 519.09995 -325.432742 
L 524.485925 -325.240413 
L 529.8719 -324.922426 
L 535.257875 -324.652892 
L 540.64385 -324.536019 
L 546.029825 -324.511577 
L 551.4158 -324.488878 
L 556.801775 -324.451506 
L 562.18775 -324.413097 
L 567.573725 -324.378147 
L 572.9597 -324.330954 
L 578.345675 -324.258262 
L 583.73165 -324.17687 
L 589.117625 -324.101799 
L 594.5036 -324.032979 
L 599.889575 -323.97065 
L 605.27555 -323.913149 
L 610.661525 -323.856013 
L 616.0475 -323.79414 
L 621.433475 -323.721814 
L 626.81945 -323.630801 
L 632.205425 -323.521685 
L 637.5914 -323.404333 
L 642.977375 -323.281326 
L 648.36335 -323.161278 
L 653.749325 -323.065507 
L 659.1353 -323.006502 
L 664.521275 -322.977241 
L 669.90725 -322.962333 
L 675.293225 -322.953202 
L 680.6792 -322.948377 
L 680.6792 -322.944123 
L 680.6792 -322.944123 
L 675.293225 -322.939298 
L 669.90725 -322.930167 
L 664.521275 -322.915259 
L 659.1353 -322.885998 
L 653.749325 -322.826993 
L 648.36335 -322.731222 
L 642.977375 -322.611174 
L 637.5914 -322.488167 
L 632.205425 -322.370815 
L 626.81945 -322.261699 
L 621.433475 -322.170686 
L 616.0475 -322.09836 
L 610.661525 -322.036487 
L 605.27555 -321.979351 
L 599.889575 -321.92185 
L 594.5036 -321.859521 
L 589.117625 -321.790701 
L 583.73165 -321.71563 
L 578.345675 -321.634238 
L 572.9597 -321.561546 
L 567.573725 -321.514353 
L 562.18775 -321.479403 
L 556.801775 -321.440994 
L 551.4158 -321.403622 
L 546.029825 -321.380923 
L 540.64385 -321.356481 
L 535.257875 -321.239608 
L 529.8719 -320.970074 
L 524.485925 -320.652087 
L 519.09995 -320.459758 
L 513.713975 -320.428823 
L 508.328 -320.42823 
L 502.942025 -320.30411 
L 497.55605 -320.001232 
L 492.170075 -319.595203 
L 486.7841 -319.193223 
L 481.398125 -318.81606 
L 476.01215 -318.471763 
L 470.626175 -318.251649 
L 465.2402 -318.165028 
L 459.854225 -318.001927 
L 454.46825 -317.586 
L 449.082275 -317.027409 
L 443.6963 -316.488682 
L 438.310325 -315.828915 
L 432.92435 -314.666841 
L 427.538375 -312.876205 
L 422.1524 -311.087654 
L 416.766425 -310.271204 
L 411.38045 -310.563244 
L 405.994475 -311.110839 
L 400.6085 -311.079164 
L 395.222525 -310.300978 
L 389.83655 -309.214654 
L 384.450575 -308.397978 
L 379.0646 -308.086454 
L 373.678625 -308.093103 
L 368.29265 -307.972417 
L 362.906675 -307.264545 
L 357.5207 -305.968424 
L 352.134725 -304.815754 
L 346.74875 -304.315582 
L 341.362775 -303.861359 
L 335.9768 -302.803515 
L 330.590825 -301.501 
L 325.20485 -300.578227 
L 319.818875 -300.072109 
L 314.4329 -299.663529 
L 309.046925 -299.183826 
L 303.66095 -298.616309 
L 298.274975 -297.694579 
L 292.889 -295.897202 
L 287.503025 -293.303965 
L 282.11705 -291.055564 
L 276.731075 -290.33025 
L 271.3451 -291.103995 
L 265.959125 -292.387838 
L 260.57315 -293.430378 
L 255.187175 -294.121312 
L 249.8012 -294.678586 
L 244.415225 -295.181546 
L 239.02925 -295.208442 
L 233.643275 -294.652019 
L 228.2573 -294.589026 
L 222.871325 -295.898066 
L 217.48535 -297.830989 
L 212.099375 -299.279714 
L 206.7134 -300.093221 
L 201.327425 -300.546989 
L 195.94145 -300.852897 
L 190.555475 -301.370782 
L 185.1695 -302.479313 
L 179.783525 -304.640738 
L 174.39755 -308.422309 
L 169.011575 -313.353995 
L 163.6256 -317.850705 
L 158.239625 -320.807011 
L 152.85365 -322.25708 
L 147.467675 -322.783723 
z
" id="m09e766c2d1" style="stroke:#262626;stroke-width:1.5;"/>
    </defs>
    <g clip-path="url(#p147ba64718)">
     <use style="fill:#107010;stroke:#262626;stroke-width:1.5;" x="0" xlink:href="#m09e766c2d1" y="400.04775"/>
    </g>
   </g>
   <g id="PolyCollection_2">
    <defs>
     <path d="M 150.691106 -241.23216 
L 150.691106 -241.58034 
L 156.011961 -242.253569 
L 161.332817 -243.818442 
L 166.653672 -246.174612 
L 171.974527 -249.076392 
L 177.295382 -251.766078 
L 182.616237 -253.682432 
L 187.937092 -255.627187 
L 193.257948 -257.322919 
L 198.578803 -258.092334 
L 203.899658 -258.968809 
L 209.220513 -259.936906 
L 214.541368 -260.344492 
L 219.862223 -261.326929 
L 225.183079 -263.537006 
L 230.503934 -265.133987 
L 235.824789 -265.752124 
L 241.145644 -266.797669 
L 246.466499 -267.633786 
L 251.787355 -267.526908 
L 257.10821 -267.816778 
L 262.429065 -269.20198 
L 267.74992 -270.407763 
L 273.070775 -270.905598 
L 278.39163 -271.307561 
L 283.712486 -271.297164 
L 289.033341 -270.211605 
L 294.354196 -268.910016 
L 299.675051 -268.644953 
L 304.995906 -268.765658 
L 310.316762 -268.320447 
L 315.637617 -267.372874 
L 320.958472 -266.646682 
L 326.279327 -266.429567 
L 331.600182 -266.073946 
L 336.921037 -265.814961 
L 342.241893 -266.164012 
L 347.562748 -266.809175 
L 352.883603 -266.344805 
L 358.204458 -264.120123 
L 363.525313 -261.938932 
L 368.846168 -261.053488 
L 374.167024 -261.096263 
L 379.487879 -261.79682 
L 384.808734 -262.226889 
L 390.129589 -260.824332 
L 395.450444 -257.897787 
L 400.7713 -255.673307 
L 406.092155 -254.929275 
L 411.41301 -254.864556 
L 416.733865 -254.936375 
L 422.05472 -254.372551 
L 427.375575 -252.789158 
L 432.696431 -251.113058 
L 438.017286 -249.915856 
L 443.338141 -248.917415 
L 448.658996 -248.186236 
L 453.979851 -247.681081 
L 459.300707 -247.300528 
L 464.621562 -247.143248 
L 469.942417 -246.941764 
L 475.263272 -246.439102 
L 480.584127 -245.897531 
L 485.904982 -245.717616 
L 491.225838 -245.722981 
L 496.546693 -245.313296 
L 501.867548 -244.466831 
L 507.188403 -243.773478 
L 512.509258 -243.497462 
L 517.830113 -243.386562 
L 523.150969 -243.14696 
L 528.471824 -242.80332 
L 533.792679 -242.553499 
L 539.113534 -242.431334 
L 544.434389 -242.392801 
L 549.755245 -242.406156 
L 555.0761 -242.425135 
L 560.396955 -242.397611 
L 565.71781 -242.361451 
L 571.038665 -242.369138 
L 576.35952 -242.374286 
L 581.680376 -242.384166 
L 587.001231 -242.401723 
L 592.322086 -242.325198 
L 597.642941 -242.162555 
L 602.963796 -242.028761 
L 608.284652 -241.959676 
L 613.605507 -241.920164 
L 618.926362 -241.90184 
L 624.247217 -241.880131 
L 629.568072 -241.79527 
L 634.888927 -241.691298 
L 640.209783 -241.611737 
L 645.530638 -241.543134 
L 650.851493 -241.496772 
L 656.172348 -241.473789 
L 661.493203 -241.462932 
L 666.814058 -241.448925 
L 672.134914 -241.426777 
L 677.455769 -241.411562 
L 677.455769 -241.400938 
L 677.455769 -241.400938 
L 672.134914 -241.385723 
L 666.814058 -241.363575 
L 661.493203 -241.349568 
L 656.172348 -241.338711 
L 650.851493 -241.315728 
L 645.530638 -241.269366 
L 640.209783 -241.200763 
L 634.888927 -241.121202 
L 629.568072 -241.01723 
L 624.247217 -240.932369 
L 618.926362 -240.91066 
L 613.605507 -240.892336 
L 608.284652 -240.852824 
L 602.963796 -240.783739 
L 597.642941 -240.649945 
L 592.322086 -240.487302 
L 587.001231 -240.410777 
L 581.680376 -240.428334 
L 576.35952 -240.438214 
L 571.038665 -240.443362 
L 565.71781 -240.451049 
L 560.396955 -240.414889 
L 555.0761 -240.387365 
L 549.755245 -240.406344 
L 544.434389 -240.419699 
L 539.113534 -240.381166 
L 533.792679 -240.259001 
L 528.471824 -240.00918 
L 523.150969 -239.66554 
L 517.830113 -239.425938 
L 512.509258 -239.315038 
L 507.188403 -239.039022 
L 501.867548 -238.345669 
L 496.546693 -237.499204 
L 491.225838 -237.089519 
L 485.904982 -237.094884 
L 480.584127 -236.914969 
L 475.263272 -236.373398 
L 469.942417 -235.870736 
L 464.621562 -235.669252 
L 459.300707 -235.511972 
L 453.979851 -235.131419 
L 448.658996 -234.626264 
L 443.338141 -233.895085 
L 438.017286 -232.896644 
L 432.696431 -231.699442 
L 427.375575 -230.023342 
L 422.05472 -228.439949 
L 416.733865 -227.876125 
L 411.41301 -227.947944 
L 406.092155 -227.883225 
L 400.7713 -227.139193 
L 395.450444 -224.914713 
L 390.129589 -221.988168 
L 384.808734 -220.585611 
L 379.487879 -221.01568 
L 374.167024 -221.716237 
L 368.846168 -221.759012 
L 363.525313 -220.873568 
L 358.204458 -218.692377 
L 352.883603 -216.467695 
L 347.562748 -216.003325 
L 342.241893 -216.648488 
L 336.921037 -216.997539 
L 331.600182 -216.738554 
L 326.279327 -216.382933 
L 320.958472 -216.165818 
L 315.637617 -215.439626 
L 310.316762 -214.492053 
L 304.995906 -214.046842 
L 299.675051 -214.167547 
L 294.354196 -213.902484 
L 289.033341 -212.600895 
L 283.712486 -211.515336 
L 278.39163 -211.504939 
L 273.070775 -211.906902 
L 267.74992 -212.404737 
L 262.429065 -213.61052 
L 257.10821 -214.995722 
L 251.787355 -215.285592 
L 246.466499 -215.178714 
L 241.145644 -216.014831 
L 235.824789 -217.060376 
L 230.503934 -217.678513 
L 225.183079 -219.275494 
L 219.862223 -221.485571 
L 214.541368 -222.468008 
L 209.220513 -222.875594 
L 203.899658 -223.843691 
L 198.578803 -224.720166 
L 193.257948 -225.489581 
L 187.937092 -227.185313 
L 182.616237 -229.130068 
L 177.295382 -231.046422 
L 171.974527 -233.736108 
L 166.653672 -236.637888 
L 161.332817 -238.994058 
L 156.011961 -240.558931 
L 150.691106 -241.23216 
z
" id="mdc88a22324" style="stroke:#262626;stroke-width:1.5;"/>
    </defs>
    <g clip-path="url(#p147ba64718)">
     <use style="fill:#107010;stroke:#262626;stroke-width:1.5;" x="0" xlink:href="#mdc88a22324" y="400.04775"/>
    </g>
   </g>
   <g id="PolyCollection_3">
    <defs>
     <path d="M 149.32862 -159.797954 
L 149.32862 -159.934546 
L 154.677001 -160.212569 
L 160.025381 -161.060619 
L 165.373761 -162.825065 
L 170.722141 -165.276197 
L 176.070521 -167.369504 
L 181.418901 -168.416255 
L 186.767281 -169.112112 
L 192.115662 -170.218445 
L 197.464042 -171.477495 
L 202.812422 -172.629923 
L 208.160802 -173.543513 
L 213.509182 -174.081188 
L 218.857562 -174.9251 
L 224.205942 -176.716512 
L 229.554323 -178.554069 
L 234.902703 -179.70141 
L 240.251083 -180.505326 
L 245.599463 -180.763124 
L 250.947843 -180.642256 
L 256.296223 -181.35158 
L 261.644603 -183.316693 
L 266.992984 -185.628292 
L 272.341364 -187.247261 
L 277.689744 -187.752035 
L 283.038124 -187.251574 
L 288.386504 -186.263661 
L 293.734884 -185.577352 
L 299.083264 -185.778369 
L 304.431645 -186.455616 
L 309.780025 -186.556618 
L 315.128405 -185.843896 
L 320.476785 -185.367822 
L 325.825165 -185.704167 
L 331.173545 -186.133512 
L 336.521925 -186.23867 
L 341.870306 -186.182806 
L 347.218686 -186.068185 
L 352.567066 -185.407572 
L 357.915446 -183.84643 
L 363.263826 -182.366554 
L 368.612206 -182.018806 
L 373.960586 -182.821605 
L 379.308967 -184.083561 
L 384.657347 -184.401877 
L 390.005727 -182.784491 
L 395.354107 -180.323411 
L 400.702487 -178.85363 
L 406.050867 -178.360733 
L 411.399247 -178.140312 
L 416.747628 -178.256744 
L 422.096008 -178.016351 
L 427.444388 -176.398577 
L 432.792768 -173.981894 
L 438.141148 -171.786365 
L 443.489528 -169.932894 
L 448.837908 -168.631058 
L 454.186289 -168.026783 
L 459.534669 -167.720756 
L 464.883049 -167.333601 
L 470.231429 -166.753553 
L 475.579809 -166.039893 
L 480.928189 -165.4637 
L 486.276569 -165.322701 
L 491.62495 -165.501686 
L 496.97333 -165.495126 
L 502.32171 -164.778944 
L 507.67009 -163.546744 
L 513.01847 -162.607742 
L 518.36685 -162.184686 
L 523.71523 -161.885232 
L 529.063611 -161.557964 
L 534.411991 -161.329655 
L 539.760371 -161.234859 
L 545.108751 -161.205048 
L 550.457131 -161.193485 
L 555.805511 -161.196507 
L 561.153891 -161.204875 
L 566.502272 -161.235005 
L 571.850652 -161.30843 
L 577.199032 -161.371712 
L 582.547412 -161.359332 
L 587.895792 -161.253754 
L 593.244172 -161.055371 
L 598.592552 -160.805404 
L 603.940933 -160.596342 
L 609.289313 -160.487652 
L 614.637693 -160.455209 
L 619.986073 -160.446358 
L 625.334453 -160.403132 
L 630.682833 -160.312841 
L 636.031213 -160.22552 
L 641.379594 -160.150434 
L 646.727974 -160.067605 
L 652.076354 -159.992104 
L 657.424734 -159.945241 
L 662.773114 -159.923072 
L 668.121494 -159.904852 
L 673.469874 -159.88449 
L 678.818255 -159.871435 
L 678.818255 -159.861065 
L 678.818255 -159.861065 
L 673.469874 -159.84801 
L 668.121494 -159.827648 
L 662.773114 -159.809428 
L 657.424734 -159.787259 
L 652.076354 -159.740396 
L 646.727974 -159.664895 
L 641.379594 -159.582066 
L 636.031213 -159.50698 
L 630.682833 -159.419659 
L 625.334453 -159.329368 
L 619.986073 -159.286142 
L 614.637693 -159.277291 
L 609.289313 -159.244848 
L 603.940933 -159.136158 
L 598.592552 -158.927096 
L 593.244172 -158.677129 
L 587.895792 -158.478746 
L 582.547412 -158.373168 
L 577.199032 -158.360788 
L 571.850652 -158.42407 
L 566.502272 -158.497495 
L 561.153891 -158.527625 
L 555.805511 -158.535993 
L 550.457131 -158.539015 
L 545.108751 -158.527452 
L 539.760371 -158.497641 
L 534.411991 -158.402845 
L 529.063611 -158.174536 
L 523.71523 -157.847268 
L 518.36685 -157.547814 
L 513.01847 -157.124758 
L 507.67009 -156.185756 
L 502.32171 -154.953556 
L 496.97333 -154.237374 
L 491.62495 -154.230814 
L 486.276569 -154.409799 
L 480.928189 -154.2688 
L 475.579809 -153.692607 
L 470.231429 -152.978947 
L 464.883049 -152.398899 
L 459.534669 -152.011744 
L 454.186289 -151.705717 
L 448.837908 -151.101442 
L 443.489528 -149.799606 
L 438.141148 -147.946135 
L 432.792768 -145.750606 
L 427.444388 -143.333923 
L 422.096008 -141.716149 
L 416.747628 -141.475756 
L 411.399247 -141.592188 
L 406.050867 -141.371767 
L 400.702487 -140.87887 
L 395.354107 -139.409089 
L 390.005727 -136.948009 
L 384.657347 -135.330623 
L 379.308967 -135.648939 
L 373.960586 -136.910895 
L 368.612206 -137.713694 
L 363.263826 -137.365946 
L 357.915446 -135.88607 
L 352.567066 -134.324928 
L 347.218686 -133.664315 
L 341.870306 -133.549694 
L 336.521925 -133.49383 
L 331.173545 -133.598988 
L 325.825165 -134.028333 
L 320.476785 -134.364678 
L 315.128405 -133.888604 
L 309.780025 -133.175882 
L 304.431645 -133.276884 
L 299.083264 -133.954131 
L 293.734884 -134.155148 
L 288.386504 -133.468839 
L 283.038124 -132.480926 
L 277.689744 -131.980465 
L 272.341364 -132.485239 
L 266.992984 -134.104208 
L 261.644603 -136.415807 
L 256.296223 -138.38092 
L 250.947843 -139.090244 
L 245.599463 -138.969376 
L 240.251083 -139.227174 
L 234.902703 -140.03109 
L 229.554323 -141.178431 
L 224.205942 -143.015988 
L 218.857562 -144.8074 
L 213.509182 -145.651312 
L 208.160802 -146.188987 
L 202.812422 -147.102577 
L 197.464042 -148.255005 
L 192.115662 -149.514055 
L 186.767281 -150.620388 
L 181.418901 -151.316245 
L 176.070521 -152.362996 
L 170.722141 -154.456303 
L 165.373761 -156.907435 
L 160.025381 -158.671881 
L 154.677001 -159.519931 
L 149.32862 -159.797954 
z
" id="m802e0ef0a9" style="stroke:#262626;stroke-width:1.5;"/>
    </defs>
    <g clip-path="url(#p147ba64718)">
     <use style="fill:#107010;stroke:#262626;stroke-width:1.5;" x="0" xlink:href="#m802e0ef0a9" y="400.04775"/>
    </g>
   </g>
   <g id="PolyCollection_4">
    <defs>
     <path d="M 147.979553 -78.28794 
L 147.979553 -78.36456 
L 153.355187 -78.573521 
L 158.730821 -79.382697 
L 164.106455 -81.304586 
L 169.482089 -83.966373 
L 174.857723 -85.850286 
L 180.233357 -86.143466 
L 185.608991 -85.847837 
L 190.984625 -86.160228 
L 196.360259 -87.15574 
L 201.735893 -88.440886 
L 207.111527 -89.687302 
L 212.487161 -90.57223 
L 217.862795 -91.211601 
L 223.238429 -92.175479 
L 228.614063 -93.642971 
L 233.989697 -95.255871 
L 239.365331 -96.569736 
L 244.740965 -97.282739 
L 250.116599 -97.717668 
L 255.492233 -98.674321 
L 260.867867 -100.389091 
L 266.243501 -102.307659 
L 271.619136 -103.866842 
L 276.99477 -104.870388 
L 282.370404 -105.11526 
L 287.746038 -104.554049 
L 293.121672 -103.982056 
L 298.497306 -104.160247 
L 303.87294 -104.327788 
L 309.248574 -103.509236 
L 314.624208 -102.399924 
L 319.999842 -102.259999 
L 325.375476 -103.355807 
L 330.75111 -105.113595 
L 336.126744 -106.635611 
L 341.502378 -107.028811 
L 346.878012 -106.146526 
L 352.253646 -104.60467 
L 357.62928 -103.053488 
L 363.004914 -102.14277 
L 368.380548 -102.144089 
L 373.756182 -102.587263 
L 379.131816 -102.821448 
L 384.50745 -102.221487 
L 389.883084 -100.750019 
L 395.258718 -99.309933 
L 400.634352 -98.388081 
L 406.009986 -97.66119 
L 411.38562 -97.14877 
L 416.761255 -96.954252 
L 422.136889 -96.405832 
L 427.512523 -94.921687 
L 432.888157 -92.887822 
L 438.263791 -90.843464 
L 443.639425 -89.016185 
L 449.015059 -87.756919 
L 454.390693 -87.182063 
L 459.766327 -86.916404 
L 465.141961 -86.627064 
L 470.517595 -86.194471 
L 475.893229 -85.603677 
L 481.268863 -85.112617 
L 486.644497 -85.035125 
L 492.020131 -85.127056 
L 497.395765 -84.759936 
L 502.771399 -83.775777 
L 508.147033 -82.666498 
L 513.522667 -81.904055 
L 518.898301 -81.499076 
L 524.273935 -81.219694 
L 529.649569 -80.928659 
L 535.025203 -80.659435 
L 540.400837 -80.501699 
L 545.776471 -80.439338 
L 551.152105 -80.356388 
L 556.527739 -80.212407 
L 561.903374 -80.117033 
L 567.279008 -80.155293 
L 572.654642 -80.228992 
L 578.030276 -80.216967 
L 583.40591 -80.127925 
L 588.781544 -80.00003 
L 594.157178 -79.8332 
L 599.532812 -79.651878 
L 604.908446 -79.509428 
L 610.28408 -79.436396 
L 615.659714 -79.432917 
L 621.035348 -79.434466 
L 626.410982 -79.334382 
L 631.786616 -79.13623 
L 637.16225 -78.936478 
L 642.537884 -78.772378 
L 647.913518 -78.635555 
L 653.289152 -78.535703 
L 658.664786 -78.478712 
L 664.04042 -78.442719 
L 669.416054 -78.40247 
L 674.791688 -78.361861 
L 680.167322 -78.337121 
L 680.167322 -78.315379 
L 680.167322 -78.315379 
L 674.791688 -78.290639 
L 669.416054 -78.25003 
L 664.04042 -78.209781 
L 658.664786 -78.173788 
L 653.289152 -78.116797 
L 647.913518 -78.016945 
L 642.537884 -77.880122 
L 637.16225 -77.716022 
L 631.786616 -77.51627 
L 626.410982 -77.318118 
L 621.035348 -77.218034 
L 615.659714 -77.219583 
L 610.28408 -77.216104 
L 604.908446 -77.143072 
L 599.532812 -77.000622 
L 594.157178 -76.8193 
L 588.781544 -76.65247 
L 583.40591 -76.524575 
L 578.030276 -76.435533 
L 572.654642 -76.423508 
L 567.279008 -76.497207 
L 561.903374 -76.535467 
L 556.527739 -76.440093 
L 551.152105 -76.296112 
L 545.776471 -76.213162 
L 540.400837 -76.150801 
L 535.025203 -75.993065 
L 529.649569 -75.723841 
L 524.273935 -75.432806 
L 518.898301 -75.153424 
L 513.522667 -74.748445 
L 508.147033 -73.986002 
L 502.771399 -72.876723 
L 497.395765 -71.892564 
L 492.020131 -71.525444 
L 486.644497 -71.617375 
L 481.268863 -71.539883 
L 475.893229 -71.048823 
L 470.517595 -70.458029 
L 465.141961 -70.025436 
L 459.766327 -69.736096 
L 454.390693 -69.470437 
L 449.015059 -68.895581 
L 443.639425 -67.636315 
L 438.263791 -65.809036 
L 432.888157 -63.764678 
L 427.512523 -61.730813 
L 422.136889 -60.246668 
L 416.761255 -59.698248 
L 411.38562 -59.50373 
L 406.009986 -58.99131 
L 400.634352 -58.264419 
L 395.258718 -57.342567 
L 389.883084 -55.902481 
L 384.50745 -54.431013 
L 379.131816 -53.831052 
L 373.756182 -54.065237 
L 368.380548 -54.508411 
L 363.004914 -54.50973 
L 357.62928 -53.599012 
L 352.253646 -52.04783 
L 346.878012 -50.505974 
L 341.502378 -49.623689 
L 336.126744 -50.016889 
L 330.75111 -51.538905 
L 325.375476 -53.296693 
L 319.999842 -54.392501 
L 314.624208 -54.252576 
L 309.248574 -53.143264 
L 303.87294 -52.324712 
L 298.497306 -52.492253 
L 293.121672 -52.670444 
L 287.746038 -52.098451 
L 282.370404 -51.53724 
L 276.99477 -51.782112 
L 271.619136 -52.785658 
L 266.243501 -54.344841 
L 260.867867 -56.263409 
L 255.492233 -57.978179 
L 250.116599 -58.934832 
L 244.740965 -59.369761 
L 239.365331 -60.082764 
L 233.989697 -61.396629 
L 228.614063 -63.009529 
L 223.238429 -64.477021 
L 217.862795 -65.440899 
L 212.487161 -66.08027 
L 207.111527 -66.965198 
L 201.735893 -68.211614 
L 196.360259 -69.49676 
L 190.984625 -70.492272 
L 185.608991 -70.804663 
L 180.233357 -70.509034 
L 174.857723 -70.802214 
L 169.482089 -72.686127 
L 164.106455 -75.347914 
L 158.730821 -77.269803 
L 153.355187 -78.078979 
L 147.979553 -78.28794 
z
" id="mf3a809a433" style="stroke:#262626;stroke-width:1.5;"/>
    </defs>
    <g clip-path="url(#p147ba64718)">
     <use style="fill:#107010;stroke:#262626;stroke-width:1.5;" x="0" xlink:href="#mf3a809a433" y="400.04775"/>
    </g>
   </g>
   <g id="matplotlib.axis_1">
    <g id="xtick_1">
     <g id="line2d_1">
      <defs>
       <path d="M 0 0 
L 0 3.5 
" id="m50f46e2cb1" style="stroke:#000000;stroke-width:0.8;"/>
      </defs>
      <g>
       <use style="stroke:#000000;stroke-width:0.8;" x="147.561739" xlink:href="#m50f46e2cb1" y="362.4915"/>
      </g>
     </g>
     <g id="text_1">
      <!-- 0.0 -->
      <defs>
       <path d="M 31.78125 66.40625 
Q 24.171875 66.40625 20.328125 58.90625 
Q 16.5 51.421875 16.5 36.375 
Q 16.5 21.390625 20.328125 13.890625 
Q 24.171875 6.390625 31.78125 6.390625 
Q 39.453125 6.390625 43.28125 13.890625 
Q 47.125 21.390625 47.125 36.375 
Q 47.125 51.421875 43.28125 58.90625 
Q 39.453125 66.40625 31.78125 66.40625 
z
M 31.78125 74.21875 
Q 44.046875 74.21875 50.515625 64.515625 
Q 56.984375 54.828125 56.984375 36.375 
Q 56.984375 17.96875 50.515625 8.265625 
Q 44.046875 -1.421875 31.78125 -1.421875 
Q 19.53125 -1.421875 13.0625 8.265625 
Q 6.59375 17.96875 6.59375 36.375 
Q 6.59375 54.828125 13.0625 64.515625 
Q 19.53125 74.21875 31.78125 74.21875 
z
" id="DejaVuSans-48"/>
       <path d="M 10.6875 12.40625 
L 21 12.40625 
L 21 0 
L 10.6875 0 
z
" id="DejaVuSans-46"/>
      </defs>
      <g transform="translate(139.610176 377.089938)scale(0.1 -0.1)">
       <use xlink:href="#DejaVuSans-48"/>
       <use x="63.623047" xlink:href="#DejaVuSans-46"/>
       <use x="95.410156" xlink:href="#DejaVuSans-48"/>
      </g>
     </g>
    </g>
    <g id="xtick_2">
     <g id="line2d_2">
      <g>
       <use style="stroke:#000000;stroke-width:0.8;" x="261.091749" xlink:href="#m50f46e2cb1" y="362.4915"/>
      </g>
     </g>
     <g id="text_2">
      <!-- 0.2 -->
      <defs>
       <path d="M 19.1875 8.296875 
L 53.609375 8.296875 
L 53.609375 0 
L 7.328125 0 
L 7.328125 8.296875 
Q 12.9375 14.109375 22.625 23.890625 
Q 32.328125 33.6875 34.8125 36.53125 
Q 39.546875 41.84375 41.421875 45.53125 
Q 43.3125 49.21875 43.3125 52.78125 
Q 43.3125 58.59375 39.234375 62.25 
Q 35.15625 65.921875 28.609375 65.921875 
Q 23.96875 65.921875 18.8125 64.3125 
Q 13.671875 62.703125 7.8125 59.421875 
L 7.8125 69.390625 
Q 13.765625 71.78125 18.9375 73 
Q 24.125 74.21875 28.421875 74.21875 
Q 39.75 74.21875 46.484375 68.546875 
Q 53.21875 62.890625 53.21875 53.421875 
Q 53.21875 48.921875 51.53125 44.890625 
Q 49.859375 40.875 45.40625 35.40625 
Q 44.1875 33.984375 37.640625 27.21875 
Q 31.109375 20.453125 19.1875 8.296875 
z
" id="DejaVuSans-50"/>
      </defs>
      <g transform="translate(253.140186 377.089938)scale(0.1 -0.1)">
       <use xlink:href="#DejaVuSans-48"/>
       <use x="63.623047" xlink:href="#DejaVuSans-46"/>
       <use x="95.410156" xlink:href="#DejaVuSans-50"/>
      </g>
     </g>
    </g>
    <g id="xtick_3">
     <g id="line2d_3">
      <g>
       <use style="stroke:#000000;stroke-width:0.8;" x="374.621759" xlink:href="#m50f46e2cb1" y="362.4915"/>
      </g>
     </g>
     <g id="text_3">
      <!-- 0.4 -->
      <defs>
       <path d="M 37.796875 64.3125 
L 12.890625 25.390625 
L 37.796875 25.390625 
z
M 35.203125 72.90625 
L 47.609375 72.90625 
L 47.609375 25.390625 
L 58.015625 25.390625 
L 58.015625 17.1875 
L 47.609375 17.1875 
L 47.609375 0 
L 37.796875 0 
L 37.796875 17.1875 
L 4.890625 17.1875 
L 4.890625 26.703125 
z
" id="DejaVuSans-52"/>
      </defs>
      <g transform="translate(366.670196 377.089938)scale(0.1 -0.1)">
       <use xlink:href="#DejaVuSans-48"/>
       <use x="63.623047" xlink:href="#DejaVuSans-46"/>
       <use x="95.410156" xlink:href="#DejaVuSans-52"/>
      </g>
     </g>
    </g>
    <g id="xtick_4">
     <g id="line2d_4">
      <g>
       <use style="stroke:#000000;stroke-width:0.8;" x="488.151769" xlink:href="#m50f46e2cb1" y="362.4915"/>
      </g>
     </g>
     <g id="text_4">
      <!-- 0.6 -->
      <defs>
       <path d="M 33.015625 40.375 
Q 26.375 40.375 22.484375 35.828125 
Q 18.609375 31.296875 18.609375 23.390625 
Q 18.609375 15.53125 22.484375 10.953125 
Q 26.375 6.390625 33.015625 6.390625 
Q 39.65625 6.390625 43.53125 10.953125 
Q 47.40625 15.53125 47.40625 23.390625 
Q 47.40625 31.296875 43.53125 35.828125 
Q 39.65625 40.375 33.015625 40.375 
z
M 52.59375 71.296875 
L 52.59375 62.3125 
Q 48.875 64.0625 45.09375 64.984375 
Q 41.3125 65.921875 37.59375 65.921875 
Q 27.828125 65.921875 22.671875 59.328125 
Q 17.53125 52.734375 16.796875 39.40625 
Q 19.671875 43.65625 24.015625 45.921875 
Q 28.375 48.1875 33.59375 48.1875 
Q 44.578125 48.1875 50.953125 41.515625 
Q 57.328125 34.859375 57.328125 23.390625 
Q 57.328125 12.15625 50.6875 5.359375 
Q 44.046875 -1.421875 33.015625 -1.421875 
Q 20.359375 -1.421875 13.671875 8.265625 
Q 6.984375 17.96875 6.984375 36.375 
Q 6.984375 53.65625 15.1875 63.9375 
Q 23.390625 74.21875 37.203125 74.21875 
Q 40.921875 74.21875 44.703125 73.484375 
Q 48.484375 72.75 52.59375 71.296875 
z
" id="DejaVuSans-54"/>
      </defs>
      <g transform="translate(480.200207 377.089938)scale(0.1 -0.1)">
       <use xlink:href="#DejaVuSans-48"/>
       <use x="63.623047" xlink:href="#DejaVuSans-46"/>
       <use x="95.410156" xlink:href="#DejaVuSans-54"/>
      </g>
     </g>
    </g>
    <g id="xtick_5">
     <g id="line2d_5">
      <g>
       <use style="stroke:#000000;stroke-width:0.8;" x="601.681779" xlink:href="#m50f46e2cb1" y="362.4915"/>
      </g>
     </g>
     <g id="text_5">
      <!-- 0.8 -->
      <defs>
       <path d="M 31.78125 34.625 
Q 24.75 34.625 20.71875 30.859375 
Q 16.703125 27.09375 16.703125 20.515625 
Q 16.703125 13.921875 20.71875 10.15625 
Q 24.75 6.390625 31.78125 6.390625 
Q 38.8125 6.390625 42.859375 10.171875 
Q 46.921875 13.96875 46.921875 20.515625 
Q 46.921875 27.09375 42.890625 30.859375 
Q 38.875 34.625 31.78125 34.625 
z
M 21.921875 38.8125 
Q 15.578125 40.375 12.03125 44.71875 
Q 8.5 49.078125 8.5 55.328125 
Q 8.5 64.0625 14.71875 69.140625 
Q 20.953125 74.21875 31.78125 74.21875 
Q 42.671875 74.21875 48.875 69.140625 
Q 55.078125 64.0625 55.078125 55.328125 
Q 55.078125 49.078125 51.53125 44.71875 
Q 48 40.375 41.703125 38.8125 
Q 48.828125 37.15625 52.796875 32.3125 
Q 56.78125 27.484375 56.78125 20.515625 
Q 56.78125 9.90625 50.3125 4.234375 
Q 43.84375 -1.421875 31.78125 -1.421875 
Q 19.734375 -1.421875 13.25 4.234375 
Q 6.78125 9.90625 6.78125 20.515625 
Q 6.78125 27.484375 10.78125 32.3125 
Q 14.796875 37.15625 21.921875 38.8125 
z
M 18.3125 54.390625 
Q 18.3125 48.734375 21.84375 45.5625 
Q 25.390625 42.390625 31.78125 42.390625 
Q 38.140625 42.390625 41.71875 45.5625 
Q 45.3125 48.734375 45.3125 54.390625 
Q 45.3125 60.0625 41.71875 63.234375 
Q 38.140625 66.40625 31.78125 66.40625 
Q 25.390625 66.40625 21.84375 63.234375 
Q 18.3125 60.0625 18.3125 54.390625 
z
" id="DejaVuSans-56"/>
      </defs>
      <g transform="translate(593.730217 377.089938)scale(0.1 -0.1)">
       <use xlink:href="#DejaVuSans-48"/>
       <use x="63.623047" xlink:href="#DejaVuSans-46"/>
       <use x="95.410156" xlink:href="#DejaVuSans-56"/>
      </g>
     </g>
    </g>
    <g id="text_6">
     <!-- ICSE -->
     <defs>
      <path d="M 9.8125 72.90625 
L 19.671875 72.90625 
L 19.671875 0 
L 9.8125 0 
z
" id="DejaVuSans-73"/>
      <path d="M 64.40625 67.28125 
L 64.40625 56.890625 
Q 59.421875 61.53125 53.78125 63.8125 
Q 48.140625 66.109375 41.796875 66.109375 
Q 29.296875 66.109375 22.65625 58.46875 
Q 16.015625 50.828125 16.015625 36.375 
Q 16.015625 21.96875 22.65625 14.328125 
Q 29.296875 6.6875 41.796875 6.6875 
Q 48.140625 6.6875 53.78125 8.984375 
Q 59.421875 11.28125 64.40625 15.921875 
L 64.40625 5.609375 
Q 59.234375 2.09375 53.4375 0.328125 
Q 47.65625 -1.421875 41.21875 -1.421875 
Q 24.65625 -1.421875 15.125 8.703125 
Q 5.609375 18.84375 5.609375 36.375 
Q 5.609375 53.953125 15.125 64.078125 
Q 24.65625 74.21875 41.21875 74.21875 
Q 47.75 74.21875 53.53125 72.484375 
Q 59.328125 70.75 64.40625 67.28125 
z
" id="DejaVuSans-67"/>
      <path d="M 53.515625 70.515625 
L 53.515625 60.890625 
Q 47.90625 63.578125 42.921875 64.890625 
Q 37.9375 66.21875 33.296875 66.21875 
Q 25.25 66.21875 20.875 63.09375 
Q 16.5 59.96875 16.5 54.203125 
Q 16.5 49.359375 19.40625 46.890625 
Q 22.3125 44.4375 30.421875 42.921875 
L 36.375 41.703125 
Q 47.40625 39.59375 52.65625 34.296875 
Q 57.90625 29 57.90625 20.125 
Q 57.90625 9.515625 50.796875 4.046875 
Q 43.703125 -1.421875 29.984375 -1.421875 
Q 24.8125 -1.421875 18.96875 -0.25 
Q 13.140625 0.921875 6.890625 3.21875 
L 6.890625 13.375 
Q 12.890625 10.015625 18.65625 8.296875 
Q 24.421875 6.59375 29.984375 6.59375 
Q 38.421875 6.59375 43.015625 9.90625 
Q 47.609375 13.234375 47.609375 19.390625 
Q 47.609375 24.75 44.3125 27.78125 
Q 41.015625 30.8125 33.5 32.328125 
L 27.484375 33.5 
Q 16.453125 35.6875 11.515625 40.375 
Q 6.59375 45.0625 6.59375 53.421875 
Q 6.59375 63.09375 13.40625 68.65625 
Q 20.21875 74.21875 32.171875 74.21875 
Q 37.3125 74.21875 42.625 73.28125 
Q 47.953125 72.359375 53.515625 70.515625 
z
" id="DejaVuSans-83"/>
      <path d="M 9.8125 72.90625 
L 55.90625 72.90625 
L 55.90625 64.59375 
L 19.671875 64.59375 
L 19.671875 43.015625 
L 54.390625 43.015625 
L 54.390625 34.71875 
L 19.671875 34.71875 
L 19.671875 8.296875 
L 56.78125 8.296875 
L 56.78125 0 
L 9.8125 0 
z
" id="DejaVuSans-69"/>
     </defs>
     <g transform="translate(402.773438 390.768062)scale(0.1 -0.1)">
      <use xlink:href="#DejaVuSans-73"/>
      <use x="29.492188" xlink:href="#DejaVuSans-67"/>
      <use x="99.316406" xlink:href="#DejaVuSans-83"/>
      <use x="162.792969" xlink:href="#DejaVuSans-69"/>
     </g>
    </g>
   </g>
   <g id="matplotlib.axis_2">
    <g id="ytick_1">
     <g id="line2d_6">
      <defs>
       <path d="M 0 0 
L -3.5 0 
" id="m98bd060ebe" style="stroke:#000000;stroke-width:0.8;"/>
      </defs>
      <g>
       <use style="stroke:#000000;stroke-width:0.8;" x="135.073438" xlink:href="#m98bd060ebe" y="77.1015"/>
      </g>
     </g>
     <g id="text_7">
      <!-- Avanzado -->
      <defs>
       <path d="M 34.1875 63.1875 
L 20.796875 26.90625 
L 47.609375 26.90625 
z
M 28.609375 72.90625 
L 39.796875 72.90625 
L 67.578125 0 
L 57.328125 0 
L 50.6875 18.703125 
L 17.828125 18.703125 
L 11.1875 0 
L 0.78125 0 
z
" id="DejaVuSans-65"/>
       <path d="M 2.984375 54.6875 
L 12.5 54.6875 
L 29.59375 8.796875 
L 46.6875 54.6875 
L 56.203125 54.6875 
L 35.6875 0 
L 23.484375 0 
z
" id="DejaVuSans-118"/>
       <path d="M 34.28125 27.484375 
Q 23.390625 27.484375 19.1875 25 
Q 14.984375 22.515625 14.984375 16.5 
Q 14.984375 11.71875 18.140625 8.90625 
Q 21.296875 6.109375 26.703125 6.109375 
Q 34.1875 6.109375 38.703125 11.40625 
Q 43.21875 16.703125 43.21875 25.484375 
L 43.21875 27.484375 
z
M 52.203125 31.203125 
L 52.203125 0 
L 43.21875 0 
L 43.21875 8.296875 
Q 40.140625 3.328125 35.546875 0.953125 
Q 30.953125 -1.421875 24.3125 -1.421875 
Q 15.921875 -1.421875 10.953125 3.296875 
Q 6 8.015625 6 15.921875 
Q 6 25.140625 12.171875 29.828125 
Q 18.359375 34.515625 30.609375 34.515625 
L 43.21875 34.515625 
L 43.21875 35.40625 
Q 43.21875 41.609375 39.140625 45 
Q 35.0625 48.390625 27.6875 48.390625 
Q 23 48.390625 18.546875 47.265625 
Q 14.109375 46.140625 10.015625 43.890625 
L 10.015625 52.203125 
Q 14.9375 54.109375 19.578125 55.046875 
Q 24.21875 56 28.609375 56 
Q 40.484375 56 46.34375 49.84375 
Q 52.203125 43.703125 52.203125 31.203125 
z
" id="DejaVuSans-97"/>
       <path d="M 54.890625 33.015625 
L 54.890625 0 
L 45.90625 0 
L 45.90625 32.71875 
Q 45.90625 40.484375 42.875 44.328125 
Q 39.84375 48.1875 33.796875 48.1875 
Q 26.515625 48.1875 22.3125 43.546875 
Q 18.109375 38.921875 18.109375 30.90625 
L 18.109375 0 
L 9.078125 0 
L 9.078125 54.6875 
L 18.109375 54.6875 
L 18.109375 46.1875 
Q 21.34375 51.125 25.703125 53.5625 
Q 30.078125 56 35.796875 56 
Q 45.21875 56 50.046875 50.171875 
Q 54.890625 44.34375 54.890625 33.015625 
z
" id="DejaVuSans-110"/>
       <path d="M 5.515625 54.6875 
L 48.1875 54.6875 
L 48.1875 46.484375 
L 14.40625 7.171875 
L 48.1875 7.171875 
L 48.1875 0 
L 4.296875 0 
L 4.296875 8.203125 
L 38.09375 47.515625 
L 5.515625 47.515625 
z
" id="DejaVuSans-122"/>
       <path d="M 45.40625 46.390625 
L 45.40625 75.984375 
L 54.390625 75.984375 
L 54.390625 0 
L 45.40625 0 
L 45.40625 8.203125 
Q 42.578125 3.328125 38.25 0.953125 
Q 33.9375 -1.421875 27.875 -1.421875 
Q 17.96875 -1.421875 11.734375 6.484375 
Q 5.515625 14.40625 5.515625 27.296875 
Q 5.515625 40.1875 11.734375 48.09375 
Q 17.96875 56 27.875 56 
Q 33.9375 56 38.25 53.625 
Q 42.578125 51.265625 45.40625 46.390625 
z
M 14.796875 27.296875 
Q 14.796875 17.390625 18.875 11.75 
Q 22.953125 6.109375 30.078125 6.109375 
Q 37.203125 6.109375 41.296875 11.75 
Q 45.40625 17.390625 45.40625 27.296875 
Q 45.40625 37.203125 41.296875 42.84375 
Q 37.203125 48.484375 30.078125 48.484375 
Q 22.953125 48.484375 18.875 42.84375 
Q 14.796875 37.203125 14.796875 27.296875 
z
" id="DejaVuSans-100"/>
       <path d="M 30.609375 48.390625 
Q 23.390625 48.390625 19.1875 42.75 
Q 14.984375 37.109375 14.984375 27.296875 
Q 14.984375 17.484375 19.15625 11.84375 
Q 23.34375 6.203125 30.609375 6.203125 
Q 37.796875 6.203125 41.984375 11.859375 
Q 46.1875 17.53125 46.1875 27.296875 
Q 46.1875 37.015625 41.984375 42.703125 
Q 37.796875 48.390625 30.609375 48.390625 
z
M 30.609375 56 
Q 42.328125 56 49.015625 48.375 
Q 55.71875 40.765625 55.71875 27.296875 
Q 55.71875 13.875 49.015625 6.21875 
Q 42.328125 -1.421875 30.609375 -1.421875 
Q 18.84375 -1.421875 12.171875 6.21875 
Q 5.515625 13.875 5.515625 27.296875 
Q 5.515625 40.765625 12.171875 48.375 
Q 18.84375 56 30.609375 56 
z
" id="DejaVuSans-111"/>
      </defs>
      <g transform="translate(79.0125 80.900719)scale(0.1 -0.1)">
       <use xlink:href="#DejaVuSans-65"/>
       <use x="68.330078" xlink:href="#DejaVuSans-118"/>
       <use x="127.509766" xlink:href="#DejaVuSans-97"/>
       <use x="188.789062" xlink:href="#DejaVuSans-110"/>
       <use x="252.167969" xlink:href="#DejaVuSans-122"/>
       <use x="304.658203" xlink:href="#DejaVuSans-97"/>
       <use x="365.9375" xlink:href="#DejaVuSans-100"/>
       <use x="429.414062" xlink:href="#DejaVuSans-111"/>
      </g>
     </g>
    </g>
    <g id="ytick_2">
     <g id="line2d_7">
      <g>
       <use style="stroke:#000000;stroke-width:0.8;" x="135.073438" xlink:href="#m98bd060ebe" y="158.6415"/>
      </g>
     </g>
     <g id="text_8">
      <!-- Satisfactorio -->
      <defs>
       <path d="M 18.3125 70.21875 
L 18.3125 54.6875 
L 36.8125 54.6875 
L 36.8125 47.703125 
L 18.3125 47.703125 
L 18.3125 18.015625 
Q 18.3125 11.328125 20.140625 9.421875 
Q 21.96875 7.515625 27.59375 7.515625 
L 36.8125 7.515625 
L 36.8125 0 
L 27.59375 0 
Q 17.1875 0 13.234375 3.875 
Q 9.28125 7.765625 9.28125 18.015625 
L 9.28125 47.703125 
L 2.6875 47.703125 
L 2.6875 54.6875 
L 9.28125 54.6875 
L 9.28125 70.21875 
z
" id="DejaVuSans-116"/>
       <path d="M 9.421875 54.6875 
L 18.40625 54.6875 
L 18.40625 0 
L 9.421875 0 
z
M 9.421875 75.984375 
L 18.40625 75.984375 
L 18.40625 64.59375 
L 9.421875 64.59375 
z
" id="DejaVuSans-105"/>
       <path d="M 44.28125 53.078125 
L 44.28125 44.578125 
Q 40.484375 46.53125 36.375 47.5 
Q 32.28125 48.484375 27.875 48.484375 
Q 21.1875 48.484375 17.84375 46.4375 
Q 14.5 44.390625 14.5 40.28125 
Q 14.5 37.15625 16.890625 35.375 
Q 19.28125 33.59375 26.515625 31.984375 
L 29.59375 31.296875 
Q 39.15625 29.25 43.1875 25.515625 
Q 47.21875 21.78125 47.21875 15.09375 
Q 47.21875 7.46875 41.1875 3.015625 
Q 35.15625 -1.421875 24.609375 -1.421875 
Q 20.21875 -1.421875 15.453125 -0.5625 
Q 10.6875 0.296875 5.421875 2 
L 5.421875 11.28125 
Q 10.40625 8.6875 15.234375 7.390625 
Q 20.0625 6.109375 24.8125 6.109375 
Q 31.15625 6.109375 34.5625 8.28125 
Q 37.984375 10.453125 37.984375 14.40625 
Q 37.984375 18.0625 35.515625 20.015625 
Q 33.0625 21.96875 24.703125 23.78125 
L 21.578125 24.515625 
Q 13.234375 26.265625 9.515625 29.90625 
Q 5.8125 33.546875 5.8125 39.890625 
Q 5.8125 47.609375 11.28125 51.796875 
Q 16.75 56 26.8125 56 
Q 31.78125 56 36.171875 55.265625 
Q 40.578125 54.546875 44.28125 53.078125 
z
" id="DejaVuSans-115"/>
       <path d="M 37.109375 75.984375 
L 37.109375 68.5 
L 28.515625 68.5 
Q 23.6875 68.5 21.796875 66.546875 
Q 19.921875 64.59375 19.921875 59.515625 
L 19.921875 54.6875 
L 34.71875 54.6875 
L 34.71875 47.703125 
L 19.921875 47.703125 
L 19.921875 0 
L 10.890625 0 
L 10.890625 47.703125 
L 2.296875 47.703125 
L 2.296875 54.6875 
L 10.890625 54.6875 
L 10.890625 58.5 
Q 10.890625 67.625 15.140625 71.796875 
Q 19.390625 75.984375 28.609375 75.984375 
z
" id="DejaVuSans-102"/>
       <path d="M 48.78125 52.59375 
L 48.78125 44.1875 
Q 44.96875 46.296875 41.140625 47.34375 
Q 37.3125 48.390625 33.40625 48.390625 
Q 24.65625 48.390625 19.8125 42.84375 
Q 14.984375 37.3125 14.984375 27.296875 
Q 14.984375 17.28125 19.8125 11.734375 
Q 24.65625 6.203125 33.40625 6.203125 
Q 37.3125 6.203125 41.140625 7.25 
Q 44.96875 8.296875 48.78125 10.40625 
L 48.78125 2.09375 
Q 45.015625 0.34375 40.984375 -0.53125 
Q 36.96875 -1.421875 32.421875 -1.421875 
Q 20.0625 -1.421875 12.78125 6.34375 
Q 5.515625 14.109375 5.515625 27.296875 
Q 5.515625 40.671875 12.859375 48.328125 
Q 20.21875 56 33.015625 56 
Q 37.15625 56 41.109375 55.140625 
Q 45.0625 54.296875 48.78125 52.59375 
z
" id="DejaVuSans-99"/>
       <path d="M 41.109375 46.296875 
Q 39.59375 47.171875 37.8125 47.578125 
Q 36.03125 48 33.890625 48 
Q 26.265625 48 22.1875 43.046875 
Q 18.109375 38.09375 18.109375 28.8125 
L 18.109375 0 
L 9.078125 0 
L 9.078125 54.6875 
L 18.109375 54.6875 
L 18.109375 46.1875 
Q 20.953125 51.171875 25.484375 53.578125 
Q 30.03125 56 36.53125 56 
Q 37.453125 56 38.578125 55.875 
Q 39.703125 55.765625 41.0625 55.515625 
z
" id="DejaVuSans-114"/>
      </defs>
      <g transform="translate(65.495313 162.440719)scale(0.1 -0.1)">
       <use xlink:href="#DejaVuSans-83"/>
       <use x="63.476562" xlink:href="#DejaVuSans-97"/>
       <use x="124.755859" xlink:href="#DejaVuSans-116"/>
       <use x="163.964844" xlink:href="#DejaVuSans-105"/>
       <use x="191.748047" xlink:href="#DejaVuSans-115"/>
       <use x="243.847656" xlink:href="#DejaVuSans-102"/>
       <use x="279.052734" xlink:href="#DejaVuSans-97"/>
       <use x="340.332031" xlink:href="#DejaVuSans-99"/>
       <use x="395.3125" xlink:href="#DejaVuSans-116"/>
       <use x="434.521484" xlink:href="#DejaVuSans-111"/>
       <use x="495.703125" xlink:href="#DejaVuSans-114"/>
       <use x="536.816406" xlink:href="#DejaVuSans-105"/>
       <use x="564.599609" xlink:href="#DejaVuSans-111"/>
      </g>
     </g>
    </g>
    <g id="ytick_3">
     <g id="line2d_8">
      <g>
       <use style="stroke:#000000;stroke-width:0.8;" x="135.073438" xlink:href="#m98bd060ebe" y="240.1815"/>
      </g>
     </g>
     <g id="text_9">
      <!-- Básico -->
      <defs>
       <path d="M 19.671875 34.8125 
L 19.671875 8.109375 
L 35.5 8.109375 
Q 43.453125 8.109375 47.28125 11.40625 
Q 51.125 14.703125 51.125 21.484375 
Q 51.125 28.328125 47.28125 31.5625 
Q 43.453125 34.8125 35.5 34.8125 
z
M 19.671875 64.796875 
L 19.671875 42.828125 
L 34.28125 42.828125 
Q 41.5 42.828125 45.03125 45.53125 
Q 48.578125 48.25 48.578125 53.8125 
Q 48.578125 59.328125 45.03125 62.0625 
Q 41.5 64.796875 34.28125 64.796875 
z
M 9.8125 72.90625 
L 35.015625 72.90625 
Q 46.296875 72.90625 52.390625 68.21875 
Q 58.5 63.53125 58.5 54.890625 
Q 58.5 48.1875 55.375 44.234375 
Q 52.25 40.28125 46.1875 39.3125 
Q 53.46875 37.75 57.5 32.78125 
Q 61.53125 27.828125 61.53125 20.40625 
Q 61.53125 10.640625 54.890625 5.3125 
Q 48.25 0 35.984375 0 
L 9.8125 0 
z
" id="DejaVuSans-66"/>
       <path d="M 34.28125 27.484375 
Q 23.390625 27.484375 19.1875 25 
Q 14.984375 22.515625 14.984375 16.5 
Q 14.984375 11.71875 18.140625 8.90625 
Q 21.296875 6.109375 26.703125 6.109375 
Q 34.1875 6.109375 38.703125 11.40625 
Q 43.21875 16.703125 43.21875 25.484375 
L 43.21875 27.484375 
z
M 52.203125 31.203125 
L 52.203125 0 
L 43.21875 0 
L 43.21875 8.296875 
Q 40.140625 3.328125 35.546875 0.953125 
Q 30.953125 -1.421875 24.3125 -1.421875 
Q 15.921875 -1.421875 10.953125 3.296875 
Q 6 8.015625 6 15.921875 
Q 6 25.140625 12.171875 29.828125 
Q 18.359375 34.515625 30.609375 34.515625 
L 43.21875 34.515625 
L 43.21875 35.40625 
Q 43.21875 41.609375 39.140625 45 
Q 35.0625 48.390625 27.6875 48.390625 
Q 23 48.390625 18.546875 47.265625 
Q 14.109375 46.140625 10.015625 43.890625 
L 10.015625 52.203125 
Q 14.9375 54.109375 19.578125 55.046875 
Q 24.21875 56 28.609375 56 
Q 40.484375 56 46.34375 49.84375 
Q 52.203125 43.703125 52.203125 31.203125 
z
M 35.796875 79.984375 
L 45.515625 79.984375 
L 29.59375 61.625 
L 22.125 61.625 
z
" id="DejaVuSans-225"/>
      </defs>
      <g transform="translate(95.479688 243.980719)scale(0.1 -0.1)">
       <use xlink:href="#DejaVuSans-66"/>
       <use x="68.603516" xlink:href="#DejaVuSans-225"/>
       <use x="129.882812" xlink:href="#DejaVuSans-115"/>
       <use x="181.982422" xlink:href="#DejaVuSans-105"/>
       <use x="209.765625" xlink:href="#DejaVuSans-99"/>
       <use x="264.746094" xlink:href="#DejaVuSans-111"/>
      </g>
     </g>
    </g>
    <g id="ytick_4">
     <g id="line2d_9">
      <g>
       <use style="stroke:#000000;stroke-width:0.8;" x="135.073438" xlink:href="#m98bd060ebe" y="321.7215"/>
      </g>
     </g>
     <g id="text_10">
      <!-- Por debajo del básico -->
      <defs>
       <path d="M 19.671875 64.796875 
L 19.671875 37.40625 
L 32.078125 37.40625 
Q 38.96875 37.40625 42.71875 40.96875 
Q 46.484375 44.53125 46.484375 51.125 
Q 46.484375 57.671875 42.71875 61.234375 
Q 38.96875 64.796875 32.078125 64.796875 
z
M 9.8125 72.90625 
L 32.078125 72.90625 
Q 44.34375 72.90625 50.609375 67.359375 
Q 56.890625 61.8125 56.890625 51.125 
Q 56.890625 40.328125 50.609375 34.8125 
Q 44.34375 29.296875 32.078125 29.296875 
L 19.671875 29.296875 
L 19.671875 0 
L 9.8125 0 
z
" id="DejaVuSans-80"/>
       <path id="DejaVuSans-32"/>
       <path d="M 56.203125 29.59375 
L 56.203125 25.203125 
L 14.890625 25.203125 
Q 15.484375 15.921875 20.484375 11.0625 
Q 25.484375 6.203125 34.421875 6.203125 
Q 39.59375 6.203125 44.453125 7.46875 
Q 49.3125 8.734375 54.109375 11.28125 
L 54.109375 2.78125 
Q 49.265625 0.734375 44.1875 -0.34375 
Q 39.109375 -1.421875 33.890625 -1.421875 
Q 20.796875 -1.421875 13.15625 6.1875 
Q 5.515625 13.8125 5.515625 26.8125 
Q 5.515625 40.234375 12.765625 48.109375 
Q 20.015625 56 32.328125 56 
Q 43.359375 56 49.78125 48.890625 
Q 56.203125 41.796875 56.203125 29.59375 
z
M 47.21875 32.234375 
Q 47.125 39.59375 43.09375 43.984375 
Q 39.0625 48.390625 32.421875 48.390625 
Q 24.90625 48.390625 20.390625 44.140625 
Q 15.875 39.890625 15.1875 32.171875 
z
" id="DejaVuSans-101"/>
       <path d="M 48.6875 27.296875 
Q 48.6875 37.203125 44.609375 42.84375 
Q 40.53125 48.484375 33.40625 48.484375 
Q 26.265625 48.484375 22.1875 42.84375 
Q 18.109375 37.203125 18.109375 27.296875 
Q 18.109375 17.390625 22.1875 11.75 
Q 26.265625 6.109375 33.40625 6.109375 
Q 40.53125 6.109375 44.609375 11.75 
Q 48.6875 17.390625 48.6875 27.296875 
z
M 18.109375 46.390625 
Q 20.953125 51.265625 25.265625 53.625 
Q 29.59375 56 35.59375 56 
Q 45.5625 56 51.78125 48.09375 
Q 58.015625 40.1875 58.015625 27.296875 
Q 58.015625 14.40625 51.78125 6.484375 
Q 45.5625 -1.421875 35.59375 -1.421875 
Q 29.59375 -1.421875 25.265625 0.953125 
Q 20.953125 3.328125 18.109375 8.203125 
L 18.109375 0 
L 9.078125 0 
L 9.078125 75.984375 
L 18.109375 75.984375 
z
" id="DejaVuSans-98"/>
       <path d="M 9.421875 54.6875 
L 18.40625 54.6875 
L 18.40625 -0.984375 
Q 18.40625 -11.421875 14.421875 -16.109375 
Q 10.453125 -20.796875 1.609375 -20.796875 
L -1.8125 -20.796875 
L -1.8125 -13.1875 
L 0.59375 -13.1875 
Q 5.71875 -13.1875 7.5625 -10.8125 
Q 9.421875 -8.453125 9.421875 -0.984375 
z
M 9.421875 75.984375 
L 18.40625 75.984375 
L 18.40625 64.59375 
L 9.421875 64.59375 
z
" id="DejaVuSans-106"/>
       <path d="M 9.421875 75.984375 
L 18.40625 75.984375 
L 18.40625 0 
L 9.421875 0 
z
" id="DejaVuSans-108"/>
      </defs>
      <g transform="translate(21.048438 325.720719)scale(0.1 -0.1)">
       <use xlink:href="#DejaVuSans-80"/>
       <use x="60.255859" xlink:href="#DejaVuSans-111"/>
       <use x="121.4375" xlink:href="#DejaVuSans-114"/>
       <use x="162.550781" xlink:href="#DejaVuSans-32"/>
       <use x="194.337891" xlink:href="#DejaVuSans-100"/>
       <use x="257.814453" xlink:href="#DejaVuSans-101"/>
       <use x="319.337891" xlink:href="#DejaVuSans-98"/>
       <use x="382.814453" xlink:href="#DejaVuSans-97"/>
       <use x="444.09375" xlink:href="#DejaVuSans-106"/>
       <use x="471.876953" xlink:href="#DejaVuSans-111"/>
       <use x="533.058594" xlink:href="#DejaVuSans-32"/>
       <use x="564.845703" xlink:href="#DejaVuSans-100"/>
       <use x="628.322266" xlink:href="#DejaVuSans-101"/>
       <use x="689.845703" xlink:href="#DejaVuSans-108"/>
       <use x="717.628906" xlink:href="#DejaVuSans-32"/>
       <use x="749.416016" xlink:href="#DejaVuSans-98"/>
       <use x="812.892578" xlink:href="#DejaVuSans-225"/>
       <use x="874.171875" xlink:href="#DejaVuSans-115"/>
       <use x="926.271484" xlink:href="#DejaVuSans-105"/>
       <use x="954.054688" xlink:href="#DejaVuSans-99"/>
       <use x="1009.035156" xlink:href="#DejaVuSans-111"/>
      </g>
     </g>
    </g>
    <g id="text_11">
     <!-- Nivel de desempeño en naturales -->
     <defs>
      <path d="M 9.8125 72.90625 
L 23.09375 72.90625 
L 55.421875 11.921875 
L 55.421875 72.90625 
L 64.984375 72.90625 
L 64.984375 0 
L 51.703125 0 
L 19.390625 60.984375 
L 19.390625 0 
L 9.8125 0 
z
" id="DejaVuSans-78"/>
      <path d="M 52 44.1875 
Q 55.375 50.25 60.0625 53.125 
Q 64.75 56 71.09375 56 
Q 79.640625 56 84.28125 50.015625 
Q 88.921875 44.046875 88.921875 33.015625 
L 88.921875 0 
L 79.890625 0 
L 79.890625 32.71875 
Q 79.890625 40.578125 77.09375 44.375 
Q 74.3125 48.1875 68.609375 48.1875 
Q 61.625 48.1875 57.5625 43.546875 
Q 53.515625 38.921875 53.515625 30.90625 
L 53.515625 0 
L 44.484375 0 
L 44.484375 32.71875 
Q 44.484375 40.625 41.703125 44.40625 
Q 38.921875 48.1875 33.109375 48.1875 
Q 26.21875 48.1875 22.15625 43.53125 
Q 18.109375 38.875 18.109375 30.90625 
L 18.109375 0 
L 9.078125 0 
L 9.078125 54.6875 
L 18.109375 54.6875 
L 18.109375 46.1875 
Q 21.1875 51.21875 25.484375 53.609375 
Q 29.78125 56 35.6875 56 
Q 41.65625 56 45.828125 52.96875 
Q 50 49.953125 52 44.1875 
z
" id="DejaVuSans-109"/>
      <path d="M 18.109375 8.203125 
L 18.109375 -20.796875 
L 9.078125 -20.796875 
L 9.078125 54.6875 
L 18.109375 54.6875 
L 18.109375 46.390625 
Q 20.953125 51.265625 25.265625 53.625 
Q 29.59375 56 35.59375 56 
Q 45.5625 56 51.78125 48.09375 
Q 58.015625 40.1875 58.015625 27.296875 
Q 58.015625 14.40625 51.78125 6.484375 
Q 45.5625 -1.421875 35.59375 -1.421875 
Q 29.59375 -1.421875 25.265625 0.953125 
Q 20.953125 3.328125 18.109375 8.203125 
z
M 48.6875 27.296875 
Q 48.6875 37.203125 44.609375 42.84375 
Q 40.53125 48.484375 33.40625 48.484375 
Q 26.265625 48.484375 22.1875 42.84375 
Q 18.109375 37.203125 18.109375 27.296875 
Q 18.109375 17.390625 22.1875 11.75 
Q 26.265625 6.109375 33.40625 6.109375 
Q 40.53125 6.109375 44.609375 11.75 
Q 48.6875 17.390625 48.6875 27.296875 
z
" id="DejaVuSans-112"/>
      <path d="M 54.890625 33.015625 
L 54.890625 0 
L 45.90625 0 
L 45.90625 32.71875 
Q 45.90625 40.484375 42.875 44.328125 
Q 39.84375 48.1875 33.796875 48.1875 
Q 26.515625 48.1875 22.3125 43.546875 
Q 18.109375 38.921875 18.109375 30.90625 
L 18.109375 0 
L 9.078125 0 
L 9.078125 54.6875 
L 18.109375 54.6875 
L 18.109375 46.1875 
Q 21.34375 51.125 25.703125 53.5625 
Q 30.078125 56 35.796875 56 
Q 45.21875 56 50.046875 50.171875 
Q 54.890625 44.34375 54.890625 33.015625 
z
M 32.234375 66.890625 
L 29.4375 69.578125 
Q 28.375 70.5625 27.5625 71.015625 
Q 26.765625 71.484375 26.125 71.484375 
Q 24.265625 71.484375 23.390625 69.703125 
Q 22.515625 67.921875 22.40625 63.921875 
L 16.3125 63.921875 
Q 16.40625 70.515625 18.890625 74.09375 
Q 21.390625 77.6875 25.828125 77.6875 
Q 27.6875 77.6875 29.25 77 
Q 30.8125 76.3125 32.625 74.703125 
L 35.40625 72.015625 
Q 36.46875 71.046875 37.28125 70.578125 
Q 38.09375 70.125 38.71875 70.125 
Q 40.578125 70.125 41.453125 71.90625 
Q 42.328125 73.6875 42.4375 77.6875 
L 48.53125 77.6875 
Q 48.4375 71.09375 45.9375 67.5 
Q 43.453125 63.921875 39.015625 63.921875 
Q 37.15625 63.921875 35.59375 64.59375 
Q 34.03125 65.28125 32.234375 66.890625 
z
" id="DejaVuSans-241"/>
      <path d="M 8.5 21.578125 
L 8.5 54.6875 
L 17.484375 54.6875 
L 17.484375 21.921875 
Q 17.484375 14.15625 20.5 10.265625 
Q 23.53125 6.390625 29.59375 6.390625 
Q 36.859375 6.390625 41.078125 11.03125 
Q 45.3125 15.671875 45.3125 23.6875 
L 45.3125 54.6875 
L 54.296875 54.6875 
L 54.296875 0 
L 45.3125 0 
L 45.3125 8.40625 
Q 42.046875 3.421875 37.71875 1 
Q 33.40625 -1.421875 27.6875 -1.421875 
Q 18.265625 -1.421875 13.375 4.4375 
Q 8.5 10.296875 8.5 21.578125 
z
M 31.109375 56 
z
" id="DejaVuSans-117"/>
     </defs>
     <g transform="translate(14.96875 283.651344)rotate(-90)scale(0.1 -0.1)">
      <use xlink:href="#DejaVuSans-78"/>
      <use x="74.804688" xlink:href="#DejaVuSans-105"/>
      <use x="102.587891" xlink:href="#DejaVuSans-118"/>
      <use x="161.767578" xlink:href="#DejaVuSans-101"/>
      <use x="223.291016" xlink:href="#DejaVuSans-108"/>
      <use x="251.074219" xlink:href="#DejaVuSans-32"/>
      <use x="282.861328" xlink:href="#DejaVuSans-100"/>
      <use x="346.337891" xlink:href="#DejaVuSans-101"/>
      <use x="407.861328" xlink:href="#DejaVuSans-32"/>
      <use x="439.648438" xlink:href="#DejaVuSans-100"/>
      <use x="503.125" xlink:href="#DejaVuSans-101"/>
      <use x="564.648438" xlink:href="#DejaVuSans-115"/>
      <use x="616.748047" xlink:href="#DejaVuSans-101"/>
      <use x="678.271484" xlink:href="#DejaVuSans-109"/>
      <use x="775.683594" xlink:href="#DejaVuSans-112"/>
      <use x="839.160156" xlink:href="#DejaVuSans-101"/>
      <use x="900.683594" xlink:href="#DejaVuSans-241"/>
      <use x="964.0625" xlink:href="#DejaVuSans-111"/>
      <use x="1025.244141" xlink:href="#DejaVuSans-32"/>
      <use x="1057.03125" xlink:href="#DejaVuSans-101"/>
      <use x="1118.554688" xlink:href="#DejaVuSans-110"/>
      <use x="1181.933594" xlink:href="#DejaVuSans-32"/>
      <use x="1213.720703" xlink:href="#DejaVuSans-110"/>
      <use x="1277.099609" xlink:href="#DejaVuSans-97"/>
      <use x="1338.378906" xlink:href="#DejaVuSans-116"/>
      <use x="1377.587891" xlink:href="#DejaVuSans-117"/>
      <use x="1440.966797" xlink:href="#DejaVuSans-114"/>
      <use x="1482.080078" xlink:href="#DejaVuSans-97"/>
      <use x="1543.359375" xlink:href="#DejaVuSans-108"/>
      <use x="1571.142578" xlink:href="#DejaVuSans-101"/>
      <use x="1632.666016" xlink:href="#DejaVuSans-115"/>
     </g>
    </g>
   </g>
   <g id="line2d_10">
    <path clip-path="url(#p147ba64718)" d="M 163.45594 77.1015 
L 535.266723 77.1015 
" style="fill:none;stroke:#262626;stroke-linecap:square;stroke-width:1.5;"/>
   </g>
   <g id="line2d_11">
    <path clip-path="url(#p147ba64718)" d="M 234.979846 77.1015 
L 355.321657 77.1015 
" style="fill:none;stroke:#262626;stroke-linecap:square;stroke-width:4.5;"/>
   </g>
   <g id="line2d_12">
    <path clip-path="url(#p147ba64718)" d="M 163.45594 158.6415 
L 546.619724 158.6415 
" style="fill:none;stroke:#262626;stroke-linecap:square;stroke-width:1.5;"/>
   </g>
   <g id="line2d_13">
    <path clip-path="url(#p147ba64718)" d="M 251.441698 158.6415 
L 369.512909 158.6415 
" style="fill:none;stroke:#262626;stroke-linecap:square;stroke-width:4.5;"/>
   </g>
   <g id="line2d_14">
    <path clip-path="url(#p147ba64718)" d="M 163.45594 240.1815 
L 568.758076 240.1815 
" style="fill:none;stroke:#262626;stroke-linecap:square;stroke-width:1.5;"/>
   </g>
   <g id="line2d_15">
    <path clip-path="url(#p147ba64718)" d="M 267.903549 240.1815 
L 388.24536 240.1815 
" style="fill:none;stroke:#262626;stroke-linecap:square;stroke-width:4.5;"/>
   </g>
   <g id="line2d_16">
    <path clip-path="url(#p147ba64718)" d="M 163.45594 321.7215 
L 580.111077 321.7215 
" style="fill:none;stroke:#262626;stroke-linecap:square;stroke-width:1.5;"/>
   </g>
   <g id="line2d_17">
    <path clip-path="url(#p147ba64718)" d="M 273.58005 321.7215 
L 396.192461 321.7215 
" style="fill:none;stroke:#262626;stroke-linecap:square;stroke-width:4.5;"/>
   </g>
   <g id="patch_3">
    <path d="M 135.073438 362.4915 
L 135.073438 36.3315 
" style="fill:none;stroke:#000000;stroke-linecap:square;stroke-linejoin:miter;stroke-width:0.8;"/>
   </g>
   <g id="patch_4">
    <path d="M 693.073437 362.4915 
L 693.073437 36.3315 
" style="fill:none;stroke:#000000;stroke-linecap:square;stroke-linejoin:miter;stroke-width:0.8;"/>
   </g>
   <g id="patch_5">
    <path d="M 135.073438 362.4915 
L 693.073437 362.4915 
" style="fill:none;stroke:#000000;stroke-linecap:square;stroke-linejoin:miter;stroke-width:0.8;"/>
   </g>
   <g id="patch_6">
    <path d="M 135.073438 36.3315 
L 693.073437 36.3315 
" style="fill:none;stroke:#000000;stroke-linecap:square;stroke-linejoin:miter;stroke-width:0.8;"/>
   </g>
   <g id="PathCollection_1">
    <defs>
     <path d="M 0 1.5 
C 0.397805 1.5 0.77937 1.341951 1.06066 1.06066 
C 1.341951 0.77937 1.5 0.397805 1.5 0 
C 1.5 -0.397805 1.341951 -0.77937 1.06066 -1.06066 
C 0.77937 -1.341951 0.397805 -1.5 0 -1.5 
C -0.397805 -1.5 -0.77937 -1.341951 -1.06066 -1.06066 
C -1.341951 -0.77937 -1.5 -0.397805 -1.5 0 
C -1.5 0.397805 -1.341951 0.77937 -1.06066 1.06066 
C -0.77937 1.341951 -0.397805 1.5 0 1.5 
z
" id="m15a0a9c25b" style="stroke:#262626;"/>
    </defs>
    <g clip-path="url(#p147ba64718)">
     <use style="fill:#ffffff;stroke:#262626;" x="286.636001" xlink:href="#m15a0a9c25b" y="77.1015"/>
    </g>
   </g>
   <g id="PathCollection_2">
    <g clip-path="url(#p147ba64718)">
     <use style="fill:#ffffff;stroke:#262626;" x="305.936103" xlink:href="#m15a0a9c25b" y="158.6415"/>
    </g>
   </g>
   <g id="PathCollection_3">
    <g clip-path="url(#p147ba64718)">
     <use style="fill:#ffffff;stroke:#262626;" x="325.803855" xlink:href="#m15a0a9c25b" y="240.1815"/>
    </g>
   </g>
   <g id="PathCollection_4">
    <g clip-path="url(#p147ba64718)">
     <use style="fill:#ffffff;stroke:#262626;" x="334.318605" xlink:href="#m15a0a9c25b" y="321.7215"/>
    </g>
   </g>
   <g id="text_12">
    <!-- Distribución de: ICSE según el desempeño en naturales -->
    <defs>
     <path d="M 19.671875 64.796875 
L 19.671875 8.109375 
L 31.59375 8.109375 
Q 46.6875 8.109375 53.6875 14.9375 
Q 60.6875 21.78125 60.6875 36.53125 
Q 60.6875 51.171875 53.6875 57.984375 
Q 46.6875 64.796875 31.59375 64.796875 
z
M 9.8125 72.90625 
L 30.078125 72.90625 
Q 51.265625 72.90625 61.171875 64.09375 
Q 71.09375 55.28125 71.09375 36.53125 
Q 71.09375 17.671875 61.125 8.828125 
Q 51.171875 0 30.078125 0 
L 9.8125 0 
z
" id="DejaVuSans-68"/>
     <path d="M 30.609375 48.390625 
Q 23.390625 48.390625 19.1875 42.75 
Q 14.984375 37.109375 14.984375 27.296875 
Q 14.984375 17.484375 19.15625 11.84375 
Q 23.34375 6.203125 30.609375 6.203125 
Q 37.796875 6.203125 41.984375 11.859375 
Q 46.1875 17.53125 46.1875 27.296875 
Q 46.1875 37.015625 41.984375 42.703125 
Q 37.796875 48.390625 30.609375 48.390625 
z
M 30.609375 56 
Q 42.328125 56 49.015625 48.375 
Q 55.71875 40.765625 55.71875 27.296875 
Q 55.71875 13.875 49.015625 6.21875 
Q 42.328125 -1.421875 30.609375 -1.421875 
Q 18.84375 -1.421875 12.171875 6.21875 
Q 5.515625 13.875 5.515625 27.296875 
Q 5.515625 40.765625 12.171875 48.375 
Q 18.84375 56 30.609375 56 
z
M 37.40625 79.984375 
L 47.125 79.984375 
L 31.203125 61.625 
L 23.734375 61.625 
z
" id="DejaVuSans-243"/>
     <path d="M 11.71875 12.40625 
L 22.015625 12.40625 
L 22.015625 0 
L 11.71875 0 
z
M 11.71875 51.703125 
L 22.015625 51.703125 
L 22.015625 39.3125 
L 11.71875 39.3125 
z
" id="DejaVuSans-58"/>
     <path d="M 45.40625 27.984375 
Q 45.40625 37.75 41.375 43.109375 
Q 37.359375 48.484375 30.078125 48.484375 
Q 22.859375 48.484375 18.828125 43.109375 
Q 14.796875 37.75 14.796875 27.984375 
Q 14.796875 18.265625 18.828125 12.890625 
Q 22.859375 7.515625 30.078125 7.515625 
Q 37.359375 7.515625 41.375 12.890625 
Q 45.40625 18.265625 45.40625 27.984375 
z
M 54.390625 6.78125 
Q 54.390625 -7.171875 48.1875 -13.984375 
Q 42 -20.796875 29.203125 -20.796875 
Q 24.46875 -20.796875 20.265625 -20.09375 
Q 16.0625 -19.390625 12.109375 -17.921875 
L 12.109375 -9.1875 
Q 16.0625 -11.328125 19.921875 -12.34375 
Q 23.78125 -13.375 27.78125 -13.375 
Q 36.625 -13.375 41.015625 -8.765625 
Q 45.40625 -4.15625 45.40625 5.171875 
L 45.40625 9.625 
Q 42.625 4.78125 38.28125 2.390625 
Q 33.9375 0 27.875 0 
Q 17.828125 0 11.671875 7.65625 
Q 5.515625 15.328125 5.515625 27.984375 
Q 5.515625 40.671875 11.671875 48.328125 
Q 17.828125 56 27.875 56 
Q 33.9375 56 38.28125 53.609375 
Q 42.625 51.21875 45.40625 46.390625 
L 45.40625 54.6875 
L 54.390625 54.6875 
z
" id="DejaVuSans-103"/>
     <path d="M 8.5 21.578125 
L 8.5 54.6875 
L 17.484375 54.6875 
L 17.484375 21.921875 
Q 17.484375 14.15625 20.5 10.265625 
Q 23.53125 6.390625 29.59375 6.390625 
Q 36.859375 6.390625 41.078125 11.03125 
Q 45.3125 15.671875 45.3125 23.6875 
L 45.3125 54.6875 
L 54.296875 54.6875 
L 54.296875 0 
L 45.3125 0 
L 45.3125 8.40625 
Q 42.046875 3.421875 37.71875 1 
Q 33.40625 -1.421875 27.6875 -1.421875 
Q 18.265625 -1.421875 13.375 4.4375 
Q 8.5 10.296875 8.5 21.578125 
z
M 31.109375 56 
z
M 37.796875 79.984375 
L 47.515625 79.984375 
L 31.59375 61.625 
L 24.125 61.625 
z
" id="DejaVuSans-250"/>
    </defs>
    <g transform="translate(247.209688 16.798125)scale(0.12 -0.12)">
     <use xlink:href="#DejaVuSans-68"/>
     <use x="77.001953" xlink:href="#DejaVuSans-105"/>
     <use x="104.785156" xlink:href="#DejaVuSans-115"/>
     <use x="156.884766" xlink:href="#DejaVuSans-116"/>
     <use x="196.09375" xlink:href="#DejaVuSans-114"/>
     <use x="237.207031" xlink:href="#DejaVuSans-105"/>
     <use x="264.990234" xlink:href="#DejaVuSans-98"/>
     <use x="328.466797" xlink:href="#DejaVuSans-117"/>
     <use x="391.845703" xlink:href="#DejaVuSans-99"/>
     <use x="446.826172" xlink:href="#DejaVuSans-105"/>
     <use x="474.609375" xlink:href="#DejaVuSans-243"/>
     <use x="535.791016" xlink:href="#DejaVuSans-110"/>
     <use x="599.169922" xlink:href="#DejaVuSans-32"/>
     <use x="630.957031" xlink:href="#DejaVuSans-100"/>
     <use x="694.433594" xlink:href="#DejaVuSans-101"/>
     <use x="755.957031" xlink:href="#DejaVuSans-58"/>
     <use x="789.648438" xlink:href="#DejaVuSans-32"/>
     <use x="821.435547" xlink:href="#DejaVuSans-73"/>
     <use x="850.927734" xlink:href="#DejaVuSans-67"/>
     <use x="920.751953" xlink:href="#DejaVuSans-83"/>
     <use x="984.228516" xlink:href="#DejaVuSans-69"/>
     <use x="1047.412109" xlink:href="#DejaVuSans-32"/>
     <use x="1079.199219" xlink:href="#DejaVuSans-115"/>
     <use x="1131.298828" xlink:href="#DejaVuSans-101"/>
     <use x="1192.822266" xlink:href="#DejaVuSans-103"/>
     <use x="1256.298828" xlink:href="#DejaVuSans-250"/>
     <use x="1319.677734" xlink:href="#DejaVuSans-110"/>
     <use x="1383.056641" xlink:href="#DejaVuSans-32"/>
     <use x="1414.84375" xlink:href="#DejaVuSans-101"/>
     <use x="1476.367188" xlink:href="#DejaVuSans-108"/>
     <use x="1504.150391" xlink:href="#DejaVuSans-32"/>
     <use x="1535.9375" xlink:href="#DejaVuSans-100"/>
     <use x="1599.414062" xlink:href="#DejaVuSans-101"/>
     <use x="1660.9375" xlink:href="#DejaVuSans-115"/>
     <use x="1713.037109" xlink:href="#DejaVuSans-101"/>
     <use x="1774.560547" xlink:href="#DejaVuSans-109"/>
     <use x="1871.972656" xlink:href="#DejaVuSans-112"/>
     <use x="1935.449219" xlink:href="#DejaVuSans-101"/>
     <use x="1996.972656" xlink:href="#DejaVuSans-241"/>
     <use x="2060.351562" xlink:href="#DejaVuSans-111"/>
     <use x="2121.533203" xlink:href="#DejaVuSans-32"/>
     <use x="2153.320312" xlink:href="#DejaVuSans-101"/>
     <use x="2214.84375" xlink:href="#DejaVuSans-110"/>
     <use x="2278.222656" xlink:href="#DejaVuSans-32"/>
     <use x="2310.009766" xlink:href="#DejaVuSans-110"/>
     <use x="2373.388672" xlink:href="#DejaVuSans-97"/>
     <use x="2434.667969" xlink:href="#DejaVuSans-116"/>
     <use x="2473.876953" xlink:href="#DejaVuSans-117"/>
     <use x="2537.255859" xlink:href="#DejaVuSans-114"/>
     <use x="2578.369141" xlink:href="#DejaVuSans-97"/>
     <use x="2639.648438" xlink:href="#DejaVuSans-108"/>
     <use x="2667.431641" xlink:href="#DejaVuSans-101"/>
     <use x="2728.955078" xlink:href="#DejaVuSans-115"/>
    </g>
    <!--  Nivel: Primaria -->
    <g transform="translate(368.090937 30.2355)scale(0.12 -0.12)">
     <use xlink:href="#DejaVuSans-32"/>
     <use x="31.787109" xlink:href="#DejaVuSans-78"/>
     <use x="106.591797" xlink:href="#DejaVuSans-105"/>
     <use x="134.375" xlink:href="#DejaVuSans-118"/>
     <use x="193.554688" xlink:href="#DejaVuSans-101"/>
     <use x="255.078125" xlink:href="#DejaVuSans-108"/>
     <use x="282.861328" xlink:href="#DejaVuSans-58"/>
     <use x="316.552734" xlink:href="#DejaVuSans-32"/>
     <use x="348.339844" xlink:href="#DejaVuSans-80"/>
     <use x="408.626953" xlink:href="#DejaVuSans-114"/>
     <use x="449.740234" xlink:href="#DejaVuSans-105"/>
     <use x="477.523438" xlink:href="#DejaVuSans-109"/>
     <use x="574.935547" xlink:href="#DejaVuSans-97"/>
     <use x="636.214844" xlink:href="#DejaVuSans-114"/>
     <use x="677.328125" xlink:href="#DejaVuSans-105"/>
     <use x="705.111328" xlink:href="#DejaVuSans-97"/>
    </g>
   </g>
  </g>
 </g>
 <defs>
  <clipPath id="p147ba64718">
   <rect height="326.16" width="558" x="135.073438" y="36.3315"/>
  </clipPath>
 </defs>
</svg>
