<?xml version="1.0" encoding="utf-8" standalone="no"?>
<!DOCTYPE svg PUBLIC "-//W3C//DTD SVG 1.1//EN"
  "http://www.w3.org/Graphics/SVG/1.1/DTD/svg11.dtd">
<!-- Created with matplotlib (https://matplotlib.org/) -->
<svg height="400.04775pt" version="1.1" viewBox="0 0 704.003125 400.04775" width="704.003125pt" xmlns="http://www.w3.org/2000/svg" xmlns:xlink="http://www.w3.org/1999/xlink">
 <defs>
  <style type="text/css">
*{stroke-linecap:butt;stroke-linejoin:round;}
  </style>
 </defs>
 <g id="figure_1">
  <g id="patch_1">
   <path d="M 0 400.04775 
L 704.003125 400.04775 
L 704.003125 0 
L 0 0 
z
" style="fill:#ffffff;"/>
  </g>
  <g id="axes_1">
   <g id="patch_2">
    <path d="M 135.303125 362.4915 
L 693.303125 362.4915 
L 693.303125 36.3315 
L 135.303125 36.3315 
z
" style="fill:#ffffff;"/>
   </g>
   <g id="PolyCollection_1">
    <defs>
     <path d="M 147.212491 -322.202358 
L 147.212491 -323.690142 
L 152.542929 -325.236892 
L 157.873368 -328.561112 
L 163.203806 -333.983485 
L 168.534244 -340.557907 
L 173.864683 -346.23564 
L 179.195121 -349.387115 
L 184.52556 -350.198962 
L 189.855998 -350.313664 
L 195.186437 -351.199176 
L 200.516875 -353.020358 
L 205.847314 -354.82783 
L 211.177752 -355.56225 
L 216.508191 -354.939159 
L 221.838629 -353.481975 
L 227.169068 -351.797786 
L 232.499506 -350.083477 
L 237.829944 -348.46155 
L 243.160383 -347.43353 
L 248.490821 -347.544458 
L 253.82126 -348.641767 
L 259.151698 -349.83962 
L 264.482137 -350.331103 
L 269.812575 -350.04411 
L 275.143014 -349.427152 
L 280.473452 -348.798379 
L 285.803891 -348.099788 
L 291.134329 -347.175801 
L 296.464768 -345.995146 
L 301.795206 -344.539153 
L 307.125645 -342.720355 
L 312.456083 -340.553349 
L 317.786521 -338.271105 
L 323.11696 -336.173854 
L 328.447398 -334.432537 
L 333.777837 -333.056474 
L 339.108275 -331.968673 
L 344.438714 -331.089699 
L 349.769152 -330.385486 
L 355.099591 -329.841976 
L 360.430029 -329.416524 
L 365.760468 -329.078655 
L 371.090906 -328.893565 
L 376.421345 -328.954659 
L 381.751783 -329.176706 
L 387.082221 -329.254211 
L 392.41266 -328.921018 
L 397.743098 -328.199663 
L 403.073537 -327.336448 
L 408.403975 -326.562803 
L 413.734414 -325.974902 
L 419.064852 -325.565164 
L 424.395291 -325.279607 
L 429.725729 -325.051033 
L 435.056168 -324.827983 
L 440.386606 -324.600884 
L 445.717045 -324.399119 
L 451.047483 -324.248826 
L 456.377921 -324.13288 
L 461.70836 -324.002515 
L 467.038798 -323.826009 
L 472.369237 -323.620556 
L 477.699675 -323.442045 
L 483.030114 -323.346467 
L 488.360552 -323.353249 
L 493.690991 -323.434118 
L 499.021429 -323.530587 
L 504.351868 -323.589131 
L 509.682306 -323.591436 
L 515.012745 -323.551682 
L 520.343183 -323.48591 
L 525.673622 -323.397266 
L 531.00406 -323.292697 
L 536.334498 -323.194572 
L 541.664937 -323.126439 
L 546.995375 -323.099502 
L 552.325814 -323.11851 
L 557.656252 -323.186249 
L 562.986691 -323.289088 
L 568.317129 -323.386273 
L 573.647568 -323.43359 
L 578.978006 -323.423575 
L 584.308445 -323.391252 
L 589.638883 -323.376735 
L 594.969322 -323.3903 
L 600.29976 -323.412664 
L 605.630198 -323.420496 
L 610.960637 -323.410851 
L 616.291075 -323.401334 
L 621.621514 -323.40572 
L 626.951952 -323.416463 
L 632.282391 -323.414144 
L 637.612829 -323.384347 
L 642.943268 -323.323034 
L 648.273706 -323.23683 
L 653.604145 -323.142561 
L 658.934583 -323.060195 
L 664.265022 -323.002173 
L 669.59546 -322.969117 
L 674.925898 -322.953925 
L 674.925898 -322.938575 
L 674.925898 -322.938575 
L 669.59546 -322.923383 
L 664.265022 -322.890327 
L 658.934583 -322.832305 
L 653.604145 -322.749939 
L 648.273706 -322.65567 
L 642.943268 -322.569466 
L 637.612829 -322.508153 
L 632.282391 -322.478356 
L 626.951952 -322.476037 
L 621.621514 -322.48678 
L 616.291075 -322.491166 
L 610.960637 -322.481649 
L 605.630198 -322.472004 
L 600.29976 -322.479836 
L 594.969322 -322.5022 
L 589.638883 -322.515765 
L 584.308445 -322.501248 
L 578.978006 -322.468925 
L 573.647568 -322.45891 
L 568.317129 -322.506227 
L 562.986691 -322.603412 
L 557.656252 -322.706251 
L 552.325814 -322.77399 
L 546.995375 -322.792998 
L 541.664937 -322.766061 
L 536.334498 -322.697928 
L 531.00406 -322.599803 
L 525.673622 -322.495234 
L 520.343183 -322.40659 
L 515.012745 -322.340818 
L 509.682306 -322.301064 
L 504.351868 -322.303369 
L 499.021429 -322.361913 
L 493.690991 -322.458382 
L 488.360552 -322.539251 
L 483.030114 -322.546033 
L 477.699675 -322.450455 
L 472.369237 -322.271944 
L 467.038798 -322.066491 
L 461.70836 -321.889985 
L 456.377921 -321.75962 
L 451.047483 -321.643674 
L 445.717045 -321.493381 
L 440.386606 -321.291616 
L 435.056168 -321.064517 
L 429.725729 -320.841467 
L 424.395291 -320.612893 
L 419.064852 -320.327336 
L 413.734414 -319.917598 
L 408.403975 -319.329697 
L 403.073537 -318.556052 
L 397.743098 -317.692837 
L 392.41266 -316.971482 
L 387.082221 -316.638289 
L 381.751783 -316.715794 
L 376.421345 -316.937841 
L 371.090906 -316.998935 
L 365.760468 -316.813845 
L 360.430029 -316.475976 
L 355.099591 -316.050524 
L 349.769152 -315.507014 
L 344.438714 -314.802801 
L 339.108275 -313.923827 
L 333.777837 -312.836026 
L 328.447398 -311.459963 
L 323.11696 -309.718646 
L 317.786521 -307.621395 
L 312.456083 -305.339151 
L 307.125645 -303.172145 
L 301.795206 -301.353347 
L 296.464768 -299.897354 
L 291.134329 -298.716699 
L 285.803891 -297.792712 
L 280.473452 -297.094121 
L 275.143014 -296.465348 
L 269.812575 -295.84839 
L 264.482137 -295.561397 
L 259.151698 -296.05288 
L 253.82126 -297.250733 
L 248.490821 -298.348042 
L 243.160383 -298.45897 
L 237.829944 -297.43095 
L 232.499506 -295.809023 
L 227.169068 -294.094714 
L 221.838629 -292.410525 
L 216.508191 -290.953341 
L 211.177752 -290.33025 
L 205.847314 -291.06467 
L 200.516875 -292.872142 
L 195.186437 -294.693324 
L 189.855998 -295.578836 
L 184.52556 -295.693538 
L 179.195121 -296.505385 
L 173.864683 -299.65686 
L 168.534244 -305.334593 
L 163.203806 -311.909015 
L 157.873368 -317.331388 
L 152.542929 -320.655608 
L 147.212491 -322.202358 
z
" id="m32ba36bb4e" style="stroke:#4c4c4c;stroke-width:1.5;"/>
    </defs>
    <g clip-path="url(#p46c1cbc060)">
     <use style="fill:#df2020;stroke:#4c4c4c;stroke-width:1.5;" x="0" xlink:href="#m32ba36bb4e" y="400.04775"/>
    </g>
   </g>
   <g id="PolyCollection_2">
    <defs>
     <path d="M 149.961778 -241.301014 
L 149.961778 -241.511486 
L 155.201039 -242.060737 
L 160.440301 -244.076684 
L 165.679563 -248.666139 
L 170.918824 -254.941084 
L 176.158086 -259.629954 
L 181.397348 -260.781687 
L 186.63661 -260.10144 
L 191.875871 -260.275675 
L 197.115133 -261.790968 
L 202.354395 -263.354408 
L 207.593656 -264.113929 
L 212.832918 -264.28969 
L 218.07218 -264.329506 
L 223.311442 -264.133678 
L 228.550703 -263.715728 
L 233.789965 -263.731092 
L 239.029227 -264.338678 
L 244.268488 -265.162982 
L 249.50775 -266.470344 
L 254.747012 -268.630615 
L 259.986274 -270.813679 
L 265.225535 -271.779742 
L 270.464797 -271.462056 
L 275.704059 -270.606794 
L 280.94332 -269.665972 
L 286.182582 -268.733646 
L 291.421844 -267.89281 
L 296.661106 -267.090712 
L 301.900367 -265.911824 
L 307.139629 -264.030331 
L 312.378891 -261.771263 
L 317.618152 -259.693956 
L 322.857414 -257.945346 
L 328.096676 -256.466435 
L 333.335938 -255.336401 
L 338.575199 -254.476732 
L 343.814461 -253.769308 
L 349.053723 -253.44642 
L 354.292984 -253.657059 
L 359.532246 -253.956816 
L 364.771508 -253.727476 
L 370.01077 -252.98093 
L 375.250031 -252.176617 
L 380.489293 -251.504463 
L 385.728555 -250.785771 
L 390.967816 -249.761445 
L 396.207078 -248.560823 
L 401.44634 -247.681963 
L 406.685602 -247.310234 
L 411.924863 -247.085928 
L 417.164125 -246.661626 
L 422.403387 -246.08081 
L 427.642648 -245.506095 
L 432.88191 -244.963009 
L 438.121172 -244.453633 
L 443.360434 -244.0558 
L 448.599695 -243.810818 
L 453.838957 -243.670164 
L 459.078219 -243.567314 
L 464.31748 -243.451609 
L 469.556742 -243.272385 
L 474.796004 -243.015924 
L 480.035266 -242.779825 
L 485.274527 -242.667517 
L 490.513789 -242.611902 
L 495.753051 -242.514006 
L 500.992312 -242.421748 
L 506.231574 -242.389522 
L 511.470836 -242.365735 
L 516.710098 -242.295126 
L 521.949359 -242.197479 
L 527.188621 -242.108965 
L 532.427883 -242.046967 
L 537.667145 -242.018181 
L 542.906406 -241.982859 
L 548.145668 -241.906294 
L 553.38493 -241.815134 
L 558.624191 -241.747654 
L 563.863453 -241.725954 
L 569.102715 -241.732627 
L 574.341977 -241.711549 
L 579.581238 -241.660533 
L 584.8205 -241.641596 
L 590.059762 -241.664746 
L 595.299023 -241.670913 
L 600.538285 -241.638592 
L 605.777547 -241.602868 
L 611.016809 -241.58358 
L 616.25607 -241.567382 
L 621.495332 -241.545169 
L 626.734594 -241.533266 
L 631.973855 -241.551808 
L 637.213117 -241.584837 
L 642.452379 -241.585844 
L 647.691641 -241.541953 
L 652.930902 -241.485871 
L 658.170164 -241.443685 
L 663.409426 -241.419668 
L 668.648687 -241.409593 
L 668.648687 -241.402907 
L 668.648687 -241.402907 
L 663.409426 -241.392832 
L 658.170164 -241.368815 
L 652.930902 -241.326629 
L 647.691641 -241.270547 
L 642.452379 -241.226656 
L 637.213117 -241.227663 
L 631.973855 -241.260692 
L 626.734594 -241.279234 
L 621.495332 -241.267331 
L 616.25607 -241.245118 
L 611.016809 -241.22892 
L 605.777547 -241.209632 
L 600.538285 -241.173908 
L 595.299023 -241.141587 
L 590.059762 -241.147754 
L 584.8205 -241.170904 
L 579.581238 -241.151967 
L 574.341977 -241.100951 
L 569.102715 -241.079873 
L 563.863453 -241.086546 
L 558.624191 -241.064846 
L 553.38493 -240.997366 
L 548.145668 -240.906206 
L 542.906406 -240.829641 
L 537.667145 -240.794319 
L 532.427883 -240.765533 
L 527.188621 -240.703535 
L 521.949359 -240.615021 
L 516.710098 -240.517374 
L 511.470836 -240.446765 
L 506.231574 -240.422978 
L 500.992312 -240.390752 
L 495.753051 -240.298494 
L 490.513789 -240.200598 
L 485.274527 -240.144983 
L 480.035266 -240.032675 
L 474.796004 -239.796576 
L 469.556742 -239.540115 
L 464.31748 -239.360891 
L 459.078219 -239.245186 
L 453.838957 -239.142336 
L 448.599695 -239.001682 
L 443.360434 -238.7567 
L 438.121172 -238.358867 
L 432.88191 -237.849491 
L 427.642648 -237.306405 
L 422.403387 -236.73169 
L 417.164125 -236.150874 
L 411.924863 -235.726572 
L 406.685602 -235.502266 
L 401.44634 -235.130537 
L 396.207078 -234.251677 
L 390.967816 -233.051055 
L 385.728555 -232.026729 
L 380.489293 -231.308037 
L 375.250031 -230.635883 
L 370.01077 -229.83157 
L 364.771508 -229.085024 
L 359.532246 -228.855684 
L 354.292984 -229.155441 
L 349.053723 -229.36608 
L 343.814461 -229.043192 
L 338.575199 -228.335768 
L 333.335938 -227.476099 
L 328.096676 -226.346065 
L 322.857414 -224.867154 
L 317.618152 -223.118544 
L 312.378891 -221.041237 
L 307.139629 -218.782169 
L 301.900367 -216.900676 
L 296.661106 -215.721788 
L 291.421844 -214.91969 
L 286.182582 -214.078854 
L 280.94332 -213.146528 
L 275.704059 -212.205706 
L 270.464797 -211.350444 
L 265.225535 -211.032758 
L 259.986274 -211.998821 
L 254.747012 -214.181885 
L 249.50775 -216.342156 
L 244.268488 -217.649518 
L 239.029227 -218.473822 
L 233.789965 -219.081408 
L 228.550703 -219.096772 
L 223.311442 -218.678822 
L 218.07218 -218.482994 
L 212.832918 -218.52281 
L 207.593656 -218.698571 
L 202.354395 -219.458092 
L 197.115133 -221.021532 
L 191.875871 -222.536825 
L 186.63661 -222.71106 
L 181.397348 -222.030813 
L 176.158086 -223.182546 
L 170.918824 -227.871416 
L 165.679563 -234.146361 
L 160.440301 -238.735816 
L 155.201039 -240.751763 
L 149.961778 -241.301014 
z
" id="mf7c92d69fd" style="stroke:#4c4c4c;stroke-width:1.5;"/>
    </defs>
    <g clip-path="url(#p46c1cbc060)">
     <use style="fill:#df2020;stroke:#4c4c4c;stroke-width:1.5;" x="0" xlink:href="#mf7c92d69fd" y="400.04775"/>
    </g>
   </g>
   <g id="PolyCollection_3">
    <defs>
     <path d="M 149.679125 -159.808546 
L 149.679125 -159.923954 
L 155.025064 -160.226684 
L 160.371004 -161.359164 
L 165.716943 -163.998676 
L 171.062883 -167.689924 
L 176.408822 -170.528526 
L 181.754761 -171.429637 
L 187.100701 -171.57656 
L 192.44664 -172.548792 
L 197.79258 -174.393595 
L 203.138519 -176.134248 
L 208.484458 -177.201238 
L 213.830398 -177.81902 
L 219.176337 -178.282194 
L 224.522277 -178.554932 
L 229.868216 -178.861177 
L 235.214155 -179.658489 
L 240.560095 -180.806921 
L 245.906034 -181.860071 
L 251.251973 -183.001586 
L 256.597913 -184.552233 
L 261.943852 -186.057993 
L 267.289792 -186.903659 
L 272.635731 -186.981277 
L 277.98167 -186.294901 
L 283.32761 -185.029591 
L 288.673549 -183.923814 
L 294.019489 -183.565218 
L 299.365428 -183.527864 
L 304.711367 -182.856258 
L 310.057307 -181.368627 
L 315.403246 -179.843646 
L 320.749186 -178.784124 
L 326.095125 -177.906047 
L 331.441064 -176.962747 
L 336.787004 -176.051822 
L 342.132943 -175.356831 
L 347.478883 -175.274703 
L 352.824822 -176.058232 
L 358.170761 -177.020551 
L 363.516701 -177.073423 
L 368.86264 -176.171679 
L 374.20858 -175.10598 
L 379.554519 -174.201908 
L 384.900458 -173.279349 
L 390.246398 -172.14697 
L 395.592337 -170.828316 
L 400.938277 -169.723846 
L 406.284216 -169.206052 
L 411.630155 -169.092645 
L 416.976095 -168.917931 
L 422.322034 -168.444634 
L 427.667973 -167.622482 
L 433.013913 -166.488558 
L 438.359852 -165.384737 
L 443.705792 -164.725133 
L 449.051731 -164.443638 
L 454.39767 -164.172841 
L 459.74361 -163.744664 
L 465.089549 -163.271667 
L 470.435489 -162.898114 
L 475.781428 -162.612414 
L 481.127367 -162.421978 
L 486.473307 -162.368357 
L 491.819246 -162.283753 
L 497.165186 -162.04126 
L 502.511125 -161.800626 
L 507.857064 -161.678952 
L 513.203004 -161.569771 
L 518.548943 -161.396014 
L 523.894883 -161.253299 
L 529.240822 -161.20626 
L 534.586761 -161.162662 
L 539.932701 -161.023599 
L 545.27864 -160.806764 
L 550.62458 -160.609889 
L 555.970519 -160.501142 
L 561.316458 -160.467904 
L 566.662398 -160.465147 
L 572.008337 -160.451374 
L 577.354277 -160.410627 
L 582.700216 -160.380636 
L 588.046155 -160.392365 
L 593.392095 -160.398365 
L 598.738034 -160.352605 
L 604.083973 -160.285116 
L 609.429913 -160.232979 
L 614.775852 -160.184213 
L 620.121792 -160.11667 
L 625.467731 -160.044866 
L 630.81367 -159.996371 
L 636.15961 -159.972069 
L 641.505549 -159.955597 
L 646.851489 -159.935065 
L 652.197428 -159.909504 
L 657.543367 -159.887155 
L 662.889307 -159.874296 
L 668.235246 -159.869061 
L 673.581186 -159.867178 
L 678.927125 -159.866495 
L 678.927125 -159.866005 
L 678.927125 -159.866005 
L 673.581186 -159.865322 
L 668.235246 -159.863439 
L 662.889307 -159.858204 
L 657.543367 -159.845345 
L 652.197428 -159.822996 
L 646.851489 -159.797435 
L 641.505549 -159.776903 
L 636.15961 -159.760431 
L 630.81367 -159.736129 
L 625.467731 -159.687634 
L 620.121792 -159.61583 
L 614.775852 -159.548287 
L 609.429913 -159.499521 
L 604.083973 -159.447384 
L 598.738034 -159.379895 
L 593.392095 -159.334135 
L 588.046155 -159.340135 
L 582.700216 -159.351864 
L 577.354277 -159.321873 
L 572.008337 -159.281126 
L 566.662398 -159.267353 
L 561.316458 -159.264596 
L 555.970519 -159.231358 
L 550.62458 -159.122611 
L 545.27864 -158.925736 
L 539.932701 -158.708901 
L 534.586761 -158.569838 
L 529.240822 -158.52624 
L 523.894883 -158.479201 
L 518.548943 -158.336486 
L 513.203004 -158.162729 
L 507.857064 -158.053548 
L 502.511125 -157.931874 
L 497.165186 -157.69124 
L 491.819246 -157.448747 
L 486.473307 -157.364143 
L 481.127367 -157.310522 
L 475.781428 -157.120086 
L 470.435489 -156.834386 
L 465.089549 -156.460833 
L 459.74361 -155.987836 
L 454.39767 -155.559659 
L 449.051731 -155.288862 
L 443.705792 -155.007367 
L 438.359852 -154.347763 
L 433.013913 -153.243942 
L 427.667973 -152.110018 
L 422.322034 -151.287866 
L 416.976095 -150.814569 
L 411.630155 -150.639855 
L 406.284216 -150.526448 
L 400.938277 -150.008654 
L 395.592337 -148.904184 
L 390.246398 -147.58553 
L 384.900458 -146.453151 
L 379.554519 -145.530592 
L 374.20858 -144.62652 
L 368.86264 -143.560821 
L 363.516701 -142.659077 
L 358.170761 -142.711949 
L 352.824822 -143.674268 
L 347.478883 -144.457797 
L 342.132943 -144.375669 
L 336.787004 -143.680678 
L 331.441064 -142.769753 
L 326.095125 -141.826453 
L 320.749186 -140.948376 
L 315.403246 -139.888854 
L 310.057307 -138.363873 
L 304.711367 -136.876242 
L 299.365428 -136.204636 
L 294.019489 -136.167282 
L 288.673549 -135.808686 
L 283.32761 -134.702909 
L 277.98167 -133.437599 
L 272.635731 -132.751223 
L 267.289792 -132.828841 
L 261.943852 -133.674507 
L 256.597913 -135.180267 
L 251.251973 -136.730914 
L 245.906034 -137.872429 
L 240.560095 -138.925579 
L 235.214155 -140.074011 
L 229.868216 -140.871323 
L 224.522277 -141.177568 
L 219.176337 -141.450306 
L 213.830398 -141.91348 
L 208.484458 -142.531262 
L 203.138519 -143.598252 
L 197.79258 -145.338905 
L 192.44664 -147.183708 
L 187.100701 -148.15594 
L 181.754761 -148.302863 
L 176.408822 -149.203974 
L 171.062883 -152.042576 
L 165.716943 -155.733824 
L 160.371004 -158.373336 
L 155.025064 -159.505816 
L 149.679125 -159.808546 
z
" id="m88b35e78b4" style="stroke:#4c4c4c;stroke-width:1.5;"/>
    </defs>
    <g clip-path="url(#p46c1cbc060)">
     <use style="fill:#df2020;stroke:#4c4c4c;stroke-width:1.5;" x="0" xlink:href="#m88b35e78b4" y="400.04775"/>
    </g>
   </g>
   <g id="PolyCollection_4">
    <defs>
     <path d="M 150.495925 -78.281797 
L 150.495925 -78.370703 
L 155.825364 -78.610553 
L 161.154802 -79.518049 
L 166.484241 -81.620832 
L 171.813679 -84.474973 
L 177.143117 -86.506554 
L 182.472556 -86.986445 
L 187.801994 -87.111301 
L 193.131432 -88.205852 
L 198.460871 -90.018855 
L 203.790309 -91.443493 
L 209.119748 -92.065796 
L 214.449186 -92.397559 
L 219.778624 -92.834572 
L 225.108063 -93.325224 
L 230.437501 -94.050397 
L 235.766939 -95.284321 
L 241.096378 -96.654984 
L 246.425816 -97.625798 
L 251.755255 -98.625287 
L 257.084693 -100.302338 
L 262.414131 -102.104895 
L 267.74357 -103.133069 
L 273.073008 -103.247266 
L 278.402446 -102.426192 
L 283.731885 -100.906957 
L 289.061323 -99.800005 
L 294.390762 -99.922149 
L 299.7202 -100.602985 
L 305.049638 -100.49845 
L 310.379077 -99.329461 
L 315.708515 -98.063583 
L 321.037953 -97.341601 
L 326.367392 -96.824237 
L 331.69683 -96.217363 
L 337.026269 -95.58934 
L 342.355707 -95.016212 
L 347.685145 -95.03097 
L 353.014584 -96.185765 
L 358.344022 -97.708414 
L 363.67346 -98.181515 
L 369.002899 -97.471286 
L 374.332337 -96.497947 
L 379.661776 -95.671868 
L 384.991214 -94.764123 
L 390.320652 -93.506302 
L 395.650091 -91.923994 
L 400.979529 -90.536496 
L 406.308967 -89.910044 
L 411.638406 -89.880833 
L 416.967844 -89.835287 
L 422.297283 -89.517106 
L 427.626721 -88.825374 
L 432.956159 -87.507806 
L 438.285598 -85.885257 
L 443.615036 -84.802714 
L 448.944474 -84.452154 
L 454.273913 -84.326688 
L 459.603351 -83.945601 
L 464.93279 -83.291872 
L 470.262228 -82.701987 
L 475.591666 -82.255325 
L 480.921105 -81.935055 
L 486.250543 -81.881374 
L 491.579981 -81.894048 
L 496.90942 -81.69389 
L 502.238858 -81.387962 
L 507.568297 -81.108482 
L 512.897735 -80.831392 
L 518.227173 -80.588303 
L 523.556612 -80.459224 
L 528.88605 -80.398543 
L 534.215488 -80.285845 
L 539.544927 -80.066389 
L 544.874365 -79.756689 
L 550.203804 -79.466926 
L 555.533242 -79.285768 
L 560.86268 -79.164848 
L 566.192119 -79.073914 
L 571.521557 -79.054182 
L 576.850995 -79.09673 
L 582.180434 -79.147644 
L 587.509872 -79.188173 
L 592.839311 -79.186971 
L 598.168749 -79.121272 
L 603.498187 -79.036379 
L 608.827626 -78.964861 
L 614.157064 -78.877981 
L 619.486502 -78.750428 
L 624.815941 -78.626812 
L 630.145379 -78.554181 
L 635.474818 -78.509426 
L 640.804256 -78.464843 
L 646.133694 -78.42146 
L 651.463133 -78.382047 
L 656.792571 -78.353235 
L 662.122009 -78.339074 
L 667.451448 -78.33304 
L 672.780886 -78.329252 
L 678.110325 -78.327102 
L 678.110325 -78.325398 
L 678.110325 -78.325398 
L 672.780886 -78.323248 
L 667.451448 -78.31946 
L 662.122009 -78.313426 
L 656.792571 -78.299265 
L 651.463133 -78.270453 
L 646.133694 -78.23104 
L 640.804256 -78.187657 
L 635.474818 -78.143074 
L 630.145379 -78.098319 
L 624.815941 -78.025688 
L 619.486502 -77.902072 
L 614.157064 -77.774519 
L 608.827626 -77.687639 
L 603.498187 -77.616121 
L 598.168749 -77.531228 
L 592.839311 -77.465529 
L 587.509872 -77.464327 
L 582.180434 -77.504856 
L 576.850995 -77.55577 
L 571.521557 -77.598318 
L 566.192119 -77.578586 
L 560.86268 -77.487652 
L 555.533242 -77.366732 
L 550.203804 -77.185574 
L 544.874365 -76.895811 
L 539.544927 -76.586111 
L 534.215488 -76.366655 
L 528.88605 -76.253957 
L 523.556612 -76.193276 
L 518.227173 -76.064197 
L 512.897735 -75.821108 
L 507.568297 -75.544018 
L 502.238858 -75.264538 
L 496.90942 -74.95861 
L 491.579981 -74.758452 
L 486.250543 -74.771126 
L 480.921105 -74.717445 
L 475.591666 -74.397175 
L 470.262228 -73.950513 
L 464.93279 -73.360628 
L 459.603351 -72.706899 
L 454.273913 -72.325812 
L 448.944474 -72.200346 
L 443.615036 -71.849786 
L 438.285598 -70.767243 
L 432.956159 -69.144694 
L 427.626721 -67.827126 
L 422.297283 -67.135394 
L 416.967844 -66.817213 
L 411.638406 -66.771667 
L 406.308967 -66.742456 
L 400.979529 -66.116004 
L 395.650091 -64.728506 
L 390.320652 -63.146198 
L 384.991214 -61.888377 
L 379.661776 -60.980632 
L 374.332337 -60.154553 
L 369.002899 -59.181214 
L 363.67346 -58.470985 
L 358.344022 -58.944086 
L 353.014584 -60.466735 
L 347.685145 -61.62153 
L 342.355707 -61.636288 
L 337.026269 -61.06316 
L 331.69683 -60.435137 
L 326.367392 -59.828263 
L 321.037953 -59.310899 
L 315.708515 -58.588917 
L 310.379077 -57.323039 
L 305.049638 -56.15405 
L 299.7202 -56.049515 
L 294.390762 -56.730351 
L 289.061323 -56.852495 
L 283.731885 -55.745543 
L 278.402446 -54.226308 
L 273.073008 -53.405234 
L 267.74357 -53.519431 
L 262.414131 -54.547605 
L 257.084693 -56.350162 
L 251.755255 -58.027213 
L 246.425816 -59.026702 
L 241.096378 -59.997516 
L 235.766939 -61.368179 
L 230.437501 -62.602103 
L 225.108063 -63.327276 
L 219.778624 -63.817928 
L 214.449186 -64.254941 
L 209.119748 -64.586704 
L 203.790309 -65.209007 
L 198.460871 -66.633645 
L 193.131432 -68.446648 
L 187.801994 -69.541199 
L 182.472556 -69.666055 
L 177.143117 -70.145946 
L 171.813679 -72.177527 
L 166.484241 -75.031668 
L 161.154802 -77.134451 
L 155.825364 -78.041947 
L 150.495925 -78.281797 
z
" id="m93eba2f51e" style="stroke:#4c4c4c;stroke-width:1.5;"/>
    </defs>
    <g clip-path="url(#p46c1cbc060)">
     <use style="fill:#df2020;stroke:#4c4c4c;stroke-width:1.5;" x="0" xlink:href="#m93eba2f51e" y="400.04775"/>
    </g>
   </g>
   <g id="matplotlib.axis_1">
    <g id="xtick_1">
     <g id="line2d_1">
      <defs>
       <path d="M 0 0 
L 0 3.5 
" id="mf1a2ee6f90" style="stroke:#000000;stroke-width:0.8;"/>
      </defs>
      <g>
       <use style="stroke:#000000;stroke-width:0.8;" x="145.886897" xlink:href="#mf1a2ee6f90" y="362.4915"/>
      </g>
     </g>
     <g id="text_1">
      <!-- 0.0 -->
      <defs>
       <path d="M 31.78125 66.40625 
Q 24.171875 66.40625 20.328125 58.90625 
Q 16.5 51.421875 16.5 36.375 
Q 16.5 21.390625 20.328125 13.890625 
Q 24.171875 6.390625 31.78125 6.390625 
Q 39.453125 6.390625 43.28125 13.890625 
Q 47.125 21.390625 47.125 36.375 
Q 47.125 51.421875 43.28125 58.90625 
Q 39.453125 66.40625 31.78125 66.40625 
z
M 31.78125 74.21875 
Q 44.046875 74.21875 50.515625 64.515625 
Q 56.984375 54.828125 56.984375 36.375 
Q 56.984375 17.96875 50.515625 8.265625 
Q 44.046875 -1.421875 31.78125 -1.421875 
Q 19.53125 -1.421875 13.0625 8.265625 
Q 6.59375 17.96875 6.59375 36.375 
Q 6.59375 54.828125 13.0625 64.515625 
Q 19.53125 74.21875 31.78125 74.21875 
z
" id="DejaVuSans-48"/>
       <path d="M 10.6875 12.40625 
L 21 12.40625 
L 21 0 
L 10.6875 0 
z
" id="DejaVuSans-46"/>
      </defs>
      <g transform="translate(137.935335 377.089938)scale(0.1 -0.1)">
       <use xlink:href="#DejaVuSans-48"/>
       <use x="63.623047" xlink:href="#DejaVuSans-46"/>
       <use x="95.410156" xlink:href="#DejaVuSans-48"/>
      </g>
     </g>
    </g>
    <g id="xtick_2">
     <g id="line2d_2">
      <g>
       <use style="stroke:#000000;stroke-width:0.8;" x="263.484368" xlink:href="#mf1a2ee6f90" y="362.4915"/>
      </g>
     </g>
     <g id="text_2">
      <!-- 0.2 -->
      <defs>
       <path d="M 19.1875 8.296875 
L 53.609375 8.296875 
L 53.609375 0 
L 7.328125 0 
L 7.328125 8.296875 
Q 12.9375 14.109375 22.625 23.890625 
Q 32.328125 33.6875 34.8125 36.53125 
Q 39.546875 41.84375 41.421875 45.53125 
Q 43.3125 49.21875 43.3125 52.78125 
Q 43.3125 58.59375 39.234375 62.25 
Q 35.15625 65.921875 28.609375 65.921875 
Q 23.96875 65.921875 18.8125 64.3125 
Q 13.671875 62.703125 7.8125 59.421875 
L 7.8125 69.390625 
Q 13.765625 71.78125 18.9375 73 
Q 24.125 74.21875 28.421875 74.21875 
Q 39.75 74.21875 46.484375 68.546875 
Q 53.21875 62.890625 53.21875 53.421875 
Q 53.21875 48.921875 51.53125 44.890625 
Q 49.859375 40.875 45.40625 35.40625 
Q 44.1875 33.984375 37.640625 27.21875 
Q 31.109375 20.453125 19.1875 8.296875 
z
" id="DejaVuSans-50"/>
      </defs>
      <g transform="translate(255.532806 377.089938)scale(0.1 -0.1)">
       <use xlink:href="#DejaVuSans-48"/>
       <use x="63.623047" xlink:href="#DejaVuSans-46"/>
       <use x="95.410156" xlink:href="#DejaVuSans-50"/>
      </g>
     </g>
    </g>
    <g id="xtick_3">
     <g id="line2d_3">
      <g>
       <use style="stroke:#000000;stroke-width:0.8;" x="381.081839" xlink:href="#mf1a2ee6f90" y="362.4915"/>
      </g>
     </g>
     <g id="text_3">
      <!-- 0.4 -->
      <defs>
       <path d="M 37.796875 64.3125 
L 12.890625 25.390625 
L 37.796875 25.390625 
z
M 35.203125 72.90625 
L 47.609375 72.90625 
L 47.609375 25.390625 
L 58.015625 25.390625 
L 58.015625 17.1875 
L 47.609375 17.1875 
L 47.609375 0 
L 37.796875 0 
L 37.796875 17.1875 
L 4.890625 17.1875 
L 4.890625 26.703125 
z
" id="DejaVuSans-52"/>
      </defs>
      <g transform="translate(373.130277 377.089938)scale(0.1 -0.1)">
       <use xlink:href="#DejaVuSans-48"/>
       <use x="63.623047" xlink:href="#DejaVuSans-46"/>
       <use x="95.410156" xlink:href="#DejaVuSans-52"/>
      </g>
     </g>
    </g>
    <g id="xtick_4">
     <g id="line2d_4">
      <g>
       <use style="stroke:#000000;stroke-width:0.8;" x="498.67931" xlink:href="#mf1a2ee6f90" y="362.4915"/>
      </g>
     </g>
     <g id="text_4">
      <!-- 0.6 -->
      <defs>
       <path d="M 33.015625 40.375 
Q 26.375 40.375 22.484375 35.828125 
Q 18.609375 31.296875 18.609375 23.390625 
Q 18.609375 15.53125 22.484375 10.953125 
Q 26.375 6.390625 33.015625 6.390625 
Q 39.65625 6.390625 43.53125 10.953125 
Q 47.40625 15.53125 47.40625 23.390625 
Q 47.40625 31.296875 43.53125 35.828125 
Q 39.65625 40.375 33.015625 40.375 
z
M 52.59375 71.296875 
L 52.59375 62.3125 
Q 48.875 64.0625 45.09375 64.984375 
Q 41.3125 65.921875 37.59375 65.921875 
Q 27.828125 65.921875 22.671875 59.328125 
Q 17.53125 52.734375 16.796875 39.40625 
Q 19.671875 43.65625 24.015625 45.921875 
Q 28.375 48.1875 33.59375 48.1875 
Q 44.578125 48.1875 50.953125 41.515625 
Q 57.328125 34.859375 57.328125 23.390625 
Q 57.328125 12.15625 50.6875 5.359375 
Q 44.046875 -1.421875 33.015625 -1.421875 
Q 20.359375 -1.421875 13.671875 8.265625 
Q 6.984375 17.96875 6.984375 36.375 
Q 6.984375 53.65625 15.1875 63.9375 
Q 23.390625 74.21875 37.203125 74.21875 
Q 40.921875 74.21875 44.703125 73.484375 
Q 48.484375 72.75 52.59375 71.296875 
z
" id="DejaVuSans-54"/>
      </defs>
      <g transform="translate(490.727748 377.089938)scale(0.1 -0.1)">
       <use xlink:href="#DejaVuSans-48"/>
       <use x="63.623047" xlink:href="#DejaVuSans-46"/>
       <use x="95.410156" xlink:href="#DejaVuSans-54"/>
      </g>
     </g>
    </g>
    <g id="xtick_5">
     <g id="line2d_5">
      <g>
       <use style="stroke:#000000;stroke-width:0.8;" x="616.276781" xlink:href="#mf1a2ee6f90" y="362.4915"/>
      </g>
     </g>
     <g id="text_5">
      <!-- 0.8 -->
      <defs>
       <path d="M 31.78125 34.625 
Q 24.75 34.625 20.71875 30.859375 
Q 16.703125 27.09375 16.703125 20.515625 
Q 16.703125 13.921875 20.71875 10.15625 
Q 24.75 6.390625 31.78125 6.390625 
Q 38.8125 6.390625 42.859375 10.171875 
Q 46.921875 13.96875 46.921875 20.515625 
Q 46.921875 27.09375 42.890625 30.859375 
Q 38.875 34.625 31.78125 34.625 
z
M 21.921875 38.8125 
Q 15.578125 40.375 12.03125 44.71875 
Q 8.5 49.078125 8.5 55.328125 
Q 8.5 64.0625 14.71875 69.140625 
Q 20.953125 74.21875 31.78125 74.21875 
Q 42.671875 74.21875 48.875 69.140625 
Q 55.078125 64.0625 55.078125 55.328125 
Q 55.078125 49.078125 51.53125 44.71875 
Q 48 40.375 41.703125 38.8125 
Q 48.828125 37.15625 52.796875 32.3125 
Q 56.78125 27.484375 56.78125 20.515625 
Q 56.78125 9.90625 50.3125 4.234375 
Q 43.84375 -1.421875 31.78125 -1.421875 
Q 19.734375 -1.421875 13.25 4.234375 
Q 6.78125 9.90625 6.78125 20.515625 
Q 6.78125 27.484375 10.78125 32.3125 
Q 14.796875 37.15625 21.921875 38.8125 
z
M 18.3125 54.390625 
Q 18.3125 48.734375 21.84375 45.5625 
Q 25.390625 42.390625 31.78125 42.390625 
Q 38.140625 42.390625 41.71875 45.5625 
Q 45.3125 48.734375 45.3125 54.390625 
Q 45.3125 60.0625 41.71875 63.234375 
Q 38.140625 66.40625 31.78125 66.40625 
Q 25.390625 66.40625 21.84375 63.234375 
Q 18.3125 60.0625 18.3125 54.390625 
z
" id="DejaVuSans-56"/>
      </defs>
      <g transform="translate(608.325219 377.089938)scale(0.1 -0.1)">
       <use xlink:href="#DejaVuSans-48"/>
       <use x="63.623047" xlink:href="#DejaVuSans-46"/>
       <use x="95.410156" xlink:href="#DejaVuSans-56"/>
      </g>
     </g>
    </g>
    <g id="text_6">
     <!-- ICSE -->
     <defs>
      <path d="M 9.8125 72.90625 
L 19.671875 72.90625 
L 19.671875 0 
L 9.8125 0 
z
" id="DejaVuSans-73"/>
      <path d="M 64.40625 67.28125 
L 64.40625 56.890625 
Q 59.421875 61.53125 53.78125 63.8125 
Q 48.140625 66.109375 41.796875 66.109375 
Q 29.296875 66.109375 22.65625 58.46875 
Q 16.015625 50.828125 16.015625 36.375 
Q 16.015625 21.96875 22.65625 14.328125 
Q 29.296875 6.6875 41.796875 6.6875 
Q 48.140625 6.6875 53.78125 8.984375 
Q 59.421875 11.28125 64.40625 15.921875 
L 64.40625 5.609375 
Q 59.234375 2.09375 53.4375 0.328125 
Q 47.65625 -1.421875 41.21875 -1.421875 
Q 24.65625 -1.421875 15.125 8.703125 
Q 5.609375 18.84375 5.609375 36.375 
Q 5.609375 53.953125 15.125 64.078125 
Q 24.65625 74.21875 41.21875 74.21875 
Q 47.75 74.21875 53.53125 72.484375 
Q 59.328125 70.75 64.40625 67.28125 
z
" id="DejaVuSans-67"/>
      <path d="M 53.515625 70.515625 
L 53.515625 60.890625 
Q 47.90625 63.578125 42.921875 64.890625 
Q 37.9375 66.21875 33.296875 66.21875 
Q 25.25 66.21875 20.875 63.09375 
Q 16.5 59.96875 16.5 54.203125 
Q 16.5 49.359375 19.40625 46.890625 
Q 22.3125 44.4375 30.421875 42.921875 
L 36.375 41.703125 
Q 47.40625 39.59375 52.65625 34.296875 
Q 57.90625 29 57.90625 20.125 
Q 57.90625 9.515625 50.796875 4.046875 
Q 43.703125 -1.421875 29.984375 -1.421875 
Q 24.8125 -1.421875 18.96875 -0.25 
Q 13.140625 0.921875 6.890625 3.21875 
L 6.890625 13.375 
Q 12.890625 10.015625 18.65625 8.296875 
Q 24.421875 6.59375 29.984375 6.59375 
Q 38.421875 6.59375 43.015625 9.90625 
Q 47.609375 13.234375 47.609375 19.390625 
Q 47.609375 24.75 44.3125 27.78125 
Q 41.015625 30.8125 33.5 32.328125 
L 27.484375 33.5 
Q 16.453125 35.6875 11.515625 40.375 
Q 6.59375 45.0625 6.59375 53.421875 
Q 6.59375 63.09375 13.40625 68.65625 
Q 20.21875 74.21875 32.171875 74.21875 
Q 37.3125 74.21875 42.625 73.28125 
Q 47.953125 72.359375 53.515625 70.515625 
z
" id="DejaVuSans-83"/>
      <path d="M 9.8125 72.90625 
L 55.90625 72.90625 
L 55.90625 64.59375 
L 19.671875 64.59375 
L 19.671875 43.015625 
L 54.390625 43.015625 
L 54.390625 34.71875 
L 19.671875 34.71875 
L 19.671875 8.296875 
L 56.78125 8.296875 
L 56.78125 0 
L 9.8125 0 
z
" id="DejaVuSans-69"/>
     </defs>
     <g transform="translate(403.003125 390.768062)scale(0.1 -0.1)">
      <use xlink:href="#DejaVuSans-73"/>
      <use x="29.492188" xlink:href="#DejaVuSans-67"/>
      <use x="99.316406" xlink:href="#DejaVuSans-83"/>
      <use x="162.792969" xlink:href="#DejaVuSans-69"/>
     </g>
    </g>
   </g>
   <g id="matplotlib.axis_2">
    <g id="ytick_1">
     <g id="line2d_6">
      <defs>
       <path d="M 0 0 
L -3.5 0 
" id="m612c260462" style="stroke:#000000;stroke-width:0.8;"/>
      </defs>
      <g>
       <use style="stroke:#000000;stroke-width:0.8;" x="135.303125" xlink:href="#m612c260462" y="77.1015"/>
      </g>
     </g>
     <g id="text_7">
      <!-- Avanzado -->
      <defs>
       <path d="M 34.1875 63.1875 
L 20.796875 26.90625 
L 47.609375 26.90625 
z
M 28.609375 72.90625 
L 39.796875 72.90625 
L 67.578125 0 
L 57.328125 0 
L 50.6875 18.703125 
L 17.828125 18.703125 
L 11.1875 0 
L 0.78125 0 
z
" id="DejaVuSans-65"/>
       <path d="M 2.984375 54.6875 
L 12.5 54.6875 
L 29.59375 8.796875 
L 46.6875 54.6875 
L 56.203125 54.6875 
L 35.6875 0 
L 23.484375 0 
z
" id="DejaVuSans-118"/>
       <path d="M 34.28125 27.484375 
Q 23.390625 27.484375 19.1875 25 
Q 14.984375 22.515625 14.984375 16.5 
Q 14.984375 11.71875 18.140625 8.90625 
Q 21.296875 6.109375 26.703125 6.109375 
Q 34.1875 6.109375 38.703125 11.40625 
Q 43.21875 16.703125 43.21875 25.484375 
L 43.21875 27.484375 
z
M 52.203125 31.203125 
L 52.203125 0 
L 43.21875 0 
L 43.21875 8.296875 
Q 40.140625 3.328125 35.546875 0.953125 
Q 30.953125 -1.421875 24.3125 -1.421875 
Q 15.921875 -1.421875 10.953125 3.296875 
Q 6 8.015625 6 15.921875 
Q 6 25.140625 12.171875 29.828125 
Q 18.359375 34.515625 30.609375 34.515625 
L 43.21875 34.515625 
L 43.21875 35.40625 
Q 43.21875 41.609375 39.140625 45 
Q 35.0625 48.390625 27.6875 48.390625 
Q 23 48.390625 18.546875 47.265625 
Q 14.109375 46.140625 10.015625 43.890625 
L 10.015625 52.203125 
Q 14.9375 54.109375 19.578125 55.046875 
Q 24.21875 56 28.609375 56 
Q 40.484375 56 46.34375 49.84375 
Q 52.203125 43.703125 52.203125 31.203125 
z
" id="DejaVuSans-97"/>
       <path d="M 54.890625 33.015625 
L 54.890625 0 
L 45.90625 0 
L 45.90625 32.71875 
Q 45.90625 40.484375 42.875 44.328125 
Q 39.84375 48.1875 33.796875 48.1875 
Q 26.515625 48.1875 22.3125 43.546875 
Q 18.109375 38.921875 18.109375 30.90625 
L 18.109375 0 
L 9.078125 0 
L 9.078125 54.6875 
L 18.109375 54.6875 
L 18.109375 46.1875 
Q 21.34375 51.125 25.703125 53.5625 
Q 30.078125 56 35.796875 56 
Q 45.21875 56 50.046875 50.171875 
Q 54.890625 44.34375 54.890625 33.015625 
z
" id="DejaVuSans-110"/>
       <path d="M 5.515625 54.6875 
L 48.1875 54.6875 
L 48.1875 46.484375 
L 14.40625 7.171875 
L 48.1875 7.171875 
L 48.1875 0 
L 4.296875 0 
L 4.296875 8.203125 
L 38.09375 47.515625 
L 5.515625 47.515625 
z
" id="DejaVuSans-122"/>
       <path d="M 45.40625 46.390625 
L 45.40625 75.984375 
L 54.390625 75.984375 
L 54.390625 0 
L 45.40625 0 
L 45.40625 8.203125 
Q 42.578125 3.328125 38.25 0.953125 
Q 33.9375 -1.421875 27.875 -1.421875 
Q 17.96875 -1.421875 11.734375 6.484375 
Q 5.515625 14.40625 5.515625 27.296875 
Q 5.515625 40.1875 11.734375 48.09375 
Q 17.96875 56 27.875 56 
Q 33.9375 56 38.25 53.625 
Q 42.578125 51.265625 45.40625 46.390625 
z
M 14.796875 27.296875 
Q 14.796875 17.390625 18.875 11.75 
Q 22.953125 6.109375 30.078125 6.109375 
Q 37.203125 6.109375 41.296875 11.75 
Q 45.40625 17.390625 45.40625 27.296875 
Q 45.40625 37.203125 41.296875 42.84375 
Q 37.203125 48.484375 30.078125 48.484375 
Q 22.953125 48.484375 18.875 42.84375 
Q 14.796875 37.203125 14.796875 27.296875 
z
" id="DejaVuSans-100"/>
       <path d="M 30.609375 48.390625 
Q 23.390625 48.390625 19.1875 42.75 
Q 14.984375 37.109375 14.984375 27.296875 
Q 14.984375 17.484375 19.15625 11.84375 
Q 23.34375 6.203125 30.609375 6.203125 
Q 37.796875 6.203125 41.984375 11.859375 
Q 46.1875 17.53125 46.1875 27.296875 
Q 46.1875 37.015625 41.984375 42.703125 
Q 37.796875 48.390625 30.609375 48.390625 
z
M 30.609375 56 
Q 42.328125 56 49.015625 48.375 
Q 55.71875 40.765625 55.71875 27.296875 
Q 55.71875 13.875 49.015625 6.21875 
Q 42.328125 -1.421875 30.609375 -1.421875 
Q 18.84375 -1.421875 12.171875 6.21875 
Q 5.515625 13.875 5.515625 27.296875 
Q 5.515625 40.765625 12.171875 48.375 
Q 18.84375 56 30.609375 56 
z
" id="DejaVuSans-111"/>
      </defs>
      <g transform="translate(79.242188 80.900719)scale(0.1 -0.1)">
       <use xlink:href="#DejaVuSans-65"/>
       <use x="68.330078" xlink:href="#DejaVuSans-118"/>
       <use x="127.509766" xlink:href="#DejaVuSans-97"/>
       <use x="188.789062" xlink:href="#DejaVuSans-110"/>
       <use x="252.167969" xlink:href="#DejaVuSans-122"/>
       <use x="304.658203" xlink:href="#DejaVuSans-97"/>
       <use x="365.9375" xlink:href="#DejaVuSans-100"/>
       <use x="429.414062" xlink:href="#DejaVuSans-111"/>
      </g>
     </g>
    </g>
    <g id="ytick_2">
     <g id="line2d_7">
      <g>
       <use style="stroke:#000000;stroke-width:0.8;" x="135.303125" xlink:href="#m612c260462" y="158.6415"/>
      </g>
     </g>
     <g id="text_8">
      <!-- Satisfactorio -->
      <defs>
       <path d="M 18.3125 70.21875 
L 18.3125 54.6875 
L 36.8125 54.6875 
L 36.8125 47.703125 
L 18.3125 47.703125 
L 18.3125 18.015625 
Q 18.3125 11.328125 20.140625 9.421875 
Q 21.96875 7.515625 27.59375 7.515625 
L 36.8125 7.515625 
L 36.8125 0 
L 27.59375 0 
Q 17.1875 0 13.234375 3.875 
Q 9.28125 7.765625 9.28125 18.015625 
L 9.28125 47.703125 
L 2.6875 47.703125 
L 2.6875 54.6875 
L 9.28125 54.6875 
L 9.28125 70.21875 
z
" id="DejaVuSans-116"/>
       <path d="M 9.421875 54.6875 
L 18.40625 54.6875 
L 18.40625 0 
L 9.421875 0 
z
M 9.421875 75.984375 
L 18.40625 75.984375 
L 18.40625 64.59375 
L 9.421875 64.59375 
z
" id="DejaVuSans-105"/>
       <path d="M 44.28125 53.078125 
L 44.28125 44.578125 
Q 40.484375 46.53125 36.375 47.5 
Q 32.28125 48.484375 27.875 48.484375 
Q 21.1875 48.484375 17.84375 46.4375 
Q 14.5 44.390625 14.5 40.28125 
Q 14.5 37.15625 16.890625 35.375 
Q 19.28125 33.59375 26.515625 31.984375 
L 29.59375 31.296875 
Q 39.15625 29.25 43.1875 25.515625 
Q 47.21875 21.78125 47.21875 15.09375 
Q 47.21875 7.46875 41.1875 3.015625 
Q 35.15625 -1.421875 24.609375 -1.421875 
Q 20.21875 -1.421875 15.453125 -0.5625 
Q 10.6875 0.296875 5.421875 2 
L 5.421875 11.28125 
Q 10.40625 8.6875 15.234375 7.390625 
Q 20.0625 6.109375 24.8125 6.109375 
Q 31.15625 6.109375 34.5625 8.28125 
Q 37.984375 10.453125 37.984375 14.40625 
Q 37.984375 18.0625 35.515625 20.015625 
Q 33.0625 21.96875 24.703125 23.78125 
L 21.578125 24.515625 
Q 13.234375 26.265625 9.515625 29.90625 
Q 5.8125 33.546875 5.8125 39.890625 
Q 5.8125 47.609375 11.28125 51.796875 
Q 16.75 56 26.8125 56 
Q 31.78125 56 36.171875 55.265625 
Q 40.578125 54.546875 44.28125 53.078125 
z
" id="DejaVuSans-115"/>
       <path d="M 37.109375 75.984375 
L 37.109375 68.5 
L 28.515625 68.5 
Q 23.6875 68.5 21.796875 66.546875 
Q 19.921875 64.59375 19.921875 59.515625 
L 19.921875 54.6875 
L 34.71875 54.6875 
L 34.71875 47.703125 
L 19.921875 47.703125 
L 19.921875 0 
L 10.890625 0 
L 10.890625 47.703125 
L 2.296875 47.703125 
L 2.296875 54.6875 
L 10.890625 54.6875 
L 10.890625 58.5 
Q 10.890625 67.625 15.140625 71.796875 
Q 19.390625 75.984375 28.609375 75.984375 
z
" id="DejaVuSans-102"/>
       <path d="M 48.78125 52.59375 
L 48.78125 44.1875 
Q 44.96875 46.296875 41.140625 47.34375 
Q 37.3125 48.390625 33.40625 48.390625 
Q 24.65625 48.390625 19.8125 42.84375 
Q 14.984375 37.3125 14.984375 27.296875 
Q 14.984375 17.28125 19.8125 11.734375 
Q 24.65625 6.203125 33.40625 6.203125 
Q 37.3125 6.203125 41.140625 7.25 
Q 44.96875 8.296875 48.78125 10.40625 
L 48.78125 2.09375 
Q 45.015625 0.34375 40.984375 -0.53125 
Q 36.96875 -1.421875 32.421875 -1.421875 
Q 20.0625 -1.421875 12.78125 6.34375 
Q 5.515625 14.109375 5.515625 27.296875 
Q 5.515625 40.671875 12.859375 48.328125 
Q 20.21875 56 33.015625 56 
Q 37.15625 56 41.109375 55.140625 
Q 45.0625 54.296875 48.78125 52.59375 
z
" id="DejaVuSans-99"/>
       <path d="M 41.109375 46.296875 
Q 39.59375 47.171875 37.8125 47.578125 
Q 36.03125 48 33.890625 48 
Q 26.265625 48 22.1875 43.046875 
Q 18.109375 38.09375 18.109375 28.8125 
L 18.109375 0 
L 9.078125 0 
L 9.078125 54.6875 
L 18.109375 54.6875 
L 18.109375 46.1875 
Q 20.953125 51.171875 25.484375 53.578125 
Q 30.03125 56 36.53125 56 
Q 37.453125 56 38.578125 55.875 
Q 39.703125 55.765625 41.0625 55.515625 
z
" id="DejaVuSans-114"/>
      </defs>
      <g transform="translate(65.725 162.440719)scale(0.1 -0.1)">
       <use xlink:href="#DejaVuSans-83"/>
       <use x="63.476562" xlink:href="#DejaVuSans-97"/>
       <use x="124.755859" xlink:href="#DejaVuSans-116"/>
       <use x="163.964844" xlink:href="#DejaVuSans-105"/>
       <use x="191.748047" xlink:href="#DejaVuSans-115"/>
       <use x="243.847656" xlink:href="#DejaVuSans-102"/>
       <use x="279.052734" xlink:href="#DejaVuSans-97"/>
       <use x="340.332031" xlink:href="#DejaVuSans-99"/>
       <use x="395.3125" xlink:href="#DejaVuSans-116"/>
       <use x="434.521484" xlink:href="#DejaVuSans-111"/>
       <use x="495.703125" xlink:href="#DejaVuSans-114"/>
       <use x="536.816406" xlink:href="#DejaVuSans-105"/>
       <use x="564.599609" xlink:href="#DejaVuSans-111"/>
      </g>
     </g>
    </g>
    <g id="ytick_3">
     <g id="line2d_8">
      <g>
       <use style="stroke:#000000;stroke-width:0.8;" x="135.303125" xlink:href="#m612c260462" y="240.1815"/>
      </g>
     </g>
     <g id="text_9">
      <!-- B치sico -->
      <defs>
       <path d="M 19.671875 34.8125 
L 19.671875 8.109375 
L 35.5 8.109375 
Q 43.453125 8.109375 47.28125 11.40625 
Q 51.125 14.703125 51.125 21.484375 
Q 51.125 28.328125 47.28125 31.5625 
Q 43.453125 34.8125 35.5 34.8125 
z
M 19.671875 64.796875 
L 19.671875 42.828125 
L 34.28125 42.828125 
Q 41.5 42.828125 45.03125 45.53125 
Q 48.578125 48.25 48.578125 53.8125 
Q 48.578125 59.328125 45.03125 62.0625 
Q 41.5 64.796875 34.28125 64.796875 
z
M 9.8125 72.90625 
L 35.015625 72.90625 
Q 46.296875 72.90625 52.390625 68.21875 
Q 58.5 63.53125 58.5 54.890625 
Q 58.5 48.1875 55.375 44.234375 
Q 52.25 40.28125 46.1875 39.3125 
Q 53.46875 37.75 57.5 32.78125 
Q 61.53125 27.828125 61.53125 20.40625 
Q 61.53125 10.640625 54.890625 5.3125 
Q 48.25 0 35.984375 0 
L 9.8125 0 
z
" id="DejaVuSans-66"/>
       <path d="M 34.28125 27.484375 
Q 23.390625 27.484375 19.1875 25 
Q 14.984375 22.515625 14.984375 16.5 
Q 14.984375 11.71875 18.140625 8.90625 
Q 21.296875 6.109375 26.703125 6.109375 
Q 34.1875 6.109375 38.703125 11.40625 
Q 43.21875 16.703125 43.21875 25.484375 
L 43.21875 27.484375 
z
M 52.203125 31.203125 
L 52.203125 0 
L 43.21875 0 
L 43.21875 8.296875 
Q 40.140625 3.328125 35.546875 0.953125 
Q 30.953125 -1.421875 24.3125 -1.421875 
Q 15.921875 -1.421875 10.953125 3.296875 
Q 6 8.015625 6 15.921875 
Q 6 25.140625 12.171875 29.828125 
Q 18.359375 34.515625 30.609375 34.515625 
L 43.21875 34.515625 
L 43.21875 35.40625 
Q 43.21875 41.609375 39.140625 45 
Q 35.0625 48.390625 27.6875 48.390625 
Q 23 48.390625 18.546875 47.265625 
Q 14.109375 46.140625 10.015625 43.890625 
L 10.015625 52.203125 
Q 14.9375 54.109375 19.578125 55.046875 
Q 24.21875 56 28.609375 56 
Q 40.484375 56 46.34375 49.84375 
Q 52.203125 43.703125 52.203125 31.203125 
z
M 35.796875 79.984375 
L 45.515625 79.984375 
L 29.59375 61.625 
L 22.125 61.625 
z
" id="DejaVuSans-225"/>
      </defs>
      <g transform="translate(95.709375 243.980719)scale(0.1 -0.1)">
       <use xlink:href="#DejaVuSans-66"/>
       <use x="68.603516" xlink:href="#DejaVuSans-225"/>
       <use x="129.882812" xlink:href="#DejaVuSans-115"/>
       <use x="181.982422" xlink:href="#DejaVuSans-105"/>
       <use x="209.765625" xlink:href="#DejaVuSans-99"/>
       <use x="264.746094" xlink:href="#DejaVuSans-111"/>
      </g>
     </g>
    </g>
    <g id="ytick_4">
     <g id="line2d_9">
      <g>
       <use style="stroke:#000000;stroke-width:0.8;" x="135.303125" xlink:href="#m612c260462" y="321.7215"/>
      </g>
     </g>
     <g id="text_10">
      <!-- Por debajo del b치sico -->
      <defs>
       <path d="M 19.671875 64.796875 
L 19.671875 37.40625 
L 32.078125 37.40625 
Q 38.96875 37.40625 42.71875 40.96875 
Q 46.484375 44.53125 46.484375 51.125 
Q 46.484375 57.671875 42.71875 61.234375 
Q 38.96875 64.796875 32.078125 64.796875 
z
M 9.8125 72.90625 
L 32.078125 72.90625 
Q 44.34375 72.90625 50.609375 67.359375 
Q 56.890625 61.8125 56.890625 51.125 
Q 56.890625 40.328125 50.609375 34.8125 
Q 44.34375 29.296875 32.078125 29.296875 
L 19.671875 29.296875 
L 19.671875 0 
L 9.8125 0 
z
" id="DejaVuSans-80"/>
       <path id="DejaVuSans-32"/>
       <path d="M 56.203125 29.59375 
L 56.203125 25.203125 
L 14.890625 25.203125 
Q 15.484375 15.921875 20.484375 11.0625 
Q 25.484375 6.203125 34.421875 6.203125 
Q 39.59375 6.203125 44.453125 7.46875 
Q 49.3125 8.734375 54.109375 11.28125 
L 54.109375 2.78125 
Q 49.265625 0.734375 44.1875 -0.34375 
Q 39.109375 -1.421875 33.890625 -1.421875 
Q 20.796875 -1.421875 13.15625 6.1875 
Q 5.515625 13.8125 5.515625 26.8125 
Q 5.515625 40.234375 12.765625 48.109375 
Q 20.015625 56 32.328125 56 
Q 43.359375 56 49.78125 48.890625 
Q 56.203125 41.796875 56.203125 29.59375 
z
M 47.21875 32.234375 
Q 47.125 39.59375 43.09375 43.984375 
Q 39.0625 48.390625 32.421875 48.390625 
Q 24.90625 48.390625 20.390625 44.140625 
Q 15.875 39.890625 15.1875 32.171875 
z
" id="DejaVuSans-101"/>
       <path d="M 48.6875 27.296875 
Q 48.6875 37.203125 44.609375 42.84375 
Q 40.53125 48.484375 33.40625 48.484375 
Q 26.265625 48.484375 22.1875 42.84375 
Q 18.109375 37.203125 18.109375 27.296875 
Q 18.109375 17.390625 22.1875 11.75 
Q 26.265625 6.109375 33.40625 6.109375 
Q 40.53125 6.109375 44.609375 11.75 
Q 48.6875 17.390625 48.6875 27.296875 
z
M 18.109375 46.390625 
Q 20.953125 51.265625 25.265625 53.625 
Q 29.59375 56 35.59375 56 
Q 45.5625 56 51.78125 48.09375 
Q 58.015625 40.1875 58.015625 27.296875 
Q 58.015625 14.40625 51.78125 6.484375 
Q 45.5625 -1.421875 35.59375 -1.421875 
Q 29.59375 -1.421875 25.265625 0.953125 
Q 20.953125 3.328125 18.109375 8.203125 
L 18.109375 0 
L 9.078125 0 
L 9.078125 75.984375 
L 18.109375 75.984375 
z
" id="DejaVuSans-98"/>
       <path d="M 9.421875 54.6875 
L 18.40625 54.6875 
L 18.40625 -0.984375 
Q 18.40625 -11.421875 14.421875 -16.109375 
Q 10.453125 -20.796875 1.609375 -20.796875 
L -1.8125 -20.796875 
L -1.8125 -13.1875 
L 0.59375 -13.1875 
Q 5.71875 -13.1875 7.5625 -10.8125 
Q 9.421875 -8.453125 9.421875 -0.984375 
z
M 9.421875 75.984375 
L 18.40625 75.984375 
L 18.40625 64.59375 
L 9.421875 64.59375 
z
" id="DejaVuSans-106"/>
       <path d="M 9.421875 75.984375 
L 18.40625 75.984375 
L 18.40625 0 
L 9.421875 0 
z
" id="DejaVuSans-108"/>
      </defs>
      <g transform="translate(21.278125 325.720719)scale(0.1 -0.1)">
       <use xlink:href="#DejaVuSans-80"/>
       <use x="60.255859" xlink:href="#DejaVuSans-111"/>
       <use x="121.4375" xlink:href="#DejaVuSans-114"/>
       <use x="162.550781" xlink:href="#DejaVuSans-32"/>
       <use x="194.337891" xlink:href="#DejaVuSans-100"/>
       <use x="257.814453" xlink:href="#DejaVuSans-101"/>
       <use x="319.337891" xlink:href="#DejaVuSans-98"/>
       <use x="382.814453" xlink:href="#DejaVuSans-97"/>
       <use x="444.09375" xlink:href="#DejaVuSans-106"/>
       <use x="471.876953" xlink:href="#DejaVuSans-111"/>
       <use x="533.058594" xlink:href="#DejaVuSans-32"/>
       <use x="564.845703" xlink:href="#DejaVuSans-100"/>
       <use x="628.322266" xlink:href="#DejaVuSans-101"/>
       <use x="689.845703" xlink:href="#DejaVuSans-108"/>
       <use x="717.628906" xlink:href="#DejaVuSans-32"/>
       <use x="749.416016" xlink:href="#DejaVuSans-98"/>
       <use x="812.892578" xlink:href="#DejaVuSans-225"/>
       <use x="874.171875" xlink:href="#DejaVuSans-115"/>
       <use x="926.271484" xlink:href="#DejaVuSans-105"/>
       <use x="954.054688" xlink:href="#DejaVuSans-99"/>
       <use x="1009.035156" xlink:href="#DejaVuSans-111"/>
      </g>
     </g>
    </g>
    <g id="text_11">
     <!-- Nivel de desempe침o en matem치tica -->
     <defs>
      <path d="M 9.8125 72.90625 
L 23.09375 72.90625 
L 55.421875 11.921875 
L 55.421875 72.90625 
L 64.984375 72.90625 
L 64.984375 0 
L 51.703125 0 
L 19.390625 60.984375 
L 19.390625 0 
L 9.8125 0 
z
" id="DejaVuSans-78"/>
      <path d="M 52 44.1875 
Q 55.375 50.25 60.0625 53.125 
Q 64.75 56 71.09375 56 
Q 79.640625 56 84.28125 50.015625 
Q 88.921875 44.046875 88.921875 33.015625 
L 88.921875 0 
L 79.890625 0 
L 79.890625 32.71875 
Q 79.890625 40.578125 77.09375 44.375 
Q 74.3125 48.1875 68.609375 48.1875 
Q 61.625 48.1875 57.5625 43.546875 
Q 53.515625 38.921875 53.515625 30.90625 
L 53.515625 0 
L 44.484375 0 
L 44.484375 32.71875 
Q 44.484375 40.625 41.703125 44.40625 
Q 38.921875 48.1875 33.109375 48.1875 
Q 26.21875 48.1875 22.15625 43.53125 
Q 18.109375 38.875 18.109375 30.90625 
L 18.109375 0 
L 9.078125 0 
L 9.078125 54.6875 
L 18.109375 54.6875 
L 18.109375 46.1875 
Q 21.1875 51.21875 25.484375 53.609375 
Q 29.78125 56 35.6875 56 
Q 41.65625 56 45.828125 52.96875 
Q 50 49.953125 52 44.1875 
z
" id="DejaVuSans-109"/>
      <path d="M 18.109375 8.203125 
L 18.109375 -20.796875 
L 9.078125 -20.796875 
L 9.078125 54.6875 
L 18.109375 54.6875 
L 18.109375 46.390625 
Q 20.953125 51.265625 25.265625 53.625 
Q 29.59375 56 35.59375 56 
Q 45.5625 56 51.78125 48.09375 
Q 58.015625 40.1875 58.015625 27.296875 
Q 58.015625 14.40625 51.78125 6.484375 
Q 45.5625 -1.421875 35.59375 -1.421875 
Q 29.59375 -1.421875 25.265625 0.953125 
Q 20.953125 3.328125 18.109375 8.203125 
z
M 48.6875 27.296875 
Q 48.6875 37.203125 44.609375 42.84375 
Q 40.53125 48.484375 33.40625 48.484375 
Q 26.265625 48.484375 22.1875 42.84375 
Q 18.109375 37.203125 18.109375 27.296875 
Q 18.109375 17.390625 22.1875 11.75 
Q 26.265625 6.109375 33.40625 6.109375 
Q 40.53125 6.109375 44.609375 11.75 
Q 48.6875 17.390625 48.6875 27.296875 
z
" id="DejaVuSans-112"/>
      <path d="M 54.890625 33.015625 
L 54.890625 0 
L 45.90625 0 
L 45.90625 32.71875 
Q 45.90625 40.484375 42.875 44.328125 
Q 39.84375 48.1875 33.796875 48.1875 
Q 26.515625 48.1875 22.3125 43.546875 
Q 18.109375 38.921875 18.109375 30.90625 
L 18.109375 0 
L 9.078125 0 
L 9.078125 54.6875 
L 18.109375 54.6875 
L 18.109375 46.1875 
Q 21.34375 51.125 25.703125 53.5625 
Q 30.078125 56 35.796875 56 
Q 45.21875 56 50.046875 50.171875 
Q 54.890625 44.34375 54.890625 33.015625 
z
M 32.234375 66.890625 
L 29.4375 69.578125 
Q 28.375 70.5625 27.5625 71.015625 
Q 26.765625 71.484375 26.125 71.484375 
Q 24.265625 71.484375 23.390625 69.703125 
Q 22.515625 67.921875 22.40625 63.921875 
L 16.3125 63.921875 
Q 16.40625 70.515625 18.890625 74.09375 
Q 21.390625 77.6875 25.828125 77.6875 
Q 27.6875 77.6875 29.25 77 
Q 30.8125 76.3125 32.625 74.703125 
L 35.40625 72.015625 
Q 36.46875 71.046875 37.28125 70.578125 
Q 38.09375 70.125 38.71875 70.125 
Q 40.578125 70.125 41.453125 71.90625 
Q 42.328125 73.6875 42.4375 77.6875 
L 48.53125 77.6875 
Q 48.4375 71.09375 45.9375 67.5 
Q 43.453125 63.921875 39.015625 63.921875 
Q 37.15625 63.921875 35.59375 64.59375 
Q 34.03125 65.28125 32.234375 66.890625 
z
" id="DejaVuSans-241"/>
     </defs>
     <g transform="translate(15.198438 290.16775)rotate(-90)scale(0.1 -0.1)">
      <use xlink:href="#DejaVuSans-78"/>
      <use x="74.804688" xlink:href="#DejaVuSans-105"/>
      <use x="102.587891" xlink:href="#DejaVuSans-118"/>
      <use x="161.767578" xlink:href="#DejaVuSans-101"/>
      <use x="223.291016" xlink:href="#DejaVuSans-108"/>
      <use x="251.074219" xlink:href="#DejaVuSans-32"/>
      <use x="282.861328" xlink:href="#DejaVuSans-100"/>
      <use x="346.337891" xlink:href="#DejaVuSans-101"/>
      <use x="407.861328" xlink:href="#DejaVuSans-32"/>
      <use x="439.648438" xlink:href="#DejaVuSans-100"/>
      <use x="503.125" xlink:href="#DejaVuSans-101"/>
      <use x="564.648438" xlink:href="#DejaVuSans-115"/>
      <use x="616.748047" xlink:href="#DejaVuSans-101"/>
      <use x="678.271484" xlink:href="#DejaVuSans-109"/>
      <use x="775.683594" xlink:href="#DejaVuSans-112"/>
      <use x="839.160156" xlink:href="#DejaVuSans-101"/>
      <use x="900.683594" xlink:href="#DejaVuSans-241"/>
      <use x="964.0625" xlink:href="#DejaVuSans-111"/>
      <use x="1025.244141" xlink:href="#DejaVuSans-32"/>
      <use x="1057.03125" xlink:href="#DejaVuSans-101"/>
      <use x="1118.554688" xlink:href="#DejaVuSans-110"/>
      <use x="1181.933594" xlink:href="#DejaVuSans-32"/>
      <use x="1213.720703" xlink:href="#DejaVuSans-109"/>
      <use x="1311.132812" xlink:href="#DejaVuSans-97"/>
      <use x="1372.412109" xlink:href="#DejaVuSans-116"/>
      <use x="1411.621094" xlink:href="#DejaVuSans-101"/>
      <use x="1473.144531" xlink:href="#DejaVuSans-109"/>
      <use x="1570.556641" xlink:href="#DejaVuSans-225"/>
      <use x="1631.835938" xlink:href="#DejaVuSans-116"/>
      <use x="1671.044922" xlink:href="#DejaVuSans-105"/>
      <use x="1698.828125" xlink:href="#DejaVuSans-99"/>
      <use x="1753.808594" xlink:href="#DejaVuSans-97"/>
     </g>
    </g>
   </g>
   <g id="line2d_10">
    <path clip-path="url(#p46c1cbc060)" d="M 168.230417 77.1015 
L 437.528626 77.1015 
" style="fill:none;stroke:#4c4c4c;stroke-linecap:square;stroke-width:1.5;"/>
   </g>
   <g id="line2d_11">
    <path clip-path="url(#p46c1cbc060)" d="M 208.213557 77.1015 
L 299.939584 77.1015 
" style="fill:none;stroke:#4c4c4c;stroke-linecap:square;stroke-width:4.5;"/>
   </g>
   <g id="line2d_12">
    <path clip-path="url(#p46c1cbc060)" d="M 164.702493 158.6415 
L 469.279943 158.6415 
" style="fill:none;stroke:#4c4c4c;stroke-linecap:square;stroke-width:1.5;"/>
   </g>
   <g id="line2d_13">
    <path clip-path="url(#p46c1cbc060)" d="M 225.853178 158.6415 
L 323.459079 158.6415 
" style="fill:none;stroke:#4c4c4c;stroke-linecap:square;stroke-width:4.5;"/>
   </g>
   <g id="line2d_14">
    <path clip-path="url(#p46c1cbc060)" d="M 164.702493 240.1815 
L 530.430628 240.1815 
" style="fill:none;stroke:#4c4c4c;stroke-linecap:square;stroke-width:1.5;"/>
   </g>
   <g id="line2d_15">
    <path clip-path="url(#p46c1cbc060)" d="M 245.25676 240.1815 
L 359.326307 240.1815 
" style="fill:none;stroke:#4c4c4c;stroke-linecap:square;stroke-width:4.5;"/>
   </g>
   <g id="line2d_16">
    <path clip-path="url(#p46c1cbc060)" d="M 164.702493 321.7215 
L 554.538109 321.7215 
" style="fill:none;stroke:#4c4c4c;stroke-linecap:square;stroke-width:1.5;"/>
   </g>
   <g id="line2d_17">
    <path clip-path="url(#p46c1cbc060)" d="M 258.192482 321.7215 
L 376.965928 321.7215 
" style="fill:none;stroke:#4c4c4c;stroke-linecap:square;stroke-width:4.5;"/>
   </g>
   <g id="patch_3">
    <path d="M 135.303125 362.4915 
L 135.303125 36.3315 
" style="fill:none;stroke:#000000;stroke-linecap:square;stroke-linejoin:miter;stroke-width:0.8;"/>
   </g>
   <g id="patch_4">
    <path d="M 693.303125 362.4915 
L 693.303125 36.3315 
" style="fill:none;stroke:#000000;stroke-linecap:square;stroke-linejoin:miter;stroke-width:0.8;"/>
   </g>
   <g id="patch_5">
    <path d="M 135.303125 362.4915 
L 693.303125 362.4915 
" style="fill:none;stroke:#000000;stroke-linecap:square;stroke-linejoin:miter;stroke-width:0.8;"/>
   </g>
   <g id="patch_6">
    <path d="M 135.303125 36.3315 
L 693.303125 36.3315 
" style="fill:none;stroke:#000000;stroke-linecap:square;stroke-linejoin:miter;stroke-width:0.8;"/>
   </g>
   <g id="PathCollection_1">
    <defs>
     <path d="M 0 1.5 
C 0.397805 1.5 0.77937 1.341951 1.06066 1.06066 
C 1.341951 0.77937 1.5 0.397805 1.5 0 
C 1.5 -0.397805 1.341951 -0.77937 1.06066 -1.06066 
C 0.77937 -1.341951 0.397805 -1.5 0 -1.5 
C -0.397805 -1.5 -0.77937 -1.341951 -1.06066 -1.06066 
C -1.341951 -0.77937 -1.5 -0.397805 -1.5 0 
C -1.5 0.397805 -1.341951 0.77937 -1.06066 1.06066 
C -0.77937 1.341951 -0.397805 1.5 0 1.5 
z
" id="mea49cd22d8" style="stroke:#4c4c4c;"/>
    </defs>
    <g clip-path="url(#p46c1cbc060)">
     <use style="fill:#ffffff;stroke:#4c4c4c;" x="253.488583" xlink:href="#mea49cd22d8" y="77.1015"/>
    </g>
   </g>
   <g id="PathCollection_2">
    <g clip-path="url(#p46c1cbc060)">
     <use style="fill:#ffffff;stroke:#4c4c4c;" x="273.480153" xlink:href="#mea49cd22d8" y="158.6415"/>
    </g>
   </g>
   <g id="PathCollection_3">
    <g clip-path="url(#p46c1cbc060)">
     <use style="fill:#ffffff;stroke:#4c4c4c;" x="293.471724" xlink:href="#mea49cd22d8" y="240.1815"/>
    </g>
   </g>
   <g id="PathCollection_4">
    <g clip-path="url(#p46c1cbc060)">
     <use style="fill:#ffffff;stroke:#4c4c4c;" x="310.523357" xlink:href="#mea49cd22d8" y="321.7215"/>
    </g>
   </g>
   <g id="text_12">
    <!-- Distribuci칩n de: ICSE seg칰n el desempe침o en matem치tica -->
    <defs>
     <path d="M 19.671875 64.796875 
L 19.671875 8.109375 
L 31.59375 8.109375 
Q 46.6875 8.109375 53.6875 14.9375 
Q 60.6875 21.78125 60.6875 36.53125 
Q 60.6875 51.171875 53.6875 57.984375 
Q 46.6875 64.796875 31.59375 64.796875 
z
M 9.8125 72.90625 
L 30.078125 72.90625 
Q 51.265625 72.90625 61.171875 64.09375 
Q 71.09375 55.28125 71.09375 36.53125 
Q 71.09375 17.671875 61.125 8.828125 
Q 51.171875 0 30.078125 0 
L 9.8125 0 
z
" id="DejaVuSans-68"/>
     <path d="M 8.5 21.578125 
L 8.5 54.6875 
L 17.484375 54.6875 
L 17.484375 21.921875 
Q 17.484375 14.15625 20.5 10.265625 
Q 23.53125 6.390625 29.59375 6.390625 
Q 36.859375 6.390625 41.078125 11.03125 
Q 45.3125 15.671875 45.3125 23.6875 
L 45.3125 54.6875 
L 54.296875 54.6875 
L 54.296875 0 
L 45.3125 0 
L 45.3125 8.40625 
Q 42.046875 3.421875 37.71875 1 
Q 33.40625 -1.421875 27.6875 -1.421875 
Q 18.265625 -1.421875 13.375 4.4375 
Q 8.5 10.296875 8.5 21.578125 
z
M 31.109375 56 
z
" id="DejaVuSans-117"/>
     <path d="M 30.609375 48.390625 
Q 23.390625 48.390625 19.1875 42.75 
Q 14.984375 37.109375 14.984375 27.296875 
Q 14.984375 17.484375 19.15625 11.84375 
Q 23.34375 6.203125 30.609375 6.203125 
Q 37.796875 6.203125 41.984375 11.859375 
Q 46.1875 17.53125 46.1875 27.296875 
Q 46.1875 37.015625 41.984375 42.703125 
Q 37.796875 48.390625 30.609375 48.390625 
z
M 30.609375 56 
Q 42.328125 56 49.015625 48.375 
Q 55.71875 40.765625 55.71875 27.296875 
Q 55.71875 13.875 49.015625 6.21875 
Q 42.328125 -1.421875 30.609375 -1.421875 
Q 18.84375 -1.421875 12.171875 6.21875 
Q 5.515625 13.875 5.515625 27.296875 
Q 5.515625 40.765625 12.171875 48.375 
Q 18.84375 56 30.609375 56 
z
M 37.40625 79.984375 
L 47.125 79.984375 
L 31.203125 61.625 
L 23.734375 61.625 
z
" id="DejaVuSans-243"/>
     <path d="M 11.71875 12.40625 
L 22.015625 12.40625 
L 22.015625 0 
L 11.71875 0 
z
M 11.71875 51.703125 
L 22.015625 51.703125 
L 22.015625 39.3125 
L 11.71875 39.3125 
z
" id="DejaVuSans-58"/>
     <path d="M 45.40625 27.984375 
Q 45.40625 37.75 41.375 43.109375 
Q 37.359375 48.484375 30.078125 48.484375 
Q 22.859375 48.484375 18.828125 43.109375 
Q 14.796875 37.75 14.796875 27.984375 
Q 14.796875 18.265625 18.828125 12.890625 
Q 22.859375 7.515625 30.078125 7.515625 
Q 37.359375 7.515625 41.375 12.890625 
Q 45.40625 18.265625 45.40625 27.984375 
z
M 54.390625 6.78125 
Q 54.390625 -7.171875 48.1875 -13.984375 
Q 42 -20.796875 29.203125 -20.796875 
Q 24.46875 -20.796875 20.265625 -20.09375 
Q 16.0625 -19.390625 12.109375 -17.921875 
L 12.109375 -9.1875 
Q 16.0625 -11.328125 19.921875 -12.34375 
Q 23.78125 -13.375 27.78125 -13.375 
Q 36.625 -13.375 41.015625 -8.765625 
Q 45.40625 -4.15625 45.40625 5.171875 
L 45.40625 9.625 
Q 42.625 4.78125 38.28125 2.390625 
Q 33.9375 0 27.875 0 
Q 17.828125 0 11.671875 7.65625 
Q 5.515625 15.328125 5.515625 27.984375 
Q 5.515625 40.671875 11.671875 48.328125 
Q 17.828125 56 27.875 56 
Q 33.9375 56 38.28125 53.609375 
Q 42.625 51.21875 45.40625 46.390625 
L 45.40625 54.6875 
L 54.390625 54.6875 
z
" id="DejaVuSans-103"/>
     <path d="M 8.5 21.578125 
L 8.5 54.6875 
L 17.484375 54.6875 
L 17.484375 21.921875 
Q 17.484375 14.15625 20.5 10.265625 
Q 23.53125 6.390625 29.59375 6.390625 
Q 36.859375 6.390625 41.078125 11.03125 
Q 45.3125 15.671875 45.3125 23.6875 
L 45.3125 54.6875 
L 54.296875 54.6875 
L 54.296875 0 
L 45.3125 0 
L 45.3125 8.40625 
Q 42.046875 3.421875 37.71875 1 
Q 33.40625 -1.421875 27.6875 -1.421875 
Q 18.265625 -1.421875 13.375 4.4375 
Q 8.5 10.296875 8.5 21.578125 
z
M 31.109375 56 
z
M 37.796875 79.984375 
L 47.515625 79.984375 
L 31.59375 61.625 
L 24.125 61.625 
z
" id="DejaVuSans-250"/>
    </defs>
    <g transform="translate(239.619688 16.798125)scale(0.12 -0.12)">
     <use xlink:href="#DejaVuSans-68"/>
     <use x="77.001953" xlink:href="#DejaVuSans-105"/>
     <use x="104.785156" xlink:href="#DejaVuSans-115"/>
     <use x="156.884766" xlink:href="#DejaVuSans-116"/>
     <use x="196.09375" xlink:href="#DejaVuSans-114"/>
     <use x="237.207031" xlink:href="#DejaVuSans-105"/>
     <use x="264.990234" xlink:href="#DejaVuSans-98"/>
     <use x="328.466797" xlink:href="#DejaVuSans-117"/>
     <use x="391.845703" xlink:href="#DejaVuSans-99"/>
     <use x="446.826172" xlink:href="#DejaVuSans-105"/>
     <use x="474.609375" xlink:href="#DejaVuSans-243"/>
     <use x="535.791016" xlink:href="#DejaVuSans-110"/>
     <use x="599.169922" xlink:href="#DejaVuSans-32"/>
     <use x="630.957031" xlink:href="#DejaVuSans-100"/>
     <use x="694.433594" xlink:href="#DejaVuSans-101"/>
     <use x="755.957031" xlink:href="#DejaVuSans-58"/>
     <use x="789.648438" xlink:href="#DejaVuSans-32"/>
     <use x="821.435547" xlink:href="#DejaVuSans-73"/>
     <use x="850.927734" xlink:href="#DejaVuSans-67"/>
     <use x="920.751953" xlink:href="#DejaVuSans-83"/>
     <use x="984.228516" xlink:href="#DejaVuSans-69"/>
     <use x="1047.412109" xlink:href="#DejaVuSans-32"/>
     <use x="1079.199219" xlink:href="#DejaVuSans-115"/>
     <use x="1131.298828" xlink:href="#DejaVuSans-101"/>
     <use x="1192.822266" xlink:href="#DejaVuSans-103"/>
     <use x="1256.298828" xlink:href="#DejaVuSans-250"/>
     <use x="1319.677734" xlink:href="#DejaVuSans-110"/>
     <use x="1383.056641" xlink:href="#DejaVuSans-32"/>
     <use x="1414.84375" xlink:href="#DejaVuSans-101"/>
     <use x="1476.367188" xlink:href="#DejaVuSans-108"/>
     <use x="1504.150391" xlink:href="#DejaVuSans-32"/>
     <use x="1535.9375" xlink:href="#DejaVuSans-100"/>
     <use x="1599.414062" xlink:href="#DejaVuSans-101"/>
     <use x="1660.9375" xlink:href="#DejaVuSans-115"/>
     <use x="1713.037109" xlink:href="#DejaVuSans-101"/>
     <use x="1774.560547" xlink:href="#DejaVuSans-109"/>
     <use x="1871.972656" xlink:href="#DejaVuSans-112"/>
     <use x="1935.449219" xlink:href="#DejaVuSans-101"/>
     <use x="1996.972656" xlink:href="#DejaVuSans-241"/>
     <use x="2060.351562" xlink:href="#DejaVuSans-111"/>
     <use x="2121.533203" xlink:href="#DejaVuSans-32"/>
     <use x="2153.320312" xlink:href="#DejaVuSans-101"/>
     <use x="2214.84375" xlink:href="#DejaVuSans-110"/>
     <use x="2278.222656" xlink:href="#DejaVuSans-32"/>
     <use x="2310.009766" xlink:href="#DejaVuSans-109"/>
     <use x="2407.421875" xlink:href="#DejaVuSans-97"/>
     <use x="2468.701172" xlink:href="#DejaVuSans-116"/>
     <use x="2507.910156" xlink:href="#DejaVuSans-101"/>
     <use x="2569.433594" xlink:href="#DejaVuSans-109"/>
     <use x="2666.845703" xlink:href="#DejaVuSans-225"/>
     <use x="2728.125" xlink:href="#DejaVuSans-116"/>
     <use x="2767.333984" xlink:href="#DejaVuSans-105"/>
     <use x="2795.117188" xlink:href="#DejaVuSans-99"/>
     <use x="2850.097656" xlink:href="#DejaVuSans-97"/>
    </g>
    <!--  Nivel: Primaria -->
    <g transform="translate(368.320625 30.2355)scale(0.12 -0.12)">
     <use xlink:href="#DejaVuSans-32"/>
     <use x="31.787109" xlink:href="#DejaVuSans-78"/>
     <use x="106.591797" xlink:href="#DejaVuSans-105"/>
     <use x="134.375" xlink:href="#DejaVuSans-118"/>
     <use x="193.554688" xlink:href="#DejaVuSans-101"/>
     <use x="255.078125" xlink:href="#DejaVuSans-108"/>
     <use x="282.861328" xlink:href="#DejaVuSans-58"/>
     <use x="316.552734" xlink:href="#DejaVuSans-32"/>
     <use x="348.339844" xlink:href="#DejaVuSans-80"/>
     <use x="408.626953" xlink:href="#DejaVuSans-114"/>
     <use x="449.740234" xlink:href="#DejaVuSans-105"/>
     <use x="477.523438" xlink:href="#DejaVuSans-109"/>
     <use x="574.935547" xlink:href="#DejaVuSans-97"/>
     <use x="636.214844" xlink:href="#DejaVuSans-114"/>
     <use x="677.328125" xlink:href="#DejaVuSans-105"/>
     <use x="705.111328" xlink:href="#DejaVuSans-97"/>
    </g>
   </g>
  </g>
 </g>
 <defs>
  <clipPath id="p46c1cbc060">
   <rect height="326.16" width="558" x="135.303125" y="36.3315"/>
  </clipPath>
 </defs>
</svg>
