<?xml version="1.0" encoding="utf-8" standalone="no"?>
<!DOCTYPE svg PUBLIC "-//W3C//DTD SVG 1.1//EN"
  "http://www.w3.org/Graphics/SVG/1.1/DTD/svg11.dtd">
<!-- Created with matplotlib (https://matplotlib.org/) -->
<svg height="401.88375pt" version="1.1" viewBox="0 0 703.773437 401.88375" width="703.773437pt" xmlns="http://www.w3.org/2000/svg" xmlns:xlink="http://www.w3.org/1999/xlink">
 <defs>
  <style type="text/css">
*{stroke-linecap:butt;stroke-linejoin:round;}
  </style>
 </defs>
 <g id="figure_1">
  <g id="patch_1">
   <path d="M 0 401.88375 
L 703.773437 401.88375 
L 703.773437 0 
L 0 0 
z
" style="fill:#ffffff;"/>
  </g>
  <g id="axes_1">
   <g id="patch_2">
    <path d="M 135.073438 364.3275 
L 693.073437 364.3275 
L 693.073437 38.1675 
L 135.073438 38.1675 
z
" style="fill:#ffffff;"/>
   </g>
   <g id="PolyCollection_1">
    <defs>
     <path d="M 130.961065 -322.930358 
L 130.961065 -322.962142 
L 136.680507 -322.99394 
L 142.399949 -323.039165 
L 148.119391 -323.064063 
L 153.838832 -323.04522 
L 159.558274 -323.008761 
L 165.277716 -322.99674 
L 170.997158 -323.019858 
L 176.7166 -323.062067 
L 182.436042 -323.104727 
L 188.155484 -323.137556 
L 193.874925 -323.164419 
L 199.594367 -323.197525 
L 205.313809 -323.234692 
L 211.033251 -323.257459 
L 216.752693 -323.258342 
L 222.472135 -323.256664 
L 228.191577 -323.277873 
L 233.911019 -323.330557 
L 239.63046 -323.423199 
L 245.349902 -323.568467 
L 251.069344 -323.740926 
L 256.788786 -323.887234 
L 262.508228 -324.003207 
L 268.22767 -324.142863 
L 273.947112 -324.337742 
L 279.666554 -324.550387 
L 285.385995 -324.742028 
L 291.105437 -324.945232 
L 296.824879 -325.198923 
L 302.544321 -325.482664 
L 308.263763 -325.802032 
L 313.983205 -326.237698 
L 319.702647 -326.825965 
L 325.422089 -327.486942 
L 331.14153 -328.145643 
L 336.860972 -328.826617 
L 342.580414 -329.543324 
L 348.299856 -330.256461 
L 354.019298 -331.06273 
L 359.73874 -332.190039 
L 365.458182 -333.651568 
L 371.177623 -335.191653 
L 376.897065 -336.697762 
L 382.616507 -338.310127 
L 388.335949 -339.992731 
L 394.055391 -341.371966 
L 399.774833 -342.3713 
L 405.494275 -343.543327 
L 411.213717 -345.058079 
L 416.933158 -346.229385 
L 422.6526 -346.848219 
L 428.372042 -347.62217 
L 434.091484 -348.942634 
L 439.810926 -350.282082 
L 445.530368 -350.711742 
L 451.24981 -349.871789 
L 456.969252 -348.449751 
L 462.688693 -347.433298 
L 468.408135 -347.087789 
L 474.127577 -347.020502 
L 479.847019 -346.944842 
L 485.566461 -346.868083 
L 491.285903 -346.796273 
L 497.005345 -346.61811 
L 502.724786 -346.06434 
L 508.444228 -344.98759 
L 514.16367 -343.757464 
L 519.883112 -342.863037 
L 525.602554 -342.384757 
L 531.321996 -342.235436 
L 537.041438 -342.502156 
L 542.76088 -343.038393 
L 548.480321 -343.135287 
L 554.199763 -342.358327 
L 559.919205 -341.148103 
L 565.638647 -340.088058 
L 571.358089 -339.284228 
L 577.077531 -338.631106 
L 582.796973 -338.138428 
L 588.516415 -337.75022 
L 594.235856 -337.375299 
L 599.955298 -337.206174 
L 605.67474 -337.26176 
L 611.394182 -337.076057 
L 617.113624 -336.341746 
L 622.833066 -335.164542 
L 628.552508 -333.657915 
L 634.27195 -331.841655 
L 639.991391 -330.035727 
L 645.710833 -328.752738 
L 651.430275 -327.885995 
L 657.149717 -326.841587 
L 662.869159 -325.544241 
L 668.588601 -324.44264 
L 674.308043 -323.776299 
L 680.027484 -323.422999 
L 685.746926 -323.204857 
L 691.466368 -323.058511 
L 697.18581 -322.981062 
L 697.18581 -322.911438 
L 697.18581 -322.911438 
L 691.466368 -322.833989 
L 685.746926 -322.687643 
L 680.027484 -322.469501 
L 674.308043 -322.116201 
L 668.588601 -321.44986 
L 662.869159 -320.348259 
L 657.149717 -319.050913 
L 651.430275 -318.006505 
L 645.710833 -317.139762 
L 639.991391 -315.856773 
L 634.27195 -314.050845 
L 628.552508 -312.234585 
L 622.833066 -310.727958 
L 617.113624 -309.550754 
L 611.394182 -308.816443 
L 605.67474 -308.63074 
L 599.955298 -308.686326 
L 594.235856 -308.517201 
L 588.516415 -308.14228 
L 582.796973 -307.754072 
L 577.077531 -307.261394 
L 571.358089 -306.608272 
L 565.638647 -305.804442 
L 559.919205 -304.744397 
L 554.199763 -303.534173 
L 548.480321 -302.757213 
L 542.76088 -302.854107 
L 537.041438 -303.390344 
L 531.321996 -303.657064 
L 525.602554 -303.507743 
L 519.883112 -303.029463 
L 514.16367 -302.135036 
L 508.444228 -300.90491 
L 502.724786 -299.82816 
L 497.005345 -299.27439 
L 491.285903 -299.096227 
L 485.566461 -299.024417 
L 479.847019 -298.947658 
L 474.127577 -298.871998 
L 468.408135 -298.804711 
L 462.688693 -298.459202 
L 456.969252 -297.442749 
L 451.24981 -296.020711 
L 445.530368 -295.180758 
L 439.810926 -295.610418 
L 434.091484 -296.949866 
L 428.372042 -298.27033 
L 422.6526 -299.044281 
L 416.933158 -299.663115 
L 411.213717 -300.834421 
L 405.494275 -302.349173 
L 399.774833 -303.5212 
L 394.055391 -304.520534 
L 388.335949 -305.899769 
L 382.616507 -307.582373 
L 376.897065 -309.194738 
L 371.177623 -310.700847 
L 365.458182 -312.240932 
L 359.73874 -313.702461 
L 354.019298 -314.82977 
L 348.299856 -315.636039 
L 342.580414 -316.349176 
L 336.860972 -317.065883 
L 331.14153 -317.746857 
L 325.422089 -318.405558 
L 319.702647 -319.066535 
L 313.983205 -319.654802 
L 308.263763 -320.090468 
L 302.544321 -320.409836 
L 296.824879 -320.693577 
L 291.105437 -320.947268 
L 285.385995 -321.150472 
L 279.666554 -321.342113 
L 273.947112 -321.554758 
L 268.22767 -321.749637 
L 262.508228 -321.889293 
L 256.788786 -322.005266 
L 251.069344 -322.151574 
L 245.349902 -322.324033 
L 239.63046 -322.469301 
L 233.911019 -322.561943 
L 228.191577 -322.614627 
L 222.472135 -322.635836 
L 216.752693 -322.634158 
L 211.033251 -322.635041 
L 205.313809 -322.657808 
L 199.594367 -322.694975 
L 193.874925 -322.728081 
L 188.155484 -322.754944 
L 182.436042 -322.787773 
L 176.7166 -322.830433 
L 170.997158 -322.872642 
L 165.277716 -322.89576 
L 159.558274 -322.883739 
L 153.838832 -322.84728 
L 148.119391 -322.828437 
L 142.399949 -322.853335 
L 136.680507 -322.89856 
L 130.961065 -322.930358 
z
" id="mfd9ceaf7d0" style="stroke:#4c4c4c;stroke-width:1.5;"/>
    </defs>
    <g clip-path="url(#p354e25e296)">
     <use style="fill:#2020df;stroke:#4c4c4c;stroke-width:1.5;" x="0" xlink:href="#mfd9ceaf7d0" y="401.88375"/>
    </g>
   </g>
   <g id="PolyCollection_2">
    <defs>
     <path d="M 135.10474 -241.324722 
L 135.10474 -241.487778 
L 140.740472 -241.717519 
L 146.376203 -241.984128 
L 152.011934 -241.934538 
L 157.647665 -241.673797 
L 163.283397 -241.574764 
L 168.919128 -241.665319 
L 174.554859 -241.797868 
L 180.19059 -241.886881 
L 185.826322 -241.93645 
L 191.462053 -242.005614 
L 197.097784 -242.156935 
L 202.733515 -242.346772 
L 208.369247 -242.506814 
L 214.004978 -242.593694 
L 219.640709 -242.58335 
L 225.276441 -242.641964 
L 230.912172 -242.869465 
L 236.547903 -243.115691 
L 242.183634 -243.381265 
L 247.819366 -243.890515 
L 253.455097 -244.510841 
L 259.090828 -244.896712 
L 264.726559 -245.111283 
L 270.362291 -245.60742 
L 275.998022 -246.455139 
L 281.633753 -247.123474 
L 287.269484 -247.399572 
L 292.905216 -247.782287 
L 298.540947 -248.453068 
L 304.176678 -249.071309 
L 309.812409 -249.77111 
L 315.448141 -251.09123 
L 321.083872 -252.929597 
L 326.719603 -254.490143 
L 332.355334 -255.34433 
L 337.991066 -256.34185 
L 343.626797 -258.024721 
L 349.262528 -259.555432 
L 354.898259 -260.573561 
L 360.533991 -262.06713 
L 366.169722 -264.189884 
L 371.805453 -265.745036 
L 377.441184 -266.632187 
L 383.076916 -267.692742 
L 388.712647 -269.096403 
L 394.348378 -269.749427 
L 399.984109 -269.236896 
L 405.619841 -270.148674 
L 411.255572 -273.103599 
L 416.891303 -273.462896 
L 422.527034 -271.002995 
L 428.162766 -269.95746 
L 433.798497 -270.363391 
L 439.434228 -270.827633 
L 445.069959 -270.761939 
L 450.705691 -269.508085 
L 456.341422 -267.118431 
L 461.977153 -264.749547 
L 467.612884 -263.191023 
L 473.248616 -262.012815 
L 478.884347 -260.79358 
L 484.520078 -259.780424 
L 490.155809 -259.027852 
L 495.791541 -258.406398 
L 501.427272 -257.828434 
L 507.063003 -256.749144 
L 512.698734 -255.362862 
L 518.334466 -254.386834 
L 523.970197 -253.732617 
L 529.605928 -253.117718 
L 535.241659 -252.577611 
L 540.877391 -252.333857 
L 546.513122 -252.100695 
L 552.148853 -251.295664 
L 557.784584 -250.194466 
L 563.420316 -249.412344 
L 569.056047 -249.024625 
L 574.691778 -248.674816 
L 580.327509 -248.14363 
L 585.963241 -247.683317 
L 591.598972 -247.12438 
L 597.234703 -246.43602 
L 602.870434 -246.214022 
L 608.506166 -246.391829 
L 614.141897 -246.457086 
L 619.777628 -246.156236 
L 625.41336 -245.478577 
L 631.049091 -244.636259 
L 636.684822 -243.768191 
L 642.320553 -243.149003 
L 647.956285 -242.975582 
L 653.592016 -242.802212 
L 659.227747 -242.358642 
L 664.863478 -241.935321 
L 670.49921 -241.713014 
L 676.134941 -241.641001 
L 681.770672 -241.589897 
L 687.406403 -241.49729 
L 693.042135 -241.429634 
L 693.042135 -241.382866 
L 693.042135 -241.382866 
L 687.406403 -241.31521 
L 681.770672 -241.222603 
L 676.134941 -241.171499 
L 670.49921 -241.099486 
L 664.863478 -240.877179 
L 659.227747 -240.453858 
L 653.592016 -240.010288 
L 647.956285 -239.836918 
L 642.320553 -239.663497 
L 636.684822 -239.044309 
L 631.049091 -238.176241 
L 625.41336 -237.333923 
L 619.777628 -236.656264 
L 614.141897 -236.355414 
L 608.506166 -236.420671 
L 602.870434 -236.598478 
L 597.234703 -236.37648 
L 591.598972 -235.68812 
L 585.963241 -235.129183 
L 580.327509 -234.66887 
L 574.691778 -234.137684 
L 569.056047 -233.787875 
L 563.420316 -233.400156 
L 557.784584 -232.618034 
L 552.148853 -231.516836 
L 546.513122 -230.711805 
L 540.877391 -230.478643 
L 535.241659 -230.234889 
L 529.605928 -229.694782 
L 523.970197 -229.079883 
L 518.334466 -228.425666 
L 512.698734 -227.449638 
L 507.063003 -226.063356 
L 501.427272 -224.984066 
L 495.791541 -224.406102 
L 490.155809 -223.784648 
L 484.520078 -223.032076 
L 478.884347 -222.01892 
L 473.248616 -220.799685 
L 467.612884 -219.621477 
L 461.977153 -218.062953 
L 456.341422 -215.694069 
L 450.705691 -213.304415 
L 445.069959 -212.050561 
L 439.434228 -211.984867 
L 433.798497 -212.449109 
L 428.162766 -212.85504 
L 422.527034 -211.809505 
L 416.891303 -209.349604 
L 411.255572 -209.708901 
L 405.619841 -212.663826 
L 399.984109 -213.575604 
L 394.348378 -213.063073 
L 388.712647 -213.716097 
L 383.076916 -215.119758 
L 377.441184 -216.180313 
L 371.805453 -217.067464 
L 366.169722 -218.622616 
L 360.533991 -220.74537 
L 354.898259 -222.238939 
L 349.262528 -223.257068 
L 343.626797 -224.787779 
L 337.991066 -226.47065 
L 332.355334 -227.46817 
L 326.719603 -228.322357 
L 321.083872 -229.882903 
L 315.448141 -231.72127 
L 309.812409 -233.04139 
L 304.176678 -233.741191 
L 298.540947 -234.359432 
L 292.905216 -235.030213 
L 287.269484 -235.412928 
L 281.633753 -235.689026 
L 275.998022 -236.357361 
L 270.362291 -237.20508 
L 264.726559 -237.701217 
L 259.090828 -237.915788 
L 253.455097 -238.301659 
L 247.819366 -238.921985 
L 242.183634 -239.431235 
L 236.547903 -239.696809 
L 230.912172 -239.943035 
L 225.276441 -240.170536 
L 219.640709 -240.22915 
L 214.004978 -240.218806 
L 208.369247 -240.305686 
L 202.733515 -240.465728 
L 197.097784 -240.655565 
L 191.462053 -240.806886 
L 185.826322 -240.87605 
L 180.19059 -240.925619 
L 174.554859 -241.014632 
L 168.919128 -241.147181 
L 163.283397 -241.237736 
L 157.647665 -241.138703 
L 152.011934 -240.877962 
L 146.376203 -240.828372 
L 140.740472 -241.094981 
L 135.10474 -241.324722 
z
" id="mcfa6809f96" style="stroke:#4c4c4c;stroke-width:1.5;"/>
    </defs>
    <g clip-path="url(#p354e25e296)">
     <use style="fill:#2020df;stroke:#4c4c4c;stroke-width:1.5;" x="0" xlink:href="#mcfa6809f96" y="401.88375"/>
    </g>
   </g>
   <g id="PolyCollection_3">
    <defs>
     <path d="M 133.899007 -159.722339 
L 133.899007 -160.010161 
L 139.559097 -160.3735 
L 145.219186 -160.837084 
L 150.879276 -160.887558 
L 156.539365 -160.516356 
L 162.199455 -160.306919 
L 167.859544 -160.47549 
L 173.519634 -160.79167 
L 179.179723 -161.0319 
L 184.839813 -161.141633 
L 190.499902 -161.218844 
L 196.159992 -161.428343 
L 201.820081 -161.776552 
L 207.480171 -162.119609 
L 213.14026 -162.327238 
L 218.80035 -162.383137 
L 224.460439 -162.490952 
L 230.120529 -162.800136 
L 235.780618 -163.19371 
L 241.440708 -163.696626 
L 247.100797 -164.566284 
L 252.760887 -165.641539 
L 258.420976 -166.446281 
L 264.081066 -167.002293 
L 269.741155 -167.811313 
L 275.401245 -168.97864 
L 281.061334 -170.031742 
L 286.721424 -170.799532 
L 292.381513 -171.674246 
L 298.041603 -172.823187 
L 303.701692 -173.964767 
L 309.361782 -175.108348 
L 315.021871 -176.780079 
L 320.681961 -179.08136 
L 326.34205 -181.218598 
L 332.00214 -182.570171 
L 337.662229 -183.707286 
L 343.322319 -185.196922 
L 348.982408 -186.494847 
L 354.642498 -187.250381 
L 360.302587 -188.240659 
L 365.962677 -189.664806 
L 371.622766 -190.690689 
L 377.282856 -191.244948 
L 382.942945 -191.759833 
L 388.603035 -192.124446 
L 394.263124 -191.630798 
L 399.923214 -190.467458 
L 405.583303 -190.822882 
L 411.243393 -192.48225 
L 416.903482 -191.378581 
L 422.563572 -187.629734 
L 428.223661 -185.103329 
L 433.883751 -184.205956 
L 439.54384 -183.564156 
L 445.20393 -182.681442 
L 450.864019 -181.271525 
L 456.524109 -179.212551 
L 462.184198 -177.039685 
L 467.844288 -175.332724 
L 473.504377 -173.996173 
L 479.164467 -172.845607 
L 484.824556 -171.901412 
L 490.484646 -171.084152 
L 496.144735 -170.402237 
L 501.804825 -169.785523 
L 507.464914 -168.970477 
L 513.125004 -168.124082 
L 518.785093 -167.534279 
L 524.445183 -167.119812 
L 530.105272 -166.736836 
L 535.765362 -166.306778 
L 541.425451 -165.842708 
L 547.085541 -165.343549 
L 552.74563 -164.706334 
L 558.40572 -164.039749 
L 564.065809 -163.615386 
L 569.725899 -163.426196 
L 575.385988 -163.181015 
L 581.046078 -162.810411 
L 586.706167 -162.52271 
L 592.366257 -162.296802 
L 598.026346 -162.05627 
L 603.686436 -161.917739 
L 609.346525 -161.861576 
L 615.006615 -161.757093 
L 620.666704 -161.543585 
L 626.326794 -161.236229 
L 631.986883 -160.907757 
L 637.646973 -160.624306 
L 643.307062 -160.440291 
L 648.967152 -160.338548 
L 654.627241 -160.224884 
L 660.287331 -160.094496 
L 665.94742 -160.008274 
L 671.60751 -159.975174 
L 677.267599 -159.964942 
L 682.927689 -159.941353 
L 688.587778 -159.902742 
L 694.247868 -159.87637 
L 694.247868 -159.85613 
L 694.247868 -159.85613 
L 688.587778 -159.829758 
L 682.927689 -159.791147 
L 677.267599 -159.767558 
L 671.60751 -159.757326 
L 665.94742 -159.724226 
L 660.287331 -159.638004 
L 654.627241 -159.507616 
L 648.967152 -159.393952 
L 643.307062 -159.292209 
L 637.646973 -159.108194 
L 631.986883 -158.824743 
L 626.326794 -158.496271 
L 620.666704 -158.188915 
L 615.006615 -157.975407 
L 609.346525 -157.870924 
L 603.686436 -157.814761 
L 598.026346 -157.67623 
L 592.366257 -157.435698 
L 586.706167 -157.20979 
L 581.046078 -156.922089 
L 575.385988 -156.551485 
L 569.725899 -156.306304 
L 564.065809 -156.117114 
L 558.40572 -155.692751 
L 552.74563 -155.026166 
L 547.085541 -154.388951 
L 541.425451 -153.889792 
L 535.765362 -153.425722 
L 530.105272 -152.995664 
L 524.445183 -152.612688 
L 518.785093 -152.198221 
L 513.125004 -151.608418 
L 507.464914 -150.762023 
L 501.804825 -149.946977 
L 496.144735 -149.330263 
L 490.484646 -148.648348 
L 484.824556 -147.831088 
L 479.164467 -146.886893 
L 473.504377 -145.736327 
L 467.844288 -144.399776 
L 462.184198 -142.692815 
L 456.524109 -140.519949 
L 450.864019 -138.460975 
L 445.20393 -137.051058 
L 439.54384 -136.168344 
L 433.883751 -135.526544 
L 428.223661 -134.629171 
L 422.563572 -132.102766 
L 416.903482 -128.353919 
L 411.243393 -127.25025 
L 405.583303 -128.909618 
L 399.923214 -129.265042 
L 394.263124 -128.101702 
L 388.603035 -127.608054 
L 382.942945 -127.972667 
L 377.282856 -128.487552 
L 371.622766 -129.041811 
L 365.962677 -130.067694 
L 360.302587 -131.491841 
L 354.642498 -132.482119 
L 348.982408 -133.237653 
L 343.322319 -134.535578 
L 337.662229 -136.025214 
L 332.00214 -137.162329 
L 326.34205 -138.513902 
L 320.681961 -140.65114 
L 315.021871 -142.952421 
L 309.361782 -144.624152 
L 303.701692 -145.767733 
L 298.041603 -146.909313 
L 292.381513 -148.058254 
L 286.721424 -148.932968 
L 281.061334 -149.700758 
L 275.401245 -150.75386 
L 269.741155 -151.921187 
L 264.081066 -152.730207 
L 258.420976 -153.286219 
L 252.760887 -154.090961 
L 247.100797 -155.166216 
L 241.440708 -156.035874 
L 235.780618 -156.53879 
L 230.120529 -156.932364 
L 224.460439 -157.241548 
L 218.80035 -157.349363 
L 213.14026 -157.405262 
L 207.480171 -157.612891 
L 201.820081 -157.955948 
L 196.159992 -158.304157 
L 190.499902 -158.513656 
L 184.839813 -158.590867 
L 179.179723 -158.7006 
L 173.519634 -158.94083 
L 167.859544 -159.25701 
L 162.199455 -159.425581 
L 156.539365 -159.216144 
L 150.879276 -158.844942 
L 145.219186 -158.895416 
L 139.559097 -159.359 
L 133.899007 -159.722339 
z
" id="m11302da5b7" style="stroke:#4c4c4c;stroke-width:1.5;"/>
    </defs>
    <g clip-path="url(#p354e25e296)">
     <use style="fill:#2020df;stroke:#4c4c4c;stroke-width:1.5;" x="0" xlink:href="#m11302da5b7" y="401.88375"/>
    </g>
   </g>
   <g id="PolyCollection_4">
    <defs>
     <path d="M 133.927872 -78.133584 
L 133.927872 -78.518916 
L 139.587378 -79.006399 
L 145.246884 -79.62586 
L 150.906391 -79.682179 
L 156.565897 -79.162125 
L 162.225404 -78.85205 
L 167.88491 -79.051604 
L 173.544416 -79.462361 
L 179.203923 -79.801066 
L 184.863429 -79.989162 
L 190.522935 -80.07161 
L 196.182442 -80.222317 
L 201.841948 -80.562141 
L 207.501455 -80.998795 
L 213.160961 -81.327207 
L 218.820467 -81.452923 
L 224.479974 -81.540534 
L 230.13948 -81.756573 
L 235.798986 -82.069181 
L 241.458493 -82.564711 
L 247.117999 -83.517371 
L 252.777506 -84.80595 
L 258.437012 -85.96576 
L 264.096518 -86.861429 
L 269.756025 -87.766083 
L 275.415531 -88.756709 
L 281.075038 -89.597662 
L 286.734544 -90.295176 
L 292.39405 -91.098484 
L 298.053557 -91.968603 
L 303.713063 -92.836329 
L 309.372569 -94.215182 
L 315.032076 -96.648652 
L 320.691582 -99.676558 
L 326.351089 -102.030207 
L 332.010595 -103.243288 
L 337.670101 -104.447344 
L 343.329608 -106.287134 
L 348.989114 -107.686837 
L 354.64862 -108.166889 
L 360.308127 -108.852287 
L 365.967633 -109.782077 
L 371.62714 -109.981435 
L 377.286646 -109.639356 
L 382.946152 -109.27079 
L 388.605659 -108.991763 
L 394.265165 -108.299148 
L 399.924672 -107.186535 
L 405.584178 -107.670747 
L 411.243684 -109.583311 
L 416.903191 -108.764646 
L 422.562697 -104.944659 
L 428.222203 -101.921267 
L 433.88171 -100.598269 
L 439.541216 -99.793558 
L 445.200723 -98.854272 
L 450.860229 -97.529497 
L 456.519735 -95.600682 
L 462.179242 -93.368301 
L 467.838748 -91.569532 
L 473.498255 -90.391644 
L 479.157761 -89.508586 
L 484.817267 -88.74715 
L 490.476774 -88.15177 
L 496.13628 -87.70986 
L 501.795786 -87.285131 
L 507.455293 -86.711947 
L 513.114799 -86.062757 
L 518.774306 -85.529852 
L 524.433812 -85.079876 
L 530.093318 -84.591278 
L 535.752825 -84.096857 
L 541.412331 -83.688035 
L 547.071837 -83.268848 
L 552.731344 -82.69385 
L 558.39085 -82.124715 
L 564.050357 -81.86311 
L 569.709863 -81.818754 
L 575.369369 -81.633768 
L 581.028876 -81.311641 
L 586.688382 -81.110749 
L 592.347889 -80.932284 
L 598.007395 -80.662631 
L 603.666901 -80.500675 
L 609.326408 -80.458236 
L 614.985914 -80.395986 
L 620.64542 -80.278536 
L 626.304927 -80.038065 
L 631.964433 -79.636117 
L 637.62394 -79.210216 
L 643.283446 -78.928695 
L 648.942952 -78.787551 
L 654.602459 -78.669434 
L 660.261965 -78.556791 
L 665.921471 -78.504484 
L 671.580978 -78.49649 
L 677.240484 -78.4824 
L 682.899991 -78.437586 
L 688.559497 -78.378093 
L 694.219003 -78.340345 
L 694.219003 -78.312155 
L 694.219003 -78.312155 
L 688.559497 -78.274407 
L 682.899991 -78.214914 
L 677.240484 -78.1701 
L 671.580978 -78.15601 
L 665.921471 -78.148016 
L 660.261965 -78.095709 
L 654.602459 -77.983066 
L 648.942952 -77.864949 
L 643.283446 -77.723805 
L 637.62394 -77.442284 
L 631.964433 -77.016383 
L 626.304927 -76.614435 
L 620.64542 -76.373964 
L 614.985914 -76.256514 
L 609.326408 -76.194264 
L 603.666901 -76.151825 
L 598.007395 -75.989869 
L 592.347889 -75.720216 
L 586.688382 -75.541751 
L 581.028876 -75.340859 
L 575.369369 -75.018732 
L 569.709863 -74.833746 
L 564.050357 -74.78939 
L 558.39085 -74.527785 
L 552.731344 -73.95865 
L 547.071837 -73.383652 
L 541.412331 -72.964465 
L 535.752825 -72.555643 
L 530.093318 -72.061222 
L 524.433812 -71.572624 
L 518.774306 -71.122648 
L 513.114799 -70.589743 
L 507.455293 -69.940553 
L 501.795786 -69.367369 
L 496.13628 -68.94264 
L 490.476774 -68.50073 
L 484.817267 -67.90535 
L 479.157761 -67.143914 
L 473.498255 -66.260856 
L 467.838748 -65.082968 
L 462.179242 -63.284199 
L 456.519735 -61.051818 
L 450.860229 -59.123003 
L 445.200723 -57.798228 
L 439.541216 -56.858942 
L 433.88171 -56.054231 
L 428.222203 -54.731233 
L 422.562697 -51.707841 
L 416.903191 -47.887854 
L 411.243684 -47.069189 
L 405.584178 -48.981753 
L 399.924672 -49.465965 
L 394.265165 -48.353352 
L 388.605659 -47.660737 
L 382.946152 -47.38171 
L 377.286646 -47.013144 
L 371.62714 -46.671065 
L 365.967633 -46.870423 
L 360.308127 -47.800213 
L 354.64862 -48.485611 
L 348.989114 -48.965663 
L 343.329608 -50.365366 
L 337.670101 -52.205156 
L 332.010595 -53.409212 
L 326.351089 -54.622293 
L 320.691582 -56.975942 
L 315.032076 -60.003848 
L 309.372569 -62.437318 
L 303.713063 -63.816171 
L 298.053557 -64.683897 
L 292.39405 -65.554016 
L 286.734544 -66.357324 
L 281.075038 -67.054838 
L 275.415531 -67.895791 
L 269.756025 -68.886417 
L 264.096518 -69.791071 
L 258.437012 -70.68674 
L 252.777506 -71.84655 
L 247.117999 -73.135129 
L 241.458493 -74.087789 
L 235.798986 -74.583319 
L 230.13948 -74.895927 
L 224.479974 -75.111966 
L 218.820467 -75.199577 
L 213.160961 -75.325293 
L 207.501455 -75.653705 
L 201.841948 -76.090359 
L 196.182442 -76.430183 
L 190.522935 -76.58089 
L 184.863429 -76.663338 
L 179.203923 -76.851434 
L 173.544416 -77.190139 
L 167.88491 -77.600896 
L 162.225404 -77.80045 
L 156.565897 -77.490375 
L 150.906391 -76.970321 
L 145.246884 -77.02664 
L 139.587378 -77.646101 
L 133.927872 -78.133584 
z
" id="m2028d8ccdd" style="stroke:#4c4c4c;stroke-width:1.5;"/>
    </defs>
    <g clip-path="url(#p354e25e296)">
     <use style="fill:#2020df;stroke:#4c4c4c;stroke-width:1.5;" x="0" xlink:href="#m2028d8ccdd" y="401.88375"/>
    </g>
   </g>
   <g id="matplotlib.axis_1">
    <g id="xtick_1">
     <g id="line2d_1">
      <defs>
       <path d="M 0 0 
L 0 3.5 
" id="m8a3bc9efd4" style="stroke:#000000;stroke-width:0.8;"/>
      </defs>
      <g>
       <use style="stroke:#000000;stroke-width:0.8;" x="148.359152" xlink:href="#m8a3bc9efd4" y="364.3275"/>
      </g>
     </g>
     <g id="text_1">
      <!-- 1.00 -->
      <defs>
       <path d="M 12.40625 8.296875 
L 28.515625 8.296875 
L 28.515625 63.921875 
L 10.984375 60.40625 
L 10.984375 69.390625 
L 28.421875 72.90625 
L 38.28125 72.90625 
L 38.28125 8.296875 
L 54.390625 8.296875 
L 54.390625 0 
L 12.40625 0 
z
" id="DejaVuSans-49"/>
       <path d="M 10.6875 12.40625 
L 21 12.40625 
L 21 0 
L 10.6875 0 
z
" id="DejaVuSans-46"/>
       <path d="M 31.78125 66.40625 
Q 24.171875 66.40625 20.328125 58.90625 
Q 16.5 51.421875 16.5 36.375 
Q 16.5 21.390625 20.328125 13.890625 
Q 24.171875 6.390625 31.78125 6.390625 
Q 39.453125 6.390625 43.28125 13.890625 
Q 47.125 21.390625 47.125 36.375 
Q 47.125 51.421875 43.28125 58.90625 
Q 39.453125 66.40625 31.78125 66.40625 
z
M 31.78125 74.21875 
Q 44.046875 74.21875 50.515625 64.515625 
Q 56.984375 54.828125 56.984375 36.375 
Q 56.984375 17.96875 50.515625 8.265625 
Q 44.046875 -1.421875 31.78125 -1.421875 
Q 19.53125 -1.421875 13.0625 8.265625 
Q 6.59375 17.96875 6.59375 36.375 
Q 6.59375 54.828125 13.0625 64.515625 
Q 19.53125 74.21875 31.78125 74.21875 
z
" id="DejaVuSans-48"/>
      </defs>
      <g transform="translate(137.226339 378.925937)scale(0.1 -0.1)">
       <use xlink:href="#DejaVuSans-49"/>
       <use x="63.623047" xlink:href="#DejaVuSans-46"/>
       <use x="95.410156" xlink:href="#DejaVuSans-48"/>
       <use x="159.033203" xlink:href="#DejaVuSans-48"/>
      </g>
     </g>
    </g>
    <g id="xtick_2">
     <g id="line2d_2">
      <g>
       <use style="stroke:#000000;stroke-width:0.8;" x="214.787723" xlink:href="#m8a3bc9efd4" y="364.3275"/>
      </g>
     </g>
     <g id="text_2">
      <!-- 1.25 -->
      <defs>
       <path d="M 19.1875 8.296875 
L 53.609375 8.296875 
L 53.609375 0 
L 7.328125 0 
L 7.328125 8.296875 
Q 12.9375 14.109375 22.625 23.890625 
Q 32.328125 33.6875 34.8125 36.53125 
Q 39.546875 41.84375 41.421875 45.53125 
Q 43.3125 49.21875 43.3125 52.78125 
Q 43.3125 58.59375 39.234375 62.25 
Q 35.15625 65.921875 28.609375 65.921875 
Q 23.96875 65.921875 18.8125 64.3125 
Q 13.671875 62.703125 7.8125 59.421875 
L 7.8125 69.390625 
Q 13.765625 71.78125 18.9375 73 
Q 24.125 74.21875 28.421875 74.21875 
Q 39.75 74.21875 46.484375 68.546875 
Q 53.21875 62.890625 53.21875 53.421875 
Q 53.21875 48.921875 51.53125 44.890625 
Q 49.859375 40.875 45.40625 35.40625 
Q 44.1875 33.984375 37.640625 27.21875 
Q 31.109375 20.453125 19.1875 8.296875 
z
" id="DejaVuSans-50"/>
       <path d="M 10.796875 72.90625 
L 49.515625 72.90625 
L 49.515625 64.59375 
L 19.828125 64.59375 
L 19.828125 46.734375 
Q 21.96875 47.46875 24.109375 47.828125 
Q 26.265625 48.1875 28.421875 48.1875 
Q 40.625 48.1875 47.75 41.5 
Q 54.890625 34.8125 54.890625 23.390625 
Q 54.890625 11.625 47.5625 5.09375 
Q 40.234375 -1.421875 26.90625 -1.421875 
Q 22.3125 -1.421875 17.546875 -0.640625 
Q 12.796875 0.140625 7.71875 1.703125 
L 7.71875 11.625 
Q 12.109375 9.234375 16.796875 8.0625 
Q 21.484375 6.890625 26.703125 6.890625 
Q 35.15625 6.890625 40.078125 11.328125 
Q 45.015625 15.765625 45.015625 23.390625 
Q 45.015625 31 40.078125 35.4375 
Q 35.15625 39.890625 26.703125 39.890625 
Q 22.75 39.890625 18.8125 39.015625 
Q 14.890625 38.140625 10.796875 36.28125 
z
" id="DejaVuSans-53"/>
      </defs>
      <g transform="translate(203.654911 378.925937)scale(0.1 -0.1)">
       <use xlink:href="#DejaVuSans-49"/>
       <use x="63.623047" xlink:href="#DejaVuSans-46"/>
       <use x="95.410156" xlink:href="#DejaVuSans-50"/>
       <use x="159.033203" xlink:href="#DejaVuSans-53"/>
      </g>
     </g>
    </g>
    <g id="xtick_3">
     <g id="line2d_3">
      <g>
       <use style="stroke:#000000;stroke-width:0.8;" x="281.216295" xlink:href="#m8a3bc9efd4" y="364.3275"/>
      </g>
     </g>
     <g id="text_3">
      <!-- 1.50 -->
      <g transform="translate(270.083482 378.925937)scale(0.1 -0.1)">
       <use xlink:href="#DejaVuSans-49"/>
       <use x="63.623047" xlink:href="#DejaVuSans-46"/>
       <use x="95.410156" xlink:href="#DejaVuSans-53"/>
       <use x="159.033203" xlink:href="#DejaVuSans-48"/>
      </g>
     </g>
    </g>
    <g id="xtick_4">
     <g id="line2d_4">
      <g>
       <use style="stroke:#000000;stroke-width:0.8;" x="347.644866" xlink:href="#m8a3bc9efd4" y="364.3275"/>
      </g>
     </g>
     <g id="text_4">
      <!-- 1.75 -->
      <defs>
       <path d="M 8.203125 72.90625 
L 55.078125 72.90625 
L 55.078125 68.703125 
L 28.609375 0 
L 18.3125 0 
L 43.21875 64.59375 
L 8.203125 64.59375 
z
" id="DejaVuSans-55"/>
      </defs>
      <g transform="translate(336.512054 378.925937)scale(0.1 -0.1)">
       <use xlink:href="#DejaVuSans-49"/>
       <use x="63.623047" xlink:href="#DejaVuSans-46"/>
       <use x="95.410156" xlink:href="#DejaVuSans-55"/>
       <use x="159.033203" xlink:href="#DejaVuSans-53"/>
      </g>
     </g>
    </g>
    <g id="xtick_5">
     <g id="line2d_5">
      <g>
       <use style="stroke:#000000;stroke-width:0.8;" x="414.073438" xlink:href="#m8a3bc9efd4" y="364.3275"/>
      </g>
     </g>
     <g id="text_5">
      <!-- 2.00 -->
      <g transform="translate(402.940625 378.925937)scale(0.1 -0.1)">
       <use xlink:href="#DejaVuSans-50"/>
       <use x="63.623047" xlink:href="#DejaVuSans-46"/>
       <use x="95.410156" xlink:href="#DejaVuSans-48"/>
       <use x="159.033203" xlink:href="#DejaVuSans-48"/>
      </g>
     </g>
    </g>
    <g id="xtick_6">
     <g id="line2d_6">
      <g>
       <use style="stroke:#000000;stroke-width:0.8;" x="480.502009" xlink:href="#m8a3bc9efd4" y="364.3275"/>
      </g>
     </g>
     <g id="text_6">
      <!-- 2.25 -->
      <g transform="translate(469.369196 378.925937)scale(0.1 -0.1)">
       <use xlink:href="#DejaVuSans-50"/>
       <use x="63.623047" xlink:href="#DejaVuSans-46"/>
       <use x="95.410156" xlink:href="#DejaVuSans-50"/>
       <use x="159.033203" xlink:href="#DejaVuSans-53"/>
      </g>
     </g>
    </g>
    <g id="xtick_7">
     <g id="line2d_7">
      <g>
       <use style="stroke:#000000;stroke-width:0.8;" x="546.93058" xlink:href="#m8a3bc9efd4" y="364.3275"/>
      </g>
     </g>
     <g id="text_7">
      <!-- 2.50 -->
      <g transform="translate(535.797768 378.925937)scale(0.1 -0.1)">
       <use xlink:href="#DejaVuSans-50"/>
       <use x="63.623047" xlink:href="#DejaVuSans-46"/>
       <use x="95.410156" xlink:href="#DejaVuSans-53"/>
       <use x="159.033203" xlink:href="#DejaVuSans-48"/>
      </g>
     </g>
    </g>
    <g id="xtick_8">
     <g id="line2d_8">
      <g>
       <use style="stroke:#000000;stroke-width:0.8;" x="613.359152" xlink:href="#m8a3bc9efd4" y="364.3275"/>
      </g>
     </g>
     <g id="text_8">
      <!-- 2.75 -->
      <g transform="translate(602.226339 378.925937)scale(0.1 -0.1)">
       <use xlink:href="#DejaVuSans-50"/>
       <use x="63.623047" xlink:href="#DejaVuSans-46"/>
       <use x="95.410156" xlink:href="#DejaVuSans-55"/>
       <use x="159.033203" xlink:href="#DejaVuSans-53"/>
      </g>
     </g>
    </g>
    <g id="xtick_9">
     <g id="line2d_9">
      <g>
       <use style="stroke:#000000;stroke-width:0.8;" x="679.787723" xlink:href="#m8a3bc9efd4" y="364.3275"/>
      </g>
     </g>
     <g id="text_9">
      <!-- 3.00 -->
      <defs>
       <path d="M 40.578125 39.3125 
Q 47.65625 37.796875 51.625 33 
Q 55.609375 28.21875 55.609375 21.1875 
Q 55.609375 10.40625 48.1875 4.484375 
Q 40.765625 -1.421875 27.09375 -1.421875 
Q 22.515625 -1.421875 17.65625 -0.515625 
Q 12.796875 0.390625 7.625 2.203125 
L 7.625 11.71875 
Q 11.71875 9.328125 16.59375 8.109375 
Q 21.484375 6.890625 26.8125 6.890625 
Q 36.078125 6.890625 40.9375 10.546875 
Q 45.796875 14.203125 45.796875 21.1875 
Q 45.796875 27.640625 41.28125 31.265625 
Q 36.765625 34.90625 28.71875 34.90625 
L 20.21875 34.90625 
L 20.21875 43.015625 
L 29.109375 43.015625 
Q 36.375 43.015625 40.234375 45.921875 
Q 44.09375 48.828125 44.09375 54.296875 
Q 44.09375 59.90625 40.109375 62.90625 
Q 36.140625 65.921875 28.71875 65.921875 
Q 24.65625 65.921875 20.015625 65.03125 
Q 15.375 64.15625 9.8125 62.3125 
L 9.8125 71.09375 
Q 15.4375 72.65625 20.34375 73.4375 
Q 25.25 74.21875 29.59375 74.21875 
Q 40.828125 74.21875 47.359375 69.109375 
Q 53.90625 64.015625 53.90625 55.328125 
Q 53.90625 49.265625 50.4375 45.09375 
Q 46.96875 40.921875 40.578125 39.3125 
z
" id="DejaVuSans-51"/>
      </defs>
      <g transform="translate(668.654911 378.925937)scale(0.1 -0.1)">
       <use xlink:href="#DejaVuSans-51"/>
       <use x="63.623047" xlink:href="#DejaVuSans-46"/>
       <use x="95.410156" xlink:href="#DejaVuSans-48"/>
       <use x="159.033203" xlink:href="#DejaVuSans-48"/>
      </g>
     </g>
    </g>
    <g id="text_10">
     <!-- Índice socioeconómico -->
     <defs>
      <path d="M 9.8125 72.90625 
L 19.671875 72.90625 
L 19.671875 0 
L 9.8125 0 
z
M 17.484375 92.734375 
L 26.515625 92.734375 
L 15.375 79.84375 
L 7.90625 79.84375 
z
" id="DejaVuSans-205"/>
      <path d="M 54.890625 33.015625 
L 54.890625 0 
L 45.90625 0 
L 45.90625 32.71875 
Q 45.90625 40.484375 42.875 44.328125 
Q 39.84375 48.1875 33.796875 48.1875 
Q 26.515625 48.1875 22.3125 43.546875 
Q 18.109375 38.921875 18.109375 30.90625 
L 18.109375 0 
L 9.078125 0 
L 9.078125 54.6875 
L 18.109375 54.6875 
L 18.109375 46.1875 
Q 21.34375 51.125 25.703125 53.5625 
Q 30.078125 56 35.796875 56 
Q 45.21875 56 50.046875 50.171875 
Q 54.890625 44.34375 54.890625 33.015625 
z
" id="DejaVuSans-110"/>
      <path d="M 45.40625 46.390625 
L 45.40625 75.984375 
L 54.390625 75.984375 
L 54.390625 0 
L 45.40625 0 
L 45.40625 8.203125 
Q 42.578125 3.328125 38.25 0.953125 
Q 33.9375 -1.421875 27.875 -1.421875 
Q 17.96875 -1.421875 11.734375 6.484375 
Q 5.515625 14.40625 5.515625 27.296875 
Q 5.515625 40.1875 11.734375 48.09375 
Q 17.96875 56 27.875 56 
Q 33.9375 56 38.25 53.625 
Q 42.578125 51.265625 45.40625 46.390625 
z
M 14.796875 27.296875 
Q 14.796875 17.390625 18.875 11.75 
Q 22.953125 6.109375 30.078125 6.109375 
Q 37.203125 6.109375 41.296875 11.75 
Q 45.40625 17.390625 45.40625 27.296875 
Q 45.40625 37.203125 41.296875 42.84375 
Q 37.203125 48.484375 30.078125 48.484375 
Q 22.953125 48.484375 18.875 42.84375 
Q 14.796875 37.203125 14.796875 27.296875 
z
" id="DejaVuSans-100"/>
      <path d="M 9.421875 54.6875 
L 18.40625 54.6875 
L 18.40625 0 
L 9.421875 0 
z
M 9.421875 75.984375 
L 18.40625 75.984375 
L 18.40625 64.59375 
L 9.421875 64.59375 
z
" id="DejaVuSans-105"/>
      <path d="M 48.78125 52.59375 
L 48.78125 44.1875 
Q 44.96875 46.296875 41.140625 47.34375 
Q 37.3125 48.390625 33.40625 48.390625 
Q 24.65625 48.390625 19.8125 42.84375 
Q 14.984375 37.3125 14.984375 27.296875 
Q 14.984375 17.28125 19.8125 11.734375 
Q 24.65625 6.203125 33.40625 6.203125 
Q 37.3125 6.203125 41.140625 7.25 
Q 44.96875 8.296875 48.78125 10.40625 
L 48.78125 2.09375 
Q 45.015625 0.34375 40.984375 -0.53125 
Q 36.96875 -1.421875 32.421875 -1.421875 
Q 20.0625 -1.421875 12.78125 6.34375 
Q 5.515625 14.109375 5.515625 27.296875 
Q 5.515625 40.671875 12.859375 48.328125 
Q 20.21875 56 33.015625 56 
Q 37.15625 56 41.109375 55.140625 
Q 45.0625 54.296875 48.78125 52.59375 
z
" id="DejaVuSans-99"/>
      <path d="M 56.203125 29.59375 
L 56.203125 25.203125 
L 14.890625 25.203125 
Q 15.484375 15.921875 20.484375 11.0625 
Q 25.484375 6.203125 34.421875 6.203125 
Q 39.59375 6.203125 44.453125 7.46875 
Q 49.3125 8.734375 54.109375 11.28125 
L 54.109375 2.78125 
Q 49.265625 0.734375 44.1875 -0.34375 
Q 39.109375 -1.421875 33.890625 -1.421875 
Q 20.796875 -1.421875 13.15625 6.1875 
Q 5.515625 13.8125 5.515625 26.8125 
Q 5.515625 40.234375 12.765625 48.109375 
Q 20.015625 56 32.328125 56 
Q 43.359375 56 49.78125 48.890625 
Q 56.203125 41.796875 56.203125 29.59375 
z
M 47.21875 32.234375 
Q 47.125 39.59375 43.09375 43.984375 
Q 39.0625 48.390625 32.421875 48.390625 
Q 24.90625 48.390625 20.390625 44.140625 
Q 15.875 39.890625 15.1875 32.171875 
z
" id="DejaVuSans-101"/>
      <path id="DejaVuSans-32"/>
      <path d="M 44.28125 53.078125 
L 44.28125 44.578125 
Q 40.484375 46.53125 36.375 47.5 
Q 32.28125 48.484375 27.875 48.484375 
Q 21.1875 48.484375 17.84375 46.4375 
Q 14.5 44.390625 14.5 40.28125 
Q 14.5 37.15625 16.890625 35.375 
Q 19.28125 33.59375 26.515625 31.984375 
L 29.59375 31.296875 
Q 39.15625 29.25 43.1875 25.515625 
Q 47.21875 21.78125 47.21875 15.09375 
Q 47.21875 7.46875 41.1875 3.015625 
Q 35.15625 -1.421875 24.609375 -1.421875 
Q 20.21875 -1.421875 15.453125 -0.5625 
Q 10.6875 0.296875 5.421875 2 
L 5.421875 11.28125 
Q 10.40625 8.6875 15.234375 7.390625 
Q 20.0625 6.109375 24.8125 6.109375 
Q 31.15625 6.109375 34.5625 8.28125 
Q 37.984375 10.453125 37.984375 14.40625 
Q 37.984375 18.0625 35.515625 20.015625 
Q 33.0625 21.96875 24.703125 23.78125 
L 21.578125 24.515625 
Q 13.234375 26.265625 9.515625 29.90625 
Q 5.8125 33.546875 5.8125 39.890625 
Q 5.8125 47.609375 11.28125 51.796875 
Q 16.75 56 26.8125 56 
Q 31.78125 56 36.171875 55.265625 
Q 40.578125 54.546875 44.28125 53.078125 
z
" id="DejaVuSans-115"/>
      <path d="M 30.609375 48.390625 
Q 23.390625 48.390625 19.1875 42.75 
Q 14.984375 37.109375 14.984375 27.296875 
Q 14.984375 17.484375 19.15625 11.84375 
Q 23.34375 6.203125 30.609375 6.203125 
Q 37.796875 6.203125 41.984375 11.859375 
Q 46.1875 17.53125 46.1875 27.296875 
Q 46.1875 37.015625 41.984375 42.703125 
Q 37.796875 48.390625 30.609375 48.390625 
z
M 30.609375 56 
Q 42.328125 56 49.015625 48.375 
Q 55.71875 40.765625 55.71875 27.296875 
Q 55.71875 13.875 49.015625 6.21875 
Q 42.328125 -1.421875 30.609375 -1.421875 
Q 18.84375 -1.421875 12.171875 6.21875 
Q 5.515625 13.875 5.515625 27.296875 
Q 5.515625 40.765625 12.171875 48.375 
Q 18.84375 56 30.609375 56 
z
" id="DejaVuSans-111"/>
      <path d="M 30.609375 48.390625 
Q 23.390625 48.390625 19.1875 42.75 
Q 14.984375 37.109375 14.984375 27.296875 
Q 14.984375 17.484375 19.15625 11.84375 
Q 23.34375 6.203125 30.609375 6.203125 
Q 37.796875 6.203125 41.984375 11.859375 
Q 46.1875 17.53125 46.1875 27.296875 
Q 46.1875 37.015625 41.984375 42.703125 
Q 37.796875 48.390625 30.609375 48.390625 
z
M 30.609375 56 
Q 42.328125 56 49.015625 48.375 
Q 55.71875 40.765625 55.71875 27.296875 
Q 55.71875 13.875 49.015625 6.21875 
Q 42.328125 -1.421875 30.609375 -1.421875 
Q 18.84375 -1.421875 12.171875 6.21875 
Q 5.515625 13.875 5.515625 27.296875 
Q 5.515625 40.765625 12.171875 48.375 
Q 18.84375 56 30.609375 56 
z
M 37.40625 79.984375 
L 47.125 79.984375 
L 31.203125 61.625 
L 23.734375 61.625 
z
" id="DejaVuSans-243"/>
      <path d="M 52 44.1875 
Q 55.375 50.25 60.0625 53.125 
Q 64.75 56 71.09375 56 
Q 79.640625 56 84.28125 50.015625 
Q 88.921875 44.046875 88.921875 33.015625 
L 88.921875 0 
L 79.890625 0 
L 79.890625 32.71875 
Q 79.890625 40.578125 77.09375 44.375 
Q 74.3125 48.1875 68.609375 48.1875 
Q 61.625 48.1875 57.5625 43.546875 
Q 53.515625 38.921875 53.515625 30.90625 
L 53.515625 0 
L 44.484375 0 
L 44.484375 32.71875 
Q 44.484375 40.625 41.703125 44.40625 
Q 38.921875 48.1875 33.109375 48.1875 
Q 26.21875 48.1875 22.15625 43.53125 
Q 18.109375 38.875 18.109375 30.90625 
L 18.109375 0 
L 9.078125 0 
L 9.078125 54.6875 
L 18.109375 54.6875 
L 18.109375 46.1875 
Q 21.1875 51.21875 25.484375 53.609375 
Q 29.78125 56 35.6875 56 
Q 41.65625 56 45.828125 52.96875 
Q 50 49.953125 52 44.1875 
z
" id="DejaVuSans-109"/>
     </defs>
     <g transform="translate(357.408594 392.604062)scale(0.1 -0.1)">
      <use xlink:href="#DejaVuSans-205"/>
      <use x="29.492188" xlink:href="#DejaVuSans-110"/>
      <use x="92.871094" xlink:href="#DejaVuSans-100"/>
      <use x="156.347656" xlink:href="#DejaVuSans-105"/>
      <use x="184.130859" xlink:href="#DejaVuSans-99"/>
      <use x="239.111328" xlink:href="#DejaVuSans-101"/>
      <use x="300.634766" xlink:href="#DejaVuSans-32"/>
      <use x="332.421875" xlink:href="#DejaVuSans-115"/>
      <use x="384.521484" xlink:href="#DejaVuSans-111"/>
      <use x="445.703125" xlink:href="#DejaVuSans-99"/>
      <use x="500.683594" xlink:href="#DejaVuSans-105"/>
      <use x="528.466797" xlink:href="#DejaVuSans-111"/>
      <use x="589.648438" xlink:href="#DejaVuSans-101"/>
      <use x="651.171875" xlink:href="#DejaVuSans-99"/>
      <use x="706.152344" xlink:href="#DejaVuSans-111"/>
      <use x="767.333984" xlink:href="#DejaVuSans-110"/>
      <use x="830.712891" xlink:href="#DejaVuSans-243"/>
      <use x="891.894531" xlink:href="#DejaVuSans-109"/>
      <use x="989.306641" xlink:href="#DejaVuSans-105"/>
      <use x="1017.089844" xlink:href="#DejaVuSans-99"/>
      <use x="1072.070312" xlink:href="#DejaVuSans-111"/>
     </g>
    </g>
   </g>
   <g id="matplotlib.axis_2">
    <g id="ytick_1">
     <g id="line2d_10">
      <defs>
       <path d="M 0 0 
L -3.5 0 
" id="m78f227bcbb" style="stroke:#000000;stroke-width:0.8;"/>
      </defs>
      <g>
       <use style="stroke:#000000;stroke-width:0.8;" x="135.073438" xlink:href="#m78f227bcbb" y="78.9375"/>
      </g>
     </g>
     <g id="text_11">
      <!-- Avanzado -->
      <defs>
       <path d="M 34.1875 63.1875 
L 20.796875 26.90625 
L 47.609375 26.90625 
z
M 28.609375 72.90625 
L 39.796875 72.90625 
L 67.578125 0 
L 57.328125 0 
L 50.6875 18.703125 
L 17.828125 18.703125 
L 11.1875 0 
L 0.78125 0 
z
" id="DejaVuSans-65"/>
       <path d="M 2.984375 54.6875 
L 12.5 54.6875 
L 29.59375 8.796875 
L 46.6875 54.6875 
L 56.203125 54.6875 
L 35.6875 0 
L 23.484375 0 
z
" id="DejaVuSans-118"/>
       <path d="M 34.28125 27.484375 
Q 23.390625 27.484375 19.1875 25 
Q 14.984375 22.515625 14.984375 16.5 
Q 14.984375 11.71875 18.140625 8.90625 
Q 21.296875 6.109375 26.703125 6.109375 
Q 34.1875 6.109375 38.703125 11.40625 
Q 43.21875 16.703125 43.21875 25.484375 
L 43.21875 27.484375 
z
M 52.203125 31.203125 
L 52.203125 0 
L 43.21875 0 
L 43.21875 8.296875 
Q 40.140625 3.328125 35.546875 0.953125 
Q 30.953125 -1.421875 24.3125 -1.421875 
Q 15.921875 -1.421875 10.953125 3.296875 
Q 6 8.015625 6 15.921875 
Q 6 25.140625 12.171875 29.828125 
Q 18.359375 34.515625 30.609375 34.515625 
L 43.21875 34.515625 
L 43.21875 35.40625 
Q 43.21875 41.609375 39.140625 45 
Q 35.0625 48.390625 27.6875 48.390625 
Q 23 48.390625 18.546875 47.265625 
Q 14.109375 46.140625 10.015625 43.890625 
L 10.015625 52.203125 
Q 14.9375 54.109375 19.578125 55.046875 
Q 24.21875 56 28.609375 56 
Q 40.484375 56 46.34375 49.84375 
Q 52.203125 43.703125 52.203125 31.203125 
z
" id="DejaVuSans-97"/>
       <path d="M 5.515625 54.6875 
L 48.1875 54.6875 
L 48.1875 46.484375 
L 14.40625 7.171875 
L 48.1875 7.171875 
L 48.1875 0 
L 4.296875 0 
L 4.296875 8.203125 
L 38.09375 47.515625 
L 5.515625 47.515625 
z
" id="DejaVuSans-122"/>
      </defs>
      <g transform="translate(79.0125 82.736719)scale(0.1 -0.1)">
       <use xlink:href="#DejaVuSans-65"/>
       <use x="68.330078" xlink:href="#DejaVuSans-118"/>
       <use x="127.509766" xlink:href="#DejaVuSans-97"/>
       <use x="188.789062" xlink:href="#DejaVuSans-110"/>
       <use x="252.167969" xlink:href="#DejaVuSans-122"/>
       <use x="304.658203" xlink:href="#DejaVuSans-97"/>
       <use x="365.9375" xlink:href="#DejaVuSans-100"/>
       <use x="429.414062" xlink:href="#DejaVuSans-111"/>
      </g>
     </g>
    </g>
    <g id="ytick_2">
     <g id="line2d_11">
      <g>
       <use style="stroke:#000000;stroke-width:0.8;" x="135.073438" xlink:href="#m78f227bcbb" y="160.4775"/>
      </g>
     </g>
     <g id="text_12">
      <!-- Satisfactorio -->
      <defs>
       <path d="M 53.515625 70.515625 
L 53.515625 60.890625 
Q 47.90625 63.578125 42.921875 64.890625 
Q 37.9375 66.21875 33.296875 66.21875 
Q 25.25 66.21875 20.875 63.09375 
Q 16.5 59.96875 16.5 54.203125 
Q 16.5 49.359375 19.40625 46.890625 
Q 22.3125 44.4375 30.421875 42.921875 
L 36.375 41.703125 
Q 47.40625 39.59375 52.65625 34.296875 
Q 57.90625 29 57.90625 20.125 
Q 57.90625 9.515625 50.796875 4.046875 
Q 43.703125 -1.421875 29.984375 -1.421875 
Q 24.8125 -1.421875 18.96875 -0.25 
Q 13.140625 0.921875 6.890625 3.21875 
L 6.890625 13.375 
Q 12.890625 10.015625 18.65625 8.296875 
Q 24.421875 6.59375 29.984375 6.59375 
Q 38.421875 6.59375 43.015625 9.90625 
Q 47.609375 13.234375 47.609375 19.390625 
Q 47.609375 24.75 44.3125 27.78125 
Q 41.015625 30.8125 33.5 32.328125 
L 27.484375 33.5 
Q 16.453125 35.6875 11.515625 40.375 
Q 6.59375 45.0625 6.59375 53.421875 
Q 6.59375 63.09375 13.40625 68.65625 
Q 20.21875 74.21875 32.171875 74.21875 
Q 37.3125 74.21875 42.625 73.28125 
Q 47.953125 72.359375 53.515625 70.515625 
z
" id="DejaVuSans-83"/>
       <path d="M 18.3125 70.21875 
L 18.3125 54.6875 
L 36.8125 54.6875 
L 36.8125 47.703125 
L 18.3125 47.703125 
L 18.3125 18.015625 
Q 18.3125 11.328125 20.140625 9.421875 
Q 21.96875 7.515625 27.59375 7.515625 
L 36.8125 7.515625 
L 36.8125 0 
L 27.59375 0 
Q 17.1875 0 13.234375 3.875 
Q 9.28125 7.765625 9.28125 18.015625 
L 9.28125 47.703125 
L 2.6875 47.703125 
L 2.6875 54.6875 
L 9.28125 54.6875 
L 9.28125 70.21875 
z
" id="DejaVuSans-116"/>
       <path d="M 37.109375 75.984375 
L 37.109375 68.5 
L 28.515625 68.5 
Q 23.6875 68.5 21.796875 66.546875 
Q 19.921875 64.59375 19.921875 59.515625 
L 19.921875 54.6875 
L 34.71875 54.6875 
L 34.71875 47.703125 
L 19.921875 47.703125 
L 19.921875 0 
L 10.890625 0 
L 10.890625 47.703125 
L 2.296875 47.703125 
L 2.296875 54.6875 
L 10.890625 54.6875 
L 10.890625 58.5 
Q 10.890625 67.625 15.140625 71.796875 
Q 19.390625 75.984375 28.609375 75.984375 
z
" id="DejaVuSans-102"/>
       <path d="M 41.109375 46.296875 
Q 39.59375 47.171875 37.8125 47.578125 
Q 36.03125 48 33.890625 48 
Q 26.265625 48 22.1875 43.046875 
Q 18.109375 38.09375 18.109375 28.8125 
L 18.109375 0 
L 9.078125 0 
L 9.078125 54.6875 
L 18.109375 54.6875 
L 18.109375 46.1875 
Q 20.953125 51.171875 25.484375 53.578125 
Q 30.03125 56 36.53125 56 
Q 37.453125 56 38.578125 55.875 
Q 39.703125 55.765625 41.0625 55.515625 
z
" id="DejaVuSans-114"/>
      </defs>
      <g transform="translate(65.495313 164.276719)scale(0.1 -0.1)">
       <use xlink:href="#DejaVuSans-83"/>
       <use x="63.476562" xlink:href="#DejaVuSans-97"/>
       <use x="124.755859" xlink:href="#DejaVuSans-116"/>
       <use x="163.964844" xlink:href="#DejaVuSans-105"/>
       <use x="191.748047" xlink:href="#DejaVuSans-115"/>
       <use x="243.847656" xlink:href="#DejaVuSans-102"/>
       <use x="279.052734" xlink:href="#DejaVuSans-97"/>
       <use x="340.332031" xlink:href="#DejaVuSans-99"/>
       <use x="395.3125" xlink:href="#DejaVuSans-116"/>
       <use x="434.521484" xlink:href="#DejaVuSans-111"/>
       <use x="495.703125" xlink:href="#DejaVuSans-114"/>
       <use x="536.816406" xlink:href="#DejaVuSans-105"/>
       <use x="564.599609" xlink:href="#DejaVuSans-111"/>
      </g>
     </g>
    </g>
    <g id="ytick_3">
     <g id="line2d_12">
      <g>
       <use style="stroke:#000000;stroke-width:0.8;" x="135.073438" xlink:href="#m78f227bcbb" y="242.0175"/>
      </g>
     </g>
     <g id="text_13">
      <!-- Básico -->
      <defs>
       <path d="M 19.671875 34.8125 
L 19.671875 8.109375 
L 35.5 8.109375 
Q 43.453125 8.109375 47.28125 11.40625 
Q 51.125 14.703125 51.125 21.484375 
Q 51.125 28.328125 47.28125 31.5625 
Q 43.453125 34.8125 35.5 34.8125 
z
M 19.671875 64.796875 
L 19.671875 42.828125 
L 34.28125 42.828125 
Q 41.5 42.828125 45.03125 45.53125 
Q 48.578125 48.25 48.578125 53.8125 
Q 48.578125 59.328125 45.03125 62.0625 
Q 41.5 64.796875 34.28125 64.796875 
z
M 9.8125 72.90625 
L 35.015625 72.90625 
Q 46.296875 72.90625 52.390625 68.21875 
Q 58.5 63.53125 58.5 54.890625 
Q 58.5 48.1875 55.375 44.234375 
Q 52.25 40.28125 46.1875 39.3125 
Q 53.46875 37.75 57.5 32.78125 
Q 61.53125 27.828125 61.53125 20.40625 
Q 61.53125 10.640625 54.890625 5.3125 
Q 48.25 0 35.984375 0 
L 9.8125 0 
z
" id="DejaVuSans-66"/>
       <path d="M 34.28125 27.484375 
Q 23.390625 27.484375 19.1875 25 
Q 14.984375 22.515625 14.984375 16.5 
Q 14.984375 11.71875 18.140625 8.90625 
Q 21.296875 6.109375 26.703125 6.109375 
Q 34.1875 6.109375 38.703125 11.40625 
Q 43.21875 16.703125 43.21875 25.484375 
L 43.21875 27.484375 
z
M 52.203125 31.203125 
L 52.203125 0 
L 43.21875 0 
L 43.21875 8.296875 
Q 40.140625 3.328125 35.546875 0.953125 
Q 30.953125 -1.421875 24.3125 -1.421875 
Q 15.921875 -1.421875 10.953125 3.296875 
Q 6 8.015625 6 15.921875 
Q 6 25.140625 12.171875 29.828125 
Q 18.359375 34.515625 30.609375 34.515625 
L 43.21875 34.515625 
L 43.21875 35.40625 
Q 43.21875 41.609375 39.140625 45 
Q 35.0625 48.390625 27.6875 48.390625 
Q 23 48.390625 18.546875 47.265625 
Q 14.109375 46.140625 10.015625 43.890625 
L 10.015625 52.203125 
Q 14.9375 54.109375 19.578125 55.046875 
Q 24.21875 56 28.609375 56 
Q 40.484375 56 46.34375 49.84375 
Q 52.203125 43.703125 52.203125 31.203125 
z
M 35.796875 79.984375 
L 45.515625 79.984375 
L 29.59375 61.625 
L 22.125 61.625 
z
" id="DejaVuSans-225"/>
      </defs>
      <g transform="translate(95.479688 245.816719)scale(0.1 -0.1)">
       <use xlink:href="#DejaVuSans-66"/>
       <use x="68.603516" xlink:href="#DejaVuSans-225"/>
       <use x="129.882812" xlink:href="#DejaVuSans-115"/>
       <use x="181.982422" xlink:href="#DejaVuSans-105"/>
       <use x="209.765625" xlink:href="#DejaVuSans-99"/>
       <use x="264.746094" xlink:href="#DejaVuSans-111"/>
      </g>
     </g>
    </g>
    <g id="ytick_4">
     <g id="line2d_13">
      <g>
       <use style="stroke:#000000;stroke-width:0.8;" x="135.073438" xlink:href="#m78f227bcbb" y="323.5575"/>
      </g>
     </g>
     <g id="text_14">
      <!-- Por debajo del básico -->
      <defs>
       <path d="M 19.671875 64.796875 
L 19.671875 37.40625 
L 32.078125 37.40625 
Q 38.96875 37.40625 42.71875 40.96875 
Q 46.484375 44.53125 46.484375 51.125 
Q 46.484375 57.671875 42.71875 61.234375 
Q 38.96875 64.796875 32.078125 64.796875 
z
M 9.8125 72.90625 
L 32.078125 72.90625 
Q 44.34375 72.90625 50.609375 67.359375 
Q 56.890625 61.8125 56.890625 51.125 
Q 56.890625 40.328125 50.609375 34.8125 
Q 44.34375 29.296875 32.078125 29.296875 
L 19.671875 29.296875 
L 19.671875 0 
L 9.8125 0 
z
" id="DejaVuSans-80"/>
       <path d="M 48.6875 27.296875 
Q 48.6875 37.203125 44.609375 42.84375 
Q 40.53125 48.484375 33.40625 48.484375 
Q 26.265625 48.484375 22.1875 42.84375 
Q 18.109375 37.203125 18.109375 27.296875 
Q 18.109375 17.390625 22.1875 11.75 
Q 26.265625 6.109375 33.40625 6.109375 
Q 40.53125 6.109375 44.609375 11.75 
Q 48.6875 17.390625 48.6875 27.296875 
z
M 18.109375 46.390625 
Q 20.953125 51.265625 25.265625 53.625 
Q 29.59375 56 35.59375 56 
Q 45.5625 56 51.78125 48.09375 
Q 58.015625 40.1875 58.015625 27.296875 
Q 58.015625 14.40625 51.78125 6.484375 
Q 45.5625 -1.421875 35.59375 -1.421875 
Q 29.59375 -1.421875 25.265625 0.953125 
Q 20.953125 3.328125 18.109375 8.203125 
L 18.109375 0 
L 9.078125 0 
L 9.078125 75.984375 
L 18.109375 75.984375 
z
" id="DejaVuSans-98"/>
       <path d="M 9.421875 54.6875 
L 18.40625 54.6875 
L 18.40625 -0.984375 
Q 18.40625 -11.421875 14.421875 -16.109375 
Q 10.453125 -20.796875 1.609375 -20.796875 
L -1.8125 -20.796875 
L -1.8125 -13.1875 
L 0.59375 -13.1875 
Q 5.71875 -13.1875 7.5625 -10.8125 
Q 9.421875 -8.453125 9.421875 -0.984375 
z
M 9.421875 75.984375 
L 18.40625 75.984375 
L 18.40625 64.59375 
L 9.421875 64.59375 
z
" id="DejaVuSans-106"/>
       <path d="M 9.421875 75.984375 
L 18.40625 75.984375 
L 18.40625 0 
L 9.421875 0 
z
" id="DejaVuSans-108"/>
      </defs>
      <g transform="translate(21.048438 327.556719)scale(0.1 -0.1)">
       <use xlink:href="#DejaVuSans-80"/>
       <use x="60.255859" xlink:href="#DejaVuSans-111"/>
       <use x="121.4375" xlink:href="#DejaVuSans-114"/>
       <use x="162.550781" xlink:href="#DejaVuSans-32"/>
       <use x="194.337891" xlink:href="#DejaVuSans-100"/>
       <use x="257.814453" xlink:href="#DejaVuSans-101"/>
       <use x="319.337891" xlink:href="#DejaVuSans-98"/>
       <use x="382.814453" xlink:href="#DejaVuSans-97"/>
       <use x="444.09375" xlink:href="#DejaVuSans-106"/>
       <use x="471.876953" xlink:href="#DejaVuSans-111"/>
       <use x="533.058594" xlink:href="#DejaVuSans-32"/>
       <use x="564.845703" xlink:href="#DejaVuSans-100"/>
       <use x="628.322266" xlink:href="#DejaVuSans-101"/>
       <use x="689.845703" xlink:href="#DejaVuSans-108"/>
       <use x="717.628906" xlink:href="#DejaVuSans-32"/>
       <use x="749.416016" xlink:href="#DejaVuSans-98"/>
       <use x="812.892578" xlink:href="#DejaVuSans-225"/>
       <use x="874.171875" xlink:href="#DejaVuSans-115"/>
       <use x="926.271484" xlink:href="#DejaVuSans-105"/>
       <use x="954.054688" xlink:href="#DejaVuSans-99"/>
       <use x="1009.035156" xlink:href="#DejaVuSans-111"/>
      </g>
     </g>
    </g>
    <g id="text_15">
     <!-- Nivel de desempeño en lengua -->
     <defs>
      <path d="M 9.8125 72.90625 
L 23.09375 72.90625 
L 55.421875 11.921875 
L 55.421875 72.90625 
L 64.984375 72.90625 
L 64.984375 0 
L 51.703125 0 
L 19.390625 60.984375 
L 19.390625 0 
L 9.8125 0 
z
" id="DejaVuSans-78"/>
      <path d="M 18.109375 8.203125 
L 18.109375 -20.796875 
L 9.078125 -20.796875 
L 9.078125 54.6875 
L 18.109375 54.6875 
L 18.109375 46.390625 
Q 20.953125 51.265625 25.265625 53.625 
Q 29.59375 56 35.59375 56 
Q 45.5625 56 51.78125 48.09375 
Q 58.015625 40.1875 58.015625 27.296875 
Q 58.015625 14.40625 51.78125 6.484375 
Q 45.5625 -1.421875 35.59375 -1.421875 
Q 29.59375 -1.421875 25.265625 0.953125 
Q 20.953125 3.328125 18.109375 8.203125 
z
M 48.6875 27.296875 
Q 48.6875 37.203125 44.609375 42.84375 
Q 40.53125 48.484375 33.40625 48.484375 
Q 26.265625 48.484375 22.1875 42.84375 
Q 18.109375 37.203125 18.109375 27.296875 
Q 18.109375 17.390625 22.1875 11.75 
Q 26.265625 6.109375 33.40625 6.109375 
Q 40.53125 6.109375 44.609375 11.75 
Q 48.6875 17.390625 48.6875 27.296875 
z
" id="DejaVuSans-112"/>
      <path d="M 54.890625 33.015625 
L 54.890625 0 
L 45.90625 0 
L 45.90625 32.71875 
Q 45.90625 40.484375 42.875 44.328125 
Q 39.84375 48.1875 33.796875 48.1875 
Q 26.515625 48.1875 22.3125 43.546875 
Q 18.109375 38.921875 18.109375 30.90625 
L 18.109375 0 
L 9.078125 0 
L 9.078125 54.6875 
L 18.109375 54.6875 
L 18.109375 46.1875 
Q 21.34375 51.125 25.703125 53.5625 
Q 30.078125 56 35.796875 56 
Q 45.21875 56 50.046875 50.171875 
Q 54.890625 44.34375 54.890625 33.015625 
z
M 32.234375 66.890625 
L 29.4375 69.578125 
Q 28.375 70.5625 27.5625 71.015625 
Q 26.765625 71.484375 26.125 71.484375 
Q 24.265625 71.484375 23.390625 69.703125 
Q 22.515625 67.921875 22.40625 63.921875 
L 16.3125 63.921875 
Q 16.40625 70.515625 18.890625 74.09375 
Q 21.390625 77.6875 25.828125 77.6875 
Q 27.6875 77.6875 29.25 77 
Q 30.8125 76.3125 32.625 74.703125 
L 35.40625 72.015625 
Q 36.46875 71.046875 37.28125 70.578125 
Q 38.09375 70.125 38.71875 70.125 
Q 40.578125 70.125 41.453125 71.90625 
Q 42.328125 73.6875 42.4375 77.6875 
L 48.53125 77.6875 
Q 48.4375 71.09375 45.9375 67.5 
Q 43.453125 63.921875 39.015625 63.921875 
Q 37.15625 63.921875 35.59375 64.59375 
Q 34.03125 65.28125 32.234375 66.890625 
z
" id="DejaVuSans-241"/>
      <path d="M 45.40625 27.984375 
Q 45.40625 37.75 41.375 43.109375 
Q 37.359375 48.484375 30.078125 48.484375 
Q 22.859375 48.484375 18.828125 43.109375 
Q 14.796875 37.75 14.796875 27.984375 
Q 14.796875 18.265625 18.828125 12.890625 
Q 22.859375 7.515625 30.078125 7.515625 
Q 37.359375 7.515625 41.375 12.890625 
Q 45.40625 18.265625 45.40625 27.984375 
z
M 54.390625 6.78125 
Q 54.390625 -7.171875 48.1875 -13.984375 
Q 42 -20.796875 29.203125 -20.796875 
Q 24.46875 -20.796875 20.265625 -20.09375 
Q 16.0625 -19.390625 12.109375 -17.921875 
L 12.109375 -9.1875 
Q 16.0625 -11.328125 19.921875 -12.34375 
Q 23.78125 -13.375 27.78125 -13.375 
Q 36.625 -13.375 41.015625 -8.765625 
Q 45.40625 -4.15625 45.40625 5.171875 
L 45.40625 9.625 
Q 42.625 4.78125 38.28125 2.390625 
Q 33.9375 0 27.875 0 
Q 17.828125 0 11.671875 7.65625 
Q 5.515625 15.328125 5.515625 27.984375 
Q 5.515625 40.671875 11.671875 48.328125 
Q 17.828125 56 27.875 56 
Q 33.9375 56 38.28125 53.609375 
Q 42.625 51.21875 45.40625 46.390625 
L 45.40625 54.6875 
L 54.390625 54.6875 
z
" id="DejaVuSans-103"/>
      <path d="M 8.5 21.578125 
L 8.5 54.6875 
L 17.484375 54.6875 
L 17.484375 21.921875 
Q 17.484375 14.15625 20.5 10.265625 
Q 23.53125 6.390625 29.59375 6.390625 
Q 36.859375 6.390625 41.078125 11.03125 
Q 45.3125 15.671875 45.3125 23.6875 
L 45.3125 54.6875 
L 54.296875 54.6875 
L 54.296875 0 
L 45.3125 0 
L 45.3125 8.40625 
Q 42.046875 3.421875 37.71875 1 
Q 33.40625 -1.421875 27.6875 -1.421875 
Q 18.265625 -1.421875 13.375 4.4375 
Q 8.5 10.296875 8.5 21.578125 
z
M 31.109375 56 
z
" id="DejaVuSans-117"/>
     </defs>
     <g transform="translate(14.96875 278.977187)rotate(-90)scale(0.1 -0.1)">
      <use xlink:href="#DejaVuSans-78"/>
      <use x="74.804688" xlink:href="#DejaVuSans-105"/>
      <use x="102.587891" xlink:href="#DejaVuSans-118"/>
      <use x="161.767578" xlink:href="#DejaVuSans-101"/>
      <use x="223.291016" xlink:href="#DejaVuSans-108"/>
      <use x="251.074219" xlink:href="#DejaVuSans-32"/>
      <use x="282.861328" xlink:href="#DejaVuSans-100"/>
      <use x="346.337891" xlink:href="#DejaVuSans-101"/>
      <use x="407.861328" xlink:href="#DejaVuSans-32"/>
      <use x="439.648438" xlink:href="#DejaVuSans-100"/>
      <use x="503.125" xlink:href="#DejaVuSans-101"/>
      <use x="564.648438" xlink:href="#DejaVuSans-115"/>
      <use x="616.748047" xlink:href="#DejaVuSans-101"/>
      <use x="678.271484" xlink:href="#DejaVuSans-109"/>
      <use x="775.683594" xlink:href="#DejaVuSans-112"/>
      <use x="839.160156" xlink:href="#DejaVuSans-101"/>
      <use x="900.683594" xlink:href="#DejaVuSans-241"/>
      <use x="964.0625" xlink:href="#DejaVuSans-111"/>
      <use x="1025.244141" xlink:href="#DejaVuSans-32"/>
      <use x="1057.03125" xlink:href="#DejaVuSans-101"/>
      <use x="1118.554688" xlink:href="#DejaVuSans-110"/>
      <use x="1181.933594" xlink:href="#DejaVuSans-32"/>
      <use x="1213.720703" xlink:href="#DejaVuSans-108"/>
      <use x="1241.503906" xlink:href="#DejaVuSans-101"/>
      <use x="1303.027344" xlink:href="#DejaVuSans-110"/>
      <use x="1366.40625" xlink:href="#DejaVuSans-103"/>
      <use x="1429.882812" xlink:href="#DejaVuSans-117"/>
      <use x="1493.261719" xlink:href="#DejaVuSans-97"/>
     </g>
    </g>
   </g>
   <g id="line2d_14">
    <path clip-path="url(#p354e25e296)" d="M 232.904606 78.9375 
L 679.787723 78.9375 
" style="fill:none;stroke:#4c4c4c;stroke-linecap:square;stroke-width:1.5;"/>
   </g>
   <g id="line2d_15">
    <path clip-path="url(#p354e25e296)" d="M 422.125386 78.9375 
L 548.423357 78.9375 
" style="fill:none;stroke:#4c4c4c;stroke-linecap:square;stroke-width:4.5;"/>
   </g>
   <g id="line2d_16">
    <path clip-path="url(#p354e25e296)" d="M 209.677833 160.4775 
L 648.890713 160.4775 
" style="fill:none;stroke:#4c4c4c;stroke-linecap:square;stroke-width:1.5;"/>
   </g>
   <g id="line2d_17">
    <path clip-path="url(#p354e25e296)" d="M 374.216295 160.4775 
L 484.192485 160.4775 
" style="fill:none;stroke:#4c4c4c;stroke-linecap:square;stroke-width:4.5;"/>
   </g>
   <g id="line2d_18">
    <path clip-path="url(#p354e25e296)" d="M 192.644866 242.0175 
L 595.242269 242.0175 
" style="fill:none;stroke:#4c4c4c;stroke-linecap:square;stroke-width:1.5;"/>
   </g>
   <g id="line2d_19">
    <path clip-path="url(#p354e25e296)" d="M 342.258766 242.0175 
L 443.597247 242.0175 
" style="fill:none;stroke:#4c4c4c;stroke-linecap:square;stroke-width:4.5;"/>
   </g>
   <g id="line2d_20">
    <path clip-path="url(#p354e25e296)" d="M 184.592918 323.5575 
L 589.331796 323.5575 
" style="fill:none;stroke:#4c4c4c;stroke-linecap:square;stroke-width:1.5;"/>
   </g>
   <g id="line2d_21">
    <path clip-path="url(#p354e25e296)" d="M 336.303403 323.5575 
L 437.692485 323.5575 
" style="fill:none;stroke:#4c4c4c;stroke-linecap:square;stroke-width:4.5;"/>
   </g>
   <g id="patch_3">
    <path d="M 135.073438 364.3275 
L 135.073438 38.1675 
" style="fill:none;stroke:#000000;stroke-linecap:square;stroke-linejoin:miter;stroke-width:0.8;"/>
   </g>
   <g id="patch_4">
    <path d="M 693.073437 364.3275 
L 693.073437 38.1675 
" style="fill:none;stroke:#000000;stroke-linecap:square;stroke-linejoin:miter;stroke-width:0.8;"/>
   </g>
   <g id="patch_5">
    <path d="M 135.073438 364.3275 
L 693.073438 364.3275 
" style="fill:none;stroke:#000000;stroke-linecap:square;stroke-linejoin:miter;stroke-width:0.8;"/>
   </g>
   <g id="patch_6">
    <path d="M 135.073438 38.1675 
L 693.073438 38.1675 
" style="fill:none;stroke:#000000;stroke-linecap:square;stroke-linejoin:miter;stroke-width:0.8;"/>
   </g>
   <g id="PathCollection_1">
    <defs>
     <path d="M 0 1.5 
C 0.397805 1.5 0.77937 1.341951 1.06066 1.06066 
C 1.341951 0.77937 1.5 0.397805 1.5 0 
C 1.5 -0.397805 1.341951 -0.77937 1.06066 -1.06066 
C 0.77937 -1.341951 0.397805 -1.5 0 -1.5 
C -0.397805 -1.5 -0.77937 -1.341951 -1.06066 -1.06066 
C -1.341951 -0.77937 -1.5 -0.397805 -1.5 0 
C -1.5 0.397805 -1.341951 0.77937 -1.06066 1.06066 
C -0.77937 1.341951 -0.397805 1.5 0 1.5 
z
" id="m855a1dbe45" style="stroke:#4c4c4c;"/>
    </defs>
    <g clip-path="url(#p354e25e296)">
     <use style="fill:#ffffff;stroke:#4c4c4c;" x="479.376101" xlink:href="#m855a1dbe45" y="78.9375"/>
    </g>
   </g>
   <g id="PathCollection_2">
    <g clip-path="url(#p354e25e296)">
     <use style="fill:#ffffff;stroke:#4c4c4c;" x="425.626233" xlink:href="#m855a1dbe45" y="160.4775"/>
    </g>
   </g>
   <g id="PathCollection_3">
    <g clip-path="url(#p354e25e296)">
     <use style="fill:#ffffff;stroke:#4c4c4c;" x="391.93058" xlink:href="#m855a1dbe45" y="242.0175"/>
    </g>
   </g>
   <g id="PathCollection_4">
    <g clip-path="url(#p354e25e296)">
     <use style="fill:#ffffff;stroke:#4c4c4c;" x="384.549628" xlink:href="#m855a1dbe45" y="323.5575"/>
    </g>
   </g>
   <g id="text_16">
    <!-- Distribución de: Índice socioeconómico según el desempeño en lengua -->
    <defs>
     <path d="M 19.671875 64.796875 
L 19.671875 8.109375 
L 31.59375 8.109375 
Q 46.6875 8.109375 53.6875 14.9375 
Q 60.6875 21.78125 60.6875 36.53125 
Q 60.6875 51.171875 53.6875 57.984375 
Q 46.6875 64.796875 31.59375 64.796875 
z
M 9.8125 72.90625 
L 30.078125 72.90625 
Q 51.265625 72.90625 61.171875 64.09375 
Q 71.09375 55.28125 71.09375 36.53125 
Q 71.09375 17.671875 61.125 8.828125 
Q 51.171875 0 30.078125 0 
L 9.8125 0 
z
" id="DejaVuSans-68"/>
     <path d="M 11.71875 12.40625 
L 22.015625 12.40625 
L 22.015625 0 
L 11.71875 0 
z
M 11.71875 51.703125 
L 22.015625 51.703125 
L 22.015625 39.3125 
L 11.71875 39.3125 
z
" id="DejaVuSans-58"/>
     <path d="M 8.5 21.578125 
L 8.5 54.6875 
L 17.484375 54.6875 
L 17.484375 21.921875 
Q 17.484375 14.15625 20.5 10.265625 
Q 23.53125 6.390625 29.59375 6.390625 
Q 36.859375 6.390625 41.078125 11.03125 
Q 45.3125 15.671875 45.3125 23.6875 
L 45.3125 54.6875 
L 54.296875 54.6875 
L 54.296875 0 
L 45.3125 0 
L 45.3125 8.40625 
Q 42.046875 3.421875 37.71875 1 
Q 33.40625 -1.421875 27.6875 -1.421875 
Q 18.265625 -1.421875 13.375 4.4375 
Q 8.5 10.296875 8.5 21.578125 
z
M 31.109375 56 
z
M 37.796875 79.984375 
L 47.515625 79.984375 
L 31.59375 61.625 
L 24.125 61.625 
z
" id="DejaVuSans-250"/>
    </defs>
    <g transform="translate(200.584063 18.328125)scale(0.12 -0.12)">
     <use xlink:href="#DejaVuSans-68"/>
     <use x="77.001953" xlink:href="#DejaVuSans-105"/>
     <use x="104.785156" xlink:href="#DejaVuSans-115"/>
     <use x="156.884766" xlink:href="#DejaVuSans-116"/>
     <use x="196.09375" xlink:href="#DejaVuSans-114"/>
     <use x="237.207031" xlink:href="#DejaVuSans-105"/>
     <use x="264.990234" xlink:href="#DejaVuSans-98"/>
     <use x="328.466797" xlink:href="#DejaVuSans-117"/>
     <use x="391.845703" xlink:href="#DejaVuSans-99"/>
     <use x="446.826172" xlink:href="#DejaVuSans-105"/>
     <use x="474.609375" xlink:href="#DejaVuSans-243"/>
     <use x="535.791016" xlink:href="#DejaVuSans-110"/>
     <use x="599.169922" xlink:href="#DejaVuSans-32"/>
     <use x="630.957031" xlink:href="#DejaVuSans-100"/>
     <use x="694.433594" xlink:href="#DejaVuSans-101"/>
     <use x="755.957031" xlink:href="#DejaVuSans-58"/>
     <use x="789.648438" xlink:href="#DejaVuSans-32"/>
     <use x="821.435547" xlink:href="#DejaVuSans-205"/>
     <use x="850.927734" xlink:href="#DejaVuSans-110"/>
     <use x="914.306641" xlink:href="#DejaVuSans-100"/>
     <use x="977.783203" xlink:href="#DejaVuSans-105"/>
     <use x="1005.566406" xlink:href="#DejaVuSans-99"/>
     <use x="1060.546875" xlink:href="#DejaVuSans-101"/>
     <use x="1122.070312" xlink:href="#DejaVuSans-32"/>
     <use x="1153.857422" xlink:href="#DejaVuSans-115"/>
     <use x="1205.957031" xlink:href="#DejaVuSans-111"/>
     <use x="1267.138672" xlink:href="#DejaVuSans-99"/>
     <use x="1322.119141" xlink:href="#DejaVuSans-105"/>
     <use x="1349.902344" xlink:href="#DejaVuSans-111"/>
     <use x="1411.083984" xlink:href="#DejaVuSans-101"/>
     <use x="1472.607422" xlink:href="#DejaVuSans-99"/>
     <use x="1527.587891" xlink:href="#DejaVuSans-111"/>
     <use x="1588.769531" xlink:href="#DejaVuSans-110"/>
     <use x="1652.148438" xlink:href="#DejaVuSans-243"/>
     <use x="1713.330078" xlink:href="#DejaVuSans-109"/>
     <use x="1810.742188" xlink:href="#DejaVuSans-105"/>
     <use x="1838.525391" xlink:href="#DejaVuSans-99"/>
     <use x="1893.505859" xlink:href="#DejaVuSans-111"/>
     <use x="1954.6875" xlink:href="#DejaVuSans-32"/>
     <use x="1986.474609" xlink:href="#DejaVuSans-115"/>
     <use x="2038.574219" xlink:href="#DejaVuSans-101"/>
     <use x="2100.097656" xlink:href="#DejaVuSans-103"/>
     <use x="2163.574219" xlink:href="#DejaVuSans-250"/>
     <use x="2226.953125" xlink:href="#DejaVuSans-110"/>
     <use x="2290.332031" xlink:href="#DejaVuSans-32"/>
     <use x="2322.119141" xlink:href="#DejaVuSans-101"/>
     <use x="2383.642578" xlink:href="#DejaVuSans-108"/>
     <use x="2411.425781" xlink:href="#DejaVuSans-32"/>
     <use x="2443.212891" xlink:href="#DejaVuSans-100"/>
     <use x="2506.689453" xlink:href="#DejaVuSans-101"/>
     <use x="2568.212891" xlink:href="#DejaVuSans-115"/>
     <use x="2620.3125" xlink:href="#DejaVuSans-101"/>
     <use x="2681.835938" xlink:href="#DejaVuSans-109"/>
     <use x="2779.248047" xlink:href="#DejaVuSans-112"/>
     <use x="2842.724609" xlink:href="#DejaVuSans-101"/>
     <use x="2904.248047" xlink:href="#DejaVuSans-241"/>
     <use x="2967.626953" xlink:href="#DejaVuSans-111"/>
     <use x="3028.808594" xlink:href="#DejaVuSans-32"/>
     <use x="3060.595703" xlink:href="#DejaVuSans-101"/>
     <use x="3122.119141" xlink:href="#DejaVuSans-110"/>
     <use x="3185.498047" xlink:href="#DejaVuSans-32"/>
     <use x="3217.285156" xlink:href="#DejaVuSans-108"/>
     <use x="3245.068359" xlink:href="#DejaVuSans-101"/>
     <use x="3306.591797" xlink:href="#DejaVuSans-110"/>
     <use x="3369.970703" xlink:href="#DejaVuSans-103"/>
     <use x="3433.447266" xlink:href="#DejaVuSans-117"/>
     <use x="3496.826172" xlink:href="#DejaVuSans-97"/>
    </g>
    <!--  Nivel: Primaria -->
    <g transform="translate(368.090937 31.7655)scale(0.12 -0.12)">
     <use xlink:href="#DejaVuSans-32"/>
     <use x="31.787109" xlink:href="#DejaVuSans-78"/>
     <use x="106.591797" xlink:href="#DejaVuSans-105"/>
     <use x="134.375" xlink:href="#DejaVuSans-118"/>
     <use x="193.554688" xlink:href="#DejaVuSans-101"/>
     <use x="255.078125" xlink:href="#DejaVuSans-108"/>
     <use x="282.861328" xlink:href="#DejaVuSans-58"/>
     <use x="316.552734" xlink:href="#DejaVuSans-32"/>
     <use x="348.339844" xlink:href="#DejaVuSans-80"/>
     <use x="408.626953" xlink:href="#DejaVuSans-114"/>
     <use x="449.740234" xlink:href="#DejaVuSans-105"/>
     <use x="477.523438" xlink:href="#DejaVuSans-109"/>
     <use x="574.935547" xlink:href="#DejaVuSans-97"/>
     <use x="636.214844" xlink:href="#DejaVuSans-114"/>
     <use x="677.328125" xlink:href="#DejaVuSans-105"/>
     <use x="705.111328" xlink:href="#DejaVuSans-97"/>
    </g>
   </g>
  </g>
 </g>
 <defs>
  <clipPath id="p354e25e296">
   <rect height="326.16" width="558" x="135.073438" y="38.1675"/>
  </clipPath>
 </defs>
</svg>
