<?xml version="1.0" encoding="utf-8" standalone="no"?>
<!DOCTYPE svg PUBLIC "-//W3C//DTD SVG 1.1//EN"
  "http://www.w3.org/Graphics/SVG/1.1/DTD/svg11.dtd">
<!-- Created with matplotlib (https://matplotlib.org/) -->
<svg height="400.04775pt" version="1.1" viewBox="0 0 703.773437 400.04775" width="703.773437pt" xmlns="http://www.w3.org/2000/svg" xmlns:xlink="http://www.w3.org/1999/xlink">
 <defs>
  <style type="text/css">
*{stroke-linecap:butt;stroke-linejoin:round;}
  </style>
 </defs>
 <g id="figure_1">
  <g id="patch_1">
   <path d="M 0 400.04775 
L 703.773437 400.04775 
L 703.773437 0 
L 0 0 
z
" style="fill:#ffffff;"/>
  </g>
  <g id="axes_1">
   <g id="patch_2">
    <path d="M 135.073438 362.4915 
L 693.073437 362.4915 
L 693.073437 36.3315 
L 135.073438 36.3315 
z
" style="fill:#ffffff;"/>
   </g>
   <g id="PolyCollection_1">
    <defs>
     <path d="M 183.486589 -322.348639 
L 183.486589 -323.543861 
L 188.144909 -326.429816 
L 192.803229 -332.377863 
L 197.46155 -335.932289 
L 202.11987 -333.726396 
L 206.77819 -333.61432 
L 211.43651 -341.636651 
L 216.09483 -348.154432 
L 220.75315 -349.611348 
L 225.411471 -351.406602 
L 230.069791 -349.758271 
L 234.728111 -348.862275 
L 239.386431 -354.239683 
L 244.044751 -355.56225 
L 248.703071 -350.942573 
L 253.361392 -340.664945 
L 258.019712 -331.045438 
L 262.678032 -331.71146 
L 267.336352 -339.53941 
L 271.994672 -347.327877 
L 276.652992 -349.998243 
L 281.311313 -345.610441 
L 285.969633 -337.732014 
L 290.627953 -334.343637 
L 295.286273 -335.622885 
L 299.944593 -338.609156 
L 304.602914 -344.528912 
L 309.261234 -350.439417 
L 313.919554 -347.698358 
L 318.577874 -341.083138 
L 323.236194 -337.498593 
L 327.894514 -331.645994 
L 332.552835 -327.743837 
L 337.211155 -327.954129 
L 341.869475 -329.659224 
L 346.527795 -330.660272 
L 351.186115 -329.306815 
L 355.844435 -327.862035 
L 360.502756 -327.112418 
L 365.161076 -326.907989 
L 369.819396 -327.139787 
L 374.477716 -325.65756 
L 379.136036 -323.928478 
L 383.794356 -323.549635 
L 388.452677 -323.729899 
L 393.110997 -324.083912 
L 397.769317 -324.563539 
L 402.427637 -324.742338 
L 407.085957 -324.392926 
L 411.744277 -323.724259 
L 416.402598 -323.391191 
L 421.060918 -323.366866 
L 425.719238 -323.20609 
L 430.377558 -323.128561 
L 435.035878 -323.40909 
L 439.694198 -323.714278 
L 444.352519 -323.688246 
L 449.010839 -323.458401 
L 453.669159 -323.193477 
L 458.327479 -323.048172 
L 462.985799 -323.055326 
L 467.644119 -323.418627 
L 472.30244 -324.214968 
L 476.96076 -324.49392 
L 481.61908 -323.986888 
L 486.2774 -323.597421 
L 490.93572 -323.411802 
L 495.59404 -323.461928 
L 500.252361 -323.429165 
L 504.910681 -323.162266 
L 509.569001 -323.000175 
L 514.227321 -323.080504 
L 518.885641 -323.499222 
L 523.543961 -323.922953 
L 528.202282 -323.832622 
L 532.860602 -323.558911 
L 537.518922 -323.243298 
L 542.177242 -323.014923 
L 546.835562 -322.952765 
L 551.493883 -322.946496 
L 556.152203 -322.946254 
L 560.810523 -322.946251 
L 565.468843 -322.946304 
L 570.127163 -322.948434 
L 574.785483 -322.981479 
L 579.443804 -323.17099 
L 584.102124 -323.513328 
L 588.760444 -323.512216 
L 593.418764 -323.169671 
L 598.077084 -322.981135 
L 602.735404 -322.948404 
L 607.393725 -322.946303 
L 612.052045 -322.946253 
L 616.710365 -322.946407 
L 621.368685 -322.950011 
L 626.027005 -322.981854 
L 630.685325 -323.07955 
L 635.343646 -323.143651 
L 640.001966 -323.061875 
L 644.660286 -322.973038 
L 644.660286 -322.919462 
L 644.660286 -322.919462 
L 640.001966 -322.830625 
L 635.343646 -322.748849 
L 630.685325 -322.81295 
L 626.027005 -322.910646 
L 621.368685 -322.942489 
L 616.710365 -322.946093 
L 612.052045 -322.946247 
L 607.393725 -322.946197 
L 602.735404 -322.944096 
L 598.077084 -322.911365 
L 593.418764 -322.722829 
L 588.760444 -322.380284 
L 584.102124 -322.379172 
L 579.443804 -322.72151 
L 574.785483 -322.911021 
L 570.127163 -322.944066 
L 565.468843 -322.946196 
L 560.810523 -322.946249 
L 556.152203 -322.946246 
L 551.493883 -322.946004 
L 546.835562 -322.939735 
L 542.177242 -322.877577 
L 537.518922 -322.649202 
L 532.860602 -322.333589 
L 528.202282 -322.059878 
L 523.543961 -321.969547 
L 518.885641 -322.393278 
L 514.227321 -322.811996 
L 509.569001 -322.892325 
L 504.910681 -322.730234 
L 500.252361 -322.463335 
L 495.59404 -322.430572 
L 490.93572 -322.480698 
L 486.2774 -322.295079 
L 481.61908 -321.905612 
L 476.96076 -321.39858 
L 472.30244 -321.677532 
L 467.644119 -322.473873 
L 462.985799 -322.837174 
L 458.327479 -322.844328 
L 453.669159 -322.699023 
L 449.010839 -322.434099 
L 444.352519 -322.204254 
L 439.694198 -322.178222 
L 435.035878 -322.48341 
L 430.377558 -322.763939 
L 425.719238 -322.68641 
L 421.060918 -322.525634 
L 416.402598 -322.501309 
L 411.744277 -322.168241 
L 407.085957 -321.499574 
L 402.427637 -321.150162 
L 397.769317 -321.328961 
L 393.110997 -321.808588 
L 388.452677 -322.162601 
L 383.794356 -322.342865 
L 379.136036 -321.964022 
L 374.477716 -320.23494 
L 369.819396 -318.752713 
L 365.161076 -318.984511 
L 360.502756 -318.780082 
L 355.844435 -318.030465 
L 351.186115 -316.585685 
L 346.527795 -315.232228 
L 341.869475 -316.233276 
L 337.211155 -317.938371 
L 332.552835 -318.148663 
L 327.894514 -314.246506 
L 323.236194 -308.393907 
L 318.577874 -304.809362 
L 313.919554 -298.194142 
L 309.261234 -295.453083 
L 304.602914 -301.363588 
L 299.944593 -307.283344 
L 295.286273 -310.269615 
L 290.627953 -311.548863 
L 285.969633 -308.160486 
L 281.311313 -300.282059 
L 276.652992 -295.894257 
L 271.994672 -298.564623 
L 267.336352 -306.35309 
L 262.678032 -314.18104 
L 258.019712 -314.847062 
L 253.361392 -305.227555 
L 248.703071 -294.949927 
L 244.044751 -290.33025 
L 239.386431 -291.652817 
L 234.728111 -297.030225 
L 230.069791 -296.134229 
L 225.411471 -294.485898 
L 220.75315 -296.281152 
L 216.09483 -297.738068 
L 211.43651 -304.255849 
L 206.77819 -312.27818 
L 202.11987 -312.166104 
L 197.46155 -309.960211 
L 192.803229 -313.514637 
L 188.144909 -319.462684 
L 183.486589 -322.348639 
z
" id="m5e49f0e936" style="stroke:#262626;stroke-width:1.5;"/>
    </defs>
    <g clip-path="url(#p436d65bd64)">
     <use style="fill:#107010;stroke:#262626;stroke-width:1.5;" x="0" xlink:href="#m5e49f0e936" y="400.04775"/>
    </g>
   </g>
   <g id="PolyCollection_2">
    <defs>
     <path d="M 183.978336 -241.087921 
L 183.978336 -241.724579 
L 188.626722 -243.358766 
L 193.275108 -246.645423 
L 197.923494 -248.369135 
L 202.57188 -247.32871 
L 207.220266 -249.59677 
L 211.868652 -258.451633 
L 216.517037 -263.737417 
L 221.165423 -264.601142 
L 225.813809 -266.769467 
L 230.462195 -265.005289 
L 235.110581 -264.754841 
L 239.758967 -271.386295 
L 244.407353 -272.028469 
L 249.055739 -267.110308 
L 253.704124 -257.006034 
L 258.35251 -248.741481 
L 263.000896 -250.427035 
L 267.649282 -256.710276 
L 272.297668 -264.652725 
L 276.946054 -270.333266 
L 281.59444 -266.618854 
L 286.242826 -257.634454 
L 290.891212 -254.467195 
L 295.539597 -256.637387 
L 300.187983 -260.333267 
L 304.836369 -266.99605 
L 309.484755 -271.969451 
L 314.133141 -266.862279 
L 318.781527 -260.662228 
L 323.429913 -258.735796 
L 328.078299 -251.486024 
L 332.726685 -246.351833 
L 337.37507 -246.816596 
L 342.023456 -249.137197 
L 346.671842 -250.24613 
L 351.320228 -248.604695 
L 355.968614 -247.425184 
L 360.617 -246.979663 
L 365.265386 -247.322552 
L 369.913772 -248.147243 
L 374.562157 -245.544512 
L 379.210543 -242.69839 
L 383.858929 -242.158927 
L 388.507315 -242.549731 
L 393.155701 -243.445582 
L 397.804087 -244.243123 
L 402.452473 -244.065145 
L 407.100859 -243.269449 
L 411.749245 -242.312889 
L 416.39763 -241.913092 
L 421.046016 -241.924855 
L 425.694402 -241.715674 
L 430.342788 -241.641575 
L 434.991174 -242.140943 
L 439.63956 -242.601836 
L 444.287946 -242.365878 
L 448.936332 -241.959163 
L 453.584718 -241.660391 
L 458.233103 -241.511795 
L 462.881489 -241.492987 
L 467.529875 -241.894201 
L 472.178261 -243.003934 
L 476.826647 -243.456495 
L 481.475033 -242.698594 
L 486.123419 -242.194647 
L 490.771805 -241.995909 
L 495.42019 -242.146782 
L 500.068576 -242.127065 
L 504.716962 -241.707838 
L 509.365348 -241.46782 
L 514.013734 -241.573466 
L 518.66212 -242.248648 
L 523.310506 -243.009329 
L 527.958892 -242.740826 
L 532.607278 -242.200323 
L 537.255663 -241.76745 
L 541.904049 -241.481924 
L 546.552435 -241.412184 
L 551.200821 -241.406418 
L 555.849207 -241.406252 
L 560.497593 -241.40625 
L 565.145979 -241.406268 
L 569.794365 -241.407433 
L 574.442751 -241.433979 
L 579.091136 -241.639386 
L 583.739522 -242.109453 
L 588.387908 -242.167175 
L 593.036294 -241.701638 
L 597.68468 -241.447387 
L 602.333066 -241.408305 
L 606.981452 -241.406287 
L 611.629838 -241.406251 
L 616.278223 -241.406343 
L 620.926609 -241.409708 
L 625.574995 -241.452256 
L 630.223381 -241.625841 
L 634.871767 -241.782263 
L 639.520153 -241.637234 
L 644.168539 -241.457154 
L 644.168539 -241.355346 
L 644.168539 -241.355346 
L 639.520153 -241.175266 
L 634.871767 -241.030237 
L 630.223381 -241.186659 
L 625.574995 -241.360244 
L 620.926609 -241.402792 
L 616.278223 -241.406157 
L 611.629838 -241.406249 
L 606.981452 -241.406213 
L 602.333066 -241.404195 
L 597.68468 -241.365113 
L 593.036294 -241.110862 
L 588.387908 -240.645325 
L 583.739522 -240.703047 
L 579.091136 -241.173114 
L 574.442751 -241.378521 
L 569.794365 -241.405067 
L 565.145979 -241.406232 
L 560.497593 -241.40625 
L 555.849207 -241.406248 
L 551.200821 -241.406082 
L 546.552435 -241.400316 
L 541.904049 -241.330576 
L 537.255663 -241.04505 
L 532.607278 -240.612177 
L 527.958892 -240.071674 
L 523.310506 -239.803171 
L 518.66212 -240.563852 
L 514.013734 -241.239034 
L 509.365348 -241.34468 
L 504.716962 -241.104662 
L 500.068576 -240.685435 
L 495.42019 -240.665718 
L 490.771805 -240.816591 
L 486.123419 -240.617853 
L 481.475033 -240.113906 
L 476.826647 -239.356005 
L 472.178261 -239.808566 
L 467.529875 -240.918299 
L 462.881489 -241.319513 
L 458.233103 -241.300705 
L 453.584718 -241.152109 
L 448.936332 -240.853337 
L 444.287946 -240.446622 
L 439.63956 -240.210664 
L 434.991174 -240.671557 
L 430.342788 -241.170925 
L 425.694402 -241.096826 
L 421.046016 -240.887645 
L 416.39763 -240.899408 
L 411.749245 -240.499611 
L 407.100859 -239.543051 
L 402.452473 -238.747355 
L 397.804087 -238.569377 
L 393.155701 -239.366918 
L 388.507315 -240.262769 
L 383.858929 -240.653573 
L 379.210543 -240.11411 
L 374.562157 -237.267988 
L 369.913772 -234.665257 
L 365.265386 -235.489948 
L 360.617 -235.832837 
L 355.968614 -235.387316 
L 351.320228 -234.207805 
L 346.671842 -232.56637 
L 342.023456 -233.675303 
L 337.37507 -235.995904 
L 332.726685 -236.460667 
L 328.078299 -231.326476 
L 323.429913 -224.076704 
L 318.781527 -222.150272 
L 314.133141 -215.950221 
L 309.484755 -210.843049 
L 304.836369 -215.81645 
L 300.187983 -222.479233 
L 295.539597 -226.175113 
L 290.891212 -228.345305 
L 286.242826 -225.178046 
L 281.59444 -216.193646 
L 276.946054 -212.479234 
L 272.297668 -218.159775 
L 267.649282 -226.102224 
L 263.000896 -232.385465 
L 258.35251 -234.071019 
L 253.704124 -225.806466 
L 249.055739 -215.702192 
L 244.407353 -210.784031 
L 239.758967 -211.426205 
L 235.110581 -218.057659 
L 230.462195 -217.807211 
L 225.813809 -216.043033 
L 221.165423 -218.211358 
L 216.517037 -219.075083 
L 211.868652 -224.360867 
L 207.220266 -233.21573 
L 202.57188 -235.48379 
L 197.923494 -234.443365 
L 193.275108 -236.167077 
L 188.626722 -239.453734 
L 183.978336 -241.087921 
z
" id="m58776762fe" style="stroke:#262626;stroke-width:1.5;"/>
    </defs>
    <g clip-path="url(#p436d65bd64)">
     <use style="fill:#107010;stroke:#262626;stroke-width:1.5;" x="0" xlink:href="#m58776762fe" y="400.04775"/>
    </g>
   </g>
   <g id="PolyCollection_3">
    <defs>
     <path d="M 182.366791 -159.668667 
L 182.366791 -160.063833 
L 187.047733 -160.838158 
L 191.728675 -162.388085 
L 196.409618 -163.585148 
L 201.09056 -163.785952 
L 205.771502 -165.493618 
L 210.452445 -170.942594 
L 215.133387 -176.652016 
L 219.81433 -180.134393 
L 224.495272 -182.910487 
L 229.176214 -182.95194 
L 233.857157 -182.10449 
L 238.538099 -185.053331 
L 243.219041 -187.146357 
L 247.899984 -184.072084 
L 252.580926 -176.64755 
L 257.261868 -169.39339 
L 261.942811 -168.592554 
L 266.623753 -173.483459 
L 271.304695 -181.04613 
L 275.985638 -187.426237 
L 280.66658 -186.555861 
L 285.347523 -179.407163 
L 290.028465 -174.893242 
L 294.709407 -176.176479 
L 299.39035 -180.333543 
L 304.071292 -186.182986 
L 308.752234 -189.749624 
L 313.433177 -186.087429 
L 318.114119 -180.124927 
L 322.795061 -176.892485 
L 327.476004 -171.963834 
L 332.156946 -167.180806 
L 336.837889 -166.657557 
L 341.518831 -168.542569 
L 346.199773 -169.567277 
L 350.880716 -168.466158 
L 355.561658 -167.103973 
L 360.2426 -166.697941 
L 364.923543 -167.291928 
L 369.604485 -167.663019 
L 374.285427 -165.248105 
L 378.96637 -162.061191 
L 383.647312 -160.893196 
L 388.328255 -161.318431 
L 393.009197 -162.463317 
L 397.690139 -163.274821 
L 402.371082 -162.975101 
L 407.052024 -161.995829 
L 411.732966 -161.029274 
L 416.413909 -160.622384 
L 421.094851 -160.562411 
L 425.775793 -160.352695 
L 430.456736 -160.302795 
L 435.137678 -160.746952 
L 439.81862 -161.144096 
L 444.499563 -160.989664 
L 449.180505 -160.564089 
L 453.861448 -160.198549 
L 458.54239 -160.01219 
L 463.223332 -160.078466 
L 467.904275 -160.6684 
L 472.585217 -161.677838 
L 477.266159 -161.989751 
L 481.947102 -161.400301 
L 486.628044 -160.885063 
L 491.308986 -160.822296 
L 495.989929 -161.120477 
L 500.670871 -161.067945 
L 505.351814 -160.484561 
L 510.032756 -160.098069 
L 514.713698 -160.357487 
L 519.394641 -161.272275 
L 524.075583 -161.948206 
L 528.756525 -161.617317 
L 533.437468 -160.918861 
L 538.11841 -160.333822 
L 542.799352 -159.988999 
L 547.480295 -159.882534 
L 552.161237 -159.867286 
L 556.84218 -159.866281 
L 561.523122 -159.866273 
L 566.204064 -159.867085 
L 570.885007 -159.881018 
L 575.565949 -159.989383 
L 580.246891 -160.350091 
L 584.927834 -160.762258 
L 589.608776 -160.648241 
L 594.289718 -160.187892 
L 598.970661 -159.928598 
L 603.651603 -159.871946 
L 608.332545 -159.866497 
L 613.013488 -159.866335 
L 617.69443 -159.868131 
L 622.375373 -159.887042 
L 627.056315 -159.974582 
L 631.737257 -160.132262 
L 636.4182 -160.174092 
L 641.099142 -160.034144 
L 645.780084 -159.909404 
L 645.780084 -159.823096 
L 645.780084 -159.823096 
L 641.099142 -159.698356 
L 636.4182 -159.558408 
L 631.737257 -159.600238 
L 627.056315 -159.757918 
L 622.375373 -159.845458 
L 617.69443 -159.864369 
L 613.013488 -159.866165 
L 608.332545 -159.866003 
L 603.651603 -159.860554 
L 598.970661 -159.803902 
L 594.289718 -159.544608 
L 589.608776 -159.084259 
L 584.927834 -158.970242 
L 580.246891 -159.382409 
L 575.565949 -159.743117 
L 570.885007 -159.851482 
L 566.204064 -159.865415 
L 561.523122 -159.866227 
L 556.84218 -159.866219 
L 552.161237 -159.865214 
L 547.480295 -159.849966 
L 542.799352 -159.743501 
L 538.11841 -159.398678 
L 533.437468 -158.813639 
L 528.756525 -158.115183 
L 524.075583 -157.784294 
L 519.394641 -158.460225 
L 514.713698 -159.375013 
L 510.032756 -159.634431 
L 505.351814 -159.247939 
L 500.670871 -158.664555 
L 495.989929 -158.612023 
L 491.308986 -158.910204 
L 486.628044 -158.847437 
L 481.947102 -158.332199 
L 477.266159 -157.742749 
L 472.585217 -158.054662 
L 467.904275 -159.0641 
L 463.223332 -159.654034 
L 458.54239 -159.72031 
L 453.861448 -159.533951 
L 449.180505 -159.168411 
L 444.499563 -158.742836 
L 439.81862 -158.588404 
L 435.137678 -158.985548 
L 430.456736 -159.429705 
L 425.775793 -159.379805 
L 421.094851 -159.170089 
L 416.413909 -159.110116 
L 411.732966 -158.703226 
L 407.052024 -157.736671 
L 402.371082 -156.757399 
L 397.690139 -156.457679 
L 393.009197 -157.269183 
L 388.328255 -158.414069 
L 383.647312 -158.839304 
L 378.96637 -157.671309 
L 374.285427 -154.484395 
L 369.604485 -152.069481 
L 364.923543 -152.440572 
L 360.2426 -153.034559 
L 355.561658 -152.628527 
L 350.880716 -151.266342 
L 346.199773 -150.165223 
L 341.518831 -151.189931 
L 336.837889 -153.074943 
L 332.156946 -152.551694 
L 327.476004 -147.768666 
L 322.795061 -142.840015 
L 318.114119 -139.607573 
L 313.433177 -133.645071 
L 308.752234 -129.982876 
L 304.071292 -133.549514 
L 299.39035 -139.398957 
L 294.709407 -143.556021 
L 290.028465 -144.839258 
L 285.347523 -140.325337 
L 280.66658 -133.176639 
L 275.985638 -132.306263 
L 271.304695 -138.68637 
L 266.623753 -146.249041 
L 261.942811 -151.139946 
L 257.261868 -150.33911 
L 252.580926 -143.08495 
L 247.899984 -135.660416 
L 243.219041 -132.586143 
L 238.538099 -134.679169 
L 233.857157 -137.62801 
L 229.176214 -136.78056 
L 224.495272 -136.822013 
L 219.81433 -139.598107 
L 215.133387 -143.080484 
L 210.452445 -148.789906 
L 205.771502 -154.238882 
L 201.09056 -155.946548 
L 196.409618 -156.147352 
L 191.728675 -157.344415 
L 187.047733 -158.894342 
L 182.366791 -159.668667 
z
" id="ma021d42255" style="stroke:#262626;stroke-width:1.5;"/>
    </defs>
    <g clip-path="url(#p436d65bd64)">
     <use style="fill:#107010;stroke:#262626;stroke-width:1.5;" x="0" xlink:href="#ma021d42255" y="400.04775"/>
    </g>
   </g>
   <g id="PolyCollection_4">
    <defs>
     <path d="M 181.411817 -78.154687 
L 181.411817 -78.497813 
L 186.112052 -79.023328 
L 190.812287 -79.952312 
L 195.512522 -80.702489 
L 200.212756 -81.220565 
L 204.912991 -83.351663 
L 209.613226 -88.641971 
L 214.313461 -94.348139 
L 219.013695 -97.410476 
L 223.71393 -99.289592 
L 228.414165 -100.266269 
L 233.1144 -100.447793 
L 237.814634 -102.645848 
L 242.514869 -104.85071 
L 247.215104 -102.719943 
L 251.915339 -96.174761 
L 256.615573 -89.428468 
L 261.315808 -87.810768 
L 266.016043 -91.447892 
L 270.716278 -97.813551 
L 275.416512 -103.523659 
L 280.116747 -103.516128 
L 284.816982 -98.162626 
L 289.517217 -94.247313 
L 294.217451 -95.422674 
L 298.917686 -99.976303 
L 303.617921 -105.350435 
L 308.318156 -107.651263 
L 313.01839 -103.799686 
L 317.718625 -97.619503 
L 322.41886 -93.659042 
L 327.119095 -89.814662 
L 331.819329 -86.150854 
L 336.519564 -85.568084 
L 341.219799 -87.375287 
L 345.920034 -88.681192 
L 350.620268 -88.104514 
L 355.320503 -87.070927 
L 360.020738 -86.738682 
L 364.720973 -86.846044 
L 369.421207 -86.315191 
L 374.121442 -83.798394 
L 378.821677 -80.807334 
L 383.521912 -79.490668 
L 388.222146 -79.667038 
L 392.922381 -80.489398 
L 397.622616 -81.184983 
L 402.322851 -81.123803 
L 407.023085 -80.420542 
L 411.72332 -79.716939 
L 416.423555 -79.552167 
L 421.12379 -79.582326 
L 425.824024 -79.282925 
L 430.524259 -79.163319 
L 435.224494 -79.7055 
L 439.924729 -80.298186 
L 444.624963 -80.252745 
L 449.325198 -79.651783 
L 454.025433 -78.960435 
L 458.725668 -78.57699 
L 463.425902 -78.626335 
L 468.126137 -79.170562 
L 472.826372 -79.945068 
L 477.526607 -80.216888 
L 482.226841 -79.90863 
L 486.927076 -79.559847 
L 491.627311 -79.43899 
L 496.327546 -79.503926 
L 501.02778 -79.334772 
L 505.728015 -78.87639 
L 510.42825 -78.62237 
L 515.128485 -78.935349 
L 519.828719 -79.72442 
L 524.528954 -80.22395 
L 529.229189 -79.94818 
L 533.929424 -79.333509 
L 538.629658 -78.785682 
L 543.329893 -78.459996 
L 548.030128 -78.348356 
L 552.730363 -78.328223 
L 557.430597 -78.32635 
L 562.130832 -78.326501 
L 566.831067 -78.331179 
L 571.531302 -78.377848 
L 576.231536 -78.610984 
L 580.931771 -79.154574 
L 585.632006 -79.596589 
L 590.332241 -79.353312 
L 595.032475 -78.764006 
L 599.73271 -78.424612 
L 604.432945 -78.337902 
L 609.13318 -78.326988 
L 613.833414 -78.326525 
L 618.533649 -78.329502 
L 623.233884 -78.34845 
L 627.934119 -78.40615 
L 632.634353 -78.477853 
L 637.334588 -78.477894 
L 642.034823 -78.406215 
L 646.735058 -78.34848 
L 646.735058 -78.30402 
L 646.735058 -78.30402 
L 642.034823 -78.246285 
L 637.334588 -78.174606 
L 632.634353 -78.174647 
L 627.934119 -78.24635 
L 623.233884 -78.30405 
L 618.533649 -78.322998 
L 613.833414 -78.325975 
L 609.13318 -78.325512 
L 604.432945 -78.314598 
L 599.73271 -78.227888 
L 595.032475 -77.888494 
L 590.332241 -77.299188 
L 585.632006 -77.055911 
L 580.931771 -77.497926 
L 576.231536 -78.041516 
L 571.531302 -78.274652 
L 566.831067 -78.321321 
L 562.130832 -78.325999 
L 557.430597 -78.32615 
L 552.730363 -78.324277 
L 548.030128 -78.304144 
L 543.329893 -78.192504 
L 538.629658 -77.866818 
L 533.929424 -77.318991 
L 529.229189 -76.70432 
L 524.528954 -76.42855 
L 519.828719 -76.92808 
L 515.128485 -77.717151 
L 510.42825 -78.03013 
L 505.728015 -77.77611 
L 501.02778 -77.317728 
L 496.327546 -77.148574 
L 491.627311 -77.21351 
L 486.927076 -77.092653 
L 482.226841 -76.74387 
L 477.526607 -76.435612 
L 472.826372 -76.707432 
L 468.126137 -77.481938 
L 463.425902 -78.026165 
L 458.725668 -78.07551 
L 454.025433 -77.692065 
L 449.325198 -77.000717 
L 444.624963 -76.399755 
L 439.924729 -76.354314 
L 435.224494 -76.947 
L 430.524259 -77.489181 
L 425.824024 -77.369575 
L 421.12379 -77.070174 
L 416.423555 -77.100333 
L 411.72332 -76.935561 
L 407.023085 -76.231958 
L 402.322851 -75.528697 
L 397.622616 -75.467517 
L 392.922381 -76.163102 
L 388.222146 -76.985462 
L 383.521912 -77.161832 
L 378.821677 -75.845166 
L 374.121442 -72.854106 
L 369.421207 -70.337309 
L 364.720973 -69.806456 
L 360.020738 -69.913818 
L 355.320503 -69.581573 
L 350.620268 -68.547986 
L 345.920034 -67.971308 
L 341.219799 -69.277213 
L 336.519564 -71.084416 
L 331.819329 -70.501646 
L 327.119095 -66.837838 
L 322.41886 -62.993458 
L 317.718625 -59.032997 
L 313.01839 -52.852814 
L 308.318156 -49.001237 
L 303.617921 -51.302065 
L 298.917686 -56.676197 
L 294.217451 -61.229826 
L 289.517217 -62.405187 
L 284.816982 -58.489874 
L 280.116747 -53.136372 
L 275.416512 -53.128841 
L 270.716278 -58.838949 
L 266.016043 -65.204608 
L 261.315808 -68.841732 
L 256.615573 -67.224032 
L 251.915339 -60.477739 
L 247.215104 -53.932557 
L 242.514869 -51.80179 
L 237.814634 -54.006652 
L 233.1144 -56.204707 
L 228.414165 -56.386231 
L 223.71393 -57.362908 
L 219.013695 -59.242024 
L 214.313461 -62.304361 
L 209.613226 -68.010529 
L 204.912991 -73.300837 
L 200.212756 -75.431935 
L 195.512522 -75.950011 
L 190.812287 -76.700188 
L 186.112052 -77.629172 
L 181.411817 -78.154687 
z
" id="m48f2f990d2" style="stroke:#262626;stroke-width:1.5;"/>
    </defs>
    <g clip-path="url(#p436d65bd64)">
     <use style="fill:#107010;stroke:#262626;stroke-width:1.5;" x="0" xlink:href="#m48f2f990d2" y="400.04775"/>
    </g>
   </g>
   <g id="matplotlib.axis_1">
    <g id="xtick_1">
     <g id="line2d_1">
      <defs>
       <path d="M 0 0 
L 0 3.5 
" id="ma6c161cfc2" style="stroke:#000000;stroke-width:0.8;"/>
      </defs>
      <g>
       <use style="stroke:#000000;stroke-width:0.8;" x="173.415274" xlink:href="#ma6c161cfc2" y="362.4915"/>
      </g>
     </g>
     <g id="text_1">
      <!-- 0.0 -->
      <defs>
       <path d="M 31.78125 66.40625 
Q 24.171875 66.40625 20.328125 58.90625 
Q 16.5 51.421875 16.5 36.375 
Q 16.5 21.390625 20.328125 13.890625 
Q 24.171875 6.390625 31.78125 6.390625 
Q 39.453125 6.390625 43.28125 13.890625 
Q 47.125 21.390625 47.125 36.375 
Q 47.125 51.421875 43.28125 58.90625 
Q 39.453125 66.40625 31.78125 66.40625 
z
M 31.78125 74.21875 
Q 44.046875 74.21875 50.515625 64.515625 
Q 56.984375 54.828125 56.984375 36.375 
Q 56.984375 17.96875 50.515625 8.265625 
Q 44.046875 -1.421875 31.78125 -1.421875 
Q 19.53125 -1.421875 13.0625 8.265625 
Q 6.59375 17.96875 6.59375 36.375 
Q 6.59375 54.828125 13.0625 64.515625 
Q 19.53125 74.21875 31.78125 74.21875 
z
" id="DejaVuSans-48"/>
       <path d="M 10.6875 12.40625 
L 21 12.40625 
L 21 0 
L 10.6875 0 
z
" id="DejaVuSans-46"/>
      </defs>
      <g transform="translate(165.463711 377.089938)scale(0.1 -0.1)">
       <use xlink:href="#DejaVuSans-48"/>
       <use x="63.623047" xlink:href="#DejaVuSans-46"/>
       <use x="95.410156" xlink:href="#DejaVuSans-48"/>
      </g>
     </g>
    </g>
    <g id="xtick_2">
     <g id="line2d_2">
      <g>
       <use style="stroke:#000000;stroke-width:0.8;" x="289.589256" xlink:href="#ma6c161cfc2" y="362.4915"/>
      </g>
     </g>
     <g id="text_2">
      <!-- 0.1 -->
      <defs>
       <path d="M 12.40625 8.296875 
L 28.515625 8.296875 
L 28.515625 63.921875 
L 10.984375 60.40625 
L 10.984375 69.390625 
L 28.421875 72.90625 
L 38.28125 72.90625 
L 38.28125 8.296875 
L 54.390625 8.296875 
L 54.390625 0 
L 12.40625 0 
z
" id="DejaVuSans-49"/>
      </defs>
      <g transform="translate(281.637694 377.089938)scale(0.1 -0.1)">
       <use xlink:href="#DejaVuSans-48"/>
       <use x="63.623047" xlink:href="#DejaVuSans-46"/>
       <use x="95.410156" xlink:href="#DejaVuSans-49"/>
      </g>
     </g>
    </g>
    <g id="xtick_3">
     <g id="line2d_3">
      <g>
       <use style="stroke:#000000;stroke-width:0.8;" x="405.763238" xlink:href="#ma6c161cfc2" y="362.4915"/>
      </g>
     </g>
     <g id="text_3">
      <!-- 0.2 -->
      <defs>
       <path d="M 19.1875 8.296875 
L 53.609375 8.296875 
L 53.609375 0 
L 7.328125 0 
L 7.328125 8.296875 
Q 12.9375 14.109375 22.625 23.890625 
Q 32.328125 33.6875 34.8125 36.53125 
Q 39.546875 41.84375 41.421875 45.53125 
Q 43.3125 49.21875 43.3125 52.78125 
Q 43.3125 58.59375 39.234375 62.25 
Q 35.15625 65.921875 28.609375 65.921875 
Q 23.96875 65.921875 18.8125 64.3125 
Q 13.671875 62.703125 7.8125 59.421875 
L 7.8125 69.390625 
Q 13.765625 71.78125 18.9375 73 
Q 24.125 74.21875 28.421875 74.21875 
Q 39.75 74.21875 46.484375 68.546875 
Q 53.21875 62.890625 53.21875 53.421875 
Q 53.21875 48.921875 51.53125 44.890625 
Q 49.859375 40.875 45.40625 35.40625 
Q 44.1875 33.984375 37.640625 27.21875 
Q 31.109375 20.453125 19.1875 8.296875 
z
" id="DejaVuSans-50"/>
      </defs>
      <g transform="translate(397.811676 377.089938)scale(0.1 -0.1)">
       <use xlink:href="#DejaVuSans-48"/>
       <use x="63.623047" xlink:href="#DejaVuSans-46"/>
       <use x="95.410156" xlink:href="#DejaVuSans-50"/>
      </g>
     </g>
    </g>
    <g id="xtick_4">
     <g id="line2d_4">
      <g>
       <use style="stroke:#000000;stroke-width:0.8;" x="521.937221" xlink:href="#ma6c161cfc2" y="362.4915"/>
      </g>
     </g>
     <g id="text_4">
      <!-- 0.3 -->
      <defs>
       <path d="M 40.578125 39.3125 
Q 47.65625 37.796875 51.625 33 
Q 55.609375 28.21875 55.609375 21.1875 
Q 55.609375 10.40625 48.1875 4.484375 
Q 40.765625 -1.421875 27.09375 -1.421875 
Q 22.515625 -1.421875 17.65625 -0.515625 
Q 12.796875 0.390625 7.625 2.203125 
L 7.625 11.71875 
Q 11.71875 9.328125 16.59375 8.109375 
Q 21.484375 6.890625 26.8125 6.890625 
Q 36.078125 6.890625 40.9375 10.546875 
Q 45.796875 14.203125 45.796875 21.1875 
Q 45.796875 27.640625 41.28125 31.265625 
Q 36.765625 34.90625 28.71875 34.90625 
L 20.21875 34.90625 
L 20.21875 43.015625 
L 29.109375 43.015625 
Q 36.375 43.015625 40.234375 45.921875 
Q 44.09375 48.828125 44.09375 54.296875 
Q 44.09375 59.90625 40.109375 62.90625 
Q 36.140625 65.921875 28.71875 65.921875 
Q 24.65625 65.921875 20.015625 65.03125 
Q 15.375 64.15625 9.8125 62.3125 
L 9.8125 71.09375 
Q 15.4375 72.65625 20.34375 73.4375 
Q 25.25 74.21875 29.59375 74.21875 
Q 40.828125 74.21875 47.359375 69.109375 
Q 53.90625 64.015625 53.90625 55.328125 
Q 53.90625 49.265625 50.4375 45.09375 
Q 46.96875 40.921875 40.578125 39.3125 
z
" id="DejaVuSans-51"/>
      </defs>
      <g transform="translate(513.985658 377.089938)scale(0.1 -0.1)">
       <use xlink:href="#DejaVuSans-48"/>
       <use x="63.623047" xlink:href="#DejaVuSans-46"/>
       <use x="95.410156" xlink:href="#DejaVuSans-51"/>
      </g>
     </g>
    </g>
    <g id="xtick_5">
     <g id="line2d_5">
      <g>
       <use style="stroke:#000000;stroke-width:0.8;" x="638.111203" xlink:href="#ma6c161cfc2" y="362.4915"/>
      </g>
     </g>
     <g id="text_5">
      <!-- 0.4 -->
      <defs>
       <path d="M 37.796875 64.3125 
L 12.890625 25.390625 
L 37.796875 25.390625 
z
M 35.203125 72.90625 
L 47.609375 72.90625 
L 47.609375 25.390625 
L 58.015625 25.390625 
L 58.015625 17.1875 
L 47.609375 17.1875 
L 47.609375 0 
L 37.796875 0 
L 37.796875 17.1875 
L 4.890625 17.1875 
L 4.890625 26.703125 
z
" id="DejaVuSans-52"/>
      </defs>
      <g transform="translate(630.15964 377.089938)scale(0.1 -0.1)">
       <use xlink:href="#DejaVuSans-48"/>
       <use x="63.623047" xlink:href="#DejaVuSans-46"/>
       <use x="95.410156" xlink:href="#DejaVuSans-52"/>
      </g>
     </g>
    </g>
    <g id="text_6">
     <!-- Tasa con NBI -->
     <defs>
      <path d="M -0.296875 72.90625 
L 61.375 72.90625 
L 61.375 64.59375 
L 35.5 64.59375 
L 35.5 0 
L 25.59375 0 
L 25.59375 64.59375 
L -0.296875 64.59375 
z
" id="DejaVuSans-84"/>
      <path d="M 34.28125 27.484375 
Q 23.390625 27.484375 19.1875 25 
Q 14.984375 22.515625 14.984375 16.5 
Q 14.984375 11.71875 18.140625 8.90625 
Q 21.296875 6.109375 26.703125 6.109375 
Q 34.1875 6.109375 38.703125 11.40625 
Q 43.21875 16.703125 43.21875 25.484375 
L 43.21875 27.484375 
z
M 52.203125 31.203125 
L 52.203125 0 
L 43.21875 0 
L 43.21875 8.296875 
Q 40.140625 3.328125 35.546875 0.953125 
Q 30.953125 -1.421875 24.3125 -1.421875 
Q 15.921875 -1.421875 10.953125 3.296875 
Q 6 8.015625 6 15.921875 
Q 6 25.140625 12.171875 29.828125 
Q 18.359375 34.515625 30.609375 34.515625 
L 43.21875 34.515625 
L 43.21875 35.40625 
Q 43.21875 41.609375 39.140625 45 
Q 35.0625 48.390625 27.6875 48.390625 
Q 23 48.390625 18.546875 47.265625 
Q 14.109375 46.140625 10.015625 43.890625 
L 10.015625 52.203125 
Q 14.9375 54.109375 19.578125 55.046875 
Q 24.21875 56 28.609375 56 
Q 40.484375 56 46.34375 49.84375 
Q 52.203125 43.703125 52.203125 31.203125 
z
" id="DejaVuSans-97"/>
      <path d="M 44.28125 53.078125 
L 44.28125 44.578125 
Q 40.484375 46.53125 36.375 47.5 
Q 32.28125 48.484375 27.875 48.484375 
Q 21.1875 48.484375 17.84375 46.4375 
Q 14.5 44.390625 14.5 40.28125 
Q 14.5 37.15625 16.890625 35.375 
Q 19.28125 33.59375 26.515625 31.984375 
L 29.59375 31.296875 
Q 39.15625 29.25 43.1875 25.515625 
Q 47.21875 21.78125 47.21875 15.09375 
Q 47.21875 7.46875 41.1875 3.015625 
Q 35.15625 -1.421875 24.609375 -1.421875 
Q 20.21875 -1.421875 15.453125 -0.5625 
Q 10.6875 0.296875 5.421875 2 
L 5.421875 11.28125 
Q 10.40625 8.6875 15.234375 7.390625 
Q 20.0625 6.109375 24.8125 6.109375 
Q 31.15625 6.109375 34.5625 8.28125 
Q 37.984375 10.453125 37.984375 14.40625 
Q 37.984375 18.0625 35.515625 20.015625 
Q 33.0625 21.96875 24.703125 23.78125 
L 21.578125 24.515625 
Q 13.234375 26.265625 9.515625 29.90625 
Q 5.8125 33.546875 5.8125 39.890625 
Q 5.8125 47.609375 11.28125 51.796875 
Q 16.75 56 26.8125 56 
Q 31.78125 56 36.171875 55.265625 
Q 40.578125 54.546875 44.28125 53.078125 
z
" id="DejaVuSans-115"/>
      <path id="DejaVuSans-32"/>
      <path d="M 48.78125 52.59375 
L 48.78125 44.1875 
Q 44.96875 46.296875 41.140625 47.34375 
Q 37.3125 48.390625 33.40625 48.390625 
Q 24.65625 48.390625 19.8125 42.84375 
Q 14.984375 37.3125 14.984375 27.296875 
Q 14.984375 17.28125 19.8125 11.734375 
Q 24.65625 6.203125 33.40625 6.203125 
Q 37.3125 6.203125 41.140625 7.25 
Q 44.96875 8.296875 48.78125 10.40625 
L 48.78125 2.09375 
Q 45.015625 0.34375 40.984375 -0.53125 
Q 36.96875 -1.421875 32.421875 -1.421875 
Q 20.0625 -1.421875 12.78125 6.34375 
Q 5.515625 14.109375 5.515625 27.296875 
Q 5.515625 40.671875 12.859375 48.328125 
Q 20.21875 56 33.015625 56 
Q 37.15625 56 41.109375 55.140625 
Q 45.0625 54.296875 48.78125 52.59375 
z
" id="DejaVuSans-99"/>
      <path d="M 30.609375 48.390625 
Q 23.390625 48.390625 19.1875 42.75 
Q 14.984375 37.109375 14.984375 27.296875 
Q 14.984375 17.484375 19.15625 11.84375 
Q 23.34375 6.203125 30.609375 6.203125 
Q 37.796875 6.203125 41.984375 11.859375 
Q 46.1875 17.53125 46.1875 27.296875 
Q 46.1875 37.015625 41.984375 42.703125 
Q 37.796875 48.390625 30.609375 48.390625 
z
M 30.609375 56 
Q 42.328125 56 49.015625 48.375 
Q 55.71875 40.765625 55.71875 27.296875 
Q 55.71875 13.875 49.015625 6.21875 
Q 42.328125 -1.421875 30.609375 -1.421875 
Q 18.84375 -1.421875 12.171875 6.21875 
Q 5.515625 13.875 5.515625 27.296875 
Q 5.515625 40.765625 12.171875 48.375 
Q 18.84375 56 30.609375 56 
z
" id="DejaVuSans-111"/>
      <path d="M 54.890625 33.015625 
L 54.890625 0 
L 45.90625 0 
L 45.90625 32.71875 
Q 45.90625 40.484375 42.875 44.328125 
Q 39.84375 48.1875 33.796875 48.1875 
Q 26.515625 48.1875 22.3125 43.546875 
Q 18.109375 38.921875 18.109375 30.90625 
L 18.109375 0 
L 9.078125 0 
L 9.078125 54.6875 
L 18.109375 54.6875 
L 18.109375 46.1875 
Q 21.34375 51.125 25.703125 53.5625 
Q 30.078125 56 35.796875 56 
Q 45.21875 56 50.046875 50.171875 
Q 54.890625 44.34375 54.890625 33.015625 
z
" id="DejaVuSans-110"/>
      <path d="M 9.8125 72.90625 
L 23.09375 72.90625 
L 55.421875 11.921875 
L 55.421875 72.90625 
L 64.984375 72.90625 
L 64.984375 0 
L 51.703125 0 
L 19.390625 60.984375 
L 19.390625 0 
L 9.8125 0 
z
" id="DejaVuSans-78"/>
      <path d="M 19.671875 34.8125 
L 19.671875 8.109375 
L 35.5 8.109375 
Q 43.453125 8.109375 47.28125 11.40625 
Q 51.125 14.703125 51.125 21.484375 
Q 51.125 28.328125 47.28125 31.5625 
Q 43.453125 34.8125 35.5 34.8125 
z
M 19.671875 64.796875 
L 19.671875 42.828125 
L 34.28125 42.828125 
Q 41.5 42.828125 45.03125 45.53125 
Q 48.578125 48.25 48.578125 53.8125 
Q 48.578125 59.328125 45.03125 62.0625 
Q 41.5 64.796875 34.28125 64.796875 
z
M 9.8125 72.90625 
L 35.015625 72.90625 
Q 46.296875 72.90625 52.390625 68.21875 
Q 58.5 63.53125 58.5 54.890625 
Q 58.5 48.1875 55.375 44.234375 
Q 52.25 40.28125 46.1875 39.3125 
Q 53.46875 37.75 57.5 32.78125 
Q 61.53125 27.828125 61.53125 20.40625 
Q 61.53125 10.640625 54.890625 5.3125 
Q 48.25 0 35.984375 0 
L 9.8125 0 
z
" id="DejaVuSans-66"/>
      <path d="M 9.8125 72.90625 
L 19.671875 72.90625 
L 19.671875 0 
L 9.8125 0 
z
" id="DejaVuSans-73"/>
     </defs>
     <g transform="translate(381.497656 390.768062)scale(0.1 -0.1)">
      <use xlink:href="#DejaVuSans-84"/>
      <use x="60.833984" xlink:href="#DejaVuSans-97"/>
      <use x="122.113281" xlink:href="#DejaVuSans-115"/>
      <use x="174.212891" xlink:href="#DejaVuSans-97"/>
      <use x="235.492188" xlink:href="#DejaVuSans-32"/>
      <use x="267.279297" xlink:href="#DejaVuSans-99"/>
      <use x="322.259766" xlink:href="#DejaVuSans-111"/>
      <use x="383.441406" xlink:href="#DejaVuSans-110"/>
      <use x="446.820312" xlink:href="#DejaVuSans-32"/>
      <use x="478.607422" xlink:href="#DejaVuSans-78"/>
      <use x="553.412109" xlink:href="#DejaVuSans-66"/>
      <use x="622.015625" xlink:href="#DejaVuSans-73"/>
     </g>
    </g>
   </g>
   <g id="matplotlib.axis_2">
    <g id="ytick_1">
     <g id="line2d_6">
      <defs>
       <path d="M 0 0 
L -3.5 0 
" id="md2a7ae5b2c" style="stroke:#000000;stroke-width:0.8;"/>
      </defs>
      <g>
       <use style="stroke:#000000;stroke-width:0.8;" x="135.073438" xlink:href="#md2a7ae5b2c" y="77.1015"/>
      </g>
     </g>
     <g id="text_7">
      <!-- Avanzado -->
      <defs>
       <path d="M 34.1875 63.1875 
L 20.796875 26.90625 
L 47.609375 26.90625 
z
M 28.609375 72.90625 
L 39.796875 72.90625 
L 67.578125 0 
L 57.328125 0 
L 50.6875 18.703125 
L 17.828125 18.703125 
L 11.1875 0 
L 0.78125 0 
z
" id="DejaVuSans-65"/>
       <path d="M 2.984375 54.6875 
L 12.5 54.6875 
L 29.59375 8.796875 
L 46.6875 54.6875 
L 56.203125 54.6875 
L 35.6875 0 
L 23.484375 0 
z
" id="DejaVuSans-118"/>
       <path d="M 5.515625 54.6875 
L 48.1875 54.6875 
L 48.1875 46.484375 
L 14.40625 7.171875 
L 48.1875 7.171875 
L 48.1875 0 
L 4.296875 0 
L 4.296875 8.203125 
L 38.09375 47.515625 
L 5.515625 47.515625 
z
" id="DejaVuSans-122"/>
       <path d="M 45.40625 46.390625 
L 45.40625 75.984375 
L 54.390625 75.984375 
L 54.390625 0 
L 45.40625 0 
L 45.40625 8.203125 
Q 42.578125 3.328125 38.25 0.953125 
Q 33.9375 -1.421875 27.875 -1.421875 
Q 17.96875 -1.421875 11.734375 6.484375 
Q 5.515625 14.40625 5.515625 27.296875 
Q 5.515625 40.1875 11.734375 48.09375 
Q 17.96875 56 27.875 56 
Q 33.9375 56 38.25 53.625 
Q 42.578125 51.265625 45.40625 46.390625 
z
M 14.796875 27.296875 
Q 14.796875 17.390625 18.875 11.75 
Q 22.953125 6.109375 30.078125 6.109375 
Q 37.203125 6.109375 41.296875 11.75 
Q 45.40625 17.390625 45.40625 27.296875 
Q 45.40625 37.203125 41.296875 42.84375 
Q 37.203125 48.484375 30.078125 48.484375 
Q 22.953125 48.484375 18.875 42.84375 
Q 14.796875 37.203125 14.796875 27.296875 
z
" id="DejaVuSans-100"/>
      </defs>
      <g transform="translate(79.0125 80.900719)scale(0.1 -0.1)">
       <use xlink:href="#DejaVuSans-65"/>
       <use x="68.330078" xlink:href="#DejaVuSans-118"/>
       <use x="127.509766" xlink:href="#DejaVuSans-97"/>
       <use x="188.789062" xlink:href="#DejaVuSans-110"/>
       <use x="252.167969" xlink:href="#DejaVuSans-122"/>
       <use x="304.658203" xlink:href="#DejaVuSans-97"/>
       <use x="365.9375" xlink:href="#DejaVuSans-100"/>
       <use x="429.414062" xlink:href="#DejaVuSans-111"/>
      </g>
     </g>
    </g>
    <g id="ytick_2">
     <g id="line2d_7">
      <g>
       <use style="stroke:#000000;stroke-width:0.8;" x="135.073438" xlink:href="#md2a7ae5b2c" y="158.6415"/>
      </g>
     </g>
     <g id="text_8">
      <!-- Satisfactorio -->
      <defs>
       <path d="M 53.515625 70.515625 
L 53.515625 60.890625 
Q 47.90625 63.578125 42.921875 64.890625 
Q 37.9375 66.21875 33.296875 66.21875 
Q 25.25 66.21875 20.875 63.09375 
Q 16.5 59.96875 16.5 54.203125 
Q 16.5 49.359375 19.40625 46.890625 
Q 22.3125 44.4375 30.421875 42.921875 
L 36.375 41.703125 
Q 47.40625 39.59375 52.65625 34.296875 
Q 57.90625 29 57.90625 20.125 
Q 57.90625 9.515625 50.796875 4.046875 
Q 43.703125 -1.421875 29.984375 -1.421875 
Q 24.8125 -1.421875 18.96875 -0.25 
Q 13.140625 0.921875 6.890625 3.21875 
L 6.890625 13.375 
Q 12.890625 10.015625 18.65625 8.296875 
Q 24.421875 6.59375 29.984375 6.59375 
Q 38.421875 6.59375 43.015625 9.90625 
Q 47.609375 13.234375 47.609375 19.390625 
Q 47.609375 24.75 44.3125 27.78125 
Q 41.015625 30.8125 33.5 32.328125 
L 27.484375 33.5 
Q 16.453125 35.6875 11.515625 40.375 
Q 6.59375 45.0625 6.59375 53.421875 
Q 6.59375 63.09375 13.40625 68.65625 
Q 20.21875 74.21875 32.171875 74.21875 
Q 37.3125 74.21875 42.625 73.28125 
Q 47.953125 72.359375 53.515625 70.515625 
z
" id="DejaVuSans-83"/>
       <path d="M 18.3125 70.21875 
L 18.3125 54.6875 
L 36.8125 54.6875 
L 36.8125 47.703125 
L 18.3125 47.703125 
L 18.3125 18.015625 
Q 18.3125 11.328125 20.140625 9.421875 
Q 21.96875 7.515625 27.59375 7.515625 
L 36.8125 7.515625 
L 36.8125 0 
L 27.59375 0 
Q 17.1875 0 13.234375 3.875 
Q 9.28125 7.765625 9.28125 18.015625 
L 9.28125 47.703125 
L 2.6875 47.703125 
L 2.6875 54.6875 
L 9.28125 54.6875 
L 9.28125 70.21875 
z
" id="DejaVuSans-116"/>
       <path d="M 9.421875 54.6875 
L 18.40625 54.6875 
L 18.40625 0 
L 9.421875 0 
z
M 9.421875 75.984375 
L 18.40625 75.984375 
L 18.40625 64.59375 
L 9.421875 64.59375 
z
" id="DejaVuSans-105"/>
       <path d="M 37.109375 75.984375 
L 37.109375 68.5 
L 28.515625 68.5 
Q 23.6875 68.5 21.796875 66.546875 
Q 19.921875 64.59375 19.921875 59.515625 
L 19.921875 54.6875 
L 34.71875 54.6875 
L 34.71875 47.703125 
L 19.921875 47.703125 
L 19.921875 0 
L 10.890625 0 
L 10.890625 47.703125 
L 2.296875 47.703125 
L 2.296875 54.6875 
L 10.890625 54.6875 
L 10.890625 58.5 
Q 10.890625 67.625 15.140625 71.796875 
Q 19.390625 75.984375 28.609375 75.984375 
z
" id="DejaVuSans-102"/>
       <path d="M 41.109375 46.296875 
Q 39.59375 47.171875 37.8125 47.578125 
Q 36.03125 48 33.890625 48 
Q 26.265625 48 22.1875 43.046875 
Q 18.109375 38.09375 18.109375 28.8125 
L 18.109375 0 
L 9.078125 0 
L 9.078125 54.6875 
L 18.109375 54.6875 
L 18.109375 46.1875 
Q 20.953125 51.171875 25.484375 53.578125 
Q 30.03125 56 36.53125 56 
Q 37.453125 56 38.578125 55.875 
Q 39.703125 55.765625 41.0625 55.515625 
z
" id="DejaVuSans-114"/>
      </defs>
      <g transform="translate(65.495313 162.440719)scale(0.1 -0.1)">
       <use xlink:href="#DejaVuSans-83"/>
       <use x="63.476562" xlink:href="#DejaVuSans-97"/>
       <use x="124.755859" xlink:href="#DejaVuSans-116"/>
       <use x="163.964844" xlink:href="#DejaVuSans-105"/>
       <use x="191.748047" xlink:href="#DejaVuSans-115"/>
       <use x="243.847656" xlink:href="#DejaVuSans-102"/>
       <use x="279.052734" xlink:href="#DejaVuSans-97"/>
       <use x="340.332031" xlink:href="#DejaVuSans-99"/>
       <use x="395.3125" xlink:href="#DejaVuSans-116"/>
       <use x="434.521484" xlink:href="#DejaVuSans-111"/>
       <use x="495.703125" xlink:href="#DejaVuSans-114"/>
       <use x="536.816406" xlink:href="#DejaVuSans-105"/>
       <use x="564.599609" xlink:href="#DejaVuSans-111"/>
      </g>
     </g>
    </g>
    <g id="ytick_3">
     <g id="line2d_8">
      <g>
       <use style="stroke:#000000;stroke-width:0.8;" x="135.073438" xlink:href="#md2a7ae5b2c" y="240.1815"/>
      </g>
     </g>
     <g id="text_9">
      <!-- Básico -->
      <defs>
       <path d="M 34.28125 27.484375 
Q 23.390625 27.484375 19.1875 25 
Q 14.984375 22.515625 14.984375 16.5 
Q 14.984375 11.71875 18.140625 8.90625 
Q 21.296875 6.109375 26.703125 6.109375 
Q 34.1875 6.109375 38.703125 11.40625 
Q 43.21875 16.703125 43.21875 25.484375 
L 43.21875 27.484375 
z
M 52.203125 31.203125 
L 52.203125 0 
L 43.21875 0 
L 43.21875 8.296875 
Q 40.140625 3.328125 35.546875 0.953125 
Q 30.953125 -1.421875 24.3125 -1.421875 
Q 15.921875 -1.421875 10.953125 3.296875 
Q 6 8.015625 6 15.921875 
Q 6 25.140625 12.171875 29.828125 
Q 18.359375 34.515625 30.609375 34.515625 
L 43.21875 34.515625 
L 43.21875 35.40625 
Q 43.21875 41.609375 39.140625 45 
Q 35.0625 48.390625 27.6875 48.390625 
Q 23 48.390625 18.546875 47.265625 
Q 14.109375 46.140625 10.015625 43.890625 
L 10.015625 52.203125 
Q 14.9375 54.109375 19.578125 55.046875 
Q 24.21875 56 28.609375 56 
Q 40.484375 56 46.34375 49.84375 
Q 52.203125 43.703125 52.203125 31.203125 
z
M 35.796875 79.984375 
L 45.515625 79.984375 
L 29.59375 61.625 
L 22.125 61.625 
z
" id="DejaVuSans-225"/>
      </defs>
      <g transform="translate(95.479688 243.980719)scale(0.1 -0.1)">
       <use xlink:href="#DejaVuSans-66"/>
       <use x="68.603516" xlink:href="#DejaVuSans-225"/>
       <use x="129.882812" xlink:href="#DejaVuSans-115"/>
       <use x="181.982422" xlink:href="#DejaVuSans-105"/>
       <use x="209.765625" xlink:href="#DejaVuSans-99"/>
       <use x="264.746094" xlink:href="#DejaVuSans-111"/>
      </g>
     </g>
    </g>
    <g id="ytick_4">
     <g id="line2d_9">
      <g>
       <use style="stroke:#000000;stroke-width:0.8;" x="135.073438" xlink:href="#md2a7ae5b2c" y="321.7215"/>
      </g>
     </g>
     <g id="text_10">
      <!-- Por debajo del básico -->
      <defs>
       <path d="M 19.671875 64.796875 
L 19.671875 37.40625 
L 32.078125 37.40625 
Q 38.96875 37.40625 42.71875 40.96875 
Q 46.484375 44.53125 46.484375 51.125 
Q 46.484375 57.671875 42.71875 61.234375 
Q 38.96875 64.796875 32.078125 64.796875 
z
M 9.8125 72.90625 
L 32.078125 72.90625 
Q 44.34375 72.90625 50.609375 67.359375 
Q 56.890625 61.8125 56.890625 51.125 
Q 56.890625 40.328125 50.609375 34.8125 
Q 44.34375 29.296875 32.078125 29.296875 
L 19.671875 29.296875 
L 19.671875 0 
L 9.8125 0 
z
" id="DejaVuSans-80"/>
       <path d="M 56.203125 29.59375 
L 56.203125 25.203125 
L 14.890625 25.203125 
Q 15.484375 15.921875 20.484375 11.0625 
Q 25.484375 6.203125 34.421875 6.203125 
Q 39.59375 6.203125 44.453125 7.46875 
Q 49.3125 8.734375 54.109375 11.28125 
L 54.109375 2.78125 
Q 49.265625 0.734375 44.1875 -0.34375 
Q 39.109375 -1.421875 33.890625 -1.421875 
Q 20.796875 -1.421875 13.15625 6.1875 
Q 5.515625 13.8125 5.515625 26.8125 
Q 5.515625 40.234375 12.765625 48.109375 
Q 20.015625 56 32.328125 56 
Q 43.359375 56 49.78125 48.890625 
Q 56.203125 41.796875 56.203125 29.59375 
z
M 47.21875 32.234375 
Q 47.125 39.59375 43.09375 43.984375 
Q 39.0625 48.390625 32.421875 48.390625 
Q 24.90625 48.390625 20.390625 44.140625 
Q 15.875 39.890625 15.1875 32.171875 
z
" id="DejaVuSans-101"/>
       <path d="M 48.6875 27.296875 
Q 48.6875 37.203125 44.609375 42.84375 
Q 40.53125 48.484375 33.40625 48.484375 
Q 26.265625 48.484375 22.1875 42.84375 
Q 18.109375 37.203125 18.109375 27.296875 
Q 18.109375 17.390625 22.1875 11.75 
Q 26.265625 6.109375 33.40625 6.109375 
Q 40.53125 6.109375 44.609375 11.75 
Q 48.6875 17.390625 48.6875 27.296875 
z
M 18.109375 46.390625 
Q 20.953125 51.265625 25.265625 53.625 
Q 29.59375 56 35.59375 56 
Q 45.5625 56 51.78125 48.09375 
Q 58.015625 40.1875 58.015625 27.296875 
Q 58.015625 14.40625 51.78125 6.484375 
Q 45.5625 -1.421875 35.59375 -1.421875 
Q 29.59375 -1.421875 25.265625 0.953125 
Q 20.953125 3.328125 18.109375 8.203125 
L 18.109375 0 
L 9.078125 0 
L 9.078125 75.984375 
L 18.109375 75.984375 
z
" id="DejaVuSans-98"/>
       <path d="M 9.421875 54.6875 
L 18.40625 54.6875 
L 18.40625 -0.984375 
Q 18.40625 -11.421875 14.421875 -16.109375 
Q 10.453125 -20.796875 1.609375 -20.796875 
L -1.8125 -20.796875 
L -1.8125 -13.1875 
L 0.59375 -13.1875 
Q 5.71875 -13.1875 7.5625 -10.8125 
Q 9.421875 -8.453125 9.421875 -0.984375 
z
M 9.421875 75.984375 
L 18.40625 75.984375 
L 18.40625 64.59375 
L 9.421875 64.59375 
z
" id="DejaVuSans-106"/>
       <path d="M 9.421875 75.984375 
L 18.40625 75.984375 
L 18.40625 0 
L 9.421875 0 
z
" id="DejaVuSans-108"/>
      </defs>
      <g transform="translate(21.048438 325.720719)scale(0.1 -0.1)">
       <use xlink:href="#DejaVuSans-80"/>
       <use x="60.255859" xlink:href="#DejaVuSans-111"/>
       <use x="121.4375" xlink:href="#DejaVuSans-114"/>
       <use x="162.550781" xlink:href="#DejaVuSans-32"/>
       <use x="194.337891" xlink:href="#DejaVuSans-100"/>
       <use x="257.814453" xlink:href="#DejaVuSans-101"/>
       <use x="319.337891" xlink:href="#DejaVuSans-98"/>
       <use x="382.814453" xlink:href="#DejaVuSans-97"/>
       <use x="444.09375" xlink:href="#DejaVuSans-106"/>
       <use x="471.876953" xlink:href="#DejaVuSans-111"/>
       <use x="533.058594" xlink:href="#DejaVuSans-32"/>
       <use x="564.845703" xlink:href="#DejaVuSans-100"/>
       <use x="628.322266" xlink:href="#DejaVuSans-101"/>
       <use x="689.845703" xlink:href="#DejaVuSans-108"/>
       <use x="717.628906" xlink:href="#DejaVuSans-32"/>
       <use x="749.416016" xlink:href="#DejaVuSans-98"/>
       <use x="812.892578" xlink:href="#DejaVuSans-225"/>
       <use x="874.171875" xlink:href="#DejaVuSans-115"/>
       <use x="926.271484" xlink:href="#DejaVuSans-105"/>
       <use x="954.054688" xlink:href="#DejaVuSans-99"/>
       <use x="1009.035156" xlink:href="#DejaVuSans-111"/>
      </g>
     </g>
    </g>
    <g id="text_11">
     <!-- Nivel de desempeño en naturales -->
     <defs>
      <path d="M 52 44.1875 
Q 55.375 50.25 60.0625 53.125 
Q 64.75 56 71.09375 56 
Q 79.640625 56 84.28125 50.015625 
Q 88.921875 44.046875 88.921875 33.015625 
L 88.921875 0 
L 79.890625 0 
L 79.890625 32.71875 
Q 79.890625 40.578125 77.09375 44.375 
Q 74.3125 48.1875 68.609375 48.1875 
Q 61.625 48.1875 57.5625 43.546875 
Q 53.515625 38.921875 53.515625 30.90625 
L 53.515625 0 
L 44.484375 0 
L 44.484375 32.71875 
Q 44.484375 40.625 41.703125 44.40625 
Q 38.921875 48.1875 33.109375 48.1875 
Q 26.21875 48.1875 22.15625 43.53125 
Q 18.109375 38.875 18.109375 30.90625 
L 18.109375 0 
L 9.078125 0 
L 9.078125 54.6875 
L 18.109375 54.6875 
L 18.109375 46.1875 
Q 21.1875 51.21875 25.484375 53.609375 
Q 29.78125 56 35.6875 56 
Q 41.65625 56 45.828125 52.96875 
Q 50 49.953125 52 44.1875 
z
" id="DejaVuSans-109"/>
      <path d="M 18.109375 8.203125 
L 18.109375 -20.796875 
L 9.078125 -20.796875 
L 9.078125 54.6875 
L 18.109375 54.6875 
L 18.109375 46.390625 
Q 20.953125 51.265625 25.265625 53.625 
Q 29.59375 56 35.59375 56 
Q 45.5625 56 51.78125 48.09375 
Q 58.015625 40.1875 58.015625 27.296875 
Q 58.015625 14.40625 51.78125 6.484375 
Q 45.5625 -1.421875 35.59375 -1.421875 
Q 29.59375 -1.421875 25.265625 0.953125 
Q 20.953125 3.328125 18.109375 8.203125 
z
M 48.6875 27.296875 
Q 48.6875 37.203125 44.609375 42.84375 
Q 40.53125 48.484375 33.40625 48.484375 
Q 26.265625 48.484375 22.1875 42.84375 
Q 18.109375 37.203125 18.109375 27.296875 
Q 18.109375 17.390625 22.1875 11.75 
Q 26.265625 6.109375 33.40625 6.109375 
Q 40.53125 6.109375 44.609375 11.75 
Q 48.6875 17.390625 48.6875 27.296875 
z
" id="DejaVuSans-112"/>
      <path d="M 54.890625 33.015625 
L 54.890625 0 
L 45.90625 0 
L 45.90625 32.71875 
Q 45.90625 40.484375 42.875 44.328125 
Q 39.84375 48.1875 33.796875 48.1875 
Q 26.515625 48.1875 22.3125 43.546875 
Q 18.109375 38.921875 18.109375 30.90625 
L 18.109375 0 
L 9.078125 0 
L 9.078125 54.6875 
L 18.109375 54.6875 
L 18.109375 46.1875 
Q 21.34375 51.125 25.703125 53.5625 
Q 30.078125 56 35.796875 56 
Q 45.21875 56 50.046875 50.171875 
Q 54.890625 44.34375 54.890625 33.015625 
z
M 32.234375 66.890625 
L 29.4375 69.578125 
Q 28.375 70.5625 27.5625 71.015625 
Q 26.765625 71.484375 26.125 71.484375 
Q 24.265625 71.484375 23.390625 69.703125 
Q 22.515625 67.921875 22.40625 63.921875 
L 16.3125 63.921875 
Q 16.40625 70.515625 18.890625 74.09375 
Q 21.390625 77.6875 25.828125 77.6875 
Q 27.6875 77.6875 29.25 77 
Q 30.8125 76.3125 32.625 74.703125 
L 35.40625 72.015625 
Q 36.46875 71.046875 37.28125 70.578125 
Q 38.09375 70.125 38.71875 70.125 
Q 40.578125 70.125 41.453125 71.90625 
Q 42.328125 73.6875 42.4375 77.6875 
L 48.53125 77.6875 
Q 48.4375 71.09375 45.9375 67.5 
Q 43.453125 63.921875 39.015625 63.921875 
Q 37.15625 63.921875 35.59375 64.59375 
Q 34.03125 65.28125 32.234375 66.890625 
z
" id="DejaVuSans-241"/>
      <path d="M 8.5 21.578125 
L 8.5 54.6875 
L 17.484375 54.6875 
L 17.484375 21.921875 
Q 17.484375 14.15625 20.5 10.265625 
Q 23.53125 6.390625 29.59375 6.390625 
Q 36.859375 6.390625 41.078125 11.03125 
Q 45.3125 15.671875 45.3125 23.6875 
L 45.3125 54.6875 
L 54.296875 54.6875 
L 54.296875 0 
L 45.3125 0 
L 45.3125 8.40625 
Q 42.046875 3.421875 37.71875 1 
Q 33.40625 -1.421875 27.6875 -1.421875 
Q 18.265625 -1.421875 13.375 4.4375 
Q 8.5 10.296875 8.5 21.578125 
z
M 31.109375 56 
z
" id="DejaVuSans-117"/>
     </defs>
     <g transform="translate(14.96875 283.651344)rotate(-90)scale(0.1 -0.1)">
      <use xlink:href="#DejaVuSans-78"/>
      <use x="74.804688" xlink:href="#DejaVuSans-105"/>
      <use x="102.587891" xlink:href="#DejaVuSans-118"/>
      <use x="161.767578" xlink:href="#DejaVuSans-101"/>
      <use x="223.291016" xlink:href="#DejaVuSans-108"/>
      <use x="251.074219" xlink:href="#DejaVuSans-32"/>
      <use x="282.861328" xlink:href="#DejaVuSans-100"/>
      <use x="346.337891" xlink:href="#DejaVuSans-101"/>
      <use x="407.861328" xlink:href="#DejaVuSans-32"/>
      <use x="439.648438" xlink:href="#DejaVuSans-100"/>
      <use x="503.125" xlink:href="#DejaVuSans-101"/>
      <use x="564.648438" xlink:href="#DejaVuSans-115"/>
      <use x="616.748047" xlink:href="#DejaVuSans-101"/>
      <use x="678.271484" xlink:href="#DejaVuSans-109"/>
      <use x="775.683594" xlink:href="#DejaVuSans-112"/>
      <use x="839.160156" xlink:href="#DejaVuSans-101"/>
      <use x="900.683594" xlink:href="#DejaVuSans-241"/>
      <use x="964.0625" xlink:href="#DejaVuSans-111"/>
      <use x="1025.244141" xlink:href="#DejaVuSans-32"/>
      <use x="1057.03125" xlink:href="#DejaVuSans-101"/>
      <use x="1118.554688" xlink:href="#DejaVuSans-110"/>
      <use x="1181.933594" xlink:href="#DejaVuSans-32"/>
      <use x="1213.720703" xlink:href="#DejaVuSans-110"/>
      <use x="1277.099609" xlink:href="#DejaVuSans-97"/>
      <use x="1338.378906" xlink:href="#DejaVuSans-116"/>
      <use x="1377.587891" xlink:href="#DejaVuSans-117"/>
      <use x="1440.966797" xlink:href="#DejaVuSans-114"/>
      <use x="1482.080078" xlink:href="#DejaVuSans-97"/>
      <use x="1543.359375" xlink:href="#DejaVuSans-108"/>
      <use x="1571.142578" xlink:href="#DejaVuSans-101"/>
      <use x="1632.666016" xlink:href="#DejaVuSans-115"/>
     </g>
    </g>
   </g>
   <g id="line2d_10">
    <path clip-path="url(#p436d65bd64)" d="M 193.160429 77.1015 
L 421.014253 77.1015 
" style="fill:none;stroke:#262626;stroke-linecap:square;stroke-width:1.5;"/>
   </g>
   <g id="line2d_11">
    <path clip-path="url(#p436d65bd64)" d="M 231.01534 77.1015 
L 310.213631 77.1015 
" style="fill:none;stroke:#262626;stroke-linecap:square;stroke-width:4.5;"/>
   </g>
   <g id="line2d_12">
    <path clip-path="url(#p436d65bd64)" d="M 193.160429 158.6415 
L 410.558741 158.6415 
" style="fill:none;stroke:#262626;stroke-linecap:square;stroke-width:1.5;"/>
   </g>
   <g id="line2d_13">
    <path clip-path="url(#p436d65bd64)" d="M 240.362194 158.6415 
L 312.090749 158.6415 
" style="fill:none;stroke:#262626;stroke-linecap:square;stroke-width:4.5;"/>
   </g>
   <g id="line2d_14">
    <path clip-path="url(#p436d65bd64)" d="M 193.160429 240.1815 
L 421.014253 240.1815 
" style="fill:none;stroke:#262626;stroke-linecap:square;stroke-width:1.5;"/>
   </g>
   <g id="line2d_15">
    <path clip-path="url(#p436d65bd64)" d="M 240.79376 240.1815 
L 315.269821 240.1815 
" style="fill:none;stroke:#262626;stroke-linecap:square;stroke-width:4.5;"/>
   </g>
   <g id="line2d_16">
    <path clip-path="url(#p436d65bd64)" d="M 193.160429 321.7215 
L 439.145078 321.7215 
" style="fill:none;stroke:#262626;stroke-linecap:square;stroke-width:1.5;"/>
   </g>
   <g id="line2d_17">
    <path clip-path="url(#p436d65bd64)" d="M 240.79376 321.7215 
L 320.473256 321.7215 
" style="fill:none;stroke:#262626;stroke-linecap:square;stroke-width:4.5;"/>
   </g>
   <g id="patch_3">
    <path d="M 135.073438 362.4915 
L 135.073438 36.3315 
" style="fill:none;stroke:#000000;stroke-linecap:square;stroke-linejoin:miter;stroke-width:0.8;"/>
   </g>
   <g id="patch_4">
    <path d="M 693.073437 362.4915 
L 693.073437 36.3315 
" style="fill:none;stroke:#000000;stroke-linecap:square;stroke-linejoin:miter;stroke-width:0.8;"/>
   </g>
   <g id="patch_5">
    <path d="M 135.073438 362.4915 
L 693.073437 362.4915 
" style="fill:none;stroke:#000000;stroke-linecap:square;stroke-linejoin:miter;stroke-width:0.8;"/>
   </g>
   <g id="patch_6">
    <path d="M 135.073438 36.3315 
L 693.073437 36.3315 
" style="fill:none;stroke:#000000;stroke-linecap:square;stroke-linejoin:miter;stroke-width:0.8;"/>
   </g>
   <g id="PathCollection_1">
    <defs>
     <path d="M 0 1.5 
C 0.397805 1.5 0.77937 1.341951 1.06066 1.06066 
C 1.341951 0.77937 1.5 0.397805 1.5 0 
C 1.5 -0.397805 1.341951 -0.77937 1.06066 -1.06066 
C 0.77937 -1.341951 0.397805 -1.5 0 -1.5 
C -0.397805 -1.5 -0.77937 -1.341951 -1.06066 -1.06066 
C -1.341951 -0.77937 -1.5 -0.397805 -1.5 0 
C -1.5 0.397805 -1.341951 0.77937 -1.06066 1.06066 
C -0.77937 1.341951 -0.397805 1.5 0 1.5 
z
" id="ma28016baab" style="stroke:#262626;"/>
    </defs>
    <g clip-path="url(#p436d65bd64)">
     <use style="fill:#ffffff;stroke:#262626;" x="268.520751" xlink:href="#ma28016baab" y="77.1015"/>
    </g>
   </g>
   <g id="PathCollection_2">
    <g clip-path="url(#p436d65bd64)">
     <use style="fill:#ffffff;stroke:#262626;" x="276.975504" xlink:href="#ma28016baab" y="158.6415"/>
    </g>
   </g>
   <g id="PathCollection_3">
    <g clip-path="url(#p436d65bd64)">
     <use style="fill:#ffffff;stroke:#262626;" x="280.399501" xlink:href="#ma28016baab" y="240.1815"/>
    </g>
   </g>
   <g id="PathCollection_4">
    <g clip-path="url(#p436d65bd64)">
     <use style="fill:#ffffff;stroke:#262626;" x="282.998076" xlink:href="#ma28016baab" y="321.7215"/>
    </g>
   </g>
   <g id="text_12">
    <!-- Distribución de: Tasa con NBI según el desempeño en naturales -->
    <defs>
     <path d="M 19.671875 64.796875 
L 19.671875 8.109375 
L 31.59375 8.109375 
Q 46.6875 8.109375 53.6875 14.9375 
Q 60.6875 21.78125 60.6875 36.53125 
Q 60.6875 51.171875 53.6875 57.984375 
Q 46.6875 64.796875 31.59375 64.796875 
z
M 9.8125 72.90625 
L 30.078125 72.90625 
Q 51.265625 72.90625 61.171875 64.09375 
Q 71.09375 55.28125 71.09375 36.53125 
Q 71.09375 17.671875 61.125 8.828125 
Q 51.171875 0 30.078125 0 
L 9.8125 0 
z
" id="DejaVuSans-68"/>
     <path d="M 30.609375 48.390625 
Q 23.390625 48.390625 19.1875 42.75 
Q 14.984375 37.109375 14.984375 27.296875 
Q 14.984375 17.484375 19.15625 11.84375 
Q 23.34375 6.203125 30.609375 6.203125 
Q 37.796875 6.203125 41.984375 11.859375 
Q 46.1875 17.53125 46.1875 27.296875 
Q 46.1875 37.015625 41.984375 42.703125 
Q 37.796875 48.390625 30.609375 48.390625 
z
M 30.609375 56 
Q 42.328125 56 49.015625 48.375 
Q 55.71875 40.765625 55.71875 27.296875 
Q 55.71875 13.875 49.015625 6.21875 
Q 42.328125 -1.421875 30.609375 -1.421875 
Q 18.84375 -1.421875 12.171875 6.21875 
Q 5.515625 13.875 5.515625 27.296875 
Q 5.515625 40.765625 12.171875 48.375 
Q 18.84375 56 30.609375 56 
z
M 37.40625 79.984375 
L 47.125 79.984375 
L 31.203125 61.625 
L 23.734375 61.625 
z
" id="DejaVuSans-243"/>
     <path d="M 11.71875 12.40625 
L 22.015625 12.40625 
L 22.015625 0 
L 11.71875 0 
z
M 11.71875 51.703125 
L 22.015625 51.703125 
L 22.015625 39.3125 
L 11.71875 39.3125 
z
" id="DejaVuSans-58"/>
     <path d="M 45.40625 27.984375 
Q 45.40625 37.75 41.375 43.109375 
Q 37.359375 48.484375 30.078125 48.484375 
Q 22.859375 48.484375 18.828125 43.109375 
Q 14.796875 37.75 14.796875 27.984375 
Q 14.796875 18.265625 18.828125 12.890625 
Q 22.859375 7.515625 30.078125 7.515625 
Q 37.359375 7.515625 41.375 12.890625 
Q 45.40625 18.265625 45.40625 27.984375 
z
M 54.390625 6.78125 
Q 54.390625 -7.171875 48.1875 -13.984375 
Q 42 -20.796875 29.203125 -20.796875 
Q 24.46875 -20.796875 20.265625 -20.09375 
Q 16.0625 -19.390625 12.109375 -17.921875 
L 12.109375 -9.1875 
Q 16.0625 -11.328125 19.921875 -12.34375 
Q 23.78125 -13.375 27.78125 -13.375 
Q 36.625 -13.375 41.015625 -8.765625 
Q 45.40625 -4.15625 45.40625 5.171875 
L 45.40625 9.625 
Q 42.625 4.78125 38.28125 2.390625 
Q 33.9375 0 27.875 0 
Q 17.828125 0 11.671875 7.65625 
Q 5.515625 15.328125 5.515625 27.984375 
Q 5.515625 40.671875 11.671875 48.328125 
Q 17.828125 56 27.875 56 
Q 33.9375 56 38.28125 53.609375 
Q 42.625 51.21875 45.40625 46.390625 
L 45.40625 54.6875 
L 54.390625 54.6875 
z
" id="DejaVuSans-103"/>
     <path d="M 8.5 21.578125 
L 8.5 54.6875 
L 17.484375 54.6875 
L 17.484375 21.921875 
Q 17.484375 14.15625 20.5 10.265625 
Q 23.53125 6.390625 29.59375 6.390625 
Q 36.859375 6.390625 41.078125 11.03125 
Q 45.3125 15.671875 45.3125 23.6875 
L 45.3125 54.6875 
L 54.296875 54.6875 
L 54.296875 0 
L 45.3125 0 
L 45.3125 8.40625 
Q 42.046875 3.421875 37.71875 1 
Q 33.40625 -1.421875 27.6875 -1.421875 
Q 18.265625 -1.421875 13.375 4.4375 
Q 8.5 10.296875 8.5 21.578125 
z
M 31.109375 56 
z
M 37.796875 79.984375 
L 47.515625 79.984375 
L 31.59375 61.625 
L 24.125 61.625 
z
" id="DejaVuSans-250"/>
    </defs>
    <g transform="translate(221.67875 16.798125)scale(0.12 -0.12)">
     <use xlink:href="#DejaVuSans-68"/>
     <use x="77.001953" xlink:href="#DejaVuSans-105"/>
     <use x="104.785156" xlink:href="#DejaVuSans-115"/>
     <use x="156.884766" xlink:href="#DejaVuSans-116"/>
     <use x="196.09375" xlink:href="#DejaVuSans-114"/>
     <use x="237.207031" xlink:href="#DejaVuSans-105"/>
     <use x="264.990234" xlink:href="#DejaVuSans-98"/>
     <use x="328.466797" xlink:href="#DejaVuSans-117"/>
     <use x="391.845703" xlink:href="#DejaVuSans-99"/>
     <use x="446.826172" xlink:href="#DejaVuSans-105"/>
     <use x="474.609375" xlink:href="#DejaVuSans-243"/>
     <use x="535.791016" xlink:href="#DejaVuSans-110"/>
     <use x="599.169922" xlink:href="#DejaVuSans-32"/>
     <use x="630.957031" xlink:href="#DejaVuSans-100"/>
     <use x="694.433594" xlink:href="#DejaVuSans-101"/>
     <use x="755.957031" xlink:href="#DejaVuSans-58"/>
     <use x="789.648438" xlink:href="#DejaVuSans-32"/>
     <use x="821.435547" xlink:href="#DejaVuSans-84"/>
     <use x="882.269531" xlink:href="#DejaVuSans-97"/>
     <use x="943.548828" xlink:href="#DejaVuSans-115"/>
     <use x="995.648438" xlink:href="#DejaVuSans-97"/>
     <use x="1056.927734" xlink:href="#DejaVuSans-32"/>
     <use x="1088.714844" xlink:href="#DejaVuSans-99"/>
     <use x="1143.695312" xlink:href="#DejaVuSans-111"/>
     <use x="1204.876953" xlink:href="#DejaVuSans-110"/>
     <use x="1268.255859" xlink:href="#DejaVuSans-32"/>
     <use x="1300.042969" xlink:href="#DejaVuSans-78"/>
     <use x="1374.847656" xlink:href="#DejaVuSans-66"/>
     <use x="1443.451172" xlink:href="#DejaVuSans-73"/>
     <use x="1472.943359" xlink:href="#DejaVuSans-32"/>
     <use x="1504.730469" xlink:href="#DejaVuSans-115"/>
     <use x="1556.830078" xlink:href="#DejaVuSans-101"/>
     <use x="1618.353516" xlink:href="#DejaVuSans-103"/>
     <use x="1681.830078" xlink:href="#DejaVuSans-250"/>
     <use x="1745.208984" xlink:href="#DejaVuSans-110"/>
     <use x="1808.587891" xlink:href="#DejaVuSans-32"/>
     <use x="1840.375" xlink:href="#DejaVuSans-101"/>
     <use x="1901.898438" xlink:href="#DejaVuSans-108"/>
     <use x="1929.681641" xlink:href="#DejaVuSans-32"/>
     <use x="1961.46875" xlink:href="#DejaVuSans-100"/>
     <use x="2024.945312" xlink:href="#DejaVuSans-101"/>
     <use x="2086.46875" xlink:href="#DejaVuSans-115"/>
     <use x="2138.568359" xlink:href="#DejaVuSans-101"/>
     <use x="2200.091797" xlink:href="#DejaVuSans-109"/>
     <use x="2297.503906" xlink:href="#DejaVuSans-112"/>
     <use x="2360.980469" xlink:href="#DejaVuSans-101"/>
     <use x="2422.503906" xlink:href="#DejaVuSans-241"/>
     <use x="2485.882812" xlink:href="#DejaVuSans-111"/>
     <use x="2547.064453" xlink:href="#DejaVuSans-32"/>
     <use x="2578.851562" xlink:href="#DejaVuSans-101"/>
     <use x="2640.375" xlink:href="#DejaVuSans-110"/>
     <use x="2703.753906" xlink:href="#DejaVuSans-32"/>
     <use x="2735.541016" xlink:href="#DejaVuSans-110"/>
     <use x="2798.919922" xlink:href="#DejaVuSans-97"/>
     <use x="2860.199219" xlink:href="#DejaVuSans-116"/>
     <use x="2899.408203" xlink:href="#DejaVuSans-117"/>
     <use x="2962.787109" xlink:href="#DejaVuSans-114"/>
     <use x="3003.900391" xlink:href="#DejaVuSans-97"/>
     <use x="3065.179688" xlink:href="#DejaVuSans-108"/>
     <use x="3092.962891" xlink:href="#DejaVuSans-101"/>
     <use x="3154.486328" xlink:href="#DejaVuSans-115"/>
    </g>
    <!--  Nivel: Primaria -->
    <g transform="translate(368.090937 30.2355)scale(0.12 -0.12)">
     <use xlink:href="#DejaVuSans-32"/>
     <use x="31.787109" xlink:href="#DejaVuSans-78"/>
     <use x="106.591797" xlink:href="#DejaVuSans-105"/>
     <use x="134.375" xlink:href="#DejaVuSans-118"/>
     <use x="193.554688" xlink:href="#DejaVuSans-101"/>
     <use x="255.078125" xlink:href="#DejaVuSans-108"/>
     <use x="282.861328" xlink:href="#DejaVuSans-58"/>
     <use x="316.552734" xlink:href="#DejaVuSans-32"/>
     <use x="348.339844" xlink:href="#DejaVuSans-80"/>
     <use x="408.626953" xlink:href="#DejaVuSans-114"/>
     <use x="449.740234" xlink:href="#DejaVuSans-105"/>
     <use x="477.523438" xlink:href="#DejaVuSans-109"/>
     <use x="574.935547" xlink:href="#DejaVuSans-97"/>
     <use x="636.214844" xlink:href="#DejaVuSans-114"/>
     <use x="677.328125" xlink:href="#DejaVuSans-105"/>
     <use x="705.111328" xlink:href="#DejaVuSans-97"/>
    </g>
   </g>
  </g>
 </g>
 <defs>
  <clipPath id="p436d65bd64">
   <rect height="326.16" width="558" x="135.073438" y="36.3315"/>
  </clipPath>
 </defs>
</svg>
