<?xml version="1.0" encoding="utf-8" standalone="no"?>
<!DOCTYPE svg PUBLIC "-//W3C//DTD SVG 1.1//EN"
  "http://www.w3.org/Graphics/SVG/1.1/DTD/svg11.dtd">
<!-- Created with matplotlib (https://matplotlib.org/) -->
<svg height="401.88375pt" version="1.1" viewBox="0 0 704.003125 401.88375" width="704.003125pt" xmlns="http://www.w3.org/2000/svg" xmlns:xlink="http://www.w3.org/1999/xlink">
 <defs>
  <style type="text/css">
*{stroke-linecap:butt;stroke-linejoin:round;}
  </style>
 </defs>
 <g id="figure_1">
  <g id="patch_1">
   <path d="M 0 401.88375 
L 704.003125 401.88375 
L 704.003125 0 
L 0 0 
z
" style="fill:#ffffff;"/>
  </g>
  <g id="axes_1">
   <g id="patch_2">
    <path d="M 135.303125 364.3275 
L 693.303125 364.3275 
L 693.303125 38.1675 
L 135.303125 38.1675 
z
" style="fill:#ffffff;"/>
   </g>
   <g id="PolyCollection_1">
    <defs>
     <path d="M 129.551319 -322.917156 
L 129.551319 -322.975344 
L 135.303881 -323.027439 
L 141.056442 -323.103628 
L 146.809004 -323.158931 
L 152.561566 -323.150532 
L 158.314128 -323.099323 
L 164.066689 -323.067047 
L 169.819251 -323.077908 
L 175.571813 -323.103296 
L 181.324375 -323.115039 
L 187.076936 -323.117994 
L 192.829498 -323.130673 
L 198.58206 -323.158732 
L 204.334622 -323.188432 
L 210.087183 -323.197835 
L 215.839745 -323.180578 
L 221.592307 -323.16029 
L 227.344869 -323.171033 
L 233.09743 -323.22221 
L 238.849992 -323.295375 
L 244.602554 -323.369362 
L 250.355115 -323.427659 
L 256.107677 -323.456094 
L 261.860239 -323.462043 
L 267.612801 -323.482047 
L 273.365362 -323.549194 
L 279.117924 -323.652823 
L 284.870486 -323.742315 
L 290.623048 -323.792079 
L 296.375609 -323.840107 
L 302.128171 -323.931075 
L 307.880733 -324.071628 
L 313.633295 -324.271532 
L 319.385856 -324.562266 
L 325.138418 -324.948014 
L 330.89098 -325.390529 
L 336.643542 -325.835201 
L 342.396103 -326.214981 
L 348.148665 -326.490572 
L 353.901227 -326.723011 
L 359.653788 -327.04598 
L 365.40635 -327.562197 
L 371.158912 -328.320298 
L 376.911474 -329.366098 
L 382.664035 -330.695877 
L 388.416597 -332.104888 
L 394.169159 -333.282889 
L 399.921721 -334.286006 
L 405.674282 -335.582953 
L 411.426844 -337.279946 
L 417.179406 -338.897502 
L 422.931968 -340.245771 
L 428.684529 -341.659598 
L 434.437091 -343.175825 
L 440.189653 -344.288115 
L 445.942215 -344.603912 
L 451.694776 -344.315003 
L 457.447338 -344.002339 
L 463.1999 -344.103019 
L 468.952462 -344.566141 
L 474.705023 -345.010816 
L 480.457585 -345.17403 
L 486.210147 -345.154311 
L 491.962708 -345.229062 
L 497.71527 -345.439205 
L 503.467832 -345.42937 
L 509.220394 -344.913445 
L 514.972955 -344.129739 
L 520.725517 -343.485011 
L 526.478079 -343.086611 
L 532.230641 -343.046786 
L 537.983202 -343.739103 
L 543.735764 -345.121388 
L 549.488326 -346.316675 
L 555.240888 -346.465125 
L 560.993449 -345.561718 
L 566.746011 -344.238681 
L 572.498573 -343.159201 
L 578.251135 -342.708264 
L 584.003696 -342.912899 
L 589.756258 -343.482106 
L 595.50882 -344.138361 
L 601.261381 -344.783789 
L 607.013943 -345.104922 
L 612.766505 -344.634343 
L 618.519067 -343.37441 
L 624.271628 -341.654035 
L 630.02419 -339.551344 
L 635.776752 -337.12519 
L 641.529314 -334.88653 
L 647.281875 -333.252008 
L 653.034437 -331.785937 
L 658.786999 -329.829762 
L 664.539561 -327.547095 
L 670.292122 -325.628372 
L 676.044684 -324.403318 
L 681.797246 -323.718254 
L 687.549808 -323.327963 
L 693.302369 -323.105338 
L 699.054931 -322.997445 
L 699.054931 -322.895055 
L 699.054931 -322.895055 
L 693.302369 -322.787162 
L 687.549808 -322.564537 
L 681.797246 -322.174246 
L 676.044684 -321.489182 
L 670.292122 -320.264128 
L 664.539561 -318.345405 
L 658.786999 -316.062738 
L 653.034437 -314.106563 
L 647.281875 -312.640492 
L 641.529314 -311.00597 
L 635.776752 -308.76731 
L 630.02419 -306.341156 
L 624.271628 -304.238465 
L 618.519067 -302.51809 
L 612.766505 -301.258157 
L 607.013943 -300.787578 
L 601.261381 -301.108711 
L 595.50882 -301.754139 
L 589.756258 -302.410394 
L 584.003696 -302.979601 
L 578.251135 -303.184236 
L 572.498573 -302.733299 
L 566.746011 -301.653819 
L 560.993449 -300.330782 
L 555.240888 -299.427375 
L 549.488326 -299.575825 
L 543.735764 -300.771112 
L 537.983202 -302.153397 
L 532.230641 -302.845714 
L 526.478079 -302.805889 
L 520.725517 -302.407489 
L 514.972955 -301.762761 
L 509.220394 -300.979055 
L 503.467832 -300.46313 
L 497.71527 -300.453295 
L 491.962708 -300.663438 
L 486.210147 -300.738189 
L 480.457585 -300.71847 
L 474.705023 -300.881684 
L 468.952462 -301.326359 
L 463.1999 -301.789481 
L 457.447338 -301.890161 
L 451.694776 -301.577497 
L 445.942215 -301.288588 
L 440.189653 -301.604385 
L 434.437091 -302.716675 
L 428.684529 -304.232902 
L 422.931968 -305.646729 
L 417.179406 -306.994998 
L 411.426844 -308.612554 
L 405.674282 -310.309547 
L 399.921721 -311.606494 
L 394.169159 -312.609611 
L 388.416597 -313.787612 
L 382.664035 -315.196623 
L 376.911474 -316.526402 
L 371.158912 -317.572202 
L 365.40635 -318.330303 
L 359.653788 -318.84652 
L 353.901227 -319.169489 
L 348.148665 -319.401928 
L 342.396103 -319.677519 
L 336.643542 -320.057299 
L 330.89098 -320.501971 
L 325.138418 -320.944486 
L 319.385856 -321.330234 
L 313.633295 -321.620968 
L 307.880733 -321.820872 
L 302.128171 -321.961425 
L 296.375609 -322.052393 
L 290.623048 -322.100421 
L 284.870486 -322.150185 
L 279.117924 -322.239677 
L 273.365362 -322.343306 
L 267.612801 -322.410453 
L 261.860239 -322.430457 
L 256.107677 -322.436406 
L 250.355115 -322.464841 
L 244.602554 -322.523138 
L 238.849992 -322.597125 
L 233.09743 -322.67029 
L 227.344869 -322.721467 
L 221.592307 -322.73221 
L 215.839745 -322.711922 
L 210.087183 -322.694665 
L 204.334622 -322.704068 
L 198.58206 -322.733768 
L 192.829498 -322.761827 
L 187.076936 -322.774506 
L 181.324375 -322.777461 
L 175.571813 -322.789204 
L 169.819251 -322.814592 
L 164.066689 -322.825453 
L 158.314128 -322.793177 
L 152.561566 -322.741968 
L 146.809004 -322.733569 
L 141.056442 -322.788872 
L 135.303881 -322.865061 
L 129.551319 -322.917156 
z
" id="m10a481c7cf" style="stroke:#4c4c4c;stroke-width:1.5;"/>
    </defs>
    <g clip-path="url(#p6b4d02b8ba)">
     <use style="fill:#df2020;stroke:#4c4c4c;stroke-width:1.5;" x="0" xlink:href="#m10a481c7cf" y="401.88375"/>
    </g>
   </g>
   <g id="PolyCollection_2">
    <defs>
     <path d="M 134.421925 -241.366487 
L 134.421925 -241.446013 
L 140.076091 -241.548976 
L 145.730256 -241.677399 
L 151.384422 -241.681081 
L 157.038588 -241.567909 
L 162.692753 -241.508472 
L 168.346919 -241.551207 
L 174.001085 -241.618178 
L 179.65525 -241.657176 
L 185.309416 -241.679838 
L 190.963582 -241.710618 
L 196.617747 -241.779575 
L 202.271913 -241.877387 
L 207.926078 -241.957167 
L 213.580244 -241.991567 
L 219.23441 -241.975245 
L 224.888575 -241.966214 
L 230.542741 -242.017791 
L 236.196907 -242.097662 
L 241.851072 -242.215946 
L 247.505238 -242.447021 
L 253.159404 -242.744008 
L 258.813569 -242.987626 
L 264.467735 -243.18778 
L 270.121901 -243.487253 
L 275.776066 -243.927049 
L 281.430232 -244.304864 
L 287.084398 -244.504573 
L 292.738563 -244.755606 
L 298.392729 -245.158935 
L 304.046895 -245.493951 
L 309.70106 -245.795569 
L 315.355226 -246.410318 
L 321.009392 -247.377197 
L 326.663557 -248.322025 
L 332.317723 -249.140362 
L 337.971889 -250.245814 
L 343.626054 -251.620359 
L 349.28022 -252.715853 
L 354.934386 -253.523531 
L 360.588551 -254.725933 
L 366.242717 -256.580678 
L 371.896883 -258.464874 
L 377.551048 -260.020398 
L 383.205214 -261.532983 
L 388.85938 -263.192495 
L 394.513545 -264.335982 
L 400.167711 -264.677311 
L 405.821877 -265.96439 
L 411.476042 -268.579095 
L 417.130208 -269.596078 
L 422.784373 -268.837249 
L 428.438539 -269.047948 
L 434.092705 -270.425972 
L 439.74687 -271.672411 
L 445.401036 -271.800039 
L 451.055202 -270.420578 
L 456.709367 -268.278388 
L 462.363533 -266.54127 
L 468.017699 -265.506499 
L 473.671864 -264.64927 
L 479.32603 -263.706047 
L 484.980196 -262.984435 
L 490.634361 -262.554015 
L 496.288527 -262.203515 
L 501.942693 -261.612305 
L 507.596858 -260.305872 
L 513.251024 -258.745505 
L 518.90519 -257.7223 
L 524.559355 -257.174018 
L 530.213521 -256.758462 
L 535.867687 -256.444477 
L 541.521852 -256.394764 
L 547.176018 -256.159971 
L 552.830184 -255.141288 
L 558.484349 -253.787206 
L 564.138515 -252.851339 
L 569.792681 -252.382664 
L 575.446846 -251.947469 
L 581.101012 -251.3375 
L 586.755178 -250.714418 
L 592.409343 -249.877292 
L 598.063509 -248.999867 
L 603.717675 -248.713021 
L 609.37184 -248.793841 
L 615.026006 -248.70103 
L 620.680172 -248.220417 
L 626.334337 -247.277115 
L 631.988503 -246.025628 
L 637.642668 -244.745275 
L 643.296834 -243.86724 
L 648.951 -243.494469 
L 654.605165 -243.105696 
L 660.259331 -242.518539 
L 665.913497 -242.044389 
L 671.567662 -241.812695 
L 677.221828 -241.721661 
L 682.875994 -241.632911 
L 688.530159 -241.514276 
L 694.184325 -241.435471 
L 694.184325 -241.377029 
L 694.184325 -241.377029 
L 688.530159 -241.298224 
L 682.875994 -241.179589 
L 677.221828 -241.090839 
L 671.567662 -240.999805 
L 665.913497 -240.768111 
L 660.259331 -240.293961 
L 654.605165 -239.706804 
L 648.951 -239.318031 
L 643.296834 -238.94526 
L 637.642668 -238.067225 
L 631.988503 -236.786872 
L 626.334337 -235.535385 
L 620.680172 -234.592083 
L 615.026006 -234.11147 
L 609.37184 -234.018659 
L 603.717675 -234.099479 
L 598.063509 -233.812633 
L 592.409343 -232.935208 
L 586.755178 -232.098082 
L 581.101012 -231.475 
L 575.446846 -230.865031 
L 569.792681 -230.429836 
L 564.138515 -229.961161 
L 558.484349 -229.025294 
L 552.830184 -227.671212 
L 547.176018 -226.652529 
L 541.521852 -226.417736 
L 535.867687 -226.368023 
L 530.213521 -226.054038 
L 524.559355 -225.638482 
L 518.90519 -225.0902 
L 513.251024 -224.066995 
L 507.596858 -222.506628 
L 501.942693 -221.200195 
L 496.288527 -220.608985 
L 490.634361 -220.258485 
L 484.980196 -219.828065 
L 479.32603 -219.106453 
L 473.671864 -218.16323 
L 468.017699 -217.306001 
L 462.363533 -216.27123 
L 456.709367 -214.534112 
L 451.055202 -212.391922 
L 445.401036 -211.012461 
L 439.74687 -211.140089 
L 434.092705 -212.386528 
L 428.438539 -213.764552 
L 422.784373 -213.975251 
L 417.130208 -213.216422 
L 411.476042 -214.233405 
L 405.821877 -216.84811 
L 400.167711 -218.135189 
L 394.513545 -218.476518 
L 388.85938 -219.620005 
L 383.205214 -221.279517 
L 377.551048 -222.792102 
L 371.896883 -224.347626 
L 366.242717 -226.231822 
L 360.588551 -228.086567 
L 354.934386 -229.288969 
L 349.28022 -230.096647 
L 343.626054 -231.192141 
L 337.971889 -232.566686 
L 332.317723 -233.672138 
L 326.663557 -234.490475 
L 321.009392 -235.435303 
L 315.355226 -236.402182 
L 309.70106 -237.016931 
L 304.046895 -237.318549 
L 298.392729 -237.653565 
L 292.738563 -238.056894 
L 287.084398 -238.307927 
L 281.430232 -238.507636 
L 275.776066 -238.885451 
L 270.121901 -239.325247 
L 264.467735 -239.62472 
L 258.813569 -239.824874 
L 253.159404 -240.068492 
L 247.505238 -240.365479 
L 241.851072 -240.596554 
L 236.196907 -240.714838 
L 230.542741 -240.794709 
L 224.888575 -240.846286 
L 219.23441 -240.837255 
L 213.580244 -240.820933 
L 207.926078 -240.855333 
L 202.271913 -240.935113 
L 196.617747 -241.032925 
L 190.963582 -241.101882 
L 185.309416 -241.132662 
L 179.65525 -241.155324 
L 174.001085 -241.194322 
L 168.346919 -241.261293 
L 162.692753 -241.304028 
L 157.038588 -241.244591 
L 151.384422 -241.131419 
L 145.730256 -241.135101 
L 140.076091 -241.263524 
L 134.421925 -241.366487 
z
" id="mcdb2bdc321" style="stroke:#4c4c4c;stroke-width:1.5;"/>
    </defs>
    <g clip-path="url(#p6b4d02b8ba)">
     <use style="fill:#df2020;stroke:#4c4c4c;stroke-width:1.5;" x="0" xlink:href="#mcdb2bdc321" y="401.88375"/>
    </g>
   </g>
   <g id="PolyCollection_3">
    <defs>
     <path d="M 134.948506 -159.763042 
L 134.948506 -159.969458 
L 140.592034 -160.249846 
L 146.235561 -160.586112 
L 151.879089 -160.555062 
L 157.522617 -160.236815 
L 163.166144 -160.091163 
L 168.809672 -160.195431 
L 174.4532 -160.386695 
L 180.096727 -160.551444 
L 185.740255 -160.647174 
L 191.383783 -160.721034 
L 197.02731 -160.877728 
L 202.670838 -161.113574 
L 208.314366 -161.339788 
L 213.957893 -161.472241 
L 219.601421 -161.481612 
L 225.244949 -161.524405 
L 230.888476 -161.720087 
L 236.532004 -161.969172 
L 242.175531 -162.309682 
L 247.819059 -162.977963 
L 253.462587 -163.805413 
L 259.106114 -164.379781 
L 264.749642 -164.748889 
L 270.39317 -165.350577 
L 276.036697 -166.260035 
L 281.680225 -167.014973 
L 287.323753 -167.43359 
L 292.96728 -167.988881 
L 298.610808 -168.840833 
L 304.254336 -169.656642 
L 309.897863 -170.607931 
L 315.541391 -172.204421 
L 321.184919 -174.265544 
L 326.828446 -175.981521 
L 332.471974 -177.000586 
L 338.115502 -178.221701 
L 343.759029 -180.103104 
L 349.402557 -181.689623 
L 355.046085 -182.649253 
L 360.689612 -184.046041 
L 366.33314 -185.985982 
L 371.976668 -187.421962 
L 377.620195 -188.297352 
L 383.263723 -189.044567 
L 388.907251 -189.770228 
L 394.550778 -189.89859 
L 400.194306 -189.237568 
L 405.837834 -190.015719 
L 411.481361 -192.48225 
L 417.124889 -192.187729 
L 422.768416 -189.151706 
L 428.411944 -187.380948 
L 434.055472 -186.852041 
L 439.698999 -186.386382 
L 445.342527 -185.687265 
L 450.986055 -184.248479 
L 456.629582 -181.955427 
L 462.27311 -179.623307 
L 467.916638 -177.918993 
L 473.560165 -176.582244 
L 479.203693 -175.371188 
L 484.847221 -174.350749 
L 490.490748 -173.49897 
L 496.134276 -172.799931 
L 501.777804 -172.179285 
L 507.421331 -171.332276 
L 513.064859 -170.406802 
L 518.708387 -169.739022 
L 524.351914 -169.193034 
L 529.995442 -168.611729 
L 535.63897 -168.014026 
L 541.282497 -167.508511 
L 546.926025 -166.995566 
L 552.569553 -166.189691 
L 558.21308 -165.267628 
L 563.856608 -164.679867 
L 569.500136 -164.416907 
L 575.143663 -164.073273 
L 580.787191 -163.527837 
L 586.430719 -163.071931 
L 592.074246 -162.681383 
L 597.717774 -162.276702 
L 603.361301 -162.072569 
L 609.004829 -162.058774 
L 614.648357 -162.049658 
L 620.291884 -161.899331 
L 625.935412 -161.549833 
L 631.57894 -161.112028 
L 637.222467 -160.714393 
L 642.865995 -160.455871 
L 648.509523 -160.344356 
L 654.15305 -160.240067 
L 659.796578 -160.101072 
L 665.440106 -160.002454 
L 671.083633 -159.967317 
L 676.727161 -159.968477 
L 682.370689 -159.954133 
L 688.014216 -159.910762 
L 693.657744 -159.87807 
L 693.657744 -159.85443 
L 693.657744 -159.85443 
L 688.014216 -159.821738 
L 682.370689 -159.778367 
L 676.727161 -159.764023 
L 671.083633 -159.765183 
L 665.440106 -159.730046 
L 659.796578 -159.631428 
L 654.15305 -159.492433 
L 648.509523 -159.388144 
L 642.865995 -159.276629 
L 637.222467 -159.018107 
L 631.57894 -158.620472 
L 625.935412 -158.182667 
L 620.291884 -157.833169 
L 614.648357 -157.682842 
L 609.004829 -157.673726 
L 603.361301 -157.659931 
L 597.717774 -157.455798 
L 592.074246 -157.051117 
L 586.430719 -156.660569 
L 580.787191 -156.204663 
L 575.143663 -155.659227 
L 569.500136 -155.315593 
L 563.856608 -155.052633 
L 558.21308 -154.464872 
L 552.569553 -153.542809 
L 546.926025 -152.736934 
L 541.282497 -152.223989 
L 535.63897 -151.718474 
L 529.995442 -151.120771 
L 524.351914 -150.539466 
L 518.708387 -149.993478 
L 513.064859 -149.325698 
L 507.421331 -148.400224 
L 501.777804 -147.553215 
L 496.134276 -146.932569 
L 490.490748 -146.23353 
L 484.847221 -145.381751 
L 479.203693 -144.361312 
L 473.560165 -143.150256 
L 467.916638 -141.813507 
L 462.27311 -140.109193 
L 456.629582 -137.777073 
L 450.986055 -135.484021 
L 445.342527 -134.045235 
L 439.698999 -133.346118 
L 434.055472 -132.880459 
L 428.411944 -132.351552 
L 422.768416 -130.580794 
L 417.124889 -127.544771 
L 411.481361 -127.25025 
L 405.837834 -129.716781 
L 400.194306 -130.494932 
L 394.550778 -129.83391 
L 388.907251 -129.962272 
L 383.263723 -130.687933 
L 377.620195 -131.435148 
L 371.976668 -132.310538 
L 366.33314 -133.746518 
L 360.689612 -135.686459 
L 355.046085 -137.083247 
L 349.402557 -138.042877 
L 343.759029 -139.629396 
L 338.115502 -141.510799 
L 332.471974 -142.731914 
L 326.828446 -143.750979 
L 321.184919 -145.466956 
L 315.541391 -147.528079 
L 309.897863 -149.124569 
L 304.254336 -150.075858 
L 298.610808 -150.891667 
L 292.96728 -151.743619 
L 287.323753 -152.29891 
L 281.680225 -152.717527 
L 276.036697 -153.472465 
L 270.39317 -154.381923 
L 264.749642 -154.983611 
L 259.106114 -155.352719 
L 253.462587 -155.927087 
L 247.819059 -156.754537 
L 242.175531 -157.422818 
L 236.532004 -157.763328 
L 230.888476 -158.012413 
L 225.244949 -158.208095 
L 219.601421 -158.250888 
L 213.957893 -158.260259 
L 208.314366 -158.392712 
L 202.670838 -158.618926 
L 197.02731 -158.854772 
L 191.383783 -159.011466 
L 185.740255 -159.085326 
L 180.096727 -159.181056 
L 174.4532 -159.345805 
L 168.809672 -159.537069 
L 163.166144 -159.641337 
L 157.522617 -159.495685 
L 151.879089 -159.177438 
L 146.235561 -159.146388 
L 140.592034 -159.482654 
L 134.948506 -159.763042 
z
" id="m165f71dd13" style="stroke:#4c4c4c;stroke-width:1.5;"/>
    </defs>
    <g clip-path="url(#p6b4d02b8ba)">
     <use style="fill:#df2020;stroke:#4c4c4c;stroke-width:1.5;" x="0" xlink:href="#m165f71dd13" y="401.88375"/>
    </g>
   </g>
   <g id="PolyCollection_4">
    <defs>
     <path d="M 136.291161 -78.13161 
L 136.291161 -78.52089 
L 141.907564 -79.123474 
L 147.523967 -79.746636 
L 153.140371 -79.444157 
L 158.756774 -78.801658 
L 164.373177 -78.730652 
L 169.989581 -79.101851 
L 175.605984 -79.502071 
L 181.222387 -79.755116 
L 186.838791 -79.843857 
L 192.455194 -79.89674 
L 198.071597 -80.172513 
L 203.688001 -80.608704 
L 209.304404 -81.026567 
L 214.920807 -81.245563 
L 220.537211 -81.230909 
L 226.153614 -81.38047 
L 231.770017 -81.800316 
L 237.386421 -82.15062 
L 243.002824 -82.528176 
L 248.619227 -83.569729 
L 254.23563 -84.979013 
L 259.852034 -86.01881 
L 265.468437 -86.655399 
L 271.08484 -87.58572 
L 276.701244 -88.880012 
L 282.317647 -89.876011 
L 287.93405 -90.492548 
L 293.550454 -91.353786 
L 299.166857 -92.420426 
L 304.78326 -93.359526 
L 310.399664 -94.690011 
L 316.016067 -97.091626 
L 321.63247 -100.115755 
L 327.248874 -102.28 
L 332.865277 -102.796508 
L 338.48168 -103.45254 
L 344.098084 -105.496197 
L 349.714487 -107.133242 
L 355.33089 -107.361798 
L 360.947293 -108.088554 
L 366.563697 -109.507239 
L 372.1801 -110.076582 
L 377.796503 -110.044448 
L 383.412907 -109.884653 
L 389.02931 -109.732651 
L 394.645713 -108.931541 
L 400.262117 -106.969586 
L 405.87852 -107.045853 
L 411.494923 -110.079788 
L 417.111327 -108.972735 
L 422.72773 -103.681822 
L 428.344133 -100.616262 
L 433.960537 -99.476498 
L 439.57694 -98.641067 
L 445.193343 -97.867932 
L 450.809747 -96.765518 
L 456.42615 -94.835687 
L 462.042553 -92.49266 
L 467.658957 -90.736133 
L 473.27536 -89.530436 
L 478.891763 -88.573711 
L 484.508166 -87.792968 
L 490.12457 -87.068585 
L 495.740973 -86.532688 
L 501.357376 -86.185627 
L 506.97378 -85.560328 
L 512.590183 -84.722488 
L 518.206586 -84.106956 
L 523.82299 -83.625269 
L 529.439393 -83.230869 
L 535.055796 -82.927691 
L 540.6722 -82.587926 
L 546.288603 -82.167136 
L 551.905006 -81.627777 
L 557.52141 -81.083477 
L 563.137813 -80.772663 
L 568.754216 -80.732355 
L 574.37062 -80.629436 
L 579.987023 -80.244998 
L 585.603426 -79.930447 
L 591.219829 -79.776367 
L 596.836233 -79.589662 
L 602.452636 -79.447755 
L 608.069039 -79.410599 
L 613.685443 -79.420566 
L 619.301846 -79.370007 
L 624.918249 -79.204125 
L 630.534653 -78.982111 
L 636.151056 -78.748676 
L 641.767459 -78.574783 
L 647.383863 -78.517974 
L 653.000266 -78.49202 
L 658.616669 -78.432633 
L 664.233073 -78.385795 
L 669.849476 -78.382857 
L 675.465879 -78.420424 
L 681.082283 -78.435523 
L 686.698686 -78.386464 
L 692.315089 -78.340895 
L 692.315089 -78.311605 
L 692.315089 -78.311605 
L 686.698686 -78.266036 
L 681.082283 -78.216977 
L 675.465879 -78.232076 
L 669.849476 -78.269643 
L 664.233073 -78.266705 
L 658.616669 -78.219867 
L 653.000266 -78.16048 
L 647.383863 -78.134526 
L 641.767459 -78.077717 
L 636.151056 -77.903824 
L 630.534653 -77.670389 
L 624.918249 -77.448375 
L 619.301846 -77.282493 
L 613.685443 -77.231934 
L 608.069039 -77.241901 
L 602.452636 -77.204745 
L 596.836233 -77.062838 
L 591.219829 -76.876133 
L 585.603426 -76.722053 
L 579.987023 -76.407502 
L 574.37062 -76.023064 
L 568.754216 -75.920145 
L 563.137813 -75.879837 
L 557.52141 -75.569023 
L 551.905006 -75.024723 
L 546.288603 -74.485364 
L 540.6722 -74.064574 
L 535.055796 -73.724809 
L 529.439393 -73.421631 
L 523.82299 -73.027231 
L 518.206586 -72.545544 
L 512.590183 -71.930012 
L 506.97378 -71.092172 
L 501.357376 -70.466873 
L 495.740973 -70.119812 
L 490.12457 -69.583915 
L 484.508166 -68.859532 
L 478.891763 -68.078789 
L 473.27536 -67.122064 
L 467.658957 -65.916367 
L 462.042553 -64.15984 
L 456.42615 -61.816813 
L 450.809747 -59.886982 
L 445.193343 -58.784568 
L 439.57694 -58.011433 
L 433.960537 -57.176002 
L 428.344133 -56.036238 
L 422.72773 -52.970678 
L 417.111327 -47.679765 
L 411.494923 -46.572712 
L 405.87852 -49.606647 
L 400.262117 -49.682914 
L 394.645713 -47.720959 
L 389.02931 -46.919849 
L 383.412907 -46.767847 
L 377.796503 -46.608052 
L 372.1801 -46.575918 
L 366.563697 -47.145261 
L 360.947293 -48.563946 
L 355.33089 -49.290702 
L 349.714487 -49.519258 
L 344.098084 -51.156303 
L 338.48168 -53.19996 
L 332.865277 -53.855992 
L 327.248874 -54.3725 
L 321.63247 -56.536745 
L 316.016067 -59.560874 
L 310.399664 -61.962489 
L 304.78326 -63.292974 
L 299.166857 -64.232074 
L 293.550454 -65.298714 
L 287.93405 -66.159952 
L 282.317647 -66.776489 
L 276.701244 -67.772488 
L 271.08484 -69.06678 
L 265.468437 -69.997101 
L 259.852034 -70.63369 
L 254.23563 -71.673487 
L 248.619227 -73.082771 
L 243.002824 -74.124324 
L 237.386421 -74.50188 
L 231.770017 -74.852184 
L 226.153614 -75.27203 
L 220.537211 -75.421591 
L 214.920807 -75.406937 
L 209.304404 -75.625933 
L 203.688001 -76.043796 
L 198.071597 -76.479987 
L 192.455194 -76.75576 
L 186.838791 -76.808643 
L 181.222387 -76.897384 
L 175.605984 -77.150429 
L 169.989581 -77.550649 
L 164.373177 -77.921848 
L 158.756774 -77.850842 
L 153.140371 -77.208343 
L 147.523967 -76.905864 
L 141.907564 -77.529026 
L 136.291161 -78.13161 
z
" id="m80636acfd1" style="stroke:#4c4c4c;stroke-width:1.5;"/>
    </defs>
    <g clip-path="url(#p6b4d02b8ba)">
     <use style="fill:#df2020;stroke:#4c4c4c;stroke-width:1.5;" x="0" xlink:href="#m80636acfd1" y="401.88375"/>
    </g>
   </g>
   <g id="matplotlib.axis_1">
    <g id="xtick_1">
     <g id="line2d_1">
      <defs>
       <path d="M 0 0 
L 0 3.5 
" id="ma58f2daed9" style="stroke:#000000;stroke-width:0.8;"/>
      </defs>
      <g>
       <use style="stroke:#000000;stroke-width:0.8;" x="148.588839" xlink:href="#ma58f2daed9" y="364.3275"/>
      </g>
     </g>
     <g id="text_1">
      <!-- 1.00 -->
      <defs>
       <path d="M 12.40625 8.296875 
L 28.515625 8.296875 
L 28.515625 63.921875 
L 10.984375 60.40625 
L 10.984375 69.390625 
L 28.421875 72.90625 
L 38.28125 72.90625 
L 38.28125 8.296875 
L 54.390625 8.296875 
L 54.390625 0 
L 12.40625 0 
z
" id="DejaVuSans-49"/>
       <path d="M 10.6875 12.40625 
L 21 12.40625 
L 21 0 
L 10.6875 0 
z
" id="DejaVuSans-46"/>
       <path d="M 31.78125 66.40625 
Q 24.171875 66.40625 20.328125 58.90625 
Q 16.5 51.421875 16.5 36.375 
Q 16.5 21.390625 20.328125 13.890625 
Q 24.171875 6.390625 31.78125 6.390625 
Q 39.453125 6.390625 43.28125 13.890625 
Q 47.125 21.390625 47.125 36.375 
Q 47.125 51.421875 43.28125 58.90625 
Q 39.453125 66.40625 31.78125 66.40625 
z
M 31.78125 74.21875 
Q 44.046875 74.21875 50.515625 64.515625 
Q 56.984375 54.828125 56.984375 36.375 
Q 56.984375 17.96875 50.515625 8.265625 
Q 44.046875 -1.421875 31.78125 -1.421875 
Q 19.53125 -1.421875 13.0625 8.265625 
Q 6.59375 17.96875 6.59375 36.375 
Q 6.59375 54.828125 13.0625 64.515625 
Q 19.53125 74.21875 31.78125 74.21875 
z
" id="DejaVuSans-48"/>
      </defs>
      <g transform="translate(137.456027 378.925937)scale(0.1 -0.1)">
       <use xlink:href="#DejaVuSans-49"/>
       <use x="63.623047" xlink:href="#DejaVuSans-46"/>
       <use x="95.410156" xlink:href="#DejaVuSans-48"/>
       <use x="159.033203" xlink:href="#DejaVuSans-48"/>
      </g>
     </g>
    </g>
    <g id="xtick_2">
     <g id="line2d_2">
      <g>
       <use style="stroke:#000000;stroke-width:0.8;" x="215.017411" xlink:href="#ma58f2daed9" y="364.3275"/>
      </g>
     </g>
     <g id="text_2">
      <!-- 1.25 -->
      <defs>
       <path d="M 19.1875 8.296875 
L 53.609375 8.296875 
L 53.609375 0 
L 7.328125 0 
L 7.328125 8.296875 
Q 12.9375 14.109375 22.625 23.890625 
Q 32.328125 33.6875 34.8125 36.53125 
Q 39.546875 41.84375 41.421875 45.53125 
Q 43.3125 49.21875 43.3125 52.78125 
Q 43.3125 58.59375 39.234375 62.25 
Q 35.15625 65.921875 28.609375 65.921875 
Q 23.96875 65.921875 18.8125 64.3125 
Q 13.671875 62.703125 7.8125 59.421875 
L 7.8125 69.390625 
Q 13.765625 71.78125 18.9375 73 
Q 24.125 74.21875 28.421875 74.21875 
Q 39.75 74.21875 46.484375 68.546875 
Q 53.21875 62.890625 53.21875 53.421875 
Q 53.21875 48.921875 51.53125 44.890625 
Q 49.859375 40.875 45.40625 35.40625 
Q 44.1875 33.984375 37.640625 27.21875 
Q 31.109375 20.453125 19.1875 8.296875 
z
" id="DejaVuSans-50"/>
       <path d="M 10.796875 72.90625 
L 49.515625 72.90625 
L 49.515625 64.59375 
L 19.828125 64.59375 
L 19.828125 46.734375 
Q 21.96875 47.46875 24.109375 47.828125 
Q 26.265625 48.1875 28.421875 48.1875 
Q 40.625 48.1875 47.75 41.5 
Q 54.890625 34.8125 54.890625 23.390625 
Q 54.890625 11.625 47.5625 5.09375 
Q 40.234375 -1.421875 26.90625 -1.421875 
Q 22.3125 -1.421875 17.546875 -0.640625 
Q 12.796875 0.140625 7.71875 1.703125 
L 7.71875 11.625 
Q 12.109375 9.234375 16.796875 8.0625 
Q 21.484375 6.890625 26.703125 6.890625 
Q 35.15625 6.890625 40.078125 11.328125 
Q 45.015625 15.765625 45.015625 23.390625 
Q 45.015625 31 40.078125 35.4375 
Q 35.15625 39.890625 26.703125 39.890625 
Q 22.75 39.890625 18.8125 39.015625 
Q 14.890625 38.140625 10.796875 36.28125 
z
" id="DejaVuSans-53"/>
      </defs>
      <g transform="translate(203.884598 378.925937)scale(0.1 -0.1)">
       <use xlink:href="#DejaVuSans-49"/>
       <use x="63.623047" xlink:href="#DejaVuSans-46"/>
       <use x="95.410156" xlink:href="#DejaVuSans-50"/>
       <use x="159.033203" xlink:href="#DejaVuSans-53"/>
      </g>
     </g>
    </g>
    <g id="xtick_3">
     <g id="line2d_3">
      <g>
       <use style="stroke:#000000;stroke-width:0.8;" x="281.445982" xlink:href="#ma58f2daed9" y="364.3275"/>
      </g>
     </g>
     <g id="text_3">
      <!-- 1.50 -->
      <g transform="translate(270.31317 378.925937)scale(0.1 -0.1)">
       <use xlink:href="#DejaVuSans-49"/>
       <use x="63.623047" xlink:href="#DejaVuSans-46"/>
       <use x="95.410156" xlink:href="#DejaVuSans-53"/>
       <use x="159.033203" xlink:href="#DejaVuSans-48"/>
      </g>
     </g>
    </g>
    <g id="xtick_4">
     <g id="line2d_4">
      <g>
       <use style="stroke:#000000;stroke-width:0.8;" x="347.874554" xlink:href="#ma58f2daed9" y="364.3275"/>
      </g>
     </g>
     <g id="text_4">
      <!-- 1.75 -->
      <defs>
       <path d="M 8.203125 72.90625 
L 55.078125 72.90625 
L 55.078125 68.703125 
L 28.609375 0 
L 18.3125 0 
L 43.21875 64.59375 
L 8.203125 64.59375 
z
" id="DejaVuSans-55"/>
      </defs>
      <g transform="translate(336.741741 378.925937)scale(0.1 -0.1)">
       <use xlink:href="#DejaVuSans-49"/>
       <use x="63.623047" xlink:href="#DejaVuSans-46"/>
       <use x="95.410156" xlink:href="#DejaVuSans-55"/>
       <use x="159.033203" xlink:href="#DejaVuSans-53"/>
      </g>
     </g>
    </g>
    <g id="xtick_5">
     <g id="line2d_5">
      <g>
       <use style="stroke:#000000;stroke-width:0.8;" x="414.303125" xlink:href="#ma58f2daed9" y="364.3275"/>
      </g>
     </g>
     <g id="text_5">
      <!-- 2.00 -->
      <g transform="translate(403.170313 378.925937)scale(0.1 -0.1)">
       <use xlink:href="#DejaVuSans-50"/>
       <use x="63.623047" xlink:href="#DejaVuSans-46"/>
       <use x="95.410156" xlink:href="#DejaVuSans-48"/>
       <use x="159.033203" xlink:href="#DejaVuSans-48"/>
      </g>
     </g>
    </g>
    <g id="xtick_6">
     <g id="line2d_6">
      <g>
       <use style="stroke:#000000;stroke-width:0.8;" x="480.731696" xlink:href="#ma58f2daed9" y="364.3275"/>
      </g>
     </g>
     <g id="text_6">
      <!-- 2.25 -->
      <g transform="translate(469.598884 378.925937)scale(0.1 -0.1)">
       <use xlink:href="#DejaVuSans-50"/>
       <use x="63.623047" xlink:href="#DejaVuSans-46"/>
       <use x="95.410156" xlink:href="#DejaVuSans-50"/>
       <use x="159.033203" xlink:href="#DejaVuSans-53"/>
      </g>
     </g>
    </g>
    <g id="xtick_7">
     <g id="line2d_7">
      <g>
       <use style="stroke:#000000;stroke-width:0.8;" x="547.160268" xlink:href="#ma58f2daed9" y="364.3275"/>
      </g>
     </g>
     <g id="text_7">
      <!-- 2.50 -->
      <g transform="translate(536.027455 378.925937)scale(0.1 -0.1)">
       <use xlink:href="#DejaVuSans-50"/>
       <use x="63.623047" xlink:href="#DejaVuSans-46"/>
       <use x="95.410156" xlink:href="#DejaVuSans-53"/>
       <use x="159.033203" xlink:href="#DejaVuSans-48"/>
      </g>
     </g>
    </g>
    <g id="xtick_8">
     <g id="line2d_8">
      <g>
       <use style="stroke:#000000;stroke-width:0.8;" x="613.588839" xlink:href="#ma58f2daed9" y="364.3275"/>
      </g>
     </g>
     <g id="text_8">
      <!-- 2.75 -->
      <g transform="translate(602.456027 378.925937)scale(0.1 -0.1)">
       <use xlink:href="#DejaVuSans-50"/>
       <use x="63.623047" xlink:href="#DejaVuSans-46"/>
       <use x="95.410156" xlink:href="#DejaVuSans-55"/>
       <use x="159.033203" xlink:href="#DejaVuSans-53"/>
      </g>
     </g>
    </g>
    <g id="xtick_9">
     <g id="line2d_9">
      <g>
       <use style="stroke:#000000;stroke-width:0.8;" x="680.017411" xlink:href="#ma58f2daed9" y="364.3275"/>
      </g>
     </g>
     <g id="text_9">
      <!-- 3.00 -->
      <defs>
       <path d="M 40.578125 39.3125 
Q 47.65625 37.796875 51.625 33 
Q 55.609375 28.21875 55.609375 21.1875 
Q 55.609375 10.40625 48.1875 4.484375 
Q 40.765625 -1.421875 27.09375 -1.421875 
Q 22.515625 -1.421875 17.65625 -0.515625 
Q 12.796875 0.390625 7.625 2.203125 
L 7.625 11.71875 
Q 11.71875 9.328125 16.59375 8.109375 
Q 21.484375 6.890625 26.8125 6.890625 
Q 36.078125 6.890625 40.9375 10.546875 
Q 45.796875 14.203125 45.796875 21.1875 
Q 45.796875 27.640625 41.28125 31.265625 
Q 36.765625 34.90625 28.71875 34.90625 
L 20.21875 34.90625 
L 20.21875 43.015625 
L 29.109375 43.015625 
Q 36.375 43.015625 40.234375 45.921875 
Q 44.09375 48.828125 44.09375 54.296875 
Q 44.09375 59.90625 40.109375 62.90625 
Q 36.140625 65.921875 28.71875 65.921875 
Q 24.65625 65.921875 20.015625 65.03125 
Q 15.375 64.15625 9.8125 62.3125 
L 9.8125 71.09375 
Q 15.4375 72.65625 20.34375 73.4375 
Q 25.25 74.21875 29.59375 74.21875 
Q 40.828125 74.21875 47.359375 69.109375 
Q 53.90625 64.015625 53.90625 55.328125 
Q 53.90625 49.265625 50.4375 45.09375 
Q 46.96875 40.921875 40.578125 39.3125 
z
" id="DejaVuSans-51"/>
      </defs>
      <g transform="translate(668.884598 378.925937)scale(0.1 -0.1)">
       <use xlink:href="#DejaVuSans-51"/>
       <use x="63.623047" xlink:href="#DejaVuSans-46"/>
       <use x="95.410156" xlink:href="#DejaVuSans-48"/>
       <use x="159.033203" xlink:href="#DejaVuSans-48"/>
      </g>
     </g>
    </g>
    <g id="text_10">
     <!-- Índice socioeconómico -->
     <defs>
      <path d="M 9.8125 72.90625 
L 19.671875 72.90625 
L 19.671875 0 
L 9.8125 0 
z
M 17.484375 92.734375 
L 26.515625 92.734375 
L 15.375 79.84375 
L 7.90625 79.84375 
z
" id="DejaVuSans-205"/>
      <path d="M 54.890625 33.015625 
L 54.890625 0 
L 45.90625 0 
L 45.90625 32.71875 
Q 45.90625 40.484375 42.875 44.328125 
Q 39.84375 48.1875 33.796875 48.1875 
Q 26.515625 48.1875 22.3125 43.546875 
Q 18.109375 38.921875 18.109375 30.90625 
L 18.109375 0 
L 9.078125 0 
L 9.078125 54.6875 
L 18.109375 54.6875 
L 18.109375 46.1875 
Q 21.34375 51.125 25.703125 53.5625 
Q 30.078125 56 35.796875 56 
Q 45.21875 56 50.046875 50.171875 
Q 54.890625 44.34375 54.890625 33.015625 
z
" id="DejaVuSans-110"/>
      <path d="M 45.40625 46.390625 
L 45.40625 75.984375 
L 54.390625 75.984375 
L 54.390625 0 
L 45.40625 0 
L 45.40625 8.203125 
Q 42.578125 3.328125 38.25 0.953125 
Q 33.9375 -1.421875 27.875 -1.421875 
Q 17.96875 -1.421875 11.734375 6.484375 
Q 5.515625 14.40625 5.515625 27.296875 
Q 5.515625 40.1875 11.734375 48.09375 
Q 17.96875 56 27.875 56 
Q 33.9375 56 38.25 53.625 
Q 42.578125 51.265625 45.40625 46.390625 
z
M 14.796875 27.296875 
Q 14.796875 17.390625 18.875 11.75 
Q 22.953125 6.109375 30.078125 6.109375 
Q 37.203125 6.109375 41.296875 11.75 
Q 45.40625 17.390625 45.40625 27.296875 
Q 45.40625 37.203125 41.296875 42.84375 
Q 37.203125 48.484375 30.078125 48.484375 
Q 22.953125 48.484375 18.875 42.84375 
Q 14.796875 37.203125 14.796875 27.296875 
z
" id="DejaVuSans-100"/>
      <path d="M 9.421875 54.6875 
L 18.40625 54.6875 
L 18.40625 0 
L 9.421875 0 
z
M 9.421875 75.984375 
L 18.40625 75.984375 
L 18.40625 64.59375 
L 9.421875 64.59375 
z
" id="DejaVuSans-105"/>
      <path d="M 48.78125 52.59375 
L 48.78125 44.1875 
Q 44.96875 46.296875 41.140625 47.34375 
Q 37.3125 48.390625 33.40625 48.390625 
Q 24.65625 48.390625 19.8125 42.84375 
Q 14.984375 37.3125 14.984375 27.296875 
Q 14.984375 17.28125 19.8125 11.734375 
Q 24.65625 6.203125 33.40625 6.203125 
Q 37.3125 6.203125 41.140625 7.25 
Q 44.96875 8.296875 48.78125 10.40625 
L 48.78125 2.09375 
Q 45.015625 0.34375 40.984375 -0.53125 
Q 36.96875 -1.421875 32.421875 -1.421875 
Q 20.0625 -1.421875 12.78125 6.34375 
Q 5.515625 14.109375 5.515625 27.296875 
Q 5.515625 40.671875 12.859375 48.328125 
Q 20.21875 56 33.015625 56 
Q 37.15625 56 41.109375 55.140625 
Q 45.0625 54.296875 48.78125 52.59375 
z
" id="DejaVuSans-99"/>
      <path d="M 56.203125 29.59375 
L 56.203125 25.203125 
L 14.890625 25.203125 
Q 15.484375 15.921875 20.484375 11.0625 
Q 25.484375 6.203125 34.421875 6.203125 
Q 39.59375 6.203125 44.453125 7.46875 
Q 49.3125 8.734375 54.109375 11.28125 
L 54.109375 2.78125 
Q 49.265625 0.734375 44.1875 -0.34375 
Q 39.109375 -1.421875 33.890625 -1.421875 
Q 20.796875 -1.421875 13.15625 6.1875 
Q 5.515625 13.8125 5.515625 26.8125 
Q 5.515625 40.234375 12.765625 48.109375 
Q 20.015625 56 32.328125 56 
Q 43.359375 56 49.78125 48.890625 
Q 56.203125 41.796875 56.203125 29.59375 
z
M 47.21875 32.234375 
Q 47.125 39.59375 43.09375 43.984375 
Q 39.0625 48.390625 32.421875 48.390625 
Q 24.90625 48.390625 20.390625 44.140625 
Q 15.875 39.890625 15.1875 32.171875 
z
" id="DejaVuSans-101"/>
      <path id="DejaVuSans-32"/>
      <path d="M 44.28125 53.078125 
L 44.28125 44.578125 
Q 40.484375 46.53125 36.375 47.5 
Q 32.28125 48.484375 27.875 48.484375 
Q 21.1875 48.484375 17.84375 46.4375 
Q 14.5 44.390625 14.5 40.28125 
Q 14.5 37.15625 16.890625 35.375 
Q 19.28125 33.59375 26.515625 31.984375 
L 29.59375 31.296875 
Q 39.15625 29.25 43.1875 25.515625 
Q 47.21875 21.78125 47.21875 15.09375 
Q 47.21875 7.46875 41.1875 3.015625 
Q 35.15625 -1.421875 24.609375 -1.421875 
Q 20.21875 -1.421875 15.453125 -0.5625 
Q 10.6875 0.296875 5.421875 2 
L 5.421875 11.28125 
Q 10.40625 8.6875 15.234375 7.390625 
Q 20.0625 6.109375 24.8125 6.109375 
Q 31.15625 6.109375 34.5625 8.28125 
Q 37.984375 10.453125 37.984375 14.40625 
Q 37.984375 18.0625 35.515625 20.015625 
Q 33.0625 21.96875 24.703125 23.78125 
L 21.578125 24.515625 
Q 13.234375 26.265625 9.515625 29.90625 
Q 5.8125 33.546875 5.8125 39.890625 
Q 5.8125 47.609375 11.28125 51.796875 
Q 16.75 56 26.8125 56 
Q 31.78125 56 36.171875 55.265625 
Q 40.578125 54.546875 44.28125 53.078125 
z
" id="DejaVuSans-115"/>
      <path d="M 30.609375 48.390625 
Q 23.390625 48.390625 19.1875 42.75 
Q 14.984375 37.109375 14.984375 27.296875 
Q 14.984375 17.484375 19.15625 11.84375 
Q 23.34375 6.203125 30.609375 6.203125 
Q 37.796875 6.203125 41.984375 11.859375 
Q 46.1875 17.53125 46.1875 27.296875 
Q 46.1875 37.015625 41.984375 42.703125 
Q 37.796875 48.390625 30.609375 48.390625 
z
M 30.609375 56 
Q 42.328125 56 49.015625 48.375 
Q 55.71875 40.765625 55.71875 27.296875 
Q 55.71875 13.875 49.015625 6.21875 
Q 42.328125 -1.421875 30.609375 -1.421875 
Q 18.84375 -1.421875 12.171875 6.21875 
Q 5.515625 13.875 5.515625 27.296875 
Q 5.515625 40.765625 12.171875 48.375 
Q 18.84375 56 30.609375 56 
z
" id="DejaVuSans-111"/>
      <path d="M 30.609375 48.390625 
Q 23.390625 48.390625 19.1875 42.75 
Q 14.984375 37.109375 14.984375 27.296875 
Q 14.984375 17.484375 19.15625 11.84375 
Q 23.34375 6.203125 30.609375 6.203125 
Q 37.796875 6.203125 41.984375 11.859375 
Q 46.1875 17.53125 46.1875 27.296875 
Q 46.1875 37.015625 41.984375 42.703125 
Q 37.796875 48.390625 30.609375 48.390625 
z
M 30.609375 56 
Q 42.328125 56 49.015625 48.375 
Q 55.71875 40.765625 55.71875 27.296875 
Q 55.71875 13.875 49.015625 6.21875 
Q 42.328125 -1.421875 30.609375 -1.421875 
Q 18.84375 -1.421875 12.171875 6.21875 
Q 5.515625 13.875 5.515625 27.296875 
Q 5.515625 40.765625 12.171875 48.375 
Q 18.84375 56 30.609375 56 
z
M 37.40625 79.984375 
L 47.125 79.984375 
L 31.203125 61.625 
L 23.734375 61.625 
z
" id="DejaVuSans-243"/>
      <path d="M 52 44.1875 
Q 55.375 50.25 60.0625 53.125 
Q 64.75 56 71.09375 56 
Q 79.640625 56 84.28125 50.015625 
Q 88.921875 44.046875 88.921875 33.015625 
L 88.921875 0 
L 79.890625 0 
L 79.890625 32.71875 
Q 79.890625 40.578125 77.09375 44.375 
Q 74.3125 48.1875 68.609375 48.1875 
Q 61.625 48.1875 57.5625 43.546875 
Q 53.515625 38.921875 53.515625 30.90625 
L 53.515625 0 
L 44.484375 0 
L 44.484375 32.71875 
Q 44.484375 40.625 41.703125 44.40625 
Q 38.921875 48.1875 33.109375 48.1875 
Q 26.21875 48.1875 22.15625 43.53125 
Q 18.109375 38.875 18.109375 30.90625 
L 18.109375 0 
L 9.078125 0 
L 9.078125 54.6875 
L 18.109375 54.6875 
L 18.109375 46.1875 
Q 21.1875 51.21875 25.484375 53.609375 
Q 29.78125 56 35.6875 56 
Q 41.65625 56 45.828125 52.96875 
Q 50 49.953125 52 44.1875 
z
" id="DejaVuSans-109"/>
     </defs>
     <g transform="translate(357.638281 392.604062)scale(0.1 -0.1)">
      <use xlink:href="#DejaVuSans-205"/>
      <use x="29.492188" xlink:href="#DejaVuSans-110"/>
      <use x="92.871094" xlink:href="#DejaVuSans-100"/>
      <use x="156.347656" xlink:href="#DejaVuSans-105"/>
      <use x="184.130859" xlink:href="#DejaVuSans-99"/>
      <use x="239.111328" xlink:href="#DejaVuSans-101"/>
      <use x="300.634766" xlink:href="#DejaVuSans-32"/>
      <use x="332.421875" xlink:href="#DejaVuSans-115"/>
      <use x="384.521484" xlink:href="#DejaVuSans-111"/>
      <use x="445.703125" xlink:href="#DejaVuSans-99"/>
      <use x="500.683594" xlink:href="#DejaVuSans-105"/>
      <use x="528.466797" xlink:href="#DejaVuSans-111"/>
      <use x="589.648438" xlink:href="#DejaVuSans-101"/>
      <use x="651.171875" xlink:href="#DejaVuSans-99"/>
      <use x="706.152344" xlink:href="#DejaVuSans-111"/>
      <use x="767.333984" xlink:href="#DejaVuSans-110"/>
      <use x="830.712891" xlink:href="#DejaVuSans-243"/>
      <use x="891.894531" xlink:href="#DejaVuSans-109"/>
      <use x="989.306641" xlink:href="#DejaVuSans-105"/>
      <use x="1017.089844" xlink:href="#DejaVuSans-99"/>
      <use x="1072.070312" xlink:href="#DejaVuSans-111"/>
     </g>
    </g>
   </g>
   <g id="matplotlib.axis_2">
    <g id="ytick_1">
     <g id="line2d_10">
      <defs>
       <path d="M 0 0 
L -3.5 0 
" id="m2148bc6600" style="stroke:#000000;stroke-width:0.8;"/>
      </defs>
      <g>
       <use style="stroke:#000000;stroke-width:0.8;" x="135.303125" xlink:href="#m2148bc6600" y="78.9375"/>
      </g>
     </g>
     <g id="text_11">
      <!-- Avanzado -->
      <defs>
       <path d="M 34.1875 63.1875 
L 20.796875 26.90625 
L 47.609375 26.90625 
z
M 28.609375 72.90625 
L 39.796875 72.90625 
L 67.578125 0 
L 57.328125 0 
L 50.6875 18.703125 
L 17.828125 18.703125 
L 11.1875 0 
L 0.78125 0 
z
" id="DejaVuSans-65"/>
       <path d="M 2.984375 54.6875 
L 12.5 54.6875 
L 29.59375 8.796875 
L 46.6875 54.6875 
L 56.203125 54.6875 
L 35.6875 0 
L 23.484375 0 
z
" id="DejaVuSans-118"/>
       <path d="M 34.28125 27.484375 
Q 23.390625 27.484375 19.1875 25 
Q 14.984375 22.515625 14.984375 16.5 
Q 14.984375 11.71875 18.140625 8.90625 
Q 21.296875 6.109375 26.703125 6.109375 
Q 34.1875 6.109375 38.703125 11.40625 
Q 43.21875 16.703125 43.21875 25.484375 
L 43.21875 27.484375 
z
M 52.203125 31.203125 
L 52.203125 0 
L 43.21875 0 
L 43.21875 8.296875 
Q 40.140625 3.328125 35.546875 0.953125 
Q 30.953125 -1.421875 24.3125 -1.421875 
Q 15.921875 -1.421875 10.953125 3.296875 
Q 6 8.015625 6 15.921875 
Q 6 25.140625 12.171875 29.828125 
Q 18.359375 34.515625 30.609375 34.515625 
L 43.21875 34.515625 
L 43.21875 35.40625 
Q 43.21875 41.609375 39.140625 45 
Q 35.0625 48.390625 27.6875 48.390625 
Q 23 48.390625 18.546875 47.265625 
Q 14.109375 46.140625 10.015625 43.890625 
L 10.015625 52.203125 
Q 14.9375 54.109375 19.578125 55.046875 
Q 24.21875 56 28.609375 56 
Q 40.484375 56 46.34375 49.84375 
Q 52.203125 43.703125 52.203125 31.203125 
z
" id="DejaVuSans-97"/>
       <path d="M 5.515625 54.6875 
L 48.1875 54.6875 
L 48.1875 46.484375 
L 14.40625 7.171875 
L 48.1875 7.171875 
L 48.1875 0 
L 4.296875 0 
L 4.296875 8.203125 
L 38.09375 47.515625 
L 5.515625 47.515625 
z
" id="DejaVuSans-122"/>
      </defs>
      <g transform="translate(79.242188 82.736719)scale(0.1 -0.1)">
       <use xlink:href="#DejaVuSans-65"/>
       <use x="68.330078" xlink:href="#DejaVuSans-118"/>
       <use x="127.509766" xlink:href="#DejaVuSans-97"/>
       <use x="188.789062" xlink:href="#DejaVuSans-110"/>
       <use x="252.167969" xlink:href="#DejaVuSans-122"/>
       <use x="304.658203" xlink:href="#DejaVuSans-97"/>
       <use x="365.9375" xlink:href="#DejaVuSans-100"/>
       <use x="429.414062" xlink:href="#DejaVuSans-111"/>
      </g>
     </g>
    </g>
    <g id="ytick_2">
     <g id="line2d_11">
      <g>
       <use style="stroke:#000000;stroke-width:0.8;" x="135.303125" xlink:href="#m2148bc6600" y="160.4775"/>
      </g>
     </g>
     <g id="text_12">
      <!-- Satisfactorio -->
      <defs>
       <path d="M 53.515625 70.515625 
L 53.515625 60.890625 
Q 47.90625 63.578125 42.921875 64.890625 
Q 37.9375 66.21875 33.296875 66.21875 
Q 25.25 66.21875 20.875 63.09375 
Q 16.5 59.96875 16.5 54.203125 
Q 16.5 49.359375 19.40625 46.890625 
Q 22.3125 44.4375 30.421875 42.921875 
L 36.375 41.703125 
Q 47.40625 39.59375 52.65625 34.296875 
Q 57.90625 29 57.90625 20.125 
Q 57.90625 9.515625 50.796875 4.046875 
Q 43.703125 -1.421875 29.984375 -1.421875 
Q 24.8125 -1.421875 18.96875 -0.25 
Q 13.140625 0.921875 6.890625 3.21875 
L 6.890625 13.375 
Q 12.890625 10.015625 18.65625 8.296875 
Q 24.421875 6.59375 29.984375 6.59375 
Q 38.421875 6.59375 43.015625 9.90625 
Q 47.609375 13.234375 47.609375 19.390625 
Q 47.609375 24.75 44.3125 27.78125 
Q 41.015625 30.8125 33.5 32.328125 
L 27.484375 33.5 
Q 16.453125 35.6875 11.515625 40.375 
Q 6.59375 45.0625 6.59375 53.421875 
Q 6.59375 63.09375 13.40625 68.65625 
Q 20.21875 74.21875 32.171875 74.21875 
Q 37.3125 74.21875 42.625 73.28125 
Q 47.953125 72.359375 53.515625 70.515625 
z
" id="DejaVuSans-83"/>
       <path d="M 18.3125 70.21875 
L 18.3125 54.6875 
L 36.8125 54.6875 
L 36.8125 47.703125 
L 18.3125 47.703125 
L 18.3125 18.015625 
Q 18.3125 11.328125 20.140625 9.421875 
Q 21.96875 7.515625 27.59375 7.515625 
L 36.8125 7.515625 
L 36.8125 0 
L 27.59375 0 
Q 17.1875 0 13.234375 3.875 
Q 9.28125 7.765625 9.28125 18.015625 
L 9.28125 47.703125 
L 2.6875 47.703125 
L 2.6875 54.6875 
L 9.28125 54.6875 
L 9.28125 70.21875 
z
" id="DejaVuSans-116"/>
       <path d="M 37.109375 75.984375 
L 37.109375 68.5 
L 28.515625 68.5 
Q 23.6875 68.5 21.796875 66.546875 
Q 19.921875 64.59375 19.921875 59.515625 
L 19.921875 54.6875 
L 34.71875 54.6875 
L 34.71875 47.703125 
L 19.921875 47.703125 
L 19.921875 0 
L 10.890625 0 
L 10.890625 47.703125 
L 2.296875 47.703125 
L 2.296875 54.6875 
L 10.890625 54.6875 
L 10.890625 58.5 
Q 10.890625 67.625 15.140625 71.796875 
Q 19.390625 75.984375 28.609375 75.984375 
z
" id="DejaVuSans-102"/>
       <path d="M 41.109375 46.296875 
Q 39.59375 47.171875 37.8125 47.578125 
Q 36.03125 48 33.890625 48 
Q 26.265625 48 22.1875 43.046875 
Q 18.109375 38.09375 18.109375 28.8125 
L 18.109375 0 
L 9.078125 0 
L 9.078125 54.6875 
L 18.109375 54.6875 
L 18.109375 46.1875 
Q 20.953125 51.171875 25.484375 53.578125 
Q 30.03125 56 36.53125 56 
Q 37.453125 56 38.578125 55.875 
Q 39.703125 55.765625 41.0625 55.515625 
z
" id="DejaVuSans-114"/>
      </defs>
      <g transform="translate(65.725 164.276719)scale(0.1 -0.1)">
       <use xlink:href="#DejaVuSans-83"/>
       <use x="63.476562" xlink:href="#DejaVuSans-97"/>
       <use x="124.755859" xlink:href="#DejaVuSans-116"/>
       <use x="163.964844" xlink:href="#DejaVuSans-105"/>
       <use x="191.748047" xlink:href="#DejaVuSans-115"/>
       <use x="243.847656" xlink:href="#DejaVuSans-102"/>
       <use x="279.052734" xlink:href="#DejaVuSans-97"/>
       <use x="340.332031" xlink:href="#DejaVuSans-99"/>
       <use x="395.3125" xlink:href="#DejaVuSans-116"/>
       <use x="434.521484" xlink:href="#DejaVuSans-111"/>
       <use x="495.703125" xlink:href="#DejaVuSans-114"/>
       <use x="536.816406" xlink:href="#DejaVuSans-105"/>
       <use x="564.599609" xlink:href="#DejaVuSans-111"/>
      </g>
     </g>
    </g>
    <g id="ytick_3">
     <g id="line2d_12">
      <g>
       <use style="stroke:#000000;stroke-width:0.8;" x="135.303125" xlink:href="#m2148bc6600" y="242.0175"/>
      </g>
     </g>
     <g id="text_13">
      <!-- Básico -->
      <defs>
       <path d="M 19.671875 34.8125 
L 19.671875 8.109375 
L 35.5 8.109375 
Q 43.453125 8.109375 47.28125 11.40625 
Q 51.125 14.703125 51.125 21.484375 
Q 51.125 28.328125 47.28125 31.5625 
Q 43.453125 34.8125 35.5 34.8125 
z
M 19.671875 64.796875 
L 19.671875 42.828125 
L 34.28125 42.828125 
Q 41.5 42.828125 45.03125 45.53125 
Q 48.578125 48.25 48.578125 53.8125 
Q 48.578125 59.328125 45.03125 62.0625 
Q 41.5 64.796875 34.28125 64.796875 
z
M 9.8125 72.90625 
L 35.015625 72.90625 
Q 46.296875 72.90625 52.390625 68.21875 
Q 58.5 63.53125 58.5 54.890625 
Q 58.5 48.1875 55.375 44.234375 
Q 52.25 40.28125 46.1875 39.3125 
Q 53.46875 37.75 57.5 32.78125 
Q 61.53125 27.828125 61.53125 20.40625 
Q 61.53125 10.640625 54.890625 5.3125 
Q 48.25 0 35.984375 0 
L 9.8125 0 
z
" id="DejaVuSans-66"/>
       <path d="M 34.28125 27.484375 
Q 23.390625 27.484375 19.1875 25 
Q 14.984375 22.515625 14.984375 16.5 
Q 14.984375 11.71875 18.140625 8.90625 
Q 21.296875 6.109375 26.703125 6.109375 
Q 34.1875 6.109375 38.703125 11.40625 
Q 43.21875 16.703125 43.21875 25.484375 
L 43.21875 27.484375 
z
M 52.203125 31.203125 
L 52.203125 0 
L 43.21875 0 
L 43.21875 8.296875 
Q 40.140625 3.328125 35.546875 0.953125 
Q 30.953125 -1.421875 24.3125 -1.421875 
Q 15.921875 -1.421875 10.953125 3.296875 
Q 6 8.015625 6 15.921875 
Q 6 25.140625 12.171875 29.828125 
Q 18.359375 34.515625 30.609375 34.515625 
L 43.21875 34.515625 
L 43.21875 35.40625 
Q 43.21875 41.609375 39.140625 45 
Q 35.0625 48.390625 27.6875 48.390625 
Q 23 48.390625 18.546875 47.265625 
Q 14.109375 46.140625 10.015625 43.890625 
L 10.015625 52.203125 
Q 14.9375 54.109375 19.578125 55.046875 
Q 24.21875 56 28.609375 56 
Q 40.484375 56 46.34375 49.84375 
Q 52.203125 43.703125 52.203125 31.203125 
z
M 35.796875 79.984375 
L 45.515625 79.984375 
L 29.59375 61.625 
L 22.125 61.625 
z
" id="DejaVuSans-225"/>
      </defs>
      <g transform="translate(95.709375 245.816719)scale(0.1 -0.1)">
       <use xlink:href="#DejaVuSans-66"/>
       <use x="68.603516" xlink:href="#DejaVuSans-225"/>
       <use x="129.882812" xlink:href="#DejaVuSans-115"/>
       <use x="181.982422" xlink:href="#DejaVuSans-105"/>
       <use x="209.765625" xlink:href="#DejaVuSans-99"/>
       <use x="264.746094" xlink:href="#DejaVuSans-111"/>
      </g>
     </g>
    </g>
    <g id="ytick_4">
     <g id="line2d_13">
      <g>
       <use style="stroke:#000000;stroke-width:0.8;" x="135.303125" xlink:href="#m2148bc6600" y="323.5575"/>
      </g>
     </g>
     <g id="text_14">
      <!-- Por debajo del básico -->
      <defs>
       <path d="M 19.671875 64.796875 
L 19.671875 37.40625 
L 32.078125 37.40625 
Q 38.96875 37.40625 42.71875 40.96875 
Q 46.484375 44.53125 46.484375 51.125 
Q 46.484375 57.671875 42.71875 61.234375 
Q 38.96875 64.796875 32.078125 64.796875 
z
M 9.8125 72.90625 
L 32.078125 72.90625 
Q 44.34375 72.90625 50.609375 67.359375 
Q 56.890625 61.8125 56.890625 51.125 
Q 56.890625 40.328125 50.609375 34.8125 
Q 44.34375 29.296875 32.078125 29.296875 
L 19.671875 29.296875 
L 19.671875 0 
L 9.8125 0 
z
" id="DejaVuSans-80"/>
       <path d="M 48.6875 27.296875 
Q 48.6875 37.203125 44.609375 42.84375 
Q 40.53125 48.484375 33.40625 48.484375 
Q 26.265625 48.484375 22.1875 42.84375 
Q 18.109375 37.203125 18.109375 27.296875 
Q 18.109375 17.390625 22.1875 11.75 
Q 26.265625 6.109375 33.40625 6.109375 
Q 40.53125 6.109375 44.609375 11.75 
Q 48.6875 17.390625 48.6875 27.296875 
z
M 18.109375 46.390625 
Q 20.953125 51.265625 25.265625 53.625 
Q 29.59375 56 35.59375 56 
Q 45.5625 56 51.78125 48.09375 
Q 58.015625 40.1875 58.015625 27.296875 
Q 58.015625 14.40625 51.78125 6.484375 
Q 45.5625 -1.421875 35.59375 -1.421875 
Q 29.59375 -1.421875 25.265625 0.953125 
Q 20.953125 3.328125 18.109375 8.203125 
L 18.109375 0 
L 9.078125 0 
L 9.078125 75.984375 
L 18.109375 75.984375 
z
" id="DejaVuSans-98"/>
       <path d="M 9.421875 54.6875 
L 18.40625 54.6875 
L 18.40625 -0.984375 
Q 18.40625 -11.421875 14.421875 -16.109375 
Q 10.453125 -20.796875 1.609375 -20.796875 
L -1.8125 -20.796875 
L -1.8125 -13.1875 
L 0.59375 -13.1875 
Q 5.71875 -13.1875 7.5625 -10.8125 
Q 9.421875 -8.453125 9.421875 -0.984375 
z
M 9.421875 75.984375 
L 18.40625 75.984375 
L 18.40625 64.59375 
L 9.421875 64.59375 
z
" id="DejaVuSans-106"/>
       <path d="M 9.421875 75.984375 
L 18.40625 75.984375 
L 18.40625 0 
L 9.421875 0 
z
" id="DejaVuSans-108"/>
      </defs>
      <g transform="translate(21.278125 327.556719)scale(0.1 -0.1)">
       <use xlink:href="#DejaVuSans-80"/>
       <use x="60.255859" xlink:href="#DejaVuSans-111"/>
       <use x="121.4375" xlink:href="#DejaVuSans-114"/>
       <use x="162.550781" xlink:href="#DejaVuSans-32"/>
       <use x="194.337891" xlink:href="#DejaVuSans-100"/>
       <use x="257.814453" xlink:href="#DejaVuSans-101"/>
       <use x="319.337891" xlink:href="#DejaVuSans-98"/>
       <use x="382.814453" xlink:href="#DejaVuSans-97"/>
       <use x="444.09375" xlink:href="#DejaVuSans-106"/>
       <use x="471.876953" xlink:href="#DejaVuSans-111"/>
       <use x="533.058594" xlink:href="#DejaVuSans-32"/>
       <use x="564.845703" xlink:href="#DejaVuSans-100"/>
       <use x="628.322266" xlink:href="#DejaVuSans-101"/>
       <use x="689.845703" xlink:href="#DejaVuSans-108"/>
       <use x="717.628906" xlink:href="#DejaVuSans-32"/>
       <use x="749.416016" xlink:href="#DejaVuSans-98"/>
       <use x="812.892578" xlink:href="#DejaVuSans-225"/>
       <use x="874.171875" xlink:href="#DejaVuSans-115"/>
       <use x="926.271484" xlink:href="#DejaVuSans-105"/>
       <use x="954.054688" xlink:href="#DejaVuSans-99"/>
       <use x="1009.035156" xlink:href="#DejaVuSans-111"/>
      </g>
     </g>
    </g>
    <g id="text_15">
     <!-- Nivel de desempeño en matemática -->
     <defs>
      <path d="M 9.8125 72.90625 
L 23.09375 72.90625 
L 55.421875 11.921875 
L 55.421875 72.90625 
L 64.984375 72.90625 
L 64.984375 0 
L 51.703125 0 
L 19.390625 60.984375 
L 19.390625 0 
L 9.8125 0 
z
" id="DejaVuSans-78"/>
      <path d="M 18.109375 8.203125 
L 18.109375 -20.796875 
L 9.078125 -20.796875 
L 9.078125 54.6875 
L 18.109375 54.6875 
L 18.109375 46.390625 
Q 20.953125 51.265625 25.265625 53.625 
Q 29.59375 56 35.59375 56 
Q 45.5625 56 51.78125 48.09375 
Q 58.015625 40.1875 58.015625 27.296875 
Q 58.015625 14.40625 51.78125 6.484375 
Q 45.5625 -1.421875 35.59375 -1.421875 
Q 29.59375 -1.421875 25.265625 0.953125 
Q 20.953125 3.328125 18.109375 8.203125 
z
M 48.6875 27.296875 
Q 48.6875 37.203125 44.609375 42.84375 
Q 40.53125 48.484375 33.40625 48.484375 
Q 26.265625 48.484375 22.1875 42.84375 
Q 18.109375 37.203125 18.109375 27.296875 
Q 18.109375 17.390625 22.1875 11.75 
Q 26.265625 6.109375 33.40625 6.109375 
Q 40.53125 6.109375 44.609375 11.75 
Q 48.6875 17.390625 48.6875 27.296875 
z
" id="DejaVuSans-112"/>
      <path d="M 54.890625 33.015625 
L 54.890625 0 
L 45.90625 0 
L 45.90625 32.71875 
Q 45.90625 40.484375 42.875 44.328125 
Q 39.84375 48.1875 33.796875 48.1875 
Q 26.515625 48.1875 22.3125 43.546875 
Q 18.109375 38.921875 18.109375 30.90625 
L 18.109375 0 
L 9.078125 0 
L 9.078125 54.6875 
L 18.109375 54.6875 
L 18.109375 46.1875 
Q 21.34375 51.125 25.703125 53.5625 
Q 30.078125 56 35.796875 56 
Q 45.21875 56 50.046875 50.171875 
Q 54.890625 44.34375 54.890625 33.015625 
z
M 32.234375 66.890625 
L 29.4375 69.578125 
Q 28.375 70.5625 27.5625 71.015625 
Q 26.765625 71.484375 26.125 71.484375 
Q 24.265625 71.484375 23.390625 69.703125 
Q 22.515625 67.921875 22.40625 63.921875 
L 16.3125 63.921875 
Q 16.40625 70.515625 18.890625 74.09375 
Q 21.390625 77.6875 25.828125 77.6875 
Q 27.6875 77.6875 29.25 77 
Q 30.8125 76.3125 32.625 74.703125 
L 35.40625 72.015625 
Q 36.46875 71.046875 37.28125 70.578125 
Q 38.09375 70.125 38.71875 70.125 
Q 40.578125 70.125 41.453125 71.90625 
Q 42.328125 73.6875 42.4375 77.6875 
L 48.53125 77.6875 
Q 48.4375 71.09375 45.9375 67.5 
Q 43.453125 63.921875 39.015625 63.921875 
Q 37.15625 63.921875 35.59375 64.59375 
Q 34.03125 65.28125 32.234375 66.890625 
z
" id="DejaVuSans-241"/>
     </defs>
     <g transform="translate(15.198438 292.00375)rotate(-90)scale(0.1 -0.1)">
      <use xlink:href="#DejaVuSans-78"/>
      <use x="74.804688" xlink:href="#DejaVuSans-105"/>
      <use x="102.587891" xlink:href="#DejaVuSans-118"/>
      <use x="161.767578" xlink:href="#DejaVuSans-101"/>
      <use x="223.291016" xlink:href="#DejaVuSans-108"/>
      <use x="251.074219" xlink:href="#DejaVuSans-32"/>
      <use x="282.861328" xlink:href="#DejaVuSans-100"/>
      <use x="346.337891" xlink:href="#DejaVuSans-101"/>
      <use x="407.861328" xlink:href="#DejaVuSans-32"/>
      <use x="439.648438" xlink:href="#DejaVuSans-100"/>
      <use x="503.125" xlink:href="#DejaVuSans-101"/>
      <use x="564.648438" xlink:href="#DejaVuSans-115"/>
      <use x="616.748047" xlink:href="#DejaVuSans-101"/>
      <use x="678.271484" xlink:href="#DejaVuSans-109"/>
      <use x="775.683594" xlink:href="#DejaVuSans-112"/>
      <use x="839.160156" xlink:href="#DejaVuSans-101"/>
      <use x="900.683594" xlink:href="#DejaVuSans-241"/>
      <use x="964.0625" xlink:href="#DejaVuSans-111"/>
      <use x="1025.244141" xlink:href="#DejaVuSans-32"/>
      <use x="1057.03125" xlink:href="#DejaVuSans-101"/>
      <use x="1118.554688" xlink:href="#DejaVuSans-110"/>
      <use x="1181.933594" xlink:href="#DejaVuSans-32"/>
      <use x="1213.720703" xlink:href="#DejaVuSans-109"/>
      <use x="1311.132812" xlink:href="#DejaVuSans-97"/>
      <use x="1372.412109" xlink:href="#DejaVuSans-116"/>
      <use x="1411.621094" xlink:href="#DejaVuSans-101"/>
      <use x="1473.144531" xlink:href="#DejaVuSans-109"/>
      <use x="1570.556641" xlink:href="#DejaVuSans-225"/>
      <use x="1631.835938" xlink:href="#DejaVuSans-116"/>
      <use x="1671.044922" xlink:href="#DejaVuSans-105"/>
      <use x="1698.828125" xlink:href="#DejaVuSans-99"/>
      <use x="1753.808594" xlink:href="#DejaVuSans-97"/>
     </g>
    </g>
   </g>
   <g id="line2d_14">
    <path clip-path="url(#p6b4d02b8ba)" d="M 256.310847 78.9375 
L 680.017411 78.9375 
" style="fill:none;stroke:#4c4c4c;stroke-linecap:square;stroke-width:1.5;"/>
   </g>
   <g id="line2d_15">
    <path clip-path="url(#p6b4d02b8ba)" d="M 451.050845 78.9375 
L 581.703125 78.9375 
" style="fill:none;stroke:#4c4c4c;stroke-linecap:square;stroke-width:4.5;"/>
   </g>
   <g id="line2d_16">
    <path clip-path="url(#p6b4d02b8ba)" d="M 231.255506 160.4775 
L 680.017411 160.4775 
" style="fill:none;stroke:#4c4c4c;stroke-linecap:square;stroke-width:1.5;"/>
   </g>
   <g id="line2d_17">
    <path clip-path="url(#p6b4d02b8ba)" d="M 399.940191 160.4775 
L 512.449843 160.4775 
" style="fill:none;stroke:#4c4c4c;stroke-linecap:square;stroke-width:4.5;"/>
   </g>
   <g id="line2d_18">
    <path clip-path="url(#p6b4d02b8ba)" d="M 211.109848 242.0175 
L 607.549878 242.0175 
" style="fill:none;stroke:#4c4c4c;stroke-linecap:square;stroke-width:1.5;"/>
   </g>
   <g id="line2d_19">
    <path clip-path="url(#p6b4d02b8ba)" d="M 359.154877 242.0175 
L 458.588839 242.0175 
" style="fill:none;stroke:#4c4c4c;stroke-linecap:square;stroke-width:4.5;"/>
   </g>
   <g id="line2d_20">
    <path clip-path="url(#p6b4d02b8ba)" d="M 189.46796 323.5575 
L 575.342086 323.5575 
" style="fill:none;stroke:#4c4c4c;stroke-linecap:square;stroke-width:1.5;"/>
   </g>
   <g id="line2d_21">
    <path clip-path="url(#p6b4d02b8ba)" d="M 333.43356 323.5575 
L 430.245982 323.5575 
" style="fill:none;stroke:#4c4c4c;stroke-linecap:square;stroke-width:4.5;"/>
   </g>
   <g id="patch_3">
    <path d="M 135.303125 364.3275 
L 135.303125 38.1675 
" style="fill:none;stroke:#000000;stroke-linecap:square;stroke-linejoin:miter;stroke-width:0.8;"/>
   </g>
   <g id="patch_4">
    <path d="M 693.303125 364.3275 
L 693.303125 38.1675 
" style="fill:none;stroke:#000000;stroke-linecap:square;stroke-linejoin:miter;stroke-width:0.8;"/>
   </g>
   <g id="patch_5">
    <path d="M 135.303125 364.3275 
L 693.303125 364.3275 
" style="fill:none;stroke:#000000;stroke-linecap:square;stroke-linejoin:miter;stroke-width:0.8;"/>
   </g>
   <g id="patch_6">
    <path d="M 135.303125 38.1675 
L 693.303125 38.1675 
" style="fill:none;stroke:#000000;stroke-linecap:square;stroke-linejoin:miter;stroke-width:0.8;"/>
   </g>
   <g id="PathCollection_1">
    <defs>
     <path d="M 0 1.5 
C 0.397805 1.5 0.77937 1.341951 1.06066 1.06066 
C 1.341951 0.77937 1.5 0.397805 1.5 0 
C 1.5 -0.397805 1.341951 -0.77937 1.06066 -1.06066 
C 0.77937 -1.341951 0.397805 -1.5 0 -1.5 
C -0.397805 -1.5 -0.77937 -1.341951 -1.06066 -1.06066 
C -1.341951 -0.77937 -1.5 -0.397805 -1.5 0 
C -1.5 0.397805 -1.341951 0.77937 -1.06066 1.06066 
C -0.77937 1.341951 -0.397805 1.5 0 1.5 
z
" id="m7bc081d39b" style="stroke:#4c4c4c;"/>
    </defs>
    <g clip-path="url(#p6b4d02b8ba)">
     <use style="fill:#ffffff;stroke:#4c4c4c;" x="515.207284" xlink:href="#m7bc081d39b" y="78.9375"/>
    </g>
   </g>
   <g id="PathCollection_2">
    <g clip-path="url(#p6b4d02b8ba)">
     <use style="fill:#ffffff;stroke:#4c4c4c;" x="450.536891" xlink:href="#m7bc081d39b" y="160.4775"/>
    </g>
   </g>
   <g id="PathCollection_3">
    <g clip-path="url(#p6b4d02b8ba)">
     <use style="fill:#ffffff;stroke:#4c4c4c;" x="408.880384" xlink:href="#m7bc081d39b" y="242.0175"/>
    </g>
   </g>
   <g id="PathCollection_4">
    <g clip-path="url(#p6b4d02b8ba)">
     <use style="fill:#ffffff;stroke:#4c4c4c;" x="382.417411" xlink:href="#m7bc081d39b" y="323.5575"/>
    </g>
   </g>
   <g id="text_16">
    <!-- Distribución de: Índice socioeconómico según el desempeño en matemática -->
    <defs>
     <path d="M 19.671875 64.796875 
L 19.671875 8.109375 
L 31.59375 8.109375 
Q 46.6875 8.109375 53.6875 14.9375 
Q 60.6875 21.78125 60.6875 36.53125 
Q 60.6875 51.171875 53.6875 57.984375 
Q 46.6875 64.796875 31.59375 64.796875 
z
M 9.8125 72.90625 
L 30.078125 72.90625 
Q 51.265625 72.90625 61.171875 64.09375 
Q 71.09375 55.28125 71.09375 36.53125 
Q 71.09375 17.671875 61.125 8.828125 
Q 51.171875 0 30.078125 0 
L 9.8125 0 
z
" id="DejaVuSans-68"/>
     <path d="M 8.5 21.578125 
L 8.5 54.6875 
L 17.484375 54.6875 
L 17.484375 21.921875 
Q 17.484375 14.15625 20.5 10.265625 
Q 23.53125 6.390625 29.59375 6.390625 
Q 36.859375 6.390625 41.078125 11.03125 
Q 45.3125 15.671875 45.3125 23.6875 
L 45.3125 54.6875 
L 54.296875 54.6875 
L 54.296875 0 
L 45.3125 0 
L 45.3125 8.40625 
Q 42.046875 3.421875 37.71875 1 
Q 33.40625 -1.421875 27.6875 -1.421875 
Q 18.265625 -1.421875 13.375 4.4375 
Q 8.5 10.296875 8.5 21.578125 
z
M 31.109375 56 
z
" id="DejaVuSans-117"/>
     <path d="M 11.71875 12.40625 
L 22.015625 12.40625 
L 22.015625 0 
L 11.71875 0 
z
M 11.71875 51.703125 
L 22.015625 51.703125 
L 22.015625 39.3125 
L 11.71875 39.3125 
z
" id="DejaVuSans-58"/>
     <path d="M 45.40625 27.984375 
Q 45.40625 37.75 41.375 43.109375 
Q 37.359375 48.484375 30.078125 48.484375 
Q 22.859375 48.484375 18.828125 43.109375 
Q 14.796875 37.75 14.796875 27.984375 
Q 14.796875 18.265625 18.828125 12.890625 
Q 22.859375 7.515625 30.078125 7.515625 
Q 37.359375 7.515625 41.375 12.890625 
Q 45.40625 18.265625 45.40625 27.984375 
z
M 54.390625 6.78125 
Q 54.390625 -7.171875 48.1875 -13.984375 
Q 42 -20.796875 29.203125 -20.796875 
Q 24.46875 -20.796875 20.265625 -20.09375 
Q 16.0625 -19.390625 12.109375 -17.921875 
L 12.109375 -9.1875 
Q 16.0625 -11.328125 19.921875 -12.34375 
Q 23.78125 -13.375 27.78125 -13.375 
Q 36.625 -13.375 41.015625 -8.765625 
Q 45.40625 -4.15625 45.40625 5.171875 
L 45.40625 9.625 
Q 42.625 4.78125 38.28125 2.390625 
Q 33.9375 0 27.875 0 
Q 17.828125 0 11.671875 7.65625 
Q 5.515625 15.328125 5.515625 27.984375 
Q 5.515625 40.671875 11.671875 48.328125 
Q 17.828125 56 27.875 56 
Q 33.9375 56 38.28125 53.609375 
Q 42.625 51.21875 45.40625 46.390625 
L 45.40625 54.6875 
L 54.390625 54.6875 
z
" id="DejaVuSans-103"/>
     <path d="M 8.5 21.578125 
L 8.5 54.6875 
L 17.484375 54.6875 
L 17.484375 21.921875 
Q 17.484375 14.15625 20.5 10.265625 
Q 23.53125 6.390625 29.59375 6.390625 
Q 36.859375 6.390625 41.078125 11.03125 
Q 45.3125 15.671875 45.3125 23.6875 
L 45.3125 54.6875 
L 54.296875 54.6875 
L 54.296875 0 
L 45.3125 0 
L 45.3125 8.40625 
Q 42.046875 3.421875 37.71875 1 
Q 33.40625 -1.421875 27.6875 -1.421875 
Q 18.265625 -1.421875 13.375 4.4375 
Q 8.5 10.296875 8.5 21.578125 
z
M 31.109375 56 
z
M 37.796875 79.984375 
L 47.515625 79.984375 
L 31.59375 61.625 
L 24.125 61.625 
z
" id="DejaVuSans-250"/>
    </defs>
    <g transform="translate(185.181875 18.328125)scale(0.12 -0.12)">
     <use xlink:href="#DejaVuSans-68"/>
     <use x="77.001953" xlink:href="#DejaVuSans-105"/>
     <use x="104.785156" xlink:href="#DejaVuSans-115"/>
     <use x="156.884766" xlink:href="#DejaVuSans-116"/>
     <use x="196.09375" xlink:href="#DejaVuSans-114"/>
     <use x="237.207031" xlink:href="#DejaVuSans-105"/>
     <use x="264.990234" xlink:href="#DejaVuSans-98"/>
     <use x="328.466797" xlink:href="#DejaVuSans-117"/>
     <use x="391.845703" xlink:href="#DejaVuSans-99"/>
     <use x="446.826172" xlink:href="#DejaVuSans-105"/>
     <use x="474.609375" xlink:href="#DejaVuSans-243"/>
     <use x="535.791016" xlink:href="#DejaVuSans-110"/>
     <use x="599.169922" xlink:href="#DejaVuSans-32"/>
     <use x="630.957031" xlink:href="#DejaVuSans-100"/>
     <use x="694.433594" xlink:href="#DejaVuSans-101"/>
     <use x="755.957031" xlink:href="#DejaVuSans-58"/>
     <use x="789.648438" xlink:href="#DejaVuSans-32"/>
     <use x="821.435547" xlink:href="#DejaVuSans-205"/>
     <use x="850.927734" xlink:href="#DejaVuSans-110"/>
     <use x="914.306641" xlink:href="#DejaVuSans-100"/>
     <use x="977.783203" xlink:href="#DejaVuSans-105"/>
     <use x="1005.566406" xlink:href="#DejaVuSans-99"/>
     <use x="1060.546875" xlink:href="#DejaVuSans-101"/>
     <use x="1122.070312" xlink:href="#DejaVuSans-32"/>
     <use x="1153.857422" xlink:href="#DejaVuSans-115"/>
     <use x="1205.957031" xlink:href="#DejaVuSans-111"/>
     <use x="1267.138672" xlink:href="#DejaVuSans-99"/>
     <use x="1322.119141" xlink:href="#DejaVuSans-105"/>
     <use x="1349.902344" xlink:href="#DejaVuSans-111"/>
     <use x="1411.083984" xlink:href="#DejaVuSans-101"/>
     <use x="1472.607422" xlink:href="#DejaVuSans-99"/>
     <use x="1527.587891" xlink:href="#DejaVuSans-111"/>
     <use x="1588.769531" xlink:href="#DejaVuSans-110"/>
     <use x="1652.148438" xlink:href="#DejaVuSans-243"/>
     <use x="1713.330078" xlink:href="#DejaVuSans-109"/>
     <use x="1810.742188" xlink:href="#DejaVuSans-105"/>
     <use x="1838.525391" xlink:href="#DejaVuSans-99"/>
     <use x="1893.505859" xlink:href="#DejaVuSans-111"/>
     <use x="1954.6875" xlink:href="#DejaVuSans-32"/>
     <use x="1986.474609" xlink:href="#DejaVuSans-115"/>
     <use x="2038.574219" xlink:href="#DejaVuSans-101"/>
     <use x="2100.097656" xlink:href="#DejaVuSans-103"/>
     <use x="2163.574219" xlink:href="#DejaVuSans-250"/>
     <use x="2226.953125" xlink:href="#DejaVuSans-110"/>
     <use x="2290.332031" xlink:href="#DejaVuSans-32"/>
     <use x="2322.119141" xlink:href="#DejaVuSans-101"/>
     <use x="2383.642578" xlink:href="#DejaVuSans-108"/>
     <use x="2411.425781" xlink:href="#DejaVuSans-32"/>
     <use x="2443.212891" xlink:href="#DejaVuSans-100"/>
     <use x="2506.689453" xlink:href="#DejaVuSans-101"/>
     <use x="2568.212891" xlink:href="#DejaVuSans-115"/>
     <use x="2620.3125" xlink:href="#DejaVuSans-101"/>
     <use x="2681.835938" xlink:href="#DejaVuSans-109"/>
     <use x="2779.248047" xlink:href="#DejaVuSans-112"/>
     <use x="2842.724609" xlink:href="#DejaVuSans-101"/>
     <use x="2904.248047" xlink:href="#DejaVuSans-241"/>
     <use x="2967.626953" xlink:href="#DejaVuSans-111"/>
     <use x="3028.808594" xlink:href="#DejaVuSans-32"/>
     <use x="3060.595703" xlink:href="#DejaVuSans-101"/>
     <use x="3122.119141" xlink:href="#DejaVuSans-110"/>
     <use x="3185.498047" xlink:href="#DejaVuSans-32"/>
     <use x="3217.285156" xlink:href="#DejaVuSans-109"/>
     <use x="3314.697266" xlink:href="#DejaVuSans-97"/>
     <use x="3375.976562" xlink:href="#DejaVuSans-116"/>
     <use x="3415.185547" xlink:href="#DejaVuSans-101"/>
     <use x="3476.708984" xlink:href="#DejaVuSans-109"/>
     <use x="3574.121094" xlink:href="#DejaVuSans-225"/>
     <use x="3635.400391" xlink:href="#DejaVuSans-116"/>
     <use x="3674.609375" xlink:href="#DejaVuSans-105"/>
     <use x="3702.392578" xlink:href="#DejaVuSans-99"/>
     <use x="3757.373047" xlink:href="#DejaVuSans-97"/>
    </g>
    <!--  Nivel: Primaria -->
    <g transform="translate(368.320625 31.7655)scale(0.12 -0.12)">
     <use xlink:href="#DejaVuSans-32"/>
     <use x="31.787109" xlink:href="#DejaVuSans-78"/>
     <use x="106.591797" xlink:href="#DejaVuSans-105"/>
     <use x="134.375" xlink:href="#DejaVuSans-118"/>
     <use x="193.554688" xlink:href="#DejaVuSans-101"/>
     <use x="255.078125" xlink:href="#DejaVuSans-108"/>
     <use x="282.861328" xlink:href="#DejaVuSans-58"/>
     <use x="316.552734" xlink:href="#DejaVuSans-32"/>
     <use x="348.339844" xlink:href="#DejaVuSans-80"/>
     <use x="408.626953" xlink:href="#DejaVuSans-114"/>
     <use x="449.740234" xlink:href="#DejaVuSans-105"/>
     <use x="477.523438" xlink:href="#DejaVuSans-109"/>
     <use x="574.935547" xlink:href="#DejaVuSans-97"/>
     <use x="636.214844" xlink:href="#DejaVuSans-114"/>
     <use x="677.328125" xlink:href="#DejaVuSans-105"/>
     <use x="705.111328" xlink:href="#DejaVuSans-97"/>
    </g>
   </g>
  </g>
 </g>
 <defs>
  <clipPath id="p6b4d02b8ba">
   <rect height="326.16" width="558" x="135.303125" y="38.1675"/>
  </clipPath>
 </defs>
</svg>
