<svg id="Capa_1" data-name="Capa 1" xmlns="http://www.w3.org/2000/svg" viewBox="0 0 2358.58 482.08"><defs><style>.cls-1{fill:#9dc8e8;}.cls-2{fill:#467bad;}.cls-3{fill:#2f578b;}.cls-24,.cls-4{fill:#17304e;}.cls-5{font-size:19.2px;}.cls-10,.cls-15,.cls-17,.cls-20,.cls-22,.cls-5{fill:#212120;}.cls-10,.cls-18,.cls-19,.cls-22,.cls-24,.cls-25,.cls-5{font-family:ArialMT, Arial;}.cls-6{letter-spacing:-0.04em;}.cls-7{letter-spacing:-0.05em;}.cls-8{letter-spacing:-0.07em;}.cls-9{letter-spacing:0em;}.cls-10,.cls-15{font-size:10.36px;}.cls-11{letter-spacing:-0.02em;}.cls-12,.cls-13,.cls-14,.cls-16,.cls-21{fill:none;stroke:#212120;stroke-miterlimit:10;}.cls-12,.cls-13,.cls-14{stroke-width:0.5px;}.cls-13{stroke-dasharray:2.97 2.97;}.cls-14{stroke-dasharray:2.92 2.92;}.cls-15,.cls-20{font-family:Arial-BoldMT, Arial;font-weight:700;}.cls-18{font-size:8px;}.cls-18,.cls-19,.cls-25{fill:#fff;}.cls-19,.cls-22,.cls-24{font-size:5px;}.cls-20{font-size:14px;}.cls-21{stroke-width:0.9px;}.cls-23{letter-spacing:-0.07em;}.cls-25{font-size:4px;}</style></defs><title>Arbol_Lengua</title><rect class="cls-1" x="1113.02" y="464.77" width="16.85" height="17.31"/><rect class="cls-2" x="1050.8" y="464.77" width="62.22" height="17.31"/><rect class="cls-3" x="1026.17" y="464.77" width="24.63" height="17.31"/><rect class="cls-4" x="998.95" y="464.77" width="27.22" height="17.31"/><rect class="cls-1" x="982.4" y="464.77" width="10.47" height="17.31"/><rect class="cls-2" x="920.88" y="464.77" width="61.51" height="17.31"/><rect class="cls-3" x="889.47" y="464.77" width="31.41" height="17.31"/><rect class="cls-4" x="861.99" y="464.77" width="27.48" height="17.31"/><rect class="cls-1" x="1046.15" y="367.43" width="14.4" height="17.71"/><rect class="cls-2" x="983.33" y="367.43" width="62.82" height="17.71"/><rect class="cls-3" x="957.15" y="367.43" width="26.18" height="17.71"/><rect class="cls-4" x="929.67" y="367.43" width="27.48" height="17.71"/><rect class="cls-1" x="824.61" y="464.77" width="22.26" height="17.31"/><rect class="cls-2" x="760.46" y="464.77" width="64.15" height="17.31"/><rect class="cls-3" x="738.2" y="464.77" width="22.26" height="17.31"/><rect class="cls-4" x="715.95" y="464.77" width="22.26" height="17.31"/><rect class="cls-1" x="677.15" y="464.77" width="32.72" height="17.31"/><rect class="cls-2" x="609.09" y="464.77" width="68.06" height="17.31"/><rect class="cls-3" x="590.76" y="464.77" width="18.32" height="17.31"/><rect class="cls-4" x="578.99" y="464.77" width="11.78" height="17.31"/><rect class="cls-1" x="753.02" y="367.43" width="23.36" height="17.31"/><rect class="cls-2" x="688.13" y="367.43" width="64.9" height="17.31"/><rect class="cls-3" x="667.36" y="367.43" width="20.77" height="17.31"/><rect class="cls-4" x="645.3" y="367.43" width="22.07" height="17.31"/><rect class="cls-1" x="900.13" y="275.41" width="18.32" height="17.14"/><rect class="cls-2" x="836" y="275.41" width="64.13" height="17.14"/><rect class="cls-3" x="812.44" y="275.41" width="23.56" height="17.14"/><rect class="cls-4" x="787.57" y="275.41" width="24.87" height="17.14"/><rect class="cls-1" x="518.48" y="464.77" width="32.41" height="17.31"/><rect class="cls-2" x="454.96" y="464.77" width="63.52" height="17.31"/><rect class="cls-3" x="438.11" y="464.77" width="16.85" height="17.31"/><rect class="cls-4" x="419.96" y="464.77" width="18.15" height="17.31"/><rect class="cls-1" x="370.26" y="464.77" width="43.63" height="17.31"/><rect class="cls-2" x="309.44" y="464.77" width="60.81" height="17.31"/><rect class="cls-3" x="297.54" y="464.77" width="11.9" height="17.31"/><rect class="cls-4" x="283" y="464.77" width="14.54" height="17.31"/><rect class="cls-1" x="446.25" y="367.43" width="35.35" height="17.31"/><rect class="cls-2" x="383.41" y="367.43" width="62.84" height="17.31"/><rect class="cls-3" x="369.01" y="367.43" width="14.4" height="17.31"/><rect class="cls-4" x="350.68" y="367.43" width="18.33" height="17.31"/><rect class="cls-1" x="232.53" y="464.77" width="35.35" height="17.31"/><rect class="cls-2" x="164.46" y="464.77" width="68.08" height="17.31"/><rect class="cls-3" x="148.75" y="464.77" width="15.71" height="17.31"/><rect class="cls-4" x="136.96" y="464.77" width="11.78" height="17.31"/><rect class="cls-1" x="70.07" y="464.77" width="60.81" height="17.31"/><rect class="cls-2" x="11.9" y="464.77" width="58.17" height="17.31"/><rect class="cls-3" x="3.97" y="464.77" width="7.93" height="17.31"/><rect class="cls-4" y="464.77" width="3.97" height="17.31"/><rect class="cls-1" x="142.87" y="367.43" width="54.5" height="17.31"/><rect class="cls-2" x="83.18" y="367.43" width="59.69" height="17.31"/><rect class="cls-3" x="72.8" y="367.43" width="10.38" height="17.31"/><rect class="cls-4" x="66.31" y="367.43" width="6.49" height="17.31"/><rect class="cls-1" x="300.21" y="275.41" width="39.27" height="17.14"/><rect class="cls-2" x="238.69" y="275.41" width="61.51" height="17.14"/><rect class="cls-3" x="224.3" y="275.41" width="14.4" height="17.14"/><rect class="cls-4" x="208.59" y="275.41" width="15.71" height="17.14"/><rect class="cls-1" x="607.04" y="194.66" width="23.56" height="17.13"/><rect class="cls-2" x="544.21" y="194.66" width="62.82" height="17.13"/><rect class="cls-3" x="521.96" y="194.66" width="22.25" height="17.13"/><rect class="cls-4" x="499.71" y="194.66" width="22.25" height="17.13"/><rect class="cls-1" x="1293.35" y="464.77" width="7.78" height="17.31"/><rect class="cls-2" x="1244.11" y="464.77" width="49.24" height="17.31"/><rect class="cls-3" x="1211.71" y="464.77" width="32.4" height="17.31"/><rect class="cls-4" x="1170.24" y="464.77" width="41.47" height="17.31"/><rect class="cls-1" x="1431.58" y="464.77" width="6.55" height="17.31"/><rect class="cls-2" x="1376.59" y="464.77" width="54.98" height="17.31"/><rect class="cls-3" x="1341.25" y="464.77" width="35.35" height="17.31"/><rect class="cls-4" x="1307.21" y="464.77" width="34.04" height="17.31"/><rect class="cls-1" x="1359.82" y="367.43" width="7.79" height="17.31"/><rect class="cls-2" x="1307.92" y="367.43" width="51.9" height="17.31"/><rect class="cls-3" x="1274.18" y="367.43" width="33.74" height="17.31"/><rect class="cls-4" x="1236.55" y="367.43" width="37.63" height="17.31"/><rect class="cls-1" x="1564.49" y="464.77" width="19.63" height="17.31"/><rect class="cls-2" x="1497.74" y="464.77" width="66.75" height="17.31"/><rect class="cls-3" x="1472.88" y="464.77" width="24.87" height="17.31"/><rect class="cls-4" x="1453.24" y="464.77" width="19.63" height="17.31"/><rect class="cls-1" x="1710.65" y="464.77" width="10.47" height="17.31"/><rect class="cls-2" x="1653.05" y="464.77" width="57.6" height="17.31"/><rect class="cls-3" x="1621.63" y="464.77" width="31.42" height="17.31"/><rect class="cls-4" x="1590.21" y="464.77" width="31.42" height="17.31"/><rect class="cls-1" x="1640.06" y="367.43" width="11.78" height="17.45"/><rect class="cls-2" x="1581.15" y="367.43" width="58.91" height="17.45"/><rect class="cls-3" x="1551.04" y="367.43" width="30.11" height="17.45"/><rect class="cls-4" x="1520.92" y="367.43" width="30.11" height="17.45"/><rect class="cls-1" x="1500.64" y="275.41" width="9.07" height="17.14"/><rect class="cls-2" x="1446.22" y="275.41" width="54.43" height="17.14"/><rect class="cls-3" x="1413.82" y="275.41" width="32.4" height="17.14"/><rect class="cls-4" x="1378.83" y="275.41" width="34.99" height="17.14"/><text class="cls-5" transform="translate(901.8 41.66)">ÁRBO<tspan class="cls-6" x="54.41" y="0">L</tspan><tspan x="64.37" y="0" xml:space="preserve"> DE DESICIÓN DE LENGU</tspan><tspan class="cls-7" x="298" y="0">A</tspan><tspan x="309.75" y="0"> </tspan><tspan class="cls-8" x="315.08" y="0">P</tspan><tspan class="cls-9" x="326.46" y="0">AR</tspan><tspan class="cls-7" x="353.13" y="0">A</tspan><tspan x="364.88" y="0" xml:space="preserve"> SECUNDARIA</tspan></text><text class="cls-10" transform="translate(2245.05 32.35)">Por debajo del básico</text><text class="cls-10" transform="translate(2245.05 49.08)">Básico</text><text class="cls-10" transform="translate(2245.05 68.03)">Satisfactorio</text><text class="cls-10" transform="translate(2245.05 85.5)"><tspan class="cls-11">A</tspan><tspan x="6.72" y="0">vanzado</tspan></text><rect class="cls-4" x="2200.29" y="23.45" width="37.36" height="9.96"/><rect class="cls-3" x="2200.29" y="41.66" width="37.36" height="9.96"/><rect class="cls-2" x="2200.29" y="59.87" width="37.36" height="9.96"/><rect class="cls-1" x="2200.29" y="78.08" width="37.36" height="9.96"/><polyline class="cls-12" points="2358.33 94.53 2358.33 96.03 2356.83 96.03"/><line class="cls-13" x1="2353.86" y1="96.03" x2="2195.21" y2="96.03"/><polyline class="cls-12" points="2193.72 96.03 2192.22 96.03 2192.22 94.53"/><line class="cls-14" x1="2192.22" y1="91.61" x2="2192.22" y2="17.13"/><polyline class="cls-12" points="2192.22 15.66 2192.22 14.16 2193.72 14.16"/><line class="cls-13" x1="2196.69" y1="14.16" x2="2355.34" y2="14.16"/><polyline class="cls-12" points="2356.83 14.16 2358.33 14.16 2358.33 15.66"/><line class="cls-14" x1="2358.33" y1="18.59" x2="2358.33" y2="93.07"/><text class="cls-15" transform="translate(2237.65 8.89)">REFERENCIAS</text><polyline class="cls-16" points="565.35 180.8 565.35 96.03 1162.7 96.03 1197.14 96.03 1734.33 96.03 1734.33 180.8"/><rect class="cls-17" x="1084.4" y="83.93" width="130.88" height="24.2"/><text class="cls-18" transform="translate(1098.05 93.39)">¿Es el índice socioeconomico</text><text class="cls-18" transform="translate(1120.67 102.99)">menor a 2,007? </text><rect class="cls-4" x="1084.4" y="109.89" width="32.77" height="17.13"/><rect class="cls-3" x="1117.17" y="109.89" width="28.67" height="17.13"/><rect class="cls-2" x="1145.84" y="109.89" width="55.04" height="17.13"/><rect class="cls-1" x="1200.88" y="109.89" width="14.4" height="17.13"/><text class="cls-19" transform="translate(1095.84 120.61)">0,25</text><text class="cls-19" transform="translate(1125.84 120.61)">0,22</text><text class="cls-19" transform="translate(1167.81 120.61)">0,42</text><polyline class="cls-16" points="1445.24 262.21 1445.24 177.44 1740.76 177.44 1757.79 177.44 2023.55 177.44 2023.55 262.21"/><rect class="cls-17" x="1669.96" y="168.7" width="130.88" height="24.2"/><rect class="cls-4" x="1669.96" y="194.66" width="45.82" height="17.13"/><rect class="cls-3" x="1715.78" y="194.66" width="36.66" height="17.13"/><rect class="cls-2" x="1752.43" y="194.66" width="43.16" height="17.13"/><rect class="cls-1" x="1795.59" y="194.66" width="5.25" height="17.13"/><text class="cls-19" transform="translate(1687.12 204.94)">0,31</text><text class="cls-19" transform="translate(1729.12 204.94)">0,27</text><text class="cls-19" transform="translate(1769.09 204.94)">0,37</text><text class="cls-20" transform="translate(1910.04 171.49)">SI</text><text class="cls-20" transform="translate(1546.5 171.49)">NO</text><text class="cls-20" transform="translate(1405.83 91.61)">SI</text><text class="cls-20" transform="translate(881.6 91.61)">NO</text><polyline class="cls-16" points="1880.95 353.87 1880.95 262.25 2026.39 262.25 2034.77 262.25"/><rect class="cls-4" x="1957.82" y="275.41" width="45.81" height="17.14"/><rect class="cls-3" x="2003.63" y="275.41" width="36.65" height="17.14"/><rect class="cls-2" x="2040.27" y="275.41" width="43.19" height="17.14"/><rect class="cls-1" x="2083.46" y="275.41" width="5.24" height="17.14"/><rect class="cls-17" x="1957.82" y="249.45" width="130.88" height="24.2"/><text class="cls-18" transform="translate(1972.55 262.21)">¿Es el ICSE menor a 0.181?</text><text class="cls-19" transform="translate(1974.98 285.69)">0,35</text><text class="cls-19" transform="translate(2016.98 285.69)">0,28</text><text class="cls-19" transform="translate(2056.95 285.69)">0,33</text><text class="cls-18" transform="translate(2116.25 351.22)">socio economico medio null</text><text class="cls-19" transform="translate(2115.11 378)">0,30</text><rect class="cls-17" x="1886.23" y="439.1" width="130.88" height="24.2"/><text class="cls-18" transform="translate(1943.44 448.56)">Hoja</text><rect class="cls-4" x="1886.19" y="464.77" width="41.9" height="17.31"/><rect class="cls-3" x="1928.09" y="464.77" width="39.28" height="17.31"/><rect class="cls-2" x="1967.36" y="464.77" width="45.82" height="17.31"/><rect class="cls-1" x="2013.18" y="464.77" width="3.93" height="17.31"/><text class="cls-19" transform="translate(1901.39 475.34)">0,32</text><text class="cls-19" transform="translate(1942.39 475.34)">0,30</text><text class="cls-19" transform="translate(1985.39 475.34)">0,35</text><rect class="cls-17" x="1749.23" y="439.1" width="130.88" height="24.2"/><text class="cls-18" transform="translate(1807.33 448.56)">Hoja</text><rect class="cls-4" x="1749.23" y="464.77" width="52.35" height="17.31"/><rect class="cls-3" x="1801.58" y="464.77" width="35.34" height="17.31"/><rect class="cls-2" x="1836.92" y="464.77" width="39.27" height="17.31"/><rect class="cls-1" x="1876.18" y="464.77" width="3.93" height="17.31"/><text class="cls-19" transform="translate(1771.43 475.34)">0,40</text><text class="cls-19" transform="translate(1814.43 475.34)">0,27</text><text class="cls-19" transform="translate(1852.43 475.34)">0,30</text><text class="cls-20" transform="translate(1908.55 255.27)">NO</text><rect class="cls-4" x="1815.54" y="367.43" width="47.67" height="17.31"/><rect class="cls-3" x="1863.21" y="367.43" width="37.08" height="17.31"/><rect class="cls-2" x="1900.29" y="367.43" width="42.37" height="17.31"/><rect class="cls-1" x="1942.66" y="367.43" width="3.97" height="17.31"/><rect class="cls-17" x="1815.71" y="341.76" width="130.88" height="24.2"/><text class="cls-19" transform="translate(1836.87 378)">0,36</text><text class="cls-19" transform="translate(1876.87 378)">0,28</text><text class="cls-19" transform="translate(1917.84 378)">0,32</text><polyline class="cls-21" points="1765.27 450.38 1765.27 358.76 1883.63 358.76 1890.46 358.76 1996.9 358.76 1996.9 450.38"/><text class="cls-20" transform="translate(1968.55 351.79)">SI</text><text class="cls-20" transform="translate(1781.38 351.79)">NO</text><polyline class="cls-16" points="1301.96 353.87 1301.96 262.25 1447.4 262.25 1455.79 262.25 1586.58 262.25 1586.58 353.87"/><rect class="cls-17" x="1378.83" y="249.45" width="130.88" height="24.2"/><text class="cls-19" transform="translate(1391.99 285.69)">0,27</text><text class="cls-19" transform="translate(1425.99 285.69)">0,25</text><text class="cls-19" transform="translate(1469.96 285.69)">0,42</text><rect class="cls-17" x="1520.96" y="341.76" width="130.88" height="24.2"/><text class="cls-19" transform="translate(1532.12 378)">0,23</text><text class="cls-19" transform="translate(1562.12 378)">0,23</text><text class="cls-19" transform="translate(1608.09 378)">0,45</text><rect class="cls-17" x="1590.24" y="439.1" width="130.88" height="24.2"/><text class="cls-18" transform="translate(1647.46 448.56)">Hoja</text><rect class="cls-17" x="1307.24" y="439.1" width="130.88" height="24.2"/><text class="cls-19" transform="translate(1319.4 475.34)">0,26</text><text class="cls-19" transform="translate(1355.4 475.34)">0,27</text><text class="cls-19" transform="translate(1400.4 475.34)">0,42</text><rect class="cls-17" x="1170.24" y="439.1" width="130.88" height="24.2"/><text class="cls-19" transform="translate(1185.44 475.34)">0,32</text><text class="cls-19" transform="translate(1224.44 475.34)">0,25</text><text class="cls-19" transform="translate(1264.44 475.34)">0,38</text><text class="cls-19" transform="translate(1480.37 475.34)">0,19</text><rect class="cls-17" x="1453.24" y="439.1" width="130.88" height="24.2"/><text class="cls-18" transform="translate(1510.46 448.56)">Hoja</text><text class="cls-19" transform="translate(1458.46 475.34)">0,15</text><text class="cls-19" transform="translate(1527.43 475.34)">0,51</text><text class="cls-22" transform="translate(1569.23 475.34)">0,15</text><text class="cls-20" transform="translate(1546.74 255.27)">SI</text><text class="cls-20" transform="translate(1329.57 255.27)">NO</text><polyline class="cls-21" points="1470.59 450.38 1470.59 358.76 1588.95 358.76 1595.77 358.76 1702.22 358.76 1702.22 450.38"/><text class="cls-20" transform="translate(1673.87 351.79)">SI</text><text class="cls-20" transform="translate(1486.7 351.79)">NO</text><rect class="cls-17" x="1236.73" y="341.76" width="130.88" height="24.2"/><text class="cls-19" transform="translate(1249.89 378)">0,29</text><text class="cls-19" transform="translate(1286.89 378)">0,26</text><text class="cls-19" transform="translate(1329.86 378)">0,40</text><polyline class="cls-21" points="1186.28 450.38 1186.28 358.76 1304.65 358.76 1311.47 358.76 1417.92 358.76 1417.92 450.38"/><text class="cls-20" transform="translate(1389.56 351.79)">SI</text><text class="cls-20" transform="translate(1202.4 351.79)">NO</text><polyline class="cls-16" points="275 262.21 275 177.44 570.52 177.44 587.55 177.44 853.3 177.44 853.3 262.21"/><rect class="cls-17" x="499.71" y="168.7" width="130.88" height="24.2"/><text class="cls-20" transform="translate(739.8 171.49)">SI</text><text class="cls-20" transform="translate(376.26 171.49)">NO</text><polyline class="cls-16" points="710.71 353.87 710.71 262.25 856.15 262.25 864.53 262.25 995.33 262.25 995.33 353.87"/><rect class="cls-17" x="787.58" y="249.45" width="130.88" height="24.2"/><text class="cls-19" transform="translate(794.73 285.69)">0,19</text><text class="cls-19" transform="translate(819.73 285.69)">0,18</text><text class="cls-19" transform="translate(864.7 285.69)">0,49</text><text class="cls-22" transform="translate(904.7 285.69)">0,14</text><rect class="cls-17" x="929.7" y="341.76" width="130.88" height="24.2"/><text class="cls-19" transform="translate(938.86 378)">0,21</text><text class="cls-19" transform="translate(964.86 378)">0,20</text><text class="cls-19" transform="translate(1010.83 378)">0,48</text><text class="cls-22" transform="translate(1048.83 378)">0,<tspan class="cls-23" x="4.17" y="0">1</tspan><tspan x="6.58" y="0">1</tspan></text><rect class="cls-17" x="998.99" y="439.1" width="130.88" height="24.2"/><text class="cls-19" transform="translate(1008.15 475.34)">0,21</text><text class="cls-19" transform="translate(1034.15 475.34)">0,19</text><text class="cls-19" transform="translate(1078.12 475.34)">0,48</text><text class="cls-22" transform="translate(1117.12 475.34)">0,13</text><rect class="cls-17" x="715.99" y="439.1" width="130.88" height="24.2"/><text class="cls-19" transform="translate(722.15 475.34)">0,17</text><text class="cls-19" transform="translate(745.15 475.34)">0,17</text><text class="cls-22" transform="translate(831.15 475.34)">0,17</text><text class="cls-19" transform="translate(790.15 475.34)">0,49</text><rect class="cls-17" x="578.99" y="439.1" width="130.88" height="24.2"/><text class="cls-19" transform="translate(595.18 475.34)">0,14</text><text class="cls-19" transform="translate(638.18 475.34)">0,52</text><text class="cls-22" transform="translate(689.18 475.34)">0,25</text><rect class="cls-17" x="861.99" y="439.1" width="130.88" height="24.2"/><text class="cls-19" transform="translate(871.2 475.34)">0,21</text><text class="cls-19" transform="translate(900.2 475.34)">0,24</text><text class="cls-19" transform="translate(949.17 475.34)">0,47</text><text class="cls-20" transform="translate(955.48 255.27)">SI</text><text class="cls-20" transform="translate(738.31 255.27)">NO</text><polyline class="cls-21" points="879.33 450.38 879.33 358.76 997.69 358.76 1004.52 358.76 1110.96 358.76 1110.96 450.38"/><text class="cls-20" transform="translate(1082.61 351.79)">SI</text><text class="cls-20" transform="translate(895.44 351.79)">NO</text><rect class="cls-17" x="645.47" y="341.76" width="130.88" height="24.2"/><text class="cls-19" transform="translate(651.63 378)">0,17</text><text class="cls-19" transform="translate(672.63 378)">0,16</text><text class="cls-19" transform="translate(714.63 378)">0,50</text><text class="cls-22" transform="translate(760.6 378)">0,18</text><polyline class="cls-21" points="595.02 450.38 595.02 358.76 713.39 358.76 720.21 358.76 826.66 358.76 826.66 450.38"/><text class="cls-20" transform="translate(798.31 351.79)">SI</text><text class="cls-20" transform="translate(611.14 351.79)">NO</text><polyline class="cls-16" points="131.72 353.87 131.72 262.25 277.16 262.25 285.55 262.25 416.34 262.25 416.34 353.87"/><rect class="cls-17" x="208.59" y="249.45" width="130.88" height="24.2"/><text class="cls-18" transform="translate(230.31 258.91)">Alumne no marca que no<tspan x="8.89" y="9.6">repitió la secundaria</tspan></text><text class="cls-24" transform="translate(125.75 285.69)">0,35</text><rect class="cls-17" x="350.72" y="341.76" width="130.88" height="24.2"/><text class="cls-19" transform="translate(354.88 378)">0,14</text><text class="cls-19" transform="translate(371.88 378)">0,<tspan class="cls-23" x="4.17" y="0">1</tspan><tspan x="6.58" y="0">1</tspan></text><text class="cls-19" transform="translate(409.88 378)">0,48</text><text class="cls-22" transform="translate(458.85 378)">0,27</text><rect class="cls-17" x="420" y="439.1" width="130.88" height="24.2"/><text class="cls-19" transform="translate(424.16 475.34)">0,14</text><text class="cls-19" transform="translate(442.16 475.34)">0,13</text><text class="cls-19" transform="translate(479.13 475.34)">0,49</text><text class="cls-22" transform="translate(531.13 475.34)">0,25</text><rect class="cls-17" x="137" y="439.1" width="130.88" height="24.2"/><text class="cls-19" transform="translate(152.16 475.34)">0,12</text><text class="cls-19" transform="translate(193.16 475.34)">0,52</text><text class="cls-22" transform="translate(245.16 475.34)">0,27</text><rect class="cls-17" y="439.1" width="130.88" height="24.2"/><text class="cls-25" transform="translate(4.2 474.63)">0,06</text><text class="cls-19" transform="translate(36.2 475.34)">0,44</text><text class="cls-22" transform="translate(95.2 475.34)">0,46</text><rect class="cls-17" x="283" y="439.1" width="130.88" height="24.2"/><text class="cls-19" transform="translate(285.21 475.34)">0,12</text><text class="cls-19" transform="translate(298.21 475.34)">0,09</text><text class="cls-19" transform="translate(334.18 475.34)">0,46</text><text class="cls-22" transform="translate(387.99 475.34)">0,33</text><text class="cls-20" transform="translate(376.49 255.27)">SI</text><text class="cls-20" transform="translate(159.33 255.27)">NO</text><polyline class="cls-21" points="300.34 450.38 300.34 358.76 418.71 358.76 425.53 358.76 531.98 358.76 531.98 450.38"/><text class="cls-20" transform="translate(503.62 351.79)">SI</text><text class="cls-20" transform="translate(316.46 351.79)">NO</text><rect class="cls-17" x="66.48" y="341.76" width="130.88" height="24.2"/><polyline class="cls-21" points="16.04 450.38 16.04 358.76 134.41 358.76 141.23 358.76 247.68 358.76 247.68 450.38"/><text class="cls-20" transform="translate(219.32 351.79)">SI</text><text class="cls-20" transform="translate(32.15 351.79)">NO</text><text class="cls-19" transform="translate(1601.4 475.34)">0,24</text><text class="cls-19" transform="translate(1632.4 475.34)">0,24</text><text class="cls-19" transform="translate(1678.37 475.34)">0,44</text><text class="cls-19" transform="translate(528.79 204.94)">0,17</text><text class="cls-19" transform="translate(505.87 204.94)">0,17</text><text class="cls-19" transform="translate(571.84 204.94)">0,48</text><text class="cls-22" transform="translate(614.65 204.94)">0,18</text><text class="cls-19" transform="translate(226.98 285.69)">0,<tspan class="cls-23" x="4.17" y="0">1</tspan><tspan x="6.58" y="0">1</tspan></text><text class="cls-19" transform="translate(211.07 285.69)">0,12</text><text class="cls-19" transform="translate(266.04 285.69)">0,47</text><text class="cls-22" transform="translate(316.84 285.69)">0,30</text><text class="cls-19" transform="translate(72.99 378)">0,08</text><text class="cls-19" transform="translate(110.05 378)">0,46</text><text class="cls-22" transform="translate(165.85 378)">0,42</text><text class="cls-18" transform="translate(1684.3 178.16)">¿Es el índice socioeconomico</text><text class="cls-18" transform="translate(1706.92 187.76)">menor a 1,832? </text><text class="cls-18" transform="translate(1837.37 351.22)">Alumne contesta si tiene<tspan x="21.79" y="9.6">Smartphone</tspan></text><text class="cls-18" transform="translate(1391.99 262.24)">¿Es el ICSE menor a 0.135?</text><text class="cls-18" transform="translate(1539.71 351.22)">Alumne no indica si repitió<tspan x="28.02" y="9.6">la primaria</tspan></text><text class="cls-18" transform="translate(1251.91 351.22)">Alumne contesta si tiene un <tspan x="33.36" y="9.6">Smart TV</tspan></text><text class="cls-18" transform="translate(513.15 178.16)">¿Es el índice socioeconomico</text><text class="cls-18" transform="translate(535.77 187.76)">menor a 2,461? </text><text class="cls-18" transform="translate(801.13 258.91)">¿Es el índice socioeconomico</text><text class="cls-18" transform="translate(823.75 268.51)">menor a 2,183? </text><text class="cls-18" transform="translate(1366.46 448.56)">Hoja</text><text class="cls-18" transform="translate(1228.5 448.56)">Hoja</text><text class="cls-18" transform="translate(664.22 351.22)">Alumne no indica si repitió<tspan x="22.9" y="9.6">la secundaria</tspan></text><text class="cls-18" transform="translate(945.11 351.22)">Alumne no indica si no tiene<tspan x="28.24" y="9.6">Smartphone</tspan></text><text class="cls-18" transform="translate(1056.2 448.56)">Hoja</text><text class="cls-18" transform="translate(919.2 448.56)">Hoja</text><text class="cls-18" transform="translate(773.2 448.56)">Hoja</text><text class="cls-18" transform="translate(634.89 448.56)">Hoja</text><text class="cls-18" transform="translate(478.49 448.56)">Hoja</text><text class="cls-18" transform="translate(340.21 448.56)">Hoja</text><text class="cls-18" transform="translate(195.49 448.56)">Hoja</text><text class="cls-18" transform="translate(57.21 448.56)">Hoja</text><text class="cls-18" transform="translate(364.9 351.79)">¿Es el índice socioeconomico</text><text class="cls-18" transform="translate(387.52 361.39)">menor a 2,688? </text><text class="cls-18" transform="translate(88.34 351.22)">Alumne contesta si tiene<tspan x="21.79" y="9.6">Smartphone</tspan></text></svg>